<?xml version="1.0"?>
<!-- Created by MetaPost 2.00 on 2022.03.31:1251 -->
<svg version="1.1" xmlns="http://www.w3.org/2000/svg" xmlns:xlink="http://www.w3.org/1999/xlink" width="701.399887" height="624.279358" viewBox="0 0 701.399887 624.279358">
<!-- Original BoundingBox: -67.966415 -28.675171 633.433472 595.604187 -->
  <path d="M67.000000 595.000000L129.994034 595.000000L161.491058 540.449005L121.550995 500.508942L67.000000 532.005966L67.000000 595.000000Z" style="fill: rgb(100.000000%,100.000000%,100.000000%);stroke: none;"></path>
  <path d="M161.491058 540.449005L192.988068 595.000000L255.973450 595.000000L287.470474 540.449005L255.973450 485.897995L161.491058 540.449005Z" style="fill: rgb(100.000000%,100.000000%,100.000000%);stroke: none;"></path>
  <path d="M176.102005 406.026550L121.550995 374.529526L67.000000 406.026550L67.000000 469.011932L121.550995 500.508942L176.102005 406.026550Z" style="fill: rgb(100.000000%,100.000000%,100.000000%);stroke: none;"></path>
  <path d="M121.550995 500.508942L161.491058 540.449005L255.973450 485.897995L176.102005 406.026550L121.550995 500.508942Z" style="fill: rgb(100.000000%,100.000000%,100.000000%);stroke: none;"></path>
  <path d="M176.102005 406.026550L255.973450 485.897995L318.967484 485.897995L350.464508 431.338348L230.661652 311.535492L176.102005 343.032516L176.102005 406.026550Z" style="fill: rgb(100.000000%,100.000000%,100.000000%);stroke: none;"></path>
  <path d="M444.955566 485.897995L413.458542 540.449005L444.955566 595.000000L507.940948 595.000000L539.437958 540.449005L444.955566 485.897995Z" style="fill: rgb(100.000000%,100.000000%,100.000000%);stroke: none;"></path>
  <path d="M539.437958 540.449005L570.934982 595.000000L633.929016 595.000000L633.929016 532.005966L579.378021 500.508942L539.437958 540.449005Z" style="fill: rgb(100.000000%,100.000000%,100.000000%);stroke: none;"></path>
  <path d="M579.378021 500.508942L633.929016 469.011932L633.929016 406.026550L579.378021 374.529526L524.827011 406.026550L579.378021 500.508942Z" style="fill: rgb(100.000000%,100.000000%,100.000000%);stroke: none;"></path>
  <path d="M579.378021 500.508942L524.827011 406.026550L444.955566 485.897995L539.437958 540.449005L579.378021 500.508942Z" style="fill: rgb(100.000000%,100.000000%,100.000000%);stroke: none;"></path>
  <path d="M350.464508 431.338348L381.961533 485.897995L444.955566 485.897995L524.827011 406.026550L524.827011 343.032516L470.267365 311.535492L350.464508 431.338348Z" style="fill: rgb(100.000000%,100.000000%,100.000000%);stroke: none;"></path>
  <path d="M524.827011 217.044434L579.378021 248.541458L633.929016 217.044434L633.929016 154.059052L579.378021 122.562042L524.827011 217.044434Z" style="fill: rgb(100.000000%,100.000000%,100.000000%);stroke: none;"></path>
  <path d="M579.378021 122.562042L633.929016 91.065018L633.929016 28.070984L570.934982 28.070984L539.437958 82.621979L579.378021 122.562042Z" style="fill: rgb(100.000000%,100.000000%,100.000000%);stroke: none;"></path>
  <path d="M539.437958 82.621979L507.940948 28.070984L444.955566 28.070984L413.458542 82.621979L444.955566 137.172989L539.437958 82.621979Z" style="fill: rgb(100.000000%,100.000000%,100.000000%);stroke: none;"></path>
  <path d="M539.437958 82.621979L444.955566 137.172989L524.827011 217.044434L579.378021 122.562042L539.437958 82.621979Z" style="fill: rgb(100.000000%,100.000000%,100.000000%);stroke: none;"></path>
  <path d="M524.827011 217.044434L444.955566 137.172989L381.961533 137.172989L350.464508 191.732635L470.267365 311.535492L524.827011 280.038467L524.827011 217.044434Z" style="fill: rgb(100.000000%,100.000000%,100.000000%);stroke: none;"></path>
  <path d="M255.973450 137.172989L287.470474 82.621979L255.973450 28.070984L192.988068 28.070984L161.491058 82.621979L255.973450 137.172989Z" style="fill: rgb(100.000000%,100.000000%,100.000000%);stroke: none;"></path>
  <path d="M161.491058 82.621979L129.994034 28.070984L67.000000 28.070984L67.000000 91.065018L121.550995 122.562042L161.491058 82.621979Z" style="fill: rgb(100.000000%,100.000000%,100.000000%);stroke: none;"></path>
  <path d="M121.550995 122.562042L67.000000 154.059052L67.000000 217.044434L121.550995 248.541458L176.102005 217.044434L121.550995 122.562042Z" style="fill: rgb(100.000000%,100.000000%,100.000000%);stroke: none;"></path>
  <path d="M121.550995 122.562042L176.102005 217.044434L255.973450 137.172989L161.491058 82.621979L121.550995 122.562042Z" style="fill: rgb(100.000000%,100.000000%,100.000000%);stroke: none;"></path>
  <path d="M255.973450 137.172989L176.102005 217.044434L176.102005 280.038467L230.661652 311.535492L350.464508 191.732635L318.967484 137.172989L255.973450 137.172989Z" style="fill: rgb(100.000000%,100.000000%,100.000000%);stroke: none;"></path>
  <path d="M350.464508 191.732635L230.661652 311.535492L350.464508 431.338348L470.267365 311.535492L350.464508 191.732635Z" style="fill: rgb(100.000000%,100.000000%,100.000000%);stroke: none;"></path>
  <path d="M161.491058 540.449005L121.550995 500.508942" style="stroke:rgb(100.000000%,100.000000%,100.000000%); stroke-width: 1.000000;stroke-linecap: round;stroke-linejoin: round;stroke-miterlimit: 10.000000;fill: none;"></path>
  <path d="M255.973450 485.897995L161.491058 540.449005" style="stroke:rgb(100.000000%,100.000000%,100.000000%); stroke-width: 1.000000;stroke-linecap: round;stroke-linejoin: round;stroke-miterlimit: 10.000000;fill: none;"></path>
  <path d="M121.550995 500.508942L176.102005 406.026550" style="stroke:rgb(100.000000%,100.000000%,100.000000%); stroke-width: 1.000000;stroke-linecap: round;stroke-linejoin: round;stroke-miterlimit: 10.000000;fill: none;"></path>
  <path d="M121.550995 500.508942L161.491058 540.449005" style="stroke:rgb(100.000000%,100.000000%,100.000000%); stroke-width: 1.000000;stroke-linecap: round;stroke-linejoin: round;stroke-miterlimit: 10.000000;fill: none;"></path>
  <path d="M161.491058 540.449005L255.973450 485.897995" style="stroke:rgb(100.000000%,100.000000%,100.000000%); stroke-width: 1.000000;stroke-linecap: round;stroke-linejoin: round;stroke-miterlimit: 10.000000;fill: none;"></path>
  <path d="M255.973450 485.897995L176.102005 406.026550" style="stroke:rgb(100.000000%,100.000000%,100.000000%); stroke-width: 1.000000;stroke-linecap: round;stroke-linejoin: round;stroke-miterlimit: 10.000000;fill: none;"></path>
  <path d="M176.102005 406.026550L121.550995 500.508942" style="stroke:rgb(100.000000%,100.000000%,100.000000%); stroke-width: 1.000000;stroke-linecap: round;stroke-linejoin: round;stroke-miterlimit: 10.000000;fill: none;"></path>
  <path d="M176.102005 406.026550L255.973450 485.897995" style="stroke:rgb(100.000000%,100.000000%,100.000000%); stroke-width: 1.000000;stroke-linecap: round;stroke-linejoin: round;stroke-miterlimit: 10.000000;fill: none;"></path>
  <path d="M350.464508 431.338348L230.661652 311.535492" style="stroke:rgb(100.000000%,100.000000%,100.000000%); stroke-width: 1.000000;stroke-linecap: round;stroke-linejoin: round;stroke-miterlimit: 10.000000;fill: none;"></path>
  <path d="M539.437958 540.449005L444.955566 485.897995" style="stroke:rgb(100.000000%,100.000000%,100.000000%); stroke-width: 1.000000;stroke-linecap: round;stroke-linejoin: round;stroke-miterlimit: 10.000000;fill: none;"></path>
  <path d="M579.378021 500.508942L539.437958 540.449005" style="stroke:rgb(100.000000%,100.000000%,100.000000%); stroke-width: 1.000000;stroke-linecap: round;stroke-linejoin: round;stroke-miterlimit: 10.000000;fill: none;"></path>
  <path d="M524.827011 406.026550L579.378021 500.508942" style="stroke:rgb(100.000000%,100.000000%,100.000000%); stroke-width: 1.000000;stroke-linecap: round;stroke-linejoin: round;stroke-miterlimit: 10.000000;fill: none;"></path>
  <path d="M579.378021 500.508942L524.827011 406.026550" style="stroke:rgb(100.000000%,100.000000%,100.000000%); stroke-width: 1.000000;stroke-linecap: round;stroke-linejoin: round;stroke-miterlimit: 10.000000;fill: none;"></path>
  <path d="M524.827011 406.026550L444.955566 485.897995" style="stroke:rgb(100.000000%,100.000000%,100.000000%); stroke-width: 1.000000;stroke-linecap: round;stroke-linejoin: round;stroke-miterlimit: 10.000000;fill: none;"></path>
  <path d="M444.955566 485.897995L539.437958 540.449005" style="stroke:rgb(100.000000%,100.000000%,100.000000%); stroke-width: 1.000000;stroke-linecap: round;stroke-linejoin: round;stroke-miterlimit: 10.000000;fill: none;"></path>
  <path d="M539.437958 540.449005L579.378021 500.508942" style="stroke:rgb(100.000000%,100.000000%,100.000000%); stroke-width: 1.000000;stroke-linecap: round;stroke-linejoin: round;stroke-miterlimit: 10.000000;fill: none;"></path>
  <path d="M444.955566 485.897995L524.827011 406.026550" style="stroke:rgb(100.000000%,100.000000%,100.000000%); stroke-width: 1.000000;stroke-linecap: round;stroke-linejoin: round;stroke-miterlimit: 10.000000;fill: none;"></path>
  <path d="M470.267365 311.535492L350.464508 431.338348" style="stroke:rgb(100.000000%,100.000000%,100.000000%); stroke-width: 1.000000;stroke-linecap: round;stroke-linejoin: round;stroke-miterlimit: 10.000000;fill: none;"></path>
  <path d="M579.378021 122.562042L524.827011 217.044434" style="stroke:rgb(100.000000%,100.000000%,100.000000%); stroke-width: 1.000000;stroke-linecap: round;stroke-linejoin: round;stroke-miterlimit: 10.000000;fill: none;"></path>
  <path d="M539.437958 82.621979L579.378021 122.562042" style="stroke:rgb(100.000000%,100.000000%,100.000000%); stroke-width: 1.000000;stroke-linecap: round;stroke-linejoin: round;stroke-miterlimit: 10.000000;fill: none;"></path>
  <path d="M444.955566 137.172989L539.437958 82.621979" style="stroke:rgb(100.000000%,100.000000%,100.000000%); stroke-width: 1.000000;stroke-linecap: round;stroke-linejoin: round;stroke-miterlimit: 10.000000;fill: none;"></path>
  <path d="M539.437958 82.621979L444.955566 137.172989" style="stroke:rgb(100.000000%,100.000000%,100.000000%); stroke-width: 1.000000;stroke-linecap: round;stroke-linejoin: round;stroke-miterlimit: 10.000000;fill: none;"></path>
  <path d="M444.955566 137.172989L524.827011 217.044434" style="stroke:rgb(100.000000%,100.000000%,100.000000%); stroke-width: 1.000000;stroke-linecap: round;stroke-linejoin: round;stroke-miterlimit: 10.000000;fill: none;"></path>
  <path d="M524.827011 217.044434L579.378021 122.562042" style="stroke:rgb(100.000000%,100.000000%,100.000000%); stroke-width: 1.000000;stroke-linecap: round;stroke-linejoin: round;stroke-miterlimit: 10.000000;fill: none;"></path>
  <path d="M579.378021 122.562042L539.437958 82.621979" style="stroke:rgb(100.000000%,100.000000%,100.000000%); stroke-width: 1.000000;stroke-linecap: round;stroke-linejoin: round;stroke-miterlimit: 10.000000;fill: none;"></path>
  <path d="M524.827011 217.044434L444.955566 137.172989" style="stroke:rgb(100.000000%,100.000000%,100.000000%); stroke-width: 1.000000;stroke-linecap: round;stroke-linejoin: round;stroke-miterlimit: 10.000000;fill: none;"></path>
  <path d="M350.464508 191.732635L470.267365 311.535492" style="stroke:rgb(100.000000%,100.000000%,100.000000%); stroke-width: 1.000000;stroke-linecap: round;stroke-linejoin: round;stroke-miterlimit: 10.000000;fill: none;"></path>
  <path d="M161.491058 82.621979L255.973450 137.172989" style="stroke:rgb(100.000000%,100.000000%,100.000000%); stroke-width: 1.000000;stroke-linecap: round;stroke-linejoin: round;stroke-miterlimit: 10.000000;fill: none;"></path>
  <path d="M121.550995 122.562042L161.491058 82.621979" style="stroke:rgb(100.000000%,100.000000%,100.000000%); stroke-width: 1.000000;stroke-linecap: round;stroke-linejoin: round;stroke-miterlimit: 10.000000;fill: none;"></path>
  <path d="M176.102005 217.044434L121.550995 122.562042" style="stroke:rgb(100.000000%,100.000000%,100.000000%); stroke-width: 1.000000;stroke-linecap: round;stroke-linejoin: round;stroke-miterlimit: 10.000000;fill: none;"></path>
  <path d="M121.550995 122.562042L176.102005 217.044434" style="stroke:rgb(100.000000%,100.000000%,100.000000%); stroke-width: 1.000000;stroke-linecap: round;stroke-linejoin: round;stroke-miterlimit: 10.000000;fill: none;"></path>
  <path d="M176.102005 217.044434L255.973450 137.172989" style="stroke:rgb(100.000000%,100.000000%,100.000000%); stroke-width: 1.000000;stroke-linecap: round;stroke-linejoin: round;stroke-miterlimit: 10.000000;fill: none;"></path>
  <path d="M255.973450 137.172989L161.491058 82.621979" style="stroke:rgb(100.000000%,100.000000%,100.000000%); stroke-width: 1.000000;stroke-linecap: round;stroke-linejoin: round;stroke-miterlimit: 10.000000;fill: none;"></path>
  <path d="M161.491058 82.621979L121.550995 122.562042" style="stroke:rgb(100.000000%,100.000000%,100.000000%); stroke-width: 1.000000;stroke-linecap: round;stroke-linejoin: round;stroke-miterlimit: 10.000000;fill: none;"></path>
  <path d="M255.973450 137.172989L176.102005 217.044434" style="stroke:rgb(100.000000%,100.000000%,100.000000%); stroke-width: 1.000000;stroke-linecap: round;stroke-linejoin: round;stroke-miterlimit: 10.000000;fill: none;"></path>
  <path d="M230.661652 311.535492L350.464508 191.732635" style="stroke:rgb(100.000000%,100.000000%,100.000000%); stroke-width: 1.000000;stroke-linecap: round;stroke-linejoin: round;stroke-miterlimit: 10.000000;fill: none;"></path>
  <path d="M350.464508 191.732635L230.661652 311.535492" style="stroke:rgb(100.000000%,100.000000%,100.000000%); stroke-width: 1.000000;stroke-linecap: round;stroke-linejoin: round;stroke-miterlimit: 10.000000;fill: none;"></path>
  <path d="M230.661652 311.535492L350.464508 431.338348" style="stroke:rgb(100.000000%,100.000000%,100.000000%); stroke-width: 1.000000;stroke-linecap: round;stroke-linejoin: round;stroke-miterlimit: 10.000000;fill: none;"></path>
  <path d="M350.464508 431.338348L470.267365 311.535492" style="stroke:rgb(100.000000%,100.000000%,100.000000%); stroke-width: 1.000000;stroke-linecap: round;stroke-linejoin: round;stroke-miterlimit: 10.000000;fill: none;"></path>
  <path d="M470.267365 311.535492L350.464508 191.732635" style="stroke:rgb(100.000000%,100.000000%,100.000000%); stroke-width: 1.000000;stroke-linecap: round;stroke-linejoin: round;stroke-miterlimit: 10.000000;fill: none;"></path>
  <path d="M67.000000 595.000000L129.994034 595.000000" style="stroke:rgb(0.000000%,0.000000%,0.000000%); stroke-width: 1.000000;stroke-linecap: round;stroke-linejoin: round;stroke-miterlimit: 10.000000;fill: none;"></path>
  <path d="M129.994034 595.000000L161.491058 540.449005" style="stroke:rgb(0.000000%,0.000000%,0.000000%); stroke-width: 1.000000;stroke-linecap: round;stroke-linejoin: round;stroke-miterlimit: 10.000000;fill: none;"></path>
  <path d="M121.550995 500.508942L67.000000 532.005966" style="stroke:rgb(0.000000%,0.000000%,0.000000%); stroke-width: 1.000000;stroke-linecap: round;stroke-linejoin: round;stroke-miterlimit: 10.000000;fill: none;"></path>
  <path d="M67.000000 532.005966L67.000000 595.000000" style="stroke:rgb(0.000000%,0.000000%,0.000000%); stroke-width: 1.000000;stroke-linecap: round;stroke-linejoin: round;stroke-miterlimit: 10.000000;fill: none;"></path>
  <path d="M161.491058 540.449005L192.988068 595.000000" style="stroke:rgb(0.000000%,0.000000%,0.000000%); stroke-width: 1.000000;stroke-linecap: round;stroke-linejoin: round;stroke-miterlimit: 10.000000;fill: none;"></path>
  <path d="M192.988068 595.000000L255.973450 595.000000" style="stroke:rgb(0.000000%,0.000000%,0.000000%); stroke-width: 1.000000;stroke-linecap: round;stroke-linejoin: round;stroke-miterlimit: 10.000000;fill: none;"></path>
  <path d="M255.973450 595.000000L287.470474 540.449005" style="stroke:rgb(0.000000%,0.000000%,0.000000%); stroke-width: 1.000000;stroke-linecap: round;stroke-linejoin: round;stroke-miterlimit: 10.000000;fill: none;"></path>
  <path d="M287.470474 540.449005L255.973450 485.897995" style="stroke:rgb(0.000000%,0.000000%,0.000000%); stroke-width: 1.000000;stroke-linecap: round;stroke-linejoin: round;stroke-miterlimit: 10.000000;fill: none;"></path>
  <path d="M176.102005 406.026550L121.550995 374.529526" style="stroke:rgb(0.000000%,0.000000%,0.000000%); stroke-width: 1.000000;stroke-linecap: round;stroke-linejoin: round;stroke-miterlimit: 10.000000;fill: none;"></path>
  <path d="M121.550995 374.529526L67.000000 406.026550" style="stroke:rgb(0.000000%,0.000000%,0.000000%); stroke-width: 1.000000;stroke-linecap: round;stroke-linejoin: round;stroke-miterlimit: 10.000000;fill: none;"></path>
  <path d="M67.000000 406.026550L67.000000 469.011932" style="stroke:rgb(0.000000%,0.000000%,0.000000%); stroke-width: 1.000000;stroke-linecap: round;stroke-linejoin: round;stroke-miterlimit: 10.000000;fill: none;"></path>
  <path d="M67.000000 469.011932L121.550995 500.508942" style="stroke:rgb(0.000000%,0.000000%,0.000000%); stroke-width: 1.000000;stroke-linecap: round;stroke-linejoin: round;stroke-miterlimit: 10.000000;fill: none;"></path>
  <path d="M255.973450 485.897995L318.967484 485.897995" style="stroke:rgb(0.000000%,0.000000%,0.000000%); stroke-width: 1.000000;stroke-linecap: round;stroke-linejoin: round;stroke-miterlimit: 10.000000;fill: none;"></path>
  <path d="M318.967484 485.897995L350.464508 431.338348" style="stroke:rgb(0.000000%,0.000000%,0.000000%); stroke-width: 1.000000;stroke-linecap: round;stroke-linejoin: round;stroke-miterlimit: 10.000000;fill: none;"></path>
  <path d="M230.661652 311.535492L176.102005 343.032516" style="stroke:rgb(0.000000%,0.000000%,0.000000%); stroke-width: 1.000000;stroke-linecap: round;stroke-linejoin: round;stroke-miterlimit: 10.000000;fill: none;"></path>
  <path d="M176.102005 343.032516L176.102005 406.026550" style="stroke:rgb(0.000000%,0.000000%,0.000000%); stroke-width: 1.000000;stroke-linecap: round;stroke-linejoin: round;stroke-miterlimit: 10.000000;fill: none;"></path>
  <path d="M444.955566 485.897995L413.458542 540.449005" style="stroke:rgb(0.000000%,0.000000%,0.000000%); stroke-width: 1.000000;stroke-linecap: round;stroke-linejoin: round;stroke-miterlimit: 10.000000;fill: none;"></path>
  <path d="M413.458542 540.449005L444.955566 595.000000" style="stroke:rgb(0.000000%,0.000000%,0.000000%); stroke-width: 1.000000;stroke-linecap: round;stroke-linejoin: round;stroke-miterlimit: 10.000000;fill: none;"></path>
  <path d="M444.955566 595.000000L507.940948 595.000000" style="stroke:rgb(0.000000%,0.000000%,0.000000%); stroke-width: 1.000000;stroke-linecap: round;stroke-linejoin: round;stroke-miterlimit: 10.000000;fill: none;"></path>
  <path d="M507.940948 595.000000L539.437958 540.449005" style="stroke:rgb(0.000000%,0.000000%,0.000000%); stroke-width: 1.000000;stroke-linecap: round;stroke-linejoin: round;stroke-miterlimit: 10.000000;fill: none;"></path>
  <path d="M539.437958 540.449005L570.934982 595.000000" style="stroke:rgb(0.000000%,0.000000%,0.000000%); stroke-width: 1.000000;stroke-linecap: round;stroke-linejoin: round;stroke-miterlimit: 10.000000;fill: none;"></path>
  <path d="M570.934982 595.000000L633.929016 595.000000" style="stroke:rgb(0.000000%,0.000000%,0.000000%); stroke-width: 1.000000;stroke-linecap: round;stroke-linejoin: round;stroke-miterlimit: 10.000000;fill: none;"></path>
  <path d="M633.929016 595.000000L633.929016 532.005966" style="stroke:rgb(0.000000%,0.000000%,0.000000%); stroke-width: 1.000000;stroke-linecap: round;stroke-linejoin: round;stroke-miterlimit: 10.000000;fill: none;"></path>
  <path d="M633.929016 532.005966L579.378021 500.508942" style="stroke:rgb(0.000000%,0.000000%,0.000000%); stroke-width: 1.000000;stroke-linecap: round;stroke-linejoin: round;stroke-miterlimit: 10.000000;fill: none;"></path>
  <path d="M579.378021 500.508942L633.929016 469.011932" style="stroke:rgb(0.000000%,0.000000%,0.000000%); stroke-width: 1.000000;stroke-linecap: round;stroke-linejoin: round;stroke-miterlimit: 10.000000;fill: none;"></path>
  <path d="M633.929016 469.011932L633.929016 406.026550" style="stroke:rgb(0.000000%,0.000000%,0.000000%); stroke-width: 1.000000;stroke-linecap: round;stroke-linejoin: round;stroke-miterlimit: 10.000000;fill: none;"></path>
  <path d="M633.929016 406.026550L579.378021 374.529526" style="stroke:rgb(0.000000%,0.000000%,0.000000%); stroke-width: 1.000000;stroke-linecap: round;stroke-linejoin: round;stroke-miterlimit: 10.000000;fill: none;"></path>
  <path d="M579.378021 374.529526L524.827011 406.026550" style="stroke:rgb(0.000000%,0.000000%,0.000000%); stroke-width: 1.000000;stroke-linecap: round;stroke-linejoin: round;stroke-miterlimit: 10.000000;fill: none;"></path>
  <path d="M350.464508 431.338348L381.961533 485.897995" style="stroke:rgb(0.000000%,0.000000%,0.000000%); stroke-width: 1.000000;stroke-linecap: round;stroke-linejoin: round;stroke-miterlimit: 10.000000;fill: none;"></path>
  <path d="M381.961533 485.897995L444.955566 485.897995" style="stroke:rgb(0.000000%,0.000000%,0.000000%); stroke-width: 1.000000;stroke-linecap: round;stroke-linejoin: round;stroke-miterlimit: 10.000000;fill: none;"></path>
  <path d="M524.827011 406.026550L524.827011 343.032516" style="stroke:rgb(0.000000%,0.000000%,0.000000%); stroke-width: 1.000000;stroke-linecap: round;stroke-linejoin: round;stroke-miterlimit: 10.000000;fill: none;"></path>
  <path d="M524.827011 343.032516L470.267365 311.535492" style="stroke:rgb(0.000000%,0.000000%,0.000000%); stroke-width: 1.000000;stroke-linecap: round;stroke-linejoin: round;stroke-miterlimit: 10.000000;fill: none;"></path>
  <path d="M524.827011 217.044434L579.378021 248.541458" style="stroke:rgb(0.000000%,0.000000%,0.000000%); stroke-width: 1.000000;stroke-linecap: round;stroke-linejoin: round;stroke-miterlimit: 10.000000;fill: none;"></path>
  <path d="M579.378021 248.541458L633.929016 217.044434" style="stroke:rgb(0.000000%,0.000000%,0.000000%); stroke-width: 1.000000;stroke-linecap: round;stroke-linejoin: round;stroke-miterlimit: 10.000000;fill: none;"></path>
  <path d="M633.929016 217.044434L633.929016 154.059052" style="stroke:rgb(0.000000%,0.000000%,0.000000%); stroke-width: 1.000000;stroke-linecap: round;stroke-linejoin: round;stroke-miterlimit: 10.000000;fill: none;"></path>
  <path d="M633.929016 154.059052L579.378021 122.562042" style="stroke:rgb(0.000000%,0.000000%,0.000000%); stroke-width: 1.000000;stroke-linecap: round;stroke-linejoin: round;stroke-miterlimit: 10.000000;fill: none;"></path>
  <path d="M579.378021 122.562042L633.929016 91.065018" style="stroke:rgb(0.000000%,0.000000%,0.000000%); stroke-width: 1.000000;stroke-linecap: round;stroke-linejoin: round;stroke-miterlimit: 10.000000;fill: none;"></path>
  <path d="M633.929016 91.065018L633.929016 28.070984" style="stroke:rgb(0.000000%,0.000000%,0.000000%); stroke-width: 1.000000;stroke-linecap: round;stroke-linejoin: round;stroke-miterlimit: 10.000000;fill: none;"></path>
  <path d="M633.929016 28.070984L570.934982 28.070984" style="stroke:rgb(0.000000%,0.000000%,0.000000%); stroke-width: 1.000000;stroke-linecap: round;stroke-linejoin: round;stroke-miterlimit: 10.000000;fill: none;"></path>
  <path d="M570.934982 28.070984L539.437958 82.621979" style="stroke:rgb(0.000000%,0.000000%,0.000000%); stroke-width: 1.000000;stroke-linecap: round;stroke-linejoin: round;stroke-miterlimit: 10.000000;fill: none;"></path>
  <path d="M539.437958 82.621979L507.940948 28.070984" style="stroke:rgb(0.000000%,0.000000%,0.000000%); stroke-width: 1.000000;stroke-linecap: round;stroke-linejoin: round;stroke-miterlimit: 10.000000;fill: none;"></path>
  <path d="M507.940948 28.070984L444.955566 28.070984" style="stroke:rgb(0.000000%,0.000000%,0.000000%); stroke-width: 1.000000;stroke-linecap: round;stroke-linejoin: round;stroke-miterlimit: 10.000000;fill: none;"></path>
  <path d="M444.955566 28.070984L413.458542 82.621979" style="stroke:rgb(0.000000%,0.000000%,0.000000%); stroke-width: 1.000000;stroke-linecap: round;stroke-linejoin: round;stroke-miterlimit: 10.000000;fill: none;"></path>
  <path d="M413.458542 82.621979L444.955566 137.172989" style="stroke:rgb(0.000000%,0.000000%,0.000000%); stroke-width: 1.000000;stroke-linecap: round;stroke-linejoin: round;stroke-miterlimit: 10.000000;fill: none;"></path>
  <path d="M444.955566 137.172989L381.961533 137.172989" style="stroke:rgb(0.000000%,0.000000%,0.000000%); stroke-width: 1.000000;stroke-linecap: round;stroke-linejoin: round;stroke-miterlimit: 10.000000;fill: none;"></path>
  <path d="M381.961533 137.172989L350.464508 191.732635" style="stroke:rgb(0.000000%,0.000000%,0.000000%); stroke-width: 1.000000;stroke-linecap: round;stroke-linejoin: round;stroke-miterlimit: 10.000000;fill: none;"></path>
  <path d="M470.267365 311.535492L524.827011 280.038467" style="stroke:rgb(0.000000%,0.000000%,0.000000%); stroke-width: 1.000000;stroke-linecap: round;stroke-linejoin: round;stroke-miterlimit: 10.000000;fill: none;"></path>
  <path d="M524.827011 280.038467L524.827011 217.044434" style="stroke:rgb(0.000000%,0.000000%,0.000000%); stroke-width: 1.000000;stroke-linecap: round;stroke-linejoin: round;stroke-miterlimit: 10.000000;fill: none;"></path>
  <path d="M255.973450 137.172989L287.470474 82.621979" style="stroke:rgb(0.000000%,0.000000%,0.000000%); stroke-width: 1.000000;stroke-linecap: round;stroke-linejoin: round;stroke-miterlimit: 10.000000;fill: none;"></path>
  <path d="M287.470474 82.621979L255.973450 28.070984" style="stroke:rgb(0.000000%,0.000000%,0.000000%); stroke-width: 1.000000;stroke-linecap: round;stroke-linejoin: round;stroke-miterlimit: 10.000000;fill: none;"></path>
  <path d="M255.973450 28.070984L192.988068 28.070984" style="stroke:rgb(0.000000%,0.000000%,0.000000%); stroke-width: 1.000000;stroke-linecap: round;stroke-linejoin: round;stroke-miterlimit: 10.000000;fill: none;"></path>
  <path d="M192.988068 28.070984L161.491058 82.621979" style="stroke:rgb(0.000000%,0.000000%,0.000000%); stroke-width: 1.000000;stroke-linecap: round;stroke-linejoin: round;stroke-miterlimit: 10.000000;fill: none;"></path>
  <path d="M161.491058 82.621979L129.994034 28.070984" style="stroke:rgb(0.000000%,0.000000%,0.000000%); stroke-width: 1.000000;stroke-linecap: round;stroke-linejoin: round;stroke-miterlimit: 10.000000;fill: none;"></path>
  <path d="M129.994034 28.070984L67.000000 28.070984" style="stroke:rgb(0.000000%,0.000000%,0.000000%); stroke-width: 1.000000;stroke-linecap: round;stroke-linejoin: round;stroke-miterlimit: 10.000000;fill: none;"></path>
  <path d="M67.000000 28.070984L67.000000 91.065018" style="stroke:rgb(0.000000%,0.000000%,0.000000%); stroke-width: 1.000000;stroke-linecap: round;stroke-linejoin: round;stroke-miterlimit: 10.000000;fill: none;"></path>
  <path d="M67.000000 91.065018L121.550995 122.562042" style="stroke:rgb(0.000000%,0.000000%,0.000000%); stroke-width: 1.000000;stroke-linecap: round;stroke-linejoin: round;stroke-miterlimit: 10.000000;fill: none;"></path>
  <path d="M121.550995 122.562042L67.000000 154.059052" style="stroke:rgb(0.000000%,0.000000%,0.000000%); stroke-width: 1.000000;stroke-linecap: round;stroke-linejoin: round;stroke-miterlimit: 10.000000;fill: none;"></path>
  <path d="M67.000000 154.059052L67.000000 217.044434" style="stroke:rgb(0.000000%,0.000000%,0.000000%); stroke-width: 1.000000;stroke-linecap: round;stroke-linejoin: round;stroke-miterlimit: 10.000000;fill: none;"></path>
  <path d="M67.000000 217.044434L121.550995 248.541458" style="stroke:rgb(0.000000%,0.000000%,0.000000%); stroke-width: 1.000000;stroke-linecap: round;stroke-linejoin: round;stroke-miterlimit: 10.000000;fill: none;"></path>
  <path d="M121.550995 248.541458L176.102005 217.044434" style="stroke:rgb(0.000000%,0.000000%,0.000000%); stroke-width: 1.000000;stroke-linecap: round;stroke-linejoin: round;stroke-miterlimit: 10.000000;fill: none;"></path>
  <path d="M176.102005 217.044434L176.102005 280.038467" style="stroke:rgb(0.000000%,0.000000%,0.000000%); stroke-width: 1.000000;stroke-linecap: round;stroke-linejoin: round;stroke-miterlimit: 10.000000;fill: none;"></path>
  <path d="M176.102005 280.038467L230.661652 311.535492" style="stroke:rgb(0.000000%,0.000000%,0.000000%); stroke-width: 1.000000;stroke-linecap: round;stroke-linejoin: round;stroke-miterlimit: 10.000000;fill: none;"></path>
  <path d="M350.464508 191.732635L318.967484 137.172989" style="stroke:rgb(0.000000%,0.000000%,0.000000%); stroke-width: 1.000000;stroke-linecap: round;stroke-linejoin: round;stroke-miterlimit: 10.000000;fill: none;"></path>
  <path d="M318.967484 137.172989L255.973450 137.172989" style="stroke:rgb(0.000000%,0.000000%,0.000000%); stroke-width: 1.000000;stroke-linecap: round;stroke-linejoin: round;stroke-miterlimit: 10.000000;fill: none;"></path>
  <path d="M699.933472 129.300888C699.933472 97.307816,687.222382 66.628922,664.601578 44.008118C641.980774 21.387314,611.301880 8.676224,579.308807 8.676224C547.315735 8.676224,516.636841 21.387314,494.016037 44.008118C471.395233 66.628922,458.684143 97.307816,458.684143 129.300888C458.684143 161.293961,471.395233 191.972855,494.016037 214.593658C516.636841 237.214462,547.315735 249.925552,579.308807 249.925552C611.301880 249.925552,641.980774 237.214462,664.601578 214.593658C687.222382 191.972855,699.933472 161.293961,699.933472 129.300888Z" style="stroke:rgb(25.500488%,41.000366%,88.400269%); stroke-width: 1.000000;stroke-linecap: round;stroke-linejoin: round;stroke-miterlimit: 10.000000;fill: none;"></path>
  <path d="M550.450241 307.227463C550.450241 275.234390,537.739151 244.555496,515.118347 221.934692C492.497543 199.313889,461.818649 186.602798,429.825577 186.602798C397.832504 186.602798,367.153610 199.313889,344.532806 221.934692C321.912003 244.555496,309.200912 275.234390,309.200912 307.227463C309.200912 339.220535,321.912003 369.899429,344.532806 392.520233C367.153610 415.141037,397.832504 427.852127,429.825577 427.852127C461.818649 427.852127,492.497543 415.141037,515.118347 392.520233C537.739151 369.899429,550.450241 339.220535,550.450241 307.227463Z" style="stroke:rgb(25.500488%,41.000366%,88.400269%); stroke-width: 1.000000;stroke-linecap: round;stroke-linejoin: round;stroke-miterlimit: 10.000000;fill: none;"></path>
  <path d="M553.322250 120.520477C553.322250 88.527405,540.611160 57.848511,517.990356 35.227707C495.369553 12.606903,464.690659 -0.104187,432.697586 -0.104187C400.704514 -0.104187,370.025620 12.606903,347.404816 35.227707C324.784012 57.848511,312.072922 88.527405,312.072922 120.520477C312.072922 152.513550,324.784012 183.192444,347.404816 205.813248C370.025620 228.434052,400.704514 241.145142,432.697586 241.145142C464.690659 241.145142,495.369553 228.434052,517.990356 205.813248C540.611160 183.192444,553.322250 152.513550,553.322250 120.520477Z" style="stroke:rgb(25.500488%,41.000366%,88.400269%); stroke-width: 1.000000;stroke-linecap: round;stroke-linejoin: round;stroke-miterlimit: 10.000000;fill: none;"></path>
  <path d="M687.762009 494.539993C687.762009 462.546921,675.050919 431.868027,652.430115 409.247223C629.809311 386.626419,599.130417 373.915329,567.137344 373.915329C535.144272 373.915329,504.465378 386.626419,481.844574 409.247223C459.223770 431.868027,446.512680 462.546921,446.512680 494.539993C446.512680 526.533066,459.223770 557.211960,481.844574 579.832764C504.465378 602.453568,535.144272 615.164658,567.137344 615.164658C599.130417 615.164658,629.809311 602.453568,652.430115 579.832764C675.050919 557.211960,687.762009 526.533066,687.762009 494.539993Z" style="stroke:rgb(25.500488%,41.000366%,88.400269%); stroke-width: 1.000000;stroke-linecap: round;stroke-linejoin: round;stroke-miterlimit: 10.000000;fill: none;"></path>
  <path d="M548.477890 498.571198C548.477890 466.578125,535.766800 435.899231,513.145996 413.278427C490.525192 390.657623,459.846298 377.946533,427.853226 377.946533C395.860153 377.946533,365.181259 390.657623,342.560455 413.278427C319.939651 435.899231,307.228561 466.578125,307.228561 498.571198C307.228561 530.564270,319.939651 561.243164,342.560455 583.863968C365.181259 606.484772,395.860153 619.195862,427.853226 619.195862C459.846298 619.195862,490.525192 606.484772,513.145996 583.863968C535.766800 561.243164,548.477890 530.564270,548.477890 498.571198Z" style="stroke:rgb(25.500488%,41.000366%,88.400269%); stroke-width: 1.000000;stroke-linecap: round;stroke-linejoin: round;stroke-miterlimit: 10.000000;fill: none;"></path>
  <path d="M391.728104 315.843521C391.728104 283.850449,379.017014 253.171555,356.396210 230.550751C333.775406 207.929947,303.096512 195.218857,271.103439 195.218857C239.110367 195.218857,208.431473 207.929947,185.810669 230.550751C163.189865 253.171555,150.478775 283.850449,150.478775 315.843521C150.478775 347.836594,163.189865 378.515488,185.810669 401.136292C208.431473 423.757095,239.110367 436.468185,271.103439 436.468185C303.096512 436.468185,333.775406 423.757095,356.396210 401.136292C379.017014 378.515488,391.728104 347.836594,391.728104 315.843521Z" style="stroke:rgb(25.500488%,41.000366%,88.400269%); stroke-width: 1.000000;stroke-linecap: round;stroke-linejoin: round;stroke-miterlimit: 10.000000;fill: none;"></path>
  <path d="M393.700455 124.499786C393.700455 92.506714,380.989365 61.827820,358.368561 39.207016C335.747757 16.586212,305.068863 3.875122,273.075790 3.875122C241.082718 3.875122,210.403824 16.586212,187.783020 39.207016C165.162216 61.827820,152.451126 92.506714,152.451126 124.499786C152.451126 156.492859,165.162216 187.171753,187.783020 209.792557C210.403824 232.413361,241.082718 245.124451,273.075790 245.124451C305.068863 245.124451,335.747757 232.413361,358.368561 209.792557C380.989365 187.171753,393.700455 156.492859,393.700455 124.499786Z" style="stroke:rgb(25.500488%,41.000366%,88.400269%); stroke-width: 1.000000;stroke-linecap: round;stroke-linejoin: round;stroke-miterlimit: 10.000000;fill: none;"></path>
  <path d="M254.416336 128.530991C254.416336 96.537918,241.705246 65.859024,219.084442 43.238220C196.463638 20.617416,165.784744 7.906326,133.791672 7.906326C101.798599 7.906326,71.119705 20.617416,48.498901 43.238220C25.878098 65.859024,13.167007 96.537918,13.167007 128.530991C13.167007 160.524063,25.878098 191.202957,48.498901 213.823761C71.119705 236.444565,101.798599 249.155655,133.791672 249.155655C165.784744 249.155655,196.463638 236.444565,219.084442 213.823761C241.705246 191.202957,254.416336 160.524063,254.416336 128.530991Z" style="stroke:rgb(25.500488%,41.000366%,88.400269%); stroke-width: 1.000000;stroke-linecap: round;stroke-linejoin: round;stroke-miterlimit: 10.000000;fill: none;"></path>
  <path d="M388.856094 502.550507C388.856094 470.557434,376.145004 439.878540,353.524200 417.257736C330.903397 394.636932,300.224503 381.925842,268.231430 381.925842C236.238358 381.925842,205.559464 394.636932,182.938660 417.257736C160.317856 439.878540,147.606766 470.557434,147.606766 502.550507C147.606766 534.543579,160.317856 565.222473,182.938660 587.843277C205.559464 610.464081,236.238358 623.175171,268.231430 623.175171C300.224503 623.175171,330.903397 610.464081,353.524200 587.843277C376.145004 565.222473,388.856094 534.543579,388.856094 502.550507Z" style="stroke:rgb(25.500488%,41.000366%,88.400269%); stroke-width: 1.000000;stroke-linecap: round;stroke-linejoin: round;stroke-miterlimit: 10.000000;fill: none;"></path>
  <path d="M240.782913 493.380814C240.782913 461.387741,228.071823 430.708847,205.451019 408.088043C182.830215 385.467239,152.151321 372.756149,120.158249 372.756149C88.165176 372.756149,57.486282 385.467239,34.865479 408.088043C12.244675 430.708847,-0.466415 461.387741,-0.466415 493.380814C-0.466415 525.373886,12.244675 556.052780,34.865479 578.673584C57.486282 601.294388,88.165176 614.005478,120.158249 614.005478C152.151321 614.005478,182.830215 601.294388,205.451019 578.673584C228.071823 556.052780,240.782913 525.373886,240.782913 493.380814Z" style="stroke:rgb(25.500488%,41.000366%,88.400269%); stroke-width: 1.000000;stroke-linecap: round;stroke-linejoin: round;stroke-miterlimit: 10.000000;fill: none;"></path>
  <path d="M429.825577 307.227463L355.378082 402.142410" style="stroke:rgb(60.000610%,60.000610%,60.000610%); stroke-width: 1.500000;stroke-linecap: round;stroke-dasharray: 3.000000 3.000000 ;stroke-linejoin: round;stroke-miterlimit: 10.000000;fill: none;"></path>
  <path d="M427.853226 498.571198L355.378082 402.142410" style="stroke:rgb(60.000610%,60.000610%,60.000610%); stroke-width: 1.500000;stroke-linecap: round;stroke-dasharray: 3.000000 3.000000 ;stroke-linejoin: round;stroke-miterlimit: 10.000000;fill: none;"></path>
  <path d="M433.825577 307.227463C433.825577 306.166550,433.404068 305.149216,432.653946 304.399094C431.903824 303.648972,430.886490 303.227463,429.825577 303.227463C428.764664 303.227463,427.747330 303.648972,426.997208 304.399094C426.247086 305.149216,425.825577 306.166550,425.825577 307.227463C425.825577 308.288376,426.247086 309.305710,426.997208 310.055832C427.747330 310.805954,428.764664 311.227463,429.825577 311.227463C430.886490 311.227463,431.903824 310.805954,432.653946 310.055832C433.404068 309.305710,433.825577 308.288376,433.825577 307.227463Z" style="stroke:rgb(39.999390%,39.999390%,39.999390%); stroke-width: 0.500000;stroke-linecap: round;stroke-linejoin: round;stroke-miterlimit: 10.000000;fill: none;"></path>
  <path d="M433.825577 307.227463C433.825577 306.166550,433.404068 305.149216,432.653946 304.399094C431.903824 303.648972,430.886490 303.227463,429.825577 303.227463C428.764664 303.227463,427.747330 303.648972,426.997208 304.399094C426.247086 305.149216,425.825577 306.166550,425.825577 307.227463C425.825577 308.288376,426.247086 309.305710,426.997208 310.055832C427.747330 310.805954,428.764664 311.227463,429.825577 311.227463C430.886490 311.227463,431.903824 310.805954,432.653946 310.055832C433.404068 309.305710,433.825577 308.288376,433.825577 307.227463Z" style="fill: rgb(89.999390%,0.000000%,0.000000%);stroke: none;"></path>
  <path d="M431.853226 498.571198C431.853226 497.510284,431.431717 496.492950,430.681595 495.742828C429.931473 494.992706,428.914139 494.571198,427.853226 494.571198C426.792313 494.571198,425.774979 494.992706,425.024857 495.742828C424.274734 496.492950,423.853226 497.510284,423.853226 498.571198C423.853226 499.632111,424.274734 500.649445,425.024857 501.399567C425.774979 502.149689,426.792313 502.571198,427.853226 502.571198C428.914139 502.571198,429.931473 502.149689,430.681595 501.399567C431.431717 500.649445,431.853226 499.632111,431.853226 498.571198Z" style="stroke:rgb(39.999390%,39.999390%,39.999390%); stroke-width: 0.500000;stroke-linecap: round;stroke-linejoin: round;stroke-miterlimit: 10.000000;fill: none;"></path>
  <path d="M431.853226 498.571198C431.853226 497.510284,431.431717 496.492950,430.681595 495.742828C429.931473 494.992706,428.914139 494.571198,427.853226 494.571198C426.792313 494.571198,425.774979 494.992706,425.024857 495.742828C424.274734 496.492950,423.853226 497.510284,423.853226 498.571198C423.853226 499.632111,424.274734 500.649445,425.024857 501.399567C425.774979 502.149689,426.792313 502.571198,427.853226 502.571198C428.914139 502.571198,429.931473 502.149689,430.681595 501.399567C431.431717 500.649445,431.853226 499.632111,431.853226 498.571198Z" style="fill: rgb(89.999390%,0.000000%,0.000000%);stroke: none;"></path>
  <path d="M359.378082 402.142410C359.378082 401.081497,358.956573 400.064163,358.206451 399.314041C357.456329 398.563919,356.438995 398.142410,355.378082 398.142410C354.317169 398.142410,353.299835 398.563919,352.549713 399.314041C351.799591 400.064163,351.378082 401.081497,351.378082 402.142410C351.378082 403.203323,351.799591 404.220657,352.549713 404.970779C353.299835 405.720901,354.317169 406.142410,355.378082 406.142410C356.438995 406.142410,357.456329 405.720901,358.206451 404.970779C358.956573 404.220657,359.378082 403.203323,359.378082 402.142410Z" style="stroke:rgb(39.999390%,39.999390%,39.999390%); stroke-width: 0.500000;stroke-linecap: round;stroke-linejoin: round;stroke-miterlimit: 10.000000;fill: none;"></path>
  <path d="M359.378082 402.142410C359.378082 401.081497,358.956573 400.064163,358.206451 399.314041C357.456329 398.563919,356.438995 398.142410,355.378082 398.142410C354.317169 398.142410,353.299835 398.563919,352.549713 399.314041C351.799591 400.064163,351.378082 401.081497,351.378082 402.142410C351.378082 403.203323,351.799591 404.220657,352.549713 404.970779C353.299835 405.720901,354.317169 406.142410,355.378082 406.142410C356.438995 406.142410,357.456329 405.720901,358.206451 404.970779C358.956573 404.220657,359.378082 403.203323,359.378082 402.142410Z" style="fill: rgb(9.800720%,9.800720%,44.000244%);stroke: none;"></path>
  <path d="M429.825577 307.227463L355.378082 402.142410" style="stroke:rgb(60.000610%,60.000610%,60.000610%); stroke-width: 1.500000;stroke-linecap: round;stroke-dasharray: 3.000000 3.000000 ;stroke-linejoin: round;stroke-miterlimit: 10.000000;fill: none;"></path>
  <path d="M271.103439 315.843521L355.378082 402.142410" style="stroke:rgb(60.000610%,60.000610%,60.000610%); stroke-width: 1.500000;stroke-linecap: round;stroke-dasharray: 3.000000 3.000000 ;stroke-linejoin: round;stroke-miterlimit: 10.000000;fill: none;"></path>
  <path d="M433.825577 307.227463C433.825577 306.166550,433.404068 305.149216,432.653946 304.399094C431.903824 303.648972,430.886490 303.227463,429.825577 303.227463C428.764664 303.227463,427.747330 303.648972,426.997208 304.399094C426.247086 305.149216,425.825577 306.166550,425.825577 307.227463C425.825577 308.288376,426.247086 309.305710,426.997208 310.055832C427.747330 310.805954,428.764664 311.227463,429.825577 311.227463C430.886490 311.227463,431.903824 310.805954,432.653946 310.055832C433.404068 309.305710,433.825577 308.288376,433.825577 307.227463Z" style="stroke:rgb(39.999390%,39.999390%,39.999390%); stroke-width: 0.500000;stroke-linecap: round;stroke-linejoin: round;stroke-miterlimit: 10.000000;fill: none;"></path>
  <path d="M433.825577 307.227463C433.825577 306.166550,433.404068 305.149216,432.653946 304.399094C431.903824 303.648972,430.886490 303.227463,429.825577 303.227463C428.764664 303.227463,427.747330 303.648972,426.997208 304.399094C426.247086 305.149216,425.825577 306.166550,425.825577 307.227463C425.825577 308.288376,426.247086 309.305710,426.997208 310.055832C427.747330 310.805954,428.764664 311.227463,429.825577 311.227463C430.886490 311.227463,431.903824 310.805954,432.653946 310.055832C433.404068 309.305710,433.825577 308.288376,433.825577 307.227463Z" style="fill: rgb(89.999390%,0.000000%,0.000000%);stroke: none;"></path>
  <path d="M275.103439 315.843521C275.103439 314.782608,274.681931 313.765274,273.931808 313.015152C273.181686 312.265030,272.164352 311.843521,271.103439 311.843521C270.042526 311.843521,269.025192 312.265030,268.275070 313.015152C267.524948 313.765274,267.103439 314.782608,267.103439 315.843521C267.103439 316.904434,267.524948 317.921768,268.275070 318.671890C269.025192 319.422012,270.042526 319.843521,271.103439 319.843521C272.164352 319.843521,273.181686 319.422012,273.931808 318.671890C274.681931 317.921768,275.103439 316.904434,275.103439 315.843521Z" style="stroke:rgb(39.999390%,39.999390%,39.999390%); stroke-width: 0.500000;stroke-linecap: round;stroke-linejoin: round;stroke-miterlimit: 10.000000;fill: none;"></path>
  <path d="M275.103439 315.843521C275.103439 314.782608,274.681931 313.765274,273.931808 313.015152C273.181686 312.265030,272.164352 311.843521,271.103439 311.843521C270.042526 311.843521,269.025192 312.265030,268.275070 313.015152C267.524948 313.765274,267.103439 314.782608,267.103439 315.843521C267.103439 316.904434,267.524948 317.921768,268.275070 318.671890C269.025192 319.422012,270.042526 319.843521,271.103439 319.843521C272.164352 319.843521,273.181686 319.422012,273.931808 318.671890C274.681931 317.921768,275.103439 316.904434,275.103439 315.843521Z" style="fill: rgb(89.999390%,0.000000%,0.000000%);stroke: none;"></path>
  <path d="M359.378082 402.142410C359.378082 401.081497,358.956573 400.064163,358.206451 399.314041C357.456329 398.563919,356.438995 398.142410,355.378082 398.142410C354.317169 398.142410,353.299835 398.563919,352.549713 399.314041C351.799591 400.064163,351.378082 401.081497,351.378082 402.142410C351.378082 403.203323,351.799591 404.220657,352.549713 404.970779C353.299835 405.720901,354.317169 406.142410,355.378082 406.142410C356.438995 406.142410,357.456329 405.720901,358.206451 404.970779C358.956573 404.220657,359.378082 403.203323,359.378082 402.142410Z" style="stroke:rgb(39.999390%,39.999390%,39.999390%); stroke-width: 0.500000;stroke-linecap: round;stroke-linejoin: round;stroke-miterlimit: 10.000000;fill: none;"></path>
  <path d="M359.378082 402.142410C359.378082 401.081497,358.956573 400.064163,358.206451 399.314041C357.456329 398.563919,356.438995 398.142410,355.378082 398.142410C354.317169 398.142410,353.299835 398.563919,352.549713 399.314041C351.799591 400.064163,351.378082 401.081497,351.378082 402.142410C351.378082 403.203323,351.799591 404.220657,352.549713 404.970779C353.299835 405.720901,354.317169 406.142410,355.378082 406.142410C356.438995 406.142410,357.456329 405.720901,358.206451 404.970779C358.956573 404.220657,359.378082 403.203323,359.378082 402.142410Z" style="fill: rgb(9.800720%,9.800720%,44.000244%);stroke: none;"></path>
  <path d="M429.825577 307.227463L345.550934 220.928574" style="stroke:rgb(60.000610%,60.000610%,60.000610%); stroke-width: 1.500000;stroke-linecap: round;stroke-dasharray: 3.000000 3.000000 ;stroke-linejoin: round;stroke-miterlimit: 10.000000;fill: none;"></path>
  <path d="M271.103439 315.843521L345.550934 220.928574" style="stroke:rgb(60.000610%,60.000610%,60.000610%); stroke-width: 1.500000;stroke-linecap: round;stroke-dasharray: 3.000000 3.000000 ;stroke-linejoin: round;stroke-miterlimit: 10.000000;fill: none;"></path>
  <path d="M433.825577 307.227463C433.825577 306.166550,433.404068 305.149216,432.653946 304.399094C431.903824 303.648972,430.886490 303.227463,429.825577 303.227463C428.764664 303.227463,427.747330 303.648972,426.997208 304.399094C426.247086 305.149216,425.825577 306.166550,425.825577 307.227463C425.825577 308.288376,426.247086 309.305710,426.997208 310.055832C427.747330 310.805954,428.764664 311.227463,429.825577 311.227463C430.886490 311.227463,431.903824 310.805954,432.653946 310.055832C433.404068 309.305710,433.825577 308.288376,433.825577 307.227463Z" style="stroke:rgb(39.999390%,39.999390%,39.999390%); stroke-width: 0.500000;stroke-linecap: round;stroke-linejoin: round;stroke-miterlimit: 10.000000;fill: none;"></path>
  <path d="M433.825577 307.227463C433.825577 306.166550,433.404068 305.149216,432.653946 304.399094C431.903824 303.648972,430.886490 303.227463,429.825577 303.227463C428.764664 303.227463,427.747330 303.648972,426.997208 304.399094C426.247086 305.149216,425.825577 306.166550,425.825577 307.227463C425.825577 308.288376,426.247086 309.305710,426.997208 310.055832C427.747330 310.805954,428.764664 311.227463,429.825577 311.227463C430.886490 311.227463,431.903824 310.805954,432.653946 310.055832C433.404068 309.305710,433.825577 308.288376,433.825577 307.227463Z" style="fill: rgb(89.999390%,0.000000%,0.000000%);stroke: none;"></path>
  <path d="M275.103439 315.843521C275.103439 314.782608,274.681931 313.765274,273.931808 313.015152C273.181686 312.265030,272.164352 311.843521,271.103439 311.843521C270.042526 311.843521,269.025192 312.265030,268.275070 313.015152C267.524948 313.765274,267.103439 314.782608,267.103439 315.843521C267.103439 316.904434,267.524948 317.921768,268.275070 318.671890C269.025192 319.422012,270.042526 319.843521,271.103439 319.843521C272.164352 319.843521,273.181686 319.422012,273.931808 318.671890C274.681931 317.921768,275.103439 316.904434,275.103439 315.843521Z" style="stroke:rgb(39.999390%,39.999390%,39.999390%); stroke-width: 0.500000;stroke-linecap: round;stroke-linejoin: round;stroke-miterlimit: 10.000000;fill: none;"></path>
  <path d="M275.103439 315.843521C275.103439 314.782608,274.681931 313.765274,273.931808 313.015152C273.181686 312.265030,272.164352 311.843521,271.103439 311.843521C270.042526 311.843521,269.025192 312.265030,268.275070 313.015152C267.524948 313.765274,267.103439 314.782608,267.103439 315.843521C267.103439 316.904434,267.524948 317.921768,268.275070 318.671890C269.025192 319.422012,270.042526 319.843521,271.103439 319.843521C272.164352 319.843521,273.181686 319.422012,273.931808 318.671890C274.681931 317.921768,275.103439 316.904434,275.103439 315.843521Z" style="fill: rgb(89.999390%,0.000000%,0.000000%);stroke: none;"></path>
  <path d="M349.550934 220.928574C349.550934 219.867661,349.129425 218.850327,348.379303 218.100204C347.629181 217.350082,346.611847 216.928574,345.550934 216.928574C344.490021 216.928574,343.472687 217.350082,342.722565 218.100204C341.972443 218.850327,341.550934 219.867661,341.550934 220.928574C341.550934 221.989487,341.972443 223.006821,342.722565 223.756943C343.472687 224.507065,344.490021 224.928574,345.550934 224.928574C346.611847 224.928574,347.629181 224.507065,348.379303 223.756943C349.129425 223.006821,349.550934 221.989487,349.550934 220.928574Z" style="stroke:rgb(39.999390%,39.999390%,39.999390%); stroke-width: 0.500000;stroke-linecap: round;stroke-linejoin: round;stroke-miterlimit: 10.000000;fill: none;"></path>
  <path d="M349.550934 220.928574C349.550934 219.867661,349.129425 218.850327,348.379303 218.100204C347.629181 217.350082,346.611847 216.928574,345.550934 216.928574C344.490021 216.928574,343.472687 217.350082,342.722565 218.100204C341.972443 218.850327,341.550934 219.867661,341.550934 220.928574C341.550934 221.989487,341.972443 223.006821,342.722565 223.756943C343.472687 224.507065,344.490021 224.928574,345.550934 224.928574C346.611847 224.928574,347.629181 224.507065,348.379303 223.756943C349.129425 223.006821,349.550934 221.989487,349.550934 220.928574Z" style="fill: rgb(9.800720%,9.800720%,44.000244%);stroke: none;"></path>
  <path d="M429.825577 307.227463L345.568237 220.911285" style="stroke:rgb(60.000610%,60.000610%,60.000610%); stroke-width: 1.500000;stroke-linecap: round;stroke-dasharray: 3.000000 3.000000 ;stroke-linejoin: round;stroke-miterlimit: 10.000000;fill: none;"></path>
  <path d="M273.075790 124.499786L345.568237 220.911285" style="stroke:rgb(60.000610%,60.000610%,60.000610%); stroke-width: 1.500000;stroke-linecap: round;stroke-dasharray: 3.000000 3.000000 ;stroke-linejoin: round;stroke-miterlimit: 10.000000;fill: none;"></path>
  <path d="M433.825577 307.227463C433.825577 306.166550,433.404068 305.149216,432.653946 304.399094C431.903824 303.648972,430.886490 303.227463,429.825577 303.227463C428.764664 303.227463,427.747330 303.648972,426.997208 304.399094C426.247086 305.149216,425.825577 306.166550,425.825577 307.227463C425.825577 308.288376,426.247086 309.305710,426.997208 310.055832C427.747330 310.805954,428.764664 311.227463,429.825577 311.227463C430.886490 311.227463,431.903824 310.805954,432.653946 310.055832C433.404068 309.305710,433.825577 308.288376,433.825577 307.227463Z" style="stroke:rgb(39.999390%,39.999390%,39.999390%); stroke-width: 0.500000;stroke-linecap: round;stroke-linejoin: round;stroke-miterlimit: 10.000000;fill: none;"></path>
  <path d="M433.825577 307.227463C433.825577 306.166550,433.404068 305.149216,432.653946 304.399094C431.903824 303.648972,430.886490 303.227463,429.825577 303.227463C428.764664 303.227463,427.747330 303.648972,426.997208 304.399094C426.247086 305.149216,425.825577 306.166550,425.825577 307.227463C425.825577 308.288376,426.247086 309.305710,426.997208 310.055832C427.747330 310.805954,428.764664 311.227463,429.825577 311.227463C430.886490 311.227463,431.903824 310.805954,432.653946 310.055832C433.404068 309.305710,433.825577 308.288376,433.825577 307.227463Z" style="fill: rgb(89.999390%,0.000000%,0.000000%);stroke: none;"></path>
  <path d="M277.075790 124.499786C277.075790 123.438873,276.654282 122.421539,275.904160 121.671417C275.154037 120.921295,274.136703 120.499786,273.075790 120.499786C272.014877 120.499786,270.997543 120.921295,270.247421 121.671417C269.497299 122.421539,269.075790 123.438873,269.075790 124.499786C269.075790 125.560699,269.497299 126.578033,270.247421 127.328156C270.997543 128.078278,272.014877 128.499786,273.075790 128.499786C274.136703 128.499786,275.154037 128.078278,275.904160 127.328156C276.654282 126.578033,277.075790 125.560699,277.075790 124.499786Z" style="stroke:rgb(39.999390%,39.999390%,39.999390%); stroke-width: 0.500000;stroke-linecap: round;stroke-linejoin: round;stroke-miterlimit: 10.000000;fill: none;"></path>
  <path d="M277.075790 124.499786C277.075790 123.438873,276.654282 122.421539,275.904160 121.671417C275.154037 120.921295,274.136703 120.499786,273.075790 120.499786C272.014877 120.499786,270.997543 120.921295,270.247421 121.671417C269.497299 122.421539,269.075790 123.438873,269.075790 124.499786C269.075790 125.560699,269.497299 126.578033,270.247421 127.328156C270.997543 128.078278,272.014877 128.499786,273.075790 128.499786C274.136703 128.499786,275.154037 128.078278,275.904160 127.328156C276.654282 126.578033,277.075790 125.560699,277.075790 124.499786Z" style="fill: rgb(89.999390%,0.000000%,0.000000%);stroke: none;"></path>
  <path d="M349.568237 220.911285C349.568237 219.850372,349.146729 218.833038,348.396606 218.082916C347.646484 217.332794,346.629150 216.911285,345.568237 216.911285C344.507324 216.911285,343.489990 217.332794,342.739868 218.082916C341.989746 218.833038,341.568237 219.850372,341.568237 220.911285C341.568237 221.972198,341.989746 222.989532,342.739868 223.739655C343.489990 224.489777,344.507324 224.911285,345.568237 224.911285C346.629150 224.911285,347.646484 224.489777,348.396606 223.739655C349.146729 222.989532,349.568237 221.972198,349.568237 220.911285Z" style="stroke:rgb(39.999390%,39.999390%,39.999390%); stroke-width: 0.500000;stroke-linecap: round;stroke-linejoin: round;stroke-miterlimit: 10.000000;fill: none;"></path>
  <path d="M349.568237 220.911285C349.568237 219.850372,349.146729 218.833038,348.396606 218.082916C347.646484 217.332794,346.629150 216.911285,345.568237 216.911285C344.507324 216.911285,343.489990 217.332794,342.739868 218.082916C341.989746 218.833038,341.568237 219.850372,341.568237 220.911285C341.568237 221.972198,341.989746 222.989532,342.739868 223.739655C343.489990 224.489777,344.507324 224.911285,345.568237 224.911285C346.629150 224.911285,347.646484 224.489777,348.396606 223.739655C349.146729 222.989532,349.568237 221.972198,349.568237 220.911285Z" style="fill: rgb(9.800720%,9.800720%,44.000244%);stroke: none;"></path>
  <path d="M567.137344 494.539993L633.929016 595.000000" style="stroke:rgb(60.000610%,60.000610%,60.000610%); stroke-width: 1.500000;stroke-linecap: round;stroke-dasharray: 3.000000 3.000000 ;stroke-linejoin: round;stroke-miterlimit: 10.000000;fill: none;"></path>
  <path d="M571.137344 494.539993C571.137344 493.479080,570.715836 492.461746,569.965714 491.711624C569.215591 490.961502,568.198257 490.539993,567.137344 490.539993C566.076431 490.539993,565.059097 490.961502,564.308975 491.711624C563.558853 492.461746,563.137344 493.479080,563.137344 494.539993C563.137344 495.600906,563.558853 496.618240,564.308975 497.368362C565.059097 498.118484,566.076431 498.539993,567.137344 498.539993C568.198257 498.539993,569.215591 498.118484,569.965714 497.368362C570.715836 496.618240,571.137344 495.600906,571.137344 494.539993Z" style="stroke:rgb(39.999390%,39.999390%,39.999390%); stroke-width: 0.500000;stroke-linecap: round;stroke-linejoin: round;stroke-miterlimit: 10.000000;fill: none;"></path>
  <path d="M571.137344 494.539993C571.137344 493.479080,570.715836 492.461746,569.965714 491.711624C569.215591 490.961502,568.198257 490.539993,567.137344 490.539993C566.076431 490.539993,565.059097 490.961502,564.308975 491.711624C563.558853 492.461746,563.137344 493.479080,563.137344 494.539993C563.137344 495.600906,563.558853 496.618240,564.308975 497.368362C565.059097 498.118484,566.076431 498.539993,567.137344 498.539993C568.198257 498.539993,569.215591 498.118484,569.965714 497.368362C570.715836 496.618240,571.137344 495.600906,571.137344 494.539993Z" style="fill: rgb(89.999390%,0.000000%,0.000000%);stroke: none;"></path>
  <path d="M637.929016 595.000000C637.929016 593.939087,637.507507 592.921753,636.757385 592.171631C636.007263 591.421509,634.989929 591.000000,633.929016 591.000000C632.868103 591.000000,631.850769 591.421509,631.100647 592.171631C630.350525 592.921753,629.929016 593.939087,629.929016 595.000000C629.929016 596.060913,630.350525 597.078247,631.100647 597.828369C631.850769 598.578491,632.868103 599.000000,633.929016 599.000000C634.989929 599.000000,636.007263 598.578491,636.757385 597.828369C637.507507 597.078247,637.929016 596.060913,637.929016 595.000000Z" style="stroke:rgb(39.999390%,39.999390%,39.999390%); stroke-width: 0.500000;stroke-linecap: round;stroke-linejoin: round;stroke-miterlimit: 10.000000;fill: none;"></path>
  <path d="M637.929016 595.000000C637.929016 593.939087,637.507507 592.921753,636.757385 592.171631C636.007263 591.421509,634.989929 591.000000,633.929016 591.000000C632.868103 591.000000,631.850769 591.421509,631.100647 592.171631C630.350525 592.921753,629.929016 593.939087,629.929016 595.000000C629.929016 596.060913,630.350525 597.078247,631.100647 597.828369C631.850769 598.578491,632.868103 599.000000,633.929016 599.000000C634.989929 599.000000,636.007263 598.578491,636.757385 597.828369C637.507507 597.078247,637.929016 596.060913,637.929016 595.000000Z" style="fill: rgb(100.000000%,100.000000%,0.000000%);stroke: none;"></path>
  <path d="M567.137344 494.539993L579.378021 374.529526" style="stroke:rgb(60.000610%,60.000610%,60.000610%); stroke-width: 1.500000;stroke-linecap: round;stroke-dasharray: 3.000000 3.000000 ;stroke-linejoin: round;stroke-miterlimit: 10.000000;fill: none;"></path>
  <path d="M571.137344 494.539993C571.137344 493.479080,570.715836 492.461746,569.965714 491.711624C569.215591 490.961502,568.198257 490.539993,567.137344 490.539993C566.076431 490.539993,565.059097 490.961502,564.308975 491.711624C563.558853 492.461746,563.137344 493.479080,563.137344 494.539993C563.137344 495.600906,563.558853 496.618240,564.308975 497.368362C565.059097 498.118484,566.076431 498.539993,567.137344 498.539993C568.198257 498.539993,569.215591 498.118484,569.965714 497.368362C570.715836 496.618240,571.137344 495.600906,571.137344 494.539993Z" style="stroke:rgb(39.999390%,39.999390%,39.999390%); stroke-width: 0.500000;stroke-linecap: round;stroke-linejoin: round;stroke-miterlimit: 10.000000;fill: none;"></path>
  <path d="M571.137344 494.539993C571.137344 493.479080,570.715836 492.461746,569.965714 491.711624C569.215591 490.961502,568.198257 490.539993,567.137344 490.539993C566.076431 490.539993,565.059097 490.961502,564.308975 491.711624C563.558853 492.461746,563.137344 493.479080,563.137344 494.539993C563.137344 495.600906,563.558853 496.618240,564.308975 497.368362C565.059097 498.118484,566.076431 498.539993,567.137344 498.539993C568.198257 498.539993,569.215591 498.118484,569.965714 497.368362C570.715836 496.618240,571.137344 495.600906,571.137344 494.539993Z" style="fill: rgb(89.999390%,0.000000%,0.000000%);stroke: none;"></path>
  <path d="M583.378021 374.529526C583.378021 373.468613,582.956512 372.451279,582.206390 371.701157C581.456268 370.951035,580.438934 370.529526,579.378021 370.529526C578.317108 370.529526,577.299774 370.951035,576.549652 371.701157C575.799530 372.451279,575.378021 373.468613,575.378021 374.529526C575.378021 375.590439,575.799530 376.607773,576.549652 377.357895C577.299774 378.108017,578.317108 378.529526,579.378021 378.529526C580.438934 378.529526,581.456268 378.108017,582.206390 377.357895C582.956512 376.607773,583.378021 375.590439,583.378021 374.529526Z" style="stroke:rgb(39.999390%,39.999390%,39.999390%); stroke-width: 0.500000;stroke-linecap: round;stroke-linejoin: round;stroke-miterlimit: 10.000000;fill: none;"></path>
  <path d="M583.378021 374.529526C583.378021 373.468613,582.956512 372.451279,582.206390 371.701157C581.456268 370.951035,580.438934 370.529526,579.378021 370.529526C578.317108 370.529526,577.299774 370.951035,576.549652 371.701157C575.799530 372.451279,575.378021 373.468613,575.378021 374.529526C575.378021 375.590439,575.799530 376.607773,576.549652 377.357895C577.299774 378.108017,578.317108 378.529526,579.378021 378.529526C580.438934 378.529526,581.456268 378.108017,582.206390 377.357895C582.956512 376.607773,583.378021 375.590439,583.378021 374.529526Z" style="fill: rgb(100.000000%,100.000000%,0.000000%);stroke: none;"></path>
  <path d="M427.853226 498.571198L355.360779 402.159698" style="stroke:rgb(60.000610%,60.000610%,60.000610%); stroke-width: 1.500000;stroke-linecap: round;stroke-dasharray: 3.000000 3.000000 ;stroke-linejoin: round;stroke-miterlimit: 10.000000;fill: none;"></path>
  <path d="M271.103439 315.843521L355.360779 402.159698" style="stroke:rgb(60.000610%,60.000610%,60.000610%); stroke-width: 1.500000;stroke-linecap: round;stroke-dasharray: 3.000000 3.000000 ;stroke-linejoin: round;stroke-miterlimit: 10.000000;fill: none;"></path>
  <path d="M431.853226 498.571198C431.853226 497.510284,431.431717 496.492950,430.681595 495.742828C429.931473 494.992706,428.914139 494.571198,427.853226 494.571198C426.792313 494.571198,425.774979 494.992706,425.024857 495.742828C424.274734 496.492950,423.853226 497.510284,423.853226 498.571198C423.853226 499.632111,424.274734 500.649445,425.024857 501.399567C425.774979 502.149689,426.792313 502.571198,427.853226 502.571198C428.914139 502.571198,429.931473 502.149689,430.681595 501.399567C431.431717 500.649445,431.853226 499.632111,431.853226 498.571198Z" style="stroke:rgb(39.999390%,39.999390%,39.999390%); stroke-width: 0.500000;stroke-linecap: round;stroke-linejoin: round;stroke-miterlimit: 10.000000;fill: none;"></path>
  <path d="M431.853226 498.571198C431.853226 497.510284,431.431717 496.492950,430.681595 495.742828C429.931473 494.992706,428.914139 494.571198,427.853226 494.571198C426.792313 494.571198,425.774979 494.992706,425.024857 495.742828C424.274734 496.492950,423.853226 497.510284,423.853226 498.571198C423.853226 499.632111,424.274734 500.649445,425.024857 501.399567C425.774979 502.149689,426.792313 502.571198,427.853226 502.571198C428.914139 502.571198,429.931473 502.149689,430.681595 501.399567C431.431717 500.649445,431.853226 499.632111,431.853226 498.571198Z" style="fill: rgb(89.999390%,0.000000%,0.000000%);stroke: none;"></path>
  <path d="M275.103439 315.843521C275.103439 314.782608,274.681931 313.765274,273.931808 313.015152C273.181686 312.265030,272.164352 311.843521,271.103439 311.843521C270.042526 311.843521,269.025192 312.265030,268.275070 313.015152C267.524948 313.765274,267.103439 314.782608,267.103439 315.843521C267.103439 316.904434,267.524948 317.921768,268.275070 318.671890C269.025192 319.422012,270.042526 319.843521,271.103439 319.843521C272.164352 319.843521,273.181686 319.422012,273.931808 318.671890C274.681931 317.921768,275.103439 316.904434,275.103439 315.843521Z" style="stroke:rgb(39.999390%,39.999390%,39.999390%); stroke-width: 0.500000;stroke-linecap: round;stroke-linejoin: round;stroke-miterlimit: 10.000000;fill: none;"></path>
  <path d="M275.103439 315.843521C275.103439 314.782608,274.681931 313.765274,273.931808 313.015152C273.181686 312.265030,272.164352 311.843521,271.103439 311.843521C270.042526 311.843521,269.025192 312.265030,268.275070 313.015152C267.524948 313.765274,267.103439 314.782608,267.103439 315.843521C267.103439 316.904434,267.524948 317.921768,268.275070 318.671890C269.025192 319.422012,270.042526 319.843521,271.103439 319.843521C272.164352 319.843521,273.181686 319.422012,273.931808 318.671890C274.681931 317.921768,275.103439 316.904434,275.103439 315.843521Z" style="fill: rgb(89.999390%,0.000000%,0.000000%);stroke: none;"></path>
  <path d="M359.360779 402.159698C359.360779 401.098785,358.939270 400.081451,358.189148 399.331329C357.439026 398.581207,356.421692 398.159698,355.360779 398.159698C354.299866 398.159698,353.282532 398.581207,352.532410 399.331329C351.782288 400.081451,351.360779 401.098785,351.360779 402.159698C351.360779 403.220612,351.782288 404.237946,352.532410 404.988068C353.282532 405.738190,354.299866 406.159698,355.360779 406.159698C356.421692 406.159698,357.439026 405.738190,358.189148 404.988068C358.939270 404.237946,359.360779 403.220612,359.360779 402.159698Z" style="stroke:rgb(39.999390%,39.999390%,39.999390%); stroke-width: 0.500000;stroke-linecap: round;stroke-linejoin: round;stroke-miterlimit: 10.000000;fill: none;"></path>
  <path d="M359.360779 402.159698C359.360779 401.098785,358.939270 400.081451,358.189148 399.331329C357.439026 398.581207,356.421692 398.159698,355.360779 398.159698C354.299866 398.159698,353.282532 398.581207,352.532410 399.331329C351.782288 400.081451,351.360779 401.098785,351.360779 402.159698C351.360779 403.220612,351.782288 404.237946,352.532410 404.988068C353.282532 405.738190,354.299866 406.159698,355.360779 406.159698C356.421692 406.159698,357.439026 405.738190,358.189148 404.988068C358.939270 404.237946,359.360779 403.220612,359.360779 402.159698Z" style="fill: rgb(9.800720%,9.800720%,44.000244%);stroke: none;"></path>
  <path d="M271.103439 315.843521L345.550934 220.928574" style="stroke:rgb(60.000610%,60.000610%,60.000610%); stroke-width: 1.500000;stroke-linecap: round;stroke-dasharray: 3.000000 3.000000 ;stroke-linejoin: round;stroke-miterlimit: 10.000000;fill: none;"></path>
  <path d="M273.075790 124.499786L345.550934 220.928574" style="stroke:rgb(60.000610%,60.000610%,60.000610%); stroke-width: 1.500000;stroke-linecap: round;stroke-dasharray: 3.000000 3.000000 ;stroke-linejoin: round;stroke-miterlimit: 10.000000;fill: none;"></path>
  <path d="M275.103439 315.843521C275.103439 314.782608,274.681931 313.765274,273.931808 313.015152C273.181686 312.265030,272.164352 311.843521,271.103439 311.843521C270.042526 311.843521,269.025192 312.265030,268.275070 313.015152C267.524948 313.765274,267.103439 314.782608,267.103439 315.843521C267.103439 316.904434,267.524948 317.921768,268.275070 318.671890C269.025192 319.422012,270.042526 319.843521,271.103439 319.843521C272.164352 319.843521,273.181686 319.422012,273.931808 318.671890C274.681931 317.921768,275.103439 316.904434,275.103439 315.843521Z" style="stroke:rgb(39.999390%,39.999390%,39.999390%); stroke-width: 0.500000;stroke-linecap: round;stroke-linejoin: round;stroke-miterlimit: 10.000000;fill: none;"></path>
  <path d="M275.103439 315.843521C275.103439 314.782608,274.681931 313.765274,273.931808 313.015152C273.181686 312.265030,272.164352 311.843521,271.103439 311.843521C270.042526 311.843521,269.025192 312.265030,268.275070 313.015152C267.524948 313.765274,267.103439 314.782608,267.103439 315.843521C267.103439 316.904434,267.524948 317.921768,268.275070 318.671890C269.025192 319.422012,270.042526 319.843521,271.103439 319.843521C272.164352 319.843521,273.181686 319.422012,273.931808 318.671890C274.681931 317.921768,275.103439 316.904434,275.103439 315.843521Z" style="fill: rgb(89.999390%,0.000000%,0.000000%);stroke: none;"></path>
  <path d="M277.075790 124.499786C277.075790 123.438873,276.654282 122.421539,275.904160 121.671417C275.154037 120.921295,274.136703 120.499786,273.075790 120.499786C272.014877 120.499786,270.997543 120.921295,270.247421 121.671417C269.497299 122.421539,269.075790 123.438873,269.075790 124.499786C269.075790 125.560699,269.497299 126.578033,270.247421 127.328156C270.997543 128.078278,272.014877 128.499786,273.075790 128.499786C274.136703 128.499786,275.154037 128.078278,275.904160 127.328156C276.654282 126.578033,277.075790 125.560699,277.075790 124.499786Z" style="stroke:rgb(39.999390%,39.999390%,39.999390%); stroke-width: 0.500000;stroke-linecap: round;stroke-linejoin: round;stroke-miterlimit: 10.000000;fill: none;"></path>
  <path d="M277.075790 124.499786C277.075790 123.438873,276.654282 122.421539,275.904160 121.671417C275.154037 120.921295,274.136703 120.499786,273.075790 120.499786C272.014877 120.499786,270.997543 120.921295,270.247421 121.671417C269.497299 122.421539,269.075790 123.438873,269.075790 124.499786C269.075790 125.560699,269.497299 126.578033,270.247421 127.328156C270.997543 128.078278,272.014877 128.499786,273.075790 128.499786C274.136703 128.499786,275.154037 128.078278,275.904160 127.328156C276.654282 126.578033,277.075790 125.560699,277.075790 124.499786Z" style="fill: rgb(89.999390%,0.000000%,0.000000%);stroke: none;"></path>
  <path d="M349.550934 220.928574C349.550934 219.867661,349.129425 218.850327,348.379303 218.100204C347.629181 217.350082,346.611847 216.928574,345.550934 216.928574C344.490021 216.928574,343.472687 217.350082,342.722565 218.100204C341.972443 218.850327,341.550934 219.867661,341.550934 220.928574C341.550934 221.989487,341.972443 223.006821,342.722565 223.756943C343.472687 224.507065,344.490021 224.928574,345.550934 224.928574C346.611847 224.928574,347.629181 224.507065,348.379303 223.756943C349.129425 223.006821,349.550934 221.989487,349.550934 220.928574Z" style="stroke:rgb(39.999390%,39.999390%,39.999390%); stroke-width: 0.500000;stroke-linecap: round;stroke-linejoin: round;stroke-miterlimit: 10.000000;fill: none;"></path>
  <path d="M349.550934 220.928574C349.550934 219.867661,349.129425 218.850327,348.379303 218.100204C347.629181 217.350082,346.611847 216.928574,345.550934 216.928574C344.490021 216.928574,343.472687 217.350082,342.722565 218.100204C341.972443 218.850327,341.550934 219.867661,341.550934 220.928574C341.550934 221.989487,341.972443 223.006821,342.722565 223.756943C343.472687 224.507065,344.490021 224.928574,345.550934 224.928574C346.611847 224.928574,347.629181 224.507065,348.379303 223.756943C349.129425 223.006821,349.550934 221.989487,349.550934 220.928574Z" style="fill: rgb(9.800720%,9.800720%,44.000244%);stroke: none;"></path>
  <path d="M133.791672 128.530991L67.000000 28.070984" style="stroke:rgb(60.000610%,60.000610%,60.000610%); stroke-width: 1.500000;stroke-linecap: round;stroke-dasharray: 3.000000 3.000000 ;stroke-linejoin: round;stroke-miterlimit: 10.000000;fill: none;"></path>
  <path d="M137.791672 128.530991C137.791672 127.470078,137.370163 126.452744,136.620041 125.702621C135.869919 124.952499,134.852585 124.530991,133.791672 124.530991C132.730759 124.530991,131.713425 124.952499,130.963303 125.702621C130.213181 126.452744,129.791672 127.470078,129.791672 128.530991C129.791672 129.591904,130.213181 130.609238,130.963303 131.359360C131.713425 132.109482,132.730759 132.530991,133.791672 132.530991C134.852585 132.530991,135.869919 132.109482,136.620041 131.359360C137.370163 130.609238,137.791672 129.591904,137.791672 128.530991Z" style="stroke:rgb(39.999390%,39.999390%,39.999390%); stroke-width: 0.500000;stroke-linecap: round;stroke-linejoin: round;stroke-miterlimit: 10.000000;fill: none;"></path>
  <path d="M137.791672 128.530991C137.791672 127.470078,137.370163 126.452744,136.620041 125.702621C135.869919 124.952499,134.852585 124.530991,133.791672 124.530991C132.730759 124.530991,131.713425 124.952499,130.963303 125.702621C130.213181 126.452744,129.791672 127.470078,129.791672 128.530991C129.791672 129.591904,130.213181 130.609238,130.963303 131.359360C131.713425 132.109482,132.730759 132.530991,133.791672 132.530991C134.852585 132.530991,135.869919 132.109482,136.620041 131.359360C137.370163 130.609238,137.791672 129.591904,137.791672 128.530991Z" style="fill: rgb(89.999390%,0.000000%,0.000000%);stroke: none;"></path>
  <path d="M71.000000 28.070984C71.000000 27.010071,70.578491 25.992737,69.828369 25.242615C69.078247 24.492493,68.060913 24.070984,67.000000 24.070984C65.939087 24.070984,64.921753 24.492493,64.171631 25.242615C63.421509 25.992737,63.000000 27.010071,63.000000 28.070984C63.000000 29.131897,63.421509 30.149231,64.171631 30.899353C64.921753 31.649475,65.939087 32.070984,67.000000 32.070984C68.060913 32.070984,69.078247 31.649475,69.828369 30.899353C70.578491 30.149231,71.000000 29.131897,71.000000 28.070984Z" style="stroke:rgb(39.999390%,39.999390%,39.999390%); stroke-width: 0.500000;stroke-linecap: round;stroke-linejoin: round;stroke-miterlimit: 10.000000;fill: none;"></path>
  <path d="M71.000000 28.070984C71.000000 27.010071,70.578491 25.992737,69.828369 25.242615C69.078247 24.492493,68.060913 24.070984,67.000000 24.070984C65.939087 24.070984,64.921753 24.492493,64.171631 25.242615C63.421509 25.992737,63.000000 27.010071,63.000000 28.070984C63.000000 29.131897,63.421509 30.149231,64.171631 30.899353C64.921753 31.649475,65.939087 32.070984,67.000000 32.070984C68.060913 32.070984,69.078247 31.649475,69.828369 30.899353C70.578491 30.149231,71.000000 29.131897,71.000000 28.070984Z" style="fill: rgb(100.000000%,100.000000%,0.000000%);stroke: none;"></path>
  <path d="M133.791672 128.530991L121.550995 248.541458" style="stroke:rgb(60.000610%,60.000610%,60.000610%); stroke-width: 1.500000;stroke-linecap: round;stroke-dasharray: 3.000000 3.000000 ;stroke-linejoin: round;stroke-miterlimit: 10.000000;fill: none;"></path>
  <path d="M137.791672 128.530991C137.791672 127.470078,137.370163 126.452744,136.620041 125.702621C135.869919 124.952499,134.852585 124.530991,133.791672 124.530991C132.730759 124.530991,131.713425 124.952499,130.963303 125.702621C130.213181 126.452744,129.791672 127.470078,129.791672 128.530991C129.791672 129.591904,130.213181 130.609238,130.963303 131.359360C131.713425 132.109482,132.730759 132.530991,133.791672 132.530991C134.852585 132.530991,135.869919 132.109482,136.620041 131.359360C137.370163 130.609238,137.791672 129.591904,137.791672 128.530991Z" style="stroke:rgb(39.999390%,39.999390%,39.999390%); stroke-width: 0.500000;stroke-linecap: round;stroke-linejoin: round;stroke-miterlimit: 10.000000;fill: none;"></path>
  <path d="M137.791672 128.530991C137.791672 127.470078,137.370163 126.452744,136.620041 125.702621C135.869919 124.952499,134.852585 124.530991,133.791672 124.530991C132.730759 124.530991,131.713425 124.952499,130.963303 125.702621C130.213181 126.452744,129.791672 127.470078,129.791672 128.530991C129.791672 129.591904,130.213181 130.609238,130.963303 131.359360C131.713425 132.109482,132.730759 132.530991,133.791672 132.530991C134.852585 132.530991,135.869919 132.109482,136.620041 131.359360C137.370163 130.609238,137.791672 129.591904,137.791672 128.530991Z" style="fill: rgb(89.999390%,0.000000%,0.000000%);stroke: none;"></path>
  <path d="M125.550995 248.541458C125.550995 247.480545,125.129486 246.463211,124.379364 245.713089C123.629242 244.962967,122.611908 244.541458,121.550995 244.541458C120.490082 244.541458,119.472748 244.962967,118.722626 245.713089C117.972504 246.463211,117.550995 247.480545,117.550995 248.541458C117.550995 249.602371,117.972504 250.619705,118.722626 251.369827C119.472748 252.119949,120.490082 252.541458,121.550995 252.541458C122.611908 252.541458,123.629242 252.119949,124.379364 251.369827C125.129486 250.619705,125.550995 249.602371,125.550995 248.541458Z" style="stroke:rgb(39.999390%,39.999390%,39.999390%); stroke-width: 0.500000;stroke-linecap: round;stroke-linejoin: round;stroke-miterlimit: 10.000000;fill: none;"></path>
  <path d="M125.550995 248.541458C125.550995 247.480545,125.129486 246.463211,124.379364 245.713089C123.629242 244.962967,122.611908 244.541458,121.550995 244.541458C120.490082 244.541458,119.472748 244.962967,118.722626 245.713089C117.972504 246.463211,117.550995 247.480545,117.550995 248.541458C117.550995 249.602371,117.972504 250.619705,118.722626 251.369827C119.472748 252.119949,120.490082 252.541458,121.550995 252.541458C122.611908 252.541458,123.629242 252.119949,124.379364 251.369827C125.129486 250.619705,125.550995 249.602371,125.550995 248.541458Z" style="fill: rgb(100.000000%,100.000000%,0.000000%);stroke: none;"></path>
</svg>
