<?xml version="1.0"?>
<!-- Created by MetaPost 2.00 on 2022.03.31:1000 -->
<svg version="1.1" xmlns="http://www.w3.org/2000/svg" xmlns:xlink="http://www.w3.org/1999/xlink" width="575.429016" height="652.618866" viewBox="0 0 575.429016 652.618866">
<!-- Original BoundingBox: -4.250000 -142.180344 571.179016 510.438522 -->
  <path d="M4.000000 510.000000L570.929016 510.000000L287.464508 19.023697L4.000000 510.000000Z" style="fill: rgb(100.000000%,100.000000%,100.000000%);stroke: none;"></path>
  <path d="M4.000000 510.000000L570.929016 510.000000" style="stroke:rgb(0.000000%,0.000000%,0.000000%); stroke-width: 1.000000;stroke-linecap: round;stroke-linejoin: round;stroke-miterlimit: 10.000000;fill: none;"></path>
  <path d="M570.929016 510.000000L287.464508 19.023697" style="stroke:rgb(0.000000%,0.000000%,0.000000%); stroke-width: 1.000000;stroke-linecap: round;stroke-linejoin: round;stroke-miterlimit: 10.000000;fill: none;"></path>
  <path d="M287.464508 19.023697L4.000000 510.000000" style="stroke:rgb(0.000000%,0.000000%,0.000000%); stroke-width: 1.000000;stroke-linecap: round;stroke-linejoin: round;stroke-miterlimit: 10.000000;fill: none;"></path>
  <path d="M287.455856 509.965393C287.455856 472.378586,272.522339 436.335724,245.946457 409.759842C219.370575 383.183960,183.327713 368.250443,145.740906 368.250443C108.154099 368.250443,72.111237 383.183960,45.535355 409.759842C18.959473 436.335724,4.025955 472.378586,4.025955 509.965393C4.025955 547.552200,18.959473 583.595062,45.535355 610.170944C72.111237 636.746826,108.154099 651.680344,145.740906 651.680344C183.327713 651.680344,219.370575 636.746826,245.946457 610.170944C272.522339 583.595062,287.455856 547.552200,287.455856 509.965393Z" style="stroke:rgb(25.500488%,41.000366%,88.400269%); stroke-width: 1.000000;stroke-linecap: round;stroke-linejoin: round;stroke-miterlimit: 10.000000;fill: none;"></path>
  <path d="M570.911713 509.965393C570.911713 472.378586,555.978195 436.335724,529.402313 409.759842C502.826431 383.183960,466.783569 368.250443,429.196762 368.250443C391.609955 368.250443,355.567093 383.183960,328.991211 409.759842C302.415329 436.335724,287.481812 472.378586,287.481812 509.965393C287.481812 547.552200,302.415329 583.595062,328.991211 610.170944C355.567093 636.746826,391.609955 651.680344,429.196762 651.680344C466.783569 651.680344,502.826431 636.746826,529.402313 610.170944C555.978195 583.595062,570.911713 547.552200,570.911713 509.965393Z" style="stroke:rgb(25.500488%,41.000366%,88.400269%); stroke-width: 1.000000;stroke-linecap: round;stroke-linejoin: round;stroke-miterlimit: 10.000000;fill: none;"></path>
  <path d="M287.473160 264.537796C287.473160 226.950989,272.539642 190.908127,245.963760 164.332245C219.387878 137.756363,183.345016 122.822845,145.758209 122.822845C108.171402 122.822845,72.128540 137.756363,45.552658 164.332245C18.976776 190.908127,4.043259 226.950989,4.043259 264.537796C4.043259 302.124603,18.976776 338.167465,45.552658 364.743347C72.128540 391.319229,108.171402 406.252747,145.758209 406.252747C183.345016 406.252747,219.387878 391.319229,245.963760 364.743347C272.539642 338.167465,287.473160 302.124603,287.473160 264.537796Z" style="stroke:rgb(25.500488%,41.000366%,88.400269%); stroke-width: 1.000000;stroke-linecap: round;stroke-linejoin: round;stroke-miterlimit: 10.000000;fill: none;"></path>
  <path d="M500.054230 387.238617C500.054230 349.651810,485.120712 313.608948,458.544830 287.033066C431.968948 260.457184,395.926086 245.523666,358.339279 245.523666C320.752472 245.523666,284.709610 260.457184,258.133728 287.033066C231.557846 313.608948,216.624329 349.651810,216.624329 387.238617C216.624329 424.825424,231.557846 460.868286,258.133728 487.444168C284.709610 514.020050,320.752472 528.953568,358.339279 528.953568C395.926086 528.953568,431.968948 514.020050,458.544830 487.444168C485.120712 460.868286,500.054230 424.825424,500.054230 387.238617Z" style="stroke:rgb(25.500488%,41.000366%,88.400269%); stroke-width: 1.000000;stroke-linecap: round;stroke-linejoin: round;stroke-miterlimit: 10.000000;fill: none;"></path>
  <path d="M500.010986 141.776428C500.010986 104.189621,485.077469 68.146759,458.501587 41.570877C431.925705 14.994995,395.882843 0.061478,358.296036 0.061478C320.709229 0.061478,284.666367 14.994995,258.090485 41.570877C231.514603 68.146759,216.581085 104.189621,216.581085 141.776428C216.581085 179.363235,231.514603 215.406097,258.090485 241.981979C284.666367 268.557861,320.709229 283.491379,358.296036 283.491379C395.882843 283.491379,431.925705 268.557861,458.501587 241.981979C485.077469 215.406097,500.010986 179.363235,500.010986 141.776428Z" style="stroke:rgb(25.500488%,41.000366%,88.400269%); stroke-width: 1.000000;stroke-linecap: round;stroke-linejoin: round;stroke-miterlimit: 10.000000;fill: none;"></path>
  <path d="M145.740906 509.965393L4.000000 510.000000" style="stroke:rgb(60.000610%,60.000610%,60.000610%); stroke-width: 1.800003;stroke-linecap: round;stroke-dasharray: 3.000000 3.000000 ;stroke-linejoin: round;stroke-miterlimit: 10.000000;fill: none;"></path>
  <path d="M149.740906 509.965393C149.740906 508.904480,149.319397 507.887146,148.569275 507.137024C147.819153 506.386902,146.801819 505.965393,145.740906 505.965393C144.679993 505.965393,143.662659 506.386902,142.912537 507.137024C142.162415 507.887146,141.740906 508.904480,141.740906 509.965393C141.740906 511.026306,142.162415 512.043640,142.912537 512.793762C143.662659 513.543884,144.679993 513.965393,145.740906 513.965393C146.801819 513.965393,147.819153 513.543884,148.569275 512.793762C149.319397 512.043640,149.740906 511.026306,149.740906 509.965393Z" style="stroke:rgb(39.999390%,39.999390%,39.999390%); stroke-width: 0.500000;stroke-linecap: round;stroke-linejoin: round;stroke-miterlimit: 10.000000;fill: none;"></path>
  <path d="M149.740906 509.965393C149.740906 508.904480,149.319397 507.887146,148.569275 507.137024C147.819153 506.386902,146.801819 505.965393,145.740906 505.965393C144.679993 505.965393,143.662659 506.386902,142.912537 507.137024C142.162415 507.887146,141.740906 508.904480,141.740906 509.965393C141.740906 511.026306,142.162415 512.043640,142.912537 512.793762C143.662659 513.543884,144.679993 513.965393,145.740906 513.965393C146.801819 513.965393,147.819153 513.543884,148.569275 512.793762C149.319397 512.043640,149.740906 511.026306,149.740906 509.965393Z" style="fill: rgb(89.999390%,0.000000%,0.000000%);stroke: none;"></path>
  <path d="M8.000000 510.000000C8.000000 508.939087,7.578491 507.921753,6.828369 507.171631C6.078247 506.421509,5.060913 506.000000,4.000000 506.000000C2.939087 506.000000,1.921753 506.421509,1.171631 507.171631C0.421509 507.921753,0.000000 508.939087,0.000000 510.000000C0.000000 511.060913,0.421509 512.078247,1.171631 512.828369C1.921753 513.578491,2.939087 514.000000,4.000000 514.000000C5.060913 514.000000,6.078247 513.578491,6.828369 512.828369C7.578491 512.078247,8.000000 511.060913,8.000000 510.000000Z" style="stroke:rgb(39.999390%,39.999390%,39.999390%); stroke-width: 0.500000;stroke-linecap: round;stroke-linejoin: round;stroke-miterlimit: 10.000000;fill: none;"></path>
  <path d="M8.000000 510.000000C8.000000 508.939087,7.578491 507.921753,6.828369 507.171631C6.078247 506.421509,5.060913 506.000000,4.000000 506.000000C2.939087 506.000000,1.921753 506.421509,1.171631 507.171631C0.421509 507.921753,0.000000 508.939087,0.000000 510.000000C0.000000 511.060913,0.421509 512.078247,1.171631 512.828369C1.921753 513.578491,2.939087 514.000000,4.000000 514.000000C5.060913 514.000000,6.078247 513.578491,6.828369 512.828369C7.578491 512.078247,8.000000 511.060913,8.000000 510.000000Z" style="fill: rgb(100.000000%,100.000000%,0.000000%);stroke: none;"></path>
  <path d="M145.740906 509.965393L74.874771 387.247269" style="stroke:rgb(60.000610%,60.000610%,60.000610%); stroke-width: 1.800003;stroke-linecap: round;stroke-dasharray: 3.000000 3.000000 ;stroke-linejoin: round;stroke-miterlimit: 10.000000;fill: none;"></path>
  <path d="M145.758209 264.537796L74.874771 387.247269" style="stroke:rgb(60.000610%,60.000610%,60.000610%); stroke-width: 1.800003;stroke-linecap: round;stroke-dasharray: 3.000000 3.000000 ;stroke-linejoin: round;stroke-miterlimit: 10.000000;fill: none;"></path>
  <path d="M149.740906 509.965393C149.740906 508.904480,149.319397 507.887146,148.569275 507.137024C147.819153 506.386902,146.801819 505.965393,145.740906 505.965393C144.679993 505.965393,143.662659 506.386902,142.912537 507.137024C142.162415 507.887146,141.740906 508.904480,141.740906 509.965393C141.740906 511.026306,142.162415 512.043640,142.912537 512.793762C143.662659 513.543884,144.679993 513.965393,145.740906 513.965393C146.801819 513.965393,147.819153 513.543884,148.569275 512.793762C149.319397 512.043640,149.740906 511.026306,149.740906 509.965393Z" style="stroke:rgb(39.999390%,39.999390%,39.999390%); stroke-width: 0.500000;stroke-linecap: round;stroke-linejoin: round;stroke-miterlimit: 10.000000;fill: none;"></path>
  <path d="M149.740906 509.965393C149.740906 508.904480,149.319397 507.887146,148.569275 507.137024C147.819153 506.386902,146.801819 505.965393,145.740906 505.965393C144.679993 505.965393,143.662659 506.386902,142.912537 507.137024C142.162415 507.887146,141.740906 508.904480,141.740906 509.965393C141.740906 511.026306,142.162415 512.043640,142.912537 512.793762C143.662659 513.543884,144.679993 513.965393,145.740906 513.965393C146.801819 513.965393,147.819153 513.543884,148.569275 512.793762C149.319397 512.043640,149.740906 511.026306,149.740906 509.965393Z" style="fill: rgb(89.999390%,0.000000%,0.000000%);stroke: none;"></path>
  <path d="M149.758209 264.537796C149.758209 263.476883,149.336700 262.459549,148.586578 261.709427C147.836456 260.959305,146.819122 260.537796,145.758209 260.537796C144.697296 260.537796,143.679962 260.959305,142.929840 261.709427C142.179718 262.459549,141.758209 263.476883,141.758209 264.537796C141.758209 265.598709,142.179718 266.616043,142.929840 267.366165C143.679962 268.116287,144.697296 268.537796,145.758209 268.537796C146.819122 268.537796,147.836456 268.116287,148.586578 267.366165C149.336700 266.616043,149.758209 265.598709,149.758209 264.537796Z" style="stroke:rgb(39.999390%,39.999390%,39.999390%); stroke-width: 0.500000;stroke-linecap: round;stroke-linejoin: round;stroke-miterlimit: 10.000000;fill: none;"></path>
  <path d="M149.758209 264.537796C149.758209 263.476883,149.336700 262.459549,148.586578 261.709427C147.836456 260.959305,146.819122 260.537796,145.758209 260.537796C144.697296 260.537796,143.679962 260.959305,142.929840 261.709427C142.179718 262.459549,141.758209 263.476883,141.758209 264.537796C141.758209 265.598709,142.179718 266.616043,142.929840 267.366165C143.679962 268.116287,144.697296 268.537796,145.758209 268.537796C146.819122 268.537796,147.836456 268.116287,148.586578 267.366165C149.336700 266.616043,149.758209 265.598709,149.758209 264.537796Z" style="fill: rgb(89.999390%,0.000000%,0.000000%);stroke: none;"></path>
  <path d="M78.874771 387.247269C78.874771 386.186356,78.453262 385.169022,77.703140 384.418900C76.953018 383.668777,75.935684 383.247269,74.874771 383.247269C73.813858 383.247269,72.796524 383.668777,72.046402 384.418900C71.296280 385.169022,70.874771 386.186356,70.874771 387.247269C70.874771 388.308182,71.296280 389.325516,72.046402 390.075638C72.796524 390.825760,73.813858 391.247269,74.874771 391.247269C75.935684 391.247269,76.953018 390.825760,77.703140 390.075638C78.453262 389.325516,78.874771 388.308182,78.874771 387.247269Z" style="stroke:rgb(39.999390%,39.999390%,39.999390%); stroke-width: 0.500000;stroke-linecap: round;stroke-linejoin: round;stroke-miterlimit: 10.000000;fill: none;"></path>
  <path d="M78.874771 387.247269C78.874771 386.186356,78.453262 385.169022,77.703140 384.418900C76.953018 383.668777,75.935684 383.247269,74.874771 383.247269C73.813858 383.247269,72.796524 383.668777,72.046402 384.418900C71.296280 385.169022,70.874771 386.186356,70.874771 387.247269C70.874771 388.308182,71.296280 389.325516,72.046402 390.075638C72.796524 390.825760,73.813858 391.247269,74.874771 391.247269C75.935684 391.247269,76.953018 390.825760,77.703140 390.075638C78.453262 389.325516,78.874771 388.308182,78.874771 387.247269Z" style="fill: rgb(0.000000%,50.000000%,0.000000%);stroke: none;"></path>
  <path d="M145.740906 509.965393L216.624329 387.255920" style="stroke:rgb(60.000610%,60.000610%,60.000610%); stroke-width: 1.800003;stroke-linecap: round;stroke-dasharray: 3.000000 3.000000 ;stroke-linejoin: round;stroke-miterlimit: 10.000000;fill: none;"></path>
  <path d="M145.758209 264.537796L216.624329 387.255920" style="stroke:rgb(60.000610%,60.000610%,60.000610%); stroke-width: 1.800003;stroke-linecap: round;stroke-dasharray: 3.000000 3.000000 ;stroke-linejoin: round;stroke-miterlimit: 10.000000;fill: none;"></path>
  <path d="M149.740906 509.965393C149.740906 508.904480,149.319397 507.887146,148.569275 507.137024C147.819153 506.386902,146.801819 505.965393,145.740906 505.965393C144.679993 505.965393,143.662659 506.386902,142.912537 507.137024C142.162415 507.887146,141.740906 508.904480,141.740906 509.965393C141.740906 511.026306,142.162415 512.043640,142.912537 512.793762C143.662659 513.543884,144.679993 513.965393,145.740906 513.965393C146.801819 513.965393,147.819153 513.543884,148.569275 512.793762C149.319397 512.043640,149.740906 511.026306,149.740906 509.965393Z" style="stroke:rgb(39.999390%,39.999390%,39.999390%); stroke-width: 0.500000;stroke-linecap: round;stroke-linejoin: round;stroke-miterlimit: 10.000000;fill: none;"></path>
  <path d="M149.740906 509.965393C149.740906 508.904480,149.319397 507.887146,148.569275 507.137024C147.819153 506.386902,146.801819 505.965393,145.740906 505.965393C144.679993 505.965393,143.662659 506.386902,142.912537 507.137024C142.162415 507.887146,141.740906 508.904480,141.740906 509.965393C141.740906 511.026306,142.162415 512.043640,142.912537 512.793762C143.662659 513.543884,144.679993 513.965393,145.740906 513.965393C146.801819 513.965393,147.819153 513.543884,148.569275 512.793762C149.319397 512.043640,149.740906 511.026306,149.740906 509.965393Z" style="fill: rgb(89.999390%,0.000000%,0.000000%);stroke: none;"></path>
  <path d="M149.758209 264.537796C149.758209 263.476883,149.336700 262.459549,148.586578 261.709427C147.836456 260.959305,146.819122 260.537796,145.758209 260.537796C144.697296 260.537796,143.679962 260.959305,142.929840 261.709427C142.179718 262.459549,141.758209 263.476883,141.758209 264.537796C141.758209 265.598709,142.179718 266.616043,142.929840 267.366165C143.679962 268.116287,144.697296 268.537796,145.758209 268.537796C146.819122 268.537796,147.836456 268.116287,148.586578 267.366165C149.336700 266.616043,149.758209 265.598709,149.758209 264.537796Z" style="stroke:rgb(39.999390%,39.999390%,39.999390%); stroke-width: 0.500000;stroke-linecap: round;stroke-linejoin: round;stroke-miterlimit: 10.000000;fill: none;"></path>
  <path d="M149.758209 264.537796C149.758209 263.476883,149.336700 262.459549,148.586578 261.709427C147.836456 260.959305,146.819122 260.537796,145.758209 260.537796C144.697296 260.537796,143.679962 260.959305,142.929840 261.709427C142.179718 262.459549,141.758209 263.476883,141.758209 264.537796C141.758209 265.598709,142.179718 266.616043,142.929840 267.366165C143.679962 268.116287,144.697296 268.537796,145.758209 268.537796C146.819122 268.537796,147.836456 268.116287,148.586578 267.366165C149.336700 266.616043,149.758209 265.598709,149.758209 264.537796Z" style="fill: rgb(89.999390%,0.000000%,0.000000%);stroke: none;"></path>
  <path d="M220.624329 387.255920C220.624329 386.195007,220.202820 385.177673,219.452698 384.427551C218.702576 383.677429,217.685242 383.255920,216.624329 383.255920C215.563416 383.255920,214.546082 383.677429,213.795959 384.427551C213.045837 385.177673,212.624329 386.195007,212.624329 387.255920C212.624329 388.316833,213.045837 389.334167,213.795959 390.084290C214.546082 390.834412,215.563416 391.255920,216.624329 391.255920C217.685242 391.255920,218.702576 390.834412,219.452698 390.084290C220.202820 389.334167,220.624329 388.316833,220.624329 387.255920Z" style="stroke:rgb(39.999390%,39.999390%,39.999390%); stroke-width: 0.500000;stroke-linecap: round;stroke-linejoin: round;stroke-miterlimit: 10.000000;fill: none;"></path>
  <path d="M220.624329 387.255920C220.624329 386.195007,220.202820 385.177673,219.452698 384.427551C218.702576 383.677429,217.685242 383.255920,216.624329 383.255920C215.563416 383.255920,214.546082 383.677429,213.795959 384.427551C213.045837 385.177673,212.624329 386.195007,212.624329 387.255920C212.624329 388.316833,213.045837 389.334167,213.795959 390.084290C214.546082 390.834412,215.563416 391.255920,216.624329 391.255920C217.685242 391.255920,218.702576 390.834412,219.452698 390.084290C220.202820 389.334167,220.624329 388.316833,220.624329 387.255920Z" style="fill: rgb(9.800720%,9.800720%,44.000244%);stroke: none;"></path>
  <path d="M145.740906 509.965393L216.624329 387.255920" style="stroke:rgb(60.000610%,60.000610%,60.000610%); stroke-width: 1.800003;stroke-linecap: round;stroke-dasharray: 3.000000 3.000000 ;stroke-linejoin: round;stroke-miterlimit: 10.000000;fill: none;"></path>
  <path d="M358.339279 387.238617L216.624329 387.255920" style="stroke:rgb(60.000610%,60.000610%,60.000610%); stroke-width: 1.800003;stroke-linecap: round;stroke-dasharray: 3.000000 3.000000 ;stroke-linejoin: round;stroke-miterlimit: 10.000000;fill: none;"></path>
  <path d="M149.740906 509.965393C149.740906 508.904480,149.319397 507.887146,148.569275 507.137024C147.819153 506.386902,146.801819 505.965393,145.740906 505.965393C144.679993 505.965393,143.662659 506.386902,142.912537 507.137024C142.162415 507.887146,141.740906 508.904480,141.740906 509.965393C141.740906 511.026306,142.162415 512.043640,142.912537 512.793762C143.662659 513.543884,144.679993 513.965393,145.740906 513.965393C146.801819 513.965393,147.819153 513.543884,148.569275 512.793762C149.319397 512.043640,149.740906 511.026306,149.740906 509.965393Z" style="stroke:rgb(39.999390%,39.999390%,39.999390%); stroke-width: 0.500000;stroke-linecap: round;stroke-linejoin: round;stroke-miterlimit: 10.000000;fill: none;"></path>
  <path d="M149.740906 509.965393C149.740906 508.904480,149.319397 507.887146,148.569275 507.137024C147.819153 506.386902,146.801819 505.965393,145.740906 505.965393C144.679993 505.965393,143.662659 506.386902,142.912537 507.137024C142.162415 507.887146,141.740906 508.904480,141.740906 509.965393C141.740906 511.026306,142.162415 512.043640,142.912537 512.793762C143.662659 513.543884,144.679993 513.965393,145.740906 513.965393C146.801819 513.965393,147.819153 513.543884,148.569275 512.793762C149.319397 512.043640,149.740906 511.026306,149.740906 509.965393Z" style="fill: rgb(89.999390%,0.000000%,0.000000%);stroke: none;"></path>
  <path d="M362.339279 387.238617C362.339279 386.177704,361.917770 385.160370,361.167648 384.410248C360.417526 383.660126,359.400192 383.238617,358.339279 383.238617C357.278366 383.238617,356.261032 383.660126,355.510910 384.410248C354.760788 385.160370,354.339279 386.177704,354.339279 387.238617C354.339279 388.299530,354.760788 389.316864,355.510910 390.066986C356.261032 390.817108,357.278366 391.238617,358.339279 391.238617C359.400192 391.238617,360.417526 390.817108,361.167648 390.066986C361.917770 389.316864,362.339279 388.299530,362.339279 387.238617Z" style="stroke:rgb(39.999390%,39.999390%,39.999390%); stroke-width: 0.500000;stroke-linecap: round;stroke-linejoin: round;stroke-miterlimit: 10.000000;fill: none;"></path>
  <path d="M362.339279 387.238617C362.339279 386.177704,361.917770 385.160370,361.167648 384.410248C360.417526 383.660126,359.400192 383.238617,358.339279 383.238617C357.278366 383.238617,356.261032 383.660126,355.510910 384.410248C354.760788 385.160370,354.339279 386.177704,354.339279 387.238617C354.339279 388.299530,354.760788 389.316864,355.510910 390.066986C356.261032 390.817108,357.278366 391.238617,358.339279 391.238617C359.400192 391.238617,360.417526 390.817108,361.167648 390.066986C361.917770 389.316864,362.339279 388.299530,362.339279 387.238617Z" style="fill: rgb(89.999390%,0.000000%,0.000000%);stroke: none;"></path>
  <path d="M220.624329 387.255920C220.624329 386.195007,220.202820 385.177673,219.452698 384.427551C218.702576 383.677429,217.685242 383.255920,216.624329 383.255920C215.563416 383.255920,214.546082 383.677429,213.795959 384.427551C213.045837 385.177673,212.624329 386.195007,212.624329 387.255920C212.624329 388.316833,213.045837 389.334167,213.795959 390.084290C214.546082 390.834412,215.563416 391.255920,216.624329 391.255920C217.685242 391.255920,218.702576 390.834412,219.452698 390.084290C220.202820 389.334167,220.624329 388.316833,220.624329 387.255920Z" style="stroke:rgb(39.999390%,39.999390%,39.999390%); stroke-width: 0.500000;stroke-linecap: round;stroke-linejoin: round;stroke-miterlimit: 10.000000;fill: none;"></path>
  <path d="M220.624329 387.255920C220.624329 386.195007,220.202820 385.177673,219.452698 384.427551C218.702576 383.677429,217.685242 383.255920,216.624329 383.255920C215.563416 383.255920,214.546082 383.677429,213.795959 384.427551C213.045837 385.177673,212.624329 386.195007,212.624329 387.255920C212.624329 388.316833,213.045837 389.334167,213.795959 390.084290C214.546082 390.834412,215.563416 391.255920,216.624329 391.255920C217.685242 391.255920,218.702576 390.834412,219.452698 390.084290C220.202820 389.334167,220.624329 388.316833,220.624329 387.255920Z" style="fill: rgb(9.800720%,9.800720%,44.000244%);stroke: none;"></path>
  <path d="M145.740906 509.965393L287.455856 509.948090" style="stroke:rgb(60.000610%,60.000610%,60.000610%); stroke-width: 1.800003;stroke-linecap: round;stroke-dasharray: 3.000000 3.000000 ;stroke-linejoin: round;stroke-miterlimit: 10.000000;fill: none;"></path>
  <path d="M358.339279 387.238617L287.455856 509.948090" style="stroke:rgb(60.000610%,60.000610%,60.000610%); stroke-width: 1.800003;stroke-linecap: round;stroke-dasharray: 3.000000 3.000000 ;stroke-linejoin: round;stroke-miterlimit: 10.000000;fill: none;"></path>
  <path d="M149.740906 509.965393C149.740906 508.904480,149.319397 507.887146,148.569275 507.137024C147.819153 506.386902,146.801819 505.965393,145.740906 505.965393C144.679993 505.965393,143.662659 506.386902,142.912537 507.137024C142.162415 507.887146,141.740906 508.904480,141.740906 509.965393C141.740906 511.026306,142.162415 512.043640,142.912537 512.793762C143.662659 513.543884,144.679993 513.965393,145.740906 513.965393C146.801819 513.965393,147.819153 513.543884,148.569275 512.793762C149.319397 512.043640,149.740906 511.026306,149.740906 509.965393Z" style="stroke:rgb(39.999390%,39.999390%,39.999390%); stroke-width: 0.500000;stroke-linecap: round;stroke-linejoin: round;stroke-miterlimit: 10.000000;fill: none;"></path>
  <path d="M149.740906 509.965393C149.740906 508.904480,149.319397 507.887146,148.569275 507.137024C147.819153 506.386902,146.801819 505.965393,145.740906 505.965393C144.679993 505.965393,143.662659 506.386902,142.912537 507.137024C142.162415 507.887146,141.740906 508.904480,141.740906 509.965393C141.740906 511.026306,142.162415 512.043640,142.912537 512.793762C143.662659 513.543884,144.679993 513.965393,145.740906 513.965393C146.801819 513.965393,147.819153 513.543884,148.569275 512.793762C149.319397 512.043640,149.740906 511.026306,149.740906 509.965393Z" style="fill: rgb(89.999390%,0.000000%,0.000000%);stroke: none;"></path>
  <path d="M362.339279 387.238617C362.339279 386.177704,361.917770 385.160370,361.167648 384.410248C360.417526 383.660126,359.400192 383.238617,358.339279 383.238617C357.278366 383.238617,356.261032 383.660126,355.510910 384.410248C354.760788 385.160370,354.339279 386.177704,354.339279 387.238617C354.339279 388.299530,354.760788 389.316864,355.510910 390.066986C356.261032 390.817108,357.278366 391.238617,358.339279 391.238617C359.400192 391.238617,360.417526 390.817108,361.167648 390.066986C361.917770 389.316864,362.339279 388.299530,362.339279 387.238617Z" style="stroke:rgb(39.999390%,39.999390%,39.999390%); stroke-width: 0.500000;stroke-linecap: round;stroke-linejoin: round;stroke-miterlimit: 10.000000;fill: none;"></path>
  <path d="M362.339279 387.238617C362.339279 386.177704,361.917770 385.160370,361.167648 384.410248C360.417526 383.660126,359.400192 383.238617,358.339279 383.238617C357.278366 383.238617,356.261032 383.660126,355.510910 384.410248C354.760788 385.160370,354.339279 386.177704,354.339279 387.238617C354.339279 388.299530,354.760788 389.316864,355.510910 390.066986C356.261032 390.817108,357.278366 391.238617,358.339279 391.238617C359.400192 391.238617,360.417526 390.817108,361.167648 390.066986C361.917770 389.316864,362.339279 388.299530,362.339279 387.238617Z" style="fill: rgb(89.999390%,0.000000%,0.000000%);stroke: none;"></path>
  <path d="M291.455856 509.948090C291.455856 508.887177,291.034348 507.869843,290.284225 507.119720C289.534103 506.369598,288.516769 505.948090,287.455856 505.948090C286.394943 505.948090,285.377609 506.369598,284.627487 507.119720C283.877365 507.869843,283.455856 508.887177,283.455856 509.948090C283.455856 511.009003,283.877365 512.026337,284.627487 512.776459C285.377609 513.526581,286.394943 513.948090,287.455856 513.948090C288.516769 513.948090,289.534103 513.526581,290.284225 512.776459C291.034348 512.026337,291.455856 511.009003,291.455856 509.948090Z" style="stroke:rgb(39.999390%,39.999390%,39.999390%); stroke-width: 0.500000;stroke-linecap: round;stroke-linejoin: round;stroke-miterlimit: 10.000000;fill: none;"></path>
  <path d="M291.455856 509.948090C291.455856 508.887177,291.034348 507.869843,290.284225 507.119720C289.534103 506.369598,288.516769 505.948090,287.455856 505.948090C286.394943 505.948090,285.377609 506.369598,284.627487 507.119720C283.877365 507.869843,283.455856 508.887177,283.455856 509.948090C283.455856 511.009003,283.877365 512.026337,284.627487 512.776459C285.377609 513.526581,286.394943 513.948090,287.455856 513.948090C288.516769 513.948090,289.534103 513.526581,290.284225 512.776459C291.034348 512.026337,291.455856 511.009003,291.455856 509.948090Z" style="fill: rgb(9.800720%,9.800720%,44.000244%);stroke: none;"></path>
  <path d="M429.196762 509.965393L570.929016 510.000000" style="stroke:rgb(60.000610%,60.000610%,60.000610%); stroke-width: 1.800003;stroke-linecap: round;stroke-dasharray: 3.000000 3.000000 ;stroke-linejoin: round;stroke-miterlimit: 10.000000;fill: none;"></path>
  <path d="M433.196762 509.965393C433.196762 508.904480,432.775253 507.887146,432.025131 507.137024C431.275009 506.386902,430.257675 505.965393,429.196762 505.965393C428.135849 505.965393,427.118515 506.386902,426.368393 507.137024C425.618271 507.887146,425.196762 508.904480,425.196762 509.965393C425.196762 511.026306,425.618271 512.043640,426.368393 512.793762C427.118515 513.543884,428.135849 513.965393,429.196762 513.965393C430.257675 513.965393,431.275009 513.543884,432.025131 512.793762C432.775253 512.043640,433.196762 511.026306,433.196762 509.965393Z" style="stroke:rgb(39.999390%,39.999390%,39.999390%); stroke-width: 0.500000;stroke-linecap: round;stroke-linejoin: round;stroke-miterlimit: 10.000000;fill: none;"></path>
  <path d="M433.196762 509.965393C433.196762 508.904480,432.775253 507.887146,432.025131 507.137024C431.275009 506.386902,430.257675 505.965393,429.196762 505.965393C428.135849 505.965393,427.118515 506.386902,426.368393 507.137024C425.618271 507.887146,425.196762 508.904480,425.196762 509.965393C425.196762 511.026306,425.618271 512.043640,426.368393 512.793762C427.118515 513.543884,428.135849 513.965393,429.196762 513.965393C430.257675 513.965393,431.275009 513.543884,432.025131 512.793762C432.775253 512.043640,433.196762 511.026306,433.196762 509.965393Z" style="fill: rgb(89.999390%,0.000000%,0.000000%);stroke: none;"></path>
  <path d="M574.929016 510.000000C574.929016 508.939087,574.507507 507.921753,573.757385 507.171631C573.007263 506.421509,571.989929 506.000000,570.929016 506.000000C569.868103 506.000000,568.850769 506.421509,568.100647 507.171631C567.350525 507.921753,566.929016 508.939087,566.929016 510.000000C566.929016 511.060913,567.350525 512.078247,568.100647 512.828369C568.850769 513.578491,569.868103 514.000000,570.929016 514.000000C571.989929 514.000000,573.007263 513.578491,573.757385 512.828369C574.507507 512.078247,574.929016 511.060913,574.929016 510.000000Z" style="stroke:rgb(39.999390%,39.999390%,39.999390%); stroke-width: 0.500000;stroke-linecap: round;stroke-linejoin: round;stroke-miterlimit: 10.000000;fill: none;"></path>
  <path d="M574.929016 510.000000C574.929016 508.939087,574.507507 507.921753,573.757385 507.171631C573.007263 506.421509,571.989929 506.000000,570.929016 506.000000C569.868103 506.000000,568.850769 506.421509,568.100647 507.171631C567.350525 507.921753,566.929016 508.939087,566.929016 510.000000C566.929016 511.060913,567.350525 512.078247,568.100647 512.828369C568.850769 513.578491,569.868103 514.000000,570.929016 514.000000C571.989929 514.000000,573.007263 513.578491,573.757385 512.828369C574.507507 512.078247,574.929016 511.060913,574.929016 510.000000Z" style="fill: rgb(100.000000%,100.000000%,0.000000%);stroke: none;"></path>
  <path d="M429.196762 509.965393L287.490463 509.974045" style="stroke:rgb(60.000610%,60.000610%,60.000610%); stroke-width: 1.800003;stroke-linecap: round;stroke-dasharray: 3.000000 3.000000 ;stroke-linejoin: round;stroke-miterlimit: 10.000000;fill: none;"></path>
  <path d="M358.339279 387.238617L287.490463 509.974045" style="stroke:rgb(60.000610%,60.000610%,60.000610%); stroke-width: 1.800003;stroke-linecap: round;stroke-dasharray: 3.000000 3.000000 ;stroke-linejoin: round;stroke-miterlimit: 10.000000;fill: none;"></path>
  <path d="M433.196762 509.965393C433.196762 508.904480,432.775253 507.887146,432.025131 507.137024C431.275009 506.386902,430.257675 505.965393,429.196762 505.965393C428.135849 505.965393,427.118515 506.386902,426.368393 507.137024C425.618271 507.887146,425.196762 508.904480,425.196762 509.965393C425.196762 511.026306,425.618271 512.043640,426.368393 512.793762C427.118515 513.543884,428.135849 513.965393,429.196762 513.965393C430.257675 513.965393,431.275009 513.543884,432.025131 512.793762C432.775253 512.043640,433.196762 511.026306,433.196762 509.965393Z" style="stroke:rgb(39.999390%,39.999390%,39.999390%); stroke-width: 0.500000;stroke-linecap: round;stroke-linejoin: round;stroke-miterlimit: 10.000000;fill: none;"></path>
  <path d="M433.196762 509.965393C433.196762 508.904480,432.775253 507.887146,432.025131 507.137024C431.275009 506.386902,430.257675 505.965393,429.196762 505.965393C428.135849 505.965393,427.118515 506.386902,426.368393 507.137024C425.618271 507.887146,425.196762 508.904480,425.196762 509.965393C425.196762 511.026306,425.618271 512.043640,426.368393 512.793762C427.118515 513.543884,428.135849 513.965393,429.196762 513.965393C430.257675 513.965393,431.275009 513.543884,432.025131 512.793762C432.775253 512.043640,433.196762 511.026306,433.196762 509.965393Z" style="fill: rgb(89.999390%,0.000000%,0.000000%);stroke: none;"></path>
  <path d="M362.339279 387.238617C362.339279 386.177704,361.917770 385.160370,361.167648 384.410248C360.417526 383.660126,359.400192 383.238617,358.339279 383.238617C357.278366 383.238617,356.261032 383.660126,355.510910 384.410248C354.760788 385.160370,354.339279 386.177704,354.339279 387.238617C354.339279 388.299530,354.760788 389.316864,355.510910 390.066986C356.261032 390.817108,357.278366 391.238617,358.339279 391.238617C359.400192 391.238617,360.417526 390.817108,361.167648 390.066986C361.917770 389.316864,362.339279 388.299530,362.339279 387.238617Z" style="stroke:rgb(39.999390%,39.999390%,39.999390%); stroke-width: 0.500000;stroke-linecap: round;stroke-linejoin: round;stroke-miterlimit: 10.000000;fill: none;"></path>
  <path d="M362.339279 387.238617C362.339279 386.177704,361.917770 385.160370,361.167648 384.410248C360.417526 383.660126,359.400192 383.238617,358.339279 383.238617C357.278366 383.238617,356.261032 383.660126,355.510910 384.410248C354.760788 385.160370,354.339279 386.177704,354.339279 387.238617C354.339279 388.299530,354.760788 389.316864,355.510910 390.066986C356.261032 390.817108,357.278366 391.238617,358.339279 391.238617C359.400192 391.238617,360.417526 390.817108,361.167648 390.066986C361.917770 389.316864,362.339279 388.299530,362.339279 387.238617Z" style="fill: rgb(89.999390%,0.000000%,0.000000%);stroke: none;"></path>
  <path d="M291.490463 509.974045C291.490463 508.913132,291.068954 507.895798,290.318832 507.145676C289.568710 506.395554,288.551376 505.974045,287.490463 505.974045C286.429550 505.974045,285.412216 506.395554,284.662094 507.145676C283.911972 507.895798,283.490463 508.913132,283.490463 509.974045C283.490463 511.034958,283.911972 512.052292,284.662094 512.802414C285.412216 513.552536,286.429550 513.974045,287.490463 513.974045C288.551376 513.974045,289.568710 513.552536,290.318832 512.802414C291.068954 512.052292,291.490463 511.034958,291.490463 509.974045Z" style="stroke:rgb(39.999390%,39.999390%,39.999390%); stroke-width: 0.500000;stroke-linecap: round;stroke-linejoin: round;stroke-miterlimit: 10.000000;fill: none;"></path>
  <path d="M291.490463 509.974045C291.490463 508.913132,291.068954 507.895798,290.318832 507.145676C289.568710 506.395554,288.551376 505.974045,287.490463 505.974045C286.429550 505.974045,285.412216 506.395554,284.662094 507.145676C283.911972 507.895798,283.490463 508.913132,283.490463 509.974045C283.490463 511.034958,283.911972 512.052292,284.662094 512.802414C285.412216 513.552536,286.429550 513.974045,287.490463 513.974045C288.551376 513.974045,289.568710 513.552536,290.318832 512.802414C291.068954 512.052292,291.490463 511.034958,291.490463 509.974045Z" style="fill: rgb(9.800720%,9.800720%,44.000244%);stroke: none;"></path>
  <path d="M429.196762 509.965393L500.054245 387.238617" style="stroke:rgb(60.000610%,60.000610%,60.000610%); stroke-width: 1.800003;stroke-linecap: round;stroke-dasharray: 3.000000 3.000000 ;stroke-linejoin: round;stroke-miterlimit: 10.000000;fill: none;"></path>
  <path d="M358.339279 387.238617L500.054245 387.238617" style="stroke:rgb(60.000610%,60.000610%,60.000610%); stroke-width: 1.800003;stroke-linecap: round;stroke-dasharray: 3.000000 3.000000 ;stroke-linejoin: round;stroke-miterlimit: 10.000000;fill: none;"></path>
  <path d="M433.196762 509.965393C433.196762 508.904480,432.775253 507.887146,432.025131 507.137024C431.275009 506.386902,430.257675 505.965393,429.196762 505.965393C428.135849 505.965393,427.118515 506.386902,426.368393 507.137024C425.618271 507.887146,425.196762 508.904480,425.196762 509.965393C425.196762 511.026306,425.618271 512.043640,426.368393 512.793762C427.118515 513.543884,428.135849 513.965393,429.196762 513.965393C430.257675 513.965393,431.275009 513.543884,432.025131 512.793762C432.775253 512.043640,433.196762 511.026306,433.196762 509.965393Z" style="stroke:rgb(39.999390%,39.999390%,39.999390%); stroke-width: 0.500000;stroke-linecap: round;stroke-linejoin: round;stroke-miterlimit: 10.000000;fill: none;"></path>
  <path d="M433.196762 509.965393C433.196762 508.904480,432.775253 507.887146,432.025131 507.137024C431.275009 506.386902,430.257675 505.965393,429.196762 505.965393C428.135849 505.965393,427.118515 506.386902,426.368393 507.137024C425.618271 507.887146,425.196762 508.904480,425.196762 509.965393C425.196762 511.026306,425.618271 512.043640,426.368393 512.793762C427.118515 513.543884,428.135849 513.965393,429.196762 513.965393C430.257675 513.965393,431.275009 513.543884,432.025131 512.793762C432.775253 512.043640,433.196762 511.026306,433.196762 509.965393Z" style="fill: rgb(89.999390%,0.000000%,0.000000%);stroke: none;"></path>
  <path d="M362.339279 387.238617C362.339279 386.177704,361.917770 385.160370,361.167648 384.410248C360.417526 383.660126,359.400192 383.238617,358.339279 383.238617C357.278366 383.238617,356.261032 383.660126,355.510910 384.410248C354.760788 385.160370,354.339279 386.177704,354.339279 387.238617C354.339279 388.299530,354.760788 389.316864,355.510910 390.066986C356.261032 390.817108,357.278366 391.238617,358.339279 391.238617C359.400192 391.238617,360.417526 390.817108,361.167648 390.066986C361.917770 389.316864,362.339279 388.299530,362.339279 387.238617Z" style="stroke:rgb(39.999390%,39.999390%,39.999390%); stroke-width: 0.500000;stroke-linecap: round;stroke-linejoin: round;stroke-miterlimit: 10.000000;fill: none;"></path>
  <path d="M362.339279 387.238617C362.339279 386.177704,361.917770 385.160370,361.167648 384.410248C360.417526 383.660126,359.400192 383.238617,358.339279 383.238617C357.278366 383.238617,356.261032 383.660126,355.510910 384.410248C354.760788 385.160370,354.339279 386.177704,354.339279 387.238617C354.339279 388.299530,354.760788 389.316864,355.510910 390.066986C356.261032 390.817108,357.278366 391.238617,358.339279 391.238617C359.400192 391.238617,360.417526 390.817108,361.167648 390.066986C361.917770 389.316864,362.339279 388.299530,362.339279 387.238617Z" style="fill: rgb(89.999390%,0.000000%,0.000000%);stroke: none;"></path>
  <path d="M504.054245 387.238617C504.054245 386.177704,503.632736 385.160370,502.882614 384.410248C502.132492 383.660126,501.115158 383.238617,500.054245 383.238617C498.993332 383.238617,497.975998 383.660126,497.225876 384.410248C496.475754 385.160370,496.054245 386.177704,496.054245 387.238617C496.054245 388.299530,496.475754 389.316864,497.225876 390.066986C497.975998 390.817108,498.993332 391.238617,500.054245 391.238617C501.115158 391.238617,502.132492 390.817108,502.882614 390.066986C503.632736 389.316864,504.054245 388.299530,504.054245 387.238617Z" style="stroke:rgb(39.999390%,39.999390%,39.999390%); stroke-width: 0.500000;stroke-linecap: round;stroke-linejoin: round;stroke-miterlimit: 10.000000;fill: none;"></path>
  <path d="M504.054245 387.238617C504.054245 386.177704,503.632736 385.160370,502.882614 384.410248C502.132492 383.660126,501.115158 383.238617,500.054245 383.238617C498.993332 383.238617,497.975998 383.660126,497.225876 384.410248C496.475754 385.160370,496.054245 386.177704,496.054245 387.238617C496.054245 388.299530,496.475754 389.316864,497.225876 390.066986C497.975998 390.817108,498.993332 391.238617,500.054245 391.238617C501.115158 391.238617,502.132492 390.817108,502.882614 390.066986C503.632736 389.316864,504.054245 388.299530,504.054245 387.238617Z" style="fill: rgb(0.000000%,50.000000%,0.000000%);stroke: none;"></path>
  <path d="M145.758209 264.537796L287.473160 264.520493" style="stroke:rgb(60.000610%,60.000610%,60.000610%); stroke-width: 1.800003;stroke-linecap: round;stroke-dasharray: 3.000000 3.000000 ;stroke-linejoin: round;stroke-miterlimit: 10.000000;fill: none;"></path>
  <path d="M358.339279 387.238617L287.473160 264.520493" style="stroke:rgb(60.000610%,60.000610%,60.000610%); stroke-width: 1.800003;stroke-linecap: round;stroke-dasharray: 3.000000 3.000000 ;stroke-linejoin: round;stroke-miterlimit: 10.000000;fill: none;"></path>
  <path d="M149.758209 264.537796C149.758209 263.476883,149.336700 262.459549,148.586578 261.709427C147.836456 260.959305,146.819122 260.537796,145.758209 260.537796C144.697296 260.537796,143.679962 260.959305,142.929840 261.709427C142.179718 262.459549,141.758209 263.476883,141.758209 264.537796C141.758209 265.598709,142.179718 266.616043,142.929840 267.366165C143.679962 268.116287,144.697296 268.537796,145.758209 268.537796C146.819122 268.537796,147.836456 268.116287,148.586578 267.366165C149.336700 266.616043,149.758209 265.598709,149.758209 264.537796Z" style="stroke:rgb(39.999390%,39.999390%,39.999390%); stroke-width: 0.500000;stroke-linecap: round;stroke-linejoin: round;stroke-miterlimit: 10.000000;fill: none;"></path>
  <path d="M149.758209 264.537796C149.758209 263.476883,149.336700 262.459549,148.586578 261.709427C147.836456 260.959305,146.819122 260.537796,145.758209 260.537796C144.697296 260.537796,143.679962 260.959305,142.929840 261.709427C142.179718 262.459549,141.758209 263.476883,141.758209 264.537796C141.758209 265.598709,142.179718 266.616043,142.929840 267.366165C143.679962 268.116287,144.697296 268.537796,145.758209 268.537796C146.819122 268.537796,147.836456 268.116287,148.586578 267.366165C149.336700 266.616043,149.758209 265.598709,149.758209 264.537796Z" style="fill: rgb(89.999390%,0.000000%,0.000000%);stroke: none;"></path>
  <path d="M362.339279 387.238617C362.339279 386.177704,361.917770 385.160370,361.167648 384.410248C360.417526 383.660126,359.400192 383.238617,358.339279 383.238617C357.278366 383.238617,356.261032 383.660126,355.510910 384.410248C354.760788 385.160370,354.339279 386.177704,354.339279 387.238617C354.339279 388.299530,354.760788 389.316864,355.510910 390.066986C356.261032 390.817108,357.278366 391.238617,358.339279 391.238617C359.400192 391.238617,360.417526 390.817108,361.167648 390.066986C361.917770 389.316864,362.339279 388.299530,362.339279 387.238617Z" style="stroke:rgb(39.999390%,39.999390%,39.999390%); stroke-width: 0.500000;stroke-linecap: round;stroke-linejoin: round;stroke-miterlimit: 10.000000;fill: none;"></path>
  <path d="M362.339279 387.238617C362.339279 386.177704,361.917770 385.160370,361.167648 384.410248C360.417526 383.660126,359.400192 383.238617,358.339279 383.238617C357.278366 383.238617,356.261032 383.660126,355.510910 384.410248C354.760788 385.160370,354.339279 386.177704,354.339279 387.238617C354.339279 388.299530,354.760788 389.316864,355.510910 390.066986C356.261032 390.817108,357.278366 391.238617,358.339279 391.238617C359.400192 391.238617,360.417526 390.817108,361.167648 390.066986C361.917770 389.316864,362.339279 388.299530,362.339279 387.238617Z" style="fill: rgb(89.999390%,0.000000%,0.000000%);stroke: none;"></path>
  <path d="M291.473160 264.520493C291.473160 263.459579,291.051651 262.442245,290.301529 261.692123C289.551407 260.942001,288.534073 260.520493,287.473160 260.520493C286.412247 260.520493,285.394913 260.942001,284.644791 261.692123C283.894669 262.442245,283.473160 263.459579,283.473160 264.520493C283.473160 265.581406,283.894669 266.598740,284.644791 267.348862C285.394913 268.098984,286.412247 268.520493,287.473160 268.520493C288.534073 268.520493,289.551407 268.098984,290.301529 267.348862C291.051651 266.598740,291.473160 265.581406,291.473160 264.520493Z" style="stroke:rgb(39.999390%,39.999390%,39.999390%); stroke-width: 0.500000;stroke-linecap: round;stroke-linejoin: round;stroke-miterlimit: 10.000000;fill: none;"></path>
  <path d="M291.473160 264.520493C291.473160 263.459579,291.051651 262.442245,290.301529 261.692123C289.551407 260.942001,288.534073 260.520493,287.473160 260.520493C286.412247 260.520493,285.394913 260.942001,284.644791 261.692123C283.894669 262.442245,283.473160 263.459579,283.473160 264.520493C283.473160 265.581406,283.894669 266.598740,284.644791 267.348862C285.394913 268.098984,286.412247 268.520493,287.473160 268.520493C288.534073 268.520493,289.551407 268.098984,290.301529 267.348862C291.051651 266.598740,291.473160 265.581406,291.473160 264.520493Z" style="fill: rgb(9.800720%,9.800720%,44.000244%);stroke: none;"></path>
  <path d="M145.758209 264.537796L216.624329 387.255920" style="stroke:rgb(60.000610%,60.000610%,60.000610%); stroke-width: 1.800003;stroke-linecap: round;stroke-dasharray: 3.000000 3.000000 ;stroke-linejoin: round;stroke-miterlimit: 10.000000;fill: none;"></path>
  <path d="M358.339279 387.238617L216.624329 387.255920" style="stroke:rgb(60.000610%,60.000610%,60.000610%); stroke-width: 1.800003;stroke-linecap: round;stroke-dasharray: 3.000000 3.000000 ;stroke-linejoin: round;stroke-miterlimit: 10.000000;fill: none;"></path>
  <path d="M149.758209 264.537796C149.758209 263.476883,149.336700 262.459549,148.586578 261.709427C147.836456 260.959305,146.819122 260.537796,145.758209 260.537796C144.697296 260.537796,143.679962 260.959305,142.929840 261.709427C142.179718 262.459549,141.758209 263.476883,141.758209 264.537796C141.758209 265.598709,142.179718 266.616043,142.929840 267.366165C143.679962 268.116287,144.697296 268.537796,145.758209 268.537796C146.819122 268.537796,147.836456 268.116287,148.586578 267.366165C149.336700 266.616043,149.758209 265.598709,149.758209 264.537796Z" style="stroke:rgb(39.999390%,39.999390%,39.999390%); stroke-width: 0.500000;stroke-linecap: round;stroke-linejoin: round;stroke-miterlimit: 10.000000;fill: none;"></path>
  <path d="M149.758209 264.537796C149.758209 263.476883,149.336700 262.459549,148.586578 261.709427C147.836456 260.959305,146.819122 260.537796,145.758209 260.537796C144.697296 260.537796,143.679962 260.959305,142.929840 261.709427C142.179718 262.459549,141.758209 263.476883,141.758209 264.537796C141.758209 265.598709,142.179718 266.616043,142.929840 267.366165C143.679962 268.116287,144.697296 268.537796,145.758209 268.537796C146.819122 268.537796,147.836456 268.116287,148.586578 267.366165C149.336700 266.616043,149.758209 265.598709,149.758209 264.537796Z" style="fill: rgb(89.999390%,0.000000%,0.000000%);stroke: none;"></path>
  <path d="M362.339279 387.238617C362.339279 386.177704,361.917770 385.160370,361.167648 384.410248C360.417526 383.660126,359.400192 383.238617,358.339279 383.238617C357.278366 383.238617,356.261032 383.660126,355.510910 384.410248C354.760788 385.160370,354.339279 386.177704,354.339279 387.238617C354.339279 388.299530,354.760788 389.316864,355.510910 390.066986C356.261032 390.817108,357.278366 391.238617,358.339279 391.238617C359.400192 391.238617,360.417526 390.817108,361.167648 390.066986C361.917770 389.316864,362.339279 388.299530,362.339279 387.238617Z" style="stroke:rgb(39.999390%,39.999390%,39.999390%); stroke-width: 0.500000;stroke-linecap: round;stroke-linejoin: round;stroke-miterlimit: 10.000000;fill: none;"></path>
  <path d="M362.339279 387.238617C362.339279 386.177704,361.917770 385.160370,361.167648 384.410248C360.417526 383.660126,359.400192 383.238617,358.339279 383.238617C357.278366 383.238617,356.261032 383.660126,355.510910 384.410248C354.760788 385.160370,354.339279 386.177704,354.339279 387.238617C354.339279 388.299530,354.760788 389.316864,355.510910 390.066986C356.261032 390.817108,357.278366 391.238617,358.339279 391.238617C359.400192 391.238617,360.417526 390.817108,361.167648 390.066986C361.917770 389.316864,362.339279 388.299530,362.339279 387.238617Z" style="fill: rgb(89.999390%,0.000000%,0.000000%);stroke: none;"></path>
  <path d="M220.624329 387.255920C220.624329 386.195007,220.202820 385.177673,219.452698 384.427551C218.702576 383.677429,217.685242 383.255920,216.624329 383.255920C215.563416 383.255920,214.546082 383.677429,213.795959 384.427551C213.045837 385.177673,212.624329 386.195007,212.624329 387.255920C212.624329 388.316833,213.045837 389.334167,213.795959 390.084290C214.546082 390.834412,215.563416 391.255920,216.624329 391.255920C217.685242 391.255920,218.702576 390.834412,219.452698 390.084290C220.202820 389.334167,220.624329 388.316833,220.624329 387.255920Z" style="stroke:rgb(39.999390%,39.999390%,39.999390%); stroke-width: 0.500000;stroke-linecap: round;stroke-linejoin: round;stroke-miterlimit: 10.000000;fill: none;"></path>
  <path d="M220.624329 387.255920C220.624329 386.195007,220.202820 385.177673,219.452698 384.427551C218.702576 383.677429,217.685242 383.255920,216.624329 383.255920C215.563416 383.255920,214.546082 383.677429,213.795959 384.427551C213.045837 385.177673,212.624329 386.195007,212.624329 387.255920C212.624329 388.316833,213.045837 389.334167,213.795959 390.084290C214.546082 390.834412,215.563416 391.255920,216.624329 391.255920C217.685242 391.255920,218.702576 390.834412,219.452698 390.084290C220.202820 389.334167,220.624329 388.316833,220.624329 387.255920Z" style="fill: rgb(9.800720%,9.800720%,44.000244%);stroke: none;"></path>
  <path d="M145.758209 264.537796L216.581085 141.793716" style="stroke:rgb(60.000610%,60.000610%,60.000610%); stroke-width: 1.800003;stroke-linecap: round;stroke-dasharray: 3.000000 3.000000 ;stroke-linejoin: round;stroke-miterlimit: 10.000000;fill: none;"></path>
  <path d="M358.296036 141.776428L216.581085 141.793716" style="stroke:rgb(60.000610%,60.000610%,60.000610%); stroke-width: 1.800003;stroke-linecap: round;stroke-dasharray: 3.000000 3.000000 ;stroke-linejoin: round;stroke-miterlimit: 10.000000;fill: none;"></path>
  <path d="M149.758209 264.537796C149.758209 263.476883,149.336700 262.459549,148.586578 261.709427C147.836456 260.959305,146.819122 260.537796,145.758209 260.537796C144.697296 260.537796,143.679962 260.959305,142.929840 261.709427C142.179718 262.459549,141.758209 263.476883,141.758209 264.537796C141.758209 265.598709,142.179718 266.616043,142.929840 267.366165C143.679962 268.116287,144.697296 268.537796,145.758209 268.537796C146.819122 268.537796,147.836456 268.116287,148.586578 267.366165C149.336700 266.616043,149.758209 265.598709,149.758209 264.537796Z" style="stroke:rgb(39.999390%,39.999390%,39.999390%); stroke-width: 0.500000;stroke-linecap: round;stroke-linejoin: round;stroke-miterlimit: 10.000000;fill: none;"></path>
  <path d="M149.758209 264.537796C149.758209 263.476883,149.336700 262.459549,148.586578 261.709427C147.836456 260.959305,146.819122 260.537796,145.758209 260.537796C144.697296 260.537796,143.679962 260.959305,142.929840 261.709427C142.179718 262.459549,141.758209 263.476883,141.758209 264.537796C141.758209 265.598709,142.179718 266.616043,142.929840 267.366165C143.679962 268.116287,144.697296 268.537796,145.758209 268.537796C146.819122 268.537796,147.836456 268.116287,148.586578 267.366165C149.336700 266.616043,149.758209 265.598709,149.758209 264.537796Z" style="fill: rgb(89.999390%,0.000000%,0.000000%);stroke: none;"></path>
  <path d="M362.296036 141.776428C362.296036 140.715515,361.874527 139.698181,361.124405 138.948059C360.374283 138.197937,359.356949 137.776428,358.296036 137.776428C357.235123 137.776428,356.217789 138.197937,355.467667 138.948059C354.717545 139.698181,354.296036 140.715515,354.296036 141.776428C354.296036 142.837341,354.717545 143.854675,355.467667 144.604797C356.217789 145.354919,357.235123 145.776428,358.296036 145.776428C359.356949 145.776428,360.374283 145.354919,361.124405 144.604797C361.874527 143.854675,362.296036 142.837341,362.296036 141.776428Z" style="stroke:rgb(39.999390%,39.999390%,39.999390%); stroke-width: 0.500000;stroke-linecap: round;stroke-linejoin: round;stroke-miterlimit: 10.000000;fill: none;"></path>
  <path d="M362.296036 141.776428C362.296036 140.715515,361.874527 139.698181,361.124405 138.948059C360.374283 138.197937,359.356949 137.776428,358.296036 137.776428C357.235123 137.776428,356.217789 138.197937,355.467667 138.948059C354.717545 139.698181,354.296036 140.715515,354.296036 141.776428C354.296036 142.837341,354.717545 143.854675,355.467667 144.604797C356.217789 145.354919,357.235123 145.776428,358.296036 145.776428C359.356949 145.776428,360.374283 145.354919,361.124405 144.604797C361.874527 143.854675,362.296036 142.837341,362.296036 141.776428Z" style="fill: rgb(89.999390%,0.000000%,0.000000%);stroke: none;"></path>
  <path d="M220.581085 141.793716C220.581085 140.732803,220.159576 139.715469,219.409454 138.965347C218.659332 138.215225,217.641998 137.793716,216.581085 137.793716C215.520172 137.793716,214.502838 138.215225,213.752716 138.965347C213.002594 139.715469,212.581085 140.732803,212.581085 141.793716C212.581085 142.854630,213.002594 143.871964,213.752716 144.622086C214.502838 145.372208,215.520172 145.793716,216.581085 145.793716C217.641998 145.793716,218.659332 145.372208,219.409454 144.622086C220.159576 143.871964,220.581085 142.854630,220.581085 141.793716Z" style="stroke:rgb(39.999390%,39.999390%,39.999390%); stroke-width: 0.500000;stroke-linecap: round;stroke-linejoin: round;stroke-miterlimit: 10.000000;fill: none;"></path>
  <path d="M220.581085 141.793716C220.581085 140.732803,220.159576 139.715469,219.409454 138.965347C218.659332 138.215225,217.641998 137.793716,216.581085 137.793716C215.520172 137.793716,214.502838 138.215225,213.752716 138.965347C213.002594 139.715469,212.581085 140.732803,212.581085 141.793716C212.581085 142.854630,213.002594 143.871964,213.752716 144.622086C214.502838 145.372208,215.520172 145.793716,216.581085 145.793716C217.641998 145.793716,218.659332 145.372208,219.409454 144.622086C220.159576 143.871964,220.581085 142.854630,220.581085 141.793716Z" style="fill: rgb(0.000000%,50.000000%,0.000000%);stroke: none;"></path>
  <path d="M145.758209 264.537796L287.473160 264.520493" style="stroke:rgb(60.000610%,60.000610%,60.000610%); stroke-width: 1.800003;stroke-linecap: round;stroke-dasharray: 3.000000 3.000000 ;stroke-linejoin: round;stroke-miterlimit: 10.000000;fill: none;"></path>
  <path d="M358.296036 141.776428L287.473160 264.520493" style="stroke:rgb(60.000610%,60.000610%,60.000610%); stroke-width: 1.800003;stroke-linecap: round;stroke-dasharray: 3.000000 3.000000 ;stroke-linejoin: round;stroke-miterlimit: 10.000000;fill: none;"></path>
  <path d="M149.758209 264.537796C149.758209 263.476883,149.336700 262.459549,148.586578 261.709427C147.836456 260.959305,146.819122 260.537796,145.758209 260.537796C144.697296 260.537796,143.679962 260.959305,142.929840 261.709427C142.179718 262.459549,141.758209 263.476883,141.758209 264.537796C141.758209 265.598709,142.179718 266.616043,142.929840 267.366165C143.679962 268.116287,144.697296 268.537796,145.758209 268.537796C146.819122 268.537796,147.836456 268.116287,148.586578 267.366165C149.336700 266.616043,149.758209 265.598709,149.758209 264.537796Z" style="stroke:rgb(39.999390%,39.999390%,39.999390%); stroke-width: 0.500000;stroke-linecap: round;stroke-linejoin: round;stroke-miterlimit: 10.000000;fill: none;"></path>
  <path d="M149.758209 264.537796C149.758209 263.476883,149.336700 262.459549,148.586578 261.709427C147.836456 260.959305,146.819122 260.537796,145.758209 260.537796C144.697296 260.537796,143.679962 260.959305,142.929840 261.709427C142.179718 262.459549,141.758209 263.476883,141.758209 264.537796C141.758209 265.598709,142.179718 266.616043,142.929840 267.366165C143.679962 268.116287,144.697296 268.537796,145.758209 268.537796C146.819122 268.537796,147.836456 268.116287,148.586578 267.366165C149.336700 266.616043,149.758209 265.598709,149.758209 264.537796Z" style="fill: rgb(89.999390%,0.000000%,0.000000%);stroke: none;"></path>
  <path d="M362.296036 141.776428C362.296036 140.715515,361.874527 139.698181,361.124405 138.948059C360.374283 138.197937,359.356949 137.776428,358.296036 137.776428C357.235123 137.776428,356.217789 138.197937,355.467667 138.948059C354.717545 139.698181,354.296036 140.715515,354.296036 141.776428C354.296036 142.837341,354.717545 143.854675,355.467667 144.604797C356.217789 145.354919,357.235123 145.776428,358.296036 145.776428C359.356949 145.776428,360.374283 145.354919,361.124405 144.604797C361.874527 143.854675,362.296036 142.837341,362.296036 141.776428Z" style="stroke:rgb(39.999390%,39.999390%,39.999390%); stroke-width: 0.500000;stroke-linecap: round;stroke-linejoin: round;stroke-miterlimit: 10.000000;fill: none;"></path>
  <path d="M362.296036 141.776428C362.296036 140.715515,361.874527 139.698181,361.124405 138.948059C360.374283 138.197937,359.356949 137.776428,358.296036 137.776428C357.235123 137.776428,356.217789 138.197937,355.467667 138.948059C354.717545 139.698181,354.296036 140.715515,354.296036 141.776428C354.296036 142.837341,354.717545 143.854675,355.467667 144.604797C356.217789 145.354919,357.235123 145.776428,358.296036 145.776428C359.356949 145.776428,360.374283 145.354919,361.124405 144.604797C361.874527 143.854675,362.296036 142.837341,362.296036 141.776428Z" style="fill: rgb(89.999390%,0.000000%,0.000000%);stroke: none;"></path>
  <path d="M291.473160 264.520493C291.473160 263.459579,291.051651 262.442245,290.301529 261.692123C289.551407 260.942001,288.534073 260.520493,287.473160 260.520493C286.412247 260.520493,285.394913 260.942001,284.644791 261.692123C283.894669 262.442245,283.473160 263.459579,283.473160 264.520493C283.473160 265.581406,283.894669 266.598740,284.644791 267.348862C285.394913 268.098984,286.412247 268.520493,287.473160 268.520493C288.534073 268.520493,289.551407 268.098984,290.301529 267.348862C291.051651 266.598740,291.473160 265.581406,291.473160 264.520493Z" style="stroke:rgb(39.999390%,39.999390%,39.999390%); stroke-width: 0.500000;stroke-linecap: round;stroke-linejoin: round;stroke-miterlimit: 10.000000;fill: none;"></path>
  <path d="M291.473160 264.520493C291.473160 263.459579,291.051651 262.442245,290.301529 261.692123C289.551407 260.942001,288.534073 260.520493,287.473160 260.520493C286.412247 260.520493,285.394913 260.942001,284.644791 261.692123C283.894669 262.442245,283.473160 263.459579,283.473160 264.520493C283.473160 265.581406,283.894669 266.598740,284.644791 267.348862C285.394913 268.098984,286.412247 268.520493,287.473160 268.520493C288.534073 268.520493,289.551407 268.098984,290.301529 267.348862C291.051651 266.598740,291.473160 265.581406,291.473160 264.520493Z" style="fill: rgb(9.800720%,9.800720%,44.000244%);stroke: none;"></path>
  <path d="M358.339279 387.238617L287.473160 264.520493" style="stroke:rgb(60.000610%,60.000610%,60.000610%); stroke-width: 1.800003;stroke-linecap: round;stroke-dasharray: 3.000000 3.000000 ;stroke-linejoin: round;stroke-miterlimit: 10.000000;fill: none;"></path>
  <path d="M358.296036 141.776428L287.473160 264.520493" style="stroke:rgb(60.000610%,60.000610%,60.000610%); stroke-width: 1.800003;stroke-linecap: round;stroke-dasharray: 3.000000 3.000000 ;stroke-linejoin: round;stroke-miterlimit: 10.000000;fill: none;"></path>
  <path d="M362.339279 387.238617C362.339279 386.177704,361.917770 385.160370,361.167648 384.410248C360.417526 383.660126,359.400192 383.238617,358.339279 383.238617C357.278366 383.238617,356.261032 383.660126,355.510910 384.410248C354.760788 385.160370,354.339279 386.177704,354.339279 387.238617C354.339279 388.299530,354.760788 389.316864,355.510910 390.066986C356.261032 390.817108,357.278366 391.238617,358.339279 391.238617C359.400192 391.238617,360.417526 390.817108,361.167648 390.066986C361.917770 389.316864,362.339279 388.299530,362.339279 387.238617Z" style="stroke:rgb(39.999390%,39.999390%,39.999390%); stroke-width: 0.500000;stroke-linecap: round;stroke-linejoin: round;stroke-miterlimit: 10.000000;fill: none;"></path>
  <path d="M362.339279 387.238617C362.339279 386.177704,361.917770 385.160370,361.167648 384.410248C360.417526 383.660126,359.400192 383.238617,358.339279 383.238617C357.278366 383.238617,356.261032 383.660126,355.510910 384.410248C354.760788 385.160370,354.339279 386.177704,354.339279 387.238617C354.339279 388.299530,354.760788 389.316864,355.510910 390.066986C356.261032 390.817108,357.278366 391.238617,358.339279 391.238617C359.400192 391.238617,360.417526 390.817108,361.167648 390.066986C361.917770 389.316864,362.339279 388.299530,362.339279 387.238617Z" style="fill: rgb(89.999390%,0.000000%,0.000000%);stroke: none;"></path>
  <path d="M362.296036 141.776428C362.296036 140.715515,361.874527 139.698181,361.124405 138.948059C360.374283 138.197937,359.356949 137.776428,358.296036 137.776428C357.235123 137.776428,356.217789 138.197937,355.467667 138.948059C354.717545 139.698181,354.296036 140.715515,354.296036 141.776428C354.296036 142.837341,354.717545 143.854675,355.467667 144.604797C356.217789 145.354919,357.235123 145.776428,358.296036 145.776428C359.356949 145.776428,360.374283 145.354919,361.124405 144.604797C361.874527 143.854675,362.296036 142.837341,362.296036 141.776428Z" style="stroke:rgb(39.999390%,39.999390%,39.999390%); stroke-width: 0.500000;stroke-linecap: round;stroke-linejoin: round;stroke-miterlimit: 10.000000;fill: none;"></path>
  <path d="M362.296036 141.776428C362.296036 140.715515,361.874527 139.698181,361.124405 138.948059C360.374283 138.197937,359.356949 137.776428,358.296036 137.776428C357.235123 137.776428,356.217789 138.197937,355.467667 138.948059C354.717545 139.698181,354.296036 140.715515,354.296036 141.776428C354.296036 142.837341,354.717545 143.854675,355.467667 144.604797C356.217789 145.354919,357.235123 145.776428,358.296036 145.776428C359.356949 145.776428,360.374283 145.354919,361.124405 144.604797C361.874527 143.854675,362.296036 142.837341,362.296036 141.776428Z" style="fill: rgb(89.999390%,0.000000%,0.000000%);stroke: none;"></path>
  <path d="M291.473160 264.520493C291.473160 263.459579,291.051651 262.442245,290.301529 261.692123C289.551407 260.942001,288.534073 260.520493,287.473160 260.520493C286.412247 260.520493,285.394913 260.942001,284.644791 261.692123C283.894669 262.442245,283.473160 263.459579,283.473160 264.520493C283.473160 265.581406,283.894669 266.598740,284.644791 267.348862C285.394913 268.098984,286.412247 268.520493,287.473160 268.520493C288.534073 268.520493,289.551407 268.098984,290.301529 267.348862C291.051651 266.598740,291.473160 265.581406,291.473160 264.520493Z" style="stroke:rgb(39.999390%,39.999390%,39.999390%); stroke-width: 0.500000;stroke-linecap: round;stroke-linejoin: round;stroke-miterlimit: 10.000000;fill: none;"></path>
  <path d="M291.473160 264.520493C291.473160 263.459579,291.051651 262.442245,290.301529 261.692123C289.551407 260.942001,288.534073 260.520493,287.473160 260.520493C286.412247 260.520493,285.394913 260.942001,284.644791 261.692123C283.894669 262.442245,283.473160 263.459579,283.473160 264.520493C283.473160 265.581406,283.894669 266.598740,284.644791 267.348862C285.394913 268.098984,286.412247 268.520493,287.473160 268.520493C288.534073 268.520493,289.551407 268.098984,290.301529 267.348862C291.051651 266.598740,291.473160 265.581406,291.473160 264.520493Z" style="fill: rgb(9.800720%,9.800720%,44.000244%);stroke: none;"></path>
  <path d="M358.339279 387.238617L429.162155 264.494553" style="stroke:rgb(60.000610%,60.000610%,60.000610%); stroke-width: 1.800003;stroke-linecap: round;stroke-dasharray: 3.000000 3.000000 ;stroke-linejoin: round;stroke-miterlimit: 10.000000;fill: none;"></path>
  <path d="M358.296036 141.776428L429.162155 264.494553" style="stroke:rgb(60.000610%,60.000610%,60.000610%); stroke-width: 1.800003;stroke-linecap: round;stroke-dasharray: 3.000000 3.000000 ;stroke-linejoin: round;stroke-miterlimit: 10.000000;fill: none;"></path>
  <path d="M362.339279 387.238617C362.339279 386.177704,361.917770 385.160370,361.167648 384.410248C360.417526 383.660126,359.400192 383.238617,358.339279 383.238617C357.278366 383.238617,356.261032 383.660126,355.510910 384.410248C354.760788 385.160370,354.339279 386.177704,354.339279 387.238617C354.339279 388.299530,354.760788 389.316864,355.510910 390.066986C356.261032 390.817108,357.278366 391.238617,358.339279 391.238617C359.400192 391.238617,360.417526 390.817108,361.167648 390.066986C361.917770 389.316864,362.339279 388.299530,362.339279 387.238617Z" style="stroke:rgb(39.999390%,39.999390%,39.999390%); stroke-width: 0.500000;stroke-linecap: round;stroke-linejoin: round;stroke-miterlimit: 10.000000;fill: none;"></path>
  <path d="M362.339279 387.238617C362.339279 386.177704,361.917770 385.160370,361.167648 384.410248C360.417526 383.660126,359.400192 383.238617,358.339279 383.238617C357.278366 383.238617,356.261032 383.660126,355.510910 384.410248C354.760788 385.160370,354.339279 386.177704,354.339279 387.238617C354.339279 388.299530,354.760788 389.316864,355.510910 390.066986C356.261032 390.817108,357.278366 391.238617,358.339279 391.238617C359.400192 391.238617,360.417526 390.817108,361.167648 390.066986C361.917770 389.316864,362.339279 388.299530,362.339279 387.238617Z" style="fill: rgb(89.999390%,0.000000%,0.000000%);stroke: none;"></path>
  <path d="M362.296036 141.776428C362.296036 140.715515,361.874527 139.698181,361.124405 138.948059C360.374283 138.197937,359.356949 137.776428,358.296036 137.776428C357.235123 137.776428,356.217789 138.197937,355.467667 138.948059C354.717545 139.698181,354.296036 140.715515,354.296036 141.776428C354.296036 142.837341,354.717545 143.854675,355.467667 144.604797C356.217789 145.354919,357.235123 145.776428,358.296036 145.776428C359.356949 145.776428,360.374283 145.354919,361.124405 144.604797C361.874527 143.854675,362.296036 142.837341,362.296036 141.776428Z" style="stroke:rgb(39.999390%,39.999390%,39.999390%); stroke-width: 0.500000;stroke-linecap: round;stroke-linejoin: round;stroke-miterlimit: 10.000000;fill: none;"></path>
  <path d="M362.296036 141.776428C362.296036 140.715515,361.874527 139.698181,361.124405 138.948059C360.374283 138.197937,359.356949 137.776428,358.296036 137.776428C357.235123 137.776428,356.217789 138.197937,355.467667 138.948059C354.717545 139.698181,354.296036 140.715515,354.296036 141.776428C354.296036 142.837341,354.717545 143.854675,355.467667 144.604797C356.217789 145.354919,357.235123 145.776428,358.296036 145.776428C359.356949 145.776428,360.374283 145.354919,361.124405 144.604797C361.874527 143.854675,362.296036 142.837341,362.296036 141.776428Z" style="fill: rgb(89.999390%,0.000000%,0.000000%);stroke: none;"></path>
  <path d="M433.162155 264.494553C433.162155 263.433640,432.740646 262.416306,431.990524 261.666183C431.240402 260.916061,430.223068 260.494553,429.162155 260.494553C428.101242 260.494553,427.083908 260.916061,426.333786 261.666183C425.583664 262.416306,425.162155 263.433640,425.162155 264.494553C425.162155 265.555466,425.583664 266.572800,426.333786 267.322922C427.083908 268.073044,428.101242 268.494553,429.162155 268.494553C430.223068 268.494553,431.240402 268.073044,431.990524 267.322922C432.740646 266.572800,433.162155 265.555466,433.162155 264.494553Z" style="stroke:rgb(39.999390%,39.999390%,39.999390%); stroke-width: 0.500000;stroke-linecap: round;stroke-linejoin: round;stroke-miterlimit: 10.000000;fill: none;"></path>
  <path d="M433.162155 264.494553C433.162155 263.433640,432.740646 262.416306,431.990524 261.666183C431.240402 260.916061,430.223068 260.494553,429.162155 260.494553C428.101242 260.494553,427.083908 260.916061,426.333786 261.666183C425.583664 262.416306,425.162155 263.433640,425.162155 264.494553C425.162155 265.555466,425.583664 266.572800,426.333786 267.322922C427.083908 268.073044,428.101242 268.494553,429.162155 268.494553C430.223068 268.494553,431.240402 268.073044,431.990524 267.322922C432.740646 266.572800,433.162155 265.555466,433.162155 264.494553Z" style="fill: rgb(0.000000%,50.000000%,0.000000%);stroke: none;"></path>
  <path d="M358.296036 141.776428L287.464508 19.023697" style="stroke:rgb(60.000610%,60.000610%,60.000610%); stroke-width: 1.800003;stroke-linecap: round;stroke-dasharray: 3.000000 3.000000 ;stroke-linejoin: round;stroke-miterlimit: 10.000000;fill: none;"></path>
  <path d="M362.296036 141.776428C362.296036 140.715515,361.874527 139.698181,361.124405 138.948059C360.374283 138.197937,359.356949 137.776428,358.296036 137.776428C357.235123 137.776428,356.217789 138.197937,355.467667 138.948059C354.717545 139.698181,354.296036 140.715515,354.296036 141.776428C354.296036 142.837341,354.717545 143.854675,355.467667 144.604797C356.217789 145.354919,357.235123 145.776428,358.296036 145.776428C359.356949 145.776428,360.374283 145.354919,361.124405 144.604797C361.874527 143.854675,362.296036 142.837341,362.296036 141.776428Z" style="stroke:rgb(39.999390%,39.999390%,39.999390%); stroke-width: 0.500000;stroke-linecap: round;stroke-linejoin: round;stroke-miterlimit: 10.000000;fill: none;"></path>
  <path d="M362.296036 141.776428C362.296036 140.715515,361.874527 139.698181,361.124405 138.948059C360.374283 138.197937,359.356949 137.776428,358.296036 137.776428C357.235123 137.776428,356.217789 138.197937,355.467667 138.948059C354.717545 139.698181,354.296036 140.715515,354.296036 141.776428C354.296036 142.837341,354.717545 143.854675,355.467667 144.604797C356.217789 145.354919,357.235123 145.776428,358.296036 145.776428C359.356949 145.776428,360.374283 145.354919,361.124405 144.604797C361.874527 143.854675,362.296036 142.837341,362.296036 141.776428Z" style="fill: rgb(89.999390%,0.000000%,0.000000%);stroke: none;"></path>
  <path d="M291.464508 19.023697C291.464508 17.962784,291.042999 16.945450,290.292877 16.195328C289.542755 15.445206,288.525421 15.023697,287.464508 15.023697C286.403595 15.023697,285.386261 15.445206,284.636139 16.195328C283.886017 16.945450,283.464508 17.962784,283.464508 19.023697C283.464508 20.084610,283.886017 21.101944,284.636139 21.852066C285.386261 22.602188,286.403595 23.023697,287.464508 23.023697C288.525421 23.023697,289.542755 22.602188,290.292877 21.852066C291.042999 21.101944,291.464508 20.084610,291.464508 19.023697Z" style="stroke:rgb(39.999390%,39.999390%,39.999390%); stroke-width: 0.500000;stroke-linecap: round;stroke-linejoin: round;stroke-miterlimit: 10.000000;fill: none;"></path>
  <path d="M291.464508 19.023697C291.464508 17.962784,291.042999 16.945450,290.292877 16.195328C289.542755 15.445206,288.525421 15.023697,287.464508 15.023697C286.403595 15.023697,285.386261 15.445206,284.636139 16.195328C283.886017 16.945450,283.464508 17.962784,283.464508 19.023697C283.464508 20.084610,283.886017 21.101944,284.636139 21.852066C285.386261 22.602188,286.403595 23.023697,287.464508 23.023697C288.525421 23.023697,289.542755 22.602188,290.292877 21.852066C291.042999 21.101944,291.464508 20.084610,291.464508 19.023697Z" style="fill: rgb(100.000000%,100.000000%,0.000000%);stroke: none;"></path>
</svg>
