<?xml version="1.0"?>
<!-- Created by MetaPost 2.00 on 2022.03.31:1000 -->
<svg version="1.1" xmlns="http://www.w3.org/2000/svg" xmlns:xlink="http://www.w3.org/1999/xlink" width="597.116302" height="550.260010" viewBox="0 0 597.116302 550.260010">
<!-- Original BoundingBox: -15.093643 -55.033707 582.022659 495.226303 -->
  <path d="M15.000000 495.000000L581.929016 495.000000L298.464508 4.023697L15.000000 495.000000Z" style="fill: rgb(100.000000%,100.000000%,100.000000%);stroke: none;"></path>
  <path d="M15.000000 495.000000L581.929016 495.000000" style="stroke:rgb(0.000000%,0.000000%,0.000000%); stroke-width: 1.000000;stroke-linecap: round;stroke-linejoin: round;stroke-miterlimit: 10.000000;fill: none;"></path>
  <path d="M581.929016 495.000000L298.464508 4.023697" style="stroke:rgb(0.000000%,0.000000%,0.000000%); stroke-width: 1.000000;stroke-linecap: round;stroke-linejoin: round;stroke-miterlimit: 10.000000;fill: none;"></path>
  <path d="M298.464508 4.023697L15.000000 495.000000" style="stroke:rgb(0.000000%,0.000000%,0.000000%); stroke-width: 1.000000;stroke-linecap: round;stroke-linejoin: round;stroke-miterlimit: 10.000000;fill: none;"></path>
  <path d="M596.522659 440.440353C596.522659 411.505707,585.026703 383.759613,564.568375 363.301285C544.110046 342.842957,516.363953 331.347000,487.429306 331.347000C458.494659 331.347000,430.748566 342.842957,410.290237 363.301285C389.831909 383.759613,378.335953 411.505707,378.335953 440.440353C378.335953 469.375000,389.831909 497.121094,410.290237 517.579422C430.748566 538.037750,458.494659 549.533707,487.429306 549.533707C516.363953 549.533707,544.110046 538.037750,564.568375 517.579422C585.026703 497.121094,596.522659 469.375000,596.522659 440.440353Z" style="stroke:rgb(25.500488%,41.000366%,88.400269%); stroke-width: 1.000000;stroke-linecap: round;stroke-linejoin: round;stroke-miterlimit: 10.000000;fill: none;"></path>
  <path d="M502.040268 276.795990C502.040268 247.861343,490.544312 220.115250,470.085983 199.656921C449.627655 179.198593,421.881561 167.702637,392.946915 167.702637C364.012268 167.702637,336.266174 179.198593,315.807846 199.656921C295.349518 220.115250,283.853561 247.861343,283.853561 276.795990C283.853561 305.730637,295.349518 333.476730,315.807846 353.935059C336.266174 374.393387,364.012268 385.889343,392.946915 385.889343C421.881561 385.889343,449.627655 374.393387,470.085983 353.935059C490.544312 333.476730,502.040268 305.730637,502.040268 276.795990Z" style="stroke:rgb(25.500488%,41.000366%,88.400269%); stroke-width: 1.000000;stroke-linecap: round;stroke-linejoin: round;stroke-miterlimit: 10.000000;fill: none;"></path>
  <path d="M407.557861 113.142990C407.557861 84.208344,396.061905 56.462250,375.603577 36.003922C355.145248 15.545593,327.399155 4.049637,298.464508 4.049637C269.529861 4.049637,241.783768 15.545593,221.325439 36.003922C200.867111 56.462250,189.371155 84.208344,189.371155 113.142990C189.371155 142.077637,200.867111 169.823730,221.325439 190.282059C241.783768 210.740387,269.529861 222.236343,298.464508 222.236343C327.399155 222.236343,355.145248 210.740387,375.603577 190.282059C396.061905 169.823730,407.557861 142.077637,407.557861 113.142990Z" style="stroke:rgb(25.500488%,41.000366%,88.400269%); stroke-width: 1.000000;stroke-linecap: round;stroke-linejoin: round;stroke-miterlimit: 10.000000;fill: none;"></path>
  <path d="M407.557861 440.440353C407.557861 411.505707,396.061905 383.759613,375.603577 363.301285C355.145248 342.842957,327.399155 331.347000,298.464508 331.347000C269.529861 331.347000,241.783768 342.842957,221.325439 363.301285C200.867111 383.759613,189.371155 411.505707,189.371155 440.440353C189.371155 469.375000,200.867111 497.121094,221.325439 517.579422C241.783768 538.037750,269.529861 549.533707,298.464508 549.533707C327.399155 549.533707,355.145248 538.037750,375.603577 517.579422C396.061905 497.121094,407.557861 469.375000,407.557861 440.440353Z" style="stroke:rgb(25.500488%,41.000366%,88.400269%); stroke-width: 1.000000;stroke-linecap: round;stroke-linejoin: round;stroke-miterlimit: 10.000000;fill: none;"></path>
  <path d="M313.075455 276.795990C313.075455 247.861343,301.579498 220.115250,281.121170 199.656921C260.662842 179.198593,232.916748 167.702637,203.982101 167.702637C175.047455 167.702637,147.301361 179.198593,126.843033 199.656921C106.384705 220.115250,94.888748 247.861343,94.888748 276.795990C94.888748 305.730637,106.384705 333.476730,126.843033 353.935059C147.301361 374.393387,175.047455 385.889343,203.982101 385.889343C232.916748 385.889343,260.662842 374.393387,281.121170 353.935059C301.579498 333.476730,313.075455 305.730637,313.075455 276.795990Z" style="stroke:rgb(25.500488%,41.000366%,88.400269%); stroke-width: 1.000000;stroke-linecap: round;stroke-linejoin: round;stroke-miterlimit: 10.000000;fill: none;"></path>
  <path d="M218.593063 440.440353C218.593063 411.505707,207.097107 383.759613,186.638779 363.301285C166.180450 342.842957,138.434357 331.347000,109.499710 331.347000C80.565063 331.347000,52.818970 342.842957,32.360641 363.301285C11.902313 383.759613,0.406357 411.505707,0.406357 440.440353C0.406357 469.375000,11.902313 497.121094,32.360641 517.579422C52.818970 538.037750,80.565063 549.533707,109.499710 549.533707C138.434357 549.533707,166.180450 538.037750,186.638779 517.579422C207.097107 497.121094,218.593063 469.375000,218.593063 440.440353Z" style="stroke:rgb(25.500488%,41.000366%,88.400269%); stroke-width: 1.000000;stroke-linecap: round;stroke-linejoin: round;stroke-miterlimit: 10.000000;fill: none;"></path>
  <path d="M487.429306 440.440353L581.929016 495.000000" style="stroke:rgb(60.000610%,60.000610%,60.000610%); stroke-width: 1.800003;stroke-linecap: round;stroke-dasharray: 3.000000 3.000000 ;stroke-linejoin: round;stroke-miterlimit: 10.000000;fill: none;"></path>
  <path d="M491.429306 440.440353C491.429306 439.379440,491.007797 438.362106,490.257675 437.611984C489.507553 436.861862,488.490219 436.440353,487.429306 436.440353C486.368393 436.440353,485.351059 436.861862,484.600937 437.611984C483.850815 438.362106,483.429306 439.379440,483.429306 440.440353C483.429306 441.501266,483.850815 442.518600,484.600937 443.268723C485.351059 444.018845,486.368393 444.440353,487.429306 444.440353C488.490219 444.440353,489.507553 444.018845,490.257675 443.268723C491.007797 442.518600,491.429306 441.501266,491.429306 440.440353Z" style="stroke:rgb(39.999390%,39.999390%,39.999390%); stroke-width: 0.500000;stroke-linecap: round;stroke-linejoin: round;stroke-miterlimit: 10.000000;fill: none;"></path>
  <path d="M491.429306 440.440353C491.429306 439.379440,491.007797 438.362106,490.257675 437.611984C489.507553 436.861862,488.490219 436.440353,487.429306 436.440353C486.368393 436.440353,485.351059 436.861862,484.600937 437.611984C483.850815 438.362106,483.429306 439.379440,483.429306 440.440353C483.429306 441.501266,483.850815 442.518600,484.600937 443.268723C485.351059 444.018845,486.368393 444.440353,487.429306 444.440353C488.490219 444.440353,489.507553 444.018845,490.257675 443.268723C491.007797 442.518600,491.429306 441.501266,491.429306 440.440353Z" style="fill: rgb(89.999390%,0.000000%,0.000000%);stroke: none;"></path>
  <path d="M585.929016 495.000000C585.929016 493.939087,585.507507 492.921753,584.757385 492.171631C584.007263 491.421509,582.989929 491.000000,581.929016 491.000000C580.868103 491.000000,579.850769 491.421509,579.100647 492.171631C578.350525 492.921753,577.929016 493.939087,577.929016 495.000000C577.929016 496.060913,578.350525 497.078247,579.100647 497.828369C579.850769 498.578491,580.868103 499.000000,581.929016 499.000000C582.989929 499.000000,584.007263 498.578491,584.757385 497.828369C585.507507 497.078247,585.929016 496.060913,585.929016 495.000000Z" style="stroke:rgb(39.999390%,39.999390%,39.999390%); stroke-width: 0.500000;stroke-linecap: round;stroke-linejoin: round;stroke-miterlimit: 10.000000;fill: none;"></path>
  <path d="M585.929016 495.000000C585.929016 493.939087,585.507507 492.921753,584.757385 492.171631C584.007263 491.421509,582.989929 491.000000,581.929016 491.000000C580.868103 491.000000,579.850769 491.421509,579.100647 492.171631C578.350525 492.921753,577.929016 493.939087,577.929016 495.000000C577.929016 496.060913,578.350525 497.078247,579.100647 497.828369C579.850769 498.578491,580.868103 499.000000,581.929016 499.000000C582.989929 499.000000,584.007263 498.578491,584.757385 497.828369C585.507507 497.078247,585.929016 496.060913,585.929016 495.000000Z" style="fill: rgb(100.000000%,100.000000%,0.000000%);stroke: none;"></path>
  <path d="M487.429306 440.440353L392.946915 385.889343" style="stroke:rgb(60.000610%,60.000610%,60.000610%); stroke-width: 1.800003;stroke-linecap: round;stroke-dasharray: 3.000000 3.000000 ;stroke-linejoin: round;stroke-miterlimit: 10.000000;fill: none;"></path>
  <path d="M392.946915 276.795990L392.946915 385.889343" style="stroke:rgb(60.000610%,60.000610%,60.000610%); stroke-width: 1.800003;stroke-linecap: round;stroke-dasharray: 3.000000 3.000000 ;stroke-linejoin: round;stroke-miterlimit: 10.000000;fill: none;"></path>
  <path d="M491.429306 440.440353C491.429306 439.379440,491.007797 438.362106,490.257675 437.611984C489.507553 436.861862,488.490219 436.440353,487.429306 436.440353C486.368393 436.440353,485.351059 436.861862,484.600937 437.611984C483.850815 438.362106,483.429306 439.379440,483.429306 440.440353C483.429306 441.501266,483.850815 442.518600,484.600937 443.268723C485.351059 444.018845,486.368393 444.440353,487.429306 444.440353C488.490219 444.440353,489.507553 444.018845,490.257675 443.268723C491.007797 442.518600,491.429306 441.501266,491.429306 440.440353Z" style="stroke:rgb(39.999390%,39.999390%,39.999390%); stroke-width: 0.500000;stroke-linecap: round;stroke-linejoin: round;stroke-miterlimit: 10.000000;fill: none;"></path>
  <path d="M491.429306 440.440353C491.429306 439.379440,491.007797 438.362106,490.257675 437.611984C489.507553 436.861862,488.490219 436.440353,487.429306 436.440353C486.368393 436.440353,485.351059 436.861862,484.600937 437.611984C483.850815 438.362106,483.429306 439.379440,483.429306 440.440353C483.429306 441.501266,483.850815 442.518600,484.600937 443.268723C485.351059 444.018845,486.368393 444.440353,487.429306 444.440353C488.490219 444.440353,489.507553 444.018845,490.257675 443.268723C491.007797 442.518600,491.429306 441.501266,491.429306 440.440353Z" style="fill: rgb(89.999390%,0.000000%,0.000000%);stroke: none;"></path>
  <path d="M396.946915 276.795990C396.946915 275.735077,396.525406 274.717743,395.775284 273.967621C395.025162 273.217499,394.007828 272.795990,392.946915 272.795990C391.886002 272.795990,390.868668 273.217499,390.118546 273.967621C389.368423 274.717743,388.946915 275.735077,388.946915 276.795990C388.946915 277.856903,389.368423 278.874237,390.118546 279.624359C390.868668 280.374481,391.886002 280.795990,392.946915 280.795990C394.007828 280.795990,395.025162 280.374481,395.775284 279.624359C396.525406 278.874237,396.946915 277.856903,396.946915 276.795990Z" style="stroke:rgb(39.999390%,39.999390%,39.999390%); stroke-width: 0.500000;stroke-linecap: round;stroke-linejoin: round;stroke-miterlimit: 10.000000;fill: none;"></path>
  <path d="M396.946915 276.795990C396.946915 275.735077,396.525406 274.717743,395.775284 273.967621C395.025162 273.217499,394.007828 272.795990,392.946915 272.795990C391.886002 272.795990,390.868668 273.217499,390.118546 273.967621C389.368423 274.717743,388.946915 275.735077,388.946915 276.795990C388.946915 277.856903,389.368423 278.874237,390.118546 279.624359C390.868668 280.374481,391.886002 280.795990,392.946915 280.795990C394.007828 280.795990,395.025162 280.374481,395.775284 279.624359C396.525406 278.874237,396.946915 277.856903,396.946915 276.795990Z" style="fill: rgb(89.999390%,0.000000%,0.000000%);stroke: none;"></path>
  <path d="M396.946915 385.889343C396.946915 384.828430,396.525406 383.811096,395.775284 383.060974C395.025162 382.310852,394.007828 381.889343,392.946915 381.889343C391.886002 381.889343,390.868668 382.310852,390.118546 383.060974C389.368423 383.811096,388.946915 384.828430,388.946915 385.889343C388.946915 386.950256,389.368423 387.967590,390.118546 388.717712C390.868668 389.467834,391.886002 389.889343,392.946915 389.889343C394.007828 389.889343,395.025162 389.467834,395.775284 388.717712C396.525406 387.967590,396.946915 386.950256,396.946915 385.889343Z" style="stroke:rgb(39.999390%,39.999390%,39.999390%); stroke-width: 0.500000;stroke-linecap: round;stroke-linejoin: round;stroke-miterlimit: 10.000000;fill: none;"></path>
  <path d="M396.946915 385.889343C396.946915 384.828430,396.525406 383.811096,395.775284 383.060974C395.025162 382.310852,394.007828 381.889343,392.946915 381.889343C391.886002 381.889343,390.868668 382.310852,390.118546 383.060974C389.368423 383.811096,388.946915 384.828430,388.946915 385.889343C388.946915 386.950256,389.368423 387.967590,390.118546 388.717712C390.868668 389.467834,391.886002 389.889343,392.946915 389.889343C394.007828 389.889343,395.025162 389.467834,395.775284 388.717712C396.525406 387.967590,396.946915 386.950256,396.946915 385.889343Z" style="fill: rgb(9.800720%,9.800720%,44.000244%);stroke: none;"></path>
  <path d="M487.429306 440.440353L487.420654 331.347000" style="stroke:rgb(60.000610%,60.000610%,60.000610%); stroke-width: 1.800003;stroke-linecap: round;stroke-dasharray: 3.000000 3.000000 ;stroke-linejoin: round;stroke-miterlimit: 10.000000;fill: none;"></path>
  <path d="M392.946915 276.795990L487.420654 331.347000" style="stroke:rgb(60.000610%,60.000610%,60.000610%); stroke-width: 1.800003;stroke-linecap: round;stroke-dasharray: 3.000000 3.000000 ;stroke-linejoin: round;stroke-miterlimit: 10.000000;fill: none;"></path>
  <path d="M491.429306 440.440353C491.429306 439.379440,491.007797 438.362106,490.257675 437.611984C489.507553 436.861862,488.490219 436.440353,487.429306 436.440353C486.368393 436.440353,485.351059 436.861862,484.600937 437.611984C483.850815 438.362106,483.429306 439.379440,483.429306 440.440353C483.429306 441.501266,483.850815 442.518600,484.600937 443.268723C485.351059 444.018845,486.368393 444.440353,487.429306 444.440353C488.490219 444.440353,489.507553 444.018845,490.257675 443.268723C491.007797 442.518600,491.429306 441.501266,491.429306 440.440353Z" style="stroke:rgb(39.999390%,39.999390%,39.999390%); stroke-width: 0.500000;stroke-linecap: round;stroke-linejoin: round;stroke-miterlimit: 10.000000;fill: none;"></path>
  <path d="M491.429306 440.440353C491.429306 439.379440,491.007797 438.362106,490.257675 437.611984C489.507553 436.861862,488.490219 436.440353,487.429306 436.440353C486.368393 436.440353,485.351059 436.861862,484.600937 437.611984C483.850815 438.362106,483.429306 439.379440,483.429306 440.440353C483.429306 441.501266,483.850815 442.518600,484.600937 443.268723C485.351059 444.018845,486.368393 444.440353,487.429306 444.440353C488.490219 444.440353,489.507553 444.018845,490.257675 443.268723C491.007797 442.518600,491.429306 441.501266,491.429306 440.440353Z" style="fill: rgb(89.999390%,0.000000%,0.000000%);stroke: none;"></path>
  <path d="M396.946915 276.795990C396.946915 275.735077,396.525406 274.717743,395.775284 273.967621C395.025162 273.217499,394.007828 272.795990,392.946915 272.795990C391.886002 272.795990,390.868668 273.217499,390.118546 273.967621C389.368423 274.717743,388.946915 275.735077,388.946915 276.795990C388.946915 277.856903,389.368423 278.874237,390.118546 279.624359C390.868668 280.374481,391.886002 280.795990,392.946915 280.795990C394.007828 280.795990,395.025162 280.374481,395.775284 279.624359C396.525406 278.874237,396.946915 277.856903,396.946915 276.795990Z" style="stroke:rgb(39.999390%,39.999390%,39.999390%); stroke-width: 0.500000;stroke-linecap: round;stroke-linejoin: round;stroke-miterlimit: 10.000000;fill: none;"></path>
  <path d="M396.946915 276.795990C396.946915 275.735077,396.525406 274.717743,395.775284 273.967621C395.025162 273.217499,394.007828 272.795990,392.946915 272.795990C391.886002 272.795990,390.868668 273.217499,390.118546 273.967621C389.368423 274.717743,388.946915 275.735077,388.946915 276.795990C388.946915 277.856903,389.368423 278.874237,390.118546 279.624359C390.868668 280.374481,391.886002 280.795990,392.946915 280.795990C394.007828 280.795990,395.025162 280.374481,395.775284 279.624359C396.525406 278.874237,396.946915 277.856903,396.946915 276.795990Z" style="fill: rgb(89.999390%,0.000000%,0.000000%);stroke: none;"></path>
  <path d="M491.420654 331.347000C491.420654 330.286087,490.999146 329.268753,490.249023 328.518631C489.498901 327.768509,488.481567 327.347000,487.420654 327.347000C486.359741 327.347000,485.342407 327.768509,484.592285 328.518631C483.842163 329.268753,483.420654 330.286087,483.420654 331.347000C483.420654 332.407913,483.842163 333.425247,484.592285 334.175369C485.342407 334.925491,486.359741 335.347000,487.420654 335.347000C488.481567 335.347000,489.498901 334.925491,490.249023 334.175369C490.999146 333.425247,491.420654 332.407913,491.420654 331.347000Z" style="stroke:rgb(39.999390%,39.999390%,39.999390%); stroke-width: 0.500000;stroke-linecap: round;stroke-linejoin: round;stroke-miterlimit: 10.000000;fill: none;"></path>
  <path d="M491.420654 331.347000C491.420654 330.286087,490.999146 329.268753,490.249023 328.518631C489.498901 327.768509,488.481567 327.347000,487.420654 327.347000C486.359741 327.347000,485.342407 327.768509,484.592285 328.518631C483.842163 329.268753,483.420654 330.286087,483.420654 331.347000C483.420654 332.407913,483.842163 333.425247,484.592285 334.175369C485.342407 334.925491,486.359741 335.347000,487.420654 335.347000C488.481567 335.347000,489.498901 334.925491,490.249023 334.175369C490.999146 333.425247,491.420654 332.407913,491.420654 331.347000Z" style="fill: rgb(0.000000%,50.000000%,0.000000%);stroke: none;"></path>
  <path d="M487.429306 440.440353L392.946915 494.982697" style="stroke:rgb(60.000610%,60.000610%,60.000610%); stroke-width: 1.800003;stroke-linecap: round;stroke-dasharray: 3.000000 3.000000 ;stroke-linejoin: round;stroke-miterlimit: 10.000000;fill: none;"></path>
  <path d="M298.464508 440.440353L392.946915 494.982697" style="stroke:rgb(60.000610%,60.000610%,60.000610%); stroke-width: 1.800003;stroke-linecap: round;stroke-dasharray: 3.000000 3.000000 ;stroke-linejoin: round;stroke-miterlimit: 10.000000;fill: none;"></path>
  <path d="M491.429306 440.440353C491.429306 439.379440,491.007797 438.362106,490.257675 437.611984C489.507553 436.861862,488.490219 436.440353,487.429306 436.440353C486.368393 436.440353,485.351059 436.861862,484.600937 437.611984C483.850815 438.362106,483.429306 439.379440,483.429306 440.440353C483.429306 441.501266,483.850815 442.518600,484.600937 443.268723C485.351059 444.018845,486.368393 444.440353,487.429306 444.440353C488.490219 444.440353,489.507553 444.018845,490.257675 443.268723C491.007797 442.518600,491.429306 441.501266,491.429306 440.440353Z" style="stroke:rgb(39.999390%,39.999390%,39.999390%); stroke-width: 0.500000;stroke-linecap: round;stroke-linejoin: round;stroke-miterlimit: 10.000000;fill: none;"></path>
  <path d="M491.429306 440.440353C491.429306 439.379440,491.007797 438.362106,490.257675 437.611984C489.507553 436.861862,488.490219 436.440353,487.429306 436.440353C486.368393 436.440353,485.351059 436.861862,484.600937 437.611984C483.850815 438.362106,483.429306 439.379440,483.429306 440.440353C483.429306 441.501266,483.850815 442.518600,484.600937 443.268723C485.351059 444.018845,486.368393 444.440353,487.429306 444.440353C488.490219 444.440353,489.507553 444.018845,490.257675 443.268723C491.007797 442.518600,491.429306 441.501266,491.429306 440.440353Z" style="fill: rgb(89.999390%,0.000000%,0.000000%);stroke: none;"></path>
  <path d="M302.464508 440.440353C302.464508 439.379440,302.042999 438.362106,301.292877 437.611984C300.542755 436.861862,299.525421 436.440353,298.464508 436.440353C297.403595 436.440353,296.386261 436.861862,295.636139 437.611984C294.886017 438.362106,294.464508 439.379440,294.464508 440.440353C294.464508 441.501266,294.886017 442.518600,295.636139 443.268723C296.386261 444.018845,297.403595 444.440353,298.464508 444.440353C299.525421 444.440353,300.542755 444.018845,301.292877 443.268723C302.042999 442.518600,302.464508 441.501266,302.464508 440.440353Z" style="stroke:rgb(39.999390%,39.999390%,39.999390%); stroke-width: 0.500000;stroke-linecap: round;stroke-linejoin: round;stroke-miterlimit: 10.000000;fill: none;"></path>
  <path d="M302.464508 440.440353C302.464508 439.379440,302.042999 438.362106,301.292877 437.611984C300.542755 436.861862,299.525421 436.440353,298.464508 436.440353C297.403595 436.440353,296.386261 436.861862,295.636139 437.611984C294.886017 438.362106,294.464508 439.379440,294.464508 440.440353C294.464508 441.501266,294.886017 442.518600,295.636139 443.268723C296.386261 444.018845,297.403595 444.440353,298.464508 444.440353C299.525421 444.440353,300.542755 444.018845,301.292877 443.268723C302.042999 442.518600,302.464508 441.501266,302.464508 440.440353Z" style="fill: rgb(89.999390%,0.000000%,0.000000%);stroke: none;"></path>
  <path d="M396.946915 494.982697C396.946915 493.921783,396.525406 492.904449,395.775284 492.154327C395.025162 491.404205,394.007828 490.982697,392.946915 490.982697C391.886002 490.982697,390.868668 491.404205,390.118546 492.154327C389.368423 492.904449,388.946915 493.921783,388.946915 494.982697C388.946915 496.043610,389.368423 497.060944,390.118546 497.811066C390.868668 498.561188,391.886002 498.982697,392.946915 498.982697C394.007828 498.982697,395.025162 498.561188,395.775284 497.811066C396.525406 497.060944,396.946915 496.043610,396.946915 494.982697Z" style="stroke:rgb(39.999390%,39.999390%,39.999390%); stroke-width: 0.500000;stroke-linecap: round;stroke-linejoin: round;stroke-miterlimit: 10.000000;fill: none;"></path>
  <path d="M396.946915 494.982697C396.946915 493.921783,396.525406 492.904449,395.775284 492.154327C395.025162 491.404205,394.007828 490.982697,392.946915 490.982697C391.886002 490.982697,390.868668 491.404205,390.118546 492.154327C389.368423 492.904449,388.946915 493.921783,388.946915 494.982697C388.946915 496.043610,389.368423 497.060944,390.118546 497.811066C390.868668 498.561188,391.886002 498.982697,392.946915 498.982697C394.007828 498.982697,395.025162 498.561188,395.775284 497.811066C396.525406 497.060944,396.946915 496.043610,396.946915 494.982697Z" style="fill: rgb(0.000000%,50.000000%,0.000000%);stroke: none;"></path>
  <path d="M487.429306 440.440353L392.946915 385.897995" style="stroke:rgb(60.000610%,60.000610%,60.000610%); stroke-width: 1.800003;stroke-linecap: round;stroke-dasharray: 3.000000 3.000000 ;stroke-linejoin: round;stroke-miterlimit: 10.000000;fill: none;"></path>
  <path d="M298.464508 440.440353L392.946915 385.897995" style="stroke:rgb(60.000610%,60.000610%,60.000610%); stroke-width: 1.800003;stroke-linecap: round;stroke-dasharray: 3.000000 3.000000 ;stroke-linejoin: round;stroke-miterlimit: 10.000000;fill: none;"></path>
  <path d="M491.429306 440.440353C491.429306 439.379440,491.007797 438.362106,490.257675 437.611984C489.507553 436.861862,488.490219 436.440353,487.429306 436.440353C486.368393 436.440353,485.351059 436.861862,484.600937 437.611984C483.850815 438.362106,483.429306 439.379440,483.429306 440.440353C483.429306 441.501266,483.850815 442.518600,484.600937 443.268723C485.351059 444.018845,486.368393 444.440353,487.429306 444.440353C488.490219 444.440353,489.507553 444.018845,490.257675 443.268723C491.007797 442.518600,491.429306 441.501266,491.429306 440.440353Z" style="stroke:rgb(39.999390%,39.999390%,39.999390%); stroke-width: 0.500000;stroke-linecap: round;stroke-linejoin: round;stroke-miterlimit: 10.000000;fill: none;"></path>
  <path d="M491.429306 440.440353C491.429306 439.379440,491.007797 438.362106,490.257675 437.611984C489.507553 436.861862,488.490219 436.440353,487.429306 436.440353C486.368393 436.440353,485.351059 436.861862,484.600937 437.611984C483.850815 438.362106,483.429306 439.379440,483.429306 440.440353C483.429306 441.501266,483.850815 442.518600,484.600937 443.268723C485.351059 444.018845,486.368393 444.440353,487.429306 444.440353C488.490219 444.440353,489.507553 444.018845,490.257675 443.268723C491.007797 442.518600,491.429306 441.501266,491.429306 440.440353Z" style="fill: rgb(89.999390%,0.000000%,0.000000%);stroke: none;"></path>
  <path d="M302.464508 440.440353C302.464508 439.379440,302.042999 438.362106,301.292877 437.611984C300.542755 436.861862,299.525421 436.440353,298.464508 436.440353C297.403595 436.440353,296.386261 436.861862,295.636139 437.611984C294.886017 438.362106,294.464508 439.379440,294.464508 440.440353C294.464508 441.501266,294.886017 442.518600,295.636139 443.268723C296.386261 444.018845,297.403595 444.440353,298.464508 444.440353C299.525421 444.440353,300.542755 444.018845,301.292877 443.268723C302.042999 442.518600,302.464508 441.501266,302.464508 440.440353Z" style="stroke:rgb(39.999390%,39.999390%,39.999390%); stroke-width: 0.500000;stroke-linecap: round;stroke-linejoin: round;stroke-miterlimit: 10.000000;fill: none;"></path>
  <path d="M302.464508 440.440353C302.464508 439.379440,302.042999 438.362106,301.292877 437.611984C300.542755 436.861862,299.525421 436.440353,298.464508 436.440353C297.403595 436.440353,296.386261 436.861862,295.636139 437.611984C294.886017 438.362106,294.464508 439.379440,294.464508 440.440353C294.464508 441.501266,294.886017 442.518600,295.636139 443.268723C296.386261 444.018845,297.403595 444.440353,298.464508 444.440353C299.525421 444.440353,300.542755 444.018845,301.292877 443.268723C302.042999 442.518600,302.464508 441.501266,302.464508 440.440353Z" style="fill: rgb(89.999390%,0.000000%,0.000000%);stroke: none;"></path>
  <path d="M396.946915 385.897995C396.946915 384.837082,396.525406 383.819748,395.775284 383.069626C395.025162 382.319504,394.007828 381.897995,392.946915 381.897995C391.886002 381.897995,390.868668 382.319504,390.118546 383.069626C389.368423 383.819748,388.946915 384.837082,388.946915 385.897995C388.946915 386.958908,389.368423 387.976242,390.118546 388.726364C390.868668 389.476486,391.886002 389.897995,392.946915 389.897995C394.007828 389.897995,395.025162 389.476486,395.775284 388.726364C396.525406 387.976242,396.946915 386.958908,396.946915 385.897995Z" style="stroke:rgb(39.999390%,39.999390%,39.999390%); stroke-width: 0.500000;stroke-linecap: round;stroke-linejoin: round;stroke-miterlimit: 10.000000;fill: none;"></path>
  <path d="M396.946915 385.897995C396.946915 384.837082,396.525406 383.819748,395.775284 383.069626C395.025162 382.319504,394.007828 381.897995,392.946915 381.897995C391.886002 381.897995,390.868668 382.319504,390.118546 383.069626C389.368423 383.819748,388.946915 384.837082,388.946915 385.897995C388.946915 386.958908,389.368423 387.976242,390.118546 388.726364C390.868668 389.476486,391.886002 389.897995,392.946915 389.897995C394.007828 389.897995,395.025162 389.476486,395.775284 388.726364C396.525406 387.976242,396.946915 386.958908,396.946915 385.897995Z" style="fill: rgb(9.800720%,9.800720%,44.000244%);stroke: none;"></path>
  <path d="M392.946915 276.795990L298.473160 222.236343" style="stroke:rgb(60.000610%,60.000610%,60.000610%); stroke-width: 1.800003;stroke-linecap: round;stroke-dasharray: 3.000000 3.000000 ;stroke-linejoin: round;stroke-miterlimit: 10.000000;fill: none;"></path>
  <path d="M298.464508 113.142990L298.473160 222.236343" style="stroke:rgb(60.000610%,60.000610%,60.000610%); stroke-width: 1.800003;stroke-linecap: round;stroke-dasharray: 3.000000 3.000000 ;stroke-linejoin: round;stroke-miterlimit: 10.000000;fill: none;"></path>
  <path d="M396.946915 276.795990C396.946915 275.735077,396.525406 274.717743,395.775284 273.967621C395.025162 273.217499,394.007828 272.795990,392.946915 272.795990C391.886002 272.795990,390.868668 273.217499,390.118546 273.967621C389.368423 274.717743,388.946915 275.735077,388.946915 276.795990C388.946915 277.856903,389.368423 278.874237,390.118546 279.624359C390.868668 280.374481,391.886002 280.795990,392.946915 280.795990C394.007828 280.795990,395.025162 280.374481,395.775284 279.624359C396.525406 278.874237,396.946915 277.856903,396.946915 276.795990Z" style="stroke:rgb(39.999390%,39.999390%,39.999390%); stroke-width: 0.500000;stroke-linecap: round;stroke-linejoin: round;stroke-miterlimit: 10.000000;fill: none;"></path>
  <path d="M396.946915 276.795990C396.946915 275.735077,396.525406 274.717743,395.775284 273.967621C395.025162 273.217499,394.007828 272.795990,392.946915 272.795990C391.886002 272.795990,390.868668 273.217499,390.118546 273.967621C389.368423 274.717743,388.946915 275.735077,388.946915 276.795990C388.946915 277.856903,389.368423 278.874237,390.118546 279.624359C390.868668 280.374481,391.886002 280.795990,392.946915 280.795990C394.007828 280.795990,395.025162 280.374481,395.775284 279.624359C396.525406 278.874237,396.946915 277.856903,396.946915 276.795990Z" style="fill: rgb(89.999390%,0.000000%,0.000000%);stroke: none;"></path>
  <path d="M302.464508 113.142990C302.464508 112.082077,302.042999 111.064743,301.292877 110.314621C300.542755 109.564499,299.525421 109.142990,298.464508 109.142990C297.403595 109.142990,296.386261 109.564499,295.636139 110.314621C294.886017 111.064743,294.464508 112.082077,294.464508 113.142990C294.464508 114.203903,294.886017 115.221237,295.636139 115.971359C296.386261 116.721481,297.403595 117.142990,298.464508 117.142990C299.525421 117.142990,300.542755 116.721481,301.292877 115.971359C302.042999 115.221237,302.464508 114.203903,302.464508 113.142990Z" style="stroke:rgb(39.999390%,39.999390%,39.999390%); stroke-width: 0.500000;stroke-linecap: round;stroke-linejoin: round;stroke-miterlimit: 10.000000;fill: none;"></path>
  <path d="M302.464508 113.142990C302.464508 112.082077,302.042999 111.064743,301.292877 110.314621C300.542755 109.564499,299.525421 109.142990,298.464508 109.142990C297.403595 109.142990,296.386261 109.564499,295.636139 110.314621C294.886017 111.064743,294.464508 112.082077,294.464508 113.142990C294.464508 114.203903,294.886017 115.221237,295.636139 115.971359C296.386261 116.721481,297.403595 117.142990,298.464508 117.142990C299.525421 117.142990,300.542755 116.721481,301.292877 115.971359C302.042999 115.221237,302.464508 114.203903,302.464508 113.142990Z" style="fill: rgb(89.999390%,0.000000%,0.000000%);stroke: none;"></path>
  <path d="M302.473160 222.236343C302.473160 221.175430,302.051651 220.158096,301.301529 219.407974C300.551407 218.657852,299.534073 218.236343,298.473160 218.236343C297.412247 218.236343,296.394913 218.657852,295.644791 219.407974C294.894669 220.158096,294.473160 221.175430,294.473160 222.236343C294.473160 223.297256,294.894669 224.314590,295.644791 225.064713C296.394913 225.814835,297.412247 226.236343,298.473160 226.236343C299.534073 226.236343,300.551407 225.814835,301.301529 225.064713C302.051651 224.314590,302.473160 223.297256,302.473160 222.236343Z" style="stroke:rgb(39.999390%,39.999390%,39.999390%); stroke-width: 0.500000;stroke-linecap: round;stroke-linejoin: round;stroke-miterlimit: 10.000000;fill: none;"></path>
  <path d="M302.473160 222.236343C302.473160 221.175430,302.051651 220.158096,301.301529 219.407974C300.551407 218.657852,299.534073 218.236343,298.473160 218.236343C297.412247 218.236343,296.394913 218.657852,295.644791 219.407974C294.894669 220.158096,294.473160 221.175430,294.473160 222.236343C294.473160 223.297256,294.894669 224.314590,295.644791 225.064713C296.394913 225.814835,297.412247 226.236343,298.473160 226.236343C299.534073 226.236343,300.551407 225.814835,301.301529 225.064713C302.051651 224.314590,302.473160 223.297256,302.473160 222.236343Z" style="fill: rgb(9.800720%,9.800720%,44.000244%);stroke: none;"></path>
  <path d="M392.946915 276.795990L392.938263 167.694000" style="stroke:rgb(60.000610%,60.000610%,60.000610%); stroke-width: 1.800003;stroke-linecap: round;stroke-dasharray: 3.000000 3.000000 ;stroke-linejoin: round;stroke-miterlimit: 10.000000;fill: none;"></path>
  <path d="M298.464508 113.142990L392.938263 167.694000" style="stroke:rgb(60.000610%,60.000610%,60.000610%); stroke-width: 1.800003;stroke-linecap: round;stroke-dasharray: 3.000000 3.000000 ;stroke-linejoin: round;stroke-miterlimit: 10.000000;fill: none;"></path>
  <path d="M396.946915 276.795990C396.946915 275.735077,396.525406 274.717743,395.775284 273.967621C395.025162 273.217499,394.007828 272.795990,392.946915 272.795990C391.886002 272.795990,390.868668 273.217499,390.118546 273.967621C389.368423 274.717743,388.946915 275.735077,388.946915 276.795990C388.946915 277.856903,389.368423 278.874237,390.118546 279.624359C390.868668 280.374481,391.886002 280.795990,392.946915 280.795990C394.007828 280.795990,395.025162 280.374481,395.775284 279.624359C396.525406 278.874237,396.946915 277.856903,396.946915 276.795990Z" style="stroke:rgb(39.999390%,39.999390%,39.999390%); stroke-width: 0.500000;stroke-linecap: round;stroke-linejoin: round;stroke-miterlimit: 10.000000;fill: none;"></path>
  <path d="M396.946915 276.795990C396.946915 275.735077,396.525406 274.717743,395.775284 273.967621C395.025162 273.217499,394.007828 272.795990,392.946915 272.795990C391.886002 272.795990,390.868668 273.217499,390.118546 273.967621C389.368423 274.717743,388.946915 275.735077,388.946915 276.795990C388.946915 277.856903,389.368423 278.874237,390.118546 279.624359C390.868668 280.374481,391.886002 280.795990,392.946915 280.795990C394.007828 280.795990,395.025162 280.374481,395.775284 279.624359C396.525406 278.874237,396.946915 277.856903,396.946915 276.795990Z" style="fill: rgb(89.999390%,0.000000%,0.000000%);stroke: none;"></path>
  <path d="M302.464508 113.142990C302.464508 112.082077,302.042999 111.064743,301.292877 110.314621C300.542755 109.564499,299.525421 109.142990,298.464508 109.142990C297.403595 109.142990,296.386261 109.564499,295.636139 110.314621C294.886017 111.064743,294.464508 112.082077,294.464508 113.142990C294.464508 114.203903,294.886017 115.221237,295.636139 115.971359C296.386261 116.721481,297.403595 117.142990,298.464508 117.142990C299.525421 117.142990,300.542755 116.721481,301.292877 115.971359C302.042999 115.221237,302.464508 114.203903,302.464508 113.142990Z" style="stroke:rgb(39.999390%,39.999390%,39.999390%); stroke-width: 0.500000;stroke-linecap: round;stroke-linejoin: round;stroke-miterlimit: 10.000000;fill: none;"></path>
  <path d="M302.464508 113.142990C302.464508 112.082077,302.042999 111.064743,301.292877 110.314621C300.542755 109.564499,299.525421 109.142990,298.464508 109.142990C297.403595 109.142990,296.386261 109.564499,295.636139 110.314621C294.886017 111.064743,294.464508 112.082077,294.464508 113.142990C294.464508 114.203903,294.886017 115.221237,295.636139 115.971359C296.386261 116.721481,297.403595 117.142990,298.464508 117.142990C299.525421 117.142990,300.542755 116.721481,301.292877 115.971359C302.042999 115.221237,302.464508 114.203903,302.464508 113.142990Z" style="fill: rgb(89.999390%,0.000000%,0.000000%);stroke: none;"></path>
  <path d="M396.938263 167.694000C396.938263 166.633087,396.516754 165.615753,395.766632 164.865631C395.016510 164.115509,393.999176 163.694000,392.938263 163.694000C391.877350 163.694000,390.860016 164.115509,390.109894 164.865631C389.359772 165.615753,388.938263 166.633087,388.938263 167.694000C388.938263 168.754913,389.359772 169.772247,390.109894 170.522369C390.860016 171.272491,391.877350 171.694000,392.938263 171.694000C393.999176 171.694000,395.016510 171.272491,395.766632 170.522369C396.516754 169.772247,396.938263 168.754913,396.938263 167.694000Z" style="stroke:rgb(39.999390%,39.999390%,39.999390%); stroke-width: 0.500000;stroke-linecap: round;stroke-linejoin: round;stroke-miterlimit: 10.000000;fill: none;"></path>
  <path d="M396.938263 167.694000C396.938263 166.633087,396.516754 165.615753,395.766632 164.865631C395.016510 164.115509,393.999176 163.694000,392.938263 163.694000C391.877350 163.694000,390.860016 164.115509,390.109894 164.865631C389.359772 165.615753,388.938263 166.633087,388.938263 167.694000C388.938263 168.754913,389.359772 169.772247,390.109894 170.522369C390.860016 171.272491,391.877350 171.694000,392.938263 171.694000C393.999176 171.694000,395.016510 171.272491,395.766632 170.522369C396.516754 169.772247,396.938263 168.754913,396.938263 167.694000Z" style="fill: rgb(0.000000%,50.000000%,0.000000%);stroke: none;"></path>
  <path d="M392.946915 276.795990L392.938263 385.889343" style="stroke:rgb(60.000610%,60.000610%,60.000610%); stroke-width: 1.800003;stroke-linecap: round;stroke-dasharray: 3.000000 3.000000 ;stroke-linejoin: round;stroke-miterlimit: 10.000000;fill: none;"></path>
  <path d="M298.464508 440.440353L392.938263 385.889343" style="stroke:rgb(60.000610%,60.000610%,60.000610%); stroke-width: 1.800003;stroke-linecap: round;stroke-dasharray: 3.000000 3.000000 ;stroke-linejoin: round;stroke-miterlimit: 10.000000;fill: none;"></path>
  <path d="M396.946915 276.795990C396.946915 275.735077,396.525406 274.717743,395.775284 273.967621C395.025162 273.217499,394.007828 272.795990,392.946915 272.795990C391.886002 272.795990,390.868668 273.217499,390.118546 273.967621C389.368423 274.717743,388.946915 275.735077,388.946915 276.795990C388.946915 277.856903,389.368423 278.874237,390.118546 279.624359C390.868668 280.374481,391.886002 280.795990,392.946915 280.795990C394.007828 280.795990,395.025162 280.374481,395.775284 279.624359C396.525406 278.874237,396.946915 277.856903,396.946915 276.795990Z" style="stroke:rgb(39.999390%,39.999390%,39.999390%); stroke-width: 0.500000;stroke-linecap: round;stroke-linejoin: round;stroke-miterlimit: 10.000000;fill: none;"></path>
  <path d="M396.946915 276.795990C396.946915 275.735077,396.525406 274.717743,395.775284 273.967621C395.025162 273.217499,394.007828 272.795990,392.946915 272.795990C391.886002 272.795990,390.868668 273.217499,390.118546 273.967621C389.368423 274.717743,388.946915 275.735077,388.946915 276.795990C388.946915 277.856903,389.368423 278.874237,390.118546 279.624359C390.868668 280.374481,391.886002 280.795990,392.946915 280.795990C394.007828 280.795990,395.025162 280.374481,395.775284 279.624359C396.525406 278.874237,396.946915 277.856903,396.946915 276.795990Z" style="fill: rgb(89.999390%,0.000000%,0.000000%);stroke: none;"></path>
  <path d="M302.464508 440.440353C302.464508 439.379440,302.042999 438.362106,301.292877 437.611984C300.542755 436.861862,299.525421 436.440353,298.464508 436.440353C297.403595 436.440353,296.386261 436.861862,295.636139 437.611984C294.886017 438.362106,294.464508 439.379440,294.464508 440.440353C294.464508 441.501266,294.886017 442.518600,295.636139 443.268723C296.386261 444.018845,297.403595 444.440353,298.464508 444.440353C299.525421 444.440353,300.542755 444.018845,301.292877 443.268723C302.042999 442.518600,302.464508 441.501266,302.464508 440.440353Z" style="stroke:rgb(39.999390%,39.999390%,39.999390%); stroke-width: 0.500000;stroke-linecap: round;stroke-linejoin: round;stroke-miterlimit: 10.000000;fill: none;"></path>
  <path d="M302.464508 440.440353C302.464508 439.379440,302.042999 438.362106,301.292877 437.611984C300.542755 436.861862,299.525421 436.440353,298.464508 436.440353C297.403595 436.440353,296.386261 436.861862,295.636139 437.611984C294.886017 438.362106,294.464508 439.379440,294.464508 440.440353C294.464508 441.501266,294.886017 442.518600,295.636139 443.268723C296.386261 444.018845,297.403595 444.440353,298.464508 444.440353C299.525421 444.440353,300.542755 444.018845,301.292877 443.268723C302.042999 442.518600,302.464508 441.501266,302.464508 440.440353Z" style="fill: rgb(89.999390%,0.000000%,0.000000%);stroke: none;"></path>
  <path d="M396.938263 385.889343C396.938263 384.828430,396.516754 383.811096,395.766632 383.060974C395.016510 382.310852,393.999176 381.889343,392.938263 381.889343C391.877350 381.889343,390.860016 382.310852,390.109894 383.060974C389.359772 383.811096,388.938263 384.828430,388.938263 385.889343C388.938263 386.950256,389.359772 387.967590,390.109894 388.717712C390.860016 389.467834,391.877350 389.889343,392.938263 389.889343C393.999176 389.889343,395.016510 389.467834,395.766632 388.717712C396.516754 387.967590,396.938263 386.950256,396.938263 385.889343Z" style="stroke:rgb(39.999390%,39.999390%,39.999390%); stroke-width: 0.500000;stroke-linecap: round;stroke-linejoin: round;stroke-miterlimit: 10.000000;fill: none;"></path>
  <path d="M396.938263 385.889343C396.938263 384.828430,396.516754 383.811096,395.766632 383.060974C395.016510 382.310852,393.999176 381.889343,392.938263 381.889343C391.877350 381.889343,390.860016 382.310852,390.109894 383.060974C389.359772 383.811096,388.938263 384.828430,388.938263 385.889343C388.938263 386.950256,389.359772 387.967590,390.109894 388.717712C390.860016 389.467834,391.877350 389.889343,392.938263 389.889343C393.999176 389.889343,395.016510 389.467834,395.766632 388.717712C396.516754 387.967590,396.938263 386.950256,396.938263 385.889343Z" style="fill: rgb(9.800720%,9.800720%,44.000244%);stroke: none;"></path>
  <path d="M392.946915 276.795990L298.473160 331.347000" style="stroke:rgb(60.000610%,60.000610%,60.000610%); stroke-width: 1.800003;stroke-linecap: round;stroke-dasharray: 3.000000 3.000000 ;stroke-linejoin: round;stroke-miterlimit: 10.000000;fill: none;"></path>
  <path d="M298.464508 440.440353L298.473160 331.347000" style="stroke:rgb(60.000610%,60.000610%,60.000610%); stroke-width: 1.800003;stroke-linecap: round;stroke-dasharray: 3.000000 3.000000 ;stroke-linejoin: round;stroke-miterlimit: 10.000000;fill: none;"></path>
  <path d="M396.946915 276.795990C396.946915 275.735077,396.525406 274.717743,395.775284 273.967621C395.025162 273.217499,394.007828 272.795990,392.946915 272.795990C391.886002 272.795990,390.868668 273.217499,390.118546 273.967621C389.368423 274.717743,388.946915 275.735077,388.946915 276.795990C388.946915 277.856903,389.368423 278.874237,390.118546 279.624359C390.868668 280.374481,391.886002 280.795990,392.946915 280.795990C394.007828 280.795990,395.025162 280.374481,395.775284 279.624359C396.525406 278.874237,396.946915 277.856903,396.946915 276.795990Z" style="stroke:rgb(39.999390%,39.999390%,39.999390%); stroke-width: 0.500000;stroke-linecap: round;stroke-linejoin: round;stroke-miterlimit: 10.000000;fill: none;"></path>
  <path d="M396.946915 276.795990C396.946915 275.735077,396.525406 274.717743,395.775284 273.967621C395.025162 273.217499,394.007828 272.795990,392.946915 272.795990C391.886002 272.795990,390.868668 273.217499,390.118546 273.967621C389.368423 274.717743,388.946915 275.735077,388.946915 276.795990C388.946915 277.856903,389.368423 278.874237,390.118546 279.624359C390.868668 280.374481,391.886002 280.795990,392.946915 280.795990C394.007828 280.795990,395.025162 280.374481,395.775284 279.624359C396.525406 278.874237,396.946915 277.856903,396.946915 276.795990Z" style="fill: rgb(89.999390%,0.000000%,0.000000%);stroke: none;"></path>
  <path d="M302.464508 440.440353C302.464508 439.379440,302.042999 438.362106,301.292877 437.611984C300.542755 436.861862,299.525421 436.440353,298.464508 436.440353C297.403595 436.440353,296.386261 436.861862,295.636139 437.611984C294.886017 438.362106,294.464508 439.379440,294.464508 440.440353C294.464508 441.501266,294.886017 442.518600,295.636139 443.268723C296.386261 444.018845,297.403595 444.440353,298.464508 444.440353C299.525421 444.440353,300.542755 444.018845,301.292877 443.268723C302.042999 442.518600,302.464508 441.501266,302.464508 440.440353Z" style="stroke:rgb(39.999390%,39.999390%,39.999390%); stroke-width: 0.500000;stroke-linecap: round;stroke-linejoin: round;stroke-miterlimit: 10.000000;fill: none;"></path>
  <path d="M302.464508 440.440353C302.464508 439.379440,302.042999 438.362106,301.292877 437.611984C300.542755 436.861862,299.525421 436.440353,298.464508 436.440353C297.403595 436.440353,296.386261 436.861862,295.636139 437.611984C294.886017 438.362106,294.464508 439.379440,294.464508 440.440353C294.464508 441.501266,294.886017 442.518600,295.636139 443.268723C296.386261 444.018845,297.403595 444.440353,298.464508 444.440353C299.525421 444.440353,300.542755 444.018845,301.292877 443.268723C302.042999 442.518600,302.464508 441.501266,302.464508 440.440353Z" style="fill: rgb(89.999390%,0.000000%,0.000000%);stroke: none;"></path>
  <path d="M302.473160 331.347000C302.473160 330.286087,302.051651 329.268753,301.301529 328.518631C300.551407 327.768509,299.534073 327.347000,298.473160 327.347000C297.412247 327.347000,296.394913 327.768509,295.644791 328.518631C294.894669 329.268753,294.473160 330.286087,294.473160 331.347000C294.473160 332.407913,294.894669 333.425247,295.644791 334.175369C296.394913 334.925491,297.412247 335.347000,298.473160 335.347000C299.534073 335.347000,300.551407 334.925491,301.301529 334.175369C302.051651 333.425247,302.473160 332.407913,302.473160 331.347000Z" style="stroke:rgb(39.999390%,39.999390%,39.999390%); stroke-width: 0.500000;stroke-linecap: round;stroke-linejoin: round;stroke-miterlimit: 10.000000;fill: none;"></path>
  <path d="M302.473160 331.347000C302.473160 330.286087,302.051651 329.268753,301.301529 328.518631C300.551407 327.768509,299.534073 327.347000,298.473160 327.347000C297.412247 327.347000,296.394913 327.768509,295.644791 328.518631C294.894669 329.268753,294.473160 330.286087,294.473160 331.347000C294.473160 332.407913,294.894669 333.425247,295.644791 334.175369C296.394913 334.925491,297.412247 335.347000,298.473160 335.347000C299.534073 335.347000,300.551407 334.925491,301.301529 334.175369C302.051651 333.425247,302.473160 332.407913,302.473160 331.347000Z" style="fill: rgb(9.800720%,9.800720%,44.000244%);stroke: none;"></path>
  <path d="M392.946915 276.795990L298.464508 331.338348" style="stroke:rgb(60.000610%,60.000610%,60.000610%); stroke-width: 1.800003;stroke-linecap: round;stroke-dasharray: 3.000000 3.000000 ;stroke-linejoin: round;stroke-miterlimit: 10.000000;fill: none;"></path>
  <path d="M203.982101 276.795990L298.464508 331.338348" style="stroke:rgb(60.000610%,60.000610%,60.000610%); stroke-width: 1.800003;stroke-linecap: round;stroke-dasharray: 3.000000 3.000000 ;stroke-linejoin: round;stroke-miterlimit: 10.000000;fill: none;"></path>
  <path d="M396.946915 276.795990C396.946915 275.735077,396.525406 274.717743,395.775284 273.967621C395.025162 273.217499,394.007828 272.795990,392.946915 272.795990C391.886002 272.795990,390.868668 273.217499,390.118546 273.967621C389.368423 274.717743,388.946915 275.735077,388.946915 276.795990C388.946915 277.856903,389.368423 278.874237,390.118546 279.624359C390.868668 280.374481,391.886002 280.795990,392.946915 280.795990C394.007828 280.795990,395.025162 280.374481,395.775284 279.624359C396.525406 278.874237,396.946915 277.856903,396.946915 276.795990Z" style="stroke:rgb(39.999390%,39.999390%,39.999390%); stroke-width: 0.500000;stroke-linecap: round;stroke-linejoin: round;stroke-miterlimit: 10.000000;fill: none;"></path>
  <path d="M396.946915 276.795990C396.946915 275.735077,396.525406 274.717743,395.775284 273.967621C395.025162 273.217499,394.007828 272.795990,392.946915 272.795990C391.886002 272.795990,390.868668 273.217499,390.118546 273.967621C389.368423 274.717743,388.946915 275.735077,388.946915 276.795990C388.946915 277.856903,389.368423 278.874237,390.118546 279.624359C390.868668 280.374481,391.886002 280.795990,392.946915 280.795990C394.007828 280.795990,395.025162 280.374481,395.775284 279.624359C396.525406 278.874237,396.946915 277.856903,396.946915 276.795990Z" style="fill: rgb(89.999390%,0.000000%,0.000000%);stroke: none;"></path>
  <path d="M207.982101 276.795990C207.982101 275.735077,207.560593 274.717743,206.810471 273.967621C206.060349 273.217499,205.043015 272.795990,203.982101 272.795990C202.921188 272.795990,201.903854 273.217499,201.153732 273.967621C200.403610 274.717743,199.982101 275.735077,199.982101 276.795990C199.982101 277.856903,200.403610 278.874237,201.153732 279.624359C201.903854 280.374481,202.921188 280.795990,203.982101 280.795990C205.043015 280.795990,206.060349 280.374481,206.810471 279.624359C207.560593 278.874237,207.982101 277.856903,207.982101 276.795990Z" style="stroke:rgb(39.999390%,39.999390%,39.999390%); stroke-width: 0.500000;stroke-linecap: round;stroke-linejoin: round;stroke-miterlimit: 10.000000;fill: none;"></path>
  <path d="M207.982101 276.795990C207.982101 275.735077,207.560593 274.717743,206.810471 273.967621C206.060349 273.217499,205.043015 272.795990,203.982101 272.795990C202.921188 272.795990,201.903854 273.217499,201.153732 273.967621C200.403610 274.717743,199.982101 275.735077,199.982101 276.795990C199.982101 277.856903,200.403610 278.874237,201.153732 279.624359C201.903854 280.374481,202.921188 280.795990,203.982101 280.795990C205.043015 280.795990,206.060349 280.374481,206.810471 279.624359C207.560593 278.874237,207.982101 277.856903,207.982101 276.795990Z" style="fill: rgb(89.999390%,0.000000%,0.000000%);stroke: none;"></path>
  <path d="M302.464508 331.338348C302.464508 330.277435,302.042999 329.260101,301.292877 328.509979C300.542755 327.759857,299.525421 327.338348,298.464508 327.338348C297.403595 327.338348,296.386261 327.759857,295.636139 328.509979C294.886017 329.260101,294.464508 330.277435,294.464508 331.338348C294.464508 332.399261,294.886017 333.416595,295.636139 334.166718C296.386261 334.916840,297.403595 335.338348,298.464508 335.338348C299.525421 335.338348,300.542755 334.916840,301.292877 334.166718C302.042999 333.416595,302.464508 332.399261,302.464508 331.338348Z" style="stroke:rgb(39.999390%,39.999390%,39.999390%); stroke-width: 0.500000;stroke-linecap: round;stroke-linejoin: round;stroke-miterlimit: 10.000000;fill: none;"></path>
  <path d="M302.464508 331.338348C302.464508 330.277435,302.042999 329.260101,301.292877 328.509979C300.542755 327.759857,299.525421 327.338348,298.464508 327.338348C297.403595 327.338348,296.386261 327.759857,295.636139 328.509979C294.886017 329.260101,294.464508 330.277435,294.464508 331.338348C294.464508 332.399261,294.886017 333.416595,295.636139 334.166718C296.386261 334.916840,297.403595 335.338348,298.464508 335.338348C299.525421 335.338348,300.542755 334.916840,301.292877 334.166718C302.042999 333.416595,302.464508 332.399261,302.464508 331.338348Z" style="fill: rgb(9.800720%,9.800720%,44.000244%);stroke: none;"></path>
  <path d="M392.946915 276.795990L298.464508 222.244995" style="stroke:rgb(60.000610%,60.000610%,60.000610%); stroke-width: 1.800003;stroke-linecap: round;stroke-dasharray: 3.000000 3.000000 ;stroke-linejoin: round;stroke-miterlimit: 10.000000;fill: none;"></path>
  <path d="M203.982101 276.795990L298.464508 222.244995" style="stroke:rgb(60.000610%,60.000610%,60.000610%); stroke-width: 1.800003;stroke-linecap: round;stroke-dasharray: 3.000000 3.000000 ;stroke-linejoin: round;stroke-miterlimit: 10.000000;fill: none;"></path>
  <path d="M396.946915 276.795990C396.946915 275.735077,396.525406 274.717743,395.775284 273.967621C395.025162 273.217499,394.007828 272.795990,392.946915 272.795990C391.886002 272.795990,390.868668 273.217499,390.118546 273.967621C389.368423 274.717743,388.946915 275.735077,388.946915 276.795990C388.946915 277.856903,389.368423 278.874237,390.118546 279.624359C390.868668 280.374481,391.886002 280.795990,392.946915 280.795990C394.007828 280.795990,395.025162 280.374481,395.775284 279.624359C396.525406 278.874237,396.946915 277.856903,396.946915 276.795990Z" style="stroke:rgb(39.999390%,39.999390%,39.999390%); stroke-width: 0.500000;stroke-linecap: round;stroke-linejoin: round;stroke-miterlimit: 10.000000;fill: none;"></path>
  <path d="M396.946915 276.795990C396.946915 275.735077,396.525406 274.717743,395.775284 273.967621C395.025162 273.217499,394.007828 272.795990,392.946915 272.795990C391.886002 272.795990,390.868668 273.217499,390.118546 273.967621C389.368423 274.717743,388.946915 275.735077,388.946915 276.795990C388.946915 277.856903,389.368423 278.874237,390.118546 279.624359C390.868668 280.374481,391.886002 280.795990,392.946915 280.795990C394.007828 280.795990,395.025162 280.374481,395.775284 279.624359C396.525406 278.874237,396.946915 277.856903,396.946915 276.795990Z" style="fill: rgb(89.999390%,0.000000%,0.000000%);stroke: none;"></path>
  <path d="M207.982101 276.795990C207.982101 275.735077,207.560593 274.717743,206.810471 273.967621C206.060349 273.217499,205.043015 272.795990,203.982101 272.795990C202.921188 272.795990,201.903854 273.217499,201.153732 273.967621C200.403610 274.717743,199.982101 275.735077,199.982101 276.795990C199.982101 277.856903,200.403610 278.874237,201.153732 279.624359C201.903854 280.374481,202.921188 280.795990,203.982101 280.795990C205.043015 280.795990,206.060349 280.374481,206.810471 279.624359C207.560593 278.874237,207.982101 277.856903,207.982101 276.795990Z" style="stroke:rgb(39.999390%,39.999390%,39.999390%); stroke-width: 0.500000;stroke-linecap: round;stroke-linejoin: round;stroke-miterlimit: 10.000000;fill: none;"></path>
  <path d="M207.982101 276.795990C207.982101 275.735077,207.560593 274.717743,206.810471 273.967621C206.060349 273.217499,205.043015 272.795990,203.982101 272.795990C202.921188 272.795990,201.903854 273.217499,201.153732 273.967621C200.403610 274.717743,199.982101 275.735077,199.982101 276.795990C199.982101 277.856903,200.403610 278.874237,201.153732 279.624359C201.903854 280.374481,202.921188 280.795990,203.982101 280.795990C205.043015 280.795990,206.060349 280.374481,206.810471 279.624359C207.560593 278.874237,207.982101 277.856903,207.982101 276.795990Z" style="fill: rgb(89.999390%,0.000000%,0.000000%);stroke: none;"></path>
  <path d="M302.464508 222.244995C302.464508 221.184082,302.042999 220.166748,301.292877 219.416626C300.542755 218.666504,299.525421 218.244995,298.464508 218.244995C297.403595 218.244995,296.386261 218.666504,295.636139 219.416626C294.886017 220.166748,294.464508 221.184082,294.464508 222.244995C294.464508 223.305908,294.886017 224.323242,295.636139 225.073364C296.386261 225.823486,297.403595 226.244995,298.464508 226.244995C299.525421 226.244995,300.542755 225.823486,301.292877 225.073364C302.042999 224.323242,302.464508 223.305908,302.464508 222.244995Z" style="stroke:rgb(39.999390%,39.999390%,39.999390%); stroke-width: 0.500000;stroke-linecap: round;stroke-linejoin: round;stroke-miterlimit: 10.000000;fill: none;"></path>
  <path d="M302.464508 222.244995C302.464508 221.184082,302.042999 220.166748,301.292877 219.416626C300.542755 218.666504,299.525421 218.244995,298.464508 218.244995C297.403595 218.244995,296.386261 218.666504,295.636139 219.416626C294.886017 220.166748,294.464508 221.184082,294.464508 222.244995C294.464508 223.305908,294.886017 224.323242,295.636139 225.073364C296.386261 225.823486,297.403595 226.244995,298.464508 226.244995C299.525421 226.244995,300.542755 225.823486,301.292877 225.073364C302.042999 224.323242,302.464508 223.305908,302.464508 222.244995Z" style="fill: rgb(9.800720%,9.800720%,44.000244%);stroke: none;"></path>
  <path d="M298.464508 113.142990L298.464508 4.023697" style="stroke:rgb(60.000610%,60.000610%,60.000610%); stroke-width: 1.800003;stroke-linecap: round;stroke-dasharray: 3.000000 3.000000 ;stroke-linejoin: round;stroke-miterlimit: 10.000000;fill: none;"></path>
  <path d="M302.464508 113.142990C302.464508 112.082077,302.042999 111.064743,301.292877 110.314621C300.542755 109.564499,299.525421 109.142990,298.464508 109.142990C297.403595 109.142990,296.386261 109.564499,295.636139 110.314621C294.886017 111.064743,294.464508 112.082077,294.464508 113.142990C294.464508 114.203903,294.886017 115.221237,295.636139 115.971359C296.386261 116.721481,297.403595 117.142990,298.464508 117.142990C299.525421 117.142990,300.542755 116.721481,301.292877 115.971359C302.042999 115.221237,302.464508 114.203903,302.464508 113.142990Z" style="stroke:rgb(39.999390%,39.999390%,39.999390%); stroke-width: 0.500000;stroke-linecap: round;stroke-linejoin: round;stroke-miterlimit: 10.000000;fill: none;"></path>
  <path d="M302.464508 113.142990C302.464508 112.082077,302.042999 111.064743,301.292877 110.314621C300.542755 109.564499,299.525421 109.142990,298.464508 109.142990C297.403595 109.142990,296.386261 109.564499,295.636139 110.314621C294.886017 111.064743,294.464508 112.082077,294.464508 113.142990C294.464508 114.203903,294.886017 115.221237,295.636139 115.971359C296.386261 116.721481,297.403595 117.142990,298.464508 117.142990C299.525421 117.142990,300.542755 116.721481,301.292877 115.971359C302.042999 115.221237,302.464508 114.203903,302.464508 113.142990Z" style="fill: rgb(89.999390%,0.000000%,0.000000%);stroke: none;"></path>
  <path d="M302.464508 4.023697C302.464508 2.962784,302.042999 1.945450,301.292877 1.195328C300.542755 0.445206,299.525421 0.023697,298.464508 0.023697C297.403595 0.023697,296.386261 0.445206,295.636139 1.195328C294.886017 1.945450,294.464508 2.962784,294.464508 4.023697C294.464508 5.084610,294.886017 6.101944,295.636139 6.852066C296.386261 7.602188,297.403595 8.023697,298.464508 8.023697C299.525421 8.023697,300.542755 7.602188,301.292877 6.852066C302.042999 6.101944,302.464508 5.084610,302.464508 4.023697Z" style="stroke:rgb(39.999390%,39.999390%,39.999390%); stroke-width: 0.500000;stroke-linecap: round;stroke-linejoin: round;stroke-miterlimit: 10.000000;fill: none;"></path>
  <path d="M302.464508 4.023697C302.464508 2.962784,302.042999 1.945450,301.292877 1.195328C300.542755 0.445206,299.525421 0.023697,298.464508 0.023697C297.403595 0.023697,296.386261 0.445206,295.636139 1.195328C294.886017 1.945450,294.464508 2.962784,294.464508 4.023697C294.464508 5.084610,294.886017 6.101944,295.636139 6.852066C296.386261 7.602188,297.403595 8.023697,298.464508 8.023697C299.525421 8.023697,300.542755 7.602188,301.292877 6.852066C302.042999 6.101944,302.464508 5.084610,302.464508 4.023697Z" style="fill: rgb(100.000000%,100.000000%,0.000000%);stroke: none;"></path>
  <path d="M298.464508 113.142990L298.455856 222.236343" style="stroke:rgb(60.000610%,60.000610%,60.000610%); stroke-width: 1.800003;stroke-linecap: round;stroke-dasharray: 3.000000 3.000000 ;stroke-linejoin: round;stroke-miterlimit: 10.000000;fill: none;"></path>
  <path d="M203.982101 276.795990L298.455856 222.236343" style="stroke:rgb(60.000610%,60.000610%,60.000610%); stroke-width: 1.800003;stroke-linecap: round;stroke-dasharray: 3.000000 3.000000 ;stroke-linejoin: round;stroke-miterlimit: 10.000000;fill: none;"></path>
  <path d="M302.464508 113.142990C302.464508 112.082077,302.042999 111.064743,301.292877 110.314621C300.542755 109.564499,299.525421 109.142990,298.464508 109.142990C297.403595 109.142990,296.386261 109.564499,295.636139 110.314621C294.886017 111.064743,294.464508 112.082077,294.464508 113.142990C294.464508 114.203903,294.886017 115.221237,295.636139 115.971359C296.386261 116.721481,297.403595 117.142990,298.464508 117.142990C299.525421 117.142990,300.542755 116.721481,301.292877 115.971359C302.042999 115.221237,302.464508 114.203903,302.464508 113.142990Z" style="stroke:rgb(39.999390%,39.999390%,39.999390%); stroke-width: 0.500000;stroke-linecap: round;stroke-linejoin: round;stroke-miterlimit: 10.000000;fill: none;"></path>
  <path d="M302.464508 113.142990C302.464508 112.082077,302.042999 111.064743,301.292877 110.314621C300.542755 109.564499,299.525421 109.142990,298.464508 109.142990C297.403595 109.142990,296.386261 109.564499,295.636139 110.314621C294.886017 111.064743,294.464508 112.082077,294.464508 113.142990C294.464508 114.203903,294.886017 115.221237,295.636139 115.971359C296.386261 116.721481,297.403595 117.142990,298.464508 117.142990C299.525421 117.142990,300.542755 116.721481,301.292877 115.971359C302.042999 115.221237,302.464508 114.203903,302.464508 113.142990Z" style="fill: rgb(89.999390%,0.000000%,0.000000%);stroke: none;"></path>
  <path d="M207.982101 276.795990C207.982101 275.735077,207.560593 274.717743,206.810471 273.967621C206.060349 273.217499,205.043015 272.795990,203.982101 272.795990C202.921188 272.795990,201.903854 273.217499,201.153732 273.967621C200.403610 274.717743,199.982101 275.735077,199.982101 276.795990C199.982101 277.856903,200.403610 278.874237,201.153732 279.624359C201.903854 280.374481,202.921188 280.795990,203.982101 280.795990C205.043015 280.795990,206.060349 280.374481,206.810471 279.624359C207.560593 278.874237,207.982101 277.856903,207.982101 276.795990Z" style="stroke:rgb(39.999390%,39.999390%,39.999390%); stroke-width: 0.500000;stroke-linecap: round;stroke-linejoin: round;stroke-miterlimit: 10.000000;fill: none;"></path>
  <path d="M207.982101 276.795990C207.982101 275.735077,207.560593 274.717743,206.810471 273.967621C206.060349 273.217499,205.043015 272.795990,203.982101 272.795990C202.921188 272.795990,201.903854 273.217499,201.153732 273.967621C200.403610 274.717743,199.982101 275.735077,199.982101 276.795990C199.982101 277.856903,200.403610 278.874237,201.153732 279.624359C201.903854 280.374481,202.921188 280.795990,203.982101 280.795990C205.043015 280.795990,206.060349 280.374481,206.810471 279.624359C207.560593 278.874237,207.982101 277.856903,207.982101 276.795990Z" style="fill: rgb(89.999390%,0.000000%,0.000000%);stroke: none;"></path>
  <path d="M302.455856 222.236343C302.455856 221.175430,302.034348 220.158096,301.284225 219.407974C300.534103 218.657852,299.516769 218.236343,298.455856 218.236343C297.394943 218.236343,296.377609 218.657852,295.627487 219.407974C294.877365 220.158096,294.455856 221.175430,294.455856 222.236343C294.455856 223.297256,294.877365 224.314590,295.627487 225.064713C296.377609 225.814835,297.394943 226.236343,298.455856 226.236343C299.516769 226.236343,300.534103 225.814835,301.284225 225.064713C302.034348 224.314590,302.455856 223.297256,302.455856 222.236343Z" style="stroke:rgb(39.999390%,39.999390%,39.999390%); stroke-width: 0.500000;stroke-linecap: round;stroke-linejoin: round;stroke-miterlimit: 10.000000;fill: none;"></path>
  <path d="M302.455856 222.236343C302.455856 221.175430,302.034348 220.158096,301.284225 219.407974C300.534103 218.657852,299.516769 218.236343,298.455856 218.236343C297.394943 218.236343,296.377609 218.657852,295.627487 219.407974C294.877365 220.158096,294.455856 221.175430,294.455856 222.236343C294.455856 223.297256,294.877365 224.314590,295.627487 225.064713C296.377609 225.814835,297.394943 226.236343,298.455856 226.236343C299.516769 226.236343,300.534103 225.814835,301.284225 225.064713C302.034348 224.314590,302.455856 223.297256,302.455856 222.236343Z" style="fill: rgb(9.800720%,9.800720%,44.000244%);stroke: none;"></path>
  <path d="M298.464508 113.142990L203.990753 167.694000" style="stroke:rgb(60.000610%,60.000610%,60.000610%); stroke-width: 1.800003;stroke-linecap: round;stroke-dasharray: 3.000000 3.000000 ;stroke-linejoin: round;stroke-miterlimit: 10.000000;fill: none;"></path>
  <path d="M203.982101 276.795990L203.990753 167.694000" style="stroke:rgb(60.000610%,60.000610%,60.000610%); stroke-width: 1.800003;stroke-linecap: round;stroke-dasharray: 3.000000 3.000000 ;stroke-linejoin: round;stroke-miterlimit: 10.000000;fill: none;"></path>
  <path d="M302.464508 113.142990C302.464508 112.082077,302.042999 111.064743,301.292877 110.314621C300.542755 109.564499,299.525421 109.142990,298.464508 109.142990C297.403595 109.142990,296.386261 109.564499,295.636139 110.314621C294.886017 111.064743,294.464508 112.082077,294.464508 113.142990C294.464508 114.203903,294.886017 115.221237,295.636139 115.971359C296.386261 116.721481,297.403595 117.142990,298.464508 117.142990C299.525421 117.142990,300.542755 116.721481,301.292877 115.971359C302.042999 115.221237,302.464508 114.203903,302.464508 113.142990Z" style="stroke:rgb(39.999390%,39.999390%,39.999390%); stroke-width: 0.500000;stroke-linecap: round;stroke-linejoin: round;stroke-miterlimit: 10.000000;fill: none;"></path>
  <path d="M302.464508 113.142990C302.464508 112.082077,302.042999 111.064743,301.292877 110.314621C300.542755 109.564499,299.525421 109.142990,298.464508 109.142990C297.403595 109.142990,296.386261 109.564499,295.636139 110.314621C294.886017 111.064743,294.464508 112.082077,294.464508 113.142990C294.464508 114.203903,294.886017 115.221237,295.636139 115.971359C296.386261 116.721481,297.403595 117.142990,298.464508 117.142990C299.525421 117.142990,300.542755 116.721481,301.292877 115.971359C302.042999 115.221237,302.464508 114.203903,302.464508 113.142990Z" style="fill: rgb(89.999390%,0.000000%,0.000000%);stroke: none;"></path>
  <path d="M207.982101 276.795990C207.982101 275.735077,207.560593 274.717743,206.810471 273.967621C206.060349 273.217499,205.043015 272.795990,203.982101 272.795990C202.921188 272.795990,201.903854 273.217499,201.153732 273.967621C200.403610 274.717743,199.982101 275.735077,199.982101 276.795990C199.982101 277.856903,200.403610 278.874237,201.153732 279.624359C201.903854 280.374481,202.921188 280.795990,203.982101 280.795990C205.043015 280.795990,206.060349 280.374481,206.810471 279.624359C207.560593 278.874237,207.982101 277.856903,207.982101 276.795990Z" style="stroke:rgb(39.999390%,39.999390%,39.999390%); stroke-width: 0.500000;stroke-linecap: round;stroke-linejoin: round;stroke-miterlimit: 10.000000;fill: none;"></path>
  <path d="M207.982101 276.795990C207.982101 275.735077,207.560593 274.717743,206.810471 273.967621C206.060349 273.217499,205.043015 272.795990,203.982101 272.795990C202.921188 272.795990,201.903854 273.217499,201.153732 273.967621C200.403610 274.717743,199.982101 275.735077,199.982101 276.795990C199.982101 277.856903,200.403610 278.874237,201.153732 279.624359C201.903854 280.374481,202.921188 280.795990,203.982101 280.795990C205.043015 280.795990,206.060349 280.374481,206.810471 279.624359C207.560593 278.874237,207.982101 277.856903,207.982101 276.795990Z" style="fill: rgb(89.999390%,0.000000%,0.000000%);stroke: none;"></path>
  <path d="M207.990753 167.694000C207.990753 166.633087,207.569244 165.615753,206.819122 164.865631C206.069000 164.115509,205.051666 163.694000,203.990753 163.694000C202.929840 163.694000,201.912506 164.115509,201.162384 164.865631C200.412262 165.615753,199.990753 166.633087,199.990753 167.694000C199.990753 168.754913,200.412262 169.772247,201.162384 170.522369C201.912506 171.272491,202.929840 171.694000,203.990753 171.694000C205.051666 171.694000,206.069000 171.272491,206.819122 170.522369C207.569244 169.772247,207.990753 168.754913,207.990753 167.694000Z" style="stroke:rgb(39.999390%,39.999390%,39.999390%); stroke-width: 0.500000;stroke-linecap: round;stroke-linejoin: round;stroke-miterlimit: 10.000000;fill: none;"></path>
  <path d="M207.990753 167.694000C207.990753 166.633087,207.569244 165.615753,206.819122 164.865631C206.069000 164.115509,205.051666 163.694000,203.990753 163.694000C202.929840 163.694000,201.912506 164.115509,201.162384 164.865631C200.412262 165.615753,199.990753 166.633087,199.990753 167.694000C199.990753 168.754913,200.412262 169.772247,201.162384 170.522369C201.912506 171.272491,202.929840 171.694000,203.990753 171.694000C205.051666 171.694000,206.069000 171.272491,206.819122 170.522369C207.569244 169.772247,207.990753 168.754913,207.990753 167.694000Z" style="fill: rgb(0.000000%,50.000000%,0.000000%);stroke: none;"></path>
  <path d="M298.464508 440.440353L203.990753 385.889343" style="stroke:rgb(60.000610%,60.000610%,60.000610%); stroke-width: 1.800003;stroke-linecap: round;stroke-dasharray: 3.000000 3.000000 ;stroke-linejoin: round;stroke-miterlimit: 10.000000;fill: none;"></path>
  <path d="M203.982101 276.795990L203.990753 385.889343" style="stroke:rgb(60.000610%,60.000610%,60.000610%); stroke-width: 1.800003;stroke-linecap: round;stroke-dasharray: 3.000000 3.000000 ;stroke-linejoin: round;stroke-miterlimit: 10.000000;fill: none;"></path>
  <path d="M302.464508 440.440353C302.464508 439.379440,302.042999 438.362106,301.292877 437.611984C300.542755 436.861862,299.525421 436.440353,298.464508 436.440353C297.403595 436.440353,296.386261 436.861862,295.636139 437.611984C294.886017 438.362106,294.464508 439.379440,294.464508 440.440353C294.464508 441.501266,294.886017 442.518600,295.636139 443.268723C296.386261 444.018845,297.403595 444.440353,298.464508 444.440353C299.525421 444.440353,300.542755 444.018845,301.292877 443.268723C302.042999 442.518600,302.464508 441.501266,302.464508 440.440353Z" style="stroke:rgb(39.999390%,39.999390%,39.999390%); stroke-width: 0.500000;stroke-linecap: round;stroke-linejoin: round;stroke-miterlimit: 10.000000;fill: none;"></path>
  <path d="M302.464508 440.440353C302.464508 439.379440,302.042999 438.362106,301.292877 437.611984C300.542755 436.861862,299.525421 436.440353,298.464508 436.440353C297.403595 436.440353,296.386261 436.861862,295.636139 437.611984C294.886017 438.362106,294.464508 439.379440,294.464508 440.440353C294.464508 441.501266,294.886017 442.518600,295.636139 443.268723C296.386261 444.018845,297.403595 444.440353,298.464508 444.440353C299.525421 444.440353,300.542755 444.018845,301.292877 443.268723C302.042999 442.518600,302.464508 441.501266,302.464508 440.440353Z" style="fill: rgb(89.999390%,0.000000%,0.000000%);stroke: none;"></path>
  <path d="M207.982101 276.795990C207.982101 275.735077,207.560593 274.717743,206.810471 273.967621C206.060349 273.217499,205.043015 272.795990,203.982101 272.795990C202.921188 272.795990,201.903854 273.217499,201.153732 273.967621C200.403610 274.717743,199.982101 275.735077,199.982101 276.795990C199.982101 277.856903,200.403610 278.874237,201.153732 279.624359C201.903854 280.374481,202.921188 280.795990,203.982101 280.795990C205.043015 280.795990,206.060349 280.374481,206.810471 279.624359C207.560593 278.874237,207.982101 277.856903,207.982101 276.795990Z" style="stroke:rgb(39.999390%,39.999390%,39.999390%); stroke-width: 0.500000;stroke-linecap: round;stroke-linejoin: round;stroke-miterlimit: 10.000000;fill: none;"></path>
  <path d="M207.982101 276.795990C207.982101 275.735077,207.560593 274.717743,206.810471 273.967621C206.060349 273.217499,205.043015 272.795990,203.982101 272.795990C202.921188 272.795990,201.903854 273.217499,201.153732 273.967621C200.403610 274.717743,199.982101 275.735077,199.982101 276.795990C199.982101 277.856903,200.403610 278.874237,201.153732 279.624359C201.903854 280.374481,202.921188 280.795990,203.982101 280.795990C205.043015 280.795990,206.060349 280.374481,206.810471 279.624359C207.560593 278.874237,207.982101 277.856903,207.982101 276.795990Z" style="fill: rgb(89.999390%,0.000000%,0.000000%);stroke: none;"></path>
  <path d="M207.990753 385.889343C207.990753 384.828430,207.569244 383.811096,206.819122 383.060974C206.069000 382.310852,205.051666 381.889343,203.990753 381.889343C202.929840 381.889343,201.912506 382.310852,201.162384 383.060974C200.412262 383.811096,199.990753 384.828430,199.990753 385.889343C199.990753 386.950256,200.412262 387.967590,201.162384 388.717712C201.912506 389.467834,202.929840 389.889343,203.990753 389.889343C205.051666 389.889343,206.069000 389.467834,206.819122 388.717712C207.569244 387.967590,207.990753 386.950256,207.990753 385.889343Z" style="stroke:rgb(39.999390%,39.999390%,39.999390%); stroke-width: 0.500000;stroke-linecap: round;stroke-linejoin: round;stroke-miterlimit: 10.000000;fill: none;"></path>
  <path d="M207.990753 385.889343C207.990753 384.828430,207.569244 383.811096,206.819122 383.060974C206.069000 382.310852,205.051666 381.889343,203.990753 381.889343C202.929840 381.889343,201.912506 382.310852,201.162384 383.060974C200.412262 383.811096,199.990753 384.828430,199.990753 385.889343C199.990753 386.950256,200.412262 387.967590,201.162384 388.717712C201.912506 389.467834,202.929840 389.889343,203.990753 389.889343C205.051666 389.889343,206.069000 389.467834,206.819122 388.717712C207.569244 387.967590,207.990753 386.950256,207.990753 385.889343Z" style="fill: rgb(9.800720%,9.800720%,44.000244%);stroke: none;"></path>
  <path d="M298.464508 440.440353L298.455856 331.347000" style="stroke:rgb(60.000610%,60.000610%,60.000610%); stroke-width: 1.800003;stroke-linecap: round;stroke-dasharray: 3.000000 3.000000 ;stroke-linejoin: round;stroke-miterlimit: 10.000000;fill: none;"></path>
  <path d="M203.982101 276.795990L298.455856 331.347000" style="stroke:rgb(60.000610%,60.000610%,60.000610%); stroke-width: 1.800003;stroke-linecap: round;stroke-dasharray: 3.000000 3.000000 ;stroke-linejoin: round;stroke-miterlimit: 10.000000;fill: none;"></path>
  <path d="M302.464508 440.440353C302.464508 439.379440,302.042999 438.362106,301.292877 437.611984C300.542755 436.861862,299.525421 436.440353,298.464508 436.440353C297.403595 436.440353,296.386261 436.861862,295.636139 437.611984C294.886017 438.362106,294.464508 439.379440,294.464508 440.440353C294.464508 441.501266,294.886017 442.518600,295.636139 443.268723C296.386261 444.018845,297.403595 444.440353,298.464508 444.440353C299.525421 444.440353,300.542755 444.018845,301.292877 443.268723C302.042999 442.518600,302.464508 441.501266,302.464508 440.440353Z" style="stroke:rgb(39.999390%,39.999390%,39.999390%); stroke-width: 0.500000;stroke-linecap: round;stroke-linejoin: round;stroke-miterlimit: 10.000000;fill: none;"></path>
  <path d="M302.464508 440.440353C302.464508 439.379440,302.042999 438.362106,301.292877 437.611984C300.542755 436.861862,299.525421 436.440353,298.464508 436.440353C297.403595 436.440353,296.386261 436.861862,295.636139 437.611984C294.886017 438.362106,294.464508 439.379440,294.464508 440.440353C294.464508 441.501266,294.886017 442.518600,295.636139 443.268723C296.386261 444.018845,297.403595 444.440353,298.464508 444.440353C299.525421 444.440353,300.542755 444.018845,301.292877 443.268723C302.042999 442.518600,302.464508 441.501266,302.464508 440.440353Z" style="fill: rgb(89.999390%,0.000000%,0.000000%);stroke: none;"></path>
  <path d="M207.982101 276.795990C207.982101 275.735077,207.560593 274.717743,206.810471 273.967621C206.060349 273.217499,205.043015 272.795990,203.982101 272.795990C202.921188 272.795990,201.903854 273.217499,201.153732 273.967621C200.403610 274.717743,199.982101 275.735077,199.982101 276.795990C199.982101 277.856903,200.403610 278.874237,201.153732 279.624359C201.903854 280.374481,202.921188 280.795990,203.982101 280.795990C205.043015 280.795990,206.060349 280.374481,206.810471 279.624359C207.560593 278.874237,207.982101 277.856903,207.982101 276.795990Z" style="stroke:rgb(39.999390%,39.999390%,39.999390%); stroke-width: 0.500000;stroke-linecap: round;stroke-linejoin: round;stroke-miterlimit: 10.000000;fill: none;"></path>
  <path d="M207.982101 276.795990C207.982101 275.735077,207.560593 274.717743,206.810471 273.967621C206.060349 273.217499,205.043015 272.795990,203.982101 272.795990C202.921188 272.795990,201.903854 273.217499,201.153732 273.967621C200.403610 274.717743,199.982101 275.735077,199.982101 276.795990C199.982101 277.856903,200.403610 278.874237,201.153732 279.624359C201.903854 280.374481,202.921188 280.795990,203.982101 280.795990C205.043015 280.795990,206.060349 280.374481,206.810471 279.624359C207.560593 278.874237,207.982101 277.856903,207.982101 276.795990Z" style="fill: rgb(89.999390%,0.000000%,0.000000%);stroke: none;"></path>
  <path d="M302.455856 331.347000C302.455856 330.286087,302.034348 329.268753,301.284225 328.518631C300.534103 327.768509,299.516769 327.347000,298.455856 327.347000C297.394943 327.347000,296.377609 327.768509,295.627487 328.518631C294.877365 329.268753,294.455856 330.286087,294.455856 331.347000C294.455856 332.407913,294.877365 333.425247,295.627487 334.175369C296.377609 334.925491,297.394943 335.347000,298.455856 335.347000C299.516769 335.347000,300.534103 334.925491,301.284225 334.175369C302.034348 333.425247,302.455856 332.407913,302.455856 331.347000Z" style="stroke:rgb(39.999390%,39.999390%,39.999390%); stroke-width: 0.500000;stroke-linecap: round;stroke-linejoin: round;stroke-miterlimit: 10.000000;fill: none;"></path>
  <path d="M302.455856 331.347000C302.455856 330.286087,302.034348 329.268753,301.284225 328.518631C300.534103 327.768509,299.516769 327.347000,298.455856 327.347000C297.394943 327.347000,296.377609 327.768509,295.627487 328.518631C294.877365 329.268753,294.455856 330.286087,294.455856 331.347000C294.455856 332.407913,294.877365 333.425247,295.627487 334.175369C296.377609 334.925491,297.394943 335.347000,298.455856 335.347000C299.516769 335.347000,300.534103 334.925491,301.284225 334.175369C302.034348 333.425247,302.455856 332.407913,302.455856 331.347000Z" style="fill: rgb(9.800720%,9.800720%,44.000244%);stroke: none;"></path>
  <path d="M298.464508 440.440353L203.982101 494.982697" style="stroke:rgb(60.000610%,60.000610%,60.000610%); stroke-width: 1.800003;stroke-linecap: round;stroke-dasharray: 3.000000 3.000000 ;stroke-linejoin: round;stroke-miterlimit: 10.000000;fill: none;"></path>
  <path d="M109.499710 440.440353L203.982101 494.982697" style="stroke:rgb(60.000610%,60.000610%,60.000610%); stroke-width: 1.800003;stroke-linecap: round;stroke-dasharray: 3.000000 3.000000 ;stroke-linejoin: round;stroke-miterlimit: 10.000000;fill: none;"></path>
  <path d="M302.464508 440.440353C302.464508 439.379440,302.042999 438.362106,301.292877 437.611984C300.542755 436.861862,299.525421 436.440353,298.464508 436.440353C297.403595 436.440353,296.386261 436.861862,295.636139 437.611984C294.886017 438.362106,294.464508 439.379440,294.464508 440.440353C294.464508 441.501266,294.886017 442.518600,295.636139 443.268723C296.386261 444.018845,297.403595 444.440353,298.464508 444.440353C299.525421 444.440353,300.542755 444.018845,301.292877 443.268723C302.042999 442.518600,302.464508 441.501266,302.464508 440.440353Z" style="stroke:rgb(39.999390%,39.999390%,39.999390%); stroke-width: 0.500000;stroke-linecap: round;stroke-linejoin: round;stroke-miterlimit: 10.000000;fill: none;"></path>
  <path d="M302.464508 440.440353C302.464508 439.379440,302.042999 438.362106,301.292877 437.611984C300.542755 436.861862,299.525421 436.440353,298.464508 436.440353C297.403595 436.440353,296.386261 436.861862,295.636139 437.611984C294.886017 438.362106,294.464508 439.379440,294.464508 440.440353C294.464508 441.501266,294.886017 442.518600,295.636139 443.268723C296.386261 444.018845,297.403595 444.440353,298.464508 444.440353C299.525421 444.440353,300.542755 444.018845,301.292877 443.268723C302.042999 442.518600,302.464508 441.501266,302.464508 440.440353Z" style="fill: rgb(89.999390%,0.000000%,0.000000%);stroke: none;"></path>
  <path d="M113.499710 440.440353C113.499710 439.379440,113.078201 438.362106,112.328079 437.611984C111.577957 436.861862,110.560623 436.440353,109.499710 436.440353C108.438797 436.440353,107.421463 436.861862,106.671341 437.611984C105.921219 438.362106,105.499710 439.379440,105.499710 440.440353C105.499710 441.501266,105.921219 442.518600,106.671341 443.268723C107.421463 444.018845,108.438797 444.440353,109.499710 444.440353C110.560623 444.440353,111.577957 444.018845,112.328079 443.268723C113.078201 442.518600,113.499710 441.501266,113.499710 440.440353Z" style="stroke:rgb(39.999390%,39.999390%,39.999390%); stroke-width: 0.500000;stroke-linecap: round;stroke-linejoin: round;stroke-miterlimit: 10.000000;fill: none;"></path>
  <path d="M113.499710 440.440353C113.499710 439.379440,113.078201 438.362106,112.328079 437.611984C111.577957 436.861862,110.560623 436.440353,109.499710 436.440353C108.438797 436.440353,107.421463 436.861862,106.671341 437.611984C105.921219 438.362106,105.499710 439.379440,105.499710 440.440353C105.499710 441.501266,105.921219 442.518600,106.671341 443.268723C107.421463 444.018845,108.438797 444.440353,109.499710 444.440353C110.560623 444.440353,111.577957 444.018845,112.328079 443.268723C113.078201 442.518600,113.499710 441.501266,113.499710 440.440353Z" style="fill: rgb(89.999390%,0.000000%,0.000000%);stroke: none;"></path>
  <path d="M207.982101 494.982697C207.982101 493.921783,207.560593 492.904449,206.810471 492.154327C206.060349 491.404205,205.043015 490.982697,203.982101 490.982697C202.921188 490.982697,201.903854 491.404205,201.153732 492.154327C200.403610 492.904449,199.982101 493.921783,199.982101 494.982697C199.982101 496.043610,200.403610 497.060944,201.153732 497.811066C201.903854 498.561188,202.921188 498.982697,203.982101 498.982697C205.043015 498.982697,206.060349 498.561188,206.810471 497.811066C207.560593 497.060944,207.982101 496.043610,207.982101 494.982697Z" style="stroke:rgb(39.999390%,39.999390%,39.999390%); stroke-width: 0.500000;stroke-linecap: round;stroke-linejoin: round;stroke-miterlimit: 10.000000;fill: none;"></path>
  <path d="M207.982101 494.982697C207.982101 493.921783,207.560593 492.904449,206.810471 492.154327C206.060349 491.404205,205.043015 490.982697,203.982101 490.982697C202.921188 490.982697,201.903854 491.404205,201.153732 492.154327C200.403610 492.904449,199.982101 493.921783,199.982101 494.982697C199.982101 496.043610,200.403610 497.060944,201.153732 497.811066C201.903854 498.561188,202.921188 498.982697,203.982101 498.982697C205.043015 498.982697,206.060349 498.561188,206.810471 497.811066C207.560593 497.060944,207.982101 496.043610,207.982101 494.982697Z" style="fill: rgb(0.000000%,50.000000%,0.000000%);stroke: none;"></path>
  <path d="M298.464508 440.440353L203.982101 385.897995" style="stroke:rgb(60.000610%,60.000610%,60.000610%); stroke-width: 1.800003;stroke-linecap: round;stroke-dasharray: 3.000000 3.000000 ;stroke-linejoin: round;stroke-miterlimit: 10.000000;fill: none;"></path>
  <path d="M109.499710 440.440353L203.982101 385.897995" style="stroke:rgb(60.000610%,60.000610%,60.000610%); stroke-width: 1.800003;stroke-linecap: round;stroke-dasharray: 3.000000 3.000000 ;stroke-linejoin: round;stroke-miterlimit: 10.000000;fill: none;"></path>
  <path d="M302.464508 440.440353C302.464508 439.379440,302.042999 438.362106,301.292877 437.611984C300.542755 436.861862,299.525421 436.440353,298.464508 436.440353C297.403595 436.440353,296.386261 436.861862,295.636139 437.611984C294.886017 438.362106,294.464508 439.379440,294.464508 440.440353C294.464508 441.501266,294.886017 442.518600,295.636139 443.268723C296.386261 444.018845,297.403595 444.440353,298.464508 444.440353C299.525421 444.440353,300.542755 444.018845,301.292877 443.268723C302.042999 442.518600,302.464508 441.501266,302.464508 440.440353Z" style="stroke:rgb(39.999390%,39.999390%,39.999390%); stroke-width: 0.500000;stroke-linecap: round;stroke-linejoin: round;stroke-miterlimit: 10.000000;fill: none;"></path>
  <path d="M302.464508 440.440353C302.464508 439.379440,302.042999 438.362106,301.292877 437.611984C300.542755 436.861862,299.525421 436.440353,298.464508 436.440353C297.403595 436.440353,296.386261 436.861862,295.636139 437.611984C294.886017 438.362106,294.464508 439.379440,294.464508 440.440353C294.464508 441.501266,294.886017 442.518600,295.636139 443.268723C296.386261 444.018845,297.403595 444.440353,298.464508 444.440353C299.525421 444.440353,300.542755 444.018845,301.292877 443.268723C302.042999 442.518600,302.464508 441.501266,302.464508 440.440353Z" style="fill: rgb(89.999390%,0.000000%,0.000000%);stroke: none;"></path>
  <path d="M113.499710 440.440353C113.499710 439.379440,113.078201 438.362106,112.328079 437.611984C111.577957 436.861862,110.560623 436.440353,109.499710 436.440353C108.438797 436.440353,107.421463 436.861862,106.671341 437.611984C105.921219 438.362106,105.499710 439.379440,105.499710 440.440353C105.499710 441.501266,105.921219 442.518600,106.671341 443.268723C107.421463 444.018845,108.438797 444.440353,109.499710 444.440353C110.560623 444.440353,111.577957 444.018845,112.328079 443.268723C113.078201 442.518600,113.499710 441.501266,113.499710 440.440353Z" style="stroke:rgb(39.999390%,39.999390%,39.999390%); stroke-width: 0.500000;stroke-linecap: round;stroke-linejoin: round;stroke-miterlimit: 10.000000;fill: none;"></path>
  <path d="M113.499710 440.440353C113.499710 439.379440,113.078201 438.362106,112.328079 437.611984C111.577957 436.861862,110.560623 436.440353,109.499710 436.440353C108.438797 436.440353,107.421463 436.861862,106.671341 437.611984C105.921219 438.362106,105.499710 439.379440,105.499710 440.440353C105.499710 441.501266,105.921219 442.518600,106.671341 443.268723C107.421463 444.018845,108.438797 444.440353,109.499710 444.440353C110.560623 444.440353,111.577957 444.018845,112.328079 443.268723C113.078201 442.518600,113.499710 441.501266,113.499710 440.440353Z" style="fill: rgb(89.999390%,0.000000%,0.000000%);stroke: none;"></path>
  <path d="M207.982101 385.897995C207.982101 384.837082,207.560593 383.819748,206.810471 383.069626C206.060349 382.319504,205.043015 381.897995,203.982101 381.897995C202.921188 381.897995,201.903854 382.319504,201.153732 383.069626C200.403610 383.819748,199.982101 384.837082,199.982101 385.897995C199.982101 386.958908,200.403610 387.976242,201.153732 388.726364C201.903854 389.476486,202.921188 389.897995,203.982101 389.897995C205.043015 389.897995,206.060349 389.476486,206.810471 388.726364C207.560593 387.976242,207.982101 386.958908,207.982101 385.897995Z" style="stroke:rgb(39.999390%,39.999390%,39.999390%); stroke-width: 0.500000;stroke-linecap: round;stroke-linejoin: round;stroke-miterlimit: 10.000000;fill: none;"></path>
  <path d="M207.982101 385.897995C207.982101 384.837082,207.560593 383.819748,206.810471 383.069626C206.060349 382.319504,205.043015 381.897995,203.982101 381.897995C202.921188 381.897995,201.903854 382.319504,201.153732 383.069626C200.403610 383.819748,199.982101 384.837082,199.982101 385.897995C199.982101 386.958908,200.403610 387.976242,201.153732 388.726364C201.903854 389.476486,202.921188 389.897995,203.982101 389.897995C205.043015 389.897995,206.060349 389.476486,206.810471 388.726364C207.560593 387.976242,207.982101 386.958908,207.982101 385.897995Z" style="fill: rgb(9.800720%,9.800720%,44.000244%);stroke: none;"></path>
  <path d="M203.982101 276.795990L203.982101 385.889343" style="stroke:rgb(60.000610%,60.000610%,60.000610%); stroke-width: 1.800003;stroke-linecap: round;stroke-dasharray: 3.000000 3.000000 ;stroke-linejoin: round;stroke-miterlimit: 10.000000;fill: none;"></path>
  <path d="M109.499710 440.440353L203.982101 385.889343" style="stroke:rgb(60.000610%,60.000610%,60.000610%); stroke-width: 1.800003;stroke-linecap: round;stroke-dasharray: 3.000000 3.000000 ;stroke-linejoin: round;stroke-miterlimit: 10.000000;fill: none;"></path>
  <path d="M207.982101 276.795990C207.982101 275.735077,207.560593 274.717743,206.810471 273.967621C206.060349 273.217499,205.043015 272.795990,203.982101 272.795990C202.921188 272.795990,201.903854 273.217499,201.153732 273.967621C200.403610 274.717743,199.982101 275.735077,199.982101 276.795990C199.982101 277.856903,200.403610 278.874237,201.153732 279.624359C201.903854 280.374481,202.921188 280.795990,203.982101 280.795990C205.043015 280.795990,206.060349 280.374481,206.810471 279.624359C207.560593 278.874237,207.982101 277.856903,207.982101 276.795990Z" style="stroke:rgb(39.999390%,39.999390%,39.999390%); stroke-width: 0.500000;stroke-linecap: round;stroke-linejoin: round;stroke-miterlimit: 10.000000;fill: none;"></path>
  <path d="M207.982101 276.795990C207.982101 275.735077,207.560593 274.717743,206.810471 273.967621C206.060349 273.217499,205.043015 272.795990,203.982101 272.795990C202.921188 272.795990,201.903854 273.217499,201.153732 273.967621C200.403610 274.717743,199.982101 275.735077,199.982101 276.795990C199.982101 277.856903,200.403610 278.874237,201.153732 279.624359C201.903854 280.374481,202.921188 280.795990,203.982101 280.795990C205.043015 280.795990,206.060349 280.374481,206.810471 279.624359C207.560593 278.874237,207.982101 277.856903,207.982101 276.795990Z" style="fill: rgb(89.999390%,0.000000%,0.000000%);stroke: none;"></path>
  <path d="M113.499710 440.440353C113.499710 439.379440,113.078201 438.362106,112.328079 437.611984C111.577957 436.861862,110.560623 436.440353,109.499710 436.440353C108.438797 436.440353,107.421463 436.861862,106.671341 437.611984C105.921219 438.362106,105.499710 439.379440,105.499710 440.440353C105.499710 441.501266,105.921219 442.518600,106.671341 443.268723C107.421463 444.018845,108.438797 444.440353,109.499710 444.440353C110.560623 444.440353,111.577957 444.018845,112.328079 443.268723C113.078201 442.518600,113.499710 441.501266,113.499710 440.440353Z" style="stroke:rgb(39.999390%,39.999390%,39.999390%); stroke-width: 0.500000;stroke-linecap: round;stroke-linejoin: round;stroke-miterlimit: 10.000000;fill: none;"></path>
  <path d="M113.499710 440.440353C113.499710 439.379440,113.078201 438.362106,112.328079 437.611984C111.577957 436.861862,110.560623 436.440353,109.499710 436.440353C108.438797 436.440353,107.421463 436.861862,106.671341 437.611984C105.921219 438.362106,105.499710 439.379440,105.499710 440.440353C105.499710 441.501266,105.921219 442.518600,106.671341 443.268723C107.421463 444.018845,108.438797 444.440353,109.499710 444.440353C110.560623 444.440353,111.577957 444.018845,112.328079 443.268723C113.078201 442.518600,113.499710 441.501266,113.499710 440.440353Z" style="fill: rgb(89.999390%,0.000000%,0.000000%);stroke: none;"></path>
  <path d="M207.982101 385.889343C207.982101 384.828430,207.560593 383.811096,206.810471 383.060974C206.060349 382.310852,205.043015 381.889343,203.982101 381.889343C202.921188 381.889343,201.903854 382.310852,201.153732 383.060974C200.403610 383.811096,199.982101 384.828430,199.982101 385.889343C199.982101 386.950256,200.403610 387.967590,201.153732 388.717712C201.903854 389.467834,202.921188 389.889343,203.982101 389.889343C205.043015 389.889343,206.060349 389.467834,206.810471 388.717712C207.560593 387.967590,207.982101 386.950256,207.982101 385.889343Z" style="stroke:rgb(39.999390%,39.999390%,39.999390%); stroke-width: 0.500000;stroke-linecap: round;stroke-linejoin: round;stroke-miterlimit: 10.000000;fill: none;"></path>
  <path d="M207.982101 385.889343C207.982101 384.828430,207.560593 383.811096,206.810471 383.060974C206.060349 382.310852,205.043015 381.889343,203.982101 381.889343C202.921188 381.889343,201.903854 382.310852,201.153732 383.060974C200.403610 383.811096,199.982101 384.828430,199.982101 385.889343C199.982101 386.950256,200.403610 387.967590,201.153732 388.717712C201.903854 389.467834,202.921188 389.889343,203.982101 389.889343C205.043015 389.889343,206.060349 389.467834,206.810471 388.717712C207.560593 387.967590,207.982101 386.950256,207.982101 385.889343Z" style="fill: rgb(9.800720%,9.800720%,44.000244%);stroke: none;"></path>
  <path d="M203.982101 276.795990L109.508362 331.347000" style="stroke:rgb(60.000610%,60.000610%,60.000610%); stroke-width: 1.800003;stroke-linecap: round;stroke-dasharray: 3.000000 3.000000 ;stroke-linejoin: round;stroke-miterlimit: 10.000000;fill: none;"></path>
  <path d="M109.499710 440.440353L109.508362 331.347000" style="stroke:rgb(60.000610%,60.000610%,60.000610%); stroke-width: 1.800003;stroke-linecap: round;stroke-dasharray: 3.000000 3.000000 ;stroke-linejoin: round;stroke-miterlimit: 10.000000;fill: none;"></path>
  <path d="M207.982101 276.795990C207.982101 275.735077,207.560593 274.717743,206.810471 273.967621C206.060349 273.217499,205.043015 272.795990,203.982101 272.795990C202.921188 272.795990,201.903854 273.217499,201.153732 273.967621C200.403610 274.717743,199.982101 275.735077,199.982101 276.795990C199.982101 277.856903,200.403610 278.874237,201.153732 279.624359C201.903854 280.374481,202.921188 280.795990,203.982101 280.795990C205.043015 280.795990,206.060349 280.374481,206.810471 279.624359C207.560593 278.874237,207.982101 277.856903,207.982101 276.795990Z" style="stroke:rgb(39.999390%,39.999390%,39.999390%); stroke-width: 0.500000;stroke-linecap: round;stroke-linejoin: round;stroke-miterlimit: 10.000000;fill: none;"></path>
  <path d="M207.982101 276.795990C207.982101 275.735077,207.560593 274.717743,206.810471 273.967621C206.060349 273.217499,205.043015 272.795990,203.982101 272.795990C202.921188 272.795990,201.903854 273.217499,201.153732 273.967621C200.403610 274.717743,199.982101 275.735077,199.982101 276.795990C199.982101 277.856903,200.403610 278.874237,201.153732 279.624359C201.903854 280.374481,202.921188 280.795990,203.982101 280.795990C205.043015 280.795990,206.060349 280.374481,206.810471 279.624359C207.560593 278.874237,207.982101 277.856903,207.982101 276.795990Z" style="fill: rgb(89.999390%,0.000000%,0.000000%);stroke: none;"></path>
  <path d="M113.499710 440.440353C113.499710 439.379440,113.078201 438.362106,112.328079 437.611984C111.577957 436.861862,110.560623 436.440353,109.499710 436.440353C108.438797 436.440353,107.421463 436.861862,106.671341 437.611984C105.921219 438.362106,105.499710 439.379440,105.499710 440.440353C105.499710 441.501266,105.921219 442.518600,106.671341 443.268723C107.421463 444.018845,108.438797 444.440353,109.499710 444.440353C110.560623 444.440353,111.577957 444.018845,112.328079 443.268723C113.078201 442.518600,113.499710 441.501266,113.499710 440.440353Z" style="stroke:rgb(39.999390%,39.999390%,39.999390%); stroke-width: 0.500000;stroke-linecap: round;stroke-linejoin: round;stroke-miterlimit: 10.000000;fill: none;"></path>
  <path d="M113.499710 440.440353C113.499710 439.379440,113.078201 438.362106,112.328079 437.611984C111.577957 436.861862,110.560623 436.440353,109.499710 436.440353C108.438797 436.440353,107.421463 436.861862,106.671341 437.611984C105.921219 438.362106,105.499710 439.379440,105.499710 440.440353C105.499710 441.501266,105.921219 442.518600,106.671341 443.268723C107.421463 444.018845,108.438797 444.440353,109.499710 444.440353C110.560623 444.440353,111.577957 444.018845,112.328079 443.268723C113.078201 442.518600,113.499710 441.501266,113.499710 440.440353Z" style="fill: rgb(89.999390%,0.000000%,0.000000%);stroke: none;"></path>
  <path d="M113.508362 331.347000C113.508362 330.286087,113.086853 329.268753,112.336731 328.518631C111.586609 327.768509,110.569275 327.347000,109.508362 327.347000C108.447449 327.347000,107.430115 327.768509,106.679993 328.518631C105.929871 329.268753,105.508362 330.286087,105.508362 331.347000C105.508362 332.407913,105.929871 333.425247,106.679993 334.175369C107.430115 334.925491,108.447449 335.347000,109.508362 335.347000C110.569275 335.347000,111.586609 334.925491,112.336731 334.175369C113.086853 333.425247,113.508362 332.407913,113.508362 331.347000Z" style="stroke:rgb(39.999390%,39.999390%,39.999390%); stroke-width: 0.500000;stroke-linecap: round;stroke-linejoin: round;stroke-miterlimit: 10.000000;fill: none;"></path>
  <path d="M113.508362 331.347000C113.508362 330.286087,113.086853 329.268753,112.336731 328.518631C111.586609 327.768509,110.569275 327.347000,109.508362 327.347000C108.447449 327.347000,107.430115 327.768509,106.679993 328.518631C105.929871 329.268753,105.508362 330.286087,105.508362 331.347000C105.508362 332.407913,105.929871 333.425247,106.679993 334.175369C107.430115 334.925491,108.447449 335.347000,109.508362 335.347000C110.569275 335.347000,111.586609 334.925491,112.336731 334.175369C113.086853 333.425247,113.508362 332.407913,113.508362 331.347000Z" style="fill: rgb(0.000000%,50.000000%,0.000000%);stroke: none;"></path>
  <path d="M109.499710 440.440353L15.000000 495.000000" style="stroke:rgb(60.000610%,60.000610%,60.000610%); stroke-width: 1.800003;stroke-linecap: round;stroke-dasharray: 3.000000 3.000000 ;stroke-linejoin: round;stroke-miterlimit: 10.000000;fill: none;"></path>
  <path d="M113.499710 440.440353C113.499710 439.379440,113.078201 438.362106,112.328079 437.611984C111.577957 436.861862,110.560623 436.440353,109.499710 436.440353C108.438797 436.440353,107.421463 436.861862,106.671341 437.611984C105.921219 438.362106,105.499710 439.379440,105.499710 440.440353C105.499710 441.501266,105.921219 442.518600,106.671341 443.268723C107.421463 444.018845,108.438797 444.440353,109.499710 444.440353C110.560623 444.440353,111.577957 444.018845,112.328079 443.268723C113.078201 442.518600,113.499710 441.501266,113.499710 440.440353Z" style="stroke:rgb(39.999390%,39.999390%,39.999390%); stroke-width: 0.500000;stroke-linecap: round;stroke-linejoin: round;stroke-miterlimit: 10.000000;fill: none;"></path>
  <path d="M113.499710 440.440353C113.499710 439.379440,113.078201 438.362106,112.328079 437.611984C111.577957 436.861862,110.560623 436.440353,109.499710 436.440353C108.438797 436.440353,107.421463 436.861862,106.671341 437.611984C105.921219 438.362106,105.499710 439.379440,105.499710 440.440353C105.499710 441.501266,105.921219 442.518600,106.671341 443.268723C107.421463 444.018845,108.438797 444.440353,109.499710 444.440353C110.560623 444.440353,111.577957 444.018845,112.328079 443.268723C113.078201 442.518600,113.499710 441.501266,113.499710 440.440353Z" style="fill: rgb(89.999390%,0.000000%,0.000000%);stroke: none;"></path>
  <path d="M19.000000 495.000000C19.000000 493.939087,18.578491 492.921753,17.828369 492.171631C17.078247 491.421509,16.060913 491.000000,15.000000 491.000000C13.939087 491.000000,12.921753 491.421509,12.171631 492.171631C11.421509 492.921753,11.000000 493.939087,11.000000 495.000000C11.000000 496.060913,11.421509 497.078247,12.171631 497.828369C12.921753 498.578491,13.939087 499.000000,15.000000 499.000000C16.060913 499.000000,17.078247 498.578491,17.828369 497.828369C18.578491 497.078247,19.000000 496.060913,19.000000 495.000000Z" style="stroke:rgb(39.999390%,39.999390%,39.999390%); stroke-width: 0.500000;stroke-linecap: round;stroke-linejoin: round;stroke-miterlimit: 10.000000;fill: none;"></path>
  <path d="M19.000000 495.000000C19.000000 493.939087,18.578491 492.921753,17.828369 492.171631C17.078247 491.421509,16.060913 491.000000,15.000000 491.000000C13.939087 491.000000,12.921753 491.421509,12.171631 492.171631C11.421509 492.921753,11.000000 493.939087,11.000000 495.000000C11.000000 496.060913,11.421509 497.078247,12.171631 497.828369C12.921753 498.578491,13.939087 499.000000,15.000000 499.000000C16.060913 499.000000,17.078247 498.578491,17.828369 497.828369C18.578491 497.078247,19.000000 496.060913,19.000000 495.000000Z" style="fill: rgb(100.000000%,100.000000%,0.000000%);stroke: none;"></path>
</svg>
