<?xml version="1.0"?>
<!-- Created by MetaPost 2.00 on 2022.03.31:1000 -->
<svg version="1.1" xmlns="http://www.w3.org/2000/svg" xmlns:xlink="http://www.w3.org/1999/xlink" width="611.735901" height="577.535507" viewBox="0 0 611.735901 577.535507">
<!-- Original BoundingBox: -22.403442 -82.309204 589.332458 495.226303 -->
  <path d="M22.000000 495.000000L588.929016 495.000000L305.464508 4.023697L22.000000 495.000000Z" style="fill: rgb(100.000000%,100.000000%,100.000000%);stroke: none;"></path>
  <path d="M22.000000 495.000000L588.929016 495.000000" style="stroke:rgb(0.000000%,0.000000%,0.000000%); stroke-width: 1.000000;stroke-linecap: round;stroke-linejoin: round;stroke-miterlimit: 10.000000;fill: none;"></path>
  <path d="M588.929016 495.000000L305.464508 4.023697" style="stroke:rgb(0.000000%,0.000000%,0.000000%); stroke-width: 1.000000;stroke-linecap: round;stroke-linejoin: round;stroke-miterlimit: 10.000000;fill: none;"></path>
  <path d="M305.464508 4.023697L22.000000 495.000000" style="stroke:rgb(0.000000%,0.000000%,0.000000%); stroke-width: 1.000000;stroke-linecap: round;stroke-linejoin: round;stroke-miterlimit: 10.000000;fill: none;"></path>
  <path d="M327.385254 413.164856C327.385254 369.761749,310.140869 328.141510,279.452560 297.453201C248.764252 266.764893,207.144012 249.520508,163.740906 249.520508C120.337799 249.520508,78.717560 266.764893,48.029251 297.453201C17.340942 328.141510,0.096558 369.761749,0.096558 413.164856C0.096558 456.567963,17.340942 498.188202,48.029251 528.876511C78.717560 559.564819,120.337799 576.809204,163.740906 576.809204C207.144012 576.809204,248.764252 559.564819,279.452560 528.876511C310.140869 498.188202,327.385254 456.567963,327.385254 413.164856Z" style="stroke:rgb(25.500488%,41.000366%,88.400269%); stroke-width: 1.000000;stroke-linecap: round;stroke-linejoin: round;stroke-miterlimit: 10.000000;fill: none;"></path>
  <path d="M610.832458 413.164856C610.832458 369.761749,593.588074 328.141510,562.899765 297.453201C532.211456 266.764893,490.591217 249.520508,447.188110 249.520508C403.785004 249.520508,362.164764 266.764893,331.476456 297.453201C300.788147 328.141510,283.543762 369.761749,283.543762 413.164856C283.543762 456.567963,300.788147 498.188202,331.476456 528.876511C362.164764 559.564819,403.785004 576.809204,447.188110 576.809204C490.591217 576.809204,532.211456 559.564819,562.899765 528.876511C593.588074 498.188202,610.832458 456.567963,610.832458 413.164856Z" style="stroke:rgb(25.500488%,41.000366%,88.400269%); stroke-width: 1.000000;stroke-linecap: round;stroke-linejoin: round;stroke-miterlimit: 10.000000;fill: none;"></path>
  <path d="M469.108856 167.694000C469.108856 124.290894,451.864471 82.670654,421.176163 51.982346C390.487854 21.294037,348.867615 4.049652,305.464508 4.049652C262.061401 4.049652,220.441162 21.294037,189.752853 51.982346C159.064545 82.670654,141.820160 124.290894,141.820160 167.694000C141.820160 211.097107,159.064545 252.717346,189.752853 283.405655C220.441162 314.093964,262.061401 331.338348,305.464508 331.338348C348.867615 331.338348,390.487854 314.093964,421.176163 283.405655C451.864471 252.717346,469.108856 211.097107,469.108856 167.694000Z" style="stroke:rgb(25.500488%,41.000366%,88.400269%); stroke-width: 1.000000;stroke-linecap: round;stroke-linejoin: round;stroke-miterlimit: 10.000000;fill: none;"></path>
  <path d="M163.740906 413.164856L22.000000 495.000000" style="stroke:rgb(60.000610%,60.000610%,60.000610%); stroke-width: 1.800003;stroke-linecap: round;stroke-dasharray: 3.000000 3.000000 ;stroke-linejoin: round;stroke-miterlimit: 10.000000;fill: none;"></path>
  <path d="M167.740906 413.164856C167.740906 412.103943,167.319397 411.086609,166.569275 410.336487C165.819153 409.586365,164.801819 409.164856,163.740906 409.164856C162.679993 409.164856,161.662659 409.586365,160.912537 410.336487C160.162415 411.086609,159.740906 412.103943,159.740906 413.164856C159.740906 414.225769,160.162415 415.243103,160.912537 415.993225C161.662659 416.743347,162.679993 417.164856,163.740906 417.164856C164.801819 417.164856,165.819153 416.743347,166.569275 415.993225C167.319397 415.243103,167.740906 414.225769,167.740906 413.164856Z" style="stroke:rgb(39.999390%,39.999390%,39.999390%); stroke-width: 0.500000;stroke-linecap: round;stroke-linejoin: round;stroke-miterlimit: 10.000000;fill: none;"></path>
  <path d="M167.740906 413.164856C167.740906 412.103943,167.319397 411.086609,166.569275 410.336487C165.819153 409.586365,164.801819 409.164856,163.740906 409.164856C162.679993 409.164856,161.662659 409.586365,160.912537 410.336487C160.162415 411.086609,159.740906 412.103943,159.740906 413.164856C159.740906 414.225769,160.162415 415.243103,160.912537 415.993225C161.662659 416.743347,162.679993 417.164856,163.740906 417.164856C164.801819 417.164856,165.819153 416.743347,166.569275 415.993225C167.319397 415.243103,167.740906 414.225769,167.740906 413.164856Z" style="fill: rgb(89.999390%,0.000000%,0.000000%);stroke: none;"></path>
  <path d="M26.000000 495.000000C26.000000 493.939087,25.578491 492.921753,24.828369 492.171631C24.078247 491.421509,23.060913 491.000000,22.000000 491.000000C20.939087 491.000000,19.921753 491.421509,19.171631 492.171631C18.421509 492.921753,18.000000 493.939087,18.000000 495.000000C18.000000 496.060913,18.421509 497.078247,19.171631 497.828369C19.921753 498.578491,20.939087 499.000000,22.000000 499.000000C23.060913 499.000000,24.078247 498.578491,24.828369 497.828369C25.578491 497.078247,26.000000 496.060913,26.000000 495.000000Z" style="stroke:rgb(39.999390%,39.999390%,39.999390%); stroke-width: 0.500000;stroke-linecap: round;stroke-linejoin: round;stroke-miterlimit: 10.000000;fill: none;"></path>
  <path d="M26.000000 495.000000C26.000000 493.939087,25.578491 492.921753,24.828369 492.171631C24.078247 491.421509,23.060913 491.000000,22.000000 491.000000C20.939087 491.000000,19.921753 491.421509,19.171631 492.171631C18.421509 492.921753,18.000000 493.939087,18.000000 495.000000C18.000000 496.060913,18.421509 497.078247,19.171631 497.828369C19.921753 498.578491,20.939087 499.000000,22.000000 499.000000C23.060913 499.000000,24.078247 498.578491,24.828369 497.828369C25.578491 497.078247,26.000000 496.060913,26.000000 495.000000Z" style="fill: rgb(100.000000%,100.000000%,0.000000%);stroke: none;"></path>
  <path d="M163.740906 413.164856L305.464508 331.347000" style="stroke:rgb(60.000610%,60.000610%,60.000610%); stroke-width: 1.800003;stroke-linecap: round;stroke-dasharray: 3.000000 3.000000 ;stroke-linejoin: round;stroke-miterlimit: 10.000000;fill: none;"></path>
  <path d="M447.188110 413.164856L305.464508 331.347000" style="stroke:rgb(60.000610%,60.000610%,60.000610%); stroke-width: 1.800003;stroke-linecap: round;stroke-dasharray: 3.000000 3.000000 ;stroke-linejoin: round;stroke-miterlimit: 10.000000;fill: none;"></path>
  <path d="M167.740906 413.164856C167.740906 412.103943,167.319397 411.086609,166.569275 410.336487C165.819153 409.586365,164.801819 409.164856,163.740906 409.164856C162.679993 409.164856,161.662659 409.586365,160.912537 410.336487C160.162415 411.086609,159.740906 412.103943,159.740906 413.164856C159.740906 414.225769,160.162415 415.243103,160.912537 415.993225C161.662659 416.743347,162.679993 417.164856,163.740906 417.164856C164.801819 417.164856,165.819153 416.743347,166.569275 415.993225C167.319397 415.243103,167.740906 414.225769,167.740906 413.164856Z" style="stroke:rgb(39.999390%,39.999390%,39.999390%); stroke-width: 0.500000;stroke-linecap: round;stroke-linejoin: round;stroke-miterlimit: 10.000000;fill: none;"></path>
  <path d="M167.740906 413.164856C167.740906 412.103943,167.319397 411.086609,166.569275 410.336487C165.819153 409.586365,164.801819 409.164856,163.740906 409.164856C162.679993 409.164856,161.662659 409.586365,160.912537 410.336487C160.162415 411.086609,159.740906 412.103943,159.740906 413.164856C159.740906 414.225769,160.162415 415.243103,160.912537 415.993225C161.662659 416.743347,162.679993 417.164856,163.740906 417.164856C164.801819 417.164856,165.819153 416.743347,166.569275 415.993225C167.319397 415.243103,167.740906 414.225769,167.740906 413.164856Z" style="fill: rgb(89.999390%,0.000000%,0.000000%);stroke: none;"></path>
  <path d="M451.188110 413.164856C451.188110 412.103943,450.766602 411.086609,450.016479 410.336487C449.266357 409.586365,448.249023 409.164856,447.188110 409.164856C446.127197 409.164856,445.109863 409.586365,444.359741 410.336487C443.609619 411.086609,443.188110 412.103943,443.188110 413.164856C443.188110 414.225769,443.609619 415.243103,444.359741 415.993225C445.109863 416.743347,446.127197 417.164856,447.188110 417.164856C448.249023 417.164856,449.266357 416.743347,450.016479 415.993225C450.766602 415.243103,451.188110 414.225769,451.188110 413.164856Z" style="stroke:rgb(39.999390%,39.999390%,39.999390%); stroke-width: 0.500000;stroke-linecap: round;stroke-linejoin: round;stroke-miterlimit: 10.000000;fill: none;"></path>
  <path d="M451.188110 413.164856C451.188110 412.103943,450.766602 411.086609,450.016479 410.336487C449.266357 409.586365,448.249023 409.164856,447.188110 409.164856C446.127197 409.164856,445.109863 409.586365,444.359741 410.336487C443.609619 411.086609,443.188110 412.103943,443.188110 413.164856C443.188110 414.225769,443.609619 415.243103,444.359741 415.993225C445.109863 416.743347,446.127197 417.164856,447.188110 417.164856C448.249023 417.164856,449.266357 416.743347,450.016479 415.993225C450.766602 415.243103,451.188110 414.225769,451.188110 413.164856Z" style="fill: rgb(89.999390%,0.000000%,0.000000%);stroke: none;"></path>
  <path d="M309.464508 331.347000C309.464508 330.286087,309.042999 329.268753,308.292877 328.518631C307.542755 327.768509,306.525421 327.347000,305.464508 327.347000C304.403595 327.347000,303.386261 327.768509,302.636139 328.518631C301.886017 329.268753,301.464508 330.286087,301.464508 331.347000C301.464508 332.407913,301.886017 333.425247,302.636139 334.175369C303.386261 334.925491,304.403595 335.347000,305.464508 335.347000C306.525421 335.347000,307.542755 334.925491,308.292877 334.175369C309.042999 333.425247,309.464508 332.407913,309.464508 331.347000Z" style="stroke:rgb(39.999390%,39.999390%,39.999390%); stroke-width: 0.500000;stroke-linecap: round;stroke-linejoin: round;stroke-miterlimit: 10.000000;fill: none;"></path>
  <path d="M309.464508 331.347000C309.464508 330.286087,309.042999 329.268753,308.292877 328.518631C307.542755 327.768509,306.525421 327.347000,305.464508 327.347000C304.403595 327.347000,303.386261 327.768509,302.636139 328.518631C301.886017 329.268753,301.464508 330.286087,301.464508 331.347000C301.464508 332.407913,301.886017 333.425247,302.636139 334.175369C303.386261 334.925491,304.403595 335.347000,305.464508 335.347000C306.525421 335.347000,307.542755 334.925491,308.292877 334.175369C309.042999 333.425247,309.464508 332.407913,309.464508 331.347000Z" style="fill: rgb(9.800720%,9.800720%,44.000244%);stroke: none;"></path>
  <path d="M163.740906 413.164856L305.464508 494.982697" style="stroke:rgb(60.000610%,60.000610%,60.000610%); stroke-width: 1.800003;stroke-linecap: round;stroke-dasharray: 3.000000 3.000000 ;stroke-linejoin: round;stroke-miterlimit: 10.000000;fill: none;"></path>
  <path d="M447.188110 413.164856L305.464508 494.982697" style="stroke:rgb(60.000610%,60.000610%,60.000610%); stroke-width: 1.800003;stroke-linecap: round;stroke-dasharray: 3.000000 3.000000 ;stroke-linejoin: round;stroke-miterlimit: 10.000000;fill: none;"></path>
  <path d="M167.740906 413.164856C167.740906 412.103943,167.319397 411.086609,166.569275 410.336487C165.819153 409.586365,164.801819 409.164856,163.740906 409.164856C162.679993 409.164856,161.662659 409.586365,160.912537 410.336487C160.162415 411.086609,159.740906 412.103943,159.740906 413.164856C159.740906 414.225769,160.162415 415.243103,160.912537 415.993225C161.662659 416.743347,162.679993 417.164856,163.740906 417.164856C164.801819 417.164856,165.819153 416.743347,166.569275 415.993225C167.319397 415.243103,167.740906 414.225769,167.740906 413.164856Z" style="stroke:rgb(39.999390%,39.999390%,39.999390%); stroke-width: 0.500000;stroke-linecap: round;stroke-linejoin: round;stroke-miterlimit: 10.000000;fill: none;"></path>
  <path d="M167.740906 413.164856C167.740906 412.103943,167.319397 411.086609,166.569275 410.336487C165.819153 409.586365,164.801819 409.164856,163.740906 409.164856C162.679993 409.164856,161.662659 409.586365,160.912537 410.336487C160.162415 411.086609,159.740906 412.103943,159.740906 413.164856C159.740906 414.225769,160.162415 415.243103,160.912537 415.993225C161.662659 416.743347,162.679993 417.164856,163.740906 417.164856C164.801819 417.164856,165.819153 416.743347,166.569275 415.993225C167.319397 415.243103,167.740906 414.225769,167.740906 413.164856Z" style="fill: rgb(89.999390%,0.000000%,0.000000%);stroke: none;"></path>
  <path d="M451.188110 413.164856C451.188110 412.103943,450.766602 411.086609,450.016479 410.336487C449.266357 409.586365,448.249023 409.164856,447.188110 409.164856C446.127197 409.164856,445.109863 409.586365,444.359741 410.336487C443.609619 411.086609,443.188110 412.103943,443.188110 413.164856C443.188110 414.225769,443.609619 415.243103,444.359741 415.993225C445.109863 416.743347,446.127197 417.164856,447.188110 417.164856C448.249023 417.164856,449.266357 416.743347,450.016479 415.993225C450.766602 415.243103,451.188110 414.225769,451.188110 413.164856Z" style="stroke:rgb(39.999390%,39.999390%,39.999390%); stroke-width: 0.500000;stroke-linecap: round;stroke-linejoin: round;stroke-miterlimit: 10.000000;fill: none;"></path>
  <path d="M451.188110 413.164856C451.188110 412.103943,450.766602 411.086609,450.016479 410.336487C449.266357 409.586365,448.249023 409.164856,447.188110 409.164856C446.127197 409.164856,445.109863 409.586365,444.359741 410.336487C443.609619 411.086609,443.188110 412.103943,443.188110 413.164856C443.188110 414.225769,443.609619 415.243103,444.359741 415.993225C445.109863 416.743347,446.127197 417.164856,447.188110 417.164856C448.249023 417.164856,449.266357 416.743347,450.016479 415.993225C450.766602 415.243103,451.188110 414.225769,451.188110 413.164856Z" style="fill: rgb(89.999390%,0.000000%,0.000000%);stroke: none;"></path>
  <path d="M309.464508 494.982697C309.464508 493.921783,309.042999 492.904449,308.292877 492.154327C307.542755 491.404205,306.525421 490.982697,305.464508 490.982697C304.403595 490.982697,303.386261 491.404205,302.636139 492.154327C301.886017 492.904449,301.464508 493.921783,301.464508 494.982697C301.464508 496.043610,301.886017 497.060944,302.636139 497.811066C303.386261 498.561188,304.403595 498.982697,305.464508 498.982697C306.525421 498.982697,307.542755 498.561188,308.292877 497.811066C309.042999 497.060944,309.464508 496.043610,309.464508 494.982697Z" style="stroke:rgb(39.999390%,39.999390%,39.999390%); stroke-width: 0.500000;stroke-linecap: round;stroke-linejoin: round;stroke-miterlimit: 10.000000;fill: none;"></path>
  <path d="M309.464508 494.982697C309.464508 493.921783,309.042999 492.904449,308.292877 492.154327C307.542755 491.404205,306.525421 490.982697,305.464508 490.982697C304.403595 490.982697,303.386261 491.404205,302.636139 492.154327C301.886017 492.904449,301.464508 493.921783,301.464508 494.982697C301.464508 496.043610,301.886017 497.060944,302.636139 497.811066C303.386261 498.561188,304.403595 498.982697,305.464508 498.982697C306.525421 498.982697,307.542755 498.561188,308.292877 497.811066C309.042999 497.060944,309.464508 496.043610,309.464508 494.982697Z" style="fill: rgb(0.000000%,50.000000%,0.000000%);stroke: none;"></path>
  <path d="M163.740906 413.164856L163.749557 249.520493" style="stroke:rgb(60.000610%,60.000610%,60.000610%); stroke-width: 1.800003;stroke-linecap: round;stroke-dasharray: 3.000000 3.000000 ;stroke-linejoin: round;stroke-miterlimit: 10.000000;fill: none;"></path>
  <path d="M305.464508 167.694000L163.749557 249.520493" style="stroke:rgb(60.000610%,60.000610%,60.000610%); stroke-width: 1.800003;stroke-linecap: round;stroke-dasharray: 3.000000 3.000000 ;stroke-linejoin: round;stroke-miterlimit: 10.000000;fill: none;"></path>
  <path d="M167.740906 413.164856C167.740906 412.103943,167.319397 411.086609,166.569275 410.336487C165.819153 409.586365,164.801819 409.164856,163.740906 409.164856C162.679993 409.164856,161.662659 409.586365,160.912537 410.336487C160.162415 411.086609,159.740906 412.103943,159.740906 413.164856C159.740906 414.225769,160.162415 415.243103,160.912537 415.993225C161.662659 416.743347,162.679993 417.164856,163.740906 417.164856C164.801819 417.164856,165.819153 416.743347,166.569275 415.993225C167.319397 415.243103,167.740906 414.225769,167.740906 413.164856Z" style="stroke:rgb(39.999390%,39.999390%,39.999390%); stroke-width: 0.500000;stroke-linecap: round;stroke-linejoin: round;stroke-miterlimit: 10.000000;fill: none;"></path>
  <path d="M167.740906 413.164856C167.740906 412.103943,167.319397 411.086609,166.569275 410.336487C165.819153 409.586365,164.801819 409.164856,163.740906 409.164856C162.679993 409.164856,161.662659 409.586365,160.912537 410.336487C160.162415 411.086609,159.740906 412.103943,159.740906 413.164856C159.740906 414.225769,160.162415 415.243103,160.912537 415.993225C161.662659 416.743347,162.679993 417.164856,163.740906 417.164856C164.801819 417.164856,165.819153 416.743347,166.569275 415.993225C167.319397 415.243103,167.740906 414.225769,167.740906 413.164856Z" style="fill: rgb(89.999390%,0.000000%,0.000000%);stroke: none;"></path>
  <path d="M309.464508 167.694000C309.464508 166.633087,309.042999 165.615753,308.292877 164.865631C307.542755 164.115509,306.525421 163.694000,305.464508 163.694000C304.403595 163.694000,303.386261 164.115509,302.636139 164.865631C301.886017 165.615753,301.464508 166.633087,301.464508 167.694000C301.464508 168.754913,301.886017 169.772247,302.636139 170.522369C303.386261 171.272491,304.403595 171.694000,305.464508 171.694000C306.525421 171.694000,307.542755 171.272491,308.292877 170.522369C309.042999 169.772247,309.464508 168.754913,309.464508 167.694000Z" style="stroke:rgb(39.999390%,39.999390%,39.999390%); stroke-width: 0.500000;stroke-linecap: round;stroke-linejoin: round;stroke-miterlimit: 10.000000;fill: none;"></path>
  <path d="M309.464508 167.694000C309.464508 166.633087,309.042999 165.615753,308.292877 164.865631C307.542755 164.115509,306.525421 163.694000,305.464508 163.694000C304.403595 163.694000,303.386261 164.115509,302.636139 164.865631C301.886017 165.615753,301.464508 166.633087,301.464508 167.694000C301.464508 168.754913,301.886017 169.772247,302.636139 170.522369C303.386261 171.272491,304.403595 171.694000,305.464508 171.694000C306.525421 171.694000,307.542755 171.272491,308.292877 170.522369C309.042999 169.772247,309.464508 168.754913,309.464508 167.694000Z" style="fill: rgb(89.999390%,0.000000%,0.000000%);stroke: none;"></path>
  <path d="M167.749557 249.520493C167.749557 248.459579,167.328049 247.442245,166.577927 246.692123C165.827805 245.942001,164.810471 245.520493,163.749557 245.520493C162.688644 245.520493,161.671310 245.942001,160.921188 246.692123C160.171066 247.442245,159.749557 248.459579,159.749557 249.520493C159.749557 250.581406,160.171066 251.598740,160.921188 252.348862C161.671310 253.098984,162.688644 253.520493,163.749557 253.520493C164.810471 253.520493,165.827805 253.098984,166.577927 252.348862C167.328049 251.598740,167.749557 250.581406,167.749557 249.520493Z" style="stroke:rgb(39.999390%,39.999390%,39.999390%); stroke-width: 0.500000;stroke-linecap: round;stroke-linejoin: round;stroke-miterlimit: 10.000000;fill: none;"></path>
  <path d="M167.749557 249.520493C167.749557 248.459579,167.328049 247.442245,166.577927 246.692123C165.827805 245.942001,164.810471 245.520493,163.749557 245.520493C162.688644 245.520493,161.671310 245.942001,160.921188 246.692123C160.171066 247.442245,159.749557 248.459579,159.749557 249.520493C159.749557 250.581406,160.171066 251.598740,160.921188 252.348862C161.671310 253.098984,162.688644 253.520493,163.749557 253.520493C164.810471 253.520493,165.827805 253.098984,166.577927 252.348862C167.328049 251.598740,167.749557 250.581406,167.749557 249.520493Z" style="fill: rgb(0.000000%,50.000000%,0.000000%);stroke: none;"></path>
  <path d="M163.740906 413.164856L305.455856 331.338348" style="stroke:rgb(60.000610%,60.000610%,60.000610%); stroke-width: 1.800003;stroke-linecap: round;stroke-dasharray: 3.000000 3.000000 ;stroke-linejoin: round;stroke-miterlimit: 10.000000;fill: none;"></path>
  <path d="M305.464508 167.694000L305.455856 331.338348" style="stroke:rgb(60.000610%,60.000610%,60.000610%); stroke-width: 1.800003;stroke-linecap: round;stroke-dasharray: 3.000000 3.000000 ;stroke-linejoin: round;stroke-miterlimit: 10.000000;fill: none;"></path>
  <path d="M167.740906 413.164856C167.740906 412.103943,167.319397 411.086609,166.569275 410.336487C165.819153 409.586365,164.801819 409.164856,163.740906 409.164856C162.679993 409.164856,161.662659 409.586365,160.912537 410.336487C160.162415 411.086609,159.740906 412.103943,159.740906 413.164856C159.740906 414.225769,160.162415 415.243103,160.912537 415.993225C161.662659 416.743347,162.679993 417.164856,163.740906 417.164856C164.801819 417.164856,165.819153 416.743347,166.569275 415.993225C167.319397 415.243103,167.740906 414.225769,167.740906 413.164856Z" style="stroke:rgb(39.999390%,39.999390%,39.999390%); stroke-width: 0.500000;stroke-linecap: round;stroke-linejoin: round;stroke-miterlimit: 10.000000;fill: none;"></path>
  <path d="M167.740906 413.164856C167.740906 412.103943,167.319397 411.086609,166.569275 410.336487C165.819153 409.586365,164.801819 409.164856,163.740906 409.164856C162.679993 409.164856,161.662659 409.586365,160.912537 410.336487C160.162415 411.086609,159.740906 412.103943,159.740906 413.164856C159.740906 414.225769,160.162415 415.243103,160.912537 415.993225C161.662659 416.743347,162.679993 417.164856,163.740906 417.164856C164.801819 417.164856,165.819153 416.743347,166.569275 415.993225C167.319397 415.243103,167.740906 414.225769,167.740906 413.164856Z" style="fill: rgb(89.999390%,0.000000%,0.000000%);stroke: none;"></path>
  <path d="M309.464508 167.694000C309.464508 166.633087,309.042999 165.615753,308.292877 164.865631C307.542755 164.115509,306.525421 163.694000,305.464508 163.694000C304.403595 163.694000,303.386261 164.115509,302.636139 164.865631C301.886017 165.615753,301.464508 166.633087,301.464508 167.694000C301.464508 168.754913,301.886017 169.772247,302.636139 170.522369C303.386261 171.272491,304.403595 171.694000,305.464508 171.694000C306.525421 171.694000,307.542755 171.272491,308.292877 170.522369C309.042999 169.772247,309.464508 168.754913,309.464508 167.694000Z" style="stroke:rgb(39.999390%,39.999390%,39.999390%); stroke-width: 0.500000;stroke-linecap: round;stroke-linejoin: round;stroke-miterlimit: 10.000000;fill: none;"></path>
  <path d="M309.464508 167.694000C309.464508 166.633087,309.042999 165.615753,308.292877 164.865631C307.542755 164.115509,306.525421 163.694000,305.464508 163.694000C304.403595 163.694000,303.386261 164.115509,302.636139 164.865631C301.886017 165.615753,301.464508 166.633087,301.464508 167.694000C301.464508 168.754913,301.886017 169.772247,302.636139 170.522369C303.386261 171.272491,304.403595 171.694000,305.464508 171.694000C306.525421 171.694000,307.542755 171.272491,308.292877 170.522369C309.042999 169.772247,309.464508 168.754913,309.464508 167.694000Z" style="fill: rgb(89.999390%,0.000000%,0.000000%);stroke: none;"></path>
  <path d="M309.455856 331.338348C309.455856 330.277435,309.034348 329.260101,308.284225 328.509979C307.534103 327.759857,306.516769 327.338348,305.455856 327.338348C304.394943 327.338348,303.377609 327.759857,302.627487 328.509979C301.877365 329.260101,301.455856 330.277435,301.455856 331.338348C301.455856 332.399261,301.877365 333.416595,302.627487 334.166718C303.377609 334.916840,304.394943 335.338348,305.455856 335.338348C306.516769 335.338348,307.534103 334.916840,308.284225 334.166718C309.034348 333.416595,309.455856 332.399261,309.455856 331.338348Z" style="stroke:rgb(39.999390%,39.999390%,39.999390%); stroke-width: 0.500000;stroke-linecap: round;stroke-linejoin: round;stroke-miterlimit: 10.000000;fill: none;"></path>
  <path d="M309.455856 331.338348C309.455856 330.277435,309.034348 329.260101,308.284225 328.509979C307.534103 327.759857,306.516769 327.338348,305.455856 327.338348C304.394943 327.338348,303.377609 327.759857,302.627487 328.509979C301.877365 329.260101,301.455856 330.277435,301.455856 331.338348C301.455856 332.399261,301.877365 333.416595,302.627487 334.166718C303.377609 334.916840,304.394943 335.338348,305.455856 335.338348C306.516769 335.338348,307.534103 334.916840,308.284225 334.166718C309.034348 333.416595,309.455856 332.399261,309.455856 331.338348Z" style="fill: rgb(9.800720%,9.800720%,44.000244%);stroke: none;"></path>
  <path d="M447.188110 413.164856L588.929016 495.000000" style="stroke:rgb(60.000610%,60.000610%,60.000610%); stroke-width: 1.800003;stroke-linecap: round;stroke-dasharray: 3.000000 3.000000 ;stroke-linejoin: round;stroke-miterlimit: 10.000000;fill: none;"></path>
  <path d="M451.188110 413.164856C451.188110 412.103943,450.766602 411.086609,450.016479 410.336487C449.266357 409.586365,448.249023 409.164856,447.188110 409.164856C446.127197 409.164856,445.109863 409.586365,444.359741 410.336487C443.609619 411.086609,443.188110 412.103943,443.188110 413.164856C443.188110 414.225769,443.609619 415.243103,444.359741 415.993225C445.109863 416.743347,446.127197 417.164856,447.188110 417.164856C448.249023 417.164856,449.266357 416.743347,450.016479 415.993225C450.766602 415.243103,451.188110 414.225769,451.188110 413.164856Z" style="stroke:rgb(39.999390%,39.999390%,39.999390%); stroke-width: 0.500000;stroke-linecap: round;stroke-linejoin: round;stroke-miterlimit: 10.000000;fill: none;"></path>
  <path d="M451.188110 413.164856C451.188110 412.103943,450.766602 411.086609,450.016479 410.336487C449.266357 409.586365,448.249023 409.164856,447.188110 409.164856C446.127197 409.164856,445.109863 409.586365,444.359741 410.336487C443.609619 411.086609,443.188110 412.103943,443.188110 413.164856C443.188110 414.225769,443.609619 415.243103,444.359741 415.993225C445.109863 416.743347,446.127197 417.164856,447.188110 417.164856C448.249023 417.164856,449.266357 416.743347,450.016479 415.993225C450.766602 415.243103,451.188110 414.225769,451.188110 413.164856Z" style="fill: rgb(89.999390%,0.000000%,0.000000%);stroke: none;"></path>
  <path d="M592.929016 495.000000C592.929016 493.939087,592.507507 492.921753,591.757385 492.171631C591.007263 491.421509,589.989929 491.000000,588.929016 491.000000C587.868103 491.000000,586.850769 491.421509,586.100647 492.171631C585.350525 492.921753,584.929016 493.939087,584.929016 495.000000C584.929016 496.060913,585.350525 497.078247,586.100647 497.828369C586.850769 498.578491,587.868103 499.000000,588.929016 499.000000C589.989929 499.000000,591.007263 498.578491,591.757385 497.828369C592.507507 497.078247,592.929016 496.060913,592.929016 495.000000Z" style="stroke:rgb(39.999390%,39.999390%,39.999390%); stroke-width: 0.500000;stroke-linecap: round;stroke-linejoin: round;stroke-miterlimit: 10.000000;fill: none;"></path>
  <path d="M592.929016 495.000000C592.929016 493.939087,592.507507 492.921753,591.757385 492.171631C591.007263 491.421509,589.989929 491.000000,588.929016 491.000000C587.868103 491.000000,586.850769 491.421509,586.100647 492.171631C585.350525 492.921753,584.929016 493.939087,584.929016 495.000000C584.929016 496.060913,585.350525 497.078247,586.100647 497.828369C586.850769 498.578491,587.868103 499.000000,588.929016 499.000000C589.989929 499.000000,591.007263 498.578491,591.757385 497.828369C592.507507 497.078247,592.929016 496.060913,592.929016 495.000000Z" style="fill: rgb(100.000000%,100.000000%,0.000000%);stroke: none;"></path>
  <path d="M447.188110 413.164856L305.473160 331.338348" style="stroke:rgb(60.000610%,60.000610%,60.000610%); stroke-width: 1.800003;stroke-linecap: round;stroke-dasharray: 3.000000 3.000000 ;stroke-linejoin: round;stroke-miterlimit: 10.000000;fill: none;"></path>
  <path d="M305.464508 167.694000L305.473160 331.338348" style="stroke:rgb(60.000610%,60.000610%,60.000610%); stroke-width: 1.800003;stroke-linecap: round;stroke-dasharray: 3.000000 3.000000 ;stroke-linejoin: round;stroke-miterlimit: 10.000000;fill: none;"></path>
  <path d="M451.188110 413.164856C451.188110 412.103943,450.766602 411.086609,450.016479 410.336487C449.266357 409.586365,448.249023 409.164856,447.188110 409.164856C446.127197 409.164856,445.109863 409.586365,444.359741 410.336487C443.609619 411.086609,443.188110 412.103943,443.188110 413.164856C443.188110 414.225769,443.609619 415.243103,444.359741 415.993225C445.109863 416.743347,446.127197 417.164856,447.188110 417.164856C448.249023 417.164856,449.266357 416.743347,450.016479 415.993225C450.766602 415.243103,451.188110 414.225769,451.188110 413.164856Z" style="stroke:rgb(39.999390%,39.999390%,39.999390%); stroke-width: 0.500000;stroke-linecap: round;stroke-linejoin: round;stroke-miterlimit: 10.000000;fill: none;"></path>
  <path d="M451.188110 413.164856C451.188110 412.103943,450.766602 411.086609,450.016479 410.336487C449.266357 409.586365,448.249023 409.164856,447.188110 409.164856C446.127197 409.164856,445.109863 409.586365,444.359741 410.336487C443.609619 411.086609,443.188110 412.103943,443.188110 413.164856C443.188110 414.225769,443.609619 415.243103,444.359741 415.993225C445.109863 416.743347,446.127197 417.164856,447.188110 417.164856C448.249023 417.164856,449.266357 416.743347,450.016479 415.993225C450.766602 415.243103,451.188110 414.225769,451.188110 413.164856Z" style="fill: rgb(89.999390%,0.000000%,0.000000%);stroke: none;"></path>
  <path d="M309.464508 167.694000C309.464508 166.633087,309.042999 165.615753,308.292877 164.865631C307.542755 164.115509,306.525421 163.694000,305.464508 163.694000C304.403595 163.694000,303.386261 164.115509,302.636139 164.865631C301.886017 165.615753,301.464508 166.633087,301.464508 167.694000C301.464508 168.754913,301.886017 169.772247,302.636139 170.522369C303.386261 171.272491,304.403595 171.694000,305.464508 171.694000C306.525421 171.694000,307.542755 171.272491,308.292877 170.522369C309.042999 169.772247,309.464508 168.754913,309.464508 167.694000Z" style="stroke:rgb(39.999390%,39.999390%,39.999390%); stroke-width: 0.500000;stroke-linecap: round;stroke-linejoin: round;stroke-miterlimit: 10.000000;fill: none;"></path>
  <path d="M309.464508 167.694000C309.464508 166.633087,309.042999 165.615753,308.292877 164.865631C307.542755 164.115509,306.525421 163.694000,305.464508 163.694000C304.403595 163.694000,303.386261 164.115509,302.636139 164.865631C301.886017 165.615753,301.464508 166.633087,301.464508 167.694000C301.464508 168.754913,301.886017 169.772247,302.636139 170.522369C303.386261 171.272491,304.403595 171.694000,305.464508 171.694000C306.525421 171.694000,307.542755 171.272491,308.292877 170.522369C309.042999 169.772247,309.464508 168.754913,309.464508 167.694000Z" style="fill: rgb(89.999390%,0.000000%,0.000000%);stroke: none;"></path>
  <path d="M309.473160 331.338348C309.473160 330.277435,309.051651 329.260101,308.301529 328.509979C307.551407 327.759857,306.534073 327.338348,305.473160 327.338348C304.412247 327.338348,303.394913 327.759857,302.644791 328.509979C301.894669 329.260101,301.473160 330.277435,301.473160 331.338348C301.473160 332.399261,301.894669 333.416595,302.644791 334.166718C303.394913 334.916840,304.412247 335.338348,305.473160 335.338348C306.534073 335.338348,307.551407 334.916840,308.301529 334.166718C309.051651 333.416595,309.473160 332.399261,309.473160 331.338348Z" style="stroke:rgb(39.999390%,39.999390%,39.999390%); stroke-width: 0.500000;stroke-linecap: round;stroke-linejoin: round;stroke-miterlimit: 10.000000;fill: none;"></path>
  <path d="M309.473160 331.338348C309.473160 330.277435,309.051651 329.260101,308.301529 328.509979C307.551407 327.759857,306.534073 327.338348,305.473160 327.338348C304.412247 327.338348,303.394913 327.759857,302.644791 328.509979C301.894669 329.260101,301.473160 330.277435,301.473160 331.338348C301.473160 332.399261,301.894669 333.416595,302.644791 334.166718C303.394913 334.916840,304.412247 335.338348,305.473160 335.338348C306.534073 335.338348,307.551407 334.916840,308.301529 334.166718C309.051651 333.416595,309.473160 332.399261,309.473160 331.338348Z" style="fill: rgb(9.800720%,9.800720%,44.000244%);stroke: none;"></path>
  <path d="M447.188110 413.164856L447.179459 249.520493" style="stroke:rgb(60.000610%,60.000610%,60.000610%); stroke-width: 1.800003;stroke-linecap: round;stroke-dasharray: 3.000000 3.000000 ;stroke-linejoin: round;stroke-miterlimit: 10.000000;fill: none;"></path>
  <path d="M305.464508 167.694000L447.179459 249.520493" style="stroke:rgb(60.000610%,60.000610%,60.000610%); stroke-width: 1.800003;stroke-linecap: round;stroke-dasharray: 3.000000 3.000000 ;stroke-linejoin: round;stroke-miterlimit: 10.000000;fill: none;"></path>
  <path d="M451.188110 413.164856C451.188110 412.103943,450.766602 411.086609,450.016479 410.336487C449.266357 409.586365,448.249023 409.164856,447.188110 409.164856C446.127197 409.164856,445.109863 409.586365,444.359741 410.336487C443.609619 411.086609,443.188110 412.103943,443.188110 413.164856C443.188110 414.225769,443.609619 415.243103,444.359741 415.993225C445.109863 416.743347,446.127197 417.164856,447.188110 417.164856C448.249023 417.164856,449.266357 416.743347,450.016479 415.993225C450.766602 415.243103,451.188110 414.225769,451.188110 413.164856Z" style="stroke:rgb(39.999390%,39.999390%,39.999390%); stroke-width: 0.500000;stroke-linecap: round;stroke-linejoin: round;stroke-miterlimit: 10.000000;fill: none;"></path>
  <path d="M451.188110 413.164856C451.188110 412.103943,450.766602 411.086609,450.016479 410.336487C449.266357 409.586365,448.249023 409.164856,447.188110 409.164856C446.127197 409.164856,445.109863 409.586365,444.359741 410.336487C443.609619 411.086609,443.188110 412.103943,443.188110 413.164856C443.188110 414.225769,443.609619 415.243103,444.359741 415.993225C445.109863 416.743347,446.127197 417.164856,447.188110 417.164856C448.249023 417.164856,449.266357 416.743347,450.016479 415.993225C450.766602 415.243103,451.188110 414.225769,451.188110 413.164856Z" style="fill: rgb(89.999390%,0.000000%,0.000000%);stroke: none;"></path>
  <path d="M309.464508 167.694000C309.464508 166.633087,309.042999 165.615753,308.292877 164.865631C307.542755 164.115509,306.525421 163.694000,305.464508 163.694000C304.403595 163.694000,303.386261 164.115509,302.636139 164.865631C301.886017 165.615753,301.464508 166.633087,301.464508 167.694000C301.464508 168.754913,301.886017 169.772247,302.636139 170.522369C303.386261 171.272491,304.403595 171.694000,305.464508 171.694000C306.525421 171.694000,307.542755 171.272491,308.292877 170.522369C309.042999 169.772247,309.464508 168.754913,309.464508 167.694000Z" style="stroke:rgb(39.999390%,39.999390%,39.999390%); stroke-width: 0.500000;stroke-linecap: round;stroke-linejoin: round;stroke-miterlimit: 10.000000;fill: none;"></path>
  <path d="M309.464508 167.694000C309.464508 166.633087,309.042999 165.615753,308.292877 164.865631C307.542755 164.115509,306.525421 163.694000,305.464508 163.694000C304.403595 163.694000,303.386261 164.115509,302.636139 164.865631C301.886017 165.615753,301.464508 166.633087,301.464508 167.694000C301.464508 168.754913,301.886017 169.772247,302.636139 170.522369C303.386261 171.272491,304.403595 171.694000,305.464508 171.694000C306.525421 171.694000,307.542755 171.272491,308.292877 170.522369C309.042999 169.772247,309.464508 168.754913,309.464508 167.694000Z" style="fill: rgb(89.999390%,0.000000%,0.000000%);stroke: none;"></path>
  <path d="M451.179459 249.520493C451.179459 248.459579,450.757950 247.442245,450.007828 246.692123C449.257706 245.942001,448.240372 245.520493,447.179459 245.520493C446.118546 245.520493,445.101212 245.942001,444.351089 246.692123C443.600967 247.442245,443.179459 248.459579,443.179459 249.520493C443.179459 250.581406,443.600967 251.598740,444.351089 252.348862C445.101212 253.098984,446.118546 253.520493,447.179459 253.520493C448.240372 253.520493,449.257706 253.098984,450.007828 252.348862C450.757950 251.598740,451.179459 250.581406,451.179459 249.520493Z" style="stroke:rgb(39.999390%,39.999390%,39.999390%); stroke-width: 0.500000;stroke-linecap: round;stroke-linejoin: round;stroke-miterlimit: 10.000000;fill: none;"></path>
  <path d="M451.179459 249.520493C451.179459 248.459579,450.757950 247.442245,450.007828 246.692123C449.257706 245.942001,448.240372 245.520493,447.179459 245.520493C446.118546 245.520493,445.101212 245.942001,444.351089 246.692123C443.600967 247.442245,443.179459 248.459579,443.179459 249.520493C443.179459 250.581406,443.600967 251.598740,444.351089 252.348862C445.101212 253.098984,446.118546 253.520493,447.179459 253.520493C448.240372 253.520493,449.257706 253.098984,450.007828 252.348862C450.757950 251.598740,451.179459 250.581406,451.179459 249.520493Z" style="fill: rgb(0.000000%,50.000000%,0.000000%);stroke: none;"></path>
  <path d="M305.464508 167.694000L305.464508 4.023697" style="stroke:rgb(60.000610%,60.000610%,60.000610%); stroke-width: 1.800003;stroke-linecap: round;stroke-dasharray: 3.000000 3.000000 ;stroke-linejoin: round;stroke-miterlimit: 10.000000;fill: none;"></path>
  <path d="M309.464508 167.694000C309.464508 166.633087,309.042999 165.615753,308.292877 164.865631C307.542755 164.115509,306.525421 163.694000,305.464508 163.694000C304.403595 163.694000,303.386261 164.115509,302.636139 164.865631C301.886017 165.615753,301.464508 166.633087,301.464508 167.694000C301.464508 168.754913,301.886017 169.772247,302.636139 170.522369C303.386261 171.272491,304.403595 171.694000,305.464508 171.694000C306.525421 171.694000,307.542755 171.272491,308.292877 170.522369C309.042999 169.772247,309.464508 168.754913,309.464508 167.694000Z" style="stroke:rgb(39.999390%,39.999390%,39.999390%); stroke-width: 0.500000;stroke-linecap: round;stroke-linejoin: round;stroke-miterlimit: 10.000000;fill: none;"></path>
  <path d="M309.464508 167.694000C309.464508 166.633087,309.042999 165.615753,308.292877 164.865631C307.542755 164.115509,306.525421 163.694000,305.464508 163.694000C304.403595 163.694000,303.386261 164.115509,302.636139 164.865631C301.886017 165.615753,301.464508 166.633087,301.464508 167.694000C301.464508 168.754913,301.886017 169.772247,302.636139 170.522369C303.386261 171.272491,304.403595 171.694000,305.464508 171.694000C306.525421 171.694000,307.542755 171.272491,308.292877 170.522369C309.042999 169.772247,309.464508 168.754913,309.464508 167.694000Z" style="fill: rgb(89.999390%,0.000000%,0.000000%);stroke: none;"></path>
  <path d="M309.464508 4.023697C309.464508 2.962784,309.042999 1.945450,308.292877 1.195328C307.542755 0.445206,306.525421 0.023697,305.464508 0.023697C304.403595 0.023697,303.386261 0.445206,302.636139 1.195328C301.886017 1.945450,301.464508 2.962784,301.464508 4.023697C301.464508 5.084610,301.886017 6.101944,302.636139 6.852066C303.386261 7.602188,304.403595 8.023697,305.464508 8.023697C306.525421 8.023697,307.542755 7.602188,308.292877 6.852066C309.042999 6.101944,309.464508 5.084610,309.464508 4.023697Z" style="stroke:rgb(39.999390%,39.999390%,39.999390%); stroke-width: 0.500000;stroke-linecap: round;stroke-linejoin: round;stroke-miterlimit: 10.000000;fill: none;"></path>
  <path d="M309.464508 4.023697C309.464508 2.962784,309.042999 1.945450,308.292877 1.195328C307.542755 0.445206,306.525421 0.023697,305.464508 0.023697C304.403595 0.023697,303.386261 0.445206,302.636139 1.195328C301.886017 1.945450,301.464508 2.962784,301.464508 4.023697C301.464508 5.084610,301.886017 6.101944,302.636139 6.852066C303.386261 7.602188,304.403595 8.023697,305.464508 8.023697C306.525421 8.023697,307.542755 7.602188,308.292877 6.852066C309.042999 6.101944,309.464508 5.084610,309.464508 4.023697Z" style="fill: rgb(100.000000%,100.000000%,0.000000%);stroke: none;"></path>
</svg>
