<?xml version="1.0"?>
<!-- Created by MetaPost 2.00 on 2022.03.31:1000 -->
<svg version="1.1" xmlns="http://www.w3.org/2000/svg" xmlns:xlink="http://www.w3.org/1999/xlink" width="634.815857" height="918.280365" viewBox="0 0 634.815857 918.280365">
<!-- Original BoundingBox: -33.943420 -175.675674 600.872437 742.604691 -->
  <path d="M33.000000 742.000000L599.929016 742.000000L599.929016 175.070984L33.000000 175.070984L33.000000 742.000000Z" style="fill: rgb(100.000000%,100.000000%,100.000000%);stroke: none;"></path>
  <path d="M33.000000 742.000000L599.929016 742.000000" style="stroke:rgb(0.000000%,0.000000%,0.000000%); stroke-width: 1.000000;stroke-linecap: round;stroke-linejoin: round;stroke-miterlimit: 10.000000;fill: none;"></path>
  <path d="M599.929016 742.000000L599.929016 175.070984" style="stroke:rgb(0.000000%,0.000000%,0.000000%); stroke-width: 1.000000;stroke-linecap: round;stroke-linejoin: round;stroke-miterlimit: 10.000000;fill: none;"></path>
  <path d="M599.929016 175.070984L33.000000 175.070984" style="stroke:rgb(0.000000%,0.000000%,0.000000%); stroke-width: 1.000000;stroke-linecap: round;stroke-linejoin: round;stroke-miterlimit: 10.000000;fill: none;"></path>
  <path d="M33.000000 175.070984L33.000000 742.000000" style="stroke:rgb(0.000000%,0.000000%,0.000000%); stroke-width: 1.000000;stroke-linecap: round;stroke-linejoin: round;stroke-miterlimit: 10.000000;fill: none;"></path>
  <path d="M633.372437 600.267746C633.372437 516.214798,599.977570 435.614502,540.547653 376.184601C481.117752 316.754684,400.517456 283.359818,316.464508 283.359818C232.411560 283.359818,151.811264 316.754684,92.381363 376.184601C32.951447 435.614502,-0.443420 516.214798,-0.443420 600.267746C-0.443420 684.320694,32.951447 764.920990,92.381363 824.350891C151.811264 883.780807,232.411560 917.175674,316.464508 917.175674C400.517456 917.175674,481.117752 883.780807,540.547653 824.350891C599.977570 764.920990,633.372437 684.320694,633.372437 600.267746Z" style="stroke:rgb(25.500488%,41.000366%,88.400269%); stroke-width: 1.000000;stroke-linecap: round;stroke-linejoin: round;stroke-miterlimit: 10.000000;fill: none;"></path>
  <path d="M633.372437 316.803238C633.372437 232.750290,599.977570 152.149994,540.547653 92.720093C481.117752 33.290176,400.517456 -0.104691,316.464508 -0.104691C232.411560 -0.104691,151.811264 33.290176,92.381363 92.720093C32.951447 152.149994,-0.443420 232.750290,-0.443420 316.803238C-0.443420 400.856186,32.951447 481.456482,92.381363 540.886383C151.811264 600.316299,232.411560 633.711166,316.464508 633.711166C400.517456 633.711166,481.117752 600.316299,540.547653 540.886383C599.977570 481.456482,633.372437 400.856186,633.372437 316.803238Z" style="stroke:rgb(25.500488%,41.000366%,88.400269%); stroke-width: 1.000000;stroke-linecap: round;stroke-linejoin: round;stroke-miterlimit: 10.000000;fill: none;"></path>
  <path d="M316.464508 600.267746L33.000000 742.000000" style="stroke:rgb(60.000610%,60.000610%,60.000610%); stroke-width: 1.800003;stroke-linecap: round;stroke-dasharray: 3.000000 3.000000 ;stroke-linejoin: round;stroke-miterlimit: 10.000000;fill: none;"></path>
  <path d="M320.464508 600.267746C320.464508 599.206833,320.042999 598.189499,319.292877 597.439377C318.542755 596.689255,317.525421 596.267746,316.464508 596.267746C315.403595 596.267746,314.386261 596.689255,313.636139 597.439377C312.886017 598.189499,312.464508 599.206833,312.464508 600.267746C312.464508 601.328659,312.886017 602.345993,313.636139 603.096115C314.386261 603.846237,315.403595 604.267746,316.464508 604.267746C317.525421 604.267746,318.542755 603.846237,319.292877 603.096115C320.042999 602.345993,320.464508 601.328659,320.464508 600.267746Z" style="stroke:rgb(39.999390%,39.999390%,39.999390%); stroke-width: 0.500000;stroke-linecap: round;stroke-linejoin: round;stroke-miterlimit: 10.000000;fill: none;"></path>
  <path d="M320.464508 600.267746C320.464508 599.206833,320.042999 598.189499,319.292877 597.439377C318.542755 596.689255,317.525421 596.267746,316.464508 596.267746C315.403595 596.267746,314.386261 596.689255,313.636139 597.439377C312.886017 598.189499,312.464508 599.206833,312.464508 600.267746C312.464508 601.328659,312.886017 602.345993,313.636139 603.096115C314.386261 603.846237,315.403595 604.267746,316.464508 604.267746C317.525421 604.267746,318.542755 603.846237,319.292877 603.096115C320.042999 602.345993,320.464508 601.328659,320.464508 600.267746Z" style="fill: rgb(89.999390%,0.000000%,0.000000%);stroke: none;"></path>
  <path d="M37.000000 742.000000C37.000000 740.939087,36.578491 739.921753,35.828369 739.171631C35.078247 738.421509,34.060913 738.000000,33.000000 738.000000C31.939087 738.000000,30.921753 738.421509,30.171631 739.171631C29.421509 739.921753,29.000000 740.939087,29.000000 742.000000C29.000000 743.060913,29.421509 744.078247,30.171631 744.828369C30.921753 745.578491,31.939087 746.000000,33.000000 746.000000C34.060913 746.000000,35.078247 745.578491,35.828369 744.828369C36.578491 744.078247,37.000000 743.060913,37.000000 742.000000Z" style="stroke:rgb(39.999390%,39.999390%,39.999390%); stroke-width: 0.500000;stroke-linecap: round;stroke-linejoin: round;stroke-miterlimit: 10.000000;fill: none;"></path>
  <path d="M37.000000 742.000000C37.000000 740.939087,36.578491 739.921753,35.828369 739.171631C35.078247 738.421509,34.060913 738.000000,33.000000 738.000000C31.939087 738.000000,30.921753 738.421509,30.171631 739.171631C29.421509 739.921753,29.000000 740.939087,29.000000 742.000000C29.000000 743.060913,29.421509 744.078247,30.171631 744.828369C30.921753 745.578491,31.939087 746.000000,33.000000 746.000000C34.060913 746.000000,35.078247 745.578491,35.828369 744.828369C36.578491 744.078247,37.000000 743.060913,37.000000 742.000000Z" style="fill: rgb(100.000000%,100.000000%,0.000000%);stroke: none;"></path>
  <path d="M316.464508 600.267746L599.929016 742.000000" style="stroke:rgb(60.000610%,60.000610%,60.000610%); stroke-width: 1.800003;stroke-linecap: round;stroke-dasharray: 3.000000 3.000000 ;stroke-linejoin: round;stroke-miterlimit: 10.000000;fill: none;"></path>
  <path d="M320.464508 600.267746C320.464508 599.206833,320.042999 598.189499,319.292877 597.439377C318.542755 596.689255,317.525421 596.267746,316.464508 596.267746C315.403595 596.267746,314.386261 596.689255,313.636139 597.439377C312.886017 598.189499,312.464508 599.206833,312.464508 600.267746C312.464508 601.328659,312.886017 602.345993,313.636139 603.096115C314.386261 603.846237,315.403595 604.267746,316.464508 604.267746C317.525421 604.267746,318.542755 603.846237,319.292877 603.096115C320.042999 602.345993,320.464508 601.328659,320.464508 600.267746Z" style="stroke:rgb(39.999390%,39.999390%,39.999390%); stroke-width: 0.500000;stroke-linecap: round;stroke-linejoin: round;stroke-miterlimit: 10.000000;fill: none;"></path>
  <path d="M320.464508 600.267746C320.464508 599.206833,320.042999 598.189499,319.292877 597.439377C318.542755 596.689255,317.525421 596.267746,316.464508 596.267746C315.403595 596.267746,314.386261 596.689255,313.636139 597.439377C312.886017 598.189499,312.464508 599.206833,312.464508 600.267746C312.464508 601.328659,312.886017 602.345993,313.636139 603.096115C314.386261 603.846237,315.403595 604.267746,316.464508 604.267746C317.525421 604.267746,318.542755 603.846237,319.292877 603.096115C320.042999 602.345993,320.464508 601.328659,320.464508 600.267746Z" style="fill: rgb(89.999390%,0.000000%,0.000000%);stroke: none;"></path>
  <path d="M603.929016 742.000000C603.929016 740.939087,603.507507 739.921753,602.757385 739.171631C602.007263 738.421509,600.989929 738.000000,599.929016 738.000000C598.868103 738.000000,597.850769 738.421509,597.100647 739.171631C596.350525 739.921753,595.929016 740.939087,595.929016 742.000000C595.929016 743.060913,596.350525 744.078247,597.100647 744.828369C597.850769 745.578491,598.868103 746.000000,599.929016 746.000000C600.989929 746.000000,602.007263 745.578491,602.757385 744.828369C603.507507 744.078247,603.929016 743.060913,603.929016 742.000000Z" style="stroke:rgb(39.999390%,39.999390%,39.999390%); stroke-width: 0.500000;stroke-linecap: round;stroke-linejoin: round;stroke-miterlimit: 10.000000;fill: none;"></path>
  <path d="M603.929016 742.000000C603.929016 740.939087,603.507507 739.921753,602.757385 739.171631C602.007263 738.421509,600.989929 738.000000,599.929016 738.000000C598.868103 738.000000,597.850769 738.421509,597.100647 739.171631C596.350525 739.921753,595.929016 740.939087,595.929016 742.000000C595.929016 743.060913,596.350525 744.078247,597.100647 744.828369C597.850769 745.578491,598.868103 746.000000,599.929016 746.000000C600.989929 746.000000,602.007263 745.578491,602.757385 744.828369C603.507507 744.078247,603.929016 743.060913,603.929016 742.000000Z" style="fill: rgb(100.000000%,100.000000%,0.000000%);stroke: none;"></path>
  <path d="M316.464508 600.267746L33.017303 458.535492" style="stroke:rgb(60.000610%,60.000610%,60.000610%); stroke-width: 1.800003;stroke-linecap: round;stroke-dasharray: 3.000000 3.000000 ;stroke-linejoin: round;stroke-miterlimit: 10.000000;fill: none;"></path>
  <path d="M316.464508 316.803238L33.017303 458.535492" style="stroke:rgb(60.000610%,60.000610%,60.000610%); stroke-width: 1.800003;stroke-linecap: round;stroke-dasharray: 3.000000 3.000000 ;stroke-linejoin: round;stroke-miterlimit: 10.000000;fill: none;"></path>
  <path d="M320.464508 600.267746C320.464508 599.206833,320.042999 598.189499,319.292877 597.439377C318.542755 596.689255,317.525421 596.267746,316.464508 596.267746C315.403595 596.267746,314.386261 596.689255,313.636139 597.439377C312.886017 598.189499,312.464508 599.206833,312.464508 600.267746C312.464508 601.328659,312.886017 602.345993,313.636139 603.096115C314.386261 603.846237,315.403595 604.267746,316.464508 604.267746C317.525421 604.267746,318.542755 603.846237,319.292877 603.096115C320.042999 602.345993,320.464508 601.328659,320.464508 600.267746Z" style="stroke:rgb(39.999390%,39.999390%,39.999390%); stroke-width: 0.500000;stroke-linecap: round;stroke-linejoin: round;stroke-miterlimit: 10.000000;fill: none;"></path>
  <path d="M320.464508 600.267746C320.464508 599.206833,320.042999 598.189499,319.292877 597.439377C318.542755 596.689255,317.525421 596.267746,316.464508 596.267746C315.403595 596.267746,314.386261 596.689255,313.636139 597.439377C312.886017 598.189499,312.464508 599.206833,312.464508 600.267746C312.464508 601.328659,312.886017 602.345993,313.636139 603.096115C314.386261 603.846237,315.403595 604.267746,316.464508 604.267746C317.525421 604.267746,318.542755 603.846237,319.292877 603.096115C320.042999 602.345993,320.464508 601.328659,320.464508 600.267746Z" style="fill: rgb(89.999390%,0.000000%,0.000000%);stroke: none;"></path>
  <path d="M320.464508 316.803238C320.464508 315.742325,320.042999 314.724991,319.292877 313.974869C318.542755 313.224747,317.525421 312.803238,316.464508 312.803238C315.403595 312.803238,314.386261 313.224747,313.636139 313.974869C312.886017 314.724991,312.464508 315.742325,312.464508 316.803238C312.464508 317.864151,312.886017 318.881485,313.636139 319.631607C314.386261 320.381729,315.403595 320.803238,316.464508 320.803238C317.525421 320.803238,318.542755 320.381729,319.292877 319.631607C320.042999 318.881485,320.464508 317.864151,320.464508 316.803238Z" style="stroke:rgb(39.999390%,39.999390%,39.999390%); stroke-width: 0.500000;stroke-linecap: round;stroke-linejoin: round;stroke-miterlimit: 10.000000;fill: none;"></path>
  <path d="M320.464508 316.803238C320.464508 315.742325,320.042999 314.724991,319.292877 313.974869C318.542755 313.224747,317.525421 312.803238,316.464508 312.803238C315.403595 312.803238,314.386261 313.224747,313.636139 313.974869C312.886017 314.724991,312.464508 315.742325,312.464508 316.803238C312.464508 317.864151,312.886017 318.881485,313.636139 319.631607C314.386261 320.381729,315.403595 320.803238,316.464508 320.803238C317.525421 320.803238,318.542755 320.381729,319.292877 319.631607C320.042999 318.881485,320.464508 317.864151,320.464508 316.803238Z" style="fill: rgb(89.999390%,0.000000%,0.000000%);stroke: none;"></path>
  <path d="M37.017303 458.535492C37.017303 457.474579,36.595795 456.457245,35.845673 455.707123C35.095551 454.957001,34.078217 454.535492,33.017303 454.535492C31.956390 454.535492,30.939056 454.957001,30.188934 455.707123C29.438812 456.457245,29.017303 457.474579,29.017303 458.535492C29.017303 459.596405,29.438812 460.613739,30.188934 461.363861C30.939056 462.113983,31.956390 462.535492,33.017303 462.535492C34.078217 462.535492,35.095551 462.113983,35.845673 461.363861C36.595795 460.613739,37.017303 459.596405,37.017303 458.535492Z" style="stroke:rgb(39.999390%,39.999390%,39.999390%); stroke-width: 0.500000;stroke-linecap: round;stroke-linejoin: round;stroke-miterlimit: 10.000000;fill: none;"></path>
  <path d="M37.017303 458.535492C37.017303 457.474579,36.595795 456.457245,35.845673 455.707123C35.095551 454.957001,34.078217 454.535492,33.017303 454.535492C31.956390 454.535492,30.939056 454.957001,30.188934 455.707123C29.438812 456.457245,29.017303 457.474579,29.017303 458.535492C29.017303 459.596405,29.438812 460.613739,30.188934 461.363861C30.939056 462.113983,31.956390 462.535492,33.017303 462.535492C34.078217 462.535492,35.095551 462.113983,35.845673 461.363861C36.595795 460.613739,37.017303 459.596405,37.017303 458.535492Z" style="fill: rgb(0.000000%,50.000000%,0.000000%);stroke: none;"></path>
  <path d="M316.464508 600.267746L599.911713 458.535492" style="stroke:rgb(60.000610%,60.000610%,60.000610%); stroke-width: 1.800003;stroke-linecap: round;stroke-dasharray: 3.000000 3.000000 ;stroke-linejoin: round;stroke-miterlimit: 10.000000;fill: none;"></path>
  <path d="M316.464508 316.803238L599.911713 458.535492" style="stroke:rgb(60.000610%,60.000610%,60.000610%); stroke-width: 1.800003;stroke-linecap: round;stroke-dasharray: 3.000000 3.000000 ;stroke-linejoin: round;stroke-miterlimit: 10.000000;fill: none;"></path>
  <path d="M320.464508 600.267746C320.464508 599.206833,320.042999 598.189499,319.292877 597.439377C318.542755 596.689255,317.525421 596.267746,316.464508 596.267746C315.403595 596.267746,314.386261 596.689255,313.636139 597.439377C312.886017 598.189499,312.464508 599.206833,312.464508 600.267746C312.464508 601.328659,312.886017 602.345993,313.636139 603.096115C314.386261 603.846237,315.403595 604.267746,316.464508 604.267746C317.525421 604.267746,318.542755 603.846237,319.292877 603.096115C320.042999 602.345993,320.464508 601.328659,320.464508 600.267746Z" style="stroke:rgb(39.999390%,39.999390%,39.999390%); stroke-width: 0.500000;stroke-linecap: round;stroke-linejoin: round;stroke-miterlimit: 10.000000;fill: none;"></path>
  <path d="M320.464508 600.267746C320.464508 599.206833,320.042999 598.189499,319.292877 597.439377C318.542755 596.689255,317.525421 596.267746,316.464508 596.267746C315.403595 596.267746,314.386261 596.689255,313.636139 597.439377C312.886017 598.189499,312.464508 599.206833,312.464508 600.267746C312.464508 601.328659,312.886017 602.345993,313.636139 603.096115C314.386261 603.846237,315.403595 604.267746,316.464508 604.267746C317.525421 604.267746,318.542755 603.846237,319.292877 603.096115C320.042999 602.345993,320.464508 601.328659,320.464508 600.267746Z" style="fill: rgb(89.999390%,0.000000%,0.000000%);stroke: none;"></path>
  <path d="M320.464508 316.803238C320.464508 315.742325,320.042999 314.724991,319.292877 313.974869C318.542755 313.224747,317.525421 312.803238,316.464508 312.803238C315.403595 312.803238,314.386261 313.224747,313.636139 313.974869C312.886017 314.724991,312.464508 315.742325,312.464508 316.803238C312.464508 317.864151,312.886017 318.881485,313.636139 319.631607C314.386261 320.381729,315.403595 320.803238,316.464508 320.803238C317.525421 320.803238,318.542755 320.381729,319.292877 319.631607C320.042999 318.881485,320.464508 317.864151,320.464508 316.803238Z" style="stroke:rgb(39.999390%,39.999390%,39.999390%); stroke-width: 0.500000;stroke-linecap: round;stroke-linejoin: round;stroke-miterlimit: 10.000000;fill: none;"></path>
  <path d="M320.464508 316.803238C320.464508 315.742325,320.042999 314.724991,319.292877 313.974869C318.542755 313.224747,317.525421 312.803238,316.464508 312.803238C315.403595 312.803238,314.386261 313.224747,313.636139 313.974869C312.886017 314.724991,312.464508 315.742325,312.464508 316.803238C312.464508 317.864151,312.886017 318.881485,313.636139 319.631607C314.386261 320.381729,315.403595 320.803238,316.464508 320.803238C317.525421 320.803238,318.542755 320.381729,319.292877 319.631607C320.042999 318.881485,320.464508 317.864151,320.464508 316.803238Z" style="fill: rgb(89.999390%,0.000000%,0.000000%);stroke: none;"></path>
  <path d="M603.911713 458.535492C603.911713 457.474579,603.490204 456.457245,602.740082 455.707123C601.989960 454.957001,600.972626 454.535492,599.911713 454.535492C598.850800 454.535492,597.833466 454.957001,597.083344 455.707123C596.333221 456.457245,595.911713 457.474579,595.911713 458.535492C595.911713 459.596405,596.333221 460.613739,597.083344 461.363861C597.833466 462.113983,598.850800 462.535492,599.911713 462.535492C600.972626 462.535492,601.989960 462.113983,602.740082 461.363861C603.490204 460.613739,603.911713 459.596405,603.911713 458.535492Z" style="stroke:rgb(39.999390%,39.999390%,39.999390%); stroke-width: 0.500000;stroke-linecap: round;stroke-linejoin: round;stroke-miterlimit: 10.000000;fill: none;"></path>
  <path d="M603.911713 458.535492C603.911713 457.474579,603.490204 456.457245,602.740082 455.707123C601.989960 454.957001,600.972626 454.535492,599.911713 454.535492C598.850800 454.535492,597.833466 454.957001,597.083344 455.707123C596.333221 456.457245,595.911713 457.474579,595.911713 458.535492C595.911713 459.596405,596.333221 460.613739,597.083344 461.363861C597.833466 462.113983,598.850800 462.535492,599.911713 462.535492C600.972626 462.535492,601.989960 462.113983,602.740082 461.363861C603.490204 460.613739,603.911713 459.596405,603.911713 458.535492Z" style="fill: rgb(0.000000%,50.000000%,0.000000%);stroke: none;"></path>
  <path d="M316.464508 316.803238L599.929016 175.070984" style="stroke:rgb(60.000610%,60.000610%,60.000610%); stroke-width: 1.800003;stroke-linecap: round;stroke-dasharray: 3.000000 3.000000 ;stroke-linejoin: round;stroke-miterlimit: 10.000000;fill: none;"></path>
  <path d="M320.464508 316.803238C320.464508 315.742325,320.042999 314.724991,319.292877 313.974869C318.542755 313.224747,317.525421 312.803238,316.464508 312.803238C315.403595 312.803238,314.386261 313.224747,313.636139 313.974869C312.886017 314.724991,312.464508 315.742325,312.464508 316.803238C312.464508 317.864151,312.886017 318.881485,313.636139 319.631607C314.386261 320.381729,315.403595 320.803238,316.464508 320.803238C317.525421 320.803238,318.542755 320.381729,319.292877 319.631607C320.042999 318.881485,320.464508 317.864151,320.464508 316.803238Z" style="stroke:rgb(39.999390%,39.999390%,39.999390%); stroke-width: 0.500000;stroke-linecap: round;stroke-linejoin: round;stroke-miterlimit: 10.000000;fill: none;"></path>
  <path d="M320.464508 316.803238C320.464508 315.742325,320.042999 314.724991,319.292877 313.974869C318.542755 313.224747,317.525421 312.803238,316.464508 312.803238C315.403595 312.803238,314.386261 313.224747,313.636139 313.974869C312.886017 314.724991,312.464508 315.742325,312.464508 316.803238C312.464508 317.864151,312.886017 318.881485,313.636139 319.631607C314.386261 320.381729,315.403595 320.803238,316.464508 320.803238C317.525421 320.803238,318.542755 320.381729,319.292877 319.631607C320.042999 318.881485,320.464508 317.864151,320.464508 316.803238Z" style="fill: rgb(89.999390%,0.000000%,0.000000%);stroke: none;"></path>
  <path d="M603.929016 175.070984C603.929016 174.010071,603.507507 172.992737,602.757385 172.242615C602.007263 171.492493,600.989929 171.070984,599.929016 171.070984C598.868103 171.070984,597.850769 171.492493,597.100647 172.242615C596.350525 172.992737,595.929016 174.010071,595.929016 175.070984C595.929016 176.131897,596.350525 177.149231,597.100647 177.899353C597.850769 178.649475,598.868103 179.070984,599.929016 179.070984C600.989929 179.070984,602.007263 178.649475,602.757385 177.899353C603.507507 177.149231,603.929016 176.131897,603.929016 175.070984Z" style="stroke:rgb(39.999390%,39.999390%,39.999390%); stroke-width: 0.500000;stroke-linecap: round;stroke-linejoin: round;stroke-miterlimit: 10.000000;fill: none;"></path>
  <path d="M603.929016 175.070984C603.929016 174.010071,603.507507 172.992737,602.757385 172.242615C602.007263 171.492493,600.989929 171.070984,599.929016 171.070984C598.868103 171.070984,597.850769 171.492493,597.100647 172.242615C596.350525 172.992737,595.929016 174.010071,595.929016 175.070984C595.929016 176.131897,596.350525 177.149231,597.100647 177.899353C597.850769 178.649475,598.868103 179.070984,599.929016 179.070984C600.989929 179.070984,602.007263 178.649475,602.757385 177.899353C603.507507 177.149231,603.929016 176.131897,603.929016 175.070984Z" style="fill: rgb(100.000000%,100.000000%,0.000000%);stroke: none;"></path>
  <path d="M316.464508 316.803238L33.000000 175.070984" style="stroke:rgb(60.000610%,60.000610%,60.000610%); stroke-width: 1.800003;stroke-linecap: round;stroke-dasharray: 3.000000 3.000000 ;stroke-linejoin: round;stroke-miterlimit: 10.000000;fill: none;"></path>
  <path d="M320.464508 316.803238C320.464508 315.742325,320.042999 314.724991,319.292877 313.974869C318.542755 313.224747,317.525421 312.803238,316.464508 312.803238C315.403595 312.803238,314.386261 313.224747,313.636139 313.974869C312.886017 314.724991,312.464508 315.742325,312.464508 316.803238C312.464508 317.864151,312.886017 318.881485,313.636139 319.631607C314.386261 320.381729,315.403595 320.803238,316.464508 320.803238C317.525421 320.803238,318.542755 320.381729,319.292877 319.631607C320.042999 318.881485,320.464508 317.864151,320.464508 316.803238Z" style="stroke:rgb(39.999390%,39.999390%,39.999390%); stroke-width: 0.500000;stroke-linecap: round;stroke-linejoin: round;stroke-miterlimit: 10.000000;fill: none;"></path>
  <path d="M320.464508 316.803238C320.464508 315.742325,320.042999 314.724991,319.292877 313.974869C318.542755 313.224747,317.525421 312.803238,316.464508 312.803238C315.403595 312.803238,314.386261 313.224747,313.636139 313.974869C312.886017 314.724991,312.464508 315.742325,312.464508 316.803238C312.464508 317.864151,312.886017 318.881485,313.636139 319.631607C314.386261 320.381729,315.403595 320.803238,316.464508 320.803238C317.525421 320.803238,318.542755 320.381729,319.292877 319.631607C320.042999 318.881485,320.464508 317.864151,320.464508 316.803238Z" style="fill: rgb(89.999390%,0.000000%,0.000000%);stroke: none;"></path>
  <path d="M37.000000 175.070984C37.000000 174.010071,36.578491 172.992737,35.828369 172.242615C35.078247 171.492493,34.060913 171.070984,33.000000 171.070984C31.939087 171.070984,30.921753 171.492493,30.171631 172.242615C29.421509 172.992737,29.000000 174.010071,29.000000 175.070984C29.000000 176.131897,29.421509 177.149231,30.171631 177.899353C30.921753 178.649475,31.939087 179.070984,33.000000 179.070984C34.060913 179.070984,35.078247 178.649475,35.828369 177.899353C36.578491 177.149231,37.000000 176.131897,37.000000 175.070984Z" style="stroke:rgb(39.999390%,39.999390%,39.999390%); stroke-width: 0.500000;stroke-linecap: round;stroke-linejoin: round;stroke-miterlimit: 10.000000;fill: none;"></path>
  <path d="M37.000000 175.070984C37.000000 174.010071,36.578491 172.992737,35.828369 172.242615C35.078247 171.492493,34.060913 171.070984,33.000000 171.070984C31.939087 171.070984,30.921753 171.492493,30.171631 172.242615C29.421509 172.992737,29.000000 174.010071,29.000000 175.070984C29.000000 176.131897,29.421509 177.149231,30.171631 177.899353C30.921753 178.649475,31.939087 179.070984,33.000000 179.070984C34.060913 179.070984,35.078247 178.649475,35.828369 177.899353C36.578491 177.149231,37.000000 176.131897,37.000000 175.070984Z" style="fill: rgb(100.000000%,100.000000%,0.000000%);stroke: none;"></path>
</svg>
