<?xml version="1.0"?>
<!-- Created by MetaPost 2.00 on 2022.03.31:1000 -->
<svg version="1.1" xmlns="http://www.w3.org/2000/svg" xmlns:xlink="http://www.w3.org/1999/xlink" width="576.782898" height="604.789444" viewBox="0 0 576.782898 604.789444">
<!-- Original BoundingBox: -4.250000 -99.904633 572.532898 504.884811 -->
  <path d="M4.000000 504.000000L570.929016 504.000000L287.464508 13.023697L4.000000 504.000000Z" style="fill: rgb(100.000000%,100.000000%,100.000000%);stroke: none;"></path>
  <path d="M4.000000 504.000000L570.929016 504.000000" style="stroke:rgb(0.000000%,0.000000%,0.000000%); stroke-width: 1.000000;stroke-linecap: round;stroke-linejoin: round;stroke-miterlimit: 10.000000;fill: none;"></path>
  <path d="M570.929016 504.000000L287.464508 13.023697" style="stroke:rgb(0.000000%,0.000000%,0.000000%); stroke-width: 1.000000;stroke-linecap: round;stroke-linejoin: round;stroke-miterlimit: 10.000000;fill: none;"></path>
  <path d="M287.464508 13.023697L4.000000 504.000000" style="stroke:rgb(0.000000%,0.000000%,0.000000%); stroke-width: 1.000000;stroke-linecap: round;stroke-linejoin: round;stroke-miterlimit: 10.000000;fill: none;"></path>
  <path d="M576.032898 472.338623C576.032898 445.728210,565.460373 420.210861,546.645401 401.395874C527.830414 382.580902,502.313065 372.008377,475.702652 372.008377C449.092239 372.008377,423.574890 382.580902,404.759903 401.395874C385.944931 420.210861,375.372406 445.728210,375.372406 472.338623C375.372406 498.949036,385.944931 524.466385,404.759903 543.281372C423.574890 562.096344,449.092239 572.668869,475.702652 572.668869C502.313065 572.668869,527.830414 562.096344,546.645401 543.281372C565.460373 524.466385,576.032898 498.949036,576.032898 472.338623Z" style="stroke:rgb(25.500488%,41.000366%,88.400269%); stroke-width: 1.000000;stroke-linecap: round;stroke-linejoin: round;stroke-miterlimit: 10.000000;fill: none;"></path>
  <path d="M496.334457 364.663971C496.334457 338.053558,485.761932 312.536209,466.946960 293.721222C448.131973 274.906250,422.614624 264.333725,396.004211 264.333725C369.393799 264.333725,343.876450 274.906250,325.061462 293.721222C306.246490 312.536209,295.673965 338.053558,295.673965 364.663971C295.673965 391.274384,306.246490 416.791733,325.061462 435.606720C343.876450 454.421692,369.393799 464.994217,396.004211 464.994217C422.614624 464.994217,448.131973 454.421692,466.946960 435.606720C485.761932 416.791733,496.334457 391.274384,496.334457 364.663971Z" style="stroke:rgb(25.500488%,41.000366%,88.400269%); stroke-width: 1.000000;stroke-linecap: round;stroke-linejoin: round;stroke-miterlimit: 10.000000;fill: none;"></path>
  <path d="M392.907288 455.608261C392.907288 428.997849,382.334763 403.480499,363.519791 384.665512C344.704803 365.850540,319.187454 355.278015,292.577042 355.278015C265.966629 355.278015,240.449280 365.850540,221.634293 384.665512C202.819321 403.480499,192.246796 428.997849,192.246796 455.608261C192.246796 482.218674,202.819321 507.736023,221.634293 526.551010C240.449280 545.365982,265.966629 555.938507,292.577042 555.938507C319.187454 555.938507,344.704803 545.365982,363.519791 526.551010C382.334763 507.736023,392.907288 482.218674,392.907288 455.608261Z" style="stroke:rgb(25.500488%,41.000366%,88.400269%); stroke-width: 1.000000;stroke-linecap: round;stroke-linejoin: round;stroke-miterlimit: 10.000000;fill: none;"></path>
  <path d="M483.081665 189.600769C483.081665 162.990356,472.509140 137.473007,453.694168 118.658020C434.879181 99.843048,409.361832 89.270523,382.751419 89.270523C356.141006 89.270523,330.623657 99.843048,311.808670 118.658020C292.993698 137.473007,282.421173 162.990356,282.421173 189.600769C282.421173 216.211182,292.993698 241.728531,311.808670 260.543518C330.623657 279.358490,356.141006 289.931015,382.751419 289.931015C409.361832 289.931015,434.879181 279.358490,453.694168 260.543518C472.509140 241.728531,483.081665 216.211182,483.081665 189.600769Z" style="stroke:rgb(25.500488%,41.000366%,88.400269%); stroke-width: 1.000000;stroke-linecap: round;stroke-linejoin: round;stroke-miterlimit: 10.000000;fill: none;"></path>
  <path d="M337.664230 99.945435C337.664230 73.335022,327.091705 47.817673,308.276733 29.002686C289.461746 10.187714,263.944397 -0.384811,237.333984 -0.384811C210.723572 -0.384811,185.206223 10.187714,166.391235 29.002686C147.576263 47.817673,137.003738 73.335022,137.003738 99.945435C137.003738 126.555847,147.576263 152.073196,166.391235 170.888184C185.206223 189.703156,210.723572 200.275681,237.333984 200.275681C263.944397 200.275681,289.461746 189.703156,308.276733 170.888184C327.091705 152.073196,337.664230 126.555847,337.664230 99.945435Z" style="stroke:rgb(25.500488%,41.000366%,88.400269%); stroke-width: 1.000000;stroke-linecap: round;stroke-linejoin: round;stroke-miterlimit: 10.000000;fill: none;"></path>
  <path d="M243.199127 367.371628C243.199127 340.761215,232.626602 315.243866,213.811630 296.428879C194.996643 277.613907,169.479294 267.041382,142.868881 267.041382C116.258469 267.041382,90.741119 277.613907,71.926132 296.428879C53.111160 315.243866,42.538635 340.761215,42.538635 367.371628C42.538635 393.982040,53.111160 419.499390,71.926132 438.314377C90.741119 457.129349,116.258469 467.701874,142.868881 467.701874C169.479294 467.701874,194.996643 457.129349,213.811630 438.314377C232.626602 419.499390,243.199127 393.982040,243.199127 367.371628Z" style="stroke:rgb(25.500488%,41.000366%,88.400269%); stroke-width: 1.000000;stroke-linecap: round;stroke-linejoin: round;stroke-miterlimit: 10.000000;fill: none;"></path>
  <path d="M341.358063 271.453217C341.358063 244.842804,330.785538 219.325455,311.970566 200.510468C293.155579 181.695496,267.638229 171.122971,241.027817 171.122971C214.417404 171.122971,188.900055 181.695496,170.085068 200.510468C151.270096 219.325455,140.697571 244.842804,140.697571 271.453217C140.697571 298.063629,151.270096 323.580978,170.085068 342.395966C188.900055 361.210938,214.417404 371.783463,241.027817 371.783463C267.638229 371.783463,293.155579 361.210938,311.970566 342.395966C330.785538 323.580978,341.358063 298.063629,341.358063 271.453217Z" style="stroke:rgb(25.500488%,41.000366%,88.400269%); stroke-width: 1.000000;stroke-linecap: round;stroke-linejoin: round;stroke-miterlimit: 10.000000;fill: none;"></path>
  <path d="M204.677795 503.074387C204.677795 476.463974,194.105270 450.946625,175.290298 432.131638C156.475311 413.316666,130.957962 402.744141,104.347549 402.744141C77.737137 402.744141,52.219788 413.316666,33.404800 432.131638C14.589828 450.946625,4.017303 476.463974,4.017303 503.074387C4.017303 529.684799,14.589828 555.202148,33.404800 574.017136C52.219788 592.832108,77.737137 603.404633,104.347549 603.404633C130.957962 603.404633,156.475311 592.832108,175.290298 574.017136C194.105270 555.202148,204.677795 529.684799,204.677795 503.074387Z" style="stroke:rgb(25.500488%,41.000366%,88.400269%); stroke-width: 1.000000;stroke-linecap: round;stroke-linejoin: round;stroke-miterlimit: 10.000000;fill: none;"></path>
  <path d="M475.702652 472.338623L570.929016 504.000000" style="stroke:rgb(60.000610%,60.000610%,60.000610%); stroke-width: 1.800003;stroke-linecap: round;stroke-dasharray: 3.000000 3.000000 ;stroke-linejoin: round;stroke-miterlimit: 10.000000;fill: none;"></path>
  <path d="M479.702652 472.338623C479.702652 471.277710,479.281143 470.260376,478.531021 469.510254C477.780899 468.760132,476.763565 468.338623,475.702652 468.338623C474.641739 468.338623,473.624405 468.760132,472.874283 469.510254C472.124161 470.260376,471.702652 471.277710,471.702652 472.338623C471.702652 473.399536,472.124161 474.416870,472.874283 475.166992C473.624405 475.917114,474.641739 476.338623,475.702652 476.338623C476.763565 476.338623,477.780899 475.917114,478.531021 475.166992C479.281143 474.416870,479.702652 473.399536,479.702652 472.338623Z" style="stroke:rgb(39.999390%,39.999390%,39.999390%); stroke-width: 0.500000;stroke-linecap: round;stroke-linejoin: round;stroke-miterlimit: 10.000000;fill: none;"></path>
  <path d="M479.702652 472.338623C479.702652 471.277710,479.281143 470.260376,478.531021 469.510254C477.780899 468.760132,476.763565 468.338623,475.702652 468.338623C474.641739 468.338623,473.624405 468.760132,472.874283 469.510254C472.124161 470.260376,471.702652 471.277710,471.702652 472.338623C471.702652 473.399536,472.124161 474.416870,472.874283 475.166992C473.624405 475.917114,474.641739 476.338623,475.702652 476.338623C476.763565 476.338623,477.780899 475.917114,478.531021 475.166992C479.281143 474.416870,479.702652 473.399536,479.702652 472.338623Z" style="fill: rgb(89.999390%,0.000000%,0.000000%);stroke: none;"></path>
  <path d="M574.929016 504.000000C574.929016 502.939087,574.507507 501.921753,573.757385 501.171631C573.007263 500.421509,571.989929 500.000000,570.929016 500.000000C569.868103 500.000000,568.850769 500.421509,568.100647 501.171631C567.350525 501.921753,566.929016 502.939087,566.929016 504.000000C566.929016 505.060913,567.350525 506.078247,568.100647 506.828369C568.850769 507.578491,569.868103 508.000000,570.929016 508.000000C571.989929 508.000000,573.007263 507.578491,573.757385 506.828369C574.507507 506.078247,574.929016 505.060913,574.929016 504.000000Z" style="stroke:rgb(39.999390%,39.999390%,39.999390%); stroke-width: 0.500000;stroke-linecap: round;stroke-linejoin: round;stroke-miterlimit: 10.000000;fill: none;"></path>
  <path d="M574.929016 504.000000C574.929016 502.939087,574.507507 501.921753,573.757385 501.171631C573.007263 500.421509,571.989929 500.000000,570.929016 500.000000C569.868103 500.000000,568.850769 500.421509,568.100647 501.171631C567.350525 501.921753,566.929016 502.939087,566.929016 504.000000C566.929016 505.060913,567.350525 506.078247,568.100647 506.828369C568.850769 507.578491,569.868103 508.000000,570.929016 508.000000C571.989929 508.000000,573.007263 507.578491,573.757385 506.828369C574.507507 506.078247,574.929016 505.060913,574.929016 504.000000Z" style="fill: rgb(100.000000%,100.000000%,0.000000%);stroke: none;"></path>
  <path d="M475.702652 472.338623L495.893280 374.058578" style="stroke:rgb(60.000610%,60.000610%,60.000610%); stroke-width: 1.800003;stroke-linecap: round;stroke-dasharray: 3.000000 3.000000 ;stroke-linejoin: round;stroke-miterlimit: 10.000000;fill: none;"></path>
  <path d="M396.004211 364.663971L495.893280 374.058578" style="stroke:rgb(60.000610%,60.000610%,60.000610%); stroke-width: 1.800003;stroke-linecap: round;stroke-dasharray: 3.000000 3.000000 ;stroke-linejoin: round;stroke-miterlimit: 10.000000;fill: none;"></path>
  <path d="M479.702652 472.338623C479.702652 471.277710,479.281143 470.260376,478.531021 469.510254C477.780899 468.760132,476.763565 468.338623,475.702652 468.338623C474.641739 468.338623,473.624405 468.760132,472.874283 469.510254C472.124161 470.260376,471.702652 471.277710,471.702652 472.338623C471.702652 473.399536,472.124161 474.416870,472.874283 475.166992C473.624405 475.917114,474.641739 476.338623,475.702652 476.338623C476.763565 476.338623,477.780899 475.917114,478.531021 475.166992C479.281143 474.416870,479.702652 473.399536,479.702652 472.338623Z" style="stroke:rgb(39.999390%,39.999390%,39.999390%); stroke-width: 0.500000;stroke-linecap: round;stroke-linejoin: round;stroke-miterlimit: 10.000000;fill: none;"></path>
  <path d="M479.702652 472.338623C479.702652 471.277710,479.281143 470.260376,478.531021 469.510254C477.780899 468.760132,476.763565 468.338623,475.702652 468.338623C474.641739 468.338623,473.624405 468.760132,472.874283 469.510254C472.124161 470.260376,471.702652 471.277710,471.702652 472.338623C471.702652 473.399536,472.124161 474.416870,472.874283 475.166992C473.624405 475.917114,474.641739 476.338623,475.702652 476.338623C476.763565 476.338623,477.780899 475.917114,478.531021 475.166992C479.281143 474.416870,479.702652 473.399536,479.702652 472.338623Z" style="fill: rgb(89.999390%,0.000000%,0.000000%);stroke: none;"></path>
  <path d="M400.004211 364.663971C400.004211 363.603058,399.582703 362.585724,398.832581 361.835602C398.082458 361.085480,397.065125 360.663971,396.004211 360.663971C394.943298 360.663971,393.925964 361.085480,393.175842 361.835602C392.425720 362.585724,392.004211 363.603058,392.004211 364.663971C392.004211 365.724884,392.425720 366.742218,393.175842 367.492340C393.925964 368.242462,394.943298 368.663971,396.004211 368.663971C397.065125 368.663971,398.082458 368.242462,398.832581 367.492340C399.582703 366.742218,400.004211 365.724884,400.004211 364.663971Z" style="stroke:rgb(39.999390%,39.999390%,39.999390%); stroke-width: 0.500000;stroke-linecap: round;stroke-linejoin: round;stroke-miterlimit: 10.000000;fill: none;"></path>
  <path d="M400.004211 364.663971C400.004211 363.603058,399.582703 362.585724,398.832581 361.835602C398.082458 361.085480,397.065125 360.663971,396.004211 360.663971C394.943298 360.663971,393.925964 361.085480,393.175842 361.835602C392.425720 362.585724,392.004211 363.603058,392.004211 364.663971C392.004211 365.724884,392.425720 366.742218,393.175842 367.492340C393.925964 368.242462,394.943298 368.663971,396.004211 368.663971C397.065125 368.663971,398.082458 368.242462,398.832581 367.492340C399.582703 366.742218,400.004211 365.724884,400.004211 364.663971Z" style="fill: rgb(89.999390%,0.000000%,0.000000%);stroke: none;"></path>
  <path d="M499.893280 374.058578C499.893280 372.997665,499.471771 371.980331,498.721649 371.230209C497.971527 370.480087,496.954193 370.058578,495.893280 370.058578C494.832367 370.058578,493.815033 370.480087,493.064911 371.230209C492.314789 371.980331,491.893280 372.997665,491.893280 374.058578C491.893280 375.119492,492.314789 376.136826,493.064911 376.886948C493.815033 377.637070,494.832367 378.058578,495.893280 378.058578C496.954193 378.058578,497.971527 377.637070,498.721649 376.886948C499.471771 376.136826,499.893280 375.119492,499.893280 374.058578Z" style="stroke:rgb(39.999390%,39.999390%,39.999390%); stroke-width: 0.500000;stroke-linecap: round;stroke-linejoin: round;stroke-miterlimit: 10.000000;fill: none;"></path>
  <path d="M499.893280 374.058578C499.893280 372.997665,499.471771 371.980331,498.721649 371.230209C497.971527 370.480087,496.954193 370.058578,495.893280 370.058578C494.832367 370.058578,493.815033 370.480087,493.064911 371.230209C492.314789 371.980331,491.893280 372.997665,491.893280 374.058578C491.893280 375.119492,492.314789 376.136826,493.064911 376.886948C493.815033 377.637070,494.832367 378.058578,495.893280 378.058578C496.954193 378.058578,497.971527 377.637070,498.721649 376.886948C499.471771 376.136826,499.893280 375.119492,499.893280 374.058578Z" style="fill: rgb(0.000000%,50.000000%,0.000000%);stroke: none;"></path>
  <path d="M475.702652 472.338623L380.484955 503.974045" style="stroke:rgb(60.000610%,60.000610%,60.000610%); stroke-width: 1.800003;stroke-linecap: round;stroke-dasharray: 3.000000 3.000000 ;stroke-linejoin: round;stroke-miterlimit: 10.000000;fill: none;"></path>
  <path d="M292.577042 455.608261L380.484955 503.974045" style="stroke:rgb(60.000610%,60.000610%,60.000610%); stroke-width: 1.800003;stroke-linecap: round;stroke-dasharray: 3.000000 3.000000 ;stroke-linejoin: round;stroke-miterlimit: 10.000000;fill: none;"></path>
  <path d="M479.702652 472.338623C479.702652 471.277710,479.281143 470.260376,478.531021 469.510254C477.780899 468.760132,476.763565 468.338623,475.702652 468.338623C474.641739 468.338623,473.624405 468.760132,472.874283 469.510254C472.124161 470.260376,471.702652 471.277710,471.702652 472.338623C471.702652 473.399536,472.124161 474.416870,472.874283 475.166992C473.624405 475.917114,474.641739 476.338623,475.702652 476.338623C476.763565 476.338623,477.780899 475.917114,478.531021 475.166992C479.281143 474.416870,479.702652 473.399536,479.702652 472.338623Z" style="stroke:rgb(39.999390%,39.999390%,39.999390%); stroke-width: 0.500000;stroke-linecap: round;stroke-linejoin: round;stroke-miterlimit: 10.000000;fill: none;"></path>
  <path d="M479.702652 472.338623C479.702652 471.277710,479.281143 470.260376,478.531021 469.510254C477.780899 468.760132,476.763565 468.338623,475.702652 468.338623C474.641739 468.338623,473.624405 468.760132,472.874283 469.510254C472.124161 470.260376,471.702652 471.277710,471.702652 472.338623C471.702652 473.399536,472.124161 474.416870,472.874283 475.166992C473.624405 475.917114,474.641739 476.338623,475.702652 476.338623C476.763565 476.338623,477.780899 475.917114,478.531021 475.166992C479.281143 474.416870,479.702652 473.399536,479.702652 472.338623Z" style="fill: rgb(89.999390%,0.000000%,0.000000%);stroke: none;"></path>
  <path d="M296.577042 455.608261C296.577042 454.547348,296.155533 453.530014,295.405411 452.779892C294.655289 452.029770,293.637955 451.608261,292.577042 451.608261C291.516129 451.608261,290.498795 452.029770,289.748672 452.779892C288.998550 453.530014,288.577042 454.547348,288.577042 455.608261C288.577042 456.669174,288.998550 457.686508,289.748672 458.436630C290.498795 459.186752,291.516129 459.608261,292.577042 459.608261C293.637955 459.608261,294.655289 459.186752,295.405411 458.436630C296.155533 457.686508,296.577042 456.669174,296.577042 455.608261Z" style="stroke:rgb(39.999390%,39.999390%,39.999390%); stroke-width: 0.500000;stroke-linecap: round;stroke-linejoin: round;stroke-miterlimit: 10.000000;fill: none;"></path>
  <path d="M296.577042 455.608261C296.577042 454.547348,296.155533 453.530014,295.405411 452.779892C294.655289 452.029770,293.637955 451.608261,292.577042 451.608261C291.516129 451.608261,290.498795 452.029770,289.748672 452.779892C288.998550 453.530014,288.577042 454.547348,288.577042 455.608261C288.577042 456.669174,288.998550 457.686508,289.748672 458.436630C290.498795 459.186752,291.516129 459.608261,292.577042 459.608261C293.637955 459.608261,294.655289 459.186752,295.405411 458.436630C296.155533 457.686508,296.577042 456.669174,296.577042 455.608261Z" style="fill: rgb(89.999390%,0.000000%,0.000000%);stroke: none;"></path>
  <path d="M384.484955 503.974045C384.484955 502.913132,384.063446 501.895798,383.313324 501.145676C382.563202 500.395554,381.545868 499.974045,380.484955 499.974045C379.424042 499.974045,378.406708 500.395554,377.656586 501.145676C376.906464 501.895798,376.484955 502.913132,376.484955 503.974045C376.484955 505.034958,376.906464 506.052292,377.656586 506.802414C378.406708 507.552536,379.424042 507.974045,380.484955 507.974045C381.545868 507.974045,382.563202 507.552536,383.313324 506.802414C384.063446 506.052292,384.484955 505.034958,384.484955 503.974045Z" style="stroke:rgb(39.999390%,39.999390%,39.999390%); stroke-width: 0.500000;stroke-linecap: round;stroke-linejoin: round;stroke-miterlimit: 10.000000;fill: none;"></path>
  <path d="M384.484955 503.974045C384.484955 502.913132,384.063446 501.895798,383.313324 501.145676C382.563202 500.395554,381.545868 499.974045,380.484955 499.974045C379.424042 499.974045,378.406708 500.395554,377.656586 501.145676C376.906464 501.895798,376.484955 502.913132,376.484955 503.974045C376.484955 505.034958,376.906464 506.052292,377.656586 506.802414C378.406708 507.552536,379.424042 507.974045,380.484955 507.974045C381.545868 507.974045,382.563202 507.552536,383.313324 506.802414C384.063446 506.052292,384.484955 505.034958,384.484955 503.974045Z" style="fill: rgb(0.000000%,50.000000%,0.000000%);stroke: none;"></path>
  <path d="M396.004211 364.663971L296.106506 355.338577" style="stroke:rgb(60.000610%,60.000610%,60.000610%); stroke-width: 1.800003;stroke-linecap: round;stroke-dasharray: 3.000000 3.000000 ;stroke-linejoin: round;stroke-miterlimit: 10.000000;fill: none;"></path>
  <path d="M292.577042 455.608261L296.106506 355.338577" style="stroke:rgb(60.000610%,60.000610%,60.000610%); stroke-width: 1.800003;stroke-linecap: round;stroke-dasharray: 3.000000 3.000000 ;stroke-linejoin: round;stroke-miterlimit: 10.000000;fill: none;"></path>
  <path d="M400.004211 364.663971C400.004211 363.603058,399.582703 362.585724,398.832581 361.835602C398.082458 361.085480,397.065125 360.663971,396.004211 360.663971C394.943298 360.663971,393.925964 361.085480,393.175842 361.835602C392.425720 362.585724,392.004211 363.603058,392.004211 364.663971C392.004211 365.724884,392.425720 366.742218,393.175842 367.492340C393.925964 368.242462,394.943298 368.663971,396.004211 368.663971C397.065125 368.663971,398.082458 368.242462,398.832581 367.492340C399.582703 366.742218,400.004211 365.724884,400.004211 364.663971Z" style="stroke:rgb(39.999390%,39.999390%,39.999390%); stroke-width: 0.500000;stroke-linecap: round;stroke-linejoin: round;stroke-miterlimit: 10.000000;fill: none;"></path>
  <path d="M400.004211 364.663971C400.004211 363.603058,399.582703 362.585724,398.832581 361.835602C398.082458 361.085480,397.065125 360.663971,396.004211 360.663971C394.943298 360.663971,393.925964 361.085480,393.175842 361.835602C392.425720 362.585724,392.004211 363.603058,392.004211 364.663971C392.004211 365.724884,392.425720 366.742218,393.175842 367.492340C393.925964 368.242462,394.943298 368.663971,396.004211 368.663971C397.065125 368.663971,398.082458 368.242462,398.832581 367.492340C399.582703 366.742218,400.004211 365.724884,400.004211 364.663971Z" style="fill: rgb(89.999390%,0.000000%,0.000000%);stroke: none;"></path>
  <path d="M296.577042 455.608261C296.577042 454.547348,296.155533 453.530014,295.405411 452.779892C294.655289 452.029770,293.637955 451.608261,292.577042 451.608261C291.516129 451.608261,290.498795 452.029770,289.748672 452.779892C288.998550 453.530014,288.577042 454.547348,288.577042 455.608261C288.577042 456.669174,288.998550 457.686508,289.748672 458.436630C290.498795 459.186752,291.516129 459.608261,292.577042 459.608261C293.637955 459.608261,294.655289 459.186752,295.405411 458.436630C296.155533 457.686508,296.577042 456.669174,296.577042 455.608261Z" style="stroke:rgb(39.999390%,39.999390%,39.999390%); stroke-width: 0.500000;stroke-linecap: round;stroke-linejoin: round;stroke-miterlimit: 10.000000;fill: none;"></path>
  <path d="M296.577042 455.608261C296.577042 454.547348,296.155533 453.530014,295.405411 452.779892C294.655289 452.029770,293.637955 451.608261,292.577042 451.608261C291.516129 451.608261,290.498795 452.029770,289.748672 452.779892C288.998550 453.530014,288.577042 454.547348,288.577042 455.608261C288.577042 456.669174,288.998550 457.686508,289.748672 458.436630C290.498795 459.186752,291.516129 459.608261,292.577042 459.608261C293.637955 459.608261,294.655289 459.186752,295.405411 458.436630C296.155533 457.686508,296.577042 456.669174,296.577042 455.608261Z" style="fill: rgb(89.999390%,0.000000%,0.000000%);stroke: none;"></path>
  <path d="M300.106506 355.338577C300.106506 354.277664,299.684998 353.260330,298.934875 352.510208C298.184753 351.760086,297.167419 351.338577,296.106506 351.338577C295.045593 351.338577,294.028259 351.760086,293.278137 352.510208C292.528015 353.260330,292.106506 354.277664,292.106506 355.338577C292.106506 356.399490,292.528015 357.416824,293.278137 358.166946C294.028259 358.917068,295.045593 359.338577,296.106506 359.338577C297.167419 359.338577,298.184753 358.917068,298.934875 358.166946C299.684998 357.416824,300.106506 356.399490,300.106506 355.338577Z" style="stroke:rgb(39.999390%,39.999390%,39.999390%); stroke-width: 0.500000;stroke-linecap: round;stroke-linejoin: round;stroke-miterlimit: 10.000000;fill: none;"></path>
  <path d="M300.106506 355.338577C300.106506 354.277664,299.684998 353.260330,298.934875 352.510208C298.184753 351.760086,297.167419 351.338577,296.106506 351.338577C295.045593 351.338577,294.028259 351.760086,293.278137 352.510208C292.528015 353.260330,292.106506 354.277664,292.106506 355.338577C292.106506 356.399490,292.528015 357.416824,293.278137 358.166946C294.028259 358.917068,295.045593 359.338577,296.106506 359.338577C297.167419 359.338577,298.184753 358.917068,298.934875 358.166946C299.684998 357.416824,300.106506 356.399490,300.106506 355.338577Z" style="fill: rgb(9.800720%,9.800720%,44.000244%);stroke: none;"></path>
  <path d="M396.004211 364.663971L340.925522 280.795929" style="stroke:rgb(60.000610%,60.000610%,60.000610%); stroke-width: 1.800003;stroke-linecap: round;stroke-dasharray: 3.000000 3.000000 ;stroke-linejoin: round;stroke-miterlimit: 10.000000;fill: none;"></path>
  <path d="M382.751419 189.600769L340.925522 280.795929" style="stroke:rgb(60.000610%,60.000610%,60.000610%); stroke-width: 1.800003;stroke-linecap: round;stroke-dasharray: 3.000000 3.000000 ;stroke-linejoin: round;stroke-miterlimit: 10.000000;fill: none;"></path>
  <path d="M400.004211 364.663971C400.004211 363.603058,399.582703 362.585724,398.832581 361.835602C398.082458 361.085480,397.065125 360.663971,396.004211 360.663971C394.943298 360.663971,393.925964 361.085480,393.175842 361.835602C392.425720 362.585724,392.004211 363.603058,392.004211 364.663971C392.004211 365.724884,392.425720 366.742218,393.175842 367.492340C393.925964 368.242462,394.943298 368.663971,396.004211 368.663971C397.065125 368.663971,398.082458 368.242462,398.832581 367.492340C399.582703 366.742218,400.004211 365.724884,400.004211 364.663971Z" style="stroke:rgb(39.999390%,39.999390%,39.999390%); stroke-width: 0.500000;stroke-linecap: round;stroke-linejoin: round;stroke-miterlimit: 10.000000;fill: none;"></path>
  <path d="M400.004211 364.663971C400.004211 363.603058,399.582703 362.585724,398.832581 361.835602C398.082458 361.085480,397.065125 360.663971,396.004211 360.663971C394.943298 360.663971,393.925964 361.085480,393.175842 361.835602C392.425720 362.585724,392.004211 363.603058,392.004211 364.663971C392.004211 365.724884,392.425720 366.742218,393.175842 367.492340C393.925964 368.242462,394.943298 368.663971,396.004211 368.663971C397.065125 368.663971,398.082458 368.242462,398.832581 367.492340C399.582703 366.742218,400.004211 365.724884,400.004211 364.663971Z" style="fill: rgb(89.999390%,0.000000%,0.000000%);stroke: none;"></path>
  <path d="M386.751419 189.600769C386.751419 188.539856,386.329910 187.522522,385.579788 186.772400C384.829666 186.022278,383.812332 185.600769,382.751419 185.600769C381.690506 185.600769,380.673172 186.022278,379.923050 186.772400C379.172928 187.522522,378.751419 188.539856,378.751419 189.600769C378.751419 190.661682,379.172928 191.679016,379.923050 192.429138C380.673172 193.179260,381.690506 193.600769,382.751419 193.600769C383.812332 193.600769,384.829666 193.179260,385.579788 192.429138C386.329910 191.679016,386.751419 190.661682,386.751419 189.600769Z" style="stroke:rgb(39.999390%,39.999390%,39.999390%); stroke-width: 0.500000;stroke-linecap: round;stroke-linejoin: round;stroke-miterlimit: 10.000000;fill: none;"></path>
  <path d="M386.751419 189.600769C386.751419 188.539856,386.329910 187.522522,385.579788 186.772400C384.829666 186.022278,383.812332 185.600769,382.751419 185.600769C381.690506 185.600769,380.673172 186.022278,379.923050 186.772400C379.172928 187.522522,378.751419 188.539856,378.751419 189.600769C378.751419 190.661682,379.172928 191.679016,379.923050 192.429138C380.673172 193.179260,381.690506 193.600769,382.751419 193.600769C383.812332 193.600769,384.829666 193.179260,385.579788 192.429138C386.329910 191.679016,386.751419 190.661682,386.751419 189.600769Z" style="fill: rgb(89.999390%,0.000000%,0.000000%);stroke: none;"></path>
  <path d="M344.925522 280.795929C344.925522 279.735016,344.504013 278.717682,343.753891 277.967560C343.003769 277.217438,341.986435 276.795929,340.925522 276.795929C339.864609 276.795929,338.847275 277.217438,338.097153 277.967560C337.347031 278.717682,336.925522 279.735016,336.925522 280.795929C336.925522 281.856842,337.347031 282.874176,338.097153 283.624298C338.847275 284.374420,339.864609 284.795929,340.925522 284.795929C341.986435 284.795929,343.003769 284.374420,343.753891 283.624298C344.504013 282.874176,344.925522 281.856842,344.925522 280.795929Z" style="stroke:rgb(39.999390%,39.999390%,39.999390%); stroke-width: 0.500000;stroke-linecap: round;stroke-linejoin: round;stroke-miterlimit: 10.000000;fill: none;"></path>
  <path d="M344.925522 280.795929C344.925522 279.735016,344.504013 278.717682,343.753891 277.967560C343.003769 277.217438,341.986435 276.795929,340.925522 276.795929C339.864609 276.795929,338.847275 277.217438,338.097153 277.967560C337.347031 278.717682,336.925522 279.735016,336.925522 280.795929C336.925522 281.856842,337.347031 282.874176,338.097153 283.624298C338.847275 284.374420,339.864609 284.795929,340.925522 284.795929C341.986435 284.795929,343.003769 284.374420,343.753891 283.624298C344.504013 282.874176,344.925522 281.856842,344.925522 280.795929Z" style="fill: rgb(9.800720%,9.800720%,44.000244%);stroke: none;"></path>
  <path d="M396.004211 364.663971L437.830109 273.468826" style="stroke:rgb(60.000610%,60.000610%,60.000610%); stroke-width: 1.800003;stroke-linecap: round;stroke-dasharray: 3.000000 3.000000 ;stroke-linejoin: round;stroke-miterlimit: 10.000000;fill: none;"></path>
  <path d="M382.751419 189.600769L437.830109 273.468826" style="stroke:rgb(60.000610%,60.000610%,60.000610%); stroke-width: 1.800003;stroke-linecap: round;stroke-dasharray: 3.000000 3.000000 ;stroke-linejoin: round;stroke-miterlimit: 10.000000;fill: none;"></path>
  <path d="M400.004211 364.663971C400.004211 363.603058,399.582703 362.585724,398.832581 361.835602C398.082458 361.085480,397.065125 360.663971,396.004211 360.663971C394.943298 360.663971,393.925964 361.085480,393.175842 361.835602C392.425720 362.585724,392.004211 363.603058,392.004211 364.663971C392.004211 365.724884,392.425720 366.742218,393.175842 367.492340C393.925964 368.242462,394.943298 368.663971,396.004211 368.663971C397.065125 368.663971,398.082458 368.242462,398.832581 367.492340C399.582703 366.742218,400.004211 365.724884,400.004211 364.663971Z" style="stroke:rgb(39.999390%,39.999390%,39.999390%); stroke-width: 0.500000;stroke-linecap: round;stroke-linejoin: round;stroke-miterlimit: 10.000000;fill: none;"></path>
  <path d="M400.004211 364.663971C400.004211 363.603058,399.582703 362.585724,398.832581 361.835602C398.082458 361.085480,397.065125 360.663971,396.004211 360.663971C394.943298 360.663971,393.925964 361.085480,393.175842 361.835602C392.425720 362.585724,392.004211 363.603058,392.004211 364.663971C392.004211 365.724884,392.425720 366.742218,393.175842 367.492340C393.925964 368.242462,394.943298 368.663971,396.004211 368.663971C397.065125 368.663971,398.082458 368.242462,398.832581 367.492340C399.582703 366.742218,400.004211 365.724884,400.004211 364.663971Z" style="fill: rgb(89.999390%,0.000000%,0.000000%);stroke: none;"></path>
  <path d="M386.751419 189.600769C386.751419 188.539856,386.329910 187.522522,385.579788 186.772400C384.829666 186.022278,383.812332 185.600769,382.751419 185.600769C381.690506 185.600769,380.673172 186.022278,379.923050 186.772400C379.172928 187.522522,378.751419 188.539856,378.751419 189.600769C378.751419 190.661682,379.172928 191.679016,379.923050 192.429138C380.673172 193.179260,381.690506 193.600769,382.751419 193.600769C383.812332 193.600769,384.829666 193.179260,385.579788 192.429138C386.329910 191.679016,386.751419 190.661682,386.751419 189.600769Z" style="stroke:rgb(39.999390%,39.999390%,39.999390%); stroke-width: 0.500000;stroke-linecap: round;stroke-linejoin: round;stroke-miterlimit: 10.000000;fill: none;"></path>
  <path d="M386.751419 189.600769C386.751419 188.539856,386.329910 187.522522,385.579788 186.772400C384.829666 186.022278,383.812332 185.600769,382.751419 185.600769C381.690506 185.600769,380.673172 186.022278,379.923050 186.772400C379.172928 187.522522,378.751419 188.539856,378.751419 189.600769C378.751419 190.661682,379.172928 191.679016,379.923050 192.429138C380.673172 193.179260,381.690506 193.600769,382.751419 193.600769C383.812332 193.600769,384.829666 193.179260,385.579788 192.429138C386.329910 191.679016,386.751419 190.661682,386.751419 189.600769Z" style="fill: rgb(89.999390%,0.000000%,0.000000%);stroke: none;"></path>
  <path d="M441.830109 273.468826C441.830109 272.407913,441.408600 271.390579,440.658478 270.640457C439.908356 269.890335,438.891022 269.468826,437.830109 269.468826C436.769196 269.468826,435.751862 269.890335,435.001740 270.640457C434.251617 271.390579,433.830109 272.407913,433.830109 273.468826C433.830109 274.529739,434.251617 275.547073,435.001740 276.297195C435.751862 277.047318,436.769196 277.468826,437.830109 277.468826C438.891022 277.468826,439.908356 277.047318,440.658478 276.297195C441.408600 275.547073,441.830109 274.529739,441.830109 273.468826Z" style="stroke:rgb(39.999390%,39.999390%,39.999390%); stroke-width: 0.500000;stroke-linecap: round;stroke-linejoin: round;stroke-miterlimit: 10.000000;fill: none;"></path>
  <path d="M441.830109 273.468826C441.830109 272.407913,441.408600 271.390579,440.658478 270.640457C439.908356 269.890335,438.891022 269.468826,437.830109 269.468826C436.769196 269.468826,435.751862 269.890335,435.001740 270.640457C434.251617 271.390579,433.830109 272.407913,433.830109 273.468826C433.830109 274.529739,434.251617 275.547073,435.001740 276.297195C435.751862 277.047318,436.769196 277.468826,437.830109 277.468826C438.891022 277.468826,439.908356 277.047318,440.658478 276.297195C441.408600 275.547073,441.830109 274.529739,441.830109 273.468826Z" style="fill: rgb(0.000000%,50.000000%,0.000000%);stroke: none;"></path>
  <path d="M396.004211 364.663971L296.106506 355.321274" style="stroke:rgb(60.000610%,60.000610%,60.000610%); stroke-width: 1.800003;stroke-linecap: round;stroke-dasharray: 3.000000 3.000000 ;stroke-linejoin: round;stroke-miterlimit: 10.000000;fill: none;"></path>
  <path d="M241.027817 271.453217L296.106506 355.321274" style="stroke:rgb(60.000610%,60.000610%,60.000610%); stroke-width: 1.800003;stroke-linecap: round;stroke-dasharray: 3.000000 3.000000 ;stroke-linejoin: round;stroke-miterlimit: 10.000000;fill: none;"></path>
  <path d="M400.004211 364.663971C400.004211 363.603058,399.582703 362.585724,398.832581 361.835602C398.082458 361.085480,397.065125 360.663971,396.004211 360.663971C394.943298 360.663971,393.925964 361.085480,393.175842 361.835602C392.425720 362.585724,392.004211 363.603058,392.004211 364.663971C392.004211 365.724884,392.425720 366.742218,393.175842 367.492340C393.925964 368.242462,394.943298 368.663971,396.004211 368.663971C397.065125 368.663971,398.082458 368.242462,398.832581 367.492340C399.582703 366.742218,400.004211 365.724884,400.004211 364.663971Z" style="stroke:rgb(39.999390%,39.999390%,39.999390%); stroke-width: 0.500000;stroke-linecap: round;stroke-linejoin: round;stroke-miterlimit: 10.000000;fill: none;"></path>
  <path d="M400.004211 364.663971C400.004211 363.603058,399.582703 362.585724,398.832581 361.835602C398.082458 361.085480,397.065125 360.663971,396.004211 360.663971C394.943298 360.663971,393.925964 361.085480,393.175842 361.835602C392.425720 362.585724,392.004211 363.603058,392.004211 364.663971C392.004211 365.724884,392.425720 366.742218,393.175842 367.492340C393.925964 368.242462,394.943298 368.663971,396.004211 368.663971C397.065125 368.663971,398.082458 368.242462,398.832581 367.492340C399.582703 366.742218,400.004211 365.724884,400.004211 364.663971Z" style="fill: rgb(89.999390%,0.000000%,0.000000%);stroke: none;"></path>
  <path d="M245.027817 271.453217C245.027817 270.392303,244.606308 269.374969,243.856186 268.624847C243.106064 267.874725,242.088730 267.453217,241.027817 267.453217C239.966904 267.453217,238.949570 267.874725,238.199448 268.624847C237.449326 269.374969,237.027817 270.392303,237.027817 271.453217C237.027817 272.514130,237.449326 273.531464,238.199448 274.281586C238.949570 275.031708,239.966904 275.453217,241.027817 275.453217C242.088730 275.453217,243.106064 275.031708,243.856186 274.281586C244.606308 273.531464,245.027817 272.514130,245.027817 271.453217Z" style="stroke:rgb(39.999390%,39.999390%,39.999390%); stroke-width: 0.500000;stroke-linecap: round;stroke-linejoin: round;stroke-miterlimit: 10.000000;fill: none;"></path>
  <path d="M245.027817 271.453217C245.027817 270.392303,244.606308 269.374969,243.856186 268.624847C243.106064 267.874725,242.088730 267.453217,241.027817 267.453217C239.966904 267.453217,238.949570 267.874725,238.199448 268.624847C237.449326 269.374969,237.027817 270.392303,237.027817 271.453217C237.027817 272.514130,237.449326 273.531464,238.199448 274.281586C238.949570 275.031708,239.966904 275.453217,241.027817 275.453217C242.088730 275.453217,243.106064 275.031708,243.856186 274.281586C244.606308 273.531464,245.027817 272.514130,245.027817 271.453217Z" style="fill: rgb(89.999390%,0.000000%,0.000000%);stroke: none;"></path>
  <path d="M300.106506 355.321274C300.106506 354.260361,299.684998 353.243027,298.934875 352.492905C298.184753 351.742783,297.167419 351.321274,296.106506 351.321274C295.045593 351.321274,294.028259 351.742783,293.278137 352.492905C292.528015 353.243027,292.106506 354.260361,292.106506 355.321274C292.106506 356.382187,292.528015 357.399521,293.278137 358.149643C294.028259 358.899765,295.045593 359.321274,296.106506 359.321274C297.167419 359.321274,298.184753 358.899765,298.934875 358.149643C299.684998 357.399521,300.106506 356.382187,300.106506 355.321274Z" style="stroke:rgb(39.999390%,39.999390%,39.999390%); stroke-width: 0.500000;stroke-linecap: round;stroke-linejoin: round;stroke-miterlimit: 10.000000;fill: none;"></path>
  <path d="M300.106506 355.321274C300.106506 354.260361,299.684998 353.243027,298.934875 352.492905C298.184753 351.742783,297.167419 351.321274,296.106506 351.321274C295.045593 351.321274,294.028259 351.742783,293.278137 352.492905C292.528015 353.243027,292.106506 354.260361,292.106506 355.321274C292.106506 356.382187,292.528015 357.399521,293.278137 358.149643C294.028259 358.899765,295.045593 359.321274,296.106506 359.321274C297.167419 359.321274,298.184753 358.899765,298.934875 358.149643C299.684998 357.399521,300.106506 356.382187,300.106506 355.321274Z" style="fill: rgb(9.800720%,9.800720%,44.000244%);stroke: none;"></path>
  <path d="M396.004211 364.663971L340.925522 280.795929" style="stroke:rgb(60.000610%,60.000610%,60.000610%); stroke-width: 1.800003;stroke-linecap: round;stroke-dasharray: 3.000000 3.000000 ;stroke-linejoin: round;stroke-miterlimit: 10.000000;fill: none;"></path>
  <path d="M241.027817 271.453217L340.925522 280.795929" style="stroke:rgb(60.000610%,60.000610%,60.000610%); stroke-width: 1.800003;stroke-linecap: round;stroke-dasharray: 3.000000 3.000000 ;stroke-linejoin: round;stroke-miterlimit: 10.000000;fill: none;"></path>
  <path d="M400.004211 364.663971C400.004211 363.603058,399.582703 362.585724,398.832581 361.835602C398.082458 361.085480,397.065125 360.663971,396.004211 360.663971C394.943298 360.663971,393.925964 361.085480,393.175842 361.835602C392.425720 362.585724,392.004211 363.603058,392.004211 364.663971C392.004211 365.724884,392.425720 366.742218,393.175842 367.492340C393.925964 368.242462,394.943298 368.663971,396.004211 368.663971C397.065125 368.663971,398.082458 368.242462,398.832581 367.492340C399.582703 366.742218,400.004211 365.724884,400.004211 364.663971Z" style="stroke:rgb(39.999390%,39.999390%,39.999390%); stroke-width: 0.500000;stroke-linecap: round;stroke-linejoin: round;stroke-miterlimit: 10.000000;fill: none;"></path>
  <path d="M400.004211 364.663971C400.004211 363.603058,399.582703 362.585724,398.832581 361.835602C398.082458 361.085480,397.065125 360.663971,396.004211 360.663971C394.943298 360.663971,393.925964 361.085480,393.175842 361.835602C392.425720 362.585724,392.004211 363.603058,392.004211 364.663971C392.004211 365.724884,392.425720 366.742218,393.175842 367.492340C393.925964 368.242462,394.943298 368.663971,396.004211 368.663971C397.065125 368.663971,398.082458 368.242462,398.832581 367.492340C399.582703 366.742218,400.004211 365.724884,400.004211 364.663971Z" style="fill: rgb(89.999390%,0.000000%,0.000000%);stroke: none;"></path>
  <path d="M245.027817 271.453217C245.027817 270.392303,244.606308 269.374969,243.856186 268.624847C243.106064 267.874725,242.088730 267.453217,241.027817 267.453217C239.966904 267.453217,238.949570 267.874725,238.199448 268.624847C237.449326 269.374969,237.027817 270.392303,237.027817 271.453217C237.027817 272.514130,237.449326 273.531464,238.199448 274.281586C238.949570 275.031708,239.966904 275.453217,241.027817 275.453217C242.088730 275.453217,243.106064 275.031708,243.856186 274.281586C244.606308 273.531464,245.027817 272.514130,245.027817 271.453217Z" style="stroke:rgb(39.999390%,39.999390%,39.999390%); stroke-width: 0.500000;stroke-linecap: round;stroke-linejoin: round;stroke-miterlimit: 10.000000;fill: none;"></path>
  <path d="M245.027817 271.453217C245.027817 270.392303,244.606308 269.374969,243.856186 268.624847C243.106064 267.874725,242.088730 267.453217,241.027817 267.453217C239.966904 267.453217,238.949570 267.874725,238.199448 268.624847C237.449326 269.374969,237.027817 270.392303,237.027817 271.453217C237.027817 272.514130,237.449326 273.531464,238.199448 274.281586C238.949570 275.031708,239.966904 275.453217,241.027817 275.453217C242.088730 275.453217,243.106064 275.031708,243.856186 274.281586C244.606308 273.531464,245.027817 272.514130,245.027817 271.453217Z" style="fill: rgb(89.999390%,0.000000%,0.000000%);stroke: none;"></path>
  <path d="M344.925522 280.795929C344.925522 279.735016,344.504013 278.717682,343.753891 277.967560C343.003769 277.217438,341.986435 276.795929,340.925522 276.795929C339.864609 276.795929,338.847275 277.217438,338.097153 277.967560C337.347031 278.717682,336.925522 279.735016,336.925522 280.795929C336.925522 281.856842,337.347031 282.874176,338.097153 283.624298C338.847275 284.374420,339.864609 284.795929,340.925522 284.795929C341.986435 284.795929,343.003769 284.374420,343.753891 283.624298C344.504013 282.874176,344.925522 281.856842,344.925522 280.795929Z" style="stroke:rgb(39.999390%,39.999390%,39.999390%); stroke-width: 0.500000;stroke-linecap: round;stroke-linejoin: round;stroke-miterlimit: 10.000000;fill: none;"></path>
  <path d="M344.925522 280.795929C344.925522 279.735016,344.504013 278.717682,343.753891 277.967560C343.003769 277.217438,341.986435 276.795929,340.925522 276.795929C339.864609 276.795929,338.847275 277.217438,338.097153 277.967560C337.347031 278.717682,336.925522 279.735016,336.925522 280.795929C336.925522 281.856842,337.347031 282.874176,338.097153 283.624298C338.847275 284.374420,339.864609 284.795929,340.925522 284.795929C341.986435 284.795929,343.003769 284.374420,343.753891 283.624298C344.504013 282.874176,344.925522 281.856842,344.925522 280.795929Z" style="fill: rgb(9.800720%,9.800720%,44.000244%);stroke: none;"></path>
  <path d="M292.577042 455.608261L192.255447 454.708588" style="stroke:rgb(60.000610%,60.000610%,60.000610%); stroke-width: 1.800003;stroke-linecap: round;stroke-dasharray: 3.000000 3.000000 ;stroke-linejoin: round;stroke-miterlimit: 10.000000;fill: none;"></path>
  <path d="M142.868881 367.371628L192.255447 454.708588" style="stroke:rgb(60.000610%,60.000610%,60.000610%); stroke-width: 1.800003;stroke-linecap: round;stroke-dasharray: 3.000000 3.000000 ;stroke-linejoin: round;stroke-miterlimit: 10.000000;fill: none;"></path>
  <path d="M296.577042 455.608261C296.577042 454.547348,296.155533 453.530014,295.405411 452.779892C294.655289 452.029770,293.637955 451.608261,292.577042 451.608261C291.516129 451.608261,290.498795 452.029770,289.748672 452.779892C288.998550 453.530014,288.577042 454.547348,288.577042 455.608261C288.577042 456.669174,288.998550 457.686508,289.748672 458.436630C290.498795 459.186752,291.516129 459.608261,292.577042 459.608261C293.637955 459.608261,294.655289 459.186752,295.405411 458.436630C296.155533 457.686508,296.577042 456.669174,296.577042 455.608261Z" style="stroke:rgb(39.999390%,39.999390%,39.999390%); stroke-width: 0.500000;stroke-linecap: round;stroke-linejoin: round;stroke-miterlimit: 10.000000;fill: none;"></path>
  <path d="M296.577042 455.608261C296.577042 454.547348,296.155533 453.530014,295.405411 452.779892C294.655289 452.029770,293.637955 451.608261,292.577042 451.608261C291.516129 451.608261,290.498795 452.029770,289.748672 452.779892C288.998550 453.530014,288.577042 454.547348,288.577042 455.608261C288.577042 456.669174,288.998550 457.686508,289.748672 458.436630C290.498795 459.186752,291.516129 459.608261,292.577042 459.608261C293.637955 459.608261,294.655289 459.186752,295.405411 458.436630C296.155533 457.686508,296.577042 456.669174,296.577042 455.608261Z" style="fill: rgb(89.999390%,0.000000%,0.000000%);stroke: none;"></path>
  <path d="M146.868881 367.371628C146.868881 366.310715,146.447372 365.293381,145.697250 364.543259C144.947128 363.793137,143.929794 363.371628,142.868881 363.371628C141.807968 363.371628,140.790634 363.793137,140.040512 364.543259C139.290390 365.293381,138.868881 366.310715,138.868881 367.371628C138.868881 368.432541,139.290390 369.449875,140.040512 370.199997C140.790634 370.950119,141.807968 371.371628,142.868881 371.371628C143.929794 371.371628,144.947128 370.950119,145.697250 370.199997C146.447372 369.449875,146.868881 368.432541,146.868881 367.371628Z" style="stroke:rgb(39.999390%,39.999390%,39.999390%); stroke-width: 0.500000;stroke-linecap: round;stroke-linejoin: round;stroke-miterlimit: 10.000000;fill: none;"></path>
  <path d="M146.868881 367.371628C146.868881 366.310715,146.447372 365.293381,145.697250 364.543259C144.947128 363.793137,143.929794 363.371628,142.868881 363.371628C141.807968 363.371628,140.790634 363.793137,140.040512 364.543259C139.290390 365.293381,138.868881 366.310715,138.868881 367.371628C138.868881 368.432541,139.290390 369.449875,140.040512 370.199997C140.790634 370.950119,141.807968 371.371628,142.868881 371.371628C143.929794 371.371628,144.947128 370.950119,145.697250 370.199997C146.447372 369.449875,146.868881 368.432541,146.868881 367.371628Z" style="fill: rgb(89.999390%,0.000000%,0.000000%);stroke: none;"></path>
  <path d="M196.255447 454.708588C196.255447 453.647675,195.833939 452.630341,195.083817 451.880219C194.333694 451.130096,193.316360 450.708588,192.255447 450.708588C191.194534 450.708588,190.177200 451.130096,189.427078 451.880219C188.676956 452.630341,188.255447 453.647675,188.255447 454.708588C188.255447 455.769501,188.676956 456.786835,189.427078 457.536957C190.177200 458.287079,191.194534 458.708588,192.255447 458.708588C193.316360 458.708588,194.333694 458.287079,195.083817 457.536957C195.833939 456.786835,196.255447 455.769501,196.255447 454.708588Z" style="stroke:rgb(39.999390%,39.999390%,39.999390%); stroke-width: 0.500000;stroke-linecap: round;stroke-linejoin: round;stroke-miterlimit: 10.000000;fill: none;"></path>
  <path d="M196.255447 454.708588C196.255447 453.647675,195.833939 452.630341,195.083817 451.880219C194.333694 451.130096,193.316360 450.708588,192.255447 450.708588C191.194534 450.708588,190.177200 451.130096,189.427078 451.880219C188.676956 452.630341,188.255447 453.647675,188.255447 454.708588C188.255447 455.769501,188.676956 456.786835,189.427078 457.536957C190.177200 458.287079,191.194534 458.708588,192.255447 458.708588C193.316360 458.708588,194.333694 458.287079,195.083817 457.536957C195.833939 456.786835,196.255447 455.769501,196.255447 454.708588Z" style="fill: rgb(9.800720%,9.800720%,44.000244%);stroke: none;"></path>
  <path d="M292.577042 455.608261L296.071899 355.338577" style="stroke:rgb(60.000610%,60.000610%,60.000610%); stroke-width: 1.800003;stroke-linecap: round;stroke-dasharray: 3.000000 3.000000 ;stroke-linejoin: round;stroke-miterlimit: 10.000000;fill: none;"></path>
  <path d="M241.027817 271.453217L296.071899 355.338577" style="stroke:rgb(60.000610%,60.000610%,60.000610%); stroke-width: 1.800003;stroke-linecap: round;stroke-dasharray: 3.000000 3.000000 ;stroke-linejoin: round;stroke-miterlimit: 10.000000;fill: none;"></path>
  <path d="M296.577042 455.608261C296.577042 454.547348,296.155533 453.530014,295.405411 452.779892C294.655289 452.029770,293.637955 451.608261,292.577042 451.608261C291.516129 451.608261,290.498795 452.029770,289.748672 452.779892C288.998550 453.530014,288.577042 454.547348,288.577042 455.608261C288.577042 456.669174,288.998550 457.686508,289.748672 458.436630C290.498795 459.186752,291.516129 459.608261,292.577042 459.608261C293.637955 459.608261,294.655289 459.186752,295.405411 458.436630C296.155533 457.686508,296.577042 456.669174,296.577042 455.608261Z" style="stroke:rgb(39.999390%,39.999390%,39.999390%); stroke-width: 0.500000;stroke-linecap: round;stroke-linejoin: round;stroke-miterlimit: 10.000000;fill: none;"></path>
  <path d="M296.577042 455.608261C296.577042 454.547348,296.155533 453.530014,295.405411 452.779892C294.655289 452.029770,293.637955 451.608261,292.577042 451.608261C291.516129 451.608261,290.498795 452.029770,289.748672 452.779892C288.998550 453.530014,288.577042 454.547348,288.577042 455.608261C288.577042 456.669174,288.998550 457.686508,289.748672 458.436630C290.498795 459.186752,291.516129 459.608261,292.577042 459.608261C293.637955 459.608261,294.655289 459.186752,295.405411 458.436630C296.155533 457.686508,296.577042 456.669174,296.577042 455.608261Z" style="fill: rgb(89.999390%,0.000000%,0.000000%);stroke: none;"></path>
  <path d="M245.027817 271.453217C245.027817 270.392303,244.606308 269.374969,243.856186 268.624847C243.106064 267.874725,242.088730 267.453217,241.027817 267.453217C239.966904 267.453217,238.949570 267.874725,238.199448 268.624847C237.449326 269.374969,237.027817 270.392303,237.027817 271.453217C237.027817 272.514130,237.449326 273.531464,238.199448 274.281586C238.949570 275.031708,239.966904 275.453217,241.027817 275.453217C242.088730 275.453217,243.106064 275.031708,243.856186 274.281586C244.606308 273.531464,245.027817 272.514130,245.027817 271.453217Z" style="stroke:rgb(39.999390%,39.999390%,39.999390%); stroke-width: 0.500000;stroke-linecap: round;stroke-linejoin: round;stroke-miterlimit: 10.000000;fill: none;"></path>
  <path d="M245.027817 271.453217C245.027817 270.392303,244.606308 269.374969,243.856186 268.624847C243.106064 267.874725,242.088730 267.453217,241.027817 267.453217C239.966904 267.453217,238.949570 267.874725,238.199448 268.624847C237.449326 269.374969,237.027817 270.392303,237.027817 271.453217C237.027817 272.514130,237.449326 273.531464,238.199448 274.281586C238.949570 275.031708,239.966904 275.453217,241.027817 275.453217C242.088730 275.453217,243.106064 275.031708,243.856186 274.281586C244.606308 273.531464,245.027817 272.514130,245.027817 271.453217Z" style="fill: rgb(89.999390%,0.000000%,0.000000%);stroke: none;"></path>
  <path d="M300.071899 355.338577C300.071899 354.277664,299.650391 353.260330,298.900269 352.510208C298.150146 351.760086,297.132812 351.338577,296.071899 351.338577C295.010986 351.338577,293.993652 351.760086,293.243530 352.510208C292.493408 353.260330,292.071899 354.277664,292.071899 355.338577C292.071899 356.399490,292.493408 357.416824,293.243530 358.166946C293.993652 358.917068,295.010986 359.338577,296.071899 359.338577C297.132812 359.338577,298.150146 358.917068,298.900269 358.166946C299.650391 357.416824,300.071899 356.399490,300.071899 355.338577Z" style="stroke:rgb(39.999390%,39.999390%,39.999390%); stroke-width: 0.500000;stroke-linecap: round;stroke-linejoin: round;stroke-miterlimit: 10.000000;fill: none;"></path>
  <path d="M300.071899 355.338577C300.071899 354.277664,299.650391 353.260330,298.900269 352.510208C298.150146 351.760086,297.132812 351.338577,296.071899 351.338577C295.010986 351.338577,293.993652 351.760086,293.243530 352.510208C292.493408 353.260330,292.071899 354.277664,292.071899 355.338577C292.071899 356.399490,292.493408 357.416824,293.243530 358.166946C293.993652 358.917068,295.010986 359.338577,296.071899 359.338577C297.132812 359.338577,298.150146 358.917068,298.900269 358.166946C299.650391 357.416824,300.071899 356.399490,300.071899 355.338577Z" style="fill: rgb(9.800720%,9.800720%,44.000244%);stroke: none;"></path>
  <path d="M292.577042 455.608261L204.669128 503.974045" style="stroke:rgb(60.000610%,60.000610%,60.000610%); stroke-width: 1.800003;stroke-linecap: round;stroke-dasharray: 3.000000 3.000000 ;stroke-linejoin: round;stroke-miterlimit: 10.000000;fill: none;"></path>
  <path d="M104.347549 503.074387L204.669128 503.974045" style="stroke:rgb(60.000610%,60.000610%,60.000610%); stroke-width: 1.800003;stroke-linecap: round;stroke-dasharray: 3.000000 3.000000 ;stroke-linejoin: round;stroke-miterlimit: 10.000000;fill: none;"></path>
  <path d="M296.577042 455.608261C296.577042 454.547348,296.155533 453.530014,295.405411 452.779892C294.655289 452.029770,293.637955 451.608261,292.577042 451.608261C291.516129 451.608261,290.498795 452.029770,289.748672 452.779892C288.998550 453.530014,288.577042 454.547348,288.577042 455.608261C288.577042 456.669174,288.998550 457.686508,289.748672 458.436630C290.498795 459.186752,291.516129 459.608261,292.577042 459.608261C293.637955 459.608261,294.655289 459.186752,295.405411 458.436630C296.155533 457.686508,296.577042 456.669174,296.577042 455.608261Z" style="stroke:rgb(39.999390%,39.999390%,39.999390%); stroke-width: 0.500000;stroke-linecap: round;stroke-linejoin: round;stroke-miterlimit: 10.000000;fill: none;"></path>
  <path d="M296.577042 455.608261C296.577042 454.547348,296.155533 453.530014,295.405411 452.779892C294.655289 452.029770,293.637955 451.608261,292.577042 451.608261C291.516129 451.608261,290.498795 452.029770,289.748672 452.779892C288.998550 453.530014,288.577042 454.547348,288.577042 455.608261C288.577042 456.669174,288.998550 457.686508,289.748672 458.436630C290.498795 459.186752,291.516129 459.608261,292.577042 459.608261C293.637955 459.608261,294.655289 459.186752,295.405411 458.436630C296.155533 457.686508,296.577042 456.669174,296.577042 455.608261Z" style="fill: rgb(89.999390%,0.000000%,0.000000%);stroke: none;"></path>
  <path d="M108.347549 503.074387C108.347549 502.013474,107.926041 500.996140,107.175919 500.246017C106.425797 499.495895,105.408463 499.074387,104.347549 499.074387C103.286636 499.074387,102.269302 499.495895,101.519180 500.246017C100.769058 500.996140,100.347549 502.013474,100.347549 503.074387C100.347549 504.135300,100.769058 505.152634,101.519180 505.902756C102.269302 506.652878,103.286636 507.074387,104.347549 507.074387C105.408463 507.074387,106.425797 506.652878,107.175919 505.902756C107.926041 505.152634,108.347549 504.135300,108.347549 503.074387Z" style="stroke:rgb(39.999390%,39.999390%,39.999390%); stroke-width: 0.500000;stroke-linecap: round;stroke-linejoin: round;stroke-miterlimit: 10.000000;fill: none;"></path>
  <path d="M108.347549 503.074387C108.347549 502.013474,107.926041 500.996140,107.175919 500.246017C106.425797 499.495895,105.408463 499.074387,104.347549 499.074387C103.286636 499.074387,102.269302 499.495895,101.519180 500.246017C100.769058 500.996140,100.347549 502.013474,100.347549 503.074387C100.347549 504.135300,100.769058 505.152634,101.519180 505.902756C102.269302 506.652878,103.286636 507.074387,104.347549 507.074387C105.408463 507.074387,106.425797 506.652878,107.175919 505.902756C107.926041 505.152634,108.347549 504.135300,108.347549 503.074387Z" style="fill: rgb(89.999390%,0.000000%,0.000000%);stroke: none;"></path>
  <path d="M208.669128 503.974045C208.669128 502.913132,208.247620 501.895798,207.497498 501.145676C206.747375 500.395554,205.730042 499.974045,204.669128 499.974045C203.608215 499.974045,202.590881 500.395554,201.840759 501.145676C201.090637 501.895798,200.669128 502.913132,200.669128 503.974045C200.669128 505.034958,201.090637 506.052292,201.840759 506.802414C202.590881 507.552536,203.608215 507.974045,204.669128 507.974045C205.730042 507.974045,206.747375 507.552536,207.497498 506.802414C208.247620 506.052292,208.669128 505.034958,208.669128 503.974045Z" style="stroke:rgb(39.999390%,39.999390%,39.999390%); stroke-width: 0.500000;stroke-linecap: round;stroke-linejoin: round;stroke-miterlimit: 10.000000;fill: none;"></path>
  <path d="M208.669128 503.974045C208.669128 502.913132,208.247620 501.895798,207.497498 501.145676C206.747375 500.395554,205.730042 499.974045,204.669128 499.974045C203.608215 499.974045,202.590881 500.395554,201.840759 501.145676C201.090637 501.895798,200.669128 502.913132,200.669128 503.974045C200.669128 505.034958,201.090637 506.052292,201.840759 506.802414C202.590881 507.552536,203.608215 507.974045,204.669128 507.974045C205.730042 507.974045,206.747375 507.552536,207.497498 506.802414C208.247620 506.052292,208.669128 505.034958,208.669128 503.974045Z" style="fill: rgb(0.000000%,50.000000%,0.000000%);stroke: none;"></path>
  <path d="M292.577042 455.608261L192.255447 454.708588" style="stroke:rgb(60.000610%,60.000610%,60.000610%); stroke-width: 1.800003;stroke-linecap: round;stroke-dasharray: 3.000000 3.000000 ;stroke-linejoin: round;stroke-miterlimit: 10.000000;fill: none;"></path>
  <path d="M104.347549 503.074387L192.255447 454.708588" style="stroke:rgb(60.000610%,60.000610%,60.000610%); stroke-width: 1.800003;stroke-linecap: round;stroke-dasharray: 3.000000 3.000000 ;stroke-linejoin: round;stroke-miterlimit: 10.000000;fill: none;"></path>
  <path d="M296.577042 455.608261C296.577042 454.547348,296.155533 453.530014,295.405411 452.779892C294.655289 452.029770,293.637955 451.608261,292.577042 451.608261C291.516129 451.608261,290.498795 452.029770,289.748672 452.779892C288.998550 453.530014,288.577042 454.547348,288.577042 455.608261C288.577042 456.669174,288.998550 457.686508,289.748672 458.436630C290.498795 459.186752,291.516129 459.608261,292.577042 459.608261C293.637955 459.608261,294.655289 459.186752,295.405411 458.436630C296.155533 457.686508,296.577042 456.669174,296.577042 455.608261Z" style="stroke:rgb(39.999390%,39.999390%,39.999390%); stroke-width: 0.500000;stroke-linecap: round;stroke-linejoin: round;stroke-miterlimit: 10.000000;fill: none;"></path>
  <path d="M296.577042 455.608261C296.577042 454.547348,296.155533 453.530014,295.405411 452.779892C294.655289 452.029770,293.637955 451.608261,292.577042 451.608261C291.516129 451.608261,290.498795 452.029770,289.748672 452.779892C288.998550 453.530014,288.577042 454.547348,288.577042 455.608261C288.577042 456.669174,288.998550 457.686508,289.748672 458.436630C290.498795 459.186752,291.516129 459.608261,292.577042 459.608261C293.637955 459.608261,294.655289 459.186752,295.405411 458.436630C296.155533 457.686508,296.577042 456.669174,296.577042 455.608261Z" style="fill: rgb(89.999390%,0.000000%,0.000000%);stroke: none;"></path>
  <path d="M108.347549 503.074387C108.347549 502.013474,107.926041 500.996140,107.175919 500.246017C106.425797 499.495895,105.408463 499.074387,104.347549 499.074387C103.286636 499.074387,102.269302 499.495895,101.519180 500.246017C100.769058 500.996140,100.347549 502.013474,100.347549 503.074387C100.347549 504.135300,100.769058 505.152634,101.519180 505.902756C102.269302 506.652878,103.286636 507.074387,104.347549 507.074387C105.408463 507.074387,106.425797 506.652878,107.175919 505.902756C107.926041 505.152634,108.347549 504.135300,108.347549 503.074387Z" style="stroke:rgb(39.999390%,39.999390%,39.999390%); stroke-width: 0.500000;stroke-linecap: round;stroke-linejoin: round;stroke-miterlimit: 10.000000;fill: none;"></path>
  <path d="M108.347549 503.074387C108.347549 502.013474,107.926041 500.996140,107.175919 500.246017C106.425797 499.495895,105.408463 499.074387,104.347549 499.074387C103.286636 499.074387,102.269302 499.495895,101.519180 500.246017C100.769058 500.996140,100.347549 502.013474,100.347549 503.074387C100.347549 504.135300,100.769058 505.152634,101.519180 505.902756C102.269302 506.652878,103.286636 507.074387,104.347549 507.074387C105.408463 507.074387,106.425797 506.652878,107.175919 505.902756C107.926041 505.152634,108.347549 504.135300,108.347549 503.074387Z" style="fill: rgb(89.999390%,0.000000%,0.000000%);stroke: none;"></path>
  <path d="M196.255447 454.708588C196.255447 453.647675,195.833939 452.630341,195.083817 451.880219C194.333694 451.130096,193.316360 450.708588,192.255447 450.708588C191.194534 450.708588,190.177200 451.130096,189.427078 451.880219C188.676956 452.630341,188.255447 453.647675,188.255447 454.708588C188.255447 455.769501,188.676956 456.786835,189.427078 457.536957C190.177200 458.287079,191.194534 458.708588,192.255447 458.708588C193.316360 458.708588,194.333694 458.287079,195.083817 457.536957C195.833939 456.786835,196.255447 455.769501,196.255447 454.708588Z" style="stroke:rgb(39.999390%,39.999390%,39.999390%); stroke-width: 0.500000;stroke-linecap: round;stroke-linejoin: round;stroke-miterlimit: 10.000000;fill: none;"></path>
  <path d="M196.255447 454.708588C196.255447 453.647675,195.833939 452.630341,195.083817 451.880219C194.333694 451.130096,193.316360 450.708588,192.255447 450.708588C191.194534 450.708588,190.177200 451.130096,189.427078 451.880219C188.676956 452.630341,188.255447 453.647675,188.255447 454.708588C188.255447 455.769501,188.676956 456.786835,189.427078 457.536957C190.177200 458.287079,191.194534 458.708588,192.255447 458.708588C193.316360 458.708588,194.333694 458.287079,195.083817 457.536957C195.833939 456.786835,196.255447 455.769501,196.255447 454.708588Z" style="fill: rgb(9.800720%,9.800720%,44.000244%);stroke: none;"></path>
  <path d="M382.751419 189.600769L337.664230 99.971375" style="stroke:rgb(60.000610%,60.000610%,60.000610%); stroke-width: 1.800003;stroke-linecap: round;stroke-dasharray: 3.000000 3.000000 ;stroke-linejoin: round;stroke-miterlimit: 10.000000;fill: none;"></path>
  <path d="M237.333984 99.945435L337.664230 99.971375" style="stroke:rgb(60.000610%,60.000610%,60.000610%); stroke-width: 1.800003;stroke-linecap: round;stroke-dasharray: 3.000000 3.000000 ;stroke-linejoin: round;stroke-miterlimit: 10.000000;fill: none;"></path>
  <path d="M386.751419 189.600769C386.751419 188.539856,386.329910 187.522522,385.579788 186.772400C384.829666 186.022278,383.812332 185.600769,382.751419 185.600769C381.690506 185.600769,380.673172 186.022278,379.923050 186.772400C379.172928 187.522522,378.751419 188.539856,378.751419 189.600769C378.751419 190.661682,379.172928 191.679016,379.923050 192.429138C380.673172 193.179260,381.690506 193.600769,382.751419 193.600769C383.812332 193.600769,384.829666 193.179260,385.579788 192.429138C386.329910 191.679016,386.751419 190.661682,386.751419 189.600769Z" style="stroke:rgb(39.999390%,39.999390%,39.999390%); stroke-width: 0.500000;stroke-linecap: round;stroke-linejoin: round;stroke-miterlimit: 10.000000;fill: none;"></path>
  <path d="M386.751419 189.600769C386.751419 188.539856,386.329910 187.522522,385.579788 186.772400C384.829666 186.022278,383.812332 185.600769,382.751419 185.600769C381.690506 185.600769,380.673172 186.022278,379.923050 186.772400C379.172928 187.522522,378.751419 188.539856,378.751419 189.600769C378.751419 190.661682,379.172928 191.679016,379.923050 192.429138C380.673172 193.179260,381.690506 193.600769,382.751419 193.600769C383.812332 193.600769,384.829666 193.179260,385.579788 192.429138C386.329910 191.679016,386.751419 190.661682,386.751419 189.600769Z" style="fill: rgb(89.999390%,0.000000%,0.000000%);stroke: none;"></path>
  <path d="M241.333984 99.945435C241.333984 98.884521,240.912476 97.867188,240.162354 97.117065C239.412231 96.366943,238.394897 95.945435,237.333984 95.945435C236.273071 95.945435,235.255737 96.366943,234.505615 97.117065C233.755493 97.867188,233.333984 98.884521,233.333984 99.945435C233.333984 101.006348,233.755493 102.023682,234.505615 102.773804C235.255737 103.523926,236.273071 103.945435,237.333984 103.945435C238.394897 103.945435,239.412231 103.523926,240.162354 102.773804C240.912476 102.023682,241.333984 101.006348,241.333984 99.945435Z" style="stroke:rgb(39.999390%,39.999390%,39.999390%); stroke-width: 0.500000;stroke-linecap: round;stroke-linejoin: round;stroke-miterlimit: 10.000000;fill: none;"></path>
  <path d="M241.333984 99.945435C241.333984 98.884521,240.912476 97.867188,240.162354 97.117065C239.412231 96.366943,238.394897 95.945435,237.333984 95.945435C236.273071 95.945435,235.255737 96.366943,234.505615 97.117065C233.755493 97.867188,233.333984 98.884521,233.333984 99.945435C233.333984 101.006348,233.755493 102.023682,234.505615 102.773804C235.255737 103.523926,236.273071 103.945435,237.333984 103.945435C238.394897 103.945435,239.412231 103.523926,240.162354 102.773804C240.912476 102.023682,241.333984 101.006348,241.333984 99.945435Z" style="fill: rgb(89.999390%,0.000000%,0.000000%);stroke: none;"></path>
  <path d="M341.664230 99.971375C341.664230 98.910461,341.242722 97.893127,340.492599 97.143005C339.742477 96.392883,338.725143 95.971375,337.664230 95.971375C336.603317 95.971375,335.585983 96.392883,334.835861 97.143005C334.085739 97.893127,333.664230 98.910461,333.664230 99.971375C333.664230 101.032288,334.085739 102.049622,334.835861 102.799744C335.585983 103.549866,336.603317 103.971375,337.664230 103.971375C338.725143 103.971375,339.742477 103.549866,340.492599 102.799744C341.242722 102.049622,341.664230 101.032288,341.664230 99.971375Z" style="stroke:rgb(39.999390%,39.999390%,39.999390%); stroke-width: 0.500000;stroke-linecap: round;stroke-linejoin: round;stroke-miterlimit: 10.000000;fill: none;"></path>
  <path d="M341.664230 99.971375C341.664230 98.910461,341.242722 97.893127,340.492599 97.143005C339.742477 96.392883,338.725143 95.971375,337.664230 95.971375C336.603317 95.971375,335.585983 96.392883,334.835861 97.143005C334.085739 97.893127,333.664230 98.910461,333.664230 99.971375C333.664230 101.032288,334.085739 102.049622,334.835861 102.799744C335.585983 103.549866,336.603317 103.971375,337.664230 103.971375C338.725143 103.971375,339.742477 103.549866,340.492599 102.799744C341.242722 102.049622,341.664230 101.032288,341.664230 99.971375Z" style="fill: rgb(0.000000%,50.000000%,0.000000%);stroke: none;"></path>
  <path d="M382.751419 189.600769L340.925522 280.795929" style="stroke:rgb(60.000610%,60.000610%,60.000610%); stroke-width: 1.800003;stroke-linecap: round;stroke-dasharray: 3.000000 3.000000 ;stroke-linejoin: round;stroke-miterlimit: 10.000000;fill: none;"></path>
  <path d="M241.027817 271.453217L340.925522 280.795929" style="stroke:rgb(60.000610%,60.000610%,60.000610%); stroke-width: 1.800003;stroke-linecap: round;stroke-dasharray: 3.000000 3.000000 ;stroke-linejoin: round;stroke-miterlimit: 10.000000;fill: none;"></path>
  <path d="M386.751419 189.600769C386.751419 188.539856,386.329910 187.522522,385.579788 186.772400C384.829666 186.022278,383.812332 185.600769,382.751419 185.600769C381.690506 185.600769,380.673172 186.022278,379.923050 186.772400C379.172928 187.522522,378.751419 188.539856,378.751419 189.600769C378.751419 190.661682,379.172928 191.679016,379.923050 192.429138C380.673172 193.179260,381.690506 193.600769,382.751419 193.600769C383.812332 193.600769,384.829666 193.179260,385.579788 192.429138C386.329910 191.679016,386.751419 190.661682,386.751419 189.600769Z" style="stroke:rgb(39.999390%,39.999390%,39.999390%); stroke-width: 0.500000;stroke-linecap: round;stroke-linejoin: round;stroke-miterlimit: 10.000000;fill: none;"></path>
  <path d="M386.751419 189.600769C386.751419 188.539856,386.329910 187.522522,385.579788 186.772400C384.829666 186.022278,383.812332 185.600769,382.751419 185.600769C381.690506 185.600769,380.673172 186.022278,379.923050 186.772400C379.172928 187.522522,378.751419 188.539856,378.751419 189.600769C378.751419 190.661682,379.172928 191.679016,379.923050 192.429138C380.673172 193.179260,381.690506 193.600769,382.751419 193.600769C383.812332 193.600769,384.829666 193.179260,385.579788 192.429138C386.329910 191.679016,386.751419 190.661682,386.751419 189.600769Z" style="fill: rgb(89.999390%,0.000000%,0.000000%);stroke: none;"></path>
  <path d="M245.027817 271.453217C245.027817 270.392303,244.606308 269.374969,243.856186 268.624847C243.106064 267.874725,242.088730 267.453217,241.027817 267.453217C239.966904 267.453217,238.949570 267.874725,238.199448 268.624847C237.449326 269.374969,237.027817 270.392303,237.027817 271.453217C237.027817 272.514130,237.449326 273.531464,238.199448 274.281586C238.949570 275.031708,239.966904 275.453217,241.027817 275.453217C242.088730 275.453217,243.106064 275.031708,243.856186 274.281586C244.606308 273.531464,245.027817 272.514130,245.027817 271.453217Z" style="stroke:rgb(39.999390%,39.999390%,39.999390%); stroke-width: 0.500000;stroke-linecap: round;stroke-linejoin: round;stroke-miterlimit: 10.000000;fill: none;"></path>
  <path d="M245.027817 271.453217C245.027817 270.392303,244.606308 269.374969,243.856186 268.624847C243.106064 267.874725,242.088730 267.453217,241.027817 267.453217C239.966904 267.453217,238.949570 267.874725,238.199448 268.624847C237.449326 269.374969,237.027817 270.392303,237.027817 271.453217C237.027817 272.514130,237.449326 273.531464,238.199448 274.281586C238.949570 275.031708,239.966904 275.453217,241.027817 275.453217C242.088730 275.453217,243.106064 275.031708,243.856186 274.281586C244.606308 273.531464,245.027817 272.514130,245.027817 271.453217Z" style="fill: rgb(89.999390%,0.000000%,0.000000%);stroke: none;"></path>
  <path d="M344.925522 280.795929C344.925522 279.735016,344.504013 278.717682,343.753891 277.967560C343.003769 277.217438,341.986435 276.795929,340.925522 276.795929C339.864609 276.795929,338.847275 277.217438,338.097153 277.967560C337.347031 278.717682,336.925522 279.735016,336.925522 280.795929C336.925522 281.856842,337.347031 282.874176,338.097153 283.624298C338.847275 284.374420,339.864609 284.795929,340.925522 284.795929C341.986435 284.795929,343.003769 284.374420,343.753891 283.624298C344.504013 282.874176,344.925522 281.856842,344.925522 280.795929Z" style="stroke:rgb(39.999390%,39.999390%,39.999390%); stroke-width: 0.500000;stroke-linecap: round;stroke-linejoin: round;stroke-miterlimit: 10.000000;fill: none;"></path>
  <path d="M344.925522 280.795929C344.925522 279.735016,344.504013 278.717682,343.753891 277.967560C343.003769 277.217438,341.986435 276.795929,340.925522 276.795929C339.864609 276.795929,338.847275 277.217438,338.097153 277.967560C337.347031 278.717682,336.925522 279.735016,336.925522 280.795929C336.925522 281.856842,337.347031 282.874176,338.097153 283.624298C338.847275 284.374420,339.864609 284.795929,340.925522 284.795929C341.986435 284.795929,343.003769 284.374420,343.753891 283.624298C344.504013 282.874176,344.925522 281.856842,344.925522 280.795929Z" style="fill: rgb(9.800720%,9.800720%,44.000244%);stroke: none;"></path>
  <path d="M237.333984 99.945435L287.464508 13.023697" style="stroke:rgb(60.000610%,60.000610%,60.000610%); stroke-width: 1.800003;stroke-linecap: round;stroke-dasharray: 3.000000 3.000000 ;stroke-linejoin: round;stroke-miterlimit: 10.000000;fill: none;"></path>
  <path d="M241.333984 99.945435C241.333984 98.884521,240.912476 97.867188,240.162354 97.117065C239.412231 96.366943,238.394897 95.945435,237.333984 95.945435C236.273071 95.945435,235.255737 96.366943,234.505615 97.117065C233.755493 97.867188,233.333984 98.884521,233.333984 99.945435C233.333984 101.006348,233.755493 102.023682,234.505615 102.773804C235.255737 103.523926,236.273071 103.945435,237.333984 103.945435C238.394897 103.945435,239.412231 103.523926,240.162354 102.773804C240.912476 102.023682,241.333984 101.006348,241.333984 99.945435Z" style="stroke:rgb(39.999390%,39.999390%,39.999390%); stroke-width: 0.500000;stroke-linecap: round;stroke-linejoin: round;stroke-miterlimit: 10.000000;fill: none;"></path>
  <path d="M241.333984 99.945435C241.333984 98.884521,240.912476 97.867188,240.162354 97.117065C239.412231 96.366943,238.394897 95.945435,237.333984 95.945435C236.273071 95.945435,235.255737 96.366943,234.505615 97.117065C233.755493 97.867188,233.333984 98.884521,233.333984 99.945435C233.333984 101.006348,233.755493 102.023682,234.505615 102.773804C235.255737 103.523926,236.273071 103.945435,237.333984 103.945435C238.394897 103.945435,239.412231 103.523926,240.162354 102.773804C240.912476 102.023682,241.333984 101.006348,241.333984 99.945435Z" style="fill: rgb(89.999390%,0.000000%,0.000000%);stroke: none;"></path>
  <path d="M291.464508 13.023697C291.464508 11.962784,291.042999 10.945450,290.292877 10.195328C289.542755 9.445206,288.525421 9.023697,287.464508 9.023697C286.403595 9.023697,285.386261 9.445206,284.636139 10.195328C283.886017 10.945450,283.464508 11.962784,283.464508 13.023697C283.464508 14.084610,283.886017 15.101944,284.636139 15.852066C285.386261 16.602188,286.403595 17.023697,287.464508 17.023697C288.525421 17.023697,289.542755 16.602188,290.292877 15.852066C291.042999 15.101944,291.464508 14.084610,291.464508 13.023697Z" style="stroke:rgb(39.999390%,39.999390%,39.999390%); stroke-width: 0.500000;stroke-linecap: round;stroke-linejoin: round;stroke-miterlimit: 10.000000;fill: none;"></path>
  <path d="M291.464508 13.023697C291.464508 11.962784,291.042999 10.945450,290.292877 10.195328C289.542755 9.445206,288.525421 9.023697,287.464508 9.023697C286.403595 9.023697,285.386261 9.445206,284.636139 10.195328C283.886017 10.945450,283.464508 11.962784,283.464508 13.023697C283.464508 14.084610,283.886017 15.101944,284.636139 15.852066C285.386261 16.602188,286.403595 17.023697,287.464508 17.023697C288.525421 17.023697,289.542755 16.602188,290.292877 15.852066C291.042999 15.101944,291.464508 14.084610,291.464508 13.023697Z" style="fill: rgb(100.000000%,100.000000%,0.000000%);stroke: none;"></path>
  <path d="M237.333984 99.945435L187.142914 186.823914" style="stroke:rgb(60.000610%,60.000610%,60.000610%); stroke-width: 1.800003;stroke-linecap: round;stroke-dasharray: 3.000000 3.000000 ;stroke-linejoin: round;stroke-miterlimit: 10.000000;fill: none;"></path>
  <path d="M241.027817 271.453217L187.142914 186.823914" style="stroke:rgb(60.000610%,60.000610%,60.000610%); stroke-width: 1.800003;stroke-linecap: round;stroke-dasharray: 3.000000 3.000000 ;stroke-linejoin: round;stroke-miterlimit: 10.000000;fill: none;"></path>
  <path d="M241.333984 99.945435C241.333984 98.884521,240.912476 97.867188,240.162354 97.117065C239.412231 96.366943,238.394897 95.945435,237.333984 95.945435C236.273071 95.945435,235.255737 96.366943,234.505615 97.117065C233.755493 97.867188,233.333984 98.884521,233.333984 99.945435C233.333984 101.006348,233.755493 102.023682,234.505615 102.773804C235.255737 103.523926,236.273071 103.945435,237.333984 103.945435C238.394897 103.945435,239.412231 103.523926,240.162354 102.773804C240.912476 102.023682,241.333984 101.006348,241.333984 99.945435Z" style="stroke:rgb(39.999390%,39.999390%,39.999390%); stroke-width: 0.500000;stroke-linecap: round;stroke-linejoin: round;stroke-miterlimit: 10.000000;fill: none;"></path>
  <path d="M241.333984 99.945435C241.333984 98.884521,240.912476 97.867188,240.162354 97.117065C239.412231 96.366943,238.394897 95.945435,237.333984 95.945435C236.273071 95.945435,235.255737 96.366943,234.505615 97.117065C233.755493 97.867188,233.333984 98.884521,233.333984 99.945435C233.333984 101.006348,233.755493 102.023682,234.505615 102.773804C235.255737 103.523926,236.273071 103.945435,237.333984 103.945435C238.394897 103.945435,239.412231 103.523926,240.162354 102.773804C240.912476 102.023682,241.333984 101.006348,241.333984 99.945435Z" style="fill: rgb(89.999390%,0.000000%,0.000000%);stroke: none;"></path>
  <path d="M245.027817 271.453217C245.027817 270.392303,244.606308 269.374969,243.856186 268.624847C243.106064 267.874725,242.088730 267.453217,241.027817 267.453217C239.966904 267.453217,238.949570 267.874725,238.199448 268.624847C237.449326 269.374969,237.027817 270.392303,237.027817 271.453217C237.027817 272.514130,237.449326 273.531464,238.199448 274.281586C238.949570 275.031708,239.966904 275.453217,241.027817 275.453217C242.088730 275.453217,243.106064 275.031708,243.856186 274.281586C244.606308 273.531464,245.027817 272.514130,245.027817 271.453217Z" style="stroke:rgb(39.999390%,39.999390%,39.999390%); stroke-width: 0.500000;stroke-linecap: round;stroke-linejoin: round;stroke-miterlimit: 10.000000;fill: none;"></path>
  <path d="M245.027817 271.453217C245.027817 270.392303,244.606308 269.374969,243.856186 268.624847C243.106064 267.874725,242.088730 267.453217,241.027817 267.453217C239.966904 267.453217,238.949570 267.874725,238.199448 268.624847C237.449326 269.374969,237.027817 270.392303,237.027817 271.453217C237.027817 272.514130,237.449326 273.531464,238.199448 274.281586C238.949570 275.031708,239.966904 275.453217,241.027817 275.453217C242.088730 275.453217,243.106064 275.031708,243.856186 274.281586C244.606308 273.531464,245.027817 272.514130,245.027817 271.453217Z" style="fill: rgb(89.999390%,0.000000%,0.000000%);stroke: none;"></path>
  <path d="M191.142914 186.823914C191.142914 185.763000,190.721405 184.745667,189.971283 183.995544C189.221161 183.245422,188.203827 182.823914,187.142914 182.823914C186.082001 182.823914,185.064667 183.245422,184.314545 183.995544C183.564423 184.745667,183.142914 185.763000,183.142914 186.823914C183.142914 187.884827,183.564423 188.902161,184.314545 189.652283C185.064667 190.402405,186.082001 190.823914,187.142914 190.823914C188.203827 190.823914,189.221161 190.402405,189.971283 189.652283C190.721405 188.902161,191.142914 187.884827,191.142914 186.823914Z" style="stroke:rgb(39.999390%,39.999390%,39.999390%); stroke-width: 0.500000;stroke-linecap: round;stroke-linejoin: round;stroke-miterlimit: 10.000000;fill: none;"></path>
  <path d="M191.142914 186.823914C191.142914 185.763000,190.721405 184.745667,189.971283 183.995544C189.221161 183.245422,188.203827 182.823914,187.142914 182.823914C186.082001 182.823914,185.064667 183.245422,184.314545 183.995544C183.564423 184.745667,183.142914 185.763000,183.142914 186.823914C183.142914 187.884827,183.564423 188.902161,184.314545 189.652283C185.064667 190.402405,186.082001 190.823914,187.142914 190.823914C188.203827 190.823914,189.221161 190.402405,189.971283 189.652283C190.721405 188.902161,191.142914 187.884827,191.142914 186.823914Z" style="fill: rgb(0.000000%,50.000000%,0.000000%);stroke: none;"></path>
  <path d="M142.868881 367.371628L140.792740 267.067337" style="stroke:rgb(60.000610%,60.000610%,60.000610%); stroke-width: 1.800003;stroke-linecap: round;stroke-dasharray: 3.000000 3.000000 ;stroke-linejoin: round;stroke-miterlimit: 10.000000;fill: none;"></path>
  <path d="M241.027817 271.453217L140.792740 267.067337" style="stroke:rgb(60.000610%,60.000610%,60.000610%); stroke-width: 1.800003;stroke-linecap: round;stroke-dasharray: 3.000000 3.000000 ;stroke-linejoin: round;stroke-miterlimit: 10.000000;fill: none;"></path>
  <path d="M146.868881 367.371628C146.868881 366.310715,146.447372 365.293381,145.697250 364.543259C144.947128 363.793137,143.929794 363.371628,142.868881 363.371628C141.807968 363.371628,140.790634 363.793137,140.040512 364.543259C139.290390 365.293381,138.868881 366.310715,138.868881 367.371628C138.868881 368.432541,139.290390 369.449875,140.040512 370.199997C140.790634 370.950119,141.807968 371.371628,142.868881 371.371628C143.929794 371.371628,144.947128 370.950119,145.697250 370.199997C146.447372 369.449875,146.868881 368.432541,146.868881 367.371628Z" style="stroke:rgb(39.999390%,39.999390%,39.999390%); stroke-width: 0.500000;stroke-linecap: round;stroke-linejoin: round;stroke-miterlimit: 10.000000;fill: none;"></path>
  <path d="M146.868881 367.371628C146.868881 366.310715,146.447372 365.293381,145.697250 364.543259C144.947128 363.793137,143.929794 363.371628,142.868881 363.371628C141.807968 363.371628,140.790634 363.793137,140.040512 364.543259C139.290390 365.293381,138.868881 366.310715,138.868881 367.371628C138.868881 368.432541,139.290390 369.449875,140.040512 370.199997C140.790634 370.950119,141.807968 371.371628,142.868881 371.371628C143.929794 371.371628,144.947128 370.950119,145.697250 370.199997C146.447372 369.449875,146.868881 368.432541,146.868881 367.371628Z" style="fill: rgb(89.999390%,0.000000%,0.000000%);stroke: none;"></path>
  <path d="M245.027817 271.453217C245.027817 270.392303,244.606308 269.374969,243.856186 268.624847C243.106064 267.874725,242.088730 267.453217,241.027817 267.453217C239.966904 267.453217,238.949570 267.874725,238.199448 268.624847C237.449326 269.374969,237.027817 270.392303,237.027817 271.453217C237.027817 272.514130,237.449326 273.531464,238.199448 274.281586C238.949570 275.031708,239.966904 275.453217,241.027817 275.453217C242.088730 275.453217,243.106064 275.031708,243.856186 274.281586C244.606308 273.531464,245.027817 272.514130,245.027817 271.453217Z" style="stroke:rgb(39.999390%,39.999390%,39.999390%); stroke-width: 0.500000;stroke-linecap: round;stroke-linejoin: round;stroke-miterlimit: 10.000000;fill: none;"></path>
  <path d="M245.027817 271.453217C245.027817 270.392303,244.606308 269.374969,243.856186 268.624847C243.106064 267.874725,242.088730 267.453217,241.027817 267.453217C239.966904 267.453217,238.949570 267.874725,238.199448 268.624847C237.449326 269.374969,237.027817 270.392303,237.027817 271.453217C237.027817 272.514130,237.449326 273.531464,238.199448 274.281586C238.949570 275.031708,239.966904 275.453217,241.027817 275.453217C242.088730 275.453217,243.106064 275.031708,243.856186 274.281586C244.606308 273.531464,245.027817 272.514130,245.027817 271.453217Z" style="fill: rgb(89.999390%,0.000000%,0.000000%);stroke: none;"></path>
  <path d="M144.792740 267.067337C144.792740 266.006424,144.371231 264.989090,143.621109 264.238968C142.870987 263.488846,141.853653 263.067337,140.792740 263.067337C139.731827 263.067337,138.714493 263.488846,137.964371 264.238968C137.214249 264.989090,136.792740 266.006424,136.792740 267.067337C136.792740 268.128250,137.214249 269.145584,137.964371 269.895706C138.714493 270.645828,139.731827 271.067337,140.792740 271.067337C141.853653 271.067337,142.870987 270.645828,143.621109 269.895706C144.371231 269.145584,144.792740 268.128250,144.792740 267.067337Z" style="stroke:rgb(39.999390%,39.999390%,39.999390%); stroke-width: 0.500000;stroke-linecap: round;stroke-linejoin: round;stroke-miterlimit: 10.000000;fill: none;"></path>
  <path d="M144.792740 267.067337C144.792740 266.006424,144.371231 264.989090,143.621109 264.238968C142.870987 263.488846,141.853653 263.067337,140.792740 263.067337C139.731827 263.067337,138.714493 263.488846,137.964371 264.238968C137.214249 264.989090,136.792740 266.006424,136.792740 267.067337C136.792740 268.128250,137.214249 269.145584,137.964371 269.895706C138.714493 270.645828,139.731827 271.067337,140.792740 271.067337C141.853653 271.067337,142.870987 270.645828,143.621109 269.895706C144.371231 269.145584,144.792740 268.128250,144.792740 267.067337Z" style="fill: rgb(0.000000%,50.000000%,0.000000%);stroke: none;"></path>
  <path d="M142.868881 367.371628L192.246796 454.708588" style="stroke:rgb(60.000610%,60.000610%,60.000610%); stroke-width: 1.800003;stroke-linecap: round;stroke-dasharray: 3.000000 3.000000 ;stroke-linejoin: round;stroke-miterlimit: 10.000000;fill: none;"></path>
  <path d="M104.347549 503.074387L192.246796 454.708588" style="stroke:rgb(60.000610%,60.000610%,60.000610%); stroke-width: 1.800003;stroke-linecap: round;stroke-dasharray: 3.000000 3.000000 ;stroke-linejoin: round;stroke-miterlimit: 10.000000;fill: none;"></path>
  <path d="M146.868881 367.371628C146.868881 366.310715,146.447372 365.293381,145.697250 364.543259C144.947128 363.793137,143.929794 363.371628,142.868881 363.371628C141.807968 363.371628,140.790634 363.793137,140.040512 364.543259C139.290390 365.293381,138.868881 366.310715,138.868881 367.371628C138.868881 368.432541,139.290390 369.449875,140.040512 370.199997C140.790634 370.950119,141.807968 371.371628,142.868881 371.371628C143.929794 371.371628,144.947128 370.950119,145.697250 370.199997C146.447372 369.449875,146.868881 368.432541,146.868881 367.371628Z" style="stroke:rgb(39.999390%,39.999390%,39.999390%); stroke-width: 0.500000;stroke-linecap: round;stroke-linejoin: round;stroke-miterlimit: 10.000000;fill: none;"></path>
  <path d="M146.868881 367.371628C146.868881 366.310715,146.447372 365.293381,145.697250 364.543259C144.947128 363.793137,143.929794 363.371628,142.868881 363.371628C141.807968 363.371628,140.790634 363.793137,140.040512 364.543259C139.290390 365.293381,138.868881 366.310715,138.868881 367.371628C138.868881 368.432541,139.290390 369.449875,140.040512 370.199997C140.790634 370.950119,141.807968 371.371628,142.868881 371.371628C143.929794 371.371628,144.947128 370.950119,145.697250 370.199997C146.447372 369.449875,146.868881 368.432541,146.868881 367.371628Z" style="fill: rgb(89.999390%,0.000000%,0.000000%);stroke: none;"></path>
  <path d="M108.347549 503.074387C108.347549 502.013474,107.926041 500.996140,107.175919 500.246017C106.425797 499.495895,105.408463 499.074387,104.347549 499.074387C103.286636 499.074387,102.269302 499.495895,101.519180 500.246017C100.769058 500.996140,100.347549 502.013474,100.347549 503.074387C100.347549 504.135300,100.769058 505.152634,101.519180 505.902756C102.269302 506.652878,103.286636 507.074387,104.347549 507.074387C105.408463 507.074387,106.425797 506.652878,107.175919 505.902756C107.926041 505.152634,108.347549 504.135300,108.347549 503.074387Z" style="stroke:rgb(39.999390%,39.999390%,39.999390%); stroke-width: 0.500000;stroke-linecap: round;stroke-linejoin: round;stroke-miterlimit: 10.000000;fill: none;"></path>
  <path d="M108.347549 503.074387C108.347549 502.013474,107.926041 500.996140,107.175919 500.246017C106.425797 499.495895,105.408463 499.074387,104.347549 499.074387C103.286636 499.074387,102.269302 499.495895,101.519180 500.246017C100.769058 500.996140,100.347549 502.013474,100.347549 503.074387C100.347549 504.135300,100.769058 505.152634,101.519180 505.902756C102.269302 506.652878,103.286636 507.074387,104.347549 507.074387C105.408463 507.074387,106.425797 506.652878,107.175919 505.902756C107.926041 505.152634,108.347549 504.135300,108.347549 503.074387Z" style="fill: rgb(89.999390%,0.000000%,0.000000%);stroke: none;"></path>
  <path d="M196.246796 454.708588C196.246796 453.647675,195.825287 452.630341,195.075165 451.880219C194.325043 451.130096,193.307709 450.708588,192.246796 450.708588C191.185883 450.708588,190.168549 451.130096,189.418427 451.880219C188.668304 452.630341,188.246796 453.647675,188.246796 454.708588C188.246796 455.769501,188.668304 456.786835,189.418427 457.536957C190.168549 458.287079,191.185883 458.708588,192.246796 458.708588C193.307709 458.708588,194.325043 458.287079,195.075165 457.536957C195.825287 456.786835,196.246796 455.769501,196.246796 454.708588Z" style="stroke:rgb(39.999390%,39.999390%,39.999390%); stroke-width: 0.500000;stroke-linecap: round;stroke-linejoin: round;stroke-miterlimit: 10.000000;fill: none;"></path>
  <path d="M196.246796 454.708588C196.246796 453.647675,195.825287 452.630341,195.075165 451.880219C194.325043 451.130096,193.307709 450.708588,192.246796 450.708588C191.185883 450.708588,190.168549 451.130096,189.418427 451.880219C188.668304 452.630341,188.246796 453.647675,188.246796 454.708588C188.246796 455.769501,188.668304 456.786835,189.418427 457.536957C190.168549 458.287079,191.185883 458.708588,192.246796 458.708588C193.307709 458.708588,194.325043 458.287079,195.075165 457.536957C195.825287 456.786835,196.246796 455.769501,196.246796 454.708588Z" style="fill: rgb(9.800720%,9.800720%,44.000244%);stroke: none;"></path>
  <path d="M142.868881 367.371628L54.960983 415.737411" style="stroke:rgb(60.000610%,60.000610%,60.000610%); stroke-width: 1.800003;stroke-linecap: round;stroke-dasharray: 3.000000 3.000000 ;stroke-linejoin: round;stroke-miterlimit: 10.000000;fill: none;"></path>
  <path d="M104.347549 503.074387L54.960983 415.737411" style="stroke:rgb(60.000610%,60.000610%,60.000610%); stroke-width: 1.800003;stroke-linecap: round;stroke-dasharray: 3.000000 3.000000 ;stroke-linejoin: round;stroke-miterlimit: 10.000000;fill: none;"></path>
  <path d="M146.868881 367.371628C146.868881 366.310715,146.447372 365.293381,145.697250 364.543259C144.947128 363.793137,143.929794 363.371628,142.868881 363.371628C141.807968 363.371628,140.790634 363.793137,140.040512 364.543259C139.290390 365.293381,138.868881 366.310715,138.868881 367.371628C138.868881 368.432541,139.290390 369.449875,140.040512 370.199997C140.790634 370.950119,141.807968 371.371628,142.868881 371.371628C143.929794 371.371628,144.947128 370.950119,145.697250 370.199997C146.447372 369.449875,146.868881 368.432541,146.868881 367.371628Z" style="stroke:rgb(39.999390%,39.999390%,39.999390%); stroke-width: 0.500000;stroke-linecap: round;stroke-linejoin: round;stroke-miterlimit: 10.000000;fill: none;"></path>
  <path d="M146.868881 367.371628C146.868881 366.310715,146.447372 365.293381,145.697250 364.543259C144.947128 363.793137,143.929794 363.371628,142.868881 363.371628C141.807968 363.371628,140.790634 363.793137,140.040512 364.543259C139.290390 365.293381,138.868881 366.310715,138.868881 367.371628C138.868881 368.432541,139.290390 369.449875,140.040512 370.199997C140.790634 370.950119,141.807968 371.371628,142.868881 371.371628C143.929794 371.371628,144.947128 370.950119,145.697250 370.199997C146.447372 369.449875,146.868881 368.432541,146.868881 367.371628Z" style="fill: rgb(89.999390%,0.000000%,0.000000%);stroke: none;"></path>
  <path d="M108.347549 503.074387C108.347549 502.013474,107.926041 500.996140,107.175919 500.246017C106.425797 499.495895,105.408463 499.074387,104.347549 499.074387C103.286636 499.074387,102.269302 499.495895,101.519180 500.246017C100.769058 500.996140,100.347549 502.013474,100.347549 503.074387C100.347549 504.135300,100.769058 505.152634,101.519180 505.902756C102.269302 506.652878,103.286636 507.074387,104.347549 507.074387C105.408463 507.074387,106.425797 506.652878,107.175919 505.902756C107.926041 505.152634,108.347549 504.135300,108.347549 503.074387Z" style="stroke:rgb(39.999390%,39.999390%,39.999390%); stroke-width: 0.500000;stroke-linecap: round;stroke-linejoin: round;stroke-miterlimit: 10.000000;fill: none;"></path>
  <path d="M108.347549 503.074387C108.347549 502.013474,107.926041 500.996140,107.175919 500.246017C106.425797 499.495895,105.408463 499.074387,104.347549 499.074387C103.286636 499.074387,102.269302 499.495895,101.519180 500.246017C100.769058 500.996140,100.347549 502.013474,100.347549 503.074387C100.347549 504.135300,100.769058 505.152634,101.519180 505.902756C102.269302 506.652878,103.286636 507.074387,104.347549 507.074387C105.408463 507.074387,106.425797 506.652878,107.175919 505.902756C107.926041 505.152634,108.347549 504.135300,108.347549 503.074387Z" style="fill: rgb(89.999390%,0.000000%,0.000000%);stroke: none;"></path>
  <path d="M58.960983 415.737411C58.960983 414.676498,58.539474 413.659164,57.789352 412.909042C57.039230 412.158920,56.021896 411.737411,54.960983 411.737411C53.900070 411.737411,52.882736 412.158920,52.132614 412.909042C51.382492 413.659164,50.960983 414.676498,50.960983 415.737411C50.960983 416.798325,51.382492 417.815659,52.132614 418.565781C52.882736 419.315903,53.900070 419.737411,54.960983 419.737411C56.021896 419.737411,57.039230 419.315903,57.789352 418.565781C58.539474 417.815659,58.960983 416.798325,58.960983 415.737411Z" style="stroke:rgb(39.999390%,39.999390%,39.999390%); stroke-width: 0.500000;stroke-linecap: round;stroke-linejoin: round;stroke-miterlimit: 10.000000;fill: none;"></path>
  <path d="M58.960983 415.737411C58.960983 414.676498,58.539474 413.659164,57.789352 412.909042C57.039230 412.158920,56.021896 411.737411,54.960983 411.737411C53.900070 411.737411,52.882736 412.158920,52.132614 412.909042C51.382492 413.659164,50.960983 414.676498,50.960983 415.737411C50.960983 416.798325,51.382492 417.815659,52.132614 418.565781C52.882736 419.315903,53.900070 419.737411,54.960983 419.737411C56.021896 419.737411,57.039230 419.315903,57.789352 418.565781C58.539474 417.815659,58.960983 416.798325,58.960983 415.737411Z" style="fill: rgb(0.000000%,50.000000%,0.000000%);stroke: none;"></path>
  <path d="M104.347549 503.074387L4.000000 504.000000" style="stroke:rgb(60.000610%,60.000610%,60.000610%); stroke-width: 1.800003;stroke-linecap: round;stroke-dasharray: 3.000000 3.000000 ;stroke-linejoin: round;stroke-miterlimit: 10.000000;fill: none;"></path>
  <path d="M108.347549 503.074387C108.347549 502.013474,107.926041 500.996140,107.175919 500.246017C106.425797 499.495895,105.408463 499.074387,104.347549 499.074387C103.286636 499.074387,102.269302 499.495895,101.519180 500.246017C100.769058 500.996140,100.347549 502.013474,100.347549 503.074387C100.347549 504.135300,100.769058 505.152634,101.519180 505.902756C102.269302 506.652878,103.286636 507.074387,104.347549 507.074387C105.408463 507.074387,106.425797 506.652878,107.175919 505.902756C107.926041 505.152634,108.347549 504.135300,108.347549 503.074387Z" style="stroke:rgb(39.999390%,39.999390%,39.999390%); stroke-width: 0.500000;stroke-linecap: round;stroke-linejoin: round;stroke-miterlimit: 10.000000;fill: none;"></path>
  <path d="M108.347549 503.074387C108.347549 502.013474,107.926041 500.996140,107.175919 500.246017C106.425797 499.495895,105.408463 499.074387,104.347549 499.074387C103.286636 499.074387,102.269302 499.495895,101.519180 500.246017C100.769058 500.996140,100.347549 502.013474,100.347549 503.074387C100.347549 504.135300,100.769058 505.152634,101.519180 505.902756C102.269302 506.652878,103.286636 507.074387,104.347549 507.074387C105.408463 507.074387,106.425797 506.652878,107.175919 505.902756C107.926041 505.152634,108.347549 504.135300,108.347549 503.074387Z" style="fill: rgb(89.999390%,0.000000%,0.000000%);stroke: none;"></path>
  <path d="M8.000000 504.000000C8.000000 502.939087,7.578491 501.921753,6.828369 501.171631C6.078247 500.421509,5.060913 500.000000,4.000000 500.000000C2.939087 500.000000,1.921753 500.421509,1.171631 501.171631C0.421509 501.921753,0.000000 502.939087,0.000000 504.000000C0.000000 505.060913,0.421509 506.078247,1.171631 506.828369C1.921753 507.578491,2.939087 508.000000,4.000000 508.000000C5.060913 508.000000,6.078247 507.578491,6.828369 506.828369C7.578491 506.078247,8.000000 505.060913,8.000000 504.000000Z" style="stroke:rgb(39.999390%,39.999390%,39.999390%); stroke-width: 0.500000;stroke-linecap: round;stroke-linejoin: round;stroke-miterlimit: 10.000000;fill: none;"></path>
  <path d="M8.000000 504.000000C8.000000 502.939087,7.578491 501.921753,6.828369 501.171631C6.078247 500.421509,5.060913 500.000000,4.000000 500.000000C2.939087 500.000000,1.921753 500.421509,1.171631 501.171631C0.421509 501.921753,0.000000 502.939087,0.000000 504.000000C0.000000 505.060913,0.421509 506.078247,1.171631 506.828369C1.921753 507.578491,2.939087 508.000000,4.000000 508.000000C5.060913 508.000000,6.078247 507.578491,6.828369 506.828369C7.578491 506.078247,8.000000 505.060913,8.000000 504.000000Z" style="fill: rgb(100.000000%,100.000000%,0.000000%);stroke: none;"></path>
</svg>
