<?xml version="1.0"?>
<!-- Created by MetaPost 2.00 on 2022.03.31:1000 -->
<svg version="1.1" xmlns="http://www.w3.org/2000/svg" xmlns:xlink="http://www.w3.org/1999/xlink" width="589.564285" height="575.074448" viewBox="0 0 589.564285 575.074448">
<!-- Original BoundingBox: -15.950058 -69.938766 573.614227 505.135681 -->
  <path d="M15.000000 505.000000L581.929016 505.000000L298.464508 14.023697L15.000000 505.000000Z" style="fill: rgb(100.000000%,100.000000%,100.000000%);stroke: none;"></path>
  <path d="M15.000000 505.000000L581.929016 505.000000" style="stroke:rgb(0.000000%,0.000000%,0.000000%); stroke-width: 1.000000;stroke-linecap: round;stroke-linejoin: round;stroke-miterlimit: 10.000000;fill: none;"></path>
  <path d="M581.929016 505.000000L298.464508 14.023697" style="stroke:rgb(0.000000%,0.000000%,0.000000%); stroke-width: 1.000000;stroke-linecap: round;stroke-linejoin: round;stroke-miterlimit: 10.000000;fill: none;"></path>
  <path d="M298.464508 14.023697L15.000000 505.000000" style="stroke:rgb(0.000000%,0.000000%,0.000000%); stroke-width: 1.000000;stroke-linecap: round;stroke-linejoin: round;stroke-miterlimit: 10.000000;fill: none;"></path>
  <path d="M588.114227 469.428528C588.114227 441.576843,577.048538 414.869217,557.355911 395.176605C537.663300 375.483978,510.955673 364.418289,483.103989 364.418289C455.252304 364.418289,428.544678 375.483978,408.852066 395.176605C389.159439 414.869217,378.093750 441.576843,378.093750 469.428528C378.093750 497.280212,389.159439 523.987839,408.852066 543.680450C428.544678 563.373077,455.252304 574.438766,483.103989 574.438766C510.955673 574.438766,537.663300 563.373077,557.355911 543.680450C577.048538 523.987839,588.114227 497.280212,588.114227 469.428528Z" style="stroke:rgb(25.500488%,41.000366%,88.400269%); stroke-width: 1.000000;stroke-linecap: round;stroke-linejoin: round;stroke-miterlimit: 10.000000;fill: none;"></path>
  <path d="M501.884537 359.859390C501.884537 332.007706,490.818848 305.300079,471.126221 285.607468C451.433609 265.914841,424.725983 254.849152,396.874298 254.849152C369.022614 254.849152,342.314987 265.914841,322.622375 285.607468C302.929749 305.300079,291.864059 332.007706,291.864059 359.859390C291.864059 387.711075,302.929749 414.418701,322.622375 434.111313C342.314987 453.803940,369.022614 464.869629,396.874298 464.869629C424.725983 464.869629,451.433609 453.803940,471.126221 434.111313C490.818848 414.418701,501.884537 387.711075,501.884537 359.859390Z" style="stroke:rgb(25.500488%,41.000366%,88.400269%); stroke-width: 1.000000;stroke-linecap: round;stroke-linejoin: round;stroke-miterlimit: 10.000000;fill: none;"></path>
  <path d="M394.201248 460.423203C394.201248 432.571518,383.135559 405.863892,363.442932 386.171280C343.750320 366.478653,317.042694 355.412964,289.191010 355.412964C261.339325 355.412964,234.631699 366.478653,214.939087 386.171280C195.246460 405.863892,184.180771 432.571518,184.180771 460.423203C184.180771 488.274887,195.246460 514.982513,214.939087 534.675125C234.631699 554.367752,261.339325 565.433441,289.191010 565.433441C317.042694 565.433441,343.750320 554.367752,363.442932 534.675125C383.135559 514.982513,394.201248 488.274887,394.201248 460.423203Z" style="stroke:rgb(25.500488%,41.000366%,88.400269%); stroke-width: 1.000000;stroke-linecap: round;stroke-linejoin: round;stroke-miterlimit: 10.000000;fill: none;"></path>
  <path d="M459.392548 211.120102C459.392548 183.268417,448.326859 156.560791,428.634232 136.868179C408.941620 117.175552,382.233994 106.109863,354.382309 106.109863C326.530624 106.109863,299.822998 117.175552,280.130386 136.868179C260.437759 156.560791,249.372070 183.268417,249.372070 211.120102C249.372070 238.971786,260.437759 265.679413,280.130386 285.372025C299.822998 305.064651,326.530624 316.130341,354.382309 316.130341C382.233994 316.130341,408.941620 305.064651,428.634232 285.372025C448.326859 265.679413,459.392548 238.971786,459.392548 211.120102Z" style="stroke:rgb(25.500488%,41.000366%,88.400269%); stroke-width: 1.000000;stroke-linecap: round;stroke-linejoin: round;stroke-miterlimit: 10.000000;fill: none;"></path>
  <path d="M351.648697 105.374557C351.648697 77.522873,340.583008 50.815247,320.890381 31.122635C301.197769 11.430008,274.490143 0.364319,246.638458 0.364319C218.786774 0.364319,192.079147 11.430008,172.386536 31.122635C152.693909 50.815247,141.628220 77.522873,141.628220 105.374557C141.628220 133.226242,152.693909 159.933868,172.386536 179.626480C192.079147 199.319107,218.786774 210.384796,246.638458 210.384796C274.490143 210.384796,301.197769 199.319107,320.890381 179.626480C340.583008 159.933868,351.648697 133.226242,351.648697 105.374557Z" style="stroke:rgb(25.500488%,41.000366%,88.400269%); stroke-width: 1.000000;stroke-linecap: round;stroke-linejoin: round;stroke-miterlimit: 10.000000;fill: none;"></path>
  <path d="M209.570419 450.120270C209.570419 422.268585,198.504730 395.560959,178.812103 375.868347C159.119492 356.175720,132.411865 345.110031,104.560181 345.110031C76.708496 345.110031,50.000870 356.175720,30.308258 375.868347C10.615631 395.560959,-0.450058 422.268585,-0.450058 450.120270C-0.450058 477.971954,10.615631 504.679581,30.308258 524.372192C50.000870 544.064819,76.708496 555.130508,104.560181 555.130508C132.411865 555.130508,159.119492 544.064819,178.812103 524.372192C198.504730 504.679581,209.570419 477.971954,209.570419 450.120270Z" style="stroke:rgb(25.500488%,41.000366%,88.400269%); stroke-width: 1.000000;stroke-linecap: round;stroke-linejoin: round;stroke-miterlimit: 10.000000;fill: none;"></path>
  <path d="M307.417923 300.567825C307.417923 272.716141,296.352234 246.008514,276.659607 226.315903C256.966995 206.623276,230.259369 195.557587,202.407684 195.557587C174.556000 195.557587,147.848373 206.623276,128.155762 226.315903C108.463135 246.008514,97.397446 272.716141,97.397446 300.567825C97.397446 328.419510,108.463135 355.127136,128.155762 374.819748C147.848373 394.512375,174.556000 405.578064,202.407684 405.578064C230.259369 405.578064,256.966995 394.512375,276.659607 374.819748C296.352234 355.127136,307.417923 328.419510,307.417923 300.567825Z" style="stroke:rgb(25.500488%,41.000366%,88.400269%); stroke-width: 1.000000;stroke-linecap: round;stroke-linejoin: round;stroke-miterlimit: 10.000000;fill: none;"></path>
  <path d="M483.103989 469.428528L581.929016 505.000000" style="stroke:rgb(60.000610%,60.000610%,60.000610%); stroke-width: 1.800003;stroke-linecap: round;stroke-dasharray: 3.000000 3.000000 ;stroke-linejoin: round;stroke-miterlimit: 10.000000;fill: none;"></path>
  <path d="M487.103989 469.428528C487.103989 468.367615,486.682480 467.350281,485.932358 466.600159C485.182236 465.850037,484.164902 465.428528,483.103989 465.428528C482.043076 465.428528,481.025742 465.850037,480.275620 466.600159C479.525497 467.350281,479.103989 468.367615,479.103989 469.428528C479.103989 470.489441,479.525497 471.506775,480.275620 472.256897C481.025742 473.007019,482.043076 473.428528,483.103989 473.428528C484.164902 473.428528,485.182236 473.007019,485.932358 472.256897C486.682480 471.506775,487.103989 470.489441,487.103989 469.428528Z" style="stroke:rgb(39.999390%,39.999390%,39.999390%); stroke-width: 0.500000;stroke-linecap: round;stroke-linejoin: round;stroke-miterlimit: 10.000000;fill: none;"></path>
  <path d="M487.103989 469.428528C487.103989 468.367615,486.682480 467.350281,485.932358 466.600159C485.182236 465.850037,484.164902 465.428528,483.103989 465.428528C482.043076 465.428528,481.025742 465.850037,480.275620 466.600159C479.525497 467.350281,479.103989 468.367615,479.103989 469.428528C479.103989 470.489441,479.525497 471.506775,480.275620 472.256897C481.025742 473.007019,482.043076 473.428528,483.103989 473.428528C484.164902 473.428528,485.182236 473.007019,485.932358 472.256897C486.682480 471.506775,487.103989 470.489441,487.103989 469.428528Z" style="fill: rgb(89.999390%,0.000000%,0.000000%);stroke: none;"></path>
  <path d="M585.929016 505.000000C585.929016 503.939087,585.507507 502.921753,584.757385 502.171631C584.007263 501.421509,582.989929 501.000000,581.929016 501.000000C580.868103 501.000000,579.850769 501.421509,579.100647 502.171631C578.350525 502.921753,577.929016 503.939087,577.929016 505.000000C577.929016 506.060913,578.350525 507.078247,579.100647 507.828369C579.850769 508.578491,580.868103 509.000000,581.929016 509.000000C582.989929 509.000000,584.007263 508.578491,584.757385 507.828369C585.507507 507.078247,585.929016 506.060913,585.929016 505.000000Z" style="stroke:rgb(39.999390%,39.999390%,39.999390%); stroke-width: 0.500000;stroke-linecap: round;stroke-linejoin: round;stroke-miterlimit: 10.000000;fill: none;"></path>
  <path d="M585.929016 505.000000C585.929016 503.939087,585.507507 502.921753,584.757385 502.171631C584.007263 501.421509,582.989929 501.000000,581.929016 501.000000C580.868103 501.000000,579.850769 501.421509,579.100647 502.171631C578.350525 502.921753,577.929016 503.939087,577.929016 505.000000C577.929016 506.060913,578.350525 507.078247,579.100647 507.828369C579.850769 508.578491,580.868103 509.000000,581.929016 509.000000C582.989929 509.000000,584.007263 508.578491,584.757385 507.828369C585.507507 507.078247,585.929016 506.060913,585.929016 505.000000Z" style="fill: rgb(100.000000%,100.000000%,0.000000%);stroke: none;"></path>
  <path d="M483.103989 469.428528L501.702881 366.070557" style="stroke:rgb(60.000610%,60.000610%,60.000610%); stroke-width: 1.800003;stroke-linecap: round;stroke-dasharray: 3.000000 3.000000 ;stroke-linejoin: round;stroke-miterlimit: 10.000000;fill: none;"></path>
  <path d="M396.874298 359.859390L501.702881 366.070557" style="stroke:rgb(60.000610%,60.000610%,60.000610%); stroke-width: 1.800003;stroke-linecap: round;stroke-dasharray: 3.000000 3.000000 ;stroke-linejoin: round;stroke-miterlimit: 10.000000;fill: none;"></path>
  <path d="M487.103989 469.428528C487.103989 468.367615,486.682480 467.350281,485.932358 466.600159C485.182236 465.850037,484.164902 465.428528,483.103989 465.428528C482.043076 465.428528,481.025742 465.850037,480.275620 466.600159C479.525497 467.350281,479.103989 468.367615,479.103989 469.428528C479.103989 470.489441,479.525497 471.506775,480.275620 472.256897C481.025742 473.007019,482.043076 473.428528,483.103989 473.428528C484.164902 473.428528,485.182236 473.007019,485.932358 472.256897C486.682480 471.506775,487.103989 470.489441,487.103989 469.428528Z" style="stroke:rgb(39.999390%,39.999390%,39.999390%); stroke-width: 0.500000;stroke-linecap: round;stroke-linejoin: round;stroke-miterlimit: 10.000000;fill: none;"></path>
  <path d="M487.103989 469.428528C487.103989 468.367615,486.682480 467.350281,485.932358 466.600159C485.182236 465.850037,484.164902 465.428528,483.103989 465.428528C482.043076 465.428528,481.025742 465.850037,480.275620 466.600159C479.525497 467.350281,479.103989 468.367615,479.103989 469.428528C479.103989 470.489441,479.525497 471.506775,480.275620 472.256897C481.025742 473.007019,482.043076 473.428528,483.103989 473.428528C484.164902 473.428528,485.182236 473.007019,485.932358 472.256897C486.682480 471.506775,487.103989 470.489441,487.103989 469.428528Z" style="fill: rgb(89.999390%,0.000000%,0.000000%);stroke: none;"></path>
  <path d="M400.874298 359.859390C400.874298 358.798477,400.452789 357.781143,399.702667 357.031021C398.952545 356.280899,397.935211 355.859390,396.874298 355.859390C395.813385 355.859390,394.796051 356.280899,394.045929 357.031021C393.295807 357.781143,392.874298 358.798477,392.874298 359.859390C392.874298 360.920303,393.295807 361.937637,394.045929 362.687759C394.796051 363.437881,395.813385 363.859390,396.874298 363.859390C397.935211 363.859390,398.952545 363.437881,399.702667 362.687759C400.452789 361.937637,400.874298 360.920303,400.874298 359.859390Z" style="stroke:rgb(39.999390%,39.999390%,39.999390%); stroke-width: 0.500000;stroke-linecap: round;stroke-linejoin: round;stroke-miterlimit: 10.000000;fill: none;"></path>
  <path d="M400.874298 359.859390C400.874298 358.798477,400.452789 357.781143,399.702667 357.031021C398.952545 356.280899,397.935211 355.859390,396.874298 355.859390C395.813385 355.859390,394.796051 356.280899,394.045929 357.031021C393.295807 357.781143,392.874298 358.798477,392.874298 359.859390C392.874298 360.920303,393.295807 361.937637,394.045929 362.687759C394.796051 363.437881,395.813385 363.859390,396.874298 363.859390C397.935211 363.859390,398.952545 363.437881,399.702667 362.687759C400.452789 361.937637,400.874298 360.920303,400.874298 359.859390Z" style="fill: rgb(89.999390%,0.000000%,0.000000%);stroke: none;"></path>
  <path d="M505.702881 366.070557C505.702881 365.009644,505.281372 363.992310,504.531250 363.242188C503.781128 362.492065,502.763794 362.070557,501.702881 362.070557C500.641968 362.070557,499.624634 362.492065,498.874512 363.242188C498.124390 363.992310,497.702881 365.009644,497.702881 366.070557C497.702881 367.131470,498.124390 368.148804,498.874512 368.898926C499.624634 369.649048,500.641968 370.070557,501.702881 370.070557C502.763794 370.070557,503.781128 369.649048,504.531250 368.898926C505.281372 368.148804,505.702881 367.131470,505.702881 366.070557Z" style="stroke:rgb(39.999390%,39.999390%,39.999390%); stroke-width: 0.500000;stroke-linecap: round;stroke-linejoin: round;stroke-miterlimit: 10.000000;fill: none;"></path>
  <path d="M505.702881 366.070557C505.702881 365.009644,505.281372 363.992310,504.531250 363.242188C503.781128 362.492065,502.763794 362.070557,501.702881 362.070557C500.641968 362.070557,499.624634 362.492065,498.874512 363.242188C498.124390 363.992310,497.702881 365.009644,497.702881 366.070557C497.702881 367.131470,498.124390 368.148804,498.874512 368.898926C499.624634 369.649048,500.641968 370.070557,501.702881 370.070557C502.763794 370.070557,503.781128 369.649048,504.531250 368.898926C505.281372 368.148804,505.702881 367.131470,505.702881 366.070557Z" style="fill: rgb(0.000000%,50.000000%,0.000000%);stroke: none;"></path>
  <path d="M483.103989 469.428528L384.287613 504.974045" style="stroke:rgb(60.000610%,60.000610%,60.000610%); stroke-width: 1.800003;stroke-linecap: round;stroke-dasharray: 3.000000 3.000000 ;stroke-linejoin: round;stroke-miterlimit: 10.000000;fill: none;"></path>
  <path d="M289.191010 460.423203L384.287613 504.974045" style="stroke:rgb(60.000610%,60.000610%,60.000610%); stroke-width: 1.800003;stroke-linecap: round;stroke-dasharray: 3.000000 3.000000 ;stroke-linejoin: round;stroke-miterlimit: 10.000000;fill: none;"></path>
  <path d="M487.103989 469.428528C487.103989 468.367615,486.682480 467.350281,485.932358 466.600159C485.182236 465.850037,484.164902 465.428528,483.103989 465.428528C482.043076 465.428528,481.025742 465.850037,480.275620 466.600159C479.525497 467.350281,479.103989 468.367615,479.103989 469.428528C479.103989 470.489441,479.525497 471.506775,480.275620 472.256897C481.025742 473.007019,482.043076 473.428528,483.103989 473.428528C484.164902 473.428528,485.182236 473.007019,485.932358 472.256897C486.682480 471.506775,487.103989 470.489441,487.103989 469.428528Z" style="stroke:rgb(39.999390%,39.999390%,39.999390%); stroke-width: 0.500000;stroke-linecap: round;stroke-linejoin: round;stroke-miterlimit: 10.000000;fill: none;"></path>
  <path d="M487.103989 469.428528C487.103989 468.367615,486.682480 467.350281,485.932358 466.600159C485.182236 465.850037,484.164902 465.428528,483.103989 465.428528C482.043076 465.428528,481.025742 465.850037,480.275620 466.600159C479.525497 467.350281,479.103989 468.367615,479.103989 469.428528C479.103989 470.489441,479.525497 471.506775,480.275620 472.256897C481.025742 473.007019,482.043076 473.428528,483.103989 473.428528C484.164902 473.428528,485.182236 473.007019,485.932358 472.256897C486.682480 471.506775,487.103989 470.489441,487.103989 469.428528Z" style="fill: rgb(89.999390%,0.000000%,0.000000%);stroke: none;"></path>
  <path d="M293.191010 460.423203C293.191010 459.362289,292.769501 458.344955,292.019379 457.594833C291.269257 456.844711,290.251923 456.423203,289.191010 456.423203C288.130096 456.423203,287.112762 456.844711,286.362640 457.594833C285.612518 458.344955,285.191010 459.362289,285.191010 460.423203C285.191010 461.484116,285.612518 462.501450,286.362640 463.251572C287.112762 464.001694,288.130096 464.423203,289.191010 464.423203C290.251923 464.423203,291.269257 464.001694,292.019379 463.251572C292.769501 462.501450,293.191010 461.484116,293.191010 460.423203Z" style="stroke:rgb(39.999390%,39.999390%,39.999390%); stroke-width: 0.500000;stroke-linecap: round;stroke-linejoin: round;stroke-miterlimit: 10.000000;fill: none;"></path>
  <path d="M293.191010 460.423203C293.191010 459.362289,292.769501 458.344955,292.019379 457.594833C291.269257 456.844711,290.251923 456.423203,289.191010 456.423203C288.130096 456.423203,287.112762 456.844711,286.362640 457.594833C285.612518 458.344955,285.191010 459.362289,285.191010 460.423203C285.191010 461.484116,285.612518 462.501450,286.362640 463.251572C287.112762 464.001694,288.130096 464.423203,289.191010 464.423203C290.251923 464.423203,291.269257 464.001694,292.019379 463.251572C292.769501 462.501450,293.191010 461.484116,293.191010 460.423203Z" style="fill: rgb(89.999390%,0.000000%,0.000000%);stroke: none;"></path>
  <path d="M388.287613 504.974045C388.287613 503.913132,387.866104 502.895798,387.115982 502.145676C386.365860 501.395554,385.348526 500.974045,384.287613 500.974045C383.226700 500.974045,382.209366 501.395554,381.459244 502.145676C380.709122 502.895798,380.287613 503.913132,380.287613 504.974045C380.287613 506.034958,380.709122 507.052292,381.459244 507.802414C382.209366 508.552536,383.226700 508.974045,384.287613 508.974045C385.348526 508.974045,386.365860 508.552536,387.115982 507.802414C387.866104 507.052292,388.287613 506.034958,388.287613 504.974045Z" style="stroke:rgb(39.999390%,39.999390%,39.999390%); stroke-width: 0.500000;stroke-linecap: round;stroke-linejoin: round;stroke-miterlimit: 10.000000;fill: none;"></path>
  <path d="M388.287613 504.974045C388.287613 503.913132,387.866104 502.895798,387.115982 502.145676C386.365860 501.395554,385.348526 500.974045,384.287613 500.974045C383.226700 500.974045,382.209366 501.395554,381.459244 502.145676C380.709122 502.895798,380.287613 503.913132,380.287613 504.974045C380.287613 506.034958,380.709122 507.052292,381.459244 507.802414C382.209366 508.552536,383.226700 508.974045,384.287613 508.974045C385.348526 508.974045,386.365860 508.552536,387.115982 507.802414C387.866104 507.052292,388.287613 506.034958,388.287613 504.974045Z" style="fill: rgb(0.000000%,50.000000%,0.000000%);stroke: none;"></path>
  <path d="M396.874298 359.859390L291.950562 355.447556" style="stroke:rgb(60.000610%,60.000610%,60.000610%); stroke-width: 1.800003;stroke-linecap: round;stroke-dasharray: 3.000000 3.000000 ;stroke-linejoin: round;stroke-miterlimit: 10.000000;fill: none;"></path>
  <path d="M289.191010 460.423203L291.950562 355.447556" style="stroke:rgb(60.000610%,60.000610%,60.000610%); stroke-width: 1.800003;stroke-linecap: round;stroke-dasharray: 3.000000 3.000000 ;stroke-linejoin: round;stroke-miterlimit: 10.000000;fill: none;"></path>
  <path d="M400.874298 359.859390C400.874298 358.798477,400.452789 357.781143,399.702667 357.031021C398.952545 356.280899,397.935211 355.859390,396.874298 355.859390C395.813385 355.859390,394.796051 356.280899,394.045929 357.031021C393.295807 357.781143,392.874298 358.798477,392.874298 359.859390C392.874298 360.920303,393.295807 361.937637,394.045929 362.687759C394.796051 363.437881,395.813385 363.859390,396.874298 363.859390C397.935211 363.859390,398.952545 363.437881,399.702667 362.687759C400.452789 361.937637,400.874298 360.920303,400.874298 359.859390Z" style="stroke:rgb(39.999390%,39.999390%,39.999390%); stroke-width: 0.500000;stroke-linecap: round;stroke-linejoin: round;stroke-miterlimit: 10.000000;fill: none;"></path>
  <path d="M400.874298 359.859390C400.874298 358.798477,400.452789 357.781143,399.702667 357.031021C398.952545 356.280899,397.935211 355.859390,396.874298 355.859390C395.813385 355.859390,394.796051 356.280899,394.045929 357.031021C393.295807 357.781143,392.874298 358.798477,392.874298 359.859390C392.874298 360.920303,393.295807 361.937637,394.045929 362.687759C394.796051 363.437881,395.813385 363.859390,396.874298 363.859390C397.935211 363.859390,398.952545 363.437881,399.702667 362.687759C400.452789 361.937637,400.874298 360.920303,400.874298 359.859390Z" style="fill: rgb(89.999390%,0.000000%,0.000000%);stroke: none;"></path>
  <path d="M293.191010 460.423203C293.191010 459.362289,292.769501 458.344955,292.019379 457.594833C291.269257 456.844711,290.251923 456.423203,289.191010 456.423203C288.130096 456.423203,287.112762 456.844711,286.362640 457.594833C285.612518 458.344955,285.191010 459.362289,285.191010 460.423203C285.191010 461.484116,285.612518 462.501450,286.362640 463.251572C287.112762 464.001694,288.130096 464.423203,289.191010 464.423203C290.251923 464.423203,291.269257 464.001694,292.019379 463.251572C292.769501 462.501450,293.191010 461.484116,293.191010 460.423203Z" style="stroke:rgb(39.999390%,39.999390%,39.999390%); stroke-width: 0.500000;stroke-linecap: round;stroke-linejoin: round;stroke-miterlimit: 10.000000;fill: none;"></path>
  <path d="M293.191010 460.423203C293.191010 459.362289,292.769501 458.344955,292.019379 457.594833C291.269257 456.844711,290.251923 456.423203,289.191010 456.423203C288.130096 456.423203,287.112762 456.844711,286.362640 457.594833C285.612518 458.344955,285.191010 459.362289,285.191010 460.423203C285.191010 461.484116,285.612518 462.501450,286.362640 463.251572C287.112762 464.001694,288.130096 464.423203,289.191010 464.423203C290.251923 464.423203,291.269257 464.001694,292.019379 463.251572C292.769501 462.501450,293.191010 461.484116,293.191010 460.423203Z" style="fill: rgb(89.999390%,0.000000%,0.000000%);stroke: none;"></path>
  <path d="M295.950562 355.447556C295.950562 354.386642,295.529053 353.369308,294.778931 352.619186C294.028809 351.869064,293.011475 351.447556,291.950562 351.447556C290.889648 351.447556,289.872314 351.869064,289.122192 352.619186C288.372070 353.369308,287.950562 354.386642,287.950562 355.447556C287.950562 356.508469,288.372070 357.525803,289.122192 358.275925C289.872314 359.026047,290.889648 359.447556,291.950562 359.447556C293.011475 359.447556,294.028809 359.026047,294.778931 358.275925C295.529053 357.525803,295.950562 356.508469,295.950562 355.447556Z" style="stroke:rgb(39.999390%,39.999390%,39.999390%); stroke-width: 0.500000;stroke-linecap: round;stroke-linejoin: round;stroke-miterlimit: 10.000000;fill: none;"></path>
  <path d="M295.950562 355.447556C295.950562 354.386642,295.529053 353.369308,294.778931 352.619186C294.028809 351.869064,293.011475 351.447556,291.950562 351.447556C290.889648 351.447556,289.872314 351.869064,289.122192 352.619186C288.372070 353.369308,287.950562 354.386642,287.950562 355.447556C287.950562 356.508469,288.372070 357.525803,289.122192 358.275925C289.872314 359.026047,290.889648 359.447556,291.950562 359.447556C293.011475 359.447556,294.028809 359.026047,294.778931 358.275925C295.529053 357.525803,295.950562 356.508469,295.950562 355.447556Z" style="fill: rgb(9.800720%,9.800720%,44.000244%);stroke: none;"></path>
  <path d="M396.874298 359.859390L307.322769 305.005615" style="stroke:rgb(60.000610%,60.000610%,60.000610%); stroke-width: 1.800003;stroke-linecap: round;stroke-dasharray: 3.000000 3.000000 ;stroke-linejoin: round;stroke-miterlimit: 10.000000;fill: none;"></path>
  <path d="M354.382309 211.120102L307.322769 305.005615" style="stroke:rgb(60.000610%,60.000610%,60.000610%); stroke-width: 1.800003;stroke-linecap: round;stroke-dasharray: 3.000000 3.000000 ;stroke-linejoin: round;stroke-miterlimit: 10.000000;fill: none;"></path>
  <path d="M400.874298 359.859390C400.874298 358.798477,400.452789 357.781143,399.702667 357.031021C398.952545 356.280899,397.935211 355.859390,396.874298 355.859390C395.813385 355.859390,394.796051 356.280899,394.045929 357.031021C393.295807 357.781143,392.874298 358.798477,392.874298 359.859390C392.874298 360.920303,393.295807 361.937637,394.045929 362.687759C394.796051 363.437881,395.813385 363.859390,396.874298 363.859390C397.935211 363.859390,398.952545 363.437881,399.702667 362.687759C400.452789 361.937637,400.874298 360.920303,400.874298 359.859390Z" style="stroke:rgb(39.999390%,39.999390%,39.999390%); stroke-width: 0.500000;stroke-linecap: round;stroke-linejoin: round;stroke-miterlimit: 10.000000;fill: none;"></path>
  <path d="M400.874298 359.859390C400.874298 358.798477,400.452789 357.781143,399.702667 357.031021C398.952545 356.280899,397.935211 355.859390,396.874298 355.859390C395.813385 355.859390,394.796051 356.280899,394.045929 357.031021C393.295807 357.781143,392.874298 358.798477,392.874298 359.859390C392.874298 360.920303,393.295807 361.937637,394.045929 362.687759C394.796051 363.437881,395.813385 363.859390,396.874298 363.859390C397.935211 363.859390,398.952545 363.437881,399.702667 362.687759C400.452789 361.937637,400.874298 360.920303,400.874298 359.859390Z" style="fill: rgb(89.999390%,0.000000%,0.000000%);stroke: none;"></path>
  <path d="M358.382309 211.120102C358.382309 210.059189,357.960800 209.041855,357.210678 208.291733C356.460556 207.541611,355.443222 207.120102,354.382309 207.120102C353.321396 207.120102,352.304062 207.541611,351.553940 208.291733C350.803818 209.041855,350.382309 210.059189,350.382309 211.120102C350.382309 212.181015,350.803818 213.198349,351.553940 213.948471C352.304062 214.698593,353.321396 215.120102,354.382309 215.120102C355.443222 215.120102,356.460556 214.698593,357.210678 213.948471C357.960800 213.198349,358.382309 212.181015,358.382309 211.120102Z" style="stroke:rgb(39.999390%,39.999390%,39.999390%); stroke-width: 0.500000;stroke-linecap: round;stroke-linejoin: round;stroke-miterlimit: 10.000000;fill: none;"></path>
  <path d="M358.382309 211.120102C358.382309 210.059189,357.960800 209.041855,357.210678 208.291733C356.460556 207.541611,355.443222 207.120102,354.382309 207.120102C353.321396 207.120102,352.304062 207.541611,351.553940 208.291733C350.803818 209.041855,350.382309 210.059189,350.382309 211.120102C350.382309 212.181015,350.803818 213.198349,351.553940 213.948471C352.304062 214.698593,353.321396 215.120102,354.382309 215.120102C355.443222 215.120102,356.460556 214.698593,357.210678 213.948471C357.960800 213.198349,358.382309 212.181015,358.382309 211.120102Z" style="fill: rgb(89.999390%,0.000000%,0.000000%);stroke: none;"></path>
  <path d="M311.322769 305.005615C311.322769 303.944702,310.901260 302.927368,310.151138 302.177246C309.401016 301.427124,308.383682 301.005615,307.322769 301.005615C306.261856 301.005615,305.244522 301.427124,304.494400 302.177246C303.744278 302.927368,303.322769 303.944702,303.322769 305.005615C303.322769 306.066528,303.744278 307.083862,304.494400 307.833984C305.244522 308.584106,306.261856 309.005615,307.322769 309.005615C308.383682 309.005615,309.401016 308.584106,310.151138 307.833984C310.901260 307.083862,311.322769 306.066528,311.322769 305.005615Z" style="stroke:rgb(39.999390%,39.999390%,39.999390%); stroke-width: 0.500000;stroke-linecap: round;stroke-linejoin: round;stroke-miterlimit: 10.000000;fill: none;"></path>
  <path d="M311.322769 305.005615C311.322769 303.944702,310.901260 302.927368,310.151138 302.177246C309.401016 301.427124,308.383682 301.005615,307.322769 301.005615C306.261856 301.005615,305.244522 301.427124,304.494400 302.177246C303.744278 302.927368,303.322769 303.944702,303.322769 305.005615C303.322769 306.066528,303.744278 307.083862,304.494400 307.833984C305.244522 308.584106,306.261856 309.005615,307.322769 309.005615C308.383682 309.005615,309.401016 308.584106,310.151138 307.833984C310.901260 307.083862,311.322769 306.066528,311.322769 305.005615Z" style="fill: rgb(9.800720%,9.800720%,44.000244%);stroke: none;"></path>
  <path d="M396.874298 359.859390L443.933838 265.982529" style="stroke:rgb(60.000610%,60.000610%,60.000610%); stroke-width: 1.800003;stroke-linecap: round;stroke-dasharray: 3.000000 3.000000 ;stroke-linejoin: round;stroke-miterlimit: 10.000000;fill: none;"></path>
  <path d="M354.382309 211.120102L443.933838 265.982529" style="stroke:rgb(60.000610%,60.000610%,60.000610%); stroke-width: 1.800003;stroke-linecap: round;stroke-dasharray: 3.000000 3.000000 ;stroke-linejoin: round;stroke-miterlimit: 10.000000;fill: none;"></path>
  <path d="M400.874298 359.859390C400.874298 358.798477,400.452789 357.781143,399.702667 357.031021C398.952545 356.280899,397.935211 355.859390,396.874298 355.859390C395.813385 355.859390,394.796051 356.280899,394.045929 357.031021C393.295807 357.781143,392.874298 358.798477,392.874298 359.859390C392.874298 360.920303,393.295807 361.937637,394.045929 362.687759C394.796051 363.437881,395.813385 363.859390,396.874298 363.859390C397.935211 363.859390,398.952545 363.437881,399.702667 362.687759C400.452789 361.937637,400.874298 360.920303,400.874298 359.859390Z" style="stroke:rgb(39.999390%,39.999390%,39.999390%); stroke-width: 0.500000;stroke-linecap: round;stroke-linejoin: round;stroke-miterlimit: 10.000000;fill: none;"></path>
  <path d="M400.874298 359.859390C400.874298 358.798477,400.452789 357.781143,399.702667 357.031021C398.952545 356.280899,397.935211 355.859390,396.874298 355.859390C395.813385 355.859390,394.796051 356.280899,394.045929 357.031021C393.295807 357.781143,392.874298 358.798477,392.874298 359.859390C392.874298 360.920303,393.295807 361.937637,394.045929 362.687759C394.796051 363.437881,395.813385 363.859390,396.874298 363.859390C397.935211 363.859390,398.952545 363.437881,399.702667 362.687759C400.452789 361.937637,400.874298 360.920303,400.874298 359.859390Z" style="fill: rgb(89.999390%,0.000000%,0.000000%);stroke: none;"></path>
  <path d="M358.382309 211.120102C358.382309 210.059189,357.960800 209.041855,357.210678 208.291733C356.460556 207.541611,355.443222 207.120102,354.382309 207.120102C353.321396 207.120102,352.304062 207.541611,351.553940 208.291733C350.803818 209.041855,350.382309 210.059189,350.382309 211.120102C350.382309 212.181015,350.803818 213.198349,351.553940 213.948471C352.304062 214.698593,353.321396 215.120102,354.382309 215.120102C355.443222 215.120102,356.460556 214.698593,357.210678 213.948471C357.960800 213.198349,358.382309 212.181015,358.382309 211.120102Z" style="stroke:rgb(39.999390%,39.999390%,39.999390%); stroke-width: 0.500000;stroke-linecap: round;stroke-linejoin: round;stroke-miterlimit: 10.000000;fill: none;"></path>
  <path d="M358.382309 211.120102C358.382309 210.059189,357.960800 209.041855,357.210678 208.291733C356.460556 207.541611,355.443222 207.120102,354.382309 207.120102C353.321396 207.120102,352.304062 207.541611,351.553940 208.291733C350.803818 209.041855,350.382309 210.059189,350.382309 211.120102C350.382309 212.181015,350.803818 213.198349,351.553940 213.948471C352.304062 214.698593,353.321396 215.120102,354.382309 215.120102C355.443222 215.120102,356.460556 214.698593,357.210678 213.948471C357.960800 213.198349,358.382309 212.181015,358.382309 211.120102Z" style="fill: rgb(89.999390%,0.000000%,0.000000%);stroke: none;"></path>
  <path d="M447.933838 265.982529C447.933838 264.921616,447.512329 263.904282,446.762207 263.154160C446.012085 262.404037,444.994751 261.982529,443.933838 261.982529C442.872925 261.982529,441.855591 262.404037,441.105469 263.154160C440.355347 263.904282,439.933838 264.921616,439.933838 265.982529C439.933838 267.043442,440.355347 268.060776,441.105469 268.810898C441.855591 269.561020,442.872925 269.982529,443.933838 269.982529C444.994751 269.982529,446.012085 269.561020,446.762207 268.810898C447.512329 268.060776,447.933838 267.043442,447.933838 265.982529Z" style="stroke:rgb(39.999390%,39.999390%,39.999390%); stroke-width: 0.500000;stroke-linecap: round;stroke-linejoin: round;stroke-miterlimit: 10.000000;fill: none;"></path>
  <path d="M447.933838 265.982529C447.933838 264.921616,447.512329 263.904282,446.762207 263.154160C446.012085 262.404037,444.994751 261.982529,443.933838 261.982529C442.872925 261.982529,441.855591 262.404037,441.105469 263.154160C440.355347 263.904282,439.933838 264.921616,439.933838 265.982529C439.933838 267.043442,440.355347 268.060776,441.105469 268.810898C441.855591 269.561020,442.872925 269.982529,443.933838 269.982529C444.994751 269.982529,446.012085 269.561020,446.762207 268.810898C447.512329 268.060776,447.933838 267.043442,447.933838 265.982529Z" style="fill: rgb(0.000000%,50.000000%,0.000000%);stroke: none;"></path>
  <path d="M396.874298 359.859390L291.950562 355.430252" style="stroke:rgb(60.000610%,60.000610%,60.000610%); stroke-width: 1.800003;stroke-linecap: round;stroke-dasharray: 3.000000 3.000000 ;stroke-linejoin: round;stroke-miterlimit: 10.000000;fill: none;"></path>
  <path d="M202.407684 300.567825L291.950562 355.430252" style="stroke:rgb(60.000610%,60.000610%,60.000610%); stroke-width: 1.800003;stroke-linecap: round;stroke-dasharray: 3.000000 3.000000 ;stroke-linejoin: round;stroke-miterlimit: 10.000000;fill: none;"></path>
  <path d="M400.874298 359.859390C400.874298 358.798477,400.452789 357.781143,399.702667 357.031021C398.952545 356.280899,397.935211 355.859390,396.874298 355.859390C395.813385 355.859390,394.796051 356.280899,394.045929 357.031021C393.295807 357.781143,392.874298 358.798477,392.874298 359.859390C392.874298 360.920303,393.295807 361.937637,394.045929 362.687759C394.796051 363.437881,395.813385 363.859390,396.874298 363.859390C397.935211 363.859390,398.952545 363.437881,399.702667 362.687759C400.452789 361.937637,400.874298 360.920303,400.874298 359.859390Z" style="stroke:rgb(39.999390%,39.999390%,39.999390%); stroke-width: 0.500000;stroke-linecap: round;stroke-linejoin: round;stroke-miterlimit: 10.000000;fill: none;"></path>
  <path d="M400.874298 359.859390C400.874298 358.798477,400.452789 357.781143,399.702667 357.031021C398.952545 356.280899,397.935211 355.859390,396.874298 355.859390C395.813385 355.859390,394.796051 356.280899,394.045929 357.031021C393.295807 357.781143,392.874298 358.798477,392.874298 359.859390C392.874298 360.920303,393.295807 361.937637,394.045929 362.687759C394.796051 363.437881,395.813385 363.859390,396.874298 363.859390C397.935211 363.859390,398.952545 363.437881,399.702667 362.687759C400.452789 361.937637,400.874298 360.920303,400.874298 359.859390Z" style="fill: rgb(89.999390%,0.000000%,0.000000%);stroke: none;"></path>
  <path d="M206.407684 300.567825C206.407684 299.506912,205.986176 298.489578,205.236053 297.739456C204.485931 296.989334,203.468597 296.567825,202.407684 296.567825C201.346771 296.567825,200.329437 296.989334,199.579315 297.739456C198.829193 298.489578,198.407684 299.506912,198.407684 300.567825C198.407684 301.628738,198.829193 302.646072,199.579315 303.396194C200.329437 304.146317,201.346771 304.567825,202.407684 304.567825C203.468597 304.567825,204.485931 304.146317,205.236053 303.396194C205.986176 302.646072,206.407684 301.628738,206.407684 300.567825Z" style="stroke:rgb(39.999390%,39.999390%,39.999390%); stroke-width: 0.500000;stroke-linecap: round;stroke-linejoin: round;stroke-miterlimit: 10.000000;fill: none;"></path>
  <path d="M206.407684 300.567825C206.407684 299.506912,205.986176 298.489578,205.236053 297.739456C204.485931 296.989334,203.468597 296.567825,202.407684 296.567825C201.346771 296.567825,200.329437 296.989334,199.579315 297.739456C198.829193 298.489578,198.407684 299.506912,198.407684 300.567825C198.407684 301.628738,198.829193 302.646072,199.579315 303.396194C200.329437 304.146317,201.346771 304.567825,202.407684 304.567825C203.468597 304.567825,204.485931 304.146317,205.236053 303.396194C205.986176 302.646072,206.407684 301.628738,206.407684 300.567825Z" style="fill: rgb(89.999390%,0.000000%,0.000000%);stroke: none;"></path>
  <path d="M295.950562 355.430252C295.950562 354.369339,295.529053 353.352005,294.778931 352.601883C294.028809 351.851761,293.011475 351.430252,291.950562 351.430252C290.889648 351.430252,289.872314 351.851761,289.122192 352.601883C288.372070 353.352005,287.950562 354.369339,287.950562 355.430252C287.950562 356.491165,288.372070 357.508499,289.122192 358.258621C289.872314 359.008743,290.889648 359.430252,291.950562 359.430252C293.011475 359.430252,294.028809 359.008743,294.778931 358.258621C295.529053 357.508499,295.950562 356.491165,295.950562 355.430252Z" style="stroke:rgb(39.999390%,39.999390%,39.999390%); stroke-width: 0.500000;stroke-linecap: round;stroke-linejoin: round;stroke-miterlimit: 10.000000;fill: none;"></path>
  <path d="M295.950562 355.430252C295.950562 354.369339,295.529053 353.352005,294.778931 352.601883C294.028809 351.851761,293.011475 351.430252,291.950562 351.430252C290.889648 351.430252,289.872314 351.851761,289.122192 352.601883C288.372070 353.352005,287.950562 354.369339,287.950562 355.430252C287.950562 356.491165,288.372070 357.508499,289.122192 358.258621C289.872314 359.008743,290.889648 359.430252,291.950562 359.430252C293.011475 359.430252,294.028809 359.008743,294.778931 358.258621C295.529053 357.508499,295.950562 356.491165,295.950562 355.430252Z" style="fill: rgb(9.800720%,9.800720%,44.000244%);stroke: none;"></path>
  <path d="M396.874298 359.859390L307.322769 305.005615" style="stroke:rgb(60.000610%,60.000610%,60.000610%); stroke-width: 1.800003;stroke-linecap: round;stroke-dasharray: 3.000000 3.000000 ;stroke-linejoin: round;stroke-miterlimit: 10.000000;fill: none;"></path>
  <path d="M202.407684 300.567825L307.322769 305.005615" style="stroke:rgb(60.000610%,60.000610%,60.000610%); stroke-width: 1.800003;stroke-linecap: round;stroke-dasharray: 3.000000 3.000000 ;stroke-linejoin: round;stroke-miterlimit: 10.000000;fill: none;"></path>
  <path d="M400.874298 359.859390C400.874298 358.798477,400.452789 357.781143,399.702667 357.031021C398.952545 356.280899,397.935211 355.859390,396.874298 355.859390C395.813385 355.859390,394.796051 356.280899,394.045929 357.031021C393.295807 357.781143,392.874298 358.798477,392.874298 359.859390C392.874298 360.920303,393.295807 361.937637,394.045929 362.687759C394.796051 363.437881,395.813385 363.859390,396.874298 363.859390C397.935211 363.859390,398.952545 363.437881,399.702667 362.687759C400.452789 361.937637,400.874298 360.920303,400.874298 359.859390Z" style="stroke:rgb(39.999390%,39.999390%,39.999390%); stroke-width: 0.500000;stroke-linecap: round;stroke-linejoin: round;stroke-miterlimit: 10.000000;fill: none;"></path>
  <path d="M400.874298 359.859390C400.874298 358.798477,400.452789 357.781143,399.702667 357.031021C398.952545 356.280899,397.935211 355.859390,396.874298 355.859390C395.813385 355.859390,394.796051 356.280899,394.045929 357.031021C393.295807 357.781143,392.874298 358.798477,392.874298 359.859390C392.874298 360.920303,393.295807 361.937637,394.045929 362.687759C394.796051 363.437881,395.813385 363.859390,396.874298 363.859390C397.935211 363.859390,398.952545 363.437881,399.702667 362.687759C400.452789 361.937637,400.874298 360.920303,400.874298 359.859390Z" style="fill: rgb(89.999390%,0.000000%,0.000000%);stroke: none;"></path>
  <path d="M206.407684 300.567825C206.407684 299.506912,205.986176 298.489578,205.236053 297.739456C204.485931 296.989334,203.468597 296.567825,202.407684 296.567825C201.346771 296.567825,200.329437 296.989334,199.579315 297.739456C198.829193 298.489578,198.407684 299.506912,198.407684 300.567825C198.407684 301.628738,198.829193 302.646072,199.579315 303.396194C200.329437 304.146317,201.346771 304.567825,202.407684 304.567825C203.468597 304.567825,204.485931 304.146317,205.236053 303.396194C205.986176 302.646072,206.407684 301.628738,206.407684 300.567825Z" style="stroke:rgb(39.999390%,39.999390%,39.999390%); stroke-width: 0.500000;stroke-linecap: round;stroke-linejoin: round;stroke-miterlimit: 10.000000;fill: none;"></path>
  <path d="M206.407684 300.567825C206.407684 299.506912,205.986176 298.489578,205.236053 297.739456C204.485931 296.989334,203.468597 296.567825,202.407684 296.567825C201.346771 296.567825,200.329437 296.989334,199.579315 297.739456C198.829193 298.489578,198.407684 299.506912,198.407684 300.567825C198.407684 301.628738,198.829193 302.646072,199.579315 303.396194C200.329437 304.146317,201.346771 304.567825,202.407684 304.567825C203.468597 304.567825,204.485931 304.146317,205.236053 303.396194C205.986176 302.646072,206.407684 301.628738,206.407684 300.567825Z" style="fill: rgb(89.999390%,0.000000%,0.000000%);stroke: none;"></path>
  <path d="M311.322769 305.005615C311.322769 303.944702,310.901260 302.927368,310.151138 302.177246C309.401016 301.427124,308.383682 301.005615,307.322769 301.005615C306.261856 301.005615,305.244522 301.427124,304.494400 302.177246C303.744278 302.927368,303.322769 303.944702,303.322769 305.005615C303.322769 306.066528,303.744278 307.083862,304.494400 307.833984C305.244522 308.584106,306.261856 309.005615,307.322769 309.005615C308.383682 309.005615,309.401016 308.584106,310.151138 307.833984C310.901260 307.083862,311.322769 306.066528,311.322769 305.005615Z" style="stroke:rgb(39.999390%,39.999390%,39.999390%); stroke-width: 0.500000;stroke-linecap: round;stroke-linejoin: round;stroke-miterlimit: 10.000000;fill: none;"></path>
  <path d="M311.322769 305.005615C311.322769 303.944702,310.901260 302.927368,310.151138 302.177246C309.401016 301.427124,308.383682 301.005615,307.322769 301.005615C306.261856 301.005615,305.244522 301.427124,304.494400 302.177246C303.744278 302.927368,303.322769 303.944702,303.322769 305.005615C303.322769 306.066528,303.744278 307.083862,304.494400 307.833984C305.244522 308.584106,306.261856 309.005615,307.322769 309.005615C308.383682 309.005615,309.401016 308.584106,310.151138 307.833984C310.901260 307.083862,311.322769 306.066528,311.322769 305.005615Z" style="fill: rgb(9.800720%,9.800720%,44.000244%);stroke: none;"></path>
  <path d="M289.191010 460.423203L194.103058 504.982697" style="stroke:rgb(60.000610%,60.000610%,60.000610%); stroke-width: 1.800003;stroke-linecap: round;stroke-dasharray: 3.000000 3.000000 ;stroke-linejoin: round;stroke-miterlimit: 10.000000;fill: none;"></path>
  <path d="M104.560181 450.120270L194.103058 504.982697" style="stroke:rgb(60.000610%,60.000610%,60.000610%); stroke-width: 1.800003;stroke-linecap: round;stroke-dasharray: 3.000000 3.000000 ;stroke-linejoin: round;stroke-miterlimit: 10.000000;fill: none;"></path>
  <path d="M293.191010 460.423203C293.191010 459.362289,292.769501 458.344955,292.019379 457.594833C291.269257 456.844711,290.251923 456.423203,289.191010 456.423203C288.130096 456.423203,287.112762 456.844711,286.362640 457.594833C285.612518 458.344955,285.191010 459.362289,285.191010 460.423203C285.191010 461.484116,285.612518 462.501450,286.362640 463.251572C287.112762 464.001694,288.130096 464.423203,289.191010 464.423203C290.251923 464.423203,291.269257 464.001694,292.019379 463.251572C292.769501 462.501450,293.191010 461.484116,293.191010 460.423203Z" style="stroke:rgb(39.999390%,39.999390%,39.999390%); stroke-width: 0.500000;stroke-linecap: round;stroke-linejoin: round;stroke-miterlimit: 10.000000;fill: none;"></path>
  <path d="M293.191010 460.423203C293.191010 459.362289,292.769501 458.344955,292.019379 457.594833C291.269257 456.844711,290.251923 456.423203,289.191010 456.423203C288.130096 456.423203,287.112762 456.844711,286.362640 457.594833C285.612518 458.344955,285.191010 459.362289,285.191010 460.423203C285.191010 461.484116,285.612518 462.501450,286.362640 463.251572C287.112762 464.001694,288.130096 464.423203,289.191010 464.423203C290.251923 464.423203,291.269257 464.001694,292.019379 463.251572C292.769501 462.501450,293.191010 461.484116,293.191010 460.423203Z" style="fill: rgb(89.999390%,0.000000%,0.000000%);stroke: none;"></path>
  <path d="M108.560181 450.120270C108.560181 449.059357,108.138672 448.042023,107.388550 447.291901C106.638428 446.541779,105.621094 446.120270,104.560181 446.120270C103.499268 446.120270,102.481934 446.541779,101.731812 447.291901C100.981689 448.042023,100.560181 449.059357,100.560181 450.120270C100.560181 451.181183,100.981689 452.198517,101.731812 452.948639C102.481934 453.698761,103.499268 454.120270,104.560181 454.120270C105.621094 454.120270,106.638428 453.698761,107.388550 452.948639C108.138672 452.198517,108.560181 451.181183,108.560181 450.120270Z" style="stroke:rgb(39.999390%,39.999390%,39.999390%); stroke-width: 0.500000;stroke-linecap: round;stroke-linejoin: round;stroke-miterlimit: 10.000000;fill: none;"></path>
  <path d="M108.560181 450.120270C108.560181 449.059357,108.138672 448.042023,107.388550 447.291901C106.638428 446.541779,105.621094 446.120270,104.560181 446.120270C103.499268 446.120270,102.481934 446.541779,101.731812 447.291901C100.981689 448.042023,100.560181 449.059357,100.560181 450.120270C100.560181 451.181183,100.981689 452.198517,101.731812 452.948639C102.481934 453.698761,103.499268 454.120270,104.560181 454.120270C105.621094 454.120270,106.638428 453.698761,107.388550 452.948639C108.138672 452.198517,108.560181 451.181183,108.560181 450.120270Z" style="fill: rgb(89.999390%,0.000000%,0.000000%);stroke: none;"></path>
  <path d="M198.103058 504.982697C198.103058 503.921783,197.681549 502.904449,196.931427 502.154327C196.181305 501.404205,195.163971 500.982697,194.103058 500.982697C193.042145 500.982697,192.024811 501.404205,191.274689 502.154327C190.524567 502.904449,190.103058 503.921783,190.103058 504.982697C190.103058 506.043610,190.524567 507.060944,191.274689 507.811066C192.024811 508.561188,193.042145 508.982697,194.103058 508.982697C195.163971 508.982697,196.181305 508.561188,196.931427 507.811066C197.681549 507.060944,198.103058 506.043610,198.103058 504.982697Z" style="stroke:rgb(39.999390%,39.999390%,39.999390%); stroke-width: 0.500000;stroke-linecap: round;stroke-linejoin: round;stroke-miterlimit: 10.000000;fill: none;"></path>
  <path d="M198.103058 504.982697C198.103058 503.921783,197.681549 502.904449,196.931427 502.154327C196.181305 501.404205,195.163971 500.982697,194.103058 500.982697C193.042145 500.982697,192.024811 501.404205,191.274689 502.154327C190.524567 502.904449,190.103058 503.921783,190.103058 504.982697C190.103058 506.043610,190.524567 507.060944,191.274689 507.811066C192.024811 508.561188,193.042145 508.982697,194.103058 508.982697C195.163971 508.982697,196.181305 508.561188,196.931427 507.811066C197.681549 507.060944,198.103058 506.043610,198.103058 504.982697Z" style="fill: rgb(0.000000%,50.000000%,0.000000%);stroke: none;"></path>
  <path d="M289.191010 460.423203L199.656784 405.560776" style="stroke:rgb(60.000610%,60.000610%,60.000610%); stroke-width: 1.800003;stroke-linecap: round;stroke-dasharray: 3.000000 3.000000 ;stroke-linejoin: round;stroke-miterlimit: 10.000000;fill: none;"></path>
  <path d="M104.560181 450.120270L199.656784 405.560776" style="stroke:rgb(60.000610%,60.000610%,60.000610%); stroke-width: 1.800003;stroke-linecap: round;stroke-dasharray: 3.000000 3.000000 ;stroke-linejoin: round;stroke-miterlimit: 10.000000;fill: none;"></path>
  <path d="M293.191010 460.423203C293.191010 459.362289,292.769501 458.344955,292.019379 457.594833C291.269257 456.844711,290.251923 456.423203,289.191010 456.423203C288.130096 456.423203,287.112762 456.844711,286.362640 457.594833C285.612518 458.344955,285.191010 459.362289,285.191010 460.423203C285.191010 461.484116,285.612518 462.501450,286.362640 463.251572C287.112762 464.001694,288.130096 464.423203,289.191010 464.423203C290.251923 464.423203,291.269257 464.001694,292.019379 463.251572C292.769501 462.501450,293.191010 461.484116,293.191010 460.423203Z" style="stroke:rgb(39.999390%,39.999390%,39.999390%); stroke-width: 0.500000;stroke-linecap: round;stroke-linejoin: round;stroke-miterlimit: 10.000000;fill: none;"></path>
  <path d="M293.191010 460.423203C293.191010 459.362289,292.769501 458.344955,292.019379 457.594833C291.269257 456.844711,290.251923 456.423203,289.191010 456.423203C288.130096 456.423203,287.112762 456.844711,286.362640 457.594833C285.612518 458.344955,285.191010 459.362289,285.191010 460.423203C285.191010 461.484116,285.612518 462.501450,286.362640 463.251572C287.112762 464.001694,288.130096 464.423203,289.191010 464.423203C290.251923 464.423203,291.269257 464.001694,292.019379 463.251572C292.769501 462.501450,293.191010 461.484116,293.191010 460.423203Z" style="fill: rgb(89.999390%,0.000000%,0.000000%);stroke: none;"></path>
  <path d="M108.560181 450.120270C108.560181 449.059357,108.138672 448.042023,107.388550 447.291901C106.638428 446.541779,105.621094 446.120270,104.560181 446.120270C103.499268 446.120270,102.481934 446.541779,101.731812 447.291901C100.981689 448.042023,100.560181 449.059357,100.560181 450.120270C100.560181 451.181183,100.981689 452.198517,101.731812 452.948639C102.481934 453.698761,103.499268 454.120270,104.560181 454.120270C105.621094 454.120270,106.638428 453.698761,107.388550 452.948639C108.138672 452.198517,108.560181 451.181183,108.560181 450.120270Z" style="stroke:rgb(39.999390%,39.999390%,39.999390%); stroke-width: 0.500000;stroke-linecap: round;stroke-linejoin: round;stroke-miterlimit: 10.000000;fill: none;"></path>
  <path d="M108.560181 450.120270C108.560181 449.059357,108.138672 448.042023,107.388550 447.291901C106.638428 446.541779,105.621094 446.120270,104.560181 446.120270C103.499268 446.120270,102.481934 446.541779,101.731812 447.291901C100.981689 448.042023,100.560181 449.059357,100.560181 450.120270C100.560181 451.181183,100.981689 452.198517,101.731812 452.948639C102.481934 453.698761,103.499268 454.120270,104.560181 454.120270C105.621094 454.120270,106.638428 453.698761,107.388550 452.948639C108.138672 452.198517,108.560181 451.181183,108.560181 450.120270Z" style="fill: rgb(89.999390%,0.000000%,0.000000%);stroke: none;"></path>
  <path d="M203.656784 405.560776C203.656784 404.499863,203.235275 403.482529,202.485153 402.732407C201.735031 401.982285,200.717697 401.560776,199.656784 401.560776C198.595871 401.560776,197.578537 401.982285,196.828415 402.732407C196.078293 403.482529,195.656784 404.499863,195.656784 405.560776C195.656784 406.621689,196.078293 407.639023,196.828415 408.389145C197.578537 409.139267,198.595871 409.560776,199.656784 409.560776C200.717697 409.560776,201.735031 409.139267,202.485153 408.389145C203.235275 407.639023,203.656784 406.621689,203.656784 405.560776Z" style="stroke:rgb(39.999390%,39.999390%,39.999390%); stroke-width: 0.500000;stroke-linecap: round;stroke-linejoin: round;stroke-miterlimit: 10.000000;fill: none;"></path>
  <path d="M203.656784 405.560776C203.656784 404.499863,203.235275 403.482529,202.485153 402.732407C201.735031 401.982285,200.717697 401.560776,199.656784 401.560776C198.595871 401.560776,197.578537 401.982285,196.828415 402.732407C196.078293 403.482529,195.656784 404.499863,195.656784 405.560776C195.656784 406.621689,196.078293 407.639023,196.828415 408.389145C197.578537 409.139267,198.595871 409.560776,199.656784 409.560776C200.717697 409.560776,201.735031 409.139267,202.485153 408.389145C203.235275 407.639023,203.656784 406.621689,203.656784 405.560776Z" style="fill: rgb(9.800720%,9.800720%,44.000244%);stroke: none;"></path>
  <path d="M289.191010 460.423203L199.656784 405.552124" style="stroke:rgb(60.000610%,60.000610%,60.000610%); stroke-width: 1.800003;stroke-linecap: round;stroke-dasharray: 3.000000 3.000000 ;stroke-linejoin: round;stroke-miterlimit: 10.000000;fill: none;"></path>
  <path d="M202.407684 300.567825L199.656784 405.552124" style="stroke:rgb(60.000610%,60.000610%,60.000610%); stroke-width: 1.800003;stroke-linecap: round;stroke-dasharray: 3.000000 3.000000 ;stroke-linejoin: round;stroke-miterlimit: 10.000000;fill: none;"></path>
  <path d="M293.191010 460.423203C293.191010 459.362289,292.769501 458.344955,292.019379 457.594833C291.269257 456.844711,290.251923 456.423203,289.191010 456.423203C288.130096 456.423203,287.112762 456.844711,286.362640 457.594833C285.612518 458.344955,285.191010 459.362289,285.191010 460.423203C285.191010 461.484116,285.612518 462.501450,286.362640 463.251572C287.112762 464.001694,288.130096 464.423203,289.191010 464.423203C290.251923 464.423203,291.269257 464.001694,292.019379 463.251572C292.769501 462.501450,293.191010 461.484116,293.191010 460.423203Z" style="stroke:rgb(39.999390%,39.999390%,39.999390%); stroke-width: 0.500000;stroke-linecap: round;stroke-linejoin: round;stroke-miterlimit: 10.000000;fill: none;"></path>
  <path d="M293.191010 460.423203C293.191010 459.362289,292.769501 458.344955,292.019379 457.594833C291.269257 456.844711,290.251923 456.423203,289.191010 456.423203C288.130096 456.423203,287.112762 456.844711,286.362640 457.594833C285.612518 458.344955,285.191010 459.362289,285.191010 460.423203C285.191010 461.484116,285.612518 462.501450,286.362640 463.251572C287.112762 464.001694,288.130096 464.423203,289.191010 464.423203C290.251923 464.423203,291.269257 464.001694,292.019379 463.251572C292.769501 462.501450,293.191010 461.484116,293.191010 460.423203Z" style="fill: rgb(89.999390%,0.000000%,0.000000%);stroke: none;"></path>
  <path d="M206.407684 300.567825C206.407684 299.506912,205.986176 298.489578,205.236053 297.739456C204.485931 296.989334,203.468597 296.567825,202.407684 296.567825C201.346771 296.567825,200.329437 296.989334,199.579315 297.739456C198.829193 298.489578,198.407684 299.506912,198.407684 300.567825C198.407684 301.628738,198.829193 302.646072,199.579315 303.396194C200.329437 304.146317,201.346771 304.567825,202.407684 304.567825C203.468597 304.567825,204.485931 304.146317,205.236053 303.396194C205.986176 302.646072,206.407684 301.628738,206.407684 300.567825Z" style="stroke:rgb(39.999390%,39.999390%,39.999390%); stroke-width: 0.500000;stroke-linecap: round;stroke-linejoin: round;stroke-miterlimit: 10.000000;fill: none;"></path>
  <path d="M206.407684 300.567825C206.407684 299.506912,205.986176 298.489578,205.236053 297.739456C204.485931 296.989334,203.468597 296.567825,202.407684 296.567825C201.346771 296.567825,200.329437 296.989334,199.579315 297.739456C198.829193 298.489578,198.407684 299.506912,198.407684 300.567825C198.407684 301.628738,198.829193 302.646072,199.579315 303.396194C200.329437 304.146317,201.346771 304.567825,202.407684 304.567825C203.468597 304.567825,204.485931 304.146317,205.236053 303.396194C205.986176 302.646072,206.407684 301.628738,206.407684 300.567825Z" style="fill: rgb(89.999390%,0.000000%,0.000000%);stroke: none;"></path>
  <path d="M203.656784 405.552124C203.656784 404.491211,203.235275 403.473877,202.485153 402.723755C201.735031 401.973633,200.717697 401.552124,199.656784 401.552124C198.595871 401.552124,197.578537 401.973633,196.828415 402.723755C196.078293 403.473877,195.656784 404.491211,195.656784 405.552124C195.656784 406.613037,196.078293 407.630371,196.828415 408.380493C197.578537 409.130615,198.595871 409.552124,199.656784 409.552124C200.717697 409.552124,201.735031 409.130615,202.485153 408.380493C203.235275 407.630371,203.656784 406.613037,203.656784 405.552124Z" style="stroke:rgb(39.999390%,39.999390%,39.999390%); stroke-width: 0.500000;stroke-linecap: round;stroke-linejoin: round;stroke-miterlimit: 10.000000;fill: none;"></path>
  <path d="M203.656784 405.552124C203.656784 404.491211,203.235275 403.473877,202.485153 402.723755C201.735031 401.973633,200.717697 401.552124,199.656784 401.552124C198.595871 401.552124,197.578537 401.973633,196.828415 402.723755C196.078293 403.473877,195.656784 404.491211,195.656784 405.552124C195.656784 406.613037,196.078293 407.630371,196.828415 408.380493C197.578537 409.130615,198.595871 409.552124,199.656784 409.552124C200.717697 409.552124,201.735031 409.130615,202.485153 408.380493C203.235275 407.630371,203.656784 406.613037,203.656784 405.552124Z" style="fill: rgb(9.800720%,9.800720%,44.000244%);stroke: none;"></path>
  <path d="M289.191010 460.423203L291.941925 355.447556" style="stroke:rgb(60.000610%,60.000610%,60.000610%); stroke-width: 1.800003;stroke-linecap: round;stroke-dasharray: 3.000000 3.000000 ;stroke-linejoin: round;stroke-miterlimit: 10.000000;fill: none;"></path>
  <path d="M202.407684 300.567825L291.941925 355.447556" style="stroke:rgb(60.000610%,60.000610%,60.000610%); stroke-width: 1.800003;stroke-linecap: round;stroke-dasharray: 3.000000 3.000000 ;stroke-linejoin: round;stroke-miterlimit: 10.000000;fill: none;"></path>
  <path d="M293.191010 460.423203C293.191010 459.362289,292.769501 458.344955,292.019379 457.594833C291.269257 456.844711,290.251923 456.423203,289.191010 456.423203C288.130096 456.423203,287.112762 456.844711,286.362640 457.594833C285.612518 458.344955,285.191010 459.362289,285.191010 460.423203C285.191010 461.484116,285.612518 462.501450,286.362640 463.251572C287.112762 464.001694,288.130096 464.423203,289.191010 464.423203C290.251923 464.423203,291.269257 464.001694,292.019379 463.251572C292.769501 462.501450,293.191010 461.484116,293.191010 460.423203Z" style="stroke:rgb(39.999390%,39.999390%,39.999390%); stroke-width: 0.500000;stroke-linecap: round;stroke-linejoin: round;stroke-miterlimit: 10.000000;fill: none;"></path>
  <path d="M293.191010 460.423203C293.191010 459.362289,292.769501 458.344955,292.019379 457.594833C291.269257 456.844711,290.251923 456.423203,289.191010 456.423203C288.130096 456.423203,287.112762 456.844711,286.362640 457.594833C285.612518 458.344955,285.191010 459.362289,285.191010 460.423203C285.191010 461.484116,285.612518 462.501450,286.362640 463.251572C287.112762 464.001694,288.130096 464.423203,289.191010 464.423203C290.251923 464.423203,291.269257 464.001694,292.019379 463.251572C292.769501 462.501450,293.191010 461.484116,293.191010 460.423203Z" style="fill: rgb(89.999390%,0.000000%,0.000000%);stroke: none;"></path>
  <path d="M206.407684 300.567825C206.407684 299.506912,205.986176 298.489578,205.236053 297.739456C204.485931 296.989334,203.468597 296.567825,202.407684 296.567825C201.346771 296.567825,200.329437 296.989334,199.579315 297.739456C198.829193 298.489578,198.407684 299.506912,198.407684 300.567825C198.407684 301.628738,198.829193 302.646072,199.579315 303.396194C200.329437 304.146317,201.346771 304.567825,202.407684 304.567825C203.468597 304.567825,204.485931 304.146317,205.236053 303.396194C205.986176 302.646072,206.407684 301.628738,206.407684 300.567825Z" style="stroke:rgb(39.999390%,39.999390%,39.999390%); stroke-width: 0.500000;stroke-linecap: round;stroke-linejoin: round;stroke-miterlimit: 10.000000;fill: none;"></path>
  <path d="M206.407684 300.567825C206.407684 299.506912,205.986176 298.489578,205.236053 297.739456C204.485931 296.989334,203.468597 296.567825,202.407684 296.567825C201.346771 296.567825,200.329437 296.989334,199.579315 297.739456C198.829193 298.489578,198.407684 299.506912,198.407684 300.567825C198.407684 301.628738,198.829193 302.646072,199.579315 303.396194C200.329437 304.146317,201.346771 304.567825,202.407684 304.567825C203.468597 304.567825,204.485931 304.146317,205.236053 303.396194C205.986176 302.646072,206.407684 301.628738,206.407684 300.567825Z" style="fill: rgb(89.999390%,0.000000%,0.000000%);stroke: none;"></path>
  <path d="M295.941925 355.447556C295.941925 354.386642,295.520416 353.369308,294.770294 352.619186C294.020172 351.869064,293.002838 351.447556,291.941925 351.447556C290.881012 351.447556,289.863678 351.869064,289.113556 352.619186C288.363434 353.369308,287.941925 354.386642,287.941925 355.447556C287.941925 356.508469,288.363434 357.525803,289.113556 358.275925C289.863678 359.026047,290.881012 359.447556,291.941925 359.447556C293.002838 359.447556,294.020172 359.026047,294.770294 358.275925C295.520416 357.525803,295.941925 356.508469,295.941925 355.447556Z" style="stroke:rgb(39.999390%,39.999390%,39.999390%); stroke-width: 0.500000;stroke-linecap: round;stroke-linejoin: round;stroke-miterlimit: 10.000000;fill: none;"></path>
  <path d="M295.941925 355.447556C295.941925 354.386642,295.520416 353.369308,294.770294 352.619186C294.020172 351.869064,293.002838 351.447556,291.941925 351.447556C290.881012 351.447556,289.863678 351.869064,289.113556 352.619186C288.363434 353.369308,287.941925 354.386642,287.941925 355.447556C287.941925 356.508469,288.363434 357.525803,289.113556 358.275925C289.863678 359.026047,290.881012 359.447556,291.941925 359.447556C293.002838 359.447556,294.020172 359.026047,294.770294 358.275925C295.520416 357.525803,295.941925 356.508469,295.941925 355.447556Z" style="fill: rgb(9.800720%,9.800720%,44.000244%);stroke: none;"></path>
  <path d="M354.382309 211.120102L351.648712 106.144470" style="stroke:rgb(60.000610%,60.000610%,60.000610%); stroke-width: 1.800003;stroke-linecap: round;stroke-dasharray: 3.000000 3.000000 ;stroke-linejoin: round;stroke-miterlimit: 10.000000;fill: none;"></path>
  <path d="M246.638458 105.374557L351.648712 106.144470" style="stroke:rgb(60.000610%,60.000610%,60.000610%); stroke-width: 1.800003;stroke-linecap: round;stroke-dasharray: 3.000000 3.000000 ;stroke-linejoin: round;stroke-miterlimit: 10.000000;fill: none;"></path>
  <path d="M358.382309 211.120102C358.382309 210.059189,357.960800 209.041855,357.210678 208.291733C356.460556 207.541611,355.443222 207.120102,354.382309 207.120102C353.321396 207.120102,352.304062 207.541611,351.553940 208.291733C350.803818 209.041855,350.382309 210.059189,350.382309 211.120102C350.382309 212.181015,350.803818 213.198349,351.553940 213.948471C352.304062 214.698593,353.321396 215.120102,354.382309 215.120102C355.443222 215.120102,356.460556 214.698593,357.210678 213.948471C357.960800 213.198349,358.382309 212.181015,358.382309 211.120102Z" style="stroke:rgb(39.999390%,39.999390%,39.999390%); stroke-width: 0.500000;stroke-linecap: round;stroke-linejoin: round;stroke-miterlimit: 10.000000;fill: none;"></path>
  <path d="M358.382309 211.120102C358.382309 210.059189,357.960800 209.041855,357.210678 208.291733C356.460556 207.541611,355.443222 207.120102,354.382309 207.120102C353.321396 207.120102,352.304062 207.541611,351.553940 208.291733C350.803818 209.041855,350.382309 210.059189,350.382309 211.120102C350.382309 212.181015,350.803818 213.198349,351.553940 213.948471C352.304062 214.698593,353.321396 215.120102,354.382309 215.120102C355.443222 215.120102,356.460556 214.698593,357.210678 213.948471C357.960800 213.198349,358.382309 212.181015,358.382309 211.120102Z" style="fill: rgb(89.999390%,0.000000%,0.000000%);stroke: none;"></path>
  <path d="M250.638458 105.374557C250.638458 104.313644,250.216949 103.296310,249.466827 102.546188C248.716705 101.796066,247.699371 101.374557,246.638458 101.374557C245.577545 101.374557,244.560211 101.796066,243.810089 102.546188C243.059967 103.296310,242.638458 104.313644,242.638458 105.374557C242.638458 106.435471,243.059967 107.452805,243.810089 108.202927C244.560211 108.953049,245.577545 109.374557,246.638458 109.374557C247.699371 109.374557,248.716705 108.953049,249.466827 108.202927C250.216949 107.452805,250.638458 106.435471,250.638458 105.374557Z" style="stroke:rgb(39.999390%,39.999390%,39.999390%); stroke-width: 0.500000;stroke-linecap: round;stroke-linejoin: round;stroke-miterlimit: 10.000000;fill: none;"></path>
  <path d="M250.638458 105.374557C250.638458 104.313644,250.216949 103.296310,249.466827 102.546188C248.716705 101.796066,247.699371 101.374557,246.638458 101.374557C245.577545 101.374557,244.560211 101.796066,243.810089 102.546188C243.059967 103.296310,242.638458 104.313644,242.638458 105.374557C242.638458 106.435471,243.059967 107.452805,243.810089 108.202927C244.560211 108.953049,245.577545 109.374557,246.638458 109.374557C247.699371 109.374557,248.716705 108.953049,249.466827 108.202927C250.216949 107.452805,250.638458 106.435471,250.638458 105.374557Z" style="fill: rgb(89.999390%,0.000000%,0.000000%);stroke: none;"></path>
  <path d="M355.648712 106.144470C355.648712 105.083557,355.227203 104.066223,354.477081 103.316101C353.726959 102.565979,352.709625 102.144470,351.648712 102.144470C350.587799 102.144470,349.570465 102.565979,348.820343 103.316101C348.070221 104.066223,347.648712 105.083557,347.648712 106.144470C347.648712 107.205383,348.070221 108.222717,348.820343 108.972839C349.570465 109.722961,350.587799 110.144470,351.648712 110.144470C352.709625 110.144470,353.726959 109.722961,354.477081 108.972839C355.227203 108.222717,355.648712 107.205383,355.648712 106.144470Z" style="stroke:rgb(39.999390%,39.999390%,39.999390%); stroke-width: 0.500000;stroke-linecap: round;stroke-linejoin: round;stroke-miterlimit: 10.000000;fill: none;"></path>
  <path d="M355.648712 106.144470C355.648712 105.083557,355.227203 104.066223,354.477081 103.316101C353.726959 102.565979,352.709625 102.144470,351.648712 102.144470C350.587799 102.144470,349.570465 102.565979,348.820343 103.316101C348.070221 104.066223,347.648712 105.083557,347.648712 106.144470C347.648712 107.205383,348.070221 108.222717,348.820343 108.972839C349.570465 109.722961,350.587799 110.144470,351.648712 110.144470C352.709625 110.144470,353.726959 109.722961,354.477081 108.972839C355.227203 108.222717,355.648712 107.205383,355.648712 106.144470Z" style="fill: rgb(0.000000%,50.000000%,0.000000%);stroke: none;"></path>
  <path d="M354.382309 211.120102L307.322769 305.005615" style="stroke:rgb(60.000610%,60.000610%,60.000610%); stroke-width: 1.800003;stroke-linecap: round;stroke-dasharray: 3.000000 3.000000 ;stroke-linejoin: round;stroke-miterlimit: 10.000000;fill: none;"></path>
  <path d="M202.407684 300.567825L307.322769 305.005615" style="stroke:rgb(60.000610%,60.000610%,60.000610%); stroke-width: 1.800003;stroke-linecap: round;stroke-dasharray: 3.000000 3.000000 ;stroke-linejoin: round;stroke-miterlimit: 10.000000;fill: none;"></path>
  <path d="M358.382309 211.120102C358.382309 210.059189,357.960800 209.041855,357.210678 208.291733C356.460556 207.541611,355.443222 207.120102,354.382309 207.120102C353.321396 207.120102,352.304062 207.541611,351.553940 208.291733C350.803818 209.041855,350.382309 210.059189,350.382309 211.120102C350.382309 212.181015,350.803818 213.198349,351.553940 213.948471C352.304062 214.698593,353.321396 215.120102,354.382309 215.120102C355.443222 215.120102,356.460556 214.698593,357.210678 213.948471C357.960800 213.198349,358.382309 212.181015,358.382309 211.120102Z" style="stroke:rgb(39.999390%,39.999390%,39.999390%); stroke-width: 0.500000;stroke-linecap: round;stroke-linejoin: round;stroke-miterlimit: 10.000000;fill: none;"></path>
  <path d="M358.382309 211.120102C358.382309 210.059189,357.960800 209.041855,357.210678 208.291733C356.460556 207.541611,355.443222 207.120102,354.382309 207.120102C353.321396 207.120102,352.304062 207.541611,351.553940 208.291733C350.803818 209.041855,350.382309 210.059189,350.382309 211.120102C350.382309 212.181015,350.803818 213.198349,351.553940 213.948471C352.304062 214.698593,353.321396 215.120102,354.382309 215.120102C355.443222 215.120102,356.460556 214.698593,357.210678 213.948471C357.960800 213.198349,358.382309 212.181015,358.382309 211.120102Z" style="fill: rgb(89.999390%,0.000000%,0.000000%);stroke: none;"></path>
  <path d="M206.407684 300.567825C206.407684 299.506912,205.986176 298.489578,205.236053 297.739456C204.485931 296.989334,203.468597 296.567825,202.407684 296.567825C201.346771 296.567825,200.329437 296.989334,199.579315 297.739456C198.829193 298.489578,198.407684 299.506912,198.407684 300.567825C198.407684 301.628738,198.829193 302.646072,199.579315 303.396194C200.329437 304.146317,201.346771 304.567825,202.407684 304.567825C203.468597 304.567825,204.485931 304.146317,205.236053 303.396194C205.986176 302.646072,206.407684 301.628738,206.407684 300.567825Z" style="stroke:rgb(39.999390%,39.999390%,39.999390%); stroke-width: 0.500000;stroke-linecap: round;stroke-linejoin: round;stroke-miterlimit: 10.000000;fill: none;"></path>
  <path d="M206.407684 300.567825C206.407684 299.506912,205.986176 298.489578,205.236053 297.739456C204.485931 296.989334,203.468597 296.567825,202.407684 296.567825C201.346771 296.567825,200.329437 296.989334,199.579315 297.739456C198.829193 298.489578,198.407684 299.506912,198.407684 300.567825C198.407684 301.628738,198.829193 302.646072,199.579315 303.396194C200.329437 304.146317,201.346771 304.567825,202.407684 304.567825C203.468597 304.567825,204.485931 304.146317,205.236053 303.396194C205.986176 302.646072,206.407684 301.628738,206.407684 300.567825Z" style="fill: rgb(89.999390%,0.000000%,0.000000%);stroke: none;"></path>
  <path d="M311.322769 305.005615C311.322769 303.944702,310.901260 302.927368,310.151138 302.177246C309.401016 301.427124,308.383682 301.005615,307.322769 301.005615C306.261856 301.005615,305.244522 301.427124,304.494400 302.177246C303.744278 302.927368,303.322769 303.944702,303.322769 305.005615C303.322769 306.066528,303.744278 307.083862,304.494400 307.833984C305.244522 308.584106,306.261856 309.005615,307.322769 309.005615C308.383682 309.005615,309.401016 308.584106,310.151138 307.833984C310.901260 307.083862,311.322769 306.066528,311.322769 305.005615Z" style="stroke:rgb(39.999390%,39.999390%,39.999390%); stroke-width: 0.500000;stroke-linecap: round;stroke-linejoin: round;stroke-miterlimit: 10.000000;fill: none;"></path>
  <path d="M311.322769 305.005615C311.322769 303.944702,310.901260 302.927368,310.151138 302.177246C309.401016 301.427124,308.383682 301.005615,307.322769 301.005615C306.261856 301.005615,305.244522 301.427124,304.494400 302.177246C303.744278 302.927368,303.322769 303.944702,303.322769 305.005615C303.322769 306.066528,303.744278 307.083862,304.494400 307.833984C305.244522 308.584106,306.261856 309.005615,307.322769 309.005615C308.383682 309.005615,309.401016 308.584106,310.151138 307.833984C310.901260 307.083862,311.322769 306.066528,311.322769 305.005615Z" style="fill: rgb(9.800720%,9.800720%,44.000244%);stroke: none;"></path>
  <path d="M246.638458 105.374557L298.464508 14.023697" style="stroke:rgb(60.000610%,60.000610%,60.000610%); stroke-width: 1.800003;stroke-linecap: round;stroke-dasharray: 3.000000 3.000000 ;stroke-linejoin: round;stroke-miterlimit: 10.000000;fill: none;"></path>
  <path d="M250.638458 105.374557C250.638458 104.313644,250.216949 103.296310,249.466827 102.546188C248.716705 101.796066,247.699371 101.374557,246.638458 101.374557C245.577545 101.374557,244.560211 101.796066,243.810089 102.546188C243.059967 103.296310,242.638458 104.313644,242.638458 105.374557C242.638458 106.435471,243.059967 107.452805,243.810089 108.202927C244.560211 108.953049,245.577545 109.374557,246.638458 109.374557C247.699371 109.374557,248.716705 108.953049,249.466827 108.202927C250.216949 107.452805,250.638458 106.435471,250.638458 105.374557Z" style="stroke:rgb(39.999390%,39.999390%,39.999390%); stroke-width: 0.500000;stroke-linecap: round;stroke-linejoin: round;stroke-miterlimit: 10.000000;fill: none;"></path>
  <path d="M250.638458 105.374557C250.638458 104.313644,250.216949 103.296310,249.466827 102.546188C248.716705 101.796066,247.699371 101.374557,246.638458 101.374557C245.577545 101.374557,244.560211 101.796066,243.810089 102.546188C243.059967 103.296310,242.638458 104.313644,242.638458 105.374557C242.638458 106.435471,243.059967 107.452805,243.810089 108.202927C244.560211 108.953049,245.577545 109.374557,246.638458 109.374557C247.699371 109.374557,248.716705 108.953049,249.466827 108.202927C250.216949 107.452805,250.638458 106.435471,250.638458 105.374557Z" style="fill: rgb(89.999390%,0.000000%,0.000000%);stroke: none;"></path>
  <path d="M302.464508 14.023697C302.464508 12.962784,302.042999 11.945450,301.292877 11.195328C300.542755 10.445206,299.525421 10.023697,298.464508 10.023697C297.403595 10.023697,296.386261 10.445206,295.636139 11.195328C294.886017 11.945450,294.464508 12.962784,294.464508 14.023697C294.464508 15.084610,294.886017 16.101944,295.636139 16.852066C296.386261 17.602188,297.403595 18.023697,298.464508 18.023697C299.525421 18.023697,300.542755 17.602188,301.292877 16.852066C302.042999 16.101944,302.464508 15.084610,302.464508 14.023697Z" style="stroke:rgb(39.999390%,39.999390%,39.999390%); stroke-width: 0.500000;stroke-linecap: round;stroke-linejoin: round;stroke-miterlimit: 10.000000;fill: none;"></path>
  <path d="M302.464508 14.023697C302.464508 12.962784,302.042999 11.945450,301.292877 11.195328C300.542755 10.445206,299.525421 10.023697,298.464508 10.023697C297.403595 10.023697,296.386261 10.445206,295.636139 11.195328C294.886017 11.945450,294.464508 12.962784,294.464508 14.023697C294.464508 15.084610,294.886017 16.101944,295.636139 16.852066C296.386261 17.602188,297.403595 18.023697,298.464508 18.023697C299.525421 18.023697,300.542755 17.602188,301.292877 16.852066C302.042999 16.101944,302.464508 15.084610,302.464508 14.023697Z" style="fill: rgb(100.000000%,100.000000%,0.000000%);stroke: none;"></path>
  <path d="M246.638458 105.374557L193.471573 195.938217" style="stroke:rgb(60.000610%,60.000610%,60.000610%); stroke-width: 1.800003;stroke-linecap: round;stroke-dasharray: 3.000000 3.000000 ;stroke-linejoin: round;stroke-miterlimit: 10.000000;fill: none;"></path>
  <path d="M202.407684 300.567825L193.471573 195.938217" style="stroke:rgb(60.000610%,60.000610%,60.000610%); stroke-width: 1.800003;stroke-linecap: round;stroke-dasharray: 3.000000 3.000000 ;stroke-linejoin: round;stroke-miterlimit: 10.000000;fill: none;"></path>
  <path d="M250.638458 105.374557C250.638458 104.313644,250.216949 103.296310,249.466827 102.546188C248.716705 101.796066,247.699371 101.374557,246.638458 101.374557C245.577545 101.374557,244.560211 101.796066,243.810089 102.546188C243.059967 103.296310,242.638458 104.313644,242.638458 105.374557C242.638458 106.435471,243.059967 107.452805,243.810089 108.202927C244.560211 108.953049,245.577545 109.374557,246.638458 109.374557C247.699371 109.374557,248.716705 108.953049,249.466827 108.202927C250.216949 107.452805,250.638458 106.435471,250.638458 105.374557Z" style="stroke:rgb(39.999390%,39.999390%,39.999390%); stroke-width: 0.500000;stroke-linecap: round;stroke-linejoin: round;stroke-miterlimit: 10.000000;fill: none;"></path>
  <path d="M250.638458 105.374557C250.638458 104.313644,250.216949 103.296310,249.466827 102.546188C248.716705 101.796066,247.699371 101.374557,246.638458 101.374557C245.577545 101.374557,244.560211 101.796066,243.810089 102.546188C243.059967 103.296310,242.638458 104.313644,242.638458 105.374557C242.638458 106.435471,243.059967 107.452805,243.810089 108.202927C244.560211 108.953049,245.577545 109.374557,246.638458 109.374557C247.699371 109.374557,248.716705 108.953049,249.466827 108.202927C250.216949 107.452805,250.638458 106.435471,250.638458 105.374557Z" style="fill: rgb(89.999390%,0.000000%,0.000000%);stroke: none;"></path>
  <path d="M206.407684 300.567825C206.407684 299.506912,205.986176 298.489578,205.236053 297.739456C204.485931 296.989334,203.468597 296.567825,202.407684 296.567825C201.346771 296.567825,200.329437 296.989334,199.579315 297.739456C198.829193 298.489578,198.407684 299.506912,198.407684 300.567825C198.407684 301.628738,198.829193 302.646072,199.579315 303.396194C200.329437 304.146317,201.346771 304.567825,202.407684 304.567825C203.468597 304.567825,204.485931 304.146317,205.236053 303.396194C205.986176 302.646072,206.407684 301.628738,206.407684 300.567825Z" style="stroke:rgb(39.999390%,39.999390%,39.999390%); stroke-width: 0.500000;stroke-linecap: round;stroke-linejoin: round;stroke-miterlimit: 10.000000;fill: none;"></path>
  <path d="M206.407684 300.567825C206.407684 299.506912,205.986176 298.489578,205.236053 297.739456C204.485931 296.989334,203.468597 296.567825,202.407684 296.567825C201.346771 296.567825,200.329437 296.989334,199.579315 297.739456C198.829193 298.489578,198.407684 299.506912,198.407684 300.567825C198.407684 301.628738,198.829193 302.646072,199.579315 303.396194C200.329437 304.146317,201.346771 304.567825,202.407684 304.567825C203.468597 304.567825,204.485931 304.146317,205.236053 303.396194C205.986176 302.646072,206.407684 301.628738,206.407684 300.567825Z" style="fill: rgb(89.999390%,0.000000%,0.000000%);stroke: none;"></path>
  <path d="M197.471573 195.938217C197.471573 194.877304,197.050064 193.859970,196.299942 193.109848C195.549820 192.359726,194.532486 191.938217,193.471573 191.938217C192.410660 191.938217,191.393326 192.359726,190.643204 193.109848C189.893082 193.859970,189.471573 194.877304,189.471573 195.938217C189.471573 196.999130,189.893082 198.016464,190.643204 198.766586C191.393326 199.516708,192.410660 199.938217,193.471573 199.938217C194.532486 199.938217,195.549820 199.516708,196.299942 198.766586C197.050064 198.016464,197.471573 196.999130,197.471573 195.938217Z" style="stroke:rgb(39.999390%,39.999390%,39.999390%); stroke-width: 0.500000;stroke-linecap: round;stroke-linejoin: round;stroke-miterlimit: 10.000000;fill: none;"></path>
  <path d="M197.471573 195.938217C197.471573 194.877304,197.050064 193.859970,196.299942 193.109848C195.549820 192.359726,194.532486 191.938217,193.471573 191.938217C192.410660 191.938217,191.393326 192.359726,190.643204 193.109848C189.893082 193.859970,189.471573 194.877304,189.471573 195.938217C189.471573 196.999130,189.893082 198.016464,190.643204 198.766586C191.393326 199.516708,192.410660 199.938217,193.471573 199.938217C194.532486 199.938217,195.549820 199.516708,196.299942 198.766586C197.050064 198.016464,197.471573 196.999130,197.471573 195.938217Z" style="fill: rgb(0.000000%,50.000000%,0.000000%);stroke: none;"></path>
  <path d="M104.560181 450.120270L15.000000 505.000000" style="stroke:rgb(60.000610%,60.000610%,60.000610%); stroke-width: 1.800003;stroke-linecap: round;stroke-dasharray: 3.000000 3.000000 ;stroke-linejoin: round;stroke-miterlimit: 10.000000;fill: none;"></path>
  <path d="M108.560181 450.120270C108.560181 449.059357,108.138672 448.042023,107.388550 447.291901C106.638428 446.541779,105.621094 446.120270,104.560181 446.120270C103.499268 446.120270,102.481934 446.541779,101.731812 447.291901C100.981689 448.042023,100.560181 449.059357,100.560181 450.120270C100.560181 451.181183,100.981689 452.198517,101.731812 452.948639C102.481934 453.698761,103.499268 454.120270,104.560181 454.120270C105.621094 454.120270,106.638428 453.698761,107.388550 452.948639C108.138672 452.198517,108.560181 451.181183,108.560181 450.120270Z" style="stroke:rgb(39.999390%,39.999390%,39.999390%); stroke-width: 0.500000;stroke-linecap: round;stroke-linejoin: round;stroke-miterlimit: 10.000000;fill: none;"></path>
  <path d="M108.560181 450.120270C108.560181 449.059357,108.138672 448.042023,107.388550 447.291901C106.638428 446.541779,105.621094 446.120270,104.560181 446.120270C103.499268 446.120270,102.481934 446.541779,101.731812 447.291901C100.981689 448.042023,100.560181 449.059357,100.560181 450.120270C100.560181 451.181183,100.981689 452.198517,101.731812 452.948639C102.481934 453.698761,103.499268 454.120270,104.560181 454.120270C105.621094 454.120270,106.638428 453.698761,107.388550 452.948639C108.138672 452.198517,108.560181 451.181183,108.560181 450.120270Z" style="fill: rgb(89.999390%,0.000000%,0.000000%);stroke: none;"></path>
  <path d="M19.000000 505.000000C19.000000 503.939087,18.578491 502.921753,17.828369 502.171631C17.078247 501.421509,16.060913 501.000000,15.000000 501.000000C13.939087 501.000000,12.921753 501.421509,12.171631 502.171631C11.421509 502.921753,11.000000 503.939087,11.000000 505.000000C11.000000 506.060913,11.421509 507.078247,12.171631 507.828369C12.921753 508.578491,13.939087 509.000000,15.000000 509.000000C16.060913 509.000000,17.078247 508.578491,17.828369 507.828369C18.578491 507.078247,19.000000 506.060913,19.000000 505.000000Z" style="stroke:rgb(39.999390%,39.999390%,39.999390%); stroke-width: 0.500000;stroke-linecap: round;stroke-linejoin: round;stroke-miterlimit: 10.000000;fill: none;"></path>
  <path d="M19.000000 505.000000C19.000000 503.939087,18.578491 502.921753,17.828369 502.171631C17.078247 501.421509,16.060913 501.000000,15.000000 501.000000C13.939087 501.000000,12.921753 501.421509,12.171631 502.171631C11.421509 502.921753,11.000000 503.939087,11.000000 505.000000C11.000000 506.060913,11.421509 507.078247,12.171631 507.828369C12.921753 508.578491,13.939087 509.000000,15.000000 509.000000C16.060913 509.000000,17.078247 508.578491,17.828369 507.828369C18.578491 507.078247,19.000000 506.060913,19.000000 505.000000Z" style="fill: rgb(100.000000%,100.000000%,0.000000%);stroke: none;"></path>
  <path d="M104.560181 450.120270L107.319733 345.135986" style="stroke:rgb(60.000610%,60.000610%,60.000610%); stroke-width: 1.800003;stroke-linecap: round;stroke-dasharray: 3.000000 3.000000 ;stroke-linejoin: round;stroke-miterlimit: 10.000000;fill: none;"></path>
  <path d="M202.407684 300.567825L107.319733 345.135986" style="stroke:rgb(60.000610%,60.000610%,60.000610%); stroke-width: 1.800003;stroke-linecap: round;stroke-dasharray: 3.000000 3.000000 ;stroke-linejoin: round;stroke-miterlimit: 10.000000;fill: none;"></path>
  <path d="M108.560181 450.120270C108.560181 449.059357,108.138672 448.042023,107.388550 447.291901C106.638428 446.541779,105.621094 446.120270,104.560181 446.120270C103.499268 446.120270,102.481934 446.541779,101.731812 447.291901C100.981689 448.042023,100.560181 449.059357,100.560181 450.120270C100.560181 451.181183,100.981689 452.198517,101.731812 452.948639C102.481934 453.698761,103.499268 454.120270,104.560181 454.120270C105.621094 454.120270,106.638428 453.698761,107.388550 452.948639C108.138672 452.198517,108.560181 451.181183,108.560181 450.120270Z" style="stroke:rgb(39.999390%,39.999390%,39.999390%); stroke-width: 0.500000;stroke-linecap: round;stroke-linejoin: round;stroke-miterlimit: 10.000000;fill: none;"></path>
  <path d="M108.560181 450.120270C108.560181 449.059357,108.138672 448.042023,107.388550 447.291901C106.638428 446.541779,105.621094 446.120270,104.560181 446.120270C103.499268 446.120270,102.481934 446.541779,101.731812 447.291901C100.981689 448.042023,100.560181 449.059357,100.560181 450.120270C100.560181 451.181183,100.981689 452.198517,101.731812 452.948639C102.481934 453.698761,103.499268 454.120270,104.560181 454.120270C105.621094 454.120270,106.638428 453.698761,107.388550 452.948639C108.138672 452.198517,108.560181 451.181183,108.560181 450.120270Z" style="fill: rgb(89.999390%,0.000000%,0.000000%);stroke: none;"></path>
  <path d="M206.407684 300.567825C206.407684 299.506912,205.986176 298.489578,205.236053 297.739456C204.485931 296.989334,203.468597 296.567825,202.407684 296.567825C201.346771 296.567825,200.329437 296.989334,199.579315 297.739456C198.829193 298.489578,198.407684 299.506912,198.407684 300.567825C198.407684 301.628738,198.829193 302.646072,199.579315 303.396194C200.329437 304.146317,201.346771 304.567825,202.407684 304.567825C203.468597 304.567825,204.485931 304.146317,205.236053 303.396194C205.986176 302.646072,206.407684 301.628738,206.407684 300.567825Z" style="stroke:rgb(39.999390%,39.999390%,39.999390%); stroke-width: 0.500000;stroke-linecap: round;stroke-linejoin: round;stroke-miterlimit: 10.000000;fill: none;"></path>
  <path d="M206.407684 300.567825C206.407684 299.506912,205.986176 298.489578,205.236053 297.739456C204.485931 296.989334,203.468597 296.567825,202.407684 296.567825C201.346771 296.567825,200.329437 296.989334,199.579315 297.739456C198.829193 298.489578,198.407684 299.506912,198.407684 300.567825C198.407684 301.628738,198.829193 302.646072,199.579315 303.396194C200.329437 304.146317,201.346771 304.567825,202.407684 304.567825C203.468597 304.567825,204.485931 304.146317,205.236053 303.396194C205.986176 302.646072,206.407684 301.628738,206.407684 300.567825Z" style="fill: rgb(89.999390%,0.000000%,0.000000%);stroke: none;"></path>
  <path d="M111.319733 345.135986C111.319733 344.075073,110.898224 343.057739,110.148102 342.307617C109.397980 341.557495,108.380646 341.135986,107.319733 341.135986C106.258820 341.135986,105.241486 341.557495,104.491364 342.307617C103.741241 343.057739,103.319733 344.075073,103.319733 345.135986C103.319733 346.196899,103.741241 347.214233,104.491364 347.964355C105.241486 348.714478,106.258820 349.135986,107.319733 349.135986C108.380646 349.135986,109.397980 348.714478,110.148102 347.964355C110.898224 347.214233,111.319733 346.196899,111.319733 345.135986Z" style="stroke:rgb(39.999390%,39.999390%,39.999390%); stroke-width: 0.500000;stroke-linecap: round;stroke-linejoin: round;stroke-miterlimit: 10.000000;fill: none;"></path>
  <path d="M111.319733 345.135986C111.319733 344.075073,110.898224 343.057739,110.148102 342.307617C109.397980 341.557495,108.380646 341.135986,107.319733 341.135986C106.258820 341.135986,105.241486 341.557495,104.491364 342.307617C103.741241 343.057739,103.319733 344.075073,103.319733 345.135986C103.319733 346.196899,103.741241 347.214233,104.491364 347.964355C105.241486 348.714478,106.258820 349.135986,107.319733 349.135986C108.380646 349.135986,109.397980 348.714478,110.148102 347.964355C110.898224 347.214233,111.319733 346.196899,111.319733 345.135986Z" style="fill: rgb(0.000000%,50.000000%,0.000000%);stroke: none;"></path>
  <path d="M104.560181 450.120270L199.648132 405.552124" style="stroke:rgb(60.000610%,60.000610%,60.000610%); stroke-width: 1.800003;stroke-linecap: round;stroke-dasharray: 3.000000 3.000000 ;stroke-linejoin: round;stroke-miterlimit: 10.000000;fill: none;"></path>
  <path d="M202.407684 300.567825L199.648132 405.552124" style="stroke:rgb(60.000610%,60.000610%,60.000610%); stroke-width: 1.800003;stroke-linecap: round;stroke-dasharray: 3.000000 3.000000 ;stroke-linejoin: round;stroke-miterlimit: 10.000000;fill: none;"></path>
  <path d="M108.560181 450.120270C108.560181 449.059357,108.138672 448.042023,107.388550 447.291901C106.638428 446.541779,105.621094 446.120270,104.560181 446.120270C103.499268 446.120270,102.481934 446.541779,101.731812 447.291901C100.981689 448.042023,100.560181 449.059357,100.560181 450.120270C100.560181 451.181183,100.981689 452.198517,101.731812 452.948639C102.481934 453.698761,103.499268 454.120270,104.560181 454.120270C105.621094 454.120270,106.638428 453.698761,107.388550 452.948639C108.138672 452.198517,108.560181 451.181183,108.560181 450.120270Z" style="stroke:rgb(39.999390%,39.999390%,39.999390%); stroke-width: 0.500000;stroke-linecap: round;stroke-linejoin: round;stroke-miterlimit: 10.000000;fill: none;"></path>
  <path d="M108.560181 450.120270C108.560181 449.059357,108.138672 448.042023,107.388550 447.291901C106.638428 446.541779,105.621094 446.120270,104.560181 446.120270C103.499268 446.120270,102.481934 446.541779,101.731812 447.291901C100.981689 448.042023,100.560181 449.059357,100.560181 450.120270C100.560181 451.181183,100.981689 452.198517,101.731812 452.948639C102.481934 453.698761,103.499268 454.120270,104.560181 454.120270C105.621094 454.120270,106.638428 453.698761,107.388550 452.948639C108.138672 452.198517,108.560181 451.181183,108.560181 450.120270Z" style="fill: rgb(89.999390%,0.000000%,0.000000%);stroke: none;"></path>
  <path d="M206.407684 300.567825C206.407684 299.506912,205.986176 298.489578,205.236053 297.739456C204.485931 296.989334,203.468597 296.567825,202.407684 296.567825C201.346771 296.567825,200.329437 296.989334,199.579315 297.739456C198.829193 298.489578,198.407684 299.506912,198.407684 300.567825C198.407684 301.628738,198.829193 302.646072,199.579315 303.396194C200.329437 304.146317,201.346771 304.567825,202.407684 304.567825C203.468597 304.567825,204.485931 304.146317,205.236053 303.396194C205.986176 302.646072,206.407684 301.628738,206.407684 300.567825Z" style="stroke:rgb(39.999390%,39.999390%,39.999390%); stroke-width: 0.500000;stroke-linecap: round;stroke-linejoin: round;stroke-miterlimit: 10.000000;fill: none;"></path>
  <path d="M206.407684 300.567825C206.407684 299.506912,205.986176 298.489578,205.236053 297.739456C204.485931 296.989334,203.468597 296.567825,202.407684 296.567825C201.346771 296.567825,200.329437 296.989334,199.579315 297.739456C198.829193 298.489578,198.407684 299.506912,198.407684 300.567825C198.407684 301.628738,198.829193 302.646072,199.579315 303.396194C200.329437 304.146317,201.346771 304.567825,202.407684 304.567825C203.468597 304.567825,204.485931 304.146317,205.236053 303.396194C205.986176 302.646072,206.407684 301.628738,206.407684 300.567825Z" style="fill: rgb(89.999390%,0.000000%,0.000000%);stroke: none;"></path>
  <path d="M203.648132 405.552124C203.648132 404.491211,203.226624 403.473877,202.476501 402.723755C201.726379 401.973633,200.709045 401.552124,199.648132 401.552124C198.587219 401.552124,197.569885 401.973633,196.819763 402.723755C196.069641 403.473877,195.648132 404.491211,195.648132 405.552124C195.648132 406.613037,196.069641 407.630371,196.819763 408.380493C197.569885 409.130615,198.587219 409.552124,199.648132 409.552124C200.709045 409.552124,201.726379 409.130615,202.476501 408.380493C203.226624 407.630371,203.648132 406.613037,203.648132 405.552124Z" style="stroke:rgb(39.999390%,39.999390%,39.999390%); stroke-width: 0.500000;stroke-linecap: round;stroke-linejoin: round;stroke-miterlimit: 10.000000;fill: none;"></path>
  <path d="M203.648132 405.552124C203.648132 404.491211,203.226624 403.473877,202.476501 402.723755C201.726379 401.973633,200.709045 401.552124,199.648132 401.552124C198.587219 401.552124,197.569885 401.973633,196.819763 402.723755C196.069641 403.473877,195.648132 404.491211,195.648132 405.552124C195.648132 406.613037,196.069641 407.630371,196.819763 408.380493C197.569885 409.130615,198.587219 409.552124,199.648132 409.552124C200.709045 409.552124,201.726379 409.130615,202.476501 408.380493C203.226624 407.630371,203.648132 406.613037,203.648132 405.552124Z" style="fill: rgb(9.800720%,9.800720%,44.000244%);stroke: none;"></path>
</svg>
