<?xml version="1.0"?>
<!-- Created by MetaPost 2.00 on 2022.03.31:1000 -->
<svg version="1.1" xmlns="http://www.w3.org/2000/svg" xmlns:xlink="http://www.w3.org/1999/xlink" width="685.318329" height="685.318329" viewBox="0 0 685.318329 685.318329">
<!-- Original BoundingBox: -59.194656 -59.194656 626.123672 626.123672 -->
  <path d="M59.000000 626.000000L625.929016 626.000000L625.929016 59.070984L59.000000 59.070984L59.000000 626.000000Z" style="fill: rgb(100.000000%,100.000000%,100.000000%);stroke: none;"></path>
  <path d="M59.000000 626.000000L625.929016 626.000000" style="stroke:rgb(0.000000%,0.000000%,0.000000%); stroke-width: 1.000000;stroke-linecap: round;stroke-linejoin: round;stroke-miterlimit: 10.000000;fill: none;"></path>
  <path d="M625.929016 626.000000L625.929016 59.070984" style="stroke:rgb(0.000000%,0.000000%,0.000000%); stroke-width: 1.000000;stroke-linecap: round;stroke-linejoin: round;stroke-miterlimit: 10.000000;fill: none;"></path>
  <path d="M625.929016 59.070984L59.000000 59.070984" style="stroke:rgb(0.000000%,0.000000%,0.000000%); stroke-width: 1.000000;stroke-linecap: round;stroke-linejoin: round;stroke-miterlimit: 10.000000;fill: none;"></path>
  <path d="M59.000000 59.070984L59.000000 626.000000" style="stroke:rgb(0.000000%,0.000000%,0.000000%); stroke-width: 1.000000;stroke-linecap: round;stroke-linejoin: round;stroke-miterlimit: 10.000000;fill: none;"></path>
  <path d="M684.623672 200.803238C684.623672 147.644348,663.503250 96.669083,625.917084 59.082916C588.330917 21.496750,537.355652 0.376328,484.196762 0.376328C431.037872 0.376328,380.062607 21.496750,342.476440 59.082916C304.890274 96.669083,283.769852 147.644348,283.769852 200.803238C283.769852 253.962128,304.890274 304.937393,342.476440 342.523560C380.062607 380.109726,431.037872 401.230148,484.196762 401.230148C537.355652 401.230148,588.330917 380.109726,625.917084 342.523560C663.503250 304.937393,684.623672 253.962128,684.623672 200.803238Z" style="stroke:rgb(25.500488%,41.000366%,88.400269%); stroke-width: 1.000000;stroke-linecap: round;stroke-linejoin: round;stroke-miterlimit: 10.000000;fill: none;"></path>
  <path d="M684.623672 484.267746C684.623672 431.108856,663.503250 380.133591,625.917084 342.547424C588.330917 304.961258,537.355652 283.840836,484.196762 283.840836C431.037872 283.840836,380.062607 304.961258,342.476440 342.547424C304.890274 380.133591,283.769852 431.108856,283.769852 484.267746C283.769852 537.426636,304.890274 588.401901,342.476440 625.988068C380.062607 663.574234,431.037872 684.694656,484.196762 684.694656C537.355652 684.694656,588.330917 663.574234,625.917084 625.988068C663.503250 588.401901,684.623672 537.426636,684.623672 484.267746Z" style="stroke:rgb(25.500488%,41.000366%,88.400269%); stroke-width: 1.000000;stroke-linecap: round;stroke-linejoin: round;stroke-miterlimit: 10.000000;fill: none;"></path>
  <path d="M401.159164 200.803238C401.159164 147.644348,380.038742 96.669083,342.452576 59.082916C304.866409 21.496750,253.891144 0.376328,200.732254 0.376328C147.573364 0.376328,96.598099 21.496750,59.011932 59.082916C21.425766 96.669083,0.305344 147.644348,0.305344 200.803238C0.305344 253.962128,21.425766 304.937393,59.011932 342.523560C96.598099 380.109726,147.573364 401.230148,200.732254 401.230148C253.891144 401.230148,304.866409 380.109726,342.452576 342.523560C380.038742 304.937393,401.159164 253.962128,401.159164 200.803238Z" style="stroke:rgb(25.500488%,41.000366%,88.400269%); stroke-width: 1.000000;stroke-linecap: round;stroke-linejoin: round;stroke-miterlimit: 10.000000;fill: none;"></path>
  <path d="M401.159164 484.267746C401.159164 431.108856,380.038742 380.133591,342.452576 342.547424C304.866409 304.961258,253.891144 283.840836,200.732254 283.840836C147.573364 283.840836,96.598099 304.961258,59.011932 342.547424C21.425766 380.133591,0.305344 431.108856,0.305344 484.267746C0.305344 537.426636,21.425766 588.401901,59.011932 625.988068C96.598099 663.574234,147.573364 684.694656,200.732254 684.694656C253.891144 684.694656,304.866409 663.574234,342.452576 625.988068C380.038742 588.401901,401.159164 537.426636,401.159164 484.267746Z" style="stroke:rgb(25.500488%,41.000366%,88.400269%); stroke-width: 1.000000;stroke-linecap: round;stroke-linejoin: round;stroke-miterlimit: 10.000000;fill: none;"></path>
  <path d="M484.196762 200.803238L625.929016 59.070984" style="stroke:rgb(60.000610%,60.000610%,60.000610%); stroke-width: 1.800003;stroke-linecap: round;stroke-dasharray: 3.000000 3.000000 ;stroke-linejoin: round;stroke-miterlimit: 10.000000;fill: none;"></path>
  <path d="M488.196762 200.803238C488.196762 199.742325,487.775253 198.724991,487.025131 197.974869C486.275009 197.224747,485.257675 196.803238,484.196762 196.803238C483.135849 196.803238,482.118515 197.224747,481.368393 197.974869C480.618271 198.724991,480.196762 199.742325,480.196762 200.803238C480.196762 201.864151,480.618271 202.881485,481.368393 203.631607C482.118515 204.381729,483.135849 204.803238,484.196762 204.803238C485.257675 204.803238,486.275009 204.381729,487.025131 203.631607C487.775253 202.881485,488.196762 201.864151,488.196762 200.803238Z" style="stroke:rgb(39.999390%,39.999390%,39.999390%); stroke-width: 0.500000;stroke-linecap: round;stroke-linejoin: round;stroke-miterlimit: 10.000000;fill: none;"></path>
  <path d="M488.196762 200.803238C488.196762 199.742325,487.775253 198.724991,487.025131 197.974869C486.275009 197.224747,485.257675 196.803238,484.196762 196.803238C483.135849 196.803238,482.118515 197.224747,481.368393 197.974869C480.618271 198.724991,480.196762 199.742325,480.196762 200.803238C480.196762 201.864151,480.618271 202.881485,481.368393 203.631607C482.118515 204.381729,483.135849 204.803238,484.196762 204.803238C485.257675 204.803238,486.275009 204.381729,487.025131 203.631607C487.775253 202.881485,488.196762 201.864151,488.196762 200.803238Z" style="fill: rgb(89.999390%,0.000000%,0.000000%);stroke: none;"></path>
  <path d="M629.929016 59.070984C629.929016 58.010071,629.507507 56.992737,628.757385 56.242615C628.007263 55.492493,626.989929 55.070984,625.929016 55.070984C624.868103 55.070984,623.850769 55.492493,623.100647 56.242615C622.350525 56.992737,621.929016 58.010071,621.929016 59.070984C621.929016 60.131897,622.350525 61.149231,623.100647 61.899353C623.850769 62.649475,624.868103 63.070984,625.929016 63.070984C626.989929 63.070984,628.007263 62.649475,628.757385 61.899353C629.507507 61.149231,629.929016 60.131897,629.929016 59.070984Z" style="stroke:rgb(39.999390%,39.999390%,39.999390%); stroke-width: 0.500000;stroke-linecap: round;stroke-linejoin: round;stroke-miterlimit: 10.000000;fill: none;"></path>
  <path d="M629.929016 59.070984C629.929016 58.010071,629.507507 56.992737,628.757385 56.242615C628.007263 55.492493,626.989929 55.070984,625.929016 55.070984C624.868103 55.070984,623.850769 55.492493,623.100647 56.242615C622.350525 56.992737,621.929016 58.010071,621.929016 59.070984C621.929016 60.131897,622.350525 61.149231,623.100647 61.899353C623.850769 62.649475,624.868103 63.070984,625.929016 63.070984C626.989929 63.070984,628.007263 62.649475,628.757385 61.899353C629.507507 61.149231,629.929016 60.131897,629.929016 59.070984Z" style="fill: rgb(100.000000%,100.000000%,0.000000%);stroke: none;"></path>
  <path d="M484.196762 200.803238L625.911713 342.535492" style="stroke:rgb(60.000610%,60.000610%,60.000610%); stroke-width: 1.800003;stroke-linecap: round;stroke-dasharray: 3.000000 3.000000 ;stroke-linejoin: round;stroke-miterlimit: 10.000000;fill: none;"></path>
  <path d="M484.196762 484.267746L625.911713 342.535492" style="stroke:rgb(60.000610%,60.000610%,60.000610%); stroke-width: 1.800003;stroke-linecap: round;stroke-dasharray: 3.000000 3.000000 ;stroke-linejoin: round;stroke-miterlimit: 10.000000;fill: none;"></path>
  <path d="M488.196762 200.803238C488.196762 199.742325,487.775253 198.724991,487.025131 197.974869C486.275009 197.224747,485.257675 196.803238,484.196762 196.803238C483.135849 196.803238,482.118515 197.224747,481.368393 197.974869C480.618271 198.724991,480.196762 199.742325,480.196762 200.803238C480.196762 201.864151,480.618271 202.881485,481.368393 203.631607C482.118515 204.381729,483.135849 204.803238,484.196762 204.803238C485.257675 204.803238,486.275009 204.381729,487.025131 203.631607C487.775253 202.881485,488.196762 201.864151,488.196762 200.803238Z" style="stroke:rgb(39.999390%,39.999390%,39.999390%); stroke-width: 0.500000;stroke-linecap: round;stroke-linejoin: round;stroke-miterlimit: 10.000000;fill: none;"></path>
  <path d="M488.196762 200.803238C488.196762 199.742325,487.775253 198.724991,487.025131 197.974869C486.275009 197.224747,485.257675 196.803238,484.196762 196.803238C483.135849 196.803238,482.118515 197.224747,481.368393 197.974869C480.618271 198.724991,480.196762 199.742325,480.196762 200.803238C480.196762 201.864151,480.618271 202.881485,481.368393 203.631607C482.118515 204.381729,483.135849 204.803238,484.196762 204.803238C485.257675 204.803238,486.275009 204.381729,487.025131 203.631607C487.775253 202.881485,488.196762 201.864151,488.196762 200.803238Z" style="fill: rgb(89.999390%,0.000000%,0.000000%);stroke: none;"></path>
  <path d="M488.196762 484.267746C488.196762 483.206833,487.775253 482.189499,487.025131 481.439377C486.275009 480.689255,485.257675 480.267746,484.196762 480.267746C483.135849 480.267746,482.118515 480.689255,481.368393 481.439377C480.618271 482.189499,480.196762 483.206833,480.196762 484.267746C480.196762 485.328659,480.618271 486.345993,481.368393 487.096115C482.118515 487.846237,483.135849 488.267746,484.196762 488.267746C485.257675 488.267746,486.275009 487.846237,487.025131 487.096115C487.775253 486.345993,488.196762 485.328659,488.196762 484.267746Z" style="stroke:rgb(39.999390%,39.999390%,39.999390%); stroke-width: 0.500000;stroke-linecap: round;stroke-linejoin: round;stroke-miterlimit: 10.000000;fill: none;"></path>
  <path d="M488.196762 484.267746C488.196762 483.206833,487.775253 482.189499,487.025131 481.439377C486.275009 480.689255,485.257675 480.267746,484.196762 480.267746C483.135849 480.267746,482.118515 480.689255,481.368393 481.439377C480.618271 482.189499,480.196762 483.206833,480.196762 484.267746C480.196762 485.328659,480.618271 486.345993,481.368393 487.096115C482.118515 487.846237,483.135849 488.267746,484.196762 488.267746C485.257675 488.267746,486.275009 487.846237,487.025131 487.096115C487.775253 486.345993,488.196762 485.328659,488.196762 484.267746Z" style="fill: rgb(89.999390%,0.000000%,0.000000%);stroke: none;"></path>
  <path d="M629.911713 342.535492C629.911713 341.474579,629.490204 340.457245,628.740082 339.707123C627.989960 338.957001,626.972626 338.535492,625.911713 338.535492C624.850800 338.535492,623.833466 338.957001,623.083344 339.707123C622.333221 340.457245,621.911713 341.474579,621.911713 342.535492C621.911713 343.596405,622.333221 344.613739,623.083344 345.363861C623.833466 346.113983,624.850800 346.535492,625.911713 346.535492C626.972626 346.535492,627.989960 346.113983,628.740082 345.363861C629.490204 344.613739,629.911713 343.596405,629.911713 342.535492Z" style="stroke:rgb(39.999390%,39.999390%,39.999390%); stroke-width: 0.500000;stroke-linecap: round;stroke-linejoin: round;stroke-miterlimit: 10.000000;fill: none;"></path>
  <path d="M629.911713 342.535492C629.911713 341.474579,629.490204 340.457245,628.740082 339.707123C627.989960 338.957001,626.972626 338.535492,625.911713 338.535492C624.850800 338.535492,623.833466 338.957001,623.083344 339.707123C622.333221 340.457245,621.911713 341.474579,621.911713 342.535492C621.911713 343.596405,622.333221 344.613739,623.083344 345.363861C623.833466 346.113983,624.850800 346.535492,625.911713 346.535492C626.972626 346.535492,627.989960 346.113983,628.740082 345.363861C629.490204 344.613739,629.911713 343.596405,629.911713 342.535492Z" style="fill: rgb(0.000000%,50.000000%,0.000000%);stroke: none;"></path>
  <path d="M484.196762 200.803238L342.481812 342.535492" style="stroke:rgb(60.000610%,60.000610%,60.000610%); stroke-width: 1.800003;stroke-linecap: round;stroke-dasharray: 3.000000 3.000000 ;stroke-linejoin: round;stroke-miterlimit: 10.000000;fill: none;"></path>
  <path d="M484.196762 484.267746L342.481812 342.535492" style="stroke:rgb(60.000610%,60.000610%,60.000610%); stroke-width: 1.800003;stroke-linecap: round;stroke-dasharray: 3.000000 3.000000 ;stroke-linejoin: round;stroke-miterlimit: 10.000000;fill: none;"></path>
  <path d="M488.196762 200.803238C488.196762 199.742325,487.775253 198.724991,487.025131 197.974869C486.275009 197.224747,485.257675 196.803238,484.196762 196.803238C483.135849 196.803238,482.118515 197.224747,481.368393 197.974869C480.618271 198.724991,480.196762 199.742325,480.196762 200.803238C480.196762 201.864151,480.618271 202.881485,481.368393 203.631607C482.118515 204.381729,483.135849 204.803238,484.196762 204.803238C485.257675 204.803238,486.275009 204.381729,487.025131 203.631607C487.775253 202.881485,488.196762 201.864151,488.196762 200.803238Z" style="stroke:rgb(39.999390%,39.999390%,39.999390%); stroke-width: 0.500000;stroke-linecap: round;stroke-linejoin: round;stroke-miterlimit: 10.000000;fill: none;"></path>
  <path d="M488.196762 200.803238C488.196762 199.742325,487.775253 198.724991,487.025131 197.974869C486.275009 197.224747,485.257675 196.803238,484.196762 196.803238C483.135849 196.803238,482.118515 197.224747,481.368393 197.974869C480.618271 198.724991,480.196762 199.742325,480.196762 200.803238C480.196762 201.864151,480.618271 202.881485,481.368393 203.631607C482.118515 204.381729,483.135849 204.803238,484.196762 204.803238C485.257675 204.803238,486.275009 204.381729,487.025131 203.631607C487.775253 202.881485,488.196762 201.864151,488.196762 200.803238Z" style="fill: rgb(89.999390%,0.000000%,0.000000%);stroke: none;"></path>
  <path d="M488.196762 484.267746C488.196762 483.206833,487.775253 482.189499,487.025131 481.439377C486.275009 480.689255,485.257675 480.267746,484.196762 480.267746C483.135849 480.267746,482.118515 480.689255,481.368393 481.439377C480.618271 482.189499,480.196762 483.206833,480.196762 484.267746C480.196762 485.328659,480.618271 486.345993,481.368393 487.096115C482.118515 487.846237,483.135849 488.267746,484.196762 488.267746C485.257675 488.267746,486.275009 487.846237,487.025131 487.096115C487.775253 486.345993,488.196762 485.328659,488.196762 484.267746Z" style="stroke:rgb(39.999390%,39.999390%,39.999390%); stroke-width: 0.500000;stroke-linecap: round;stroke-linejoin: round;stroke-miterlimit: 10.000000;fill: none;"></path>
  <path d="M488.196762 484.267746C488.196762 483.206833,487.775253 482.189499,487.025131 481.439377C486.275009 480.689255,485.257675 480.267746,484.196762 480.267746C483.135849 480.267746,482.118515 480.689255,481.368393 481.439377C480.618271 482.189499,480.196762 483.206833,480.196762 484.267746C480.196762 485.328659,480.618271 486.345993,481.368393 487.096115C482.118515 487.846237,483.135849 488.267746,484.196762 488.267746C485.257675 488.267746,486.275009 487.846237,487.025131 487.096115C487.775253 486.345993,488.196762 485.328659,488.196762 484.267746Z" style="fill: rgb(89.999390%,0.000000%,0.000000%);stroke: none;"></path>
  <path d="M346.481812 342.535492C346.481812 341.474579,346.060303 340.457245,345.310181 339.707123C344.560059 338.957001,343.542725 338.535492,342.481812 338.535492C341.420898 338.535492,340.403564 338.957001,339.653442 339.707123C338.903320 340.457245,338.481812 341.474579,338.481812 342.535492C338.481812 343.596405,338.903320 344.613739,339.653442 345.363861C340.403564 346.113983,341.420898 346.535492,342.481812 346.535492C343.542725 346.535492,344.560059 346.113983,345.310181 345.363861C346.060303 344.613739,346.481812 343.596405,346.481812 342.535492Z" style="stroke:rgb(39.999390%,39.999390%,39.999390%); stroke-width: 0.500000;stroke-linecap: round;stroke-linejoin: round;stroke-miterlimit: 10.000000;fill: none;"></path>
  <path d="M346.481812 342.535492C346.481812 341.474579,346.060303 340.457245,345.310181 339.707123C344.560059 338.957001,343.542725 338.535492,342.481812 338.535492C341.420898 338.535492,340.403564 338.957001,339.653442 339.707123C338.903320 340.457245,338.481812 341.474579,338.481812 342.535492C338.481812 343.596405,338.903320 344.613739,339.653442 345.363861C340.403564 346.113983,341.420898 346.535492,342.481812 346.535492C343.542725 346.535492,344.560059 346.113983,345.310181 345.363861C346.060303 344.613739,346.481812 343.596405,346.481812 342.535492Z" style="fill: rgb(9.800720%,9.800720%,44.000244%);stroke: none;"></path>
  <path d="M484.196762 200.803238L342.464508 342.518188" style="stroke:rgb(60.000610%,60.000610%,60.000610%); stroke-width: 1.800003;stroke-linecap: round;stroke-dasharray: 3.000000 3.000000 ;stroke-linejoin: round;stroke-miterlimit: 10.000000;fill: none;"></path>
  <path d="M200.732254 200.803238L342.464508 342.518188" style="stroke:rgb(60.000610%,60.000610%,60.000610%); stroke-width: 1.800003;stroke-linecap: round;stroke-dasharray: 3.000000 3.000000 ;stroke-linejoin: round;stroke-miterlimit: 10.000000;fill: none;"></path>
  <path d="M488.196762 200.803238C488.196762 199.742325,487.775253 198.724991,487.025131 197.974869C486.275009 197.224747,485.257675 196.803238,484.196762 196.803238C483.135849 196.803238,482.118515 197.224747,481.368393 197.974869C480.618271 198.724991,480.196762 199.742325,480.196762 200.803238C480.196762 201.864151,480.618271 202.881485,481.368393 203.631607C482.118515 204.381729,483.135849 204.803238,484.196762 204.803238C485.257675 204.803238,486.275009 204.381729,487.025131 203.631607C487.775253 202.881485,488.196762 201.864151,488.196762 200.803238Z" style="stroke:rgb(39.999390%,39.999390%,39.999390%); stroke-width: 0.500000;stroke-linecap: round;stroke-linejoin: round;stroke-miterlimit: 10.000000;fill: none;"></path>
  <path d="M488.196762 200.803238C488.196762 199.742325,487.775253 198.724991,487.025131 197.974869C486.275009 197.224747,485.257675 196.803238,484.196762 196.803238C483.135849 196.803238,482.118515 197.224747,481.368393 197.974869C480.618271 198.724991,480.196762 199.742325,480.196762 200.803238C480.196762 201.864151,480.618271 202.881485,481.368393 203.631607C482.118515 204.381729,483.135849 204.803238,484.196762 204.803238C485.257675 204.803238,486.275009 204.381729,487.025131 203.631607C487.775253 202.881485,488.196762 201.864151,488.196762 200.803238Z" style="fill: rgb(89.999390%,0.000000%,0.000000%);stroke: none;"></path>
  <path d="M204.732254 200.803238C204.732254 199.742325,204.310745 198.724991,203.560623 197.974869C202.810501 197.224747,201.793167 196.803238,200.732254 196.803238C199.671341 196.803238,198.654007 197.224747,197.903885 197.974869C197.153763 198.724991,196.732254 199.742325,196.732254 200.803238C196.732254 201.864151,197.153763 202.881485,197.903885 203.631607C198.654007 204.381729,199.671341 204.803238,200.732254 204.803238C201.793167 204.803238,202.810501 204.381729,203.560623 203.631607C204.310745 202.881485,204.732254 201.864151,204.732254 200.803238Z" style="stroke:rgb(39.999390%,39.999390%,39.999390%); stroke-width: 0.500000;stroke-linecap: round;stroke-linejoin: round;stroke-miterlimit: 10.000000;fill: none;"></path>
  <path d="M204.732254 200.803238C204.732254 199.742325,204.310745 198.724991,203.560623 197.974869C202.810501 197.224747,201.793167 196.803238,200.732254 196.803238C199.671341 196.803238,198.654007 197.224747,197.903885 197.974869C197.153763 198.724991,196.732254 199.742325,196.732254 200.803238C196.732254 201.864151,197.153763 202.881485,197.903885 203.631607C198.654007 204.381729,199.671341 204.803238,200.732254 204.803238C201.793167 204.803238,202.810501 204.381729,203.560623 203.631607C204.310745 202.881485,204.732254 201.864151,204.732254 200.803238Z" style="fill: rgb(89.999390%,0.000000%,0.000000%);stroke: none;"></path>
  <path d="M346.464508 342.518188C346.464508 341.457275,346.042999 340.439941,345.292877 339.689819C344.542755 338.939697,343.525421 338.518188,342.464508 338.518188C341.403595 338.518188,340.386261 338.939697,339.636139 339.689819C338.886017 340.439941,338.464508 341.457275,338.464508 342.518188C338.464508 343.579102,338.886017 344.596436,339.636139 345.346558C340.386261 346.096680,341.403595 346.518188,342.464508 346.518188C343.525421 346.518188,344.542755 346.096680,345.292877 345.346558C346.042999 344.596436,346.464508 343.579102,346.464508 342.518188Z" style="stroke:rgb(39.999390%,39.999390%,39.999390%); stroke-width: 0.500000;stroke-linecap: round;stroke-linejoin: round;stroke-miterlimit: 10.000000;fill: none;"></path>
  <path d="M346.464508 342.518188C346.464508 341.457275,346.042999 340.439941,345.292877 339.689819C344.542755 338.939697,343.525421 338.518188,342.464508 338.518188C341.403595 338.518188,340.386261 338.939697,339.636139 339.689819C338.886017 340.439941,338.464508 341.457275,338.464508 342.518188C338.464508 343.579102,338.886017 344.596436,339.636139 345.346558C340.386261 346.096680,341.403595 346.518188,342.464508 346.518188C343.525421 346.518188,344.542755 346.096680,345.292877 345.346558C346.042999 344.596436,346.464508 343.579102,346.464508 342.518188Z" style="fill: rgb(9.800720%,9.800720%,44.000244%);stroke: none;"></path>
  <path d="M484.196762 200.803238L342.464508 59.088287" style="stroke:rgb(60.000610%,60.000610%,60.000610%); stroke-width: 1.800003;stroke-linecap: round;stroke-dasharray: 3.000000 3.000000 ;stroke-linejoin: round;stroke-miterlimit: 10.000000;fill: none;"></path>
  <path d="M200.732254 200.803238L342.464508 59.088287" style="stroke:rgb(60.000610%,60.000610%,60.000610%); stroke-width: 1.800003;stroke-linecap: round;stroke-dasharray: 3.000000 3.000000 ;stroke-linejoin: round;stroke-miterlimit: 10.000000;fill: none;"></path>
  <path d="M488.196762 200.803238C488.196762 199.742325,487.775253 198.724991,487.025131 197.974869C486.275009 197.224747,485.257675 196.803238,484.196762 196.803238C483.135849 196.803238,482.118515 197.224747,481.368393 197.974869C480.618271 198.724991,480.196762 199.742325,480.196762 200.803238C480.196762 201.864151,480.618271 202.881485,481.368393 203.631607C482.118515 204.381729,483.135849 204.803238,484.196762 204.803238C485.257675 204.803238,486.275009 204.381729,487.025131 203.631607C487.775253 202.881485,488.196762 201.864151,488.196762 200.803238Z" style="stroke:rgb(39.999390%,39.999390%,39.999390%); stroke-width: 0.500000;stroke-linecap: round;stroke-linejoin: round;stroke-miterlimit: 10.000000;fill: none;"></path>
  <path d="M488.196762 200.803238C488.196762 199.742325,487.775253 198.724991,487.025131 197.974869C486.275009 197.224747,485.257675 196.803238,484.196762 196.803238C483.135849 196.803238,482.118515 197.224747,481.368393 197.974869C480.618271 198.724991,480.196762 199.742325,480.196762 200.803238C480.196762 201.864151,480.618271 202.881485,481.368393 203.631607C482.118515 204.381729,483.135849 204.803238,484.196762 204.803238C485.257675 204.803238,486.275009 204.381729,487.025131 203.631607C487.775253 202.881485,488.196762 201.864151,488.196762 200.803238Z" style="fill: rgb(89.999390%,0.000000%,0.000000%);stroke: none;"></path>
  <path d="M204.732254 200.803238C204.732254 199.742325,204.310745 198.724991,203.560623 197.974869C202.810501 197.224747,201.793167 196.803238,200.732254 196.803238C199.671341 196.803238,198.654007 197.224747,197.903885 197.974869C197.153763 198.724991,196.732254 199.742325,196.732254 200.803238C196.732254 201.864151,197.153763 202.881485,197.903885 203.631607C198.654007 204.381729,199.671341 204.803238,200.732254 204.803238C201.793167 204.803238,202.810501 204.381729,203.560623 203.631607C204.310745 202.881485,204.732254 201.864151,204.732254 200.803238Z" style="stroke:rgb(39.999390%,39.999390%,39.999390%); stroke-width: 0.500000;stroke-linecap: round;stroke-linejoin: round;stroke-miterlimit: 10.000000;fill: none;"></path>
  <path d="M204.732254 200.803238C204.732254 199.742325,204.310745 198.724991,203.560623 197.974869C202.810501 197.224747,201.793167 196.803238,200.732254 196.803238C199.671341 196.803238,198.654007 197.224747,197.903885 197.974869C197.153763 198.724991,196.732254 199.742325,196.732254 200.803238C196.732254 201.864151,197.153763 202.881485,197.903885 203.631607C198.654007 204.381729,199.671341 204.803238,200.732254 204.803238C201.793167 204.803238,202.810501 204.381729,203.560623 203.631607C204.310745 202.881485,204.732254 201.864151,204.732254 200.803238Z" style="fill: rgb(89.999390%,0.000000%,0.000000%);stroke: none;"></path>
  <path d="M346.464508 59.088287C346.464508 58.027374,346.042999 57.010040,345.292877 56.259918C344.542755 55.509796,343.525421 55.088287,342.464508 55.088287C341.403595 55.088287,340.386261 55.509796,339.636139 56.259918C338.886017 57.010040,338.464508 58.027374,338.464508 59.088287C338.464508 60.149200,338.886017 61.166534,339.636139 61.916656C340.386261 62.666779,341.403595 63.088287,342.464508 63.088287C343.525421 63.088287,344.542755 62.666779,345.292877 61.916656C346.042999 61.166534,346.464508 60.149200,346.464508 59.088287Z" style="stroke:rgb(39.999390%,39.999390%,39.999390%); stroke-width: 0.500000;stroke-linecap: round;stroke-linejoin: round;stroke-miterlimit: 10.000000;fill: none;"></path>
  <path d="M346.464508 59.088287C346.464508 58.027374,346.042999 57.010040,345.292877 56.259918C344.542755 55.509796,343.525421 55.088287,342.464508 55.088287C341.403595 55.088287,340.386261 55.509796,339.636139 56.259918C338.886017 57.010040,338.464508 58.027374,338.464508 59.088287C338.464508 60.149200,338.886017 61.166534,339.636139 61.916656C340.386261 62.666779,341.403595 63.088287,342.464508 63.088287C343.525421 63.088287,344.542755 62.666779,345.292877 61.916656C346.042999 61.166534,346.464508 60.149200,346.464508 59.088287Z" style="fill: rgb(0.000000%,50.000000%,0.000000%);stroke: none;"></path>
  <path d="M484.196762 484.267746L625.929016 626.000000" style="stroke:rgb(60.000610%,60.000610%,60.000610%); stroke-width: 1.800003;stroke-linecap: round;stroke-dasharray: 3.000000 3.000000 ;stroke-linejoin: round;stroke-miterlimit: 10.000000;fill: none;"></path>
  <path d="M488.196762 484.267746C488.196762 483.206833,487.775253 482.189499,487.025131 481.439377C486.275009 480.689255,485.257675 480.267746,484.196762 480.267746C483.135849 480.267746,482.118515 480.689255,481.368393 481.439377C480.618271 482.189499,480.196762 483.206833,480.196762 484.267746C480.196762 485.328659,480.618271 486.345993,481.368393 487.096115C482.118515 487.846237,483.135849 488.267746,484.196762 488.267746C485.257675 488.267746,486.275009 487.846237,487.025131 487.096115C487.775253 486.345993,488.196762 485.328659,488.196762 484.267746Z" style="stroke:rgb(39.999390%,39.999390%,39.999390%); stroke-width: 0.500000;stroke-linecap: round;stroke-linejoin: round;stroke-miterlimit: 10.000000;fill: none;"></path>
  <path d="M488.196762 484.267746C488.196762 483.206833,487.775253 482.189499,487.025131 481.439377C486.275009 480.689255,485.257675 480.267746,484.196762 480.267746C483.135849 480.267746,482.118515 480.689255,481.368393 481.439377C480.618271 482.189499,480.196762 483.206833,480.196762 484.267746C480.196762 485.328659,480.618271 486.345993,481.368393 487.096115C482.118515 487.846237,483.135849 488.267746,484.196762 488.267746C485.257675 488.267746,486.275009 487.846237,487.025131 487.096115C487.775253 486.345993,488.196762 485.328659,488.196762 484.267746Z" style="fill: rgb(89.999390%,0.000000%,0.000000%);stroke: none;"></path>
  <path d="M629.929016 626.000000C629.929016 624.939087,629.507507 623.921753,628.757385 623.171631C628.007263 622.421509,626.989929 622.000000,625.929016 622.000000C624.868103 622.000000,623.850769 622.421509,623.100647 623.171631C622.350525 623.921753,621.929016 624.939087,621.929016 626.000000C621.929016 627.060913,622.350525 628.078247,623.100647 628.828369C623.850769 629.578491,624.868103 630.000000,625.929016 630.000000C626.989929 630.000000,628.007263 629.578491,628.757385 628.828369C629.507507 628.078247,629.929016 627.060913,629.929016 626.000000Z" style="stroke:rgb(39.999390%,39.999390%,39.999390%); stroke-width: 0.500000;stroke-linecap: round;stroke-linejoin: round;stroke-miterlimit: 10.000000;fill: none;"></path>
  <path d="M629.929016 626.000000C629.929016 624.939087,629.507507 623.921753,628.757385 623.171631C628.007263 622.421509,626.989929 622.000000,625.929016 622.000000C624.868103 622.000000,623.850769 622.421509,623.100647 623.171631C622.350525 623.921753,621.929016 624.939087,621.929016 626.000000C621.929016 627.060913,622.350525 628.078247,623.100647 628.828369C623.850769 629.578491,624.868103 630.000000,625.929016 630.000000C626.989929 630.000000,628.007263 629.578491,628.757385 628.828369C629.507507 628.078247,629.929016 627.060913,629.929016 626.000000Z" style="fill: rgb(100.000000%,100.000000%,0.000000%);stroke: none;"></path>
  <path d="M484.196762 484.267746L342.464508 625.982697" style="stroke:rgb(60.000610%,60.000610%,60.000610%); stroke-width: 1.800003;stroke-linecap: round;stroke-dasharray: 3.000000 3.000000 ;stroke-linejoin: round;stroke-miterlimit: 10.000000;fill: none;"></path>
  <path d="M200.732254 484.267746L342.464508 625.982697" style="stroke:rgb(60.000610%,60.000610%,60.000610%); stroke-width: 1.800003;stroke-linecap: round;stroke-dasharray: 3.000000 3.000000 ;stroke-linejoin: round;stroke-miterlimit: 10.000000;fill: none;"></path>
  <path d="M488.196762 484.267746C488.196762 483.206833,487.775253 482.189499,487.025131 481.439377C486.275009 480.689255,485.257675 480.267746,484.196762 480.267746C483.135849 480.267746,482.118515 480.689255,481.368393 481.439377C480.618271 482.189499,480.196762 483.206833,480.196762 484.267746C480.196762 485.328659,480.618271 486.345993,481.368393 487.096115C482.118515 487.846237,483.135849 488.267746,484.196762 488.267746C485.257675 488.267746,486.275009 487.846237,487.025131 487.096115C487.775253 486.345993,488.196762 485.328659,488.196762 484.267746Z" style="stroke:rgb(39.999390%,39.999390%,39.999390%); stroke-width: 0.500000;stroke-linecap: round;stroke-linejoin: round;stroke-miterlimit: 10.000000;fill: none;"></path>
  <path d="M488.196762 484.267746C488.196762 483.206833,487.775253 482.189499,487.025131 481.439377C486.275009 480.689255,485.257675 480.267746,484.196762 480.267746C483.135849 480.267746,482.118515 480.689255,481.368393 481.439377C480.618271 482.189499,480.196762 483.206833,480.196762 484.267746C480.196762 485.328659,480.618271 486.345993,481.368393 487.096115C482.118515 487.846237,483.135849 488.267746,484.196762 488.267746C485.257675 488.267746,486.275009 487.846237,487.025131 487.096115C487.775253 486.345993,488.196762 485.328659,488.196762 484.267746Z" style="fill: rgb(89.999390%,0.000000%,0.000000%);stroke: none;"></path>
  <path d="M204.732254 484.267746C204.732254 483.206833,204.310745 482.189499,203.560623 481.439377C202.810501 480.689255,201.793167 480.267746,200.732254 480.267746C199.671341 480.267746,198.654007 480.689255,197.903885 481.439377C197.153763 482.189499,196.732254 483.206833,196.732254 484.267746C196.732254 485.328659,197.153763 486.345993,197.903885 487.096115C198.654007 487.846237,199.671341 488.267746,200.732254 488.267746C201.793167 488.267746,202.810501 487.846237,203.560623 487.096115C204.310745 486.345993,204.732254 485.328659,204.732254 484.267746Z" style="stroke:rgb(39.999390%,39.999390%,39.999390%); stroke-width: 0.500000;stroke-linecap: round;stroke-linejoin: round;stroke-miterlimit: 10.000000;fill: none;"></path>
  <path d="M204.732254 484.267746C204.732254 483.206833,204.310745 482.189499,203.560623 481.439377C202.810501 480.689255,201.793167 480.267746,200.732254 480.267746C199.671341 480.267746,198.654007 480.689255,197.903885 481.439377C197.153763 482.189499,196.732254 483.206833,196.732254 484.267746C196.732254 485.328659,197.153763 486.345993,197.903885 487.096115C198.654007 487.846237,199.671341 488.267746,200.732254 488.267746C201.793167 488.267746,202.810501 487.846237,203.560623 487.096115C204.310745 486.345993,204.732254 485.328659,204.732254 484.267746Z" style="fill: rgb(89.999390%,0.000000%,0.000000%);stroke: none;"></path>
  <path d="M346.464508 625.982697C346.464508 624.921783,346.042999 623.904449,345.292877 623.154327C344.542755 622.404205,343.525421 621.982697,342.464508 621.982697C341.403595 621.982697,340.386261 622.404205,339.636139 623.154327C338.886017 623.904449,338.464508 624.921783,338.464508 625.982697C338.464508 627.043610,338.886017 628.060944,339.636139 628.811066C340.386261 629.561188,341.403595 629.982697,342.464508 629.982697C343.525421 629.982697,344.542755 629.561188,345.292877 628.811066C346.042999 628.060944,346.464508 627.043610,346.464508 625.982697Z" style="stroke:rgb(39.999390%,39.999390%,39.999390%); stroke-width: 0.500000;stroke-linecap: round;stroke-linejoin: round;stroke-miterlimit: 10.000000;fill: none;"></path>
  <path d="M346.464508 625.982697C346.464508 624.921783,346.042999 623.904449,345.292877 623.154327C344.542755 622.404205,343.525421 621.982697,342.464508 621.982697C341.403595 621.982697,340.386261 622.404205,339.636139 623.154327C338.886017 623.904449,338.464508 624.921783,338.464508 625.982697C338.464508 627.043610,338.886017 628.060944,339.636139 628.811066C340.386261 629.561188,341.403595 629.982697,342.464508 629.982697C343.525421 629.982697,344.542755 629.561188,345.292877 628.811066C346.042999 628.060944,346.464508 627.043610,346.464508 625.982697Z" style="fill: rgb(0.000000%,50.000000%,0.000000%);stroke: none;"></path>
  <path d="M484.196762 484.267746L342.464508 342.552795" style="stroke:rgb(60.000610%,60.000610%,60.000610%); stroke-width: 1.800003;stroke-linecap: round;stroke-dasharray: 3.000000 3.000000 ;stroke-linejoin: round;stroke-miterlimit: 10.000000;fill: none;"></path>
  <path d="M200.732254 484.267746L342.464508 342.552795" style="stroke:rgb(60.000610%,60.000610%,60.000610%); stroke-width: 1.800003;stroke-linecap: round;stroke-dasharray: 3.000000 3.000000 ;stroke-linejoin: round;stroke-miterlimit: 10.000000;fill: none;"></path>
  <path d="M488.196762 484.267746C488.196762 483.206833,487.775253 482.189499,487.025131 481.439377C486.275009 480.689255,485.257675 480.267746,484.196762 480.267746C483.135849 480.267746,482.118515 480.689255,481.368393 481.439377C480.618271 482.189499,480.196762 483.206833,480.196762 484.267746C480.196762 485.328659,480.618271 486.345993,481.368393 487.096115C482.118515 487.846237,483.135849 488.267746,484.196762 488.267746C485.257675 488.267746,486.275009 487.846237,487.025131 487.096115C487.775253 486.345993,488.196762 485.328659,488.196762 484.267746Z" style="stroke:rgb(39.999390%,39.999390%,39.999390%); stroke-width: 0.500000;stroke-linecap: round;stroke-linejoin: round;stroke-miterlimit: 10.000000;fill: none;"></path>
  <path d="M488.196762 484.267746C488.196762 483.206833,487.775253 482.189499,487.025131 481.439377C486.275009 480.689255,485.257675 480.267746,484.196762 480.267746C483.135849 480.267746,482.118515 480.689255,481.368393 481.439377C480.618271 482.189499,480.196762 483.206833,480.196762 484.267746C480.196762 485.328659,480.618271 486.345993,481.368393 487.096115C482.118515 487.846237,483.135849 488.267746,484.196762 488.267746C485.257675 488.267746,486.275009 487.846237,487.025131 487.096115C487.775253 486.345993,488.196762 485.328659,488.196762 484.267746Z" style="fill: rgb(89.999390%,0.000000%,0.000000%);stroke: none;"></path>
  <path d="M204.732254 484.267746C204.732254 483.206833,204.310745 482.189499,203.560623 481.439377C202.810501 480.689255,201.793167 480.267746,200.732254 480.267746C199.671341 480.267746,198.654007 480.689255,197.903885 481.439377C197.153763 482.189499,196.732254 483.206833,196.732254 484.267746C196.732254 485.328659,197.153763 486.345993,197.903885 487.096115C198.654007 487.846237,199.671341 488.267746,200.732254 488.267746C201.793167 488.267746,202.810501 487.846237,203.560623 487.096115C204.310745 486.345993,204.732254 485.328659,204.732254 484.267746Z" style="stroke:rgb(39.999390%,39.999390%,39.999390%); stroke-width: 0.500000;stroke-linecap: round;stroke-linejoin: round;stroke-miterlimit: 10.000000;fill: none;"></path>
  <path d="M204.732254 484.267746C204.732254 483.206833,204.310745 482.189499,203.560623 481.439377C202.810501 480.689255,201.793167 480.267746,200.732254 480.267746C199.671341 480.267746,198.654007 480.689255,197.903885 481.439377C197.153763 482.189499,196.732254 483.206833,196.732254 484.267746C196.732254 485.328659,197.153763 486.345993,197.903885 487.096115C198.654007 487.846237,199.671341 488.267746,200.732254 488.267746C201.793167 488.267746,202.810501 487.846237,203.560623 487.096115C204.310745 486.345993,204.732254 485.328659,204.732254 484.267746Z" style="fill: rgb(89.999390%,0.000000%,0.000000%);stroke: none;"></path>
  <path d="M346.464508 342.552795C346.464508 341.491882,346.042999 340.474548,345.292877 339.724426C344.542755 338.974304,343.525421 338.552795,342.464508 338.552795C341.403595 338.552795,340.386261 338.974304,339.636139 339.724426C338.886017 340.474548,338.464508 341.491882,338.464508 342.552795C338.464508 343.613708,338.886017 344.631042,339.636139 345.381165C340.386261 346.131287,341.403595 346.552795,342.464508 346.552795C343.525421 346.552795,344.542755 346.131287,345.292877 345.381165C346.042999 344.631042,346.464508 343.613708,346.464508 342.552795Z" style="stroke:rgb(39.999390%,39.999390%,39.999390%); stroke-width: 0.500000;stroke-linecap: round;stroke-linejoin: round;stroke-miterlimit: 10.000000;fill: none;"></path>
  <path d="M346.464508 342.552795C346.464508 341.491882,346.042999 340.474548,345.292877 339.724426C344.542755 338.974304,343.525421 338.552795,342.464508 338.552795C341.403595 338.552795,340.386261 338.974304,339.636139 339.724426C338.886017 340.474548,338.464508 341.491882,338.464508 342.552795C338.464508 343.613708,338.886017 344.631042,339.636139 345.381165C340.386261 346.131287,341.403595 346.552795,342.464508 346.552795C343.525421 346.552795,344.542755 346.131287,345.292877 345.381165C346.042999 344.631042,346.464508 343.613708,346.464508 342.552795Z" style="fill: rgb(9.800720%,9.800720%,44.000244%);stroke: none;"></path>
  <path d="M200.732254 200.803238L59.000000 59.070984" style="stroke:rgb(60.000610%,60.000610%,60.000610%); stroke-width: 1.800003;stroke-linecap: round;stroke-dasharray: 3.000000 3.000000 ;stroke-linejoin: round;stroke-miterlimit: 10.000000;fill: none;"></path>
  <path d="M204.732254 200.803238C204.732254 199.742325,204.310745 198.724991,203.560623 197.974869C202.810501 197.224747,201.793167 196.803238,200.732254 196.803238C199.671341 196.803238,198.654007 197.224747,197.903885 197.974869C197.153763 198.724991,196.732254 199.742325,196.732254 200.803238C196.732254 201.864151,197.153763 202.881485,197.903885 203.631607C198.654007 204.381729,199.671341 204.803238,200.732254 204.803238C201.793167 204.803238,202.810501 204.381729,203.560623 203.631607C204.310745 202.881485,204.732254 201.864151,204.732254 200.803238Z" style="stroke:rgb(39.999390%,39.999390%,39.999390%); stroke-width: 0.500000;stroke-linecap: round;stroke-linejoin: round;stroke-miterlimit: 10.000000;fill: none;"></path>
  <path d="M204.732254 200.803238C204.732254 199.742325,204.310745 198.724991,203.560623 197.974869C202.810501 197.224747,201.793167 196.803238,200.732254 196.803238C199.671341 196.803238,198.654007 197.224747,197.903885 197.974869C197.153763 198.724991,196.732254 199.742325,196.732254 200.803238C196.732254 201.864151,197.153763 202.881485,197.903885 203.631607C198.654007 204.381729,199.671341 204.803238,200.732254 204.803238C201.793167 204.803238,202.810501 204.381729,203.560623 203.631607C204.310745 202.881485,204.732254 201.864151,204.732254 200.803238Z" style="fill: rgb(89.999390%,0.000000%,0.000000%);stroke: none;"></path>
  <path d="M63.000000 59.070984C63.000000 58.010071,62.578491 56.992737,61.828369 56.242615C61.078247 55.492493,60.060913 55.070984,59.000000 55.070984C57.939087 55.070984,56.921753 55.492493,56.171631 56.242615C55.421509 56.992737,55.000000 58.010071,55.000000 59.070984C55.000000 60.131897,55.421509 61.149231,56.171631 61.899353C56.921753 62.649475,57.939087 63.070984,59.000000 63.070984C60.060913 63.070984,61.078247 62.649475,61.828369 61.899353C62.578491 61.149231,63.000000 60.131897,63.000000 59.070984Z" style="stroke:rgb(39.999390%,39.999390%,39.999390%); stroke-width: 0.500000;stroke-linecap: round;stroke-linejoin: round;stroke-miterlimit: 10.000000;fill: none;"></path>
  <path d="M63.000000 59.070984C63.000000 58.010071,62.578491 56.992737,61.828369 56.242615C61.078247 55.492493,60.060913 55.070984,59.000000 55.070984C57.939087 55.070984,56.921753 55.492493,56.171631 56.242615C55.421509 56.992737,55.000000 58.010071,55.000000 59.070984C55.000000 60.131897,55.421509 61.149231,56.171631 61.899353C56.921753 62.649475,57.939087 63.070984,59.000000 63.070984C60.060913 63.070984,61.078247 62.649475,61.828369 61.899353C62.578491 61.149231,63.000000 60.131897,63.000000 59.070984Z" style="fill: rgb(100.000000%,100.000000%,0.000000%);stroke: none;"></path>
  <path d="M200.732254 200.803238L342.447205 342.535492" style="stroke:rgb(60.000610%,60.000610%,60.000610%); stroke-width: 1.800003;stroke-linecap: round;stroke-dasharray: 3.000000 3.000000 ;stroke-linejoin: round;stroke-miterlimit: 10.000000;fill: none;"></path>
  <path d="M200.732254 484.267746L342.447205 342.535492" style="stroke:rgb(60.000610%,60.000610%,60.000610%); stroke-width: 1.800003;stroke-linecap: round;stroke-dasharray: 3.000000 3.000000 ;stroke-linejoin: round;stroke-miterlimit: 10.000000;fill: none;"></path>
  <path d="M204.732254 200.803238C204.732254 199.742325,204.310745 198.724991,203.560623 197.974869C202.810501 197.224747,201.793167 196.803238,200.732254 196.803238C199.671341 196.803238,198.654007 197.224747,197.903885 197.974869C197.153763 198.724991,196.732254 199.742325,196.732254 200.803238C196.732254 201.864151,197.153763 202.881485,197.903885 203.631607C198.654007 204.381729,199.671341 204.803238,200.732254 204.803238C201.793167 204.803238,202.810501 204.381729,203.560623 203.631607C204.310745 202.881485,204.732254 201.864151,204.732254 200.803238Z" style="stroke:rgb(39.999390%,39.999390%,39.999390%); stroke-width: 0.500000;stroke-linecap: round;stroke-linejoin: round;stroke-miterlimit: 10.000000;fill: none;"></path>
  <path d="M204.732254 200.803238C204.732254 199.742325,204.310745 198.724991,203.560623 197.974869C202.810501 197.224747,201.793167 196.803238,200.732254 196.803238C199.671341 196.803238,198.654007 197.224747,197.903885 197.974869C197.153763 198.724991,196.732254 199.742325,196.732254 200.803238C196.732254 201.864151,197.153763 202.881485,197.903885 203.631607C198.654007 204.381729,199.671341 204.803238,200.732254 204.803238C201.793167 204.803238,202.810501 204.381729,203.560623 203.631607C204.310745 202.881485,204.732254 201.864151,204.732254 200.803238Z" style="fill: rgb(89.999390%,0.000000%,0.000000%);stroke: none;"></path>
  <path d="M204.732254 484.267746C204.732254 483.206833,204.310745 482.189499,203.560623 481.439377C202.810501 480.689255,201.793167 480.267746,200.732254 480.267746C199.671341 480.267746,198.654007 480.689255,197.903885 481.439377C197.153763 482.189499,196.732254 483.206833,196.732254 484.267746C196.732254 485.328659,197.153763 486.345993,197.903885 487.096115C198.654007 487.846237,199.671341 488.267746,200.732254 488.267746C201.793167 488.267746,202.810501 487.846237,203.560623 487.096115C204.310745 486.345993,204.732254 485.328659,204.732254 484.267746Z" style="stroke:rgb(39.999390%,39.999390%,39.999390%); stroke-width: 0.500000;stroke-linecap: round;stroke-linejoin: round;stroke-miterlimit: 10.000000;fill: none;"></path>
  <path d="M204.732254 484.267746C204.732254 483.206833,204.310745 482.189499,203.560623 481.439377C202.810501 480.689255,201.793167 480.267746,200.732254 480.267746C199.671341 480.267746,198.654007 480.689255,197.903885 481.439377C197.153763 482.189499,196.732254 483.206833,196.732254 484.267746C196.732254 485.328659,197.153763 486.345993,197.903885 487.096115C198.654007 487.846237,199.671341 488.267746,200.732254 488.267746C201.793167 488.267746,202.810501 487.846237,203.560623 487.096115C204.310745 486.345993,204.732254 485.328659,204.732254 484.267746Z" style="fill: rgb(89.999390%,0.000000%,0.000000%);stroke: none;"></path>
  <path d="M346.447205 342.535492C346.447205 341.474579,346.025696 340.457245,345.275574 339.707123C344.525452 338.957001,343.508118 338.535492,342.447205 338.535492C341.386292 338.535492,340.368958 338.957001,339.618835 339.707123C338.868713 340.457245,338.447205 341.474579,338.447205 342.535492C338.447205 343.596405,338.868713 344.613739,339.618835 345.363861C340.368958 346.113983,341.386292 346.535492,342.447205 346.535492C343.508118 346.535492,344.525452 346.113983,345.275574 345.363861C346.025696 344.613739,346.447205 343.596405,346.447205 342.535492Z" style="stroke:rgb(39.999390%,39.999390%,39.999390%); stroke-width: 0.500000;stroke-linecap: round;stroke-linejoin: round;stroke-miterlimit: 10.000000;fill: none;"></path>
  <path d="M346.447205 342.535492C346.447205 341.474579,346.025696 340.457245,345.275574 339.707123C344.525452 338.957001,343.508118 338.535492,342.447205 338.535492C341.386292 338.535492,340.368958 338.957001,339.618835 339.707123C338.868713 340.457245,338.447205 341.474579,338.447205 342.535492C338.447205 343.596405,338.868713 344.613739,339.618835 345.363861C340.368958 346.113983,341.386292 346.535492,342.447205 346.535492C343.508118 346.535492,344.525452 346.113983,345.275574 345.363861C346.025696 344.613739,346.447205 343.596405,346.447205 342.535492Z" style="fill: rgb(9.800720%,9.800720%,44.000244%);stroke: none;"></path>
  <path d="M200.732254 200.803238L59.017303 342.535492" style="stroke:rgb(60.000610%,60.000610%,60.000610%); stroke-width: 1.800003;stroke-linecap: round;stroke-dasharray: 3.000000 3.000000 ;stroke-linejoin: round;stroke-miterlimit: 10.000000;fill: none;"></path>
  <path d="M200.732254 484.267746L59.017303 342.535492" style="stroke:rgb(60.000610%,60.000610%,60.000610%); stroke-width: 1.800003;stroke-linecap: round;stroke-dasharray: 3.000000 3.000000 ;stroke-linejoin: round;stroke-miterlimit: 10.000000;fill: none;"></path>
  <path d="M204.732254 200.803238C204.732254 199.742325,204.310745 198.724991,203.560623 197.974869C202.810501 197.224747,201.793167 196.803238,200.732254 196.803238C199.671341 196.803238,198.654007 197.224747,197.903885 197.974869C197.153763 198.724991,196.732254 199.742325,196.732254 200.803238C196.732254 201.864151,197.153763 202.881485,197.903885 203.631607C198.654007 204.381729,199.671341 204.803238,200.732254 204.803238C201.793167 204.803238,202.810501 204.381729,203.560623 203.631607C204.310745 202.881485,204.732254 201.864151,204.732254 200.803238Z" style="stroke:rgb(39.999390%,39.999390%,39.999390%); stroke-width: 0.500000;stroke-linecap: round;stroke-linejoin: round;stroke-miterlimit: 10.000000;fill: none;"></path>
  <path d="M204.732254 200.803238C204.732254 199.742325,204.310745 198.724991,203.560623 197.974869C202.810501 197.224747,201.793167 196.803238,200.732254 196.803238C199.671341 196.803238,198.654007 197.224747,197.903885 197.974869C197.153763 198.724991,196.732254 199.742325,196.732254 200.803238C196.732254 201.864151,197.153763 202.881485,197.903885 203.631607C198.654007 204.381729,199.671341 204.803238,200.732254 204.803238C201.793167 204.803238,202.810501 204.381729,203.560623 203.631607C204.310745 202.881485,204.732254 201.864151,204.732254 200.803238Z" style="fill: rgb(89.999390%,0.000000%,0.000000%);stroke: none;"></path>
  <path d="M204.732254 484.267746C204.732254 483.206833,204.310745 482.189499,203.560623 481.439377C202.810501 480.689255,201.793167 480.267746,200.732254 480.267746C199.671341 480.267746,198.654007 480.689255,197.903885 481.439377C197.153763 482.189499,196.732254 483.206833,196.732254 484.267746C196.732254 485.328659,197.153763 486.345993,197.903885 487.096115C198.654007 487.846237,199.671341 488.267746,200.732254 488.267746C201.793167 488.267746,202.810501 487.846237,203.560623 487.096115C204.310745 486.345993,204.732254 485.328659,204.732254 484.267746Z" style="stroke:rgb(39.999390%,39.999390%,39.999390%); stroke-width: 0.500000;stroke-linecap: round;stroke-linejoin: round;stroke-miterlimit: 10.000000;fill: none;"></path>
  <path d="M204.732254 484.267746C204.732254 483.206833,204.310745 482.189499,203.560623 481.439377C202.810501 480.689255,201.793167 480.267746,200.732254 480.267746C199.671341 480.267746,198.654007 480.689255,197.903885 481.439377C197.153763 482.189499,196.732254 483.206833,196.732254 484.267746C196.732254 485.328659,197.153763 486.345993,197.903885 487.096115C198.654007 487.846237,199.671341 488.267746,200.732254 488.267746C201.793167 488.267746,202.810501 487.846237,203.560623 487.096115C204.310745 486.345993,204.732254 485.328659,204.732254 484.267746Z" style="fill: rgb(89.999390%,0.000000%,0.000000%);stroke: none;"></path>
  <path d="M63.017303 342.535492C63.017303 341.474579,62.595795 340.457245,61.845673 339.707123C61.095551 338.957001,60.078217 338.535492,59.017303 338.535492C57.956390 338.535492,56.939056 338.957001,56.188934 339.707123C55.438812 340.457245,55.017303 341.474579,55.017303 342.535492C55.017303 343.596405,55.438812 344.613739,56.188934 345.363861C56.939056 346.113983,57.956390 346.535492,59.017303 346.535492C60.078217 346.535492,61.095551 346.113983,61.845673 345.363861C62.595795 344.613739,63.017303 343.596405,63.017303 342.535492Z" style="stroke:rgb(39.999390%,39.999390%,39.999390%); stroke-width: 0.500000;stroke-linecap: round;stroke-linejoin: round;stroke-miterlimit: 10.000000;fill: none;"></path>
  <path d="M63.017303 342.535492C63.017303 341.474579,62.595795 340.457245,61.845673 339.707123C61.095551 338.957001,60.078217 338.535492,59.017303 338.535492C57.956390 338.535492,56.939056 338.957001,56.188934 339.707123C55.438812 340.457245,55.017303 341.474579,55.017303 342.535492C55.017303 343.596405,55.438812 344.613739,56.188934 345.363861C56.939056 346.113983,57.956390 346.535492,59.017303 346.535492C60.078217 346.535492,61.095551 346.113983,61.845673 345.363861C62.595795 344.613739,63.017303 343.596405,63.017303 342.535492Z" style="fill: rgb(0.000000%,50.000000%,0.000000%);stroke: none;"></path>
  <path d="M200.732254 484.267746L59.000000 626.000000" style="stroke:rgb(60.000610%,60.000610%,60.000610%); stroke-width: 1.800003;stroke-linecap: round;stroke-dasharray: 3.000000 3.000000 ;stroke-linejoin: round;stroke-miterlimit: 10.000000;fill: none;"></path>
  <path d="M204.732254 484.267746C204.732254 483.206833,204.310745 482.189499,203.560623 481.439377C202.810501 480.689255,201.793167 480.267746,200.732254 480.267746C199.671341 480.267746,198.654007 480.689255,197.903885 481.439377C197.153763 482.189499,196.732254 483.206833,196.732254 484.267746C196.732254 485.328659,197.153763 486.345993,197.903885 487.096115C198.654007 487.846237,199.671341 488.267746,200.732254 488.267746C201.793167 488.267746,202.810501 487.846237,203.560623 487.096115C204.310745 486.345993,204.732254 485.328659,204.732254 484.267746Z" style="stroke:rgb(39.999390%,39.999390%,39.999390%); stroke-width: 0.500000;stroke-linecap: round;stroke-linejoin: round;stroke-miterlimit: 10.000000;fill: none;"></path>
  <path d="M204.732254 484.267746C204.732254 483.206833,204.310745 482.189499,203.560623 481.439377C202.810501 480.689255,201.793167 480.267746,200.732254 480.267746C199.671341 480.267746,198.654007 480.689255,197.903885 481.439377C197.153763 482.189499,196.732254 483.206833,196.732254 484.267746C196.732254 485.328659,197.153763 486.345993,197.903885 487.096115C198.654007 487.846237,199.671341 488.267746,200.732254 488.267746C201.793167 488.267746,202.810501 487.846237,203.560623 487.096115C204.310745 486.345993,204.732254 485.328659,204.732254 484.267746Z" style="fill: rgb(89.999390%,0.000000%,0.000000%);stroke: none;"></path>
  <path d="M63.000000 626.000000C63.000000 624.939087,62.578491 623.921753,61.828369 623.171631C61.078247 622.421509,60.060913 622.000000,59.000000 622.000000C57.939087 622.000000,56.921753 622.421509,56.171631 623.171631C55.421509 623.921753,55.000000 624.939087,55.000000 626.000000C55.000000 627.060913,55.421509 628.078247,56.171631 628.828369C56.921753 629.578491,57.939087 630.000000,59.000000 630.000000C60.060913 630.000000,61.078247 629.578491,61.828369 628.828369C62.578491 628.078247,63.000000 627.060913,63.000000 626.000000Z" style="stroke:rgb(39.999390%,39.999390%,39.999390%); stroke-width: 0.500000;stroke-linecap: round;stroke-linejoin: round;stroke-miterlimit: 10.000000;fill: none;"></path>
  <path d="M63.000000 626.000000C63.000000 624.939087,62.578491 623.921753,61.828369 623.171631C61.078247 622.421509,60.060913 622.000000,59.000000 622.000000C57.939087 622.000000,56.921753 622.421509,56.171631 623.171631C55.421509 623.921753,55.000000 624.939087,55.000000 626.000000C55.000000 627.060913,55.421509 628.078247,56.171631 628.828369C56.921753 629.578491,57.939087 630.000000,59.000000 630.000000C60.060913 630.000000,61.078247 629.578491,61.828369 628.828369C62.578491 628.078247,63.000000 627.060913,63.000000 626.000000Z" style="fill: rgb(100.000000%,100.000000%,0.000000%);stroke: none;"></path>
</svg>
