<?xml version="1.0"?>
<!-- Created by MetaPost 2.00 on 2022.03.31:1000 -->
<svg version="1.1" xmlns="http://www.w3.org/2000/svg" xmlns:xlink="http://www.w3.org/1999/xlink" width="655.560089" height="659.344696" viewBox="0 0 655.560089 659.344696">
<!-- Original BoundingBox: -44.315536 -164.118393 611.244553 495.226303 -->
  <path d="M44.000000 495.000000L610.929016 495.000000L327.464508 4.023697L44.000000 495.000000Z" style="fill: rgb(100.000000%,100.000000%,100.000000%);stroke: none;"></path>
  <path d="M44.000000 495.000000L610.929016 495.000000" style="stroke:rgb(0.000000%,0.000000%,0.000000%); stroke-width: 1.000000;stroke-linecap: round;stroke-linejoin: round;stroke-miterlimit: 10.000000;fill: none;"></path>
  <path d="M610.929016 495.000000L327.464508 4.023697" style="stroke:rgb(0.000000%,0.000000%,0.000000%); stroke-width: 1.000000;stroke-linecap: round;stroke-linejoin: round;stroke-miterlimit: 10.000000;fill: none;"></path>
  <path d="M327.464508 4.023697L44.000000 495.000000" style="stroke:rgb(0.000000%,0.000000%,0.000000%); stroke-width: 1.000000;stroke-linecap: round;stroke-linejoin: round;stroke-miterlimit: 10.000000;fill: none;"></path>
  <path d="M654.744553 331.338348C654.744553 244.534424,620.256699 161.296143,558.881699 99.921158C497.506714 38.546158,414.268433 4.058304,327.464508 4.058304C240.660583 4.058304,157.422302 38.546158,96.047318 99.921158C34.672318 161.296143,0.184464 244.534424,0.184464 331.338348C0.184464 418.142273,34.672318 501.380554,96.047318 562.755539C157.422302 624.130539,240.660583 658.618393,327.464508 658.618393C414.268433 658.618393,497.506714 624.130539,558.881699 562.755539C620.256699 501.380554,654.744553 418.142273,654.744553 331.338348Z" style="stroke:rgb(25.500488%,41.000366%,88.400269%); stroke-width: 1.000000;stroke-linecap: round;stroke-linejoin: round;stroke-miterlimit: 10.000000;fill: none;"></path>
  <path d="M327.464508 331.338348L44.000000 495.000000" style="stroke:rgb(60.000610%,60.000610%,60.000610%); stroke-width: 1.800003;stroke-linecap: round;stroke-dasharray: 3.000000 3.000000 ;stroke-linejoin: round;stroke-miterlimit: 10.000000;fill: none;"></path>
  <path d="M331.464508 331.338348C331.464508 330.277435,331.042999 329.260101,330.292877 328.509979C329.542755 327.759857,328.525421 327.338348,327.464508 327.338348C326.403595 327.338348,325.386261 327.759857,324.636139 328.509979C323.886017 329.260101,323.464508 330.277435,323.464508 331.338348C323.464508 332.399261,323.886017 333.416595,324.636139 334.166718C325.386261 334.916840,326.403595 335.338348,327.464508 335.338348C328.525421 335.338348,329.542755 334.916840,330.292877 334.166718C331.042999 333.416595,331.464508 332.399261,331.464508 331.338348Z" style="stroke:rgb(39.999390%,39.999390%,39.999390%); stroke-width: 0.500000;stroke-linecap: round;stroke-linejoin: round;stroke-miterlimit: 10.000000;fill: none;"></path>
  <path d="M331.464508 331.338348C331.464508 330.277435,331.042999 329.260101,330.292877 328.509979C329.542755 327.759857,328.525421 327.338348,327.464508 327.338348C326.403595 327.338348,325.386261 327.759857,324.636139 328.509979C323.886017 329.260101,323.464508 330.277435,323.464508 331.338348C323.464508 332.399261,323.886017 333.416595,324.636139 334.166718C325.386261 334.916840,326.403595 335.338348,327.464508 335.338348C328.525421 335.338348,329.542755 334.916840,330.292877 334.166718C331.042999 333.416595,331.464508 332.399261,331.464508 331.338348Z" style="fill: rgb(89.999390%,0.000000%,0.000000%);stroke: none;"></path>
  <path d="M48.000000 495.000000C48.000000 493.939087,47.578491 492.921753,46.828369 492.171631C46.078247 491.421509,45.060913 491.000000,44.000000 491.000000C42.939087 491.000000,41.921753 491.421509,41.171631 492.171631C40.421509 492.921753,40.000000 493.939087,40.000000 495.000000C40.000000 496.060913,40.421509 497.078247,41.171631 497.828369C41.921753 498.578491,42.939087 499.000000,44.000000 499.000000C45.060913 499.000000,46.078247 498.578491,46.828369 497.828369C47.578491 497.078247,48.000000 496.060913,48.000000 495.000000Z" style="stroke:rgb(39.999390%,39.999390%,39.999390%); stroke-width: 0.500000;stroke-linecap: round;stroke-linejoin: round;stroke-miterlimit: 10.000000;fill: none;"></path>
  <path d="M48.000000 495.000000C48.000000 493.939087,47.578491 492.921753,46.828369 492.171631C46.078247 491.421509,45.060913 491.000000,44.000000 491.000000C42.939087 491.000000,41.921753 491.421509,41.171631 492.171631C40.421509 492.921753,40.000000 493.939087,40.000000 495.000000C40.000000 496.060913,40.421509 497.078247,41.171631 497.828369C41.921753 498.578491,42.939087 499.000000,44.000000 499.000000C45.060913 499.000000,46.078247 498.578491,46.828369 497.828369C47.578491 497.078247,48.000000 496.060913,48.000000 495.000000Z" style="fill: rgb(100.000000%,100.000000%,0.000000%);stroke: none;"></path>
  <path d="M327.464508 331.338348L610.929016 495.000000" style="stroke:rgb(60.000610%,60.000610%,60.000610%); stroke-width: 1.800003;stroke-linecap: round;stroke-dasharray: 3.000000 3.000000 ;stroke-linejoin: round;stroke-miterlimit: 10.000000;fill: none;"></path>
  <path d="M331.464508 331.338348C331.464508 330.277435,331.042999 329.260101,330.292877 328.509979C329.542755 327.759857,328.525421 327.338348,327.464508 327.338348C326.403595 327.338348,325.386261 327.759857,324.636139 328.509979C323.886017 329.260101,323.464508 330.277435,323.464508 331.338348C323.464508 332.399261,323.886017 333.416595,324.636139 334.166718C325.386261 334.916840,326.403595 335.338348,327.464508 335.338348C328.525421 335.338348,329.542755 334.916840,330.292877 334.166718C331.042999 333.416595,331.464508 332.399261,331.464508 331.338348Z" style="stroke:rgb(39.999390%,39.999390%,39.999390%); stroke-width: 0.500000;stroke-linecap: round;stroke-linejoin: round;stroke-miterlimit: 10.000000;fill: none;"></path>
  <path d="M331.464508 331.338348C331.464508 330.277435,331.042999 329.260101,330.292877 328.509979C329.542755 327.759857,328.525421 327.338348,327.464508 327.338348C326.403595 327.338348,325.386261 327.759857,324.636139 328.509979C323.886017 329.260101,323.464508 330.277435,323.464508 331.338348C323.464508 332.399261,323.886017 333.416595,324.636139 334.166718C325.386261 334.916840,326.403595 335.338348,327.464508 335.338348C328.525421 335.338348,329.542755 334.916840,330.292877 334.166718C331.042999 333.416595,331.464508 332.399261,331.464508 331.338348Z" style="fill: rgb(89.999390%,0.000000%,0.000000%);stroke: none;"></path>
  <path d="M614.929016 495.000000C614.929016 493.939087,614.507507 492.921753,613.757385 492.171631C613.007263 491.421509,611.989929 491.000000,610.929016 491.000000C609.868103 491.000000,608.850769 491.421509,608.100647 492.171631C607.350525 492.921753,606.929016 493.939087,606.929016 495.000000C606.929016 496.060913,607.350525 497.078247,608.100647 497.828369C608.850769 498.578491,609.868103 499.000000,610.929016 499.000000C611.989929 499.000000,613.007263 498.578491,613.757385 497.828369C614.507507 497.078247,614.929016 496.060913,614.929016 495.000000Z" style="stroke:rgb(39.999390%,39.999390%,39.999390%); stroke-width: 0.500000;stroke-linecap: round;stroke-linejoin: round;stroke-miterlimit: 10.000000;fill: none;"></path>
  <path d="M614.929016 495.000000C614.929016 493.939087,614.507507 492.921753,613.757385 492.171631C613.007263 491.421509,611.989929 491.000000,610.929016 491.000000C609.868103 491.000000,608.850769 491.421509,608.100647 492.171631C607.350525 492.921753,606.929016 493.939087,606.929016 495.000000C606.929016 496.060913,607.350525 497.078247,608.100647 497.828369C608.850769 498.578491,609.868103 499.000000,610.929016 499.000000C611.989929 499.000000,613.007263 498.578491,613.757385 497.828369C614.507507 497.078247,614.929016 496.060913,614.929016 495.000000Z" style="fill: rgb(100.000000%,100.000000%,0.000000%);stroke: none;"></path>
  <path d="M327.464508 331.338348L327.464508 4.023697" style="stroke:rgb(60.000610%,60.000610%,60.000610%); stroke-width: 1.800003;stroke-linecap: round;stroke-dasharray: 3.000000 3.000000 ;stroke-linejoin: round;stroke-miterlimit: 10.000000;fill: none;"></path>
  <path d="M331.464508 331.338348C331.464508 330.277435,331.042999 329.260101,330.292877 328.509979C329.542755 327.759857,328.525421 327.338348,327.464508 327.338348C326.403595 327.338348,325.386261 327.759857,324.636139 328.509979C323.886017 329.260101,323.464508 330.277435,323.464508 331.338348C323.464508 332.399261,323.886017 333.416595,324.636139 334.166718C325.386261 334.916840,326.403595 335.338348,327.464508 335.338348C328.525421 335.338348,329.542755 334.916840,330.292877 334.166718C331.042999 333.416595,331.464508 332.399261,331.464508 331.338348Z" style="stroke:rgb(39.999390%,39.999390%,39.999390%); stroke-width: 0.500000;stroke-linecap: round;stroke-linejoin: round;stroke-miterlimit: 10.000000;fill: none;"></path>
  <path d="M331.464508 331.338348C331.464508 330.277435,331.042999 329.260101,330.292877 328.509979C329.542755 327.759857,328.525421 327.338348,327.464508 327.338348C326.403595 327.338348,325.386261 327.759857,324.636139 328.509979C323.886017 329.260101,323.464508 330.277435,323.464508 331.338348C323.464508 332.399261,323.886017 333.416595,324.636139 334.166718C325.386261 334.916840,326.403595 335.338348,327.464508 335.338348C328.525421 335.338348,329.542755 334.916840,330.292877 334.166718C331.042999 333.416595,331.464508 332.399261,331.464508 331.338348Z" style="fill: rgb(89.999390%,0.000000%,0.000000%);stroke: none;"></path>
  <path d="M331.464508 4.023697C331.464508 2.962784,331.042999 1.945450,330.292877 1.195328C329.542755 0.445206,328.525421 0.023697,327.464508 0.023697C326.403595 0.023697,325.386261 0.445206,324.636139 1.195328C323.886017 1.945450,323.464508 2.962784,323.464508 4.023697C323.464508 5.084610,323.886017 6.101944,324.636139 6.852066C325.386261 7.602188,326.403595 8.023697,327.464508 8.023697C328.525421 8.023697,329.542755 7.602188,330.292877 6.852066C331.042999 6.101944,331.464508 5.084610,331.464508 4.023697Z" style="stroke:rgb(39.999390%,39.999390%,39.999390%); stroke-width: 0.500000;stroke-linecap: round;stroke-linejoin: round;stroke-miterlimit: 10.000000;fill: none;"></path>
  <path d="M331.464508 4.023697C331.464508 2.962784,331.042999 1.945450,330.292877 1.195328C329.542755 0.445206,328.525421 0.023697,327.464508 0.023697C326.403595 0.023697,325.386261 0.445206,324.636139 1.195328C323.886017 1.945450,323.464508 2.962784,323.464508 4.023697C323.464508 5.084610,323.886017 6.101944,324.636139 6.852066C325.386261 7.602188,326.403595 8.023697,327.464508 8.023697C328.525421 8.023697,329.542755 7.602188,330.292877 6.852066C331.042999 6.101944,331.464508 5.084610,331.464508 4.023697Z" style="fill: rgb(100.000000%,100.000000%,0.000000%);stroke: none;"></path>
</svg>
