<?xml version="1.0"?>
<!-- Created by MetaPost 2.00 on 2022.03.31:1952 -->
<svg version="1.1" xmlns="http://www.w3.org/2000/svg" xmlns:xlink="http://www.w3.org/1999/xlink" width="454.295807" height="708.659531" viewBox="0 0 454.295807 708.659531">
<!-- Original BoundingBox: 74.282303 142.400085 454.295807 708.659531 -->
  <path d="M127.562485 27.686905L99.214310 33.353088L76.532303 56.035095L77.951004 80.127151L85.035889 98.553040L113.384079 84.374619L127.562485 27.686905Z" style="fill: rgb(100.000000%,100.000000%,100.000000%);stroke: none;"></path>
  <path d="M127.562485 27.686905L113.384079 84.374619L155.902023 84.374619L164.405609 33.353088L127.562485 27.686905Z" style="fill: rgb(100.000000%,100.000000%,100.000000%);stroke: none;"></path>
  <path d="M170.080429 112.722809L181.421432 141.070984L283.464508 141.070984L170.080429 112.722809Z" style="fill: rgb(100.000000%,100.000000%,100.000000%);stroke: none;"></path>
  <path d="M155.902023 84.374619L170.080429 112.722809L283.464508 141.070984L283.464508 98.553040L255.116333 41.856674L206.932205 36.190506L164.405609 33.353088L155.902023 84.374619Z" style="fill: rgb(100.000000%,100.000000%,100.000000%);stroke: none;"></path>
  <path d="M283.464508 141.070984L311.812683 166.581757L317.478867 135.404800L283.464508 98.553040L283.464508 141.070984Z" style="fill: rgb(100.000000%,100.000000%,100.000000%);stroke: none;"></path>
  <path d="M283.464508 98.553040L283.464508 78.708450L255.116333 41.856674L283.464508 98.553040Z" style="fill: rgb(100.000000%,100.000000%,100.000000%);stroke: none;"></path>
  <path d="M283.464508 78.708450L289.130692 47.531509L255.116333 41.856674L283.464508 78.708450Z" style="fill: rgb(100.000000%,100.000000%,100.000000%);stroke: none;"></path>
  <path d="M283.464508 78.708450L325.982452 56.035095L311.812683 10.679733L289.130692 47.531509L283.464508 78.708450Z" style="fill: rgb(100.000000%,100.000000%,100.000000%);stroke: none;"></path>
  <path d="M311.812683 166.581757L323.153687 186.426346L354.330643 155.240753L351.493225 143.908401L317.478867 135.404800L311.812683 166.581757Z" style="fill: rgb(100.000000%,100.000000%,100.000000%);stroke: none;"></path>
  <path d="M351.493225 143.908401L391.182404 124.063812L334.486038 73.042267L317.478867 126.901215L317.478867 135.404800L351.493225 143.908401Z" style="fill: rgb(100.000000%,100.000000%,100.000000%);stroke: none;"></path>
  <path d="M354.330643 155.240753L371.337814 155.240753L351.493225 143.908401L354.330643 155.240753Z" style="fill: rgb(100.000000%,100.000000%,100.000000%);stroke: none;"></path>
  <path d="M181.421432 141.070984L172.909195 155.240753L170.080429 177.922760L175.746613 192.092514L187.087616 209.099701L192.753784 211.937103L195.591202 211.937103L320.316284 203.433517L323.153687 186.426346L311.812683 166.581757L283.464508 141.070984L181.421432 141.070984Z" style="fill: rgb(100.000000%,100.000000%,100.000000%);stroke: none;"></path>
  <path d="M195.591202 211.937103L303.309097 214.774521L320.316284 203.433517L195.591202 211.937103Z" style="fill: rgb(100.000000%,100.000000%,100.000000%);stroke: none;"></path>
  <path d="M294.805511 220.440704L297.634277 237.447876L300.471680 237.447876L303.309097 214.774521L294.805511 220.440704Z" style="fill: rgb(100.000000%,100.000000%,100.000000%);stroke: none;"></path>
  <path d="M195.591202 211.937103L263.619919 220.440704L294.805511 220.440704L303.309097 214.774521L195.591202 211.937103Z" style="fill: rgb(100.000000%,100.000000%,100.000000%);stroke: none;"></path>
  <path d="M195.591202 211.937103L238.109146 237.447876L263.619919 220.440704L195.591202 211.937103Z" style="fill: rgb(100.000000%,100.000000%,100.000000%);stroke: none;"></path>
  <path d="M195.591202 211.937103L209.760971 237.447876L221.101974 257.292465L240.946564 254.455063L238.109146 237.447876L195.591202 211.937103Z" style="fill: rgb(100.000000%,100.000000%,100.000000%);stroke: none;"></path>
  <path d="M221.101974 257.292465L218.264557 260.129883L240.946564 274.299652L252.287567 274.299652L255.116333 265.796066L240.946564 254.455063L221.101974 257.292465Z" style="fill: rgb(100.000000%,100.000000%,100.000000%);stroke: none;"></path>
  <path d="M252.287567 274.299652L260.791153 282.803238L266.457336 274.299652L263.619919 268.633469L255.116333 265.796066L252.287567 274.299652Z" style="fill: rgb(100.000000%,100.000000%,100.000000%);stroke: none;"></path>
  <path d="M263.619919 268.633469L274.960922 265.796066L280.627090 254.455063L269.294739 254.455063L255.116333 265.796066L263.619919 268.633469Z" style="fill: rgb(100.000000%,100.000000%,100.000000%);stroke: none;"></path>
  <path d="M187.087616 209.099701L192.753784 231.781708L198.428619 231.781708L192.753784 211.937103L187.087616 209.099701Z" style="fill: rgb(100.000000%,100.000000%,100.000000%);stroke: none;"></path>
  <path d="M192.753784 231.781708L201.257385 245.951462L204.094788 245.951462L198.428619 231.781708L192.753784 231.781708Z" style="fill: rgb(100.000000%,100.000000%,100.000000%);stroke: none;"></path>
  <path d="M260.791153 282.803238L274.960922 291.306824L289.130692 296.973007L289.130692 274.299652L266.457336 274.299652L260.791153 282.803238Z" style="fill: rgb(100.000000%,100.000000%,100.000000%);stroke: none;"></path>
  <path d="M274.960922 291.306824L283.464508 299.810410L306.137863 308.314011L308.975281 305.476593L289.130692 296.973007L274.960922 291.306824Z" style="fill: rgb(100.000000%,100.000000%,100.000000%);stroke: none;"></path>
  <path d="M294.805511 248.788879L311.812683 260.129883L320.316284 254.455063L294.805511 245.951462L294.805511 248.788879Z" style="fill: rgb(100.000000%,100.000000%,100.000000%);stroke: none;"></path>
  <path d="M303.309097 333.824768L297.634277 353.669357L303.309097 389.102432L323.153687 407.528320L402.523407 433.039078L425.196762 424.535492L433.700348 401.862137L433.700348 387.683716L303.309097 333.824768Z" style="fill: rgb(100.000000%,100.000000%,100.000000%);stroke: none;"></path>
  <path d="M345.827042 554.926743L337.323456 557.764160L345.827042 560.601562L354.330643 557.764160L345.827042 554.926743Z" style="fill: rgb(100.000000%,100.000000%,100.000000%);stroke: none;"></path>
  <path d="M433.700348 387.683716L445.041351 362.172958L413.855759 345.165771L308.975281 305.476593L306.137863 308.314011L303.309097 333.824768L433.700348 387.683716Z" style="fill: rgb(100.000000%,100.000000%,100.000000%);stroke: none;"></path>
  <path d="M413.855759 345.165771L391.182404 325.321182L365.671631 308.314011L342.989639 296.973007L328.819870 294.144241L308.975281 305.476593L413.855759 345.165771Z" style="fill: rgb(100.000000%,100.000000%,100.000000%);stroke: none;"></path>
  <path d="M365.671631 308.314011L354.330643 296.973007L342.989639 296.973007L365.671631 308.314011Z" style="fill: rgb(100.000000%,100.000000%,100.000000%);stroke: none;"></path>
  <path d="M323.153687 407.528320L323.153687 495.401611L325.982452 546.423157L334.486038 552.097977L342.989639 549.260574L348.664459 518.074966L323.153687 407.528320Z" style="fill: rgb(100.000000%,100.000000%,100.000000%);stroke: none;"></path>
  <path d="M348.664459 518.074966L357.168045 489.735443L323.153687 407.528320L348.664459 518.074966Z" style="fill: rgb(100.000000%,100.000000%,100.000000%);stroke: none;"></path>
  <path d="M357.168045 489.735443L374.175232 489.735443L371.337814 469.890854L323.153687 407.528320L357.168045 489.735443Z" style="fill: rgb(100.000000%,100.000000%,100.000000%);stroke: none;"></path>
  <path d="M371.337814 469.890854L382.678818 472.728271L388.344986 464.224670L402.523407 433.039078L323.153687 407.528320L371.337814 469.890854Z" style="fill: rgb(100.000000%,100.000000%,100.000000%);stroke: none;"></path>
  <path d="M113.384079 84.374619L127.562485 27.686905" style="stroke:rgb(100.000000%,100.000000%,100.000000%); stroke-width: 1.000000;stroke-linecap: round;stroke-linejoin: round;stroke-miterlimit: 10.000000;fill: none;"></path>
  <path d="M127.562485 27.686905L113.384079 84.374619" style="stroke:rgb(100.000000%,100.000000%,100.000000%); stroke-width: 1.000000;stroke-linecap: round;stroke-linejoin: round;stroke-miterlimit: 10.000000;fill: none;"></path>
  <path d="M155.902023 84.374619L164.405609 33.353088" style="stroke:rgb(100.000000%,100.000000%,100.000000%); stroke-width: 1.000000;stroke-linecap: round;stroke-linejoin: round;stroke-miterlimit: 10.000000;fill: none;"></path>
  <path d="M181.421432 141.070984L283.464508 141.070984" style="stroke:rgb(100.000000%,100.000000%,100.000000%); stroke-width: 1.000000;stroke-linecap: round;stroke-linejoin: round;stroke-miterlimit: 10.000000;fill: none;"></path>
  <path d="M283.464508 141.070984L170.080429 112.722809" style="stroke:rgb(100.000000%,100.000000%,100.000000%); stroke-width: 1.000000;stroke-linecap: round;stroke-linejoin: round;stroke-miterlimit: 10.000000;fill: none;"></path>
  <path d="M170.080429 112.722809L283.464508 141.070984" style="stroke:rgb(100.000000%,100.000000%,100.000000%); stroke-width: 1.000000;stroke-linecap: round;stroke-linejoin: round;stroke-miterlimit: 10.000000;fill: none;"></path>
  <path d="M283.464508 141.070984L283.464508 98.553040" style="stroke:rgb(100.000000%,100.000000%,100.000000%); stroke-width: 1.000000;stroke-linecap: round;stroke-linejoin: round;stroke-miterlimit: 10.000000;fill: none;"></path>
  <path d="M283.464508 98.553040L255.116333 41.856674" style="stroke:rgb(100.000000%,100.000000%,100.000000%); stroke-width: 1.000000;stroke-linecap: round;stroke-linejoin: round;stroke-miterlimit: 10.000000;fill: none;"></path>
  <path d="M164.405609 33.353088L155.902023 84.374619" style="stroke:rgb(100.000000%,100.000000%,100.000000%); stroke-width: 1.000000;stroke-linecap: round;stroke-linejoin: round;stroke-miterlimit: 10.000000;fill: none;"></path>
  <path d="M283.464508 141.070984L311.812683 166.581757" style="stroke:rgb(100.000000%,100.000000%,100.000000%); stroke-width: 1.000000;stroke-linecap: round;stroke-linejoin: round;stroke-miterlimit: 10.000000;fill: none;"></path>
  <path d="M311.812683 166.581757L317.478867 135.404800" style="stroke:rgb(100.000000%,100.000000%,100.000000%); stroke-width: 1.000000;stroke-linecap: round;stroke-linejoin: round;stroke-miterlimit: 10.000000;fill: none;"></path>
  <path d="M283.464508 98.553040L283.464508 141.070984" style="stroke:rgb(100.000000%,100.000000%,100.000000%); stroke-width: 1.000000;stroke-linecap: round;stroke-linejoin: round;stroke-miterlimit: 10.000000;fill: none;"></path>
  <path d="M283.464508 78.708450L255.116333 41.856674" style="stroke:rgb(100.000000%,100.000000%,100.000000%); stroke-width: 1.000000;stroke-linecap: round;stroke-linejoin: round;stroke-miterlimit: 10.000000;fill: none;"></path>
  <path d="M255.116333 41.856674L283.464508 98.553040" style="stroke:rgb(100.000000%,100.000000%,100.000000%); stroke-width: 1.000000;stroke-linecap: round;stroke-linejoin: round;stroke-miterlimit: 10.000000;fill: none;"></path>
  <path d="M283.464508 78.708450L289.130692 47.531509" style="stroke:rgb(100.000000%,100.000000%,100.000000%); stroke-width: 1.000000;stroke-linecap: round;stroke-linejoin: round;stroke-miterlimit: 10.000000;fill: none;"></path>
  <path d="M255.116333 41.856674L283.464508 78.708450" style="stroke:rgb(100.000000%,100.000000%,100.000000%); stroke-width: 1.000000;stroke-linecap: round;stroke-linejoin: round;stroke-miterlimit: 10.000000;fill: none;"></path>
  <path d="M289.130692 47.531509L283.464508 78.708450" style="stroke:rgb(100.000000%,100.000000%,100.000000%); stroke-width: 1.000000;stroke-linecap: round;stroke-linejoin: round;stroke-miterlimit: 10.000000;fill: none;"></path>
  <path d="M311.812683 166.581757L323.153687 186.426346" style="stroke:rgb(100.000000%,100.000000%,100.000000%); stroke-width: 1.000000;stroke-linecap: round;stroke-linejoin: round;stroke-miterlimit: 10.000000;fill: none;"></path>
  <path d="M354.330643 155.240753L351.493225 143.908401" style="stroke:rgb(100.000000%,100.000000%,100.000000%); stroke-width: 1.000000;stroke-linecap: round;stroke-linejoin: round;stroke-miterlimit: 10.000000;fill: none;"></path>
  <path d="M351.493225 143.908401L317.478867 135.404800" style="stroke:rgb(100.000000%,100.000000%,100.000000%); stroke-width: 1.000000;stroke-linecap: round;stroke-linejoin: round;stroke-miterlimit: 10.000000;fill: none;"></path>
  <path d="M317.478867 135.404800L311.812683 166.581757" style="stroke:rgb(100.000000%,100.000000%,100.000000%); stroke-width: 1.000000;stroke-linecap: round;stroke-linejoin: round;stroke-miterlimit: 10.000000;fill: none;"></path>
  <path d="M317.478867 135.404800L351.493225 143.908401" style="stroke:rgb(100.000000%,100.000000%,100.000000%); stroke-width: 1.000000;stroke-linecap: round;stroke-linejoin: round;stroke-miterlimit: 10.000000;fill: none;"></path>
  <path d="M351.493225 143.908401L354.330643 155.240753" style="stroke:rgb(100.000000%,100.000000%,100.000000%); stroke-width: 1.000000;stroke-linecap: round;stroke-linejoin: round;stroke-miterlimit: 10.000000;fill: none;"></path>
  <path d="M187.087616 209.099701L192.753784 211.937103" style="stroke:rgb(100.000000%,100.000000%,100.000000%); stroke-width: 1.000000;stroke-linecap: round;stroke-linejoin: round;stroke-miterlimit: 10.000000;fill: none;"></path>
  <path d="M195.591202 211.937103L320.316284 203.433517" style="stroke:rgb(100.000000%,100.000000%,100.000000%); stroke-width: 1.000000;stroke-linecap: round;stroke-linejoin: round;stroke-miterlimit: 10.000000;fill: none;"></path>
  <path d="M323.153687 186.426346L311.812683 166.581757" style="stroke:rgb(100.000000%,100.000000%,100.000000%); stroke-width: 1.000000;stroke-linecap: round;stroke-linejoin: round;stroke-miterlimit: 10.000000;fill: none;"></path>
  <path d="M311.812683 166.581757L283.464508 141.070984" style="stroke:rgb(100.000000%,100.000000%,100.000000%); stroke-width: 1.000000;stroke-linecap: round;stroke-linejoin: round;stroke-miterlimit: 10.000000;fill: none;"></path>
  <path d="M283.464508 141.070984L181.421432 141.070984" style="stroke:rgb(100.000000%,100.000000%,100.000000%); stroke-width: 1.000000;stroke-linecap: round;stroke-linejoin: round;stroke-miterlimit: 10.000000;fill: none;"></path>
  <path d="M195.591202 211.937103L303.309097 214.774521" style="stroke:rgb(100.000000%,100.000000%,100.000000%); stroke-width: 1.000000;stroke-linecap: round;stroke-linejoin: round;stroke-miterlimit: 10.000000;fill: none;"></path>
  <path d="M320.316284 203.433517L195.591202 211.937103" style="stroke:rgb(100.000000%,100.000000%,100.000000%); stroke-width: 1.000000;stroke-linecap: round;stroke-linejoin: round;stroke-miterlimit: 10.000000;fill: none;"></path>
  <path d="M303.309097 214.774521L294.805511 220.440704" style="stroke:rgb(100.000000%,100.000000%,100.000000%); stroke-width: 1.000000;stroke-linecap: round;stroke-linejoin: round;stroke-miterlimit: 10.000000;fill: none;"></path>
  <path d="M195.591202 211.937103L263.619919 220.440704" style="stroke:rgb(100.000000%,100.000000%,100.000000%); stroke-width: 1.000000;stroke-linecap: round;stroke-linejoin: round;stroke-miterlimit: 10.000000;fill: none;"></path>
  <path d="M294.805511 220.440704L303.309097 214.774521" style="stroke:rgb(100.000000%,100.000000%,100.000000%); stroke-width: 1.000000;stroke-linecap: round;stroke-linejoin: round;stroke-miterlimit: 10.000000;fill: none;"></path>
  <path d="M303.309097 214.774521L195.591202 211.937103" style="stroke:rgb(100.000000%,100.000000%,100.000000%); stroke-width: 1.000000;stroke-linecap: round;stroke-linejoin: round;stroke-miterlimit: 10.000000;fill: none;"></path>
  <path d="M195.591202 211.937103L238.109146 237.447876" style="stroke:rgb(100.000000%,100.000000%,100.000000%); stroke-width: 1.000000;stroke-linecap: round;stroke-linejoin: round;stroke-miterlimit: 10.000000;fill: none;"></path>
  <path d="M263.619919 220.440704L195.591202 211.937103" style="stroke:rgb(100.000000%,100.000000%,100.000000%); stroke-width: 1.000000;stroke-linecap: round;stroke-linejoin: round;stroke-miterlimit: 10.000000;fill: none;"></path>
  <path d="M221.101974 257.292465L240.946564 254.455063" style="stroke:rgb(100.000000%,100.000000%,100.000000%); stroke-width: 1.000000;stroke-linecap: round;stroke-linejoin: round;stroke-miterlimit: 10.000000;fill: none;"></path>
  <path d="M238.109146 237.447876L195.591202 211.937103" style="stroke:rgb(100.000000%,100.000000%,100.000000%); stroke-width: 1.000000;stroke-linecap: round;stroke-linejoin: round;stroke-miterlimit: 10.000000;fill: none;"></path>
  <path d="M252.287567 274.299652L255.116333 265.796066" style="stroke:rgb(100.000000%,100.000000%,100.000000%); stroke-width: 1.000000;stroke-linecap: round;stroke-linejoin: round;stroke-miterlimit: 10.000000;fill: none;"></path>
  <path d="M240.946564 254.455063L221.101974 257.292465" style="stroke:rgb(100.000000%,100.000000%,100.000000%); stroke-width: 1.000000;stroke-linecap: round;stroke-linejoin: round;stroke-miterlimit: 10.000000;fill: none;"></path>
  <path d="M260.791153 282.803238L266.457336 274.299652" style="stroke:rgb(100.000000%,100.000000%,100.000000%); stroke-width: 1.000000;stroke-linecap: round;stroke-linejoin: round;stroke-miterlimit: 10.000000;fill: none;"></path>
  <path d="M263.619919 268.633469L255.116333 265.796066" style="stroke:rgb(100.000000%,100.000000%,100.000000%); stroke-width: 1.000000;stroke-linecap: round;stroke-linejoin: round;stroke-miterlimit: 10.000000;fill: none;"></path>
  <path d="M255.116333 265.796066L252.287567 274.299652" style="stroke:rgb(100.000000%,100.000000%,100.000000%); stroke-width: 1.000000;stroke-linecap: round;stroke-linejoin: round;stroke-miterlimit: 10.000000;fill: none;"></path>
  <path d="M255.116333 265.796066L263.619919 268.633469" style="stroke:rgb(100.000000%,100.000000%,100.000000%); stroke-width: 1.000000;stroke-linecap: round;stroke-linejoin: round;stroke-miterlimit: 10.000000;fill: none;"></path>
  <path d="M192.753784 231.781708L198.428619 231.781708" style="stroke:rgb(100.000000%,100.000000%,100.000000%); stroke-width: 1.000000;stroke-linecap: round;stroke-linejoin: round;stroke-miterlimit: 10.000000;fill: none;"></path>
  <path d="M192.753784 211.937103L187.087616 209.099701" style="stroke:rgb(100.000000%,100.000000%,100.000000%); stroke-width: 1.000000;stroke-linecap: round;stroke-linejoin: round;stroke-miterlimit: 10.000000;fill: none;"></path>
  <path d="M198.428619 231.781708L192.753784 231.781708" style="stroke:rgb(100.000000%,100.000000%,100.000000%); stroke-width: 1.000000;stroke-linecap: round;stroke-linejoin: round;stroke-miterlimit: 10.000000;fill: none;"></path>
  <path d="M274.960922 291.306824L289.130692 296.973007" style="stroke:rgb(100.000000%,100.000000%,100.000000%); stroke-width: 1.000000;stroke-linecap: round;stroke-linejoin: round;stroke-miterlimit: 10.000000;fill: none;"></path>
  <path d="M266.457336 274.299652L260.791153 282.803238" style="stroke:rgb(100.000000%,100.000000%,100.000000%); stroke-width: 1.000000;stroke-linecap: round;stroke-linejoin: round;stroke-miterlimit: 10.000000;fill: none;"></path>
  <path d="M306.137863 308.314011L308.975281 305.476593" style="stroke:rgb(100.000000%,100.000000%,100.000000%); stroke-width: 1.000000;stroke-linecap: round;stroke-linejoin: round;stroke-miterlimit: 10.000000;fill: none;"></path>
  <path d="M289.130692 296.973007L274.960922 291.306824" style="stroke:rgb(100.000000%,100.000000%,100.000000%); stroke-width: 1.000000;stroke-linecap: round;stroke-linejoin: round;stroke-miterlimit: 10.000000;fill: none;"></path>
  <path d="M323.153687 407.528320L402.523407 433.039078" style="stroke:rgb(100.000000%,100.000000%,100.000000%); stroke-width: 1.000000;stroke-linecap: round;stroke-linejoin: round;stroke-miterlimit: 10.000000;fill: none;"></path>
  <path d="M433.700348 387.683716L303.309097 333.824768" style="stroke:rgb(100.000000%,100.000000%,100.000000%); stroke-width: 1.000000;stroke-linecap: round;stroke-linejoin: round;stroke-miterlimit: 10.000000;fill: none;"></path>
  <path d="M413.855759 345.165771L308.975281 305.476593" style="stroke:rgb(100.000000%,100.000000%,100.000000%); stroke-width: 1.000000;stroke-linecap: round;stroke-linejoin: round;stroke-miterlimit: 10.000000;fill: none;"></path>
  <path d="M308.975281 305.476593L306.137863 308.314011" style="stroke:rgb(100.000000%,100.000000%,100.000000%); stroke-width: 1.000000;stroke-linecap: round;stroke-linejoin: round;stroke-miterlimit: 10.000000;fill: none;"></path>
  <path d="M303.309097 333.824768L433.700348 387.683716" style="stroke:rgb(100.000000%,100.000000%,100.000000%); stroke-width: 1.000000;stroke-linecap: round;stroke-linejoin: round;stroke-miterlimit: 10.000000;fill: none;"></path>
  <path d="M365.671631 308.314011L342.989639 296.973007" style="stroke:rgb(100.000000%,100.000000%,100.000000%); stroke-width: 1.000000;stroke-linecap: round;stroke-linejoin: round;stroke-miterlimit: 10.000000;fill: none;"></path>
  <path d="M308.975281 305.476593L413.855759 345.165771" style="stroke:rgb(100.000000%,100.000000%,100.000000%); stroke-width: 1.000000;stroke-linecap: round;stroke-linejoin: round;stroke-miterlimit: 10.000000;fill: none;"></path>
  <path d="M342.989639 296.973007L365.671631 308.314011" style="stroke:rgb(100.000000%,100.000000%,100.000000%); stroke-width: 1.000000;stroke-linecap: round;stroke-linejoin: round;stroke-miterlimit: 10.000000;fill: none;"></path>
  <path d="M348.664459 518.074966L323.153687 407.528320" style="stroke:rgb(100.000000%,100.000000%,100.000000%); stroke-width: 1.000000;stroke-linecap: round;stroke-linejoin: round;stroke-miterlimit: 10.000000;fill: none;"></path>
  <path d="M357.168045 489.735443L323.153687 407.528320" style="stroke:rgb(100.000000%,100.000000%,100.000000%); stroke-width: 1.000000;stroke-linecap: round;stroke-linejoin: round;stroke-miterlimit: 10.000000;fill: none;"></path>
  <path d="M323.153687 407.528320L348.664459 518.074966" style="stroke:rgb(100.000000%,100.000000%,100.000000%); stroke-width: 1.000000;stroke-linecap: round;stroke-linejoin: round;stroke-miterlimit: 10.000000;fill: none;"></path>
  <path d="M371.337814 469.890854L323.153687 407.528320" style="stroke:rgb(100.000000%,100.000000%,100.000000%); stroke-width: 1.000000;stroke-linecap: round;stroke-linejoin: round;stroke-miterlimit: 10.000000;fill: none;"></path>
  <path d="M323.153687 407.528320L357.168045 489.735443" style="stroke:rgb(100.000000%,100.000000%,100.000000%); stroke-width: 1.000000;stroke-linecap: round;stroke-linejoin: round;stroke-miterlimit: 10.000000;fill: none;"></path>
  <path d="M402.523407 433.039078L323.153687 407.528320" style="stroke:rgb(100.000000%,100.000000%,100.000000%); stroke-width: 1.000000;stroke-linecap: round;stroke-linejoin: round;stroke-miterlimit: 10.000000;fill: none;"></path>
  <path d="M323.153687 407.528320L371.337814 469.890854" style="stroke:rgb(100.000000%,100.000000%,100.000000%); stroke-width: 1.000000;stroke-linecap: round;stroke-linejoin: round;stroke-miterlimit: 10.000000;fill: none;"></path>
  <path d="M127.562485 27.686905L99.214310 33.353088" style="stroke:rgb(0.000000%,0.000000%,0.000000%); stroke-width: 1.000000;stroke-linecap: round;stroke-linejoin: round;stroke-miterlimit: 10.000000;fill: none;"></path>
  <path d="M99.214310 33.353088L76.532303 56.035095" style="stroke:rgb(0.000000%,0.000000%,0.000000%); stroke-width: 1.000000;stroke-linecap: round;stroke-linejoin: round;stroke-miterlimit: 10.000000;fill: none;"></path>
  <path d="M76.532303 56.035095L77.951004 80.127151" style="stroke:rgb(0.000000%,0.000000%,0.000000%); stroke-width: 1.000000;stroke-linecap: round;stroke-linejoin: round;stroke-miterlimit: 10.000000;fill: none;"></path>
  <path d="M77.951004 80.127151L85.035889 98.553040" style="stroke:rgb(0.000000%,0.000000%,0.000000%); stroke-width: 1.000000;stroke-linecap: round;stroke-linejoin: round;stroke-miterlimit: 10.000000;fill: none;"></path>
  <path d="M85.035889 98.553040L113.384079 84.374619" style="stroke:rgb(0.000000%,0.000000%,0.000000%); stroke-width: 1.000000;stroke-linecap: round;stroke-linejoin: round;stroke-miterlimit: 10.000000;fill: none;"></path>
  <path d="M113.384079 84.374619L155.902023 84.374619" style="stroke:rgb(0.000000%,0.000000%,0.000000%); stroke-width: 1.000000;stroke-linecap: round;stroke-linejoin: round;stroke-miterlimit: 10.000000;fill: none;"></path>
  <path d="M164.405609 33.353088L127.562485 27.686905" style="stroke:rgb(0.000000%,0.000000%,0.000000%); stroke-width: 1.000000;stroke-linecap: round;stroke-linejoin: round;stroke-miterlimit: 10.000000;fill: none;"></path>
  <path d="M170.080429 112.722809L181.421432 141.070984" style="stroke:rgb(0.000000%,0.000000%,0.000000%); stroke-width: 1.000000;stroke-linecap: round;stroke-linejoin: round;stroke-miterlimit: 10.000000;fill: none;"></path>
  <path d="M155.902023 84.374619L170.080429 112.722809" style="stroke:rgb(0.000000%,0.000000%,0.000000%); stroke-width: 1.000000;stroke-linecap: round;stroke-linejoin: round;stroke-miterlimit: 10.000000;fill: none;"></path>
  <path d="M255.116333 41.856674L206.932205 36.190506" style="stroke:rgb(0.000000%,0.000000%,0.000000%); stroke-width: 1.000000;stroke-linecap: round;stroke-linejoin: round;stroke-miterlimit: 10.000000;fill: none;"></path>
  <path d="M206.932205 36.190506L164.405609 33.353088" style="stroke:rgb(0.000000%,0.000000%,0.000000%); stroke-width: 1.000000;stroke-linecap: round;stroke-linejoin: round;stroke-miterlimit: 10.000000;fill: none;"></path>
  <path d="M317.478867 135.404800L283.464508 98.553040" style="stroke:rgb(0.000000%,0.000000%,0.000000%); stroke-width: 1.000000;stroke-linecap: round;stroke-linejoin: round;stroke-miterlimit: 10.000000;fill: none;"></path>
  <path d="M283.464508 98.553040L283.464508 78.708450" style="stroke:rgb(0.000000%,0.000000%,0.000000%); stroke-width: 1.000000;stroke-linecap: round;stroke-linejoin: round;stroke-miterlimit: 10.000000;fill: none;"></path>
  <path d="M289.130692 47.531509L255.116333 41.856674" style="stroke:rgb(0.000000%,0.000000%,0.000000%); stroke-width: 1.000000;stroke-linecap: round;stroke-linejoin: round;stroke-miterlimit: 10.000000;fill: none;"></path>
  <path d="M283.464508 78.708450L325.982452 56.035095" style="stroke:rgb(0.000000%,0.000000%,0.000000%); stroke-width: 1.000000;stroke-linecap: round;stroke-linejoin: round;stroke-miterlimit: 10.000000;fill: none;"></path>
  <path d="M325.982452 56.035095L311.812683 10.679733" style="stroke:rgb(0.000000%,0.000000%,0.000000%); stroke-width: 1.000000;stroke-linecap: round;stroke-linejoin: round;stroke-miterlimit: 10.000000;fill: none;"></path>
  <path d="M311.812683 10.679733L289.130692 47.531509" style="stroke:rgb(0.000000%,0.000000%,0.000000%); stroke-width: 1.000000;stroke-linecap: round;stroke-linejoin: round;stroke-miterlimit: 10.000000;fill: none;"></path>
  <path d="M323.153687 186.426346L354.330643 155.240753" style="stroke:rgb(0.000000%,0.000000%,0.000000%); stroke-width: 1.000000;stroke-linecap: round;stroke-linejoin: round;stroke-miterlimit: 10.000000;fill: none;"></path>
  <path d="M351.493225 143.908401L391.182404 124.063812" style="stroke:rgb(0.000000%,0.000000%,0.000000%); stroke-width: 1.000000;stroke-linecap: round;stroke-linejoin: round;stroke-miterlimit: 10.000000;fill: none;"></path>
  <path d="M391.182404 124.063812L334.486038 73.042267" style="stroke:rgb(0.000000%,0.000000%,0.000000%); stroke-width: 1.000000;stroke-linecap: round;stroke-linejoin: round;stroke-miterlimit: 10.000000;fill: none;"></path>
  <path d="M334.486038 73.042267L317.478867 126.901215" style="stroke:rgb(0.000000%,0.000000%,0.000000%); stroke-width: 1.000000;stroke-linecap: round;stroke-linejoin: round;stroke-miterlimit: 10.000000;fill: none;"></path>
  <path d="M317.478867 126.901215L317.478867 135.404800" style="stroke:rgb(0.000000%,0.000000%,0.000000%); stroke-width: 1.000000;stroke-linecap: round;stroke-linejoin: round;stroke-miterlimit: 10.000000;fill: none;"></path>
  <path d="M354.330643 155.240753L371.337814 155.240753" style="stroke:rgb(0.000000%,0.000000%,0.000000%); stroke-width: 1.000000;stroke-linecap: round;stroke-linejoin: round;stroke-miterlimit: 10.000000;fill: none;"></path>
  <path d="M371.337814 155.240753L351.493225 143.908401" style="stroke:rgb(0.000000%,0.000000%,0.000000%); stroke-width: 1.000000;stroke-linecap: round;stroke-linejoin: round;stroke-miterlimit: 10.000000;fill: none;"></path>
  <path d="M181.421432 141.070984L172.909195 155.240753" style="stroke:rgb(0.000000%,0.000000%,0.000000%); stroke-width: 1.000000;stroke-linecap: round;stroke-linejoin: round;stroke-miterlimit: 10.000000;fill: none;"></path>
  <path d="M172.909195 155.240753L170.080429 177.922760" style="stroke:rgb(0.000000%,0.000000%,0.000000%); stroke-width: 1.000000;stroke-linecap: round;stroke-linejoin: round;stroke-miterlimit: 10.000000;fill: none;"></path>
  <path d="M170.080429 177.922760L175.746613 192.092514" style="stroke:rgb(0.000000%,0.000000%,0.000000%); stroke-width: 1.000000;stroke-linecap: round;stroke-linejoin: round;stroke-miterlimit: 10.000000;fill: none;"></path>
  <path d="M175.746613 192.092514L187.087616 209.099701" style="stroke:rgb(0.000000%,0.000000%,0.000000%); stroke-width: 1.000000;stroke-linecap: round;stroke-linejoin: round;stroke-miterlimit: 10.000000;fill: none;"></path>
  <path d="M192.753784 211.937103L195.591202 211.937103" style="stroke:rgb(0.000000%,0.000000%,0.000000%); stroke-width: 1.000000;stroke-linecap: round;stroke-linejoin: round;stroke-miterlimit: 10.000000;fill: none;"></path>
  <path d="M320.316284 203.433517L323.153687 186.426346" style="stroke:rgb(0.000000%,0.000000%,0.000000%); stroke-width: 1.000000;stroke-linecap: round;stroke-linejoin: round;stroke-miterlimit: 10.000000;fill: none;"></path>
  <path d="M303.309097 214.774521L320.316284 203.433517" style="stroke:rgb(0.000000%,0.000000%,0.000000%); stroke-width: 1.000000;stroke-linecap: round;stroke-linejoin: round;stroke-miterlimit: 10.000000;fill: none;"></path>
  <path d="M294.805511 220.440704L297.634277 237.447876" style="stroke:rgb(0.000000%,0.000000%,0.000000%); stroke-width: 1.000000;stroke-linecap: round;stroke-linejoin: round;stroke-miterlimit: 10.000000;fill: none;"></path>
  <path d="M297.634277 237.447876L300.471680 237.447876" style="stroke:rgb(0.000000%,0.000000%,0.000000%); stroke-width: 1.000000;stroke-linecap: round;stroke-linejoin: round;stroke-miterlimit: 10.000000;fill: none;"></path>
  <path d="M300.471680 237.447876L303.309097 214.774521" style="stroke:rgb(0.000000%,0.000000%,0.000000%); stroke-width: 1.000000;stroke-linecap: round;stroke-linejoin: round;stroke-miterlimit: 10.000000;fill: none;"></path>
  <path d="M263.619919 220.440704L294.805511 220.440704" style="stroke:rgb(0.000000%,0.000000%,0.000000%); stroke-width: 1.000000;stroke-linecap: round;stroke-linejoin: round;stroke-miterlimit: 10.000000;fill: none;"></path>
  <path d="M238.109146 237.447876L263.619919 220.440704" style="stroke:rgb(0.000000%,0.000000%,0.000000%); stroke-width: 1.000000;stroke-linecap: round;stroke-linejoin: round;stroke-miterlimit: 10.000000;fill: none;"></path>
  <path d="M195.591202 211.937103L209.760971 237.447876" style="stroke:rgb(0.000000%,0.000000%,0.000000%); stroke-width: 1.000000;stroke-linecap: round;stroke-linejoin: round;stroke-miterlimit: 10.000000;fill: none;"></path>
  <path d="M209.760971 237.447876L221.101974 257.292465" style="stroke:rgb(0.000000%,0.000000%,0.000000%); stroke-width: 1.000000;stroke-linecap: round;stroke-linejoin: round;stroke-miterlimit: 10.000000;fill: none;"></path>
  <path d="M240.946564 254.455063L238.109146 237.447876" style="stroke:rgb(0.000000%,0.000000%,0.000000%); stroke-width: 1.000000;stroke-linecap: round;stroke-linejoin: round;stroke-miterlimit: 10.000000;fill: none;"></path>
  <path d="M221.101974 257.292465L218.264557 260.129883" style="stroke:rgb(0.000000%,0.000000%,0.000000%); stroke-width: 1.000000;stroke-linecap: round;stroke-linejoin: round;stroke-miterlimit: 10.000000;fill: none;"></path>
  <path d="M218.264557 260.129883L240.946564 274.299652" style="stroke:rgb(0.000000%,0.000000%,0.000000%); stroke-width: 1.000000;stroke-linecap: round;stroke-linejoin: round;stroke-miterlimit: 10.000000;fill: none;"></path>
  <path d="M240.946564 274.299652L252.287567 274.299652" style="stroke:rgb(0.000000%,0.000000%,0.000000%); stroke-width: 1.000000;stroke-linecap: round;stroke-linejoin: round;stroke-miterlimit: 10.000000;fill: none;"></path>
  <path d="M255.116333 265.796066L240.946564 254.455063" style="stroke:rgb(0.000000%,0.000000%,0.000000%); stroke-width: 1.000000;stroke-linecap: round;stroke-linejoin: round;stroke-miterlimit: 10.000000;fill: none;"></path>
  <path d="M252.287567 274.299652L260.791153 282.803238" style="stroke:rgb(0.000000%,0.000000%,0.000000%); stroke-width: 1.000000;stroke-linecap: round;stroke-linejoin: round;stroke-miterlimit: 10.000000;fill: none;"></path>
  <path d="M266.457336 274.299652L263.619919 268.633469" style="stroke:rgb(0.000000%,0.000000%,0.000000%); stroke-width: 1.000000;stroke-linecap: round;stroke-linejoin: round;stroke-miterlimit: 10.000000;fill: none;"></path>
  <path d="M263.619919 268.633469L274.960922 265.796066" style="stroke:rgb(0.000000%,0.000000%,0.000000%); stroke-width: 1.000000;stroke-linecap: round;stroke-linejoin: round;stroke-miterlimit: 10.000000;fill: none;"></path>
  <path d="M274.960922 265.796066L280.627090 254.455063" style="stroke:rgb(0.000000%,0.000000%,0.000000%); stroke-width: 1.000000;stroke-linecap: round;stroke-linejoin: round;stroke-miterlimit: 10.000000;fill: none;"></path>
  <path d="M280.627090 254.455063L269.294739 254.455063" style="stroke:rgb(0.000000%,0.000000%,0.000000%); stroke-width: 1.000000;stroke-linecap: round;stroke-linejoin: round;stroke-miterlimit: 10.000000;fill: none;"></path>
  <path d="M269.294739 254.455063L255.116333 265.796066" style="stroke:rgb(0.000000%,0.000000%,0.000000%); stroke-width: 1.000000;stroke-linecap: round;stroke-linejoin: round;stroke-miterlimit: 10.000000;fill: none;"></path>
  <path d="M187.087616 209.099701L192.753784 231.781708" style="stroke:rgb(0.000000%,0.000000%,0.000000%); stroke-width: 1.000000;stroke-linecap: round;stroke-linejoin: round;stroke-miterlimit: 10.000000;fill: none;"></path>
  <path d="M198.428619 231.781708L192.753784 211.937103" style="stroke:rgb(0.000000%,0.000000%,0.000000%); stroke-width: 1.000000;stroke-linecap: round;stroke-linejoin: round;stroke-miterlimit: 10.000000;fill: none;"></path>
  <path d="M192.753784 231.781708L201.257385 245.951462" style="stroke:rgb(0.000000%,0.000000%,0.000000%); stroke-width: 1.000000;stroke-linecap: round;stroke-linejoin: round;stroke-miterlimit: 10.000000;fill: none;"></path>
  <path d="M201.257385 245.951462L204.094788 245.951462" style="stroke:rgb(0.000000%,0.000000%,0.000000%); stroke-width: 1.000000;stroke-linecap: round;stroke-linejoin: round;stroke-miterlimit: 10.000000;fill: none;"></path>
  <path d="M204.094788 245.951462L198.428619 231.781708" style="stroke:rgb(0.000000%,0.000000%,0.000000%); stroke-width: 1.000000;stroke-linecap: round;stroke-linejoin: round;stroke-miterlimit: 10.000000;fill: none;"></path>
  <path d="M260.791153 282.803238L274.960922 291.306824" style="stroke:rgb(0.000000%,0.000000%,0.000000%); stroke-width: 1.000000;stroke-linecap: round;stroke-linejoin: round;stroke-miterlimit: 10.000000;fill: none;"></path>
  <path d="M289.130692 296.973007L289.130692 274.299652" style="stroke:rgb(0.000000%,0.000000%,0.000000%); stroke-width: 1.000000;stroke-linecap: round;stroke-linejoin: round;stroke-miterlimit: 10.000000;fill: none;"></path>
  <path d="M289.130692 274.299652L266.457336 274.299652" style="stroke:rgb(0.000000%,0.000000%,0.000000%); stroke-width: 1.000000;stroke-linecap: round;stroke-linejoin: round;stroke-miterlimit: 10.000000;fill: none;"></path>
  <path d="M274.960922 291.306824L283.464508 299.810410" style="stroke:rgb(0.000000%,0.000000%,0.000000%); stroke-width: 1.000000;stroke-linecap: round;stroke-linejoin: round;stroke-miterlimit: 10.000000;fill: none;"></path>
  <path d="M283.464508 299.810410L306.137863 308.314011" style="stroke:rgb(0.000000%,0.000000%,0.000000%); stroke-width: 1.000000;stroke-linecap: round;stroke-linejoin: round;stroke-miterlimit: 10.000000;fill: none;"></path>
  <path d="M308.975281 305.476593L289.130692 296.973007" style="stroke:rgb(0.000000%,0.000000%,0.000000%); stroke-width: 1.000000;stroke-linecap: round;stroke-linejoin: round;stroke-miterlimit: 10.000000;fill: none;"></path>
  <path d="M294.805511 248.788879L311.812683 260.129883" style="stroke:rgb(0.000000%,0.000000%,0.000000%); stroke-width: 1.000000;stroke-linecap: round;stroke-linejoin: round;stroke-miterlimit: 10.000000;fill: none;"></path>
  <path d="M311.812683 260.129883L320.316284 254.455063" style="stroke:rgb(0.000000%,0.000000%,0.000000%); stroke-width: 1.000000;stroke-linecap: round;stroke-linejoin: round;stroke-miterlimit: 10.000000;fill: none;"></path>
  <path d="M320.316284 254.455063L294.805511 245.951462" style="stroke:rgb(0.000000%,0.000000%,0.000000%); stroke-width: 1.000000;stroke-linecap: round;stroke-linejoin: round;stroke-miterlimit: 10.000000;fill: none;"></path>
  <path d="M294.805511 245.951462L294.805511 248.788879" style="stroke:rgb(0.000000%,0.000000%,0.000000%); stroke-width: 1.000000;stroke-linecap: round;stroke-linejoin: round;stroke-miterlimit: 10.000000;fill: none;"></path>
  <path d="M303.309097 333.824768L297.634277 353.669357" style="stroke:rgb(0.000000%,0.000000%,0.000000%); stroke-width: 1.000000;stroke-linecap: round;stroke-linejoin: round;stroke-miterlimit: 10.000000;fill: none;"></path>
  <path d="M297.634277 353.669357L303.309097 389.102432" style="stroke:rgb(0.000000%,0.000000%,0.000000%); stroke-width: 1.000000;stroke-linecap: round;stroke-linejoin: round;stroke-miterlimit: 10.000000;fill: none;"></path>
  <path d="M303.309097 389.102432L323.153687 407.528320" style="stroke:rgb(0.000000%,0.000000%,0.000000%); stroke-width: 1.000000;stroke-linecap: round;stroke-linejoin: round;stroke-miterlimit: 10.000000;fill: none;"></path>
  <path d="M402.523407 433.039078L425.196762 424.535492" style="stroke:rgb(0.000000%,0.000000%,0.000000%); stroke-width: 1.000000;stroke-linecap: round;stroke-linejoin: round;stroke-miterlimit: 10.000000;fill: none;"></path>
  <path d="M425.196762 424.535492L433.700348 401.862137" style="stroke:rgb(0.000000%,0.000000%,0.000000%); stroke-width: 1.000000;stroke-linecap: round;stroke-linejoin: round;stroke-miterlimit: 10.000000;fill: none;"></path>
  <path d="M433.700348 401.862137L433.700348 387.683716" style="stroke:rgb(0.000000%,0.000000%,0.000000%); stroke-width: 1.000000;stroke-linecap: round;stroke-linejoin: round;stroke-miterlimit: 10.000000;fill: none;"></path>
  <path d="M345.827042 554.926743L337.323456 557.764160" style="stroke:rgb(0.000000%,0.000000%,0.000000%); stroke-width: 1.000000;stroke-linecap: round;stroke-linejoin: round;stroke-miterlimit: 10.000000;fill: none;"></path>
  <path d="M337.323456 557.764160L345.827042 560.601562" style="stroke:rgb(0.000000%,0.000000%,0.000000%); stroke-width: 1.000000;stroke-linecap: round;stroke-linejoin: round;stroke-miterlimit: 10.000000;fill: none;"></path>
  <path d="M345.827042 560.601562L354.330643 557.764160" style="stroke:rgb(0.000000%,0.000000%,0.000000%); stroke-width: 1.000000;stroke-linecap: round;stroke-linejoin: round;stroke-miterlimit: 10.000000;fill: none;"></path>
  <path d="M354.330643 557.764160L345.827042 554.926743" style="stroke:rgb(0.000000%,0.000000%,0.000000%); stroke-width: 1.000000;stroke-linecap: round;stroke-linejoin: round;stroke-miterlimit: 10.000000;fill: none;"></path>
  <path d="M433.700348 387.683716L445.041351 362.172958" style="stroke:rgb(0.000000%,0.000000%,0.000000%); stroke-width: 1.000000;stroke-linecap: round;stroke-linejoin: round;stroke-miterlimit: 10.000000;fill: none;"></path>
  <path d="M445.041351 362.172958L413.855759 345.165771" style="stroke:rgb(0.000000%,0.000000%,0.000000%); stroke-width: 1.000000;stroke-linecap: round;stroke-linejoin: round;stroke-miterlimit: 10.000000;fill: none;"></path>
  <path d="M306.137863 308.314011L303.309097 333.824768" style="stroke:rgb(0.000000%,0.000000%,0.000000%); stroke-width: 1.000000;stroke-linecap: round;stroke-linejoin: round;stroke-miterlimit: 10.000000;fill: none;"></path>
  <path d="M413.855759 345.165771L391.182404 325.321182" style="stroke:rgb(0.000000%,0.000000%,0.000000%); stroke-width: 1.000000;stroke-linecap: round;stroke-linejoin: round;stroke-miterlimit: 10.000000;fill: none;"></path>
  <path d="M391.182404 325.321182L365.671631 308.314011" style="stroke:rgb(0.000000%,0.000000%,0.000000%); stroke-width: 1.000000;stroke-linecap: round;stroke-linejoin: round;stroke-miterlimit: 10.000000;fill: none;"></path>
  <path d="M342.989639 296.973007L328.819870 294.144241" style="stroke:rgb(0.000000%,0.000000%,0.000000%); stroke-width: 1.000000;stroke-linecap: round;stroke-linejoin: round;stroke-miterlimit: 10.000000;fill: none;"></path>
  <path d="M328.819870 294.144241L308.975281 305.476593" style="stroke:rgb(0.000000%,0.000000%,0.000000%); stroke-width: 1.000000;stroke-linecap: round;stroke-linejoin: round;stroke-miterlimit: 10.000000;fill: none;"></path>
  <path d="M365.671631 308.314011L354.330643 296.973007" style="stroke:rgb(0.000000%,0.000000%,0.000000%); stroke-width: 1.000000;stroke-linecap: round;stroke-linejoin: round;stroke-miterlimit: 10.000000;fill: none;"></path>
  <path d="M354.330643 296.973007L342.989639 296.973007" style="stroke:rgb(0.000000%,0.000000%,0.000000%); stroke-width: 1.000000;stroke-linecap: round;stroke-linejoin: round;stroke-miterlimit: 10.000000;fill: none;"></path>
  <path d="M323.153687 407.528320L323.153687 495.401611" style="stroke:rgb(0.000000%,0.000000%,0.000000%); stroke-width: 1.000000;stroke-linecap: round;stroke-linejoin: round;stroke-miterlimit: 10.000000;fill: none;"></path>
  <path d="M323.153687 495.401611L325.982452 546.423157" style="stroke:rgb(0.000000%,0.000000%,0.000000%); stroke-width: 1.000000;stroke-linecap: round;stroke-linejoin: round;stroke-miterlimit: 10.000000;fill: none;"></path>
  <path d="M325.982452 546.423157L334.486038 552.097977" style="stroke:rgb(0.000000%,0.000000%,0.000000%); stroke-width: 1.000000;stroke-linecap: round;stroke-linejoin: round;stroke-miterlimit: 10.000000;fill: none;"></path>
  <path d="M334.486038 552.097977L342.989639 549.260574" style="stroke:rgb(0.000000%,0.000000%,0.000000%); stroke-width: 1.000000;stroke-linecap: round;stroke-linejoin: round;stroke-miterlimit: 10.000000;fill: none;"></path>
  <path d="M342.989639 549.260574L348.664459 518.074966" style="stroke:rgb(0.000000%,0.000000%,0.000000%); stroke-width: 1.000000;stroke-linecap: round;stroke-linejoin: round;stroke-miterlimit: 10.000000;fill: none;"></path>
  <path d="M348.664459 518.074966L357.168045 489.735443" style="stroke:rgb(0.000000%,0.000000%,0.000000%); stroke-width: 1.000000;stroke-linecap: round;stroke-linejoin: round;stroke-miterlimit: 10.000000;fill: none;"></path>
  <path d="M357.168045 489.735443L374.175232 489.735443" style="stroke:rgb(0.000000%,0.000000%,0.000000%); stroke-width: 1.000000;stroke-linecap: round;stroke-linejoin: round;stroke-miterlimit: 10.000000;fill: none;"></path>
  <path d="M374.175232 489.735443L371.337814 469.890854" style="stroke:rgb(0.000000%,0.000000%,0.000000%); stroke-width: 1.000000;stroke-linecap: round;stroke-linejoin: round;stroke-miterlimit: 10.000000;fill: none;"></path>
  <path d="M371.337814 469.890854L382.678818 472.728271" style="stroke:rgb(0.000000%,0.000000%,0.000000%); stroke-width: 1.000000;stroke-linecap: round;stroke-linejoin: round;stroke-miterlimit: 10.000000;fill: none;"></path>
  <path d="M382.678818 472.728271L388.344986 464.224670" style="stroke:rgb(0.000000%,0.000000%,0.000000%); stroke-width: 1.000000;stroke-linecap: round;stroke-linejoin: round;stroke-miterlimit: 10.000000;fill: none;"></path>
  <path d="M388.344986 464.224670L402.523407 433.039078" style="stroke:rgb(0.000000%,0.000000%,0.000000%); stroke-width: 1.000000;stroke-linecap: round;stroke-linejoin: round;stroke-miterlimit: 10.000000;fill: none;"></path>
  <path d="M429.556686 502.322144C429.556686 485.671707,422.941345 469.705215,411.168594 457.932465C399.395844 446.159714,383.429352 439.544373,366.778915 439.544373C350.128479 439.544373,334.161987 446.159714,322.389236 457.932465C310.616486 469.705215,304.001144 485.671707,304.001144 502.322144C304.001144 518.972580,310.616486 534.939072,322.389236 546.711823C334.161987 558.484573,350.128479 565.099915,366.778915 565.099915C383.429352 565.099915,399.395844 558.484573,411.168594 546.711823C422.941345 534.939072,429.556686 518.972580,429.556686 502.322144Z" style="stroke:rgb(25.500488%,41.000366%,88.400269%); stroke-width: 1.000000;stroke-linecap: round;stroke-linejoin: round;stroke-miterlimit: 10.000000;fill: none;"></path>
  <path d="M391.493835 406.853561C391.493835 390.203125,384.878494 374.236633,373.105743 362.463882C361.332993 350.691132,345.366501 344.075790,328.716064 344.075790C312.065628 344.075790,296.099136 350.691132,284.326385 362.463882C272.553635 374.236633,265.938293 390.203125,265.938293 406.853561C265.938293 423.503998,272.553635 439.470490,284.326385 451.243240C296.099136 463.015991,312.065628 469.631332,328.716064 469.631332C345.366501 469.631332,361.332993 463.015991,373.105743 451.243240C384.878494 439.470490,391.493835 423.503998,391.493835 406.853561Z" style="stroke:rgb(25.500488%,41.000366%,88.400269%); stroke-width: 1.000000;stroke-linecap: round;stroke-linejoin: round;stroke-miterlimit: 10.000000;fill: none;"></path>
  <path d="M453.795807 384.309967C453.795807 367.659531,447.180466 351.693039,435.407715 339.920288C423.634964 328.147537,407.668472 321.532196,391.018036 321.532196C374.367599 321.532196,358.401108 328.147537,346.628357 339.920288C334.855606 351.693039,328.240265 367.659531,328.240265 384.309967C328.240265 400.960403,334.855606 416.926895,346.628357 428.699646C358.401108 440.472397,374.367599 447.087738,391.018036 447.087738C407.668472 447.087738,423.634964 440.472397,435.407715 428.699646C447.180466 416.926895,453.795807 400.960403,453.795807 384.309967Z" style="stroke:rgb(25.500488%,41.000366%,88.400269%); stroke-width: 1.000000;stroke-linecap: round;stroke-linejoin: round;stroke-miterlimit: 10.000000;fill: none;"></path>
  <path d="M388.466110 303.703217C388.466110 287.052780,381.850769 271.086288,370.078018 259.313538C358.305267 247.540787,342.338776 240.925446,325.688339 240.925446C309.037903 240.925446,293.071411 247.540787,281.298660 259.313538C269.525909 271.086288,262.910568 287.052780,262.910568 303.703217C262.910568 320.353653,269.525909 336.320145,281.298660 348.092896C293.071411 359.865646,309.037903 366.480988,325.688339 366.480988C342.338776 366.480988,358.305267 359.865646,370.078018 348.092896C381.850769 336.320145,388.466110 320.353653,388.466110 303.703217Z" style="stroke:rgb(25.500488%,41.000366%,88.400269%); stroke-width: 1.000000;stroke-linecap: round;stroke-linejoin: round;stroke-miterlimit: 10.000000;fill: none;"></path>
  <path d="M313.387115 224.679520C313.387115 208.029083,306.771774 192.062592,294.999023 180.289841C283.226273 168.517090,267.259781 161.901749,250.609344 161.901749C233.958908 161.901749,217.992416 168.517090,206.219666 180.289841C194.446915 192.062592,187.831573 208.029083,187.831573 224.679520C187.831573 241.329956,194.446915 257.296448,206.219666 269.069199C217.992416 280.841949,233.958908 287.457291,250.609344 287.457291C267.259781 287.457291,283.226273 280.841949,294.999023 269.069199C306.771774 257.296448,313.387115 241.329956,313.387115 224.679520Z" style="stroke:rgb(25.500488%,41.000366%,88.400269%); stroke-width: 1.000000;stroke-linecap: round;stroke-linejoin: round;stroke-miterlimit: 10.000000;fill: none;"></path>
  <path d="M397.160004 150.846222C397.160004 134.195786,390.544662 118.229294,378.771912 106.456543C366.999161 94.683792,351.032669 88.068451,334.382233 88.068451C317.731796 88.068451,301.765305 94.683792,289.992554 106.456543C278.219803 118.229294,271.604462 134.195786,271.604462 150.846222C271.604462 167.496658,278.219803 183.463150,289.992554 195.235901C301.765305 207.008652,317.731796 213.623993,334.382233 213.623993C351.032669 213.623993,366.999161 207.008652,378.771912 195.235901C390.544662 183.463150,397.160004 167.496658,397.160004 150.846222Z" style="stroke:rgb(25.500488%,41.000366%,88.400269%); stroke-width: 1.000000;stroke-linecap: round;stroke-linejoin: round;stroke-miterlimit: 10.000000;fill: none;"></path>
  <path d="M282.123657 160.310028C282.123657 143.659592,275.508316 127.693100,263.735565 115.920349C251.962814 104.147598,235.996323 97.532257,219.345886 97.532257C202.695450 97.532257,186.728958 104.147598,174.956207 115.920349C163.183456 127.693100,156.568115 143.659592,156.568115 160.310028C156.568115 176.960464,163.183456 192.926956,174.956207 204.699707C186.728958 216.472458,202.695450 223.087799,219.345886 223.087799C235.996323 223.087799,251.962814 216.472458,263.735565 204.699707C275.508316 192.926956,282.123657 176.960464,282.123657 160.310028Z" style="stroke:rgb(25.500488%,41.000366%,88.400269%); stroke-width: 1.000000;stroke-linecap: round;stroke-linejoin: round;stroke-miterlimit: 10.000000;fill: none;"></path>
  <path d="M402.955948 62.618240C402.955948 45.967804,396.340607 30.001312,384.567856 18.228561C372.795105 6.455811,356.828613 -0.159531,340.178177 -0.159531C323.527740 -0.159531,307.561249 6.455811,295.788498 18.228561C284.015747 30.001312,277.400406 45.967804,277.400406 62.618240C277.400406 79.268677,284.015747 95.235168,295.788498 107.007919C307.561249 118.780670,323.527740 125.396011,340.178177 125.396011C356.828613 125.396011,372.795105 118.780670,384.567856 107.007919C396.340607 95.235168,402.955948 79.268677,402.955948 62.618240Z" style="stroke:rgb(25.500488%,41.000366%,88.400269%); stroke-width: 1.000000;stroke-linecap: round;stroke-linejoin: round;stroke-miterlimit: 10.000000;fill: none;"></path>
  <path d="M201.335236 65.741119C201.335236 49.090683,194.719894 33.124191,182.947144 21.351440C171.174393 9.578690,155.207901 2.963348,138.557465 2.963348C121.907028 2.963348,105.940536 9.578690,94.167786 21.351440C82.395035 33.124191,75.779694 49.090683,75.779694 65.741119C75.779694 82.391556,82.395035 98.358047,94.167786 110.130798C105.940536 121.903549,121.907028 128.518890,138.557465 128.518890C155.207901 128.518890,171.174393 121.903549,182.947144 110.130798C194.719894 98.358047,201.335236 82.391556,201.335236 65.741119Z" style="stroke:rgb(25.500488%,41.000366%,88.400269%); stroke-width: 1.000000;stroke-linecap: round;stroke-linejoin: round;stroke-miterlimit: 10.000000;fill: none;"></path>
  <path d="M296.933578 83.111633C296.933578 66.461197,290.318237 50.494705,278.545486 38.721954C266.772736 26.949203,250.806244 20.333862,234.155807 20.333862C217.505371 20.333862,201.538879 26.949203,189.766129 38.721954C177.993378 50.494705,171.378036 66.461197,171.378036 83.111633C171.378036 99.762070,177.993378 115.728561,189.766129 127.501312C201.538879 139.274063,217.505371 145.889404,234.155807 145.889404C250.806244 145.889404,266.772736 139.274063,278.545486 127.501312C290.318237 115.728561,296.933578 99.762070,296.933578 83.111633Z" style="stroke:rgb(25.500488%,41.000366%,88.400269%); stroke-width: 1.000000;stroke-linecap: round;stroke-linejoin: round;stroke-miterlimit: 10.000000;fill: none;"></path>
  <path d="M366.778915 502.322144L337.323456 557.764160" style="stroke:rgb(60.000610%,60.000610%,60.000610%); stroke-width: 1.500000;stroke-linecap: round;stroke-dasharray: 3.000000 3.000000 ;stroke-linejoin: round;stroke-miterlimit: 10.000000;fill: none;"></path>
  <path d="M368.778915 502.322144C368.778915 501.791687,368.568161 501.283020,368.193100 500.907959C367.818039 500.532898,367.309372 500.322144,366.778915 500.322144C366.248459 500.322144,365.739792 500.532898,365.364731 500.907959C364.989670 501.283020,364.778915 501.791687,364.778915 502.322144C364.778915 502.852600,364.989670 503.361267,365.364731 503.736328C365.739792 504.111389,366.248459 504.322144,366.778915 504.322144C367.309372 504.322144,367.818039 504.111389,368.193100 503.736328C368.568161 503.361267,368.778915 502.852600,368.778915 502.322144Z" style="stroke:rgb(39.999390%,39.999390%,39.999390%); stroke-width: 0.500000;stroke-linecap: round;stroke-linejoin: round;stroke-miterlimit: 10.000000;fill: none;"></path>
  <path d="M368.778915 502.322144C368.778915 501.791687,368.568161 501.283020,368.193100 500.907959C367.818039 500.532898,367.309372 500.322144,366.778915 500.322144C366.248459 500.322144,365.739792 500.532898,365.364731 500.907959C364.989670 501.283020,364.778915 501.791687,364.778915 502.322144C364.778915 502.852600,364.989670 503.361267,365.364731 503.736328C365.739792 504.111389,366.248459 504.322144,366.778915 504.322144C367.309372 504.322144,367.818039 504.111389,368.193100 503.736328C368.568161 503.361267,368.778915 502.852600,368.778915 502.322144Z" style="fill: rgb(89.999390%,0.000000%,0.000000%);stroke: none;"></path>
  <path d="M339.323456 557.764160C339.323456 557.233704,339.112701 556.725037,338.737640 556.349976C338.362579 555.974915,337.853912 555.764160,337.323456 555.764160C336.792999 555.764160,336.284332 555.974915,335.909271 556.349976C335.534210 556.725037,335.323456 557.233704,335.323456 557.764160C335.323456 558.294617,335.534210 558.803284,335.909271 559.178345C336.284332 559.553406,336.792999 559.764160,337.323456 559.764160C337.853912 559.764160,338.362579 559.553406,338.737640 559.178345C339.112701 558.803284,339.323456 558.294617,339.323456 557.764160Z" style="stroke:rgb(39.999390%,39.999390%,39.999390%); stroke-width: 0.500000;stroke-linecap: round;stroke-linejoin: round;stroke-miterlimit: 10.000000;fill: none;"></path>
  <path d="M339.323456 557.764160C339.323456 557.233704,339.112701 556.725037,338.737640 556.349976C338.362579 555.974915,337.853912 555.764160,337.323456 555.764160C336.792999 555.764160,336.284332 555.974915,335.909271 556.349976C335.534210 556.725037,335.323456 557.233704,335.323456 557.764160C335.323456 558.294617,335.534210 558.803284,335.909271 559.178345C336.284332 559.553406,336.792999 559.764160,337.323456 559.764160C337.853912 559.764160,338.362579 559.553406,338.737640 559.178345C339.112701 558.803284,339.323456 558.294617,339.323456 557.764160Z" style="fill: rgb(100.000000%,100.000000%,0.000000%);stroke: none;"></path>
  <path d="M250.609344 224.679520L289.130692 274.299652" style="stroke:rgb(60.000610%,60.000610%,60.000610%); stroke-width: 1.500000;stroke-linecap: round;stroke-dasharray: 3.000000 3.000000 ;stroke-linejoin: round;stroke-miterlimit: 10.000000;fill: none;"></path>
  <path d="M252.609344 224.679520C252.609344 224.149063,252.398590 223.640396,252.023529 223.265335C251.648468 222.890274,251.139801 222.679520,250.609344 222.679520C250.078888 222.679520,249.570221 222.890274,249.195160 223.265335C248.820099 223.640396,248.609344 224.149063,248.609344 224.679520C248.609344 225.209976,248.820099 225.718643,249.195160 226.093704C249.570221 226.468765,250.078888 226.679520,250.609344 226.679520C251.139801 226.679520,251.648468 226.468765,252.023529 226.093704C252.398590 225.718643,252.609344 225.209976,252.609344 224.679520Z" style="stroke:rgb(39.999390%,39.999390%,39.999390%); stroke-width: 0.500000;stroke-linecap: round;stroke-linejoin: round;stroke-miterlimit: 10.000000;fill: none;"></path>
  <path d="M252.609344 224.679520C252.609344 224.149063,252.398590 223.640396,252.023529 223.265335C251.648468 222.890274,251.139801 222.679520,250.609344 222.679520C250.078888 222.679520,249.570221 222.890274,249.195160 223.265335C248.820099 223.640396,248.609344 224.149063,248.609344 224.679520C248.609344 225.209976,248.820099 225.718643,249.195160 226.093704C249.570221 226.468765,250.078888 226.679520,250.609344 226.679520C251.139801 226.679520,251.648468 226.468765,252.023529 226.093704C252.398590 225.718643,252.609344 225.209976,252.609344 224.679520Z" style="fill: rgb(89.999390%,0.000000%,0.000000%);stroke: none;"></path>
  <path d="M291.130692 274.299652C291.130692 273.769196,290.919937 273.260529,290.544876 272.885468C290.169815 272.510406,289.661148 272.299652,289.130692 272.299652C288.600235 272.299652,288.091568 272.510406,287.716507 272.885468C287.341446 273.260529,287.130692 273.769196,287.130692 274.299652C287.130692 274.830109,287.341446 275.338776,287.716507 275.713837C288.091568 276.088898,288.600235 276.299652,289.130692 276.299652C289.661148 276.299652,290.169815 276.088898,290.544876 275.713837C290.919937 275.338776,291.130692 274.830109,291.130692 274.299652Z" style="stroke:rgb(39.999390%,39.999390%,39.999390%); stroke-width: 0.500000;stroke-linecap: round;stroke-linejoin: round;stroke-miterlimit: 10.000000;fill: none;"></path>
  <path d="M291.130692 274.299652C291.130692 273.769196,290.919937 273.260529,290.544876 272.885468C290.169815 272.510406,289.661148 272.299652,289.130692 272.299652C288.600235 272.299652,288.091568 272.510406,287.716507 272.885468C287.341446 273.260529,287.130692 273.769196,287.130692 274.299652C287.130692 274.830109,287.341446 275.338776,287.716507 275.713837C288.091568 276.088898,288.600235 276.299652,289.130692 276.299652C289.661148 276.299652,290.169815 276.088898,290.544876 275.713837C290.919937 275.338776,291.130692 274.830109,291.130692 274.299652Z" style="fill: rgb(100.000000%,100.000000%,0.000000%);stroke: none;"></path>
  <path d="M334.382233 150.846222L391.182404 124.063812" style="stroke:rgb(60.000610%,60.000610%,60.000610%); stroke-width: 1.500000;stroke-linecap: round;stroke-dasharray: 3.000000 3.000000 ;stroke-linejoin: round;stroke-miterlimit: 10.000000;fill: none;"></path>
  <path d="M336.382233 150.846222C336.382233 150.315765,336.171478 149.807098,335.796417 149.432037C335.421356 149.056976,334.912689 148.846222,334.382233 148.846222C333.851776 148.846222,333.343109 149.056976,332.968048 149.432037C332.592987 149.807098,332.382233 150.315765,332.382233 150.846222C332.382233 151.376678,332.592987 151.885345,332.968048 152.260406C333.343109 152.635468,333.851776 152.846222,334.382233 152.846222C334.912689 152.846222,335.421356 152.635468,335.796417 152.260406C336.171478 151.885345,336.382233 151.376678,336.382233 150.846222Z" style="stroke:rgb(39.999390%,39.999390%,39.999390%); stroke-width: 0.500000;stroke-linecap: round;stroke-linejoin: round;stroke-miterlimit: 10.000000;fill: none;"></path>
  <path d="M336.382233 150.846222C336.382233 150.315765,336.171478 149.807098,335.796417 149.432037C335.421356 149.056976,334.912689 148.846222,334.382233 148.846222C333.851776 148.846222,333.343109 149.056976,332.968048 149.432037C332.592987 149.807098,332.382233 150.315765,332.382233 150.846222C332.382233 151.376678,332.592987 151.885345,332.968048 152.260406C333.343109 152.635468,333.851776 152.846222,334.382233 152.846222C334.912689 152.846222,335.421356 152.635468,335.796417 152.260406C336.171478 151.885345,336.382233 151.376678,336.382233 150.846222Z" style="fill: rgb(89.999390%,0.000000%,0.000000%);stroke: none;"></path>
  <path d="M393.182404 124.063812C393.182404 123.533356,392.971649 123.024689,392.596588 122.649628C392.221527 122.274567,391.712860 122.063812,391.182404 122.063812C390.651947 122.063812,390.143280 122.274567,389.768219 122.649628C389.393158 123.024689,389.182404 123.533356,389.182404 124.063812C389.182404 124.594269,389.393158 125.102936,389.768219 125.477997C390.143280 125.853058,390.651947 126.063812,391.182404 126.063812C391.712860 126.063812,392.221527 125.853058,392.596588 125.477997C392.971649 125.102936,393.182404 124.594269,393.182404 124.063812Z" style="stroke:rgb(39.999390%,39.999390%,39.999390%); stroke-width: 0.500000;stroke-linecap: round;stroke-linejoin: round;stroke-miterlimit: 10.000000;fill: none;"></path>
  <path d="M393.182404 124.063812C393.182404 123.533356,392.971649 123.024689,392.596588 122.649628C392.221527 122.274567,391.712860 122.063812,391.182404 122.063812C390.651947 122.063812,390.143280 122.274567,389.768219 122.649628C389.393158 123.024689,389.182404 123.533356,389.182404 124.063812C389.182404 124.594269,389.393158 125.102936,389.768219 125.477997C390.143280 125.853058,390.651947 126.063812,391.182404 126.063812C391.712860 126.063812,392.221527 125.853058,392.596588 125.477997C392.971649 125.102936,393.182404 124.594269,393.182404 124.063812Z" style="fill: rgb(100.000000%,100.000000%,0.000000%);stroke: none;"></path>
  <path d="M334.382233 150.846222L274.839813 130.949722" style="stroke:rgb(60.000610%,60.000610%,60.000610%); stroke-width: 1.500000;stroke-linecap: round;stroke-dasharray: 3.000000 3.000000 ;stroke-linejoin: round;stroke-miterlimit: 10.000000;fill: none;"></path>
  <path d="M219.345886 160.310028L274.839813 130.949722" style="stroke:rgb(60.000610%,60.000610%,60.000610%); stroke-width: 1.500000;stroke-linecap: round;stroke-dasharray: 3.000000 3.000000 ;stroke-linejoin: round;stroke-miterlimit: 10.000000;fill: none;"></path>
  <path d="M336.382233 150.846222C336.382233 150.315765,336.171478 149.807098,335.796417 149.432037C335.421356 149.056976,334.912689 148.846222,334.382233 148.846222C333.851776 148.846222,333.343109 149.056976,332.968048 149.432037C332.592987 149.807098,332.382233 150.315765,332.382233 150.846222C332.382233 151.376678,332.592987 151.885345,332.968048 152.260406C333.343109 152.635468,333.851776 152.846222,334.382233 152.846222C334.912689 152.846222,335.421356 152.635468,335.796417 152.260406C336.171478 151.885345,336.382233 151.376678,336.382233 150.846222Z" style="stroke:rgb(39.999390%,39.999390%,39.999390%); stroke-width: 0.500000;stroke-linecap: round;stroke-linejoin: round;stroke-miterlimit: 10.000000;fill: none;"></path>
  <path d="M336.382233 150.846222C336.382233 150.315765,336.171478 149.807098,335.796417 149.432037C335.421356 149.056976,334.912689 148.846222,334.382233 148.846222C333.851776 148.846222,333.343109 149.056976,332.968048 149.432037C332.592987 149.807098,332.382233 150.315765,332.382233 150.846222C332.382233 151.376678,332.592987 151.885345,332.968048 152.260406C333.343109 152.635468,333.851776 152.846222,334.382233 152.846222C334.912689 152.846222,335.421356 152.635468,335.796417 152.260406C336.171478 151.885345,336.382233 151.376678,336.382233 150.846222Z" style="fill: rgb(89.999390%,0.000000%,0.000000%);stroke: none;"></path>
  <path d="M221.345886 160.310028C221.345886 159.779572,221.135132 159.270905,220.760071 158.895844C220.385010 158.520782,219.876343 158.310028,219.345886 158.310028C218.815430 158.310028,218.306763 158.520782,217.931702 158.895844C217.556641 159.270905,217.345886 159.779572,217.345886 160.310028C217.345886 160.840485,217.556641 161.349152,217.931702 161.724213C218.306763 162.099274,218.815430 162.310028,219.345886 162.310028C219.876343 162.310028,220.385010 162.099274,220.760071 161.724213C221.135132 161.349152,221.345886 160.840485,221.345886 160.310028Z" style="stroke:rgb(39.999390%,39.999390%,39.999390%); stroke-width: 0.500000;stroke-linecap: round;stroke-linejoin: round;stroke-miterlimit: 10.000000;fill: none;"></path>
  <path d="M221.345886 160.310028C221.345886 159.779572,221.135132 159.270905,220.760071 158.895844C220.385010 158.520782,219.876343 158.310028,219.345886 158.310028C218.815430 158.310028,218.306763 158.520782,217.931702 158.895844C217.556641 159.270905,217.345886 159.779572,217.345886 160.310028C217.345886 160.840485,217.556641 161.349152,217.931702 161.724213C218.306763 162.099274,218.815430 162.310028,219.345886 162.310028C219.876343 162.310028,220.385010 162.099274,220.760071 161.724213C221.135132 161.349152,221.345886 160.840485,221.345886 160.310028Z" style="fill: rgb(89.999390%,0.000000%,0.000000%);stroke: none;"></path>
  <path d="M276.839813 130.949722C276.839813 130.419266,276.629059 129.910599,276.253998 129.535538C275.878937 129.160477,275.370270 128.949722,274.839813 128.949722C274.309357 128.949722,273.800690 129.160477,273.425629 129.535538C273.050568 129.910599,272.839813 130.419266,272.839813 130.949722C272.839813 131.480179,273.050568 131.988846,273.425629 132.363907C273.800690 132.738968,274.309357 132.949722,274.839813 132.949722C275.370270 132.949722,275.878937 132.738968,276.253998 132.363907C276.629059 131.988846,276.839813 131.480179,276.839813 130.949722Z" style="stroke:rgb(39.999390%,39.999390%,39.999390%); stroke-width: 0.500000;stroke-linecap: round;stroke-linejoin: round;stroke-miterlimit: 10.000000;fill: none;"></path>
  <path d="M276.839813 130.949722C276.839813 130.419266,276.629059 129.910599,276.253998 129.535538C275.878937 129.160477,275.370270 128.949722,274.839813 128.949722C274.309357 128.949722,273.800690 129.160477,273.425629 129.535538C273.050568 129.910599,272.839813 130.419266,272.839813 130.949722C272.839813 131.480179,273.050568 131.988846,273.425629 132.363907C273.800690 132.738968,274.309357 132.949722,274.839813 132.949722C275.370270 132.949722,275.878937 132.738968,276.253998 132.363907C276.629059 131.988846,276.839813 131.480179,276.839813 130.949722Z" style="fill: rgb(9.800720%,9.800720%,44.000244%);stroke: none;"></path>
  <path d="M334.382233 150.846222L274.848465 130.923767" style="stroke:rgb(60.000610%,60.000610%,60.000610%); stroke-width: 1.500000;stroke-linecap: round;stroke-dasharray: 3.000000 3.000000 ;stroke-linejoin: round;stroke-miterlimit: 10.000000;fill: none;"></path>
  <path d="M234.155807 83.111633L274.848465 130.923767" style="stroke:rgb(60.000610%,60.000610%,60.000610%); stroke-width: 1.500000;stroke-linecap: round;stroke-dasharray: 3.000000 3.000000 ;stroke-linejoin: round;stroke-miterlimit: 10.000000;fill: none;"></path>
  <path d="M336.382233 150.846222C336.382233 150.315765,336.171478 149.807098,335.796417 149.432037C335.421356 149.056976,334.912689 148.846222,334.382233 148.846222C333.851776 148.846222,333.343109 149.056976,332.968048 149.432037C332.592987 149.807098,332.382233 150.315765,332.382233 150.846222C332.382233 151.376678,332.592987 151.885345,332.968048 152.260406C333.343109 152.635468,333.851776 152.846222,334.382233 152.846222C334.912689 152.846222,335.421356 152.635468,335.796417 152.260406C336.171478 151.885345,336.382233 151.376678,336.382233 150.846222Z" style="stroke:rgb(39.999390%,39.999390%,39.999390%); stroke-width: 0.500000;stroke-linecap: round;stroke-linejoin: round;stroke-miterlimit: 10.000000;fill: none;"></path>
  <path d="M336.382233 150.846222C336.382233 150.315765,336.171478 149.807098,335.796417 149.432037C335.421356 149.056976,334.912689 148.846222,334.382233 148.846222C333.851776 148.846222,333.343109 149.056976,332.968048 149.432037C332.592987 149.807098,332.382233 150.315765,332.382233 150.846222C332.382233 151.376678,332.592987 151.885345,332.968048 152.260406C333.343109 152.635468,333.851776 152.846222,334.382233 152.846222C334.912689 152.846222,335.421356 152.635468,335.796417 152.260406C336.171478 151.885345,336.382233 151.376678,336.382233 150.846222Z" style="fill: rgb(89.999390%,0.000000%,0.000000%);stroke: none;"></path>
  <path d="M236.155807 83.111633C236.155807 82.581177,235.945053 82.072510,235.569992 81.697449C235.194931 81.322388,234.686264 81.111633,234.155807 81.111633C233.625351 81.111633,233.116684 81.322388,232.741623 81.697449C232.366562 82.072510,232.155807 82.581177,232.155807 83.111633C232.155807 83.642090,232.366562 84.150757,232.741623 84.525818C233.116684 84.900879,233.625351 85.111633,234.155807 85.111633C234.686264 85.111633,235.194931 84.900879,235.569992 84.525818C235.945053 84.150757,236.155807 83.642090,236.155807 83.111633Z" style="stroke:rgb(39.999390%,39.999390%,39.999390%); stroke-width: 0.500000;stroke-linecap: round;stroke-linejoin: round;stroke-miterlimit: 10.000000;fill: none;"></path>
  <path d="M236.155807 83.111633C236.155807 82.581177,235.945053 82.072510,235.569992 81.697449C235.194931 81.322388,234.686264 81.111633,234.155807 81.111633C233.625351 81.111633,233.116684 81.322388,232.741623 81.697449C232.366562 82.072510,232.155807 82.581177,232.155807 83.111633C232.155807 83.642090,232.366562 84.150757,232.741623 84.525818C233.116684 84.900879,233.625351 85.111633,234.155807 85.111633C234.686264 85.111633,235.194931 84.900879,235.569992 84.525818C235.945053 84.150757,236.155807 83.642090,236.155807 83.111633Z" style="fill: rgb(89.999390%,0.000000%,0.000000%);stroke: none;"></path>
  <path d="M276.848465 130.923767C276.848465 130.393311,276.637711 129.884644,276.262650 129.509583C275.887589 129.134521,275.378922 128.923767,274.848465 128.923767C274.318008 128.923767,273.809341 129.134521,273.434280 129.509583C273.059219 129.884644,272.848465 130.393311,272.848465 130.923767C272.848465 131.454224,273.059219 131.962891,273.434280 132.337952C273.809341 132.713013,274.318008 132.923767,274.848465 132.923767C275.378922 132.923767,275.887589 132.713013,276.262650 132.337952C276.637711 131.962891,276.848465 131.454224,276.848465 130.923767Z" style="stroke:rgb(39.999390%,39.999390%,39.999390%); stroke-width: 0.500000;stroke-linecap: round;stroke-linejoin: round;stroke-miterlimit: 10.000000;fill: none;"></path>
  <path d="M276.848465 130.923767C276.848465 130.393311,276.637711 129.884644,276.262650 129.509583C275.887589 129.134521,275.378922 128.923767,274.848465 128.923767C274.318008 128.923767,273.809341 129.134521,273.434280 129.509583C273.059219 129.884644,272.848465 130.393311,272.848465 130.923767C272.848465 131.454224,273.059219 131.962891,273.434280 132.337952C273.809341 132.713013,274.318008 132.923767,274.848465 132.923767C275.378922 132.923767,275.887589 132.713013,276.262650 132.337952C276.637711 131.962891,276.848465 131.454224,276.848465 130.923767Z" style="fill: rgb(9.800720%,9.800720%,44.000244%);stroke: none;"></path>
  <path d="M219.345886 160.310028L274.831161 130.941071" style="stroke:rgb(60.000610%,60.000610%,60.000610%); stroke-width: 1.500000;stroke-linecap: round;stroke-dasharray: 3.000000 3.000000 ;stroke-linejoin: round;stroke-miterlimit: 10.000000;fill: none;"></path>
  <path d="M234.155807 83.111633L274.831161 130.941071" style="stroke:rgb(60.000610%,60.000610%,60.000610%); stroke-width: 1.500000;stroke-linecap: round;stroke-dasharray: 3.000000 3.000000 ;stroke-linejoin: round;stroke-miterlimit: 10.000000;fill: none;"></path>
  <path d="M221.345886 160.310028C221.345886 159.779572,221.135132 159.270905,220.760071 158.895844C220.385010 158.520782,219.876343 158.310028,219.345886 158.310028C218.815430 158.310028,218.306763 158.520782,217.931702 158.895844C217.556641 159.270905,217.345886 159.779572,217.345886 160.310028C217.345886 160.840485,217.556641 161.349152,217.931702 161.724213C218.306763 162.099274,218.815430 162.310028,219.345886 162.310028C219.876343 162.310028,220.385010 162.099274,220.760071 161.724213C221.135132 161.349152,221.345886 160.840485,221.345886 160.310028Z" style="stroke:rgb(39.999390%,39.999390%,39.999390%); stroke-width: 0.500000;stroke-linecap: round;stroke-linejoin: round;stroke-miterlimit: 10.000000;fill: none;"></path>
  <path d="M221.345886 160.310028C221.345886 159.779572,221.135132 159.270905,220.760071 158.895844C220.385010 158.520782,219.876343 158.310028,219.345886 158.310028C218.815430 158.310028,218.306763 158.520782,217.931702 158.895844C217.556641 159.270905,217.345886 159.779572,217.345886 160.310028C217.345886 160.840485,217.556641 161.349152,217.931702 161.724213C218.306763 162.099274,218.815430 162.310028,219.345886 162.310028C219.876343 162.310028,220.385010 162.099274,220.760071 161.724213C221.135132 161.349152,221.345886 160.840485,221.345886 160.310028Z" style="fill: rgb(89.999390%,0.000000%,0.000000%);stroke: none;"></path>
  <path d="M236.155807 83.111633C236.155807 82.581177,235.945053 82.072510,235.569992 81.697449C235.194931 81.322388,234.686264 81.111633,234.155807 81.111633C233.625351 81.111633,233.116684 81.322388,232.741623 81.697449C232.366562 82.072510,232.155807 82.581177,232.155807 83.111633C232.155807 83.642090,232.366562 84.150757,232.741623 84.525818C233.116684 84.900879,233.625351 85.111633,234.155807 85.111633C234.686264 85.111633,235.194931 84.900879,235.569992 84.525818C235.945053 84.150757,236.155807 83.642090,236.155807 83.111633Z" style="stroke:rgb(39.999390%,39.999390%,39.999390%); stroke-width: 0.500000;stroke-linecap: round;stroke-linejoin: round;stroke-miterlimit: 10.000000;fill: none;"></path>
  <path d="M236.155807 83.111633C236.155807 82.581177,235.945053 82.072510,235.569992 81.697449C235.194931 81.322388,234.686264 81.111633,234.155807 81.111633C233.625351 81.111633,233.116684 81.322388,232.741623 81.697449C232.366562 82.072510,232.155807 82.581177,232.155807 83.111633C232.155807 83.642090,232.366562 84.150757,232.741623 84.525818C233.116684 84.900879,233.625351 85.111633,234.155807 85.111633C234.686264 85.111633,235.194931 84.900879,235.569992 84.525818C235.945053 84.150757,236.155807 83.642090,236.155807 83.111633Z" style="fill: rgb(89.999390%,0.000000%,0.000000%);stroke: none;"></path>
  <path d="M276.831161 130.941071C276.831161 130.410614,276.620407 129.901947,276.245346 129.526886C275.870285 129.151825,275.361618 128.941071,274.831161 128.941071C274.300705 128.941071,273.792038 129.151825,273.416977 129.526886C273.041916 129.901947,272.831161 130.410614,272.831161 130.941071C272.831161 131.471527,273.041916 131.980194,273.416977 132.355255C273.792038 132.730316,274.300705 132.941071,274.831161 132.941071C275.361618 132.941071,275.870285 132.730316,276.245346 132.355255C276.620407 131.980194,276.831161 131.471527,276.831161 130.941071Z" style="stroke:rgb(39.999390%,39.999390%,39.999390%); stroke-width: 0.500000;stroke-linecap: round;stroke-linejoin: round;stroke-miterlimit: 10.000000;fill: none;"></path>
  <path d="M276.831161 130.941071C276.831161 130.410614,276.620407 129.901947,276.245346 129.526886C275.870285 129.151825,275.361618 128.941071,274.831161 128.941071C274.300705 128.941071,273.792038 129.151825,273.416977 129.526886C273.041916 129.901947,272.831161 130.410614,272.831161 130.941071C272.831161 131.471527,273.041916 131.980194,273.416977 132.355255C273.792038 132.730316,274.300705 132.941071,274.831161 132.941071C275.361618 132.941071,275.870285 132.730316,276.245346 132.355255C276.620407 131.980194,276.831161 131.471527,276.831161 130.941071Z" style="fill: rgb(9.800720%,9.800720%,44.000244%);stroke: none;"></path>
  <path d="M138.557465 65.741119L76.532303 56.035095" style="stroke:rgb(60.000610%,60.000610%,60.000610%); stroke-width: 1.500000;stroke-linecap: round;stroke-dasharray: 3.000000 3.000000 ;stroke-linejoin: round;stroke-miterlimit: 10.000000;fill: none;"></path>
  <path d="M140.557465 65.741119C140.557465 65.210663,140.346710 64.701996,139.971649 64.326935C139.596588 63.951874,139.087921 63.741119,138.557465 63.741119C138.027008 63.741119,137.518341 63.951874,137.143280 64.326935C136.768219 64.701996,136.557465 65.210663,136.557465 65.741119C136.557465 66.271576,136.768219 66.780243,137.143280 67.155304C137.518341 67.530365,138.027008 67.741119,138.557465 67.741119C139.087921 67.741119,139.596588 67.530365,139.971649 67.155304C140.346710 66.780243,140.557465 66.271576,140.557465 65.741119Z" style="stroke:rgb(39.999390%,39.999390%,39.999390%); stroke-width: 0.500000;stroke-linecap: round;stroke-linejoin: round;stroke-miterlimit: 10.000000;fill: none;"></path>
  <path d="M140.557465 65.741119C140.557465 65.210663,140.346710 64.701996,139.971649 64.326935C139.596588 63.951874,139.087921 63.741119,138.557465 63.741119C138.027008 63.741119,137.518341 63.951874,137.143280 64.326935C136.768219 64.701996,136.557465 65.210663,136.557465 65.741119C136.557465 66.271576,136.768219 66.780243,137.143280 67.155304C137.518341 67.530365,138.027008 67.741119,138.557465 67.741119C139.087921 67.741119,139.596588 67.530365,139.971649 67.155304C140.346710 66.780243,140.557465 66.271576,140.557465 65.741119Z" style="fill: rgb(89.999390%,0.000000%,0.000000%);stroke: none;"></path>
  <path d="M78.532303 56.035095C78.532303 55.504639,78.321548 54.995972,77.946487 54.620911C77.571426 54.245850,77.062759 54.035095,76.532303 54.035095C76.001846 54.035095,75.493179 54.245850,75.118118 54.620911C74.743057 54.995972,74.532303 55.504639,74.532303 56.035095C74.532303 56.565552,74.743057 57.074219,75.118118 57.449280C75.493179 57.824341,76.001846 58.035095,76.532303 58.035095C77.062759 58.035095,77.571426 57.824341,77.946487 57.449280C78.321548 57.074219,78.532303 56.565552,78.532303 56.035095Z" style="stroke:rgb(39.999390%,39.999390%,39.999390%); stroke-width: 0.500000;stroke-linecap: round;stroke-linejoin: round;stroke-miterlimit: 10.000000;fill: none;"></path>
  <path d="M78.532303 56.035095C78.532303 55.504639,78.321548 54.995972,77.946487 54.620911C77.571426 54.245850,77.062759 54.035095,76.532303 54.035095C76.001846 54.035095,75.493179 54.245850,75.118118 54.620911C74.743057 54.995972,74.532303 55.504639,74.532303 56.035095C74.532303 56.565552,74.743057 57.074219,75.118118 57.449280C75.493179 57.824341,76.001846 58.035095,76.532303 58.035095C77.062759 58.035095,77.571426 57.824341,77.946487 57.449280C78.321548 57.074219,78.532303 56.565552,78.532303 56.035095Z" style="fill: rgb(100.000000%,100.000000%,0.000000%);stroke: none;"></path>
  <path d="M138.557465 65.741119L85.035889 98.553040" style="stroke:rgb(60.000610%,60.000610%,60.000610%); stroke-width: 1.500000;stroke-linecap: round;stroke-dasharray: 3.000000 3.000000 ;stroke-linejoin: round;stroke-miterlimit: 10.000000;fill: none;"></path>
  <path d="M140.557465 65.741119C140.557465 65.210663,140.346710 64.701996,139.971649 64.326935C139.596588 63.951874,139.087921 63.741119,138.557465 63.741119C138.027008 63.741119,137.518341 63.951874,137.143280 64.326935C136.768219 64.701996,136.557465 65.210663,136.557465 65.741119C136.557465 66.271576,136.768219 66.780243,137.143280 67.155304C137.518341 67.530365,138.027008 67.741119,138.557465 67.741119C139.087921 67.741119,139.596588 67.530365,139.971649 67.155304C140.346710 66.780243,140.557465 66.271576,140.557465 65.741119Z" style="stroke:rgb(39.999390%,39.999390%,39.999390%); stroke-width: 0.500000;stroke-linecap: round;stroke-linejoin: round;stroke-miterlimit: 10.000000;fill: none;"></path>
  <path d="M140.557465 65.741119C140.557465 65.210663,140.346710 64.701996,139.971649 64.326935C139.596588 63.951874,139.087921 63.741119,138.557465 63.741119C138.027008 63.741119,137.518341 63.951874,137.143280 64.326935C136.768219 64.701996,136.557465 65.210663,136.557465 65.741119C136.557465 66.271576,136.768219 66.780243,137.143280 67.155304C137.518341 67.530365,138.027008 67.741119,138.557465 67.741119C139.087921 67.741119,139.596588 67.530365,139.971649 67.155304C140.346710 66.780243,140.557465 66.271576,140.557465 65.741119Z" style="fill: rgb(89.999390%,0.000000%,0.000000%);stroke: none;"></path>
  <path d="M87.035889 98.553040C87.035889 98.022583,86.825134 97.513916,86.450073 97.138855C86.075012 96.763794,85.566345 96.553040,85.035889 96.553040C84.505432 96.553040,83.996765 96.763794,83.621704 97.138855C83.246643 97.513916,83.035889 98.022583,83.035889 98.553040C83.035889 99.083496,83.246643 99.592163,83.621704 99.967224C83.996765 100.342285,84.505432 100.553040,85.035889 100.553040C85.566345 100.553040,86.075012 100.342285,86.450073 99.967224C86.825134 99.592163,87.035889 99.083496,87.035889 98.553040Z" style="stroke:rgb(39.999390%,39.999390%,39.999390%); stroke-width: 0.500000;stroke-linecap: round;stroke-linejoin: round;stroke-miterlimit: 10.000000;fill: none;"></path>
  <path d="M87.035889 98.553040C87.035889 98.022583,86.825134 97.513916,86.450073 97.138855C86.075012 96.763794,85.566345 96.553040,85.035889 96.553040C84.505432 96.553040,83.996765 96.763794,83.621704 97.138855C83.246643 97.513916,83.035889 98.022583,83.035889 98.553040C83.035889 99.083496,83.246643 99.592163,83.621704 99.967224C83.996765 100.342285,84.505432 100.553040,85.035889 100.553040C85.566345 100.553040,86.075012 100.342285,86.450073 99.967224C86.825134 99.592163,87.035889 99.083496,87.035889 98.553040Z" style="fill: rgb(100.000000%,100.000000%,0.000000%);stroke: none;"></path>
</svg>
