<?xml version="1.0"?>
<!-- Created by MetaPost 2.00 on 2022.03.31:1000 -->
<svg version="1.1" xmlns="http://www.w3.org/2000/svg" xmlns:xlink="http://www.w3.org/1999/xlink" width="746.028595" height="637.912750" viewBox="0 0 746.028595 637.912750">
<!-- Original BoundingBox: -89.549789 -35.491867 656.478806 602.420883 -->
  <path d="M89.000000 602.000000L655.929016 602.000000L655.929016 35.070984L89.000000 35.070984L89.000000 602.000000Z" style="fill: rgb(100.000000%,100.000000%,100.000000%);stroke: none;"></path>
  <path d="M89.000000 602.000000L655.929016 602.000000" style="stroke:rgb(0.000000%,0.000000%,0.000000%); stroke-width: 1.000000;stroke-linecap: round;stroke-linejoin: round;stroke-miterlimit: 10.000000;fill: none;"></path>
  <path d="M655.929016 602.000000L655.929016 35.070984" style="stroke:rgb(0.000000%,0.000000%,0.000000%); stroke-width: 1.000000;stroke-linecap: round;stroke-linejoin: round;stroke-miterlimit: 10.000000;fill: none;"></path>
  <path d="M655.929016 35.070984L89.000000 35.070984" style="stroke:rgb(0.000000%,0.000000%,0.000000%); stroke-width: 1.000000;stroke-linecap: round;stroke-linejoin: round;stroke-miterlimit: 10.000000;fill: none;"></path>
  <path d="M89.000000 35.070984L89.000000 602.000000" style="stroke:rgb(0.000000%,0.000000%,0.000000%); stroke-width: 1.000000;stroke-linecap: round;stroke-linejoin: round;stroke-miterlimit: 10.000000;fill: none;"></path>
  <path d="M564.612747 465.354324C564.612747 420.439209,546.767639 377.369080,515.010254 345.611694C483.252869 313.854309,440.182739 296.009201,395.267624 296.009201C350.352509 296.009201,307.282379 313.854309,275.524994 345.611694C243.767609 377.369080,225.922501 420.439209,225.922501 465.354324C225.922501 510.269440,243.767609 553.339569,275.524994 585.096954C307.282379 616.854340,350.352509 634.699448,395.267624 634.699448C440.182739 634.699448,483.252869 616.854340,515.010254 585.096954C546.767639 553.339569,564.612747 510.269440,564.612747 465.354324Z" style="stroke:rgb(25.500488%,41.000366%,88.400269%); stroke-width: 1.000000;stroke-linecap: round;stroke-linejoin: round;stroke-miterlimit: 10.000000;fill: none;"></path>
  <path d="M744.978806 452.897385C744.978806 407.982269,727.133698 364.912140,695.376312 333.154755C663.618927 301.397369,620.548798 283.552261,575.633682 283.552261C530.718567 283.552261,487.648438 301.397369,455.891052 333.154755C424.133667 364.912140,406.288559 407.982269,406.288559 452.897385C406.288559 497.812500,424.133667 540.882629,455.891052 572.640015C487.648438 604.397400,530.718567 622.242508,575.633682 622.242508C620.548798 622.242508,663.618927 604.397400,695.376312 572.640015C727.133698 540.882629,744.978806 497.812500,744.978806 452.897385Z" style="stroke:rgb(25.500488%,41.000366%,88.400269%); stroke-width: 1.000000;stroke-linecap: round;stroke-linejoin: round;stroke-miterlimit: 10.000000;fill: none;"></path>
  <path d="M361.452225 467.646744C361.452225 422.731628,343.607117 379.661499,311.849731 347.904114C280.092346 316.146729,237.022217 298.301620,192.107101 298.301620C147.191986 298.301620,104.121857 316.146729,72.364471 347.904114C40.607086 379.661499,22.761978 422.731628,22.761978 467.646744C22.761978 512.561859,40.607086 555.631989,72.364471 587.389374C104.121857 619.146759,147.191986 636.991867,192.107101 636.991867C237.022217 636.991867,280.092346 619.146759,311.849731 587.389374C343.607117 555.631989,361.452225 512.561859,361.452225 467.646744Z" style="stroke:rgb(25.500488%,41.000366%,88.400269%); stroke-width: 1.000000;stroke-linecap: round;stroke-linejoin: round;stroke-miterlimit: 10.000000;fill: none;"></path>
  <path d="M519.006516 171.716660C519.006516 126.801544,501.161407 83.731415,469.404022 51.974030C437.646637 20.216644,394.576508 2.371536,349.661392 2.371536C304.746277 2.371536,261.676147 20.216644,229.918762 51.974030C198.161377 83.731415,180.316269 126.801544,180.316269 171.716660C180.316269 216.631775,198.161377 259.701904,229.918762 291.459290C261.676147 323.216675,304.746277 341.061783,349.661392 341.061783C394.576508 341.061783,437.646637 323.216675,469.404022 291.459290C501.161407 259.701904,519.006516 216.631775,519.006516 171.716660Z" style="stroke:rgb(25.500488%,41.000366%,88.400269%); stroke-width: 1.000000;stroke-linecap: round;stroke-linejoin: round;stroke-miterlimit: 10.000000;fill: none;"></path>
  <path d="M722.167038 169.424240C722.167038 124.509125,704.321930 81.438995,672.564545 49.681610C640.807159 17.924225,597.737030 0.079117,552.821915 0.079117C507.906799 0.079117,464.836670 17.924225,433.079285 49.681610C401.321899 81.438995,383.476791 124.509125,383.476791 169.424240C383.476791 214.339355,401.321899 257.409485,433.079285 289.166870C464.836670 320.924255,507.906799 338.769363,552.821915 338.769363C597.737030 338.769363,640.807159 320.924255,672.564545 289.166870C704.321930 257.409485,722.167038 214.339355,722.167038 169.424240Z" style="stroke:rgb(25.500488%,41.000366%,88.400269%); stroke-width: 1.000000;stroke-linecap: round;stroke-linejoin: round;stroke-miterlimit: 10.000000;fill: none;"></path>
  <path d="M338.640457 184.173599C338.640457 139.258484,320.795349 96.188354,289.037964 64.430969C257.280579 32.673584,214.210449 14.828476,169.295334 14.828476C124.380219 14.828476,81.310089 32.673584,49.552704 64.430969C17.795319 96.188354,-0.049789 139.258484,-0.049789 184.173599C-0.049789 229.088715,17.795319 272.158844,49.552704 303.916229C81.310089 335.673615,124.380219 353.518723,169.295334 353.518723C214.210449 353.518723,257.280579 335.673615,289.037964 303.916229C320.795349 272.158844,338.640457 229.088715,338.640457 184.173599Z" style="stroke:rgb(25.500488%,41.000366%,88.400269%); stroke-width: 1.000000;stroke-linecap: round;stroke-linejoin: round;stroke-miterlimit: 10.000000;fill: none;"></path>
  <path d="M395.267624 465.354324L495.321045 601.991348" style="stroke:rgb(60.000610%,60.000610%,60.000610%); stroke-width: 1.800003;stroke-linecap: round;stroke-dasharray: 3.000000 3.000000 ;stroke-linejoin: round;stroke-miterlimit: 10.000000;fill: none;"></path>
  <path d="M575.633682 452.897385L495.321045 601.991348" style="stroke:rgb(60.000610%,60.000610%,60.000610%); stroke-width: 1.800003;stroke-linecap: round;stroke-dasharray: 3.000000 3.000000 ;stroke-linejoin: round;stroke-miterlimit: 10.000000;fill: none;"></path>
  <path d="M399.267624 465.354324C399.267624 464.293411,398.846115 463.276077,398.095993 462.525955C397.345871 461.775833,396.328537 461.354324,395.267624 461.354324C394.206711 461.354324,393.189377 461.775833,392.439255 462.525955C391.689133 463.276077,391.267624 464.293411,391.267624 465.354324C391.267624 466.415237,391.689133 467.432571,392.439255 468.182693C393.189377 468.932816,394.206711 469.354324,395.267624 469.354324C396.328537 469.354324,397.345871 468.932816,398.095993 468.182693C398.846115 467.432571,399.267624 466.415237,399.267624 465.354324Z" style="stroke:rgb(39.999390%,39.999390%,39.999390%); stroke-width: 0.500000;stroke-linecap: round;stroke-linejoin: round;stroke-miterlimit: 10.000000;fill: none;"></path>
  <path d="M399.267624 465.354324C399.267624 464.293411,398.846115 463.276077,398.095993 462.525955C397.345871 461.775833,396.328537 461.354324,395.267624 461.354324C394.206711 461.354324,393.189377 461.775833,392.439255 462.525955C391.689133 463.276077,391.267624 464.293411,391.267624 465.354324C391.267624 466.415237,391.689133 467.432571,392.439255 468.182693C393.189377 468.932816,394.206711 469.354324,395.267624 469.354324C396.328537 469.354324,397.345871 468.932816,398.095993 468.182693C398.846115 467.432571,399.267624 466.415237,399.267624 465.354324Z" style="fill: rgb(89.999390%,0.000000%,0.000000%);stroke: none;"></path>
  <path d="M579.633682 452.897385C579.633682 451.836472,579.212173 450.819138,578.462051 450.069016C577.711929 449.318893,576.694595 448.897385,575.633682 448.897385C574.572769 448.897385,573.555435 449.318893,572.805313 450.069016C572.055191 450.819138,571.633682 451.836472,571.633682 452.897385C571.633682 453.958298,572.055191 454.975632,572.805313 455.725754C573.555435 456.475876,574.572769 456.897385,575.633682 456.897385C576.694595 456.897385,577.711929 456.475876,578.462051 455.725754C579.212173 454.975632,579.633682 453.958298,579.633682 452.897385Z" style="stroke:rgb(39.999390%,39.999390%,39.999390%); stroke-width: 0.500000;stroke-linecap: round;stroke-linejoin: round;stroke-miterlimit: 10.000000;fill: none;"></path>
  <path d="M579.633682 452.897385C579.633682 451.836472,579.212173 450.819138,578.462051 450.069016C577.711929 449.318893,576.694595 448.897385,575.633682 448.897385C574.572769 448.897385,573.555435 449.318893,572.805313 450.069016C572.055191 450.819138,571.633682 451.836472,571.633682 452.897385C571.633682 453.958298,572.055191 454.975632,572.805313 455.725754C573.555435 456.475876,574.572769 456.897385,575.633682 456.897385C576.694595 456.897385,577.711929 456.475876,578.462051 455.725754C579.212173 454.975632,579.633682 453.958298,579.633682 452.897385Z" style="fill: rgb(89.999390%,0.000000%,0.000000%);stroke: none;"></path>
  <path d="M499.321045 601.991348C499.321045 600.930435,498.899536 599.913101,498.149414 599.162979C497.399292 598.412857,496.381958 597.991348,495.321045 597.991348C494.260132 597.991348,493.242798 598.412857,492.492676 599.162979C491.742554 599.913101,491.321045 600.930435,491.321045 601.991348C491.321045 603.052261,491.742554 604.069595,492.492676 604.819717C493.242798 605.569839,494.260132 605.991348,495.321045 605.991348C496.381958 605.991348,497.399292 605.569839,498.149414 604.819717C498.899536 604.069595,499.321045 603.052261,499.321045 601.991348Z" style="stroke:rgb(39.999390%,39.999390%,39.999390%); stroke-width: 0.500000;stroke-linecap: round;stroke-linejoin: round;stroke-miterlimit: 10.000000;fill: none;"></path>
  <path d="M499.321045 601.991348C499.321045 600.930435,498.899536 599.913101,498.149414 599.162979C497.399292 598.412857,496.381958 597.991348,495.321045 597.991348C494.260132 597.991348,493.242798 598.412857,492.492676 599.162979C491.742554 599.913101,491.321045 600.930435,491.321045 601.991348C491.321045 603.052261,491.742554 604.069595,492.492676 604.819717C493.242798 605.569839,494.260132 605.991348,495.321045 605.991348C496.381958 605.991348,497.399292 605.569839,498.149414 604.819717C498.899536 604.069595,499.321045 603.052261,499.321045 601.991348Z" style="fill: rgb(0.000000%,50.000000%,0.000000%);stroke: none;"></path>
  <path d="M395.267624 465.354324L295.214203 601.982697" style="stroke:rgb(60.000610%,60.000610%,60.000610%); stroke-width: 1.800003;stroke-linecap: round;stroke-dasharray: 3.000000 3.000000 ;stroke-linejoin: round;stroke-miterlimit: 10.000000;fill: none;"></path>
  <path d="M192.107101 467.646744L295.214203 601.982697" style="stroke:rgb(60.000610%,60.000610%,60.000610%); stroke-width: 1.800003;stroke-linecap: round;stroke-dasharray: 3.000000 3.000000 ;stroke-linejoin: round;stroke-miterlimit: 10.000000;fill: none;"></path>
  <path d="M399.267624 465.354324C399.267624 464.293411,398.846115 463.276077,398.095993 462.525955C397.345871 461.775833,396.328537 461.354324,395.267624 461.354324C394.206711 461.354324,393.189377 461.775833,392.439255 462.525955C391.689133 463.276077,391.267624 464.293411,391.267624 465.354324C391.267624 466.415237,391.689133 467.432571,392.439255 468.182693C393.189377 468.932816,394.206711 469.354324,395.267624 469.354324C396.328537 469.354324,397.345871 468.932816,398.095993 468.182693C398.846115 467.432571,399.267624 466.415237,399.267624 465.354324Z" style="stroke:rgb(39.999390%,39.999390%,39.999390%); stroke-width: 0.500000;stroke-linecap: round;stroke-linejoin: round;stroke-miterlimit: 10.000000;fill: none;"></path>
  <path d="M399.267624 465.354324C399.267624 464.293411,398.846115 463.276077,398.095993 462.525955C397.345871 461.775833,396.328537 461.354324,395.267624 461.354324C394.206711 461.354324,393.189377 461.775833,392.439255 462.525955C391.689133 463.276077,391.267624 464.293411,391.267624 465.354324C391.267624 466.415237,391.689133 467.432571,392.439255 468.182693C393.189377 468.932816,394.206711 469.354324,395.267624 469.354324C396.328537 469.354324,397.345871 468.932816,398.095993 468.182693C398.846115 467.432571,399.267624 466.415237,399.267624 465.354324Z" style="fill: rgb(89.999390%,0.000000%,0.000000%);stroke: none;"></path>
  <path d="M196.107101 467.646744C196.107101 466.585831,195.685593 465.568497,194.935471 464.818375C194.185349 464.068253,193.168015 463.646744,192.107101 463.646744C191.046188 463.646744,190.028854 464.068253,189.278732 464.818375C188.528610 465.568497,188.107101 466.585831,188.107101 467.646744C188.107101 468.707657,188.528610 469.724991,189.278732 470.475113C190.028854 471.225235,191.046188 471.646744,192.107101 471.646744C193.168015 471.646744,194.185349 471.225235,194.935471 470.475113C195.685593 469.724991,196.107101 468.707657,196.107101 467.646744Z" style="stroke:rgb(39.999390%,39.999390%,39.999390%); stroke-width: 0.500000;stroke-linecap: round;stroke-linejoin: round;stroke-miterlimit: 10.000000;fill: none;"></path>
  <path d="M196.107101 467.646744C196.107101 466.585831,195.685593 465.568497,194.935471 464.818375C194.185349 464.068253,193.168015 463.646744,192.107101 463.646744C191.046188 463.646744,190.028854 464.068253,189.278732 464.818375C188.528610 465.568497,188.107101 466.585831,188.107101 467.646744C188.107101 468.707657,188.528610 469.724991,189.278732 470.475113C190.028854 471.225235,191.046188 471.646744,192.107101 471.646744C193.168015 471.646744,194.185349 471.225235,194.935471 470.475113C195.685593 469.724991,196.107101 468.707657,196.107101 467.646744Z" style="fill: rgb(89.999390%,0.000000%,0.000000%);stroke: none;"></path>
  <path d="M299.214203 601.982697C299.214203 600.921783,298.792694 599.904449,298.042572 599.154327C297.292450 598.404205,296.275116 597.982697,295.214203 597.982697C294.153290 597.982697,293.135956 598.404205,292.385834 599.154327C291.635712 599.904449,291.214203 600.921783,291.214203 601.982697C291.214203 603.043610,291.635712 604.060944,292.385834 604.811066C293.135956 605.561188,294.153290 605.982697,295.214203 605.982697C296.275116 605.982697,297.292450 605.561188,298.042572 604.811066C298.792694 604.060944,299.214203 603.043610,299.214203 601.982697Z" style="stroke:rgb(39.999390%,39.999390%,39.999390%); stroke-width: 0.500000;stroke-linecap: round;stroke-linejoin: round;stroke-miterlimit: 10.000000;fill: none;"></path>
  <path d="M299.214203 601.982697C299.214203 600.921783,298.792694 599.904449,298.042572 599.154327C297.292450 598.404205,296.275116 597.982697,295.214203 597.982697C294.153290 597.982697,293.135956 598.404205,292.385834 599.154327C291.635712 599.904449,291.214203 600.921783,291.214203 601.982697C291.214203 603.043610,291.635712 604.060944,292.385834 604.811066C293.135956 605.561188,294.153290 605.982697,295.214203 605.982697C296.275116 605.982697,297.292450 605.561188,298.042572 604.811066C298.792694 604.060944,299.214203 603.043610,299.214203 601.982697Z" style="fill: rgb(0.000000%,50.000000%,0.000000%);stroke: none;"></path>
  <path d="M395.267624 465.354324L292.160522 331.009735" style="stroke:rgb(60.000610%,60.000610%,60.000610%); stroke-width: 1.800003;stroke-linecap: round;stroke-dasharray: 3.000000 3.000000 ;stroke-linejoin: round;stroke-miterlimit: 10.000000;fill: none;"></path>
  <path d="M192.107101 467.646744L292.160522 331.009735" style="stroke:rgb(60.000610%,60.000610%,60.000610%); stroke-width: 1.800003;stroke-linecap: round;stroke-dasharray: 3.000000 3.000000 ;stroke-linejoin: round;stroke-miterlimit: 10.000000;fill: none;"></path>
  <path d="M399.267624 465.354324C399.267624 464.293411,398.846115 463.276077,398.095993 462.525955C397.345871 461.775833,396.328537 461.354324,395.267624 461.354324C394.206711 461.354324,393.189377 461.775833,392.439255 462.525955C391.689133 463.276077,391.267624 464.293411,391.267624 465.354324C391.267624 466.415237,391.689133 467.432571,392.439255 468.182693C393.189377 468.932816,394.206711 469.354324,395.267624 469.354324C396.328537 469.354324,397.345871 468.932816,398.095993 468.182693C398.846115 467.432571,399.267624 466.415237,399.267624 465.354324Z" style="stroke:rgb(39.999390%,39.999390%,39.999390%); stroke-width: 0.500000;stroke-linecap: round;stroke-linejoin: round;stroke-miterlimit: 10.000000;fill: none;"></path>
  <path d="M399.267624 465.354324C399.267624 464.293411,398.846115 463.276077,398.095993 462.525955C397.345871 461.775833,396.328537 461.354324,395.267624 461.354324C394.206711 461.354324,393.189377 461.775833,392.439255 462.525955C391.689133 463.276077,391.267624 464.293411,391.267624 465.354324C391.267624 466.415237,391.689133 467.432571,392.439255 468.182693C393.189377 468.932816,394.206711 469.354324,395.267624 469.354324C396.328537 469.354324,397.345871 468.932816,398.095993 468.182693C398.846115 467.432571,399.267624 466.415237,399.267624 465.354324Z" style="fill: rgb(89.999390%,0.000000%,0.000000%);stroke: none;"></path>
  <path d="M196.107101 467.646744C196.107101 466.585831,195.685593 465.568497,194.935471 464.818375C194.185349 464.068253,193.168015 463.646744,192.107101 463.646744C191.046188 463.646744,190.028854 464.068253,189.278732 464.818375C188.528610 465.568497,188.107101 466.585831,188.107101 467.646744C188.107101 468.707657,188.528610 469.724991,189.278732 470.475113C190.028854 471.225235,191.046188 471.646744,192.107101 471.646744C193.168015 471.646744,194.185349 471.225235,194.935471 470.475113C195.685593 469.724991,196.107101 468.707657,196.107101 467.646744Z" style="stroke:rgb(39.999390%,39.999390%,39.999390%); stroke-width: 0.500000;stroke-linecap: round;stroke-linejoin: round;stroke-miterlimit: 10.000000;fill: none;"></path>
  <path d="M196.107101 467.646744C196.107101 466.585831,195.685593 465.568497,194.935471 464.818375C194.185349 464.068253,193.168015 463.646744,192.107101 463.646744C191.046188 463.646744,190.028854 464.068253,189.278732 464.818375C188.528610 465.568497,188.107101 466.585831,188.107101 467.646744C188.107101 468.707657,188.528610 469.724991,189.278732 470.475113C190.028854 471.225235,191.046188 471.646744,192.107101 471.646744C193.168015 471.646744,194.185349 471.225235,194.935471 470.475113C195.685593 469.724991,196.107101 468.707657,196.107101 467.646744Z" style="fill: rgb(89.999390%,0.000000%,0.000000%);stroke: none;"></path>
  <path d="M296.160522 331.009735C296.160522 329.948822,295.739014 328.931488,294.988892 328.181366C294.238770 327.431244,293.221436 327.009735,292.160522 327.009735C291.099609 327.009735,290.082275 327.431244,289.332153 328.181366C288.582031 328.931488,288.160522 329.948822,288.160522 331.009735C288.160522 332.070648,288.582031 333.087982,289.332153 333.838104C290.082275 334.588226,291.099609 335.009735,292.160522 335.009735C293.221436 335.009735,294.238770 334.588226,294.988892 333.838104C295.739014 333.087982,296.160522 332.070648,296.160522 331.009735Z" style="stroke:rgb(39.999390%,39.999390%,39.999390%); stroke-width: 0.500000;stroke-linecap: round;stroke-linejoin: round;stroke-miterlimit: 10.000000;fill: none;"></path>
  <path d="M296.160522 331.009735C296.160522 329.948822,295.739014 328.931488,294.988892 328.181366C294.238770 327.431244,293.221436 327.009735,292.160522 327.009735C291.099609 327.009735,290.082275 327.431244,289.332153 328.181366C288.582031 328.931488,288.160522 329.948822,288.160522 331.009735C288.160522 332.070648,288.582031 333.087982,289.332153 333.838104C290.082275 334.588226,291.099609 335.009735,292.160522 335.009735C293.221436 335.009735,294.238770 334.588226,294.988892 333.838104C295.739014 333.087982,296.160522 332.070648,296.160522 331.009735Z" style="fill: rgb(9.800720%,9.800720%,44.000244%);stroke: none;"></path>
  <path d="M395.267624 465.354324L292.169174 331.009735" style="stroke:rgb(60.000610%,60.000610%,60.000610%); stroke-width: 1.800003;stroke-linecap: round;stroke-dasharray: 3.000000 3.000000 ;stroke-linejoin: round;stroke-miterlimit: 10.000000;fill: none;"></path>
  <path d="M349.661392 171.716660L292.169174 331.009735" style="stroke:rgb(60.000610%,60.000610%,60.000610%); stroke-width: 1.800003;stroke-linecap: round;stroke-dasharray: 3.000000 3.000000 ;stroke-linejoin: round;stroke-miterlimit: 10.000000;fill: none;"></path>
  <path d="M399.267624 465.354324C399.267624 464.293411,398.846115 463.276077,398.095993 462.525955C397.345871 461.775833,396.328537 461.354324,395.267624 461.354324C394.206711 461.354324,393.189377 461.775833,392.439255 462.525955C391.689133 463.276077,391.267624 464.293411,391.267624 465.354324C391.267624 466.415237,391.689133 467.432571,392.439255 468.182693C393.189377 468.932816,394.206711 469.354324,395.267624 469.354324C396.328537 469.354324,397.345871 468.932816,398.095993 468.182693C398.846115 467.432571,399.267624 466.415237,399.267624 465.354324Z" style="stroke:rgb(39.999390%,39.999390%,39.999390%); stroke-width: 0.500000;stroke-linecap: round;stroke-linejoin: round;stroke-miterlimit: 10.000000;fill: none;"></path>
  <path d="M399.267624 465.354324C399.267624 464.293411,398.846115 463.276077,398.095993 462.525955C397.345871 461.775833,396.328537 461.354324,395.267624 461.354324C394.206711 461.354324,393.189377 461.775833,392.439255 462.525955C391.689133 463.276077,391.267624 464.293411,391.267624 465.354324C391.267624 466.415237,391.689133 467.432571,392.439255 468.182693C393.189377 468.932816,394.206711 469.354324,395.267624 469.354324C396.328537 469.354324,397.345871 468.932816,398.095993 468.182693C398.846115 467.432571,399.267624 466.415237,399.267624 465.354324Z" style="fill: rgb(89.999390%,0.000000%,0.000000%);stroke: none;"></path>
  <path d="M353.661392 171.716660C353.661392 170.655746,353.239883 169.638412,352.489761 168.888290C351.739639 168.138168,350.722305 167.716660,349.661392 167.716660C348.600479 167.716660,347.583145 168.138168,346.833023 168.888290C346.082901 169.638412,345.661392 170.655746,345.661392 171.716660C345.661392 172.777573,346.082901 173.794907,346.833023 174.545029C347.583145 175.295151,348.600479 175.716660,349.661392 175.716660C350.722305 175.716660,351.739639 175.295151,352.489761 174.545029C353.239883 173.794907,353.661392 172.777573,353.661392 171.716660Z" style="stroke:rgb(39.999390%,39.999390%,39.999390%); stroke-width: 0.500000;stroke-linecap: round;stroke-linejoin: round;stroke-miterlimit: 10.000000;fill: none;"></path>
  <path d="M353.661392 171.716660C353.661392 170.655746,353.239883 169.638412,352.489761 168.888290C351.739639 168.138168,350.722305 167.716660,349.661392 167.716660C348.600479 167.716660,347.583145 168.138168,346.833023 168.888290C346.082901 169.638412,345.661392 170.655746,345.661392 171.716660C345.661392 172.777573,346.082901 173.794907,346.833023 174.545029C347.583145 175.295151,348.600479 175.716660,349.661392 175.716660C350.722305 175.716660,351.739639 175.295151,352.489761 174.545029C353.239883 173.794907,353.661392 172.777573,353.661392 171.716660Z" style="fill: rgb(89.999390%,0.000000%,0.000000%);stroke: none;"></path>
  <path d="M296.169174 331.009735C296.169174 329.948822,295.747665 328.931488,294.997543 328.181366C294.247421 327.431244,293.230087 327.009735,292.169174 327.009735C291.108261 327.009735,290.090927 327.431244,289.340805 328.181366C288.590683 328.931488,288.169174 329.948822,288.169174 331.009735C288.169174 332.070648,288.590683 333.087982,289.340805 333.838104C290.090927 334.588226,291.108261 335.009735,292.169174 335.009735C293.230087 335.009735,294.247421 334.588226,294.997543 333.838104C295.747665 333.087982,296.169174 332.070648,296.169174 331.009735Z" style="stroke:rgb(39.999390%,39.999390%,39.999390%); stroke-width: 0.500000;stroke-linecap: round;stroke-linejoin: round;stroke-miterlimit: 10.000000;fill: none;"></path>
  <path d="M296.169174 331.009735C296.169174 329.948822,295.747665 328.931488,294.997543 328.181366C294.247421 327.431244,293.230087 327.009735,292.169174 327.009735C291.108261 327.009735,290.090927 327.431244,289.340805 328.181366C288.590683 328.931488,288.169174 329.948822,288.169174 331.009735C288.169174 332.070648,288.590683 333.087982,289.340805 333.838104C290.090927 334.588226,291.108261 335.009735,292.169174 335.009735C293.230087 335.009735,294.247421 334.588226,294.997543 333.838104C295.747665 333.087982,296.169174 332.070648,296.169174 331.009735Z" style="fill: rgb(9.800720%,9.800720%,44.000244%);stroke: none;"></path>
  <path d="M395.267624 465.354324L452.759842 306.061249" style="stroke:rgb(60.000610%,60.000610%,60.000610%); stroke-width: 1.800003;stroke-linecap: round;stroke-dasharray: 3.000000 3.000000 ;stroke-linejoin: round;stroke-miterlimit: 10.000000;fill: none;"></path>
  <path d="M349.661392 171.716660L452.759842 306.061249" style="stroke:rgb(60.000610%,60.000610%,60.000610%); stroke-width: 1.800003;stroke-linecap: round;stroke-dasharray: 3.000000 3.000000 ;stroke-linejoin: round;stroke-miterlimit: 10.000000;fill: none;"></path>
  <path d="M399.267624 465.354324C399.267624 464.293411,398.846115 463.276077,398.095993 462.525955C397.345871 461.775833,396.328537 461.354324,395.267624 461.354324C394.206711 461.354324,393.189377 461.775833,392.439255 462.525955C391.689133 463.276077,391.267624 464.293411,391.267624 465.354324C391.267624 466.415237,391.689133 467.432571,392.439255 468.182693C393.189377 468.932816,394.206711 469.354324,395.267624 469.354324C396.328537 469.354324,397.345871 468.932816,398.095993 468.182693C398.846115 467.432571,399.267624 466.415237,399.267624 465.354324Z" style="stroke:rgb(39.999390%,39.999390%,39.999390%); stroke-width: 0.500000;stroke-linecap: round;stroke-linejoin: round;stroke-miterlimit: 10.000000;fill: none;"></path>
  <path d="M399.267624 465.354324C399.267624 464.293411,398.846115 463.276077,398.095993 462.525955C397.345871 461.775833,396.328537 461.354324,395.267624 461.354324C394.206711 461.354324,393.189377 461.775833,392.439255 462.525955C391.689133 463.276077,391.267624 464.293411,391.267624 465.354324C391.267624 466.415237,391.689133 467.432571,392.439255 468.182693C393.189377 468.932816,394.206711 469.354324,395.267624 469.354324C396.328537 469.354324,397.345871 468.932816,398.095993 468.182693C398.846115 467.432571,399.267624 466.415237,399.267624 465.354324Z" style="fill: rgb(89.999390%,0.000000%,0.000000%);stroke: none;"></path>
  <path d="M353.661392 171.716660C353.661392 170.655746,353.239883 169.638412,352.489761 168.888290C351.739639 168.138168,350.722305 167.716660,349.661392 167.716660C348.600479 167.716660,347.583145 168.138168,346.833023 168.888290C346.082901 169.638412,345.661392 170.655746,345.661392 171.716660C345.661392 172.777573,346.082901 173.794907,346.833023 174.545029C347.583145 175.295151,348.600479 175.716660,349.661392 175.716660C350.722305 175.716660,351.739639 175.295151,352.489761 174.545029C353.239883 173.794907,353.661392 172.777573,353.661392 171.716660Z" style="stroke:rgb(39.999390%,39.999390%,39.999390%); stroke-width: 0.500000;stroke-linecap: round;stroke-linejoin: round;stroke-miterlimit: 10.000000;fill: none;"></path>
  <path d="M353.661392 171.716660C353.661392 170.655746,353.239883 169.638412,352.489761 168.888290C351.739639 168.138168,350.722305 167.716660,349.661392 167.716660C348.600479 167.716660,347.583145 168.138168,346.833023 168.888290C346.082901 169.638412,345.661392 170.655746,345.661392 171.716660C345.661392 172.777573,346.082901 173.794907,346.833023 174.545029C347.583145 175.295151,348.600479 175.716660,349.661392 175.716660C350.722305 175.716660,351.739639 175.295151,352.489761 174.545029C353.239883 173.794907,353.661392 172.777573,353.661392 171.716660Z" style="fill: rgb(89.999390%,0.000000%,0.000000%);stroke: none;"></path>
  <path d="M456.759842 306.061249C456.759842 305.000336,456.338333 303.983002,455.588211 303.232880C454.838089 302.482758,453.820755 302.061249,452.759842 302.061249C451.698929 302.061249,450.681595 302.482758,449.931473 303.232880C449.181351 303.983002,448.759842 305.000336,448.759842 306.061249C448.759842 307.122162,449.181351 308.139496,449.931473 308.889618C450.681595 309.639740,451.698929 310.061249,452.759842 310.061249C453.820755 310.061249,454.838089 309.639740,455.588211 308.889618C456.338333 308.139496,456.759842 307.122162,456.759842 306.061249Z" style="stroke:rgb(39.999390%,39.999390%,39.999390%); stroke-width: 0.500000;stroke-linecap: round;stroke-linejoin: round;stroke-miterlimit: 10.000000;fill: none;"></path>
  <path d="M456.759842 306.061249C456.759842 305.000336,456.338333 303.983002,455.588211 303.232880C454.838089 302.482758,453.820755 302.061249,452.759842 302.061249C451.698929 302.061249,450.681595 302.482758,449.931473 303.232880C449.181351 303.983002,448.759842 305.000336,448.759842 306.061249C448.759842 307.122162,449.181351 308.139496,449.931473 308.889618C450.681595 309.639740,451.698929 310.061249,452.759842 310.061249C453.820755 310.061249,454.838089 309.639740,455.588211 308.889618C456.338333 308.139496,456.759842 307.122162,456.759842 306.061249Z" style="fill: rgb(9.800720%,9.800720%,44.000244%);stroke: none;"></path>
  <path d="M395.267624 465.354324L452.785797 306.069901" style="stroke:rgb(60.000610%,60.000610%,60.000610%); stroke-width: 1.800003;stroke-linecap: round;stroke-dasharray: 3.000000 3.000000 ;stroke-linejoin: round;stroke-miterlimit: 10.000000;fill: none;"></path>
  <path d="M552.821915 169.424240L452.785797 306.069901" style="stroke:rgb(60.000610%,60.000610%,60.000610%); stroke-width: 1.800003;stroke-linecap: round;stroke-dasharray: 3.000000 3.000000 ;stroke-linejoin: round;stroke-miterlimit: 10.000000;fill: none;"></path>
  <path d="M399.267624 465.354324C399.267624 464.293411,398.846115 463.276077,398.095993 462.525955C397.345871 461.775833,396.328537 461.354324,395.267624 461.354324C394.206711 461.354324,393.189377 461.775833,392.439255 462.525955C391.689133 463.276077,391.267624 464.293411,391.267624 465.354324C391.267624 466.415237,391.689133 467.432571,392.439255 468.182693C393.189377 468.932816,394.206711 469.354324,395.267624 469.354324C396.328537 469.354324,397.345871 468.932816,398.095993 468.182693C398.846115 467.432571,399.267624 466.415237,399.267624 465.354324Z" style="stroke:rgb(39.999390%,39.999390%,39.999390%); stroke-width: 0.500000;stroke-linecap: round;stroke-linejoin: round;stroke-miterlimit: 10.000000;fill: none;"></path>
  <path d="M399.267624 465.354324C399.267624 464.293411,398.846115 463.276077,398.095993 462.525955C397.345871 461.775833,396.328537 461.354324,395.267624 461.354324C394.206711 461.354324,393.189377 461.775833,392.439255 462.525955C391.689133 463.276077,391.267624 464.293411,391.267624 465.354324C391.267624 466.415237,391.689133 467.432571,392.439255 468.182693C393.189377 468.932816,394.206711 469.354324,395.267624 469.354324C396.328537 469.354324,397.345871 468.932816,398.095993 468.182693C398.846115 467.432571,399.267624 466.415237,399.267624 465.354324Z" style="fill: rgb(89.999390%,0.000000%,0.000000%);stroke: none;"></path>
  <path d="M556.821915 169.424240C556.821915 168.363327,556.400406 167.345993,555.650284 166.595871C554.900162 165.845749,553.882828 165.424240,552.821915 165.424240C551.761002 165.424240,550.743668 165.845749,549.993546 166.595871C549.243423 167.345993,548.821915 168.363327,548.821915 169.424240C548.821915 170.485153,549.243423 171.502487,549.993546 172.252609C550.743668 173.002731,551.761002 173.424240,552.821915 173.424240C553.882828 173.424240,554.900162 173.002731,555.650284 172.252609C556.400406 171.502487,556.821915 170.485153,556.821915 169.424240Z" style="stroke:rgb(39.999390%,39.999390%,39.999390%); stroke-width: 0.500000;stroke-linecap: round;stroke-linejoin: round;stroke-miterlimit: 10.000000;fill: none;"></path>
  <path d="M556.821915 169.424240C556.821915 168.363327,556.400406 167.345993,555.650284 166.595871C554.900162 165.845749,553.882828 165.424240,552.821915 165.424240C551.761002 165.424240,550.743668 165.845749,549.993546 166.595871C549.243423 167.345993,548.821915 168.363327,548.821915 169.424240C548.821915 170.485153,549.243423 171.502487,549.993546 172.252609C550.743668 173.002731,551.761002 173.424240,552.821915 173.424240C553.882828 173.424240,554.900162 173.002731,555.650284 172.252609C556.400406 171.502487,556.821915 170.485153,556.821915 169.424240Z" style="fill: rgb(89.999390%,0.000000%,0.000000%);stroke: none;"></path>
  <path d="M456.785797 306.069901C456.785797 305.008987,456.364288 303.991653,455.614166 303.241531C454.864044 302.491409,453.846710 302.069901,452.785797 302.069901C451.724884 302.069901,450.707550 302.491409,449.957428 303.241531C449.207306 303.991653,448.785797 305.008987,448.785797 306.069901C448.785797 307.130814,449.207306 308.148148,449.957428 308.898270C450.707550 309.648392,451.724884 310.069901,452.785797 310.069901C453.846710 310.069901,454.864044 309.648392,455.614166 308.898270C456.364288 308.148148,456.785797 307.130814,456.785797 306.069901Z" style="stroke:rgb(39.999390%,39.999390%,39.999390%); stroke-width: 0.500000;stroke-linecap: round;stroke-linejoin: round;stroke-miterlimit: 10.000000;fill: none;"></path>
  <path d="M456.785797 306.069901C456.785797 305.008987,456.364288 303.991653,455.614166 303.241531C454.864044 302.491409,453.846710 302.069901,452.785797 302.069901C451.724884 302.069901,450.707550 302.491409,449.957428 303.241531C449.207306 303.991653,448.785797 305.008987,448.785797 306.069901C448.785797 307.130814,449.207306 308.148148,449.957428 308.898270C450.707550 309.648392,451.724884 310.069901,452.785797 310.069901C453.846710 310.069901,454.864044 309.648392,455.614166 308.898270C456.364288 308.148148,456.785797 307.130814,456.785797 306.069901Z" style="fill: rgb(9.800720%,9.800720%,44.000244%);stroke: none;"></path>
  <path d="M575.633682 452.897385L655.929016 602.000000" style="stroke:rgb(60.000610%,60.000610%,60.000610%); stroke-width: 1.800003;stroke-linecap: round;stroke-dasharray: 3.000000 3.000000 ;stroke-linejoin: round;stroke-miterlimit: 10.000000;fill: none;"></path>
  <path d="M579.633682 452.897385C579.633682 451.836472,579.212173 450.819138,578.462051 450.069016C577.711929 449.318893,576.694595 448.897385,575.633682 448.897385C574.572769 448.897385,573.555435 449.318893,572.805313 450.069016C572.055191 450.819138,571.633682 451.836472,571.633682 452.897385C571.633682 453.958298,572.055191 454.975632,572.805313 455.725754C573.555435 456.475876,574.572769 456.897385,575.633682 456.897385C576.694595 456.897385,577.711929 456.475876,578.462051 455.725754C579.212173 454.975632,579.633682 453.958298,579.633682 452.897385Z" style="stroke:rgb(39.999390%,39.999390%,39.999390%); stroke-width: 0.500000;stroke-linecap: round;stroke-linejoin: round;stroke-miterlimit: 10.000000;fill: none;"></path>
  <path d="M579.633682 452.897385C579.633682 451.836472,579.212173 450.819138,578.462051 450.069016C577.711929 449.318893,576.694595 448.897385,575.633682 448.897385C574.572769 448.897385,573.555435 449.318893,572.805313 450.069016C572.055191 450.819138,571.633682 451.836472,571.633682 452.897385C571.633682 453.958298,572.055191 454.975632,572.805313 455.725754C573.555435 456.475876,574.572769 456.897385,575.633682 456.897385C576.694595 456.897385,577.711929 456.475876,578.462051 455.725754C579.212173 454.975632,579.633682 453.958298,579.633682 452.897385Z" style="fill: rgb(89.999390%,0.000000%,0.000000%);stroke: none;"></path>
  <path d="M659.929016 602.000000C659.929016 600.939087,659.507507 599.921753,658.757385 599.171631C658.007263 598.421509,656.989929 598.000000,655.929016 598.000000C654.868103 598.000000,653.850769 598.421509,653.100647 599.171631C652.350525 599.921753,651.929016 600.939087,651.929016 602.000000C651.929016 603.060913,652.350525 604.078247,653.100647 604.828369C653.850769 605.578491,654.868103 606.000000,655.929016 606.000000C656.989929 606.000000,658.007263 605.578491,658.757385 604.828369C659.507507 604.078247,659.929016 603.060913,659.929016 602.000000Z" style="stroke:rgb(39.999390%,39.999390%,39.999390%); stroke-width: 0.500000;stroke-linecap: round;stroke-linejoin: round;stroke-miterlimit: 10.000000;fill: none;"></path>
  <path d="M659.929016 602.000000C659.929016 600.939087,659.507507 599.921753,658.757385 599.171631C658.007263 598.421509,656.989929 598.000000,655.929016 598.000000C654.868103 598.000000,653.850769 598.421509,653.100647 599.171631C652.350525 599.921753,651.929016 600.939087,651.929016 602.000000C651.929016 603.060913,652.350525 604.078247,653.100647 604.828369C653.850769 605.578491,654.868103 606.000000,655.929016 606.000000C656.989929 606.000000,658.007263 605.578491,658.757385 604.828369C659.507507 604.078247,659.929016 603.060913,659.929016 602.000000Z" style="fill: rgb(100.000000%,100.000000%,0.000000%);stroke: none;"></path>
  <path d="M575.633682 452.897385L655.911713 303.786133" style="stroke:rgb(60.000610%,60.000610%,60.000610%); stroke-width: 1.800003;stroke-linecap: round;stroke-dasharray: 3.000000 3.000000 ;stroke-linejoin: round;stroke-miterlimit: 10.000000;fill: none;"></path>
  <path d="M552.821915 169.424240L655.911713 303.786133" style="stroke:rgb(60.000610%,60.000610%,60.000610%); stroke-width: 1.800003;stroke-linecap: round;stroke-dasharray: 3.000000 3.000000 ;stroke-linejoin: round;stroke-miterlimit: 10.000000;fill: none;"></path>
  <path d="M579.633682 452.897385C579.633682 451.836472,579.212173 450.819138,578.462051 450.069016C577.711929 449.318893,576.694595 448.897385,575.633682 448.897385C574.572769 448.897385,573.555435 449.318893,572.805313 450.069016C572.055191 450.819138,571.633682 451.836472,571.633682 452.897385C571.633682 453.958298,572.055191 454.975632,572.805313 455.725754C573.555435 456.475876,574.572769 456.897385,575.633682 456.897385C576.694595 456.897385,577.711929 456.475876,578.462051 455.725754C579.212173 454.975632,579.633682 453.958298,579.633682 452.897385Z" style="stroke:rgb(39.999390%,39.999390%,39.999390%); stroke-width: 0.500000;stroke-linecap: round;stroke-linejoin: round;stroke-miterlimit: 10.000000;fill: none;"></path>
  <path d="M579.633682 452.897385C579.633682 451.836472,579.212173 450.819138,578.462051 450.069016C577.711929 449.318893,576.694595 448.897385,575.633682 448.897385C574.572769 448.897385,573.555435 449.318893,572.805313 450.069016C572.055191 450.819138,571.633682 451.836472,571.633682 452.897385C571.633682 453.958298,572.055191 454.975632,572.805313 455.725754C573.555435 456.475876,574.572769 456.897385,575.633682 456.897385C576.694595 456.897385,577.711929 456.475876,578.462051 455.725754C579.212173 454.975632,579.633682 453.958298,579.633682 452.897385Z" style="fill: rgb(89.999390%,0.000000%,0.000000%);stroke: none;"></path>
  <path d="M556.821915 169.424240C556.821915 168.363327,556.400406 167.345993,555.650284 166.595871C554.900162 165.845749,553.882828 165.424240,552.821915 165.424240C551.761002 165.424240,550.743668 165.845749,549.993546 166.595871C549.243423 167.345993,548.821915 168.363327,548.821915 169.424240C548.821915 170.485153,549.243423 171.502487,549.993546 172.252609C550.743668 173.002731,551.761002 173.424240,552.821915 173.424240C553.882828 173.424240,554.900162 173.002731,555.650284 172.252609C556.400406 171.502487,556.821915 170.485153,556.821915 169.424240Z" style="stroke:rgb(39.999390%,39.999390%,39.999390%); stroke-width: 0.500000;stroke-linecap: round;stroke-linejoin: round;stroke-miterlimit: 10.000000;fill: none;"></path>
  <path d="M556.821915 169.424240C556.821915 168.363327,556.400406 167.345993,555.650284 166.595871C554.900162 165.845749,553.882828 165.424240,552.821915 165.424240C551.761002 165.424240,550.743668 165.845749,549.993546 166.595871C549.243423 167.345993,548.821915 168.363327,548.821915 169.424240C548.821915 170.485153,549.243423 171.502487,549.993546 172.252609C550.743668 173.002731,551.761002 173.424240,552.821915 173.424240C553.882828 173.424240,554.900162 173.002731,555.650284 172.252609C556.400406 171.502487,556.821915 170.485153,556.821915 169.424240Z" style="fill: rgb(89.999390%,0.000000%,0.000000%);stroke: none;"></path>
  <path d="M659.911713 303.786133C659.911713 302.725220,659.490204 301.707886,658.740082 300.957764C657.989960 300.207642,656.972626 299.786133,655.911713 299.786133C654.850800 299.786133,653.833466 300.207642,653.083344 300.957764C652.333221 301.707886,651.911713 302.725220,651.911713 303.786133C651.911713 304.847046,652.333221 305.864380,653.083344 306.614502C653.833466 307.364624,654.850800 307.786133,655.911713 307.786133C656.972626 307.786133,657.989960 307.364624,658.740082 306.614502C659.490204 305.864380,659.911713 304.847046,659.911713 303.786133Z" style="stroke:rgb(39.999390%,39.999390%,39.999390%); stroke-width: 0.500000;stroke-linecap: round;stroke-linejoin: round;stroke-miterlimit: 10.000000;fill: none;"></path>
  <path d="M659.911713 303.786133C659.911713 302.725220,659.490204 301.707886,658.740082 300.957764C657.989960 300.207642,656.972626 299.786133,655.911713 299.786133C654.850800 299.786133,653.833466 300.207642,653.083344 300.957764C652.333221 301.707886,651.911713 302.725220,651.911713 303.786133C651.911713 304.847046,652.333221 305.864380,653.083344 306.614502C653.833466 307.364624,654.850800 307.786133,655.911713 307.786133C656.972626 307.786133,657.989960 307.364624,658.740082 306.614502C659.490204 305.864380,659.911713 304.847046,659.911713 303.786133Z" style="fill: rgb(0.000000%,50.000000%,0.000000%);stroke: none;"></path>
  <path d="M192.107101 467.646744L89.000000 602.000000" style="stroke:rgb(60.000610%,60.000610%,60.000610%); stroke-width: 1.800003;stroke-linecap: round;stroke-dasharray: 3.000000 3.000000 ;stroke-linejoin: round;stroke-miterlimit: 10.000000;fill: none;"></path>
  <path d="M196.107101 467.646744C196.107101 466.585831,195.685593 465.568497,194.935471 464.818375C194.185349 464.068253,193.168015 463.646744,192.107101 463.646744C191.046188 463.646744,190.028854 464.068253,189.278732 464.818375C188.528610 465.568497,188.107101 466.585831,188.107101 467.646744C188.107101 468.707657,188.528610 469.724991,189.278732 470.475113C190.028854 471.225235,191.046188 471.646744,192.107101 471.646744C193.168015 471.646744,194.185349 471.225235,194.935471 470.475113C195.685593 469.724991,196.107101 468.707657,196.107101 467.646744Z" style="stroke:rgb(39.999390%,39.999390%,39.999390%); stroke-width: 0.500000;stroke-linecap: round;stroke-linejoin: round;stroke-miterlimit: 10.000000;fill: none;"></path>
  <path d="M196.107101 467.646744C196.107101 466.585831,195.685593 465.568497,194.935471 464.818375C194.185349 464.068253,193.168015 463.646744,192.107101 463.646744C191.046188 463.646744,190.028854 464.068253,189.278732 464.818375C188.528610 465.568497,188.107101 466.585831,188.107101 467.646744C188.107101 468.707657,188.528610 469.724991,189.278732 470.475113C190.028854 471.225235,191.046188 471.646744,192.107101 471.646744C193.168015 471.646744,194.185349 471.225235,194.935471 470.475113C195.685593 469.724991,196.107101 468.707657,196.107101 467.646744Z" style="fill: rgb(89.999390%,0.000000%,0.000000%);stroke: none;"></path>
  <path d="M93.000000 602.000000C93.000000 600.939087,92.578491 599.921753,91.828369 599.171631C91.078247 598.421509,90.060913 598.000000,89.000000 598.000000C87.939087 598.000000,86.921753 598.421509,86.171631 599.171631C85.421509 599.921753,85.000000 600.939087,85.000000 602.000000C85.000000 603.060913,85.421509 604.078247,86.171631 604.828369C86.921753 605.578491,87.939087 606.000000,89.000000 606.000000C90.060913 606.000000,91.078247 605.578491,91.828369 604.828369C92.578491 604.078247,93.000000 603.060913,93.000000 602.000000Z" style="stroke:rgb(39.999390%,39.999390%,39.999390%); stroke-width: 0.500000;stroke-linecap: round;stroke-linejoin: round;stroke-miterlimit: 10.000000;fill: none;"></path>
  <path d="M93.000000 602.000000C93.000000 600.939087,92.578491 599.921753,91.828369 599.171631C91.078247 598.421509,90.060913 598.000000,89.000000 598.000000C87.939087 598.000000,86.921753 598.421509,86.171631 599.171631C85.421509 599.921753,85.000000 600.939087,85.000000 602.000000C85.000000 603.060913,85.421509 604.078247,86.171631 604.828369C86.921753 605.578491,87.939087 606.000000,89.000000 606.000000C90.060913 606.000000,91.078247 605.578491,91.828369 604.828369C92.578491 604.078247,93.000000 603.060913,93.000000 602.000000Z" style="fill: rgb(100.000000%,100.000000%,0.000000%);stroke: none;"></path>
  <path d="M192.107101 467.646744L292.143219 331.001083" style="stroke:rgb(60.000610%,60.000610%,60.000610%); stroke-width: 1.800003;stroke-linecap: round;stroke-dasharray: 3.000000 3.000000 ;stroke-linejoin: round;stroke-miterlimit: 10.000000;fill: none;"></path>
  <path d="M349.661392 171.716660L292.143219 331.001083" style="stroke:rgb(60.000610%,60.000610%,60.000610%); stroke-width: 1.800003;stroke-linecap: round;stroke-dasharray: 3.000000 3.000000 ;stroke-linejoin: round;stroke-miterlimit: 10.000000;fill: none;"></path>
  <path d="M196.107101 467.646744C196.107101 466.585831,195.685593 465.568497,194.935471 464.818375C194.185349 464.068253,193.168015 463.646744,192.107101 463.646744C191.046188 463.646744,190.028854 464.068253,189.278732 464.818375C188.528610 465.568497,188.107101 466.585831,188.107101 467.646744C188.107101 468.707657,188.528610 469.724991,189.278732 470.475113C190.028854 471.225235,191.046188 471.646744,192.107101 471.646744C193.168015 471.646744,194.185349 471.225235,194.935471 470.475113C195.685593 469.724991,196.107101 468.707657,196.107101 467.646744Z" style="stroke:rgb(39.999390%,39.999390%,39.999390%); stroke-width: 0.500000;stroke-linecap: round;stroke-linejoin: round;stroke-miterlimit: 10.000000;fill: none;"></path>
  <path d="M196.107101 467.646744C196.107101 466.585831,195.685593 465.568497,194.935471 464.818375C194.185349 464.068253,193.168015 463.646744,192.107101 463.646744C191.046188 463.646744,190.028854 464.068253,189.278732 464.818375C188.528610 465.568497,188.107101 466.585831,188.107101 467.646744C188.107101 468.707657,188.528610 469.724991,189.278732 470.475113C190.028854 471.225235,191.046188 471.646744,192.107101 471.646744C193.168015 471.646744,194.185349 471.225235,194.935471 470.475113C195.685593 469.724991,196.107101 468.707657,196.107101 467.646744Z" style="fill: rgb(89.999390%,0.000000%,0.000000%);stroke: none;"></path>
  <path d="M353.661392 171.716660C353.661392 170.655746,353.239883 169.638412,352.489761 168.888290C351.739639 168.138168,350.722305 167.716660,349.661392 167.716660C348.600479 167.716660,347.583145 168.138168,346.833023 168.888290C346.082901 169.638412,345.661392 170.655746,345.661392 171.716660C345.661392 172.777573,346.082901 173.794907,346.833023 174.545029C347.583145 175.295151,348.600479 175.716660,349.661392 175.716660C350.722305 175.716660,351.739639 175.295151,352.489761 174.545029C353.239883 173.794907,353.661392 172.777573,353.661392 171.716660Z" style="stroke:rgb(39.999390%,39.999390%,39.999390%); stroke-width: 0.500000;stroke-linecap: round;stroke-linejoin: round;stroke-miterlimit: 10.000000;fill: none;"></path>
  <path d="M353.661392 171.716660C353.661392 170.655746,353.239883 169.638412,352.489761 168.888290C351.739639 168.138168,350.722305 167.716660,349.661392 167.716660C348.600479 167.716660,347.583145 168.138168,346.833023 168.888290C346.082901 169.638412,345.661392 170.655746,345.661392 171.716660C345.661392 172.777573,346.082901 173.794907,346.833023 174.545029C347.583145 175.295151,348.600479 175.716660,349.661392 175.716660C350.722305 175.716660,351.739639 175.295151,352.489761 174.545029C353.239883 173.794907,353.661392 172.777573,353.661392 171.716660Z" style="fill: rgb(89.999390%,0.000000%,0.000000%);stroke: none;"></path>
  <path d="M296.143219 331.001083C296.143219 329.940170,295.721710 328.922836,294.971588 328.172714C294.221466 327.422592,293.204132 327.001083,292.143219 327.001083C291.082306 327.001083,290.064972 327.422592,289.314850 328.172714C288.564728 328.922836,288.143219 329.940170,288.143219 331.001083C288.143219 332.061996,288.564728 333.079330,289.314850 333.829453C290.064972 334.579575,291.082306 335.001083,292.143219 335.001083C293.204132 335.001083,294.221466 334.579575,294.971588 333.829453C295.721710 333.079330,296.143219 332.061996,296.143219 331.001083Z" style="stroke:rgb(39.999390%,39.999390%,39.999390%); stroke-width: 0.500000;stroke-linecap: round;stroke-linejoin: round;stroke-miterlimit: 10.000000;fill: none;"></path>
  <path d="M296.143219 331.001083C296.143219 329.940170,295.721710 328.922836,294.971588 328.172714C294.221466 327.422592,293.204132 327.001083,292.143219 327.001083C291.082306 327.001083,290.064972 327.422592,289.314850 328.172714C288.564728 328.922836,288.143219 329.940170,288.143219 331.001083C288.143219 332.061996,288.564728 333.079330,289.314850 333.829453C290.064972 334.579575,291.082306 335.001083,292.143219 335.001083C293.204132 335.001083,294.221466 334.579575,294.971588 333.829453C295.721710 333.079330,296.143219 332.061996,296.143219 331.001083Z" style="fill: rgb(9.800720%,9.800720%,44.000244%);stroke: none;"></path>
  <path d="M192.107101 467.646744L89.017303 333.284851" style="stroke:rgb(60.000610%,60.000610%,60.000610%); stroke-width: 1.800003;stroke-linecap: round;stroke-dasharray: 3.000000 3.000000 ;stroke-linejoin: round;stroke-miterlimit: 10.000000;fill: none;"></path>
  <path d="M169.295334 184.173599L89.017303 333.284851" style="stroke:rgb(60.000610%,60.000610%,60.000610%); stroke-width: 1.800003;stroke-linecap: round;stroke-dasharray: 3.000000 3.000000 ;stroke-linejoin: round;stroke-miterlimit: 10.000000;fill: none;"></path>
  <path d="M196.107101 467.646744C196.107101 466.585831,195.685593 465.568497,194.935471 464.818375C194.185349 464.068253,193.168015 463.646744,192.107101 463.646744C191.046188 463.646744,190.028854 464.068253,189.278732 464.818375C188.528610 465.568497,188.107101 466.585831,188.107101 467.646744C188.107101 468.707657,188.528610 469.724991,189.278732 470.475113C190.028854 471.225235,191.046188 471.646744,192.107101 471.646744C193.168015 471.646744,194.185349 471.225235,194.935471 470.475113C195.685593 469.724991,196.107101 468.707657,196.107101 467.646744Z" style="stroke:rgb(39.999390%,39.999390%,39.999390%); stroke-width: 0.500000;stroke-linecap: round;stroke-linejoin: round;stroke-miterlimit: 10.000000;fill: none;"></path>
  <path d="M196.107101 467.646744C196.107101 466.585831,195.685593 465.568497,194.935471 464.818375C194.185349 464.068253,193.168015 463.646744,192.107101 463.646744C191.046188 463.646744,190.028854 464.068253,189.278732 464.818375C188.528610 465.568497,188.107101 466.585831,188.107101 467.646744C188.107101 468.707657,188.528610 469.724991,189.278732 470.475113C190.028854 471.225235,191.046188 471.646744,192.107101 471.646744C193.168015 471.646744,194.185349 471.225235,194.935471 470.475113C195.685593 469.724991,196.107101 468.707657,196.107101 467.646744Z" style="fill: rgb(89.999390%,0.000000%,0.000000%);stroke: none;"></path>
  <path d="M173.295334 184.173599C173.295334 183.112686,172.873825 182.095352,172.123703 181.345230C171.373581 180.595108,170.356247 180.173599,169.295334 180.173599C168.234421 180.173599,167.217087 180.595108,166.466965 181.345230C165.716843 182.095352,165.295334 183.112686,165.295334 184.173599C165.295334 185.234512,165.716843 186.251846,166.466965 187.001968C167.217087 187.752090,168.234421 188.173599,169.295334 188.173599C170.356247 188.173599,171.373581 187.752090,172.123703 187.001968C172.873825 186.251846,173.295334 185.234512,173.295334 184.173599Z" style="stroke:rgb(39.999390%,39.999390%,39.999390%); stroke-width: 0.500000;stroke-linecap: round;stroke-linejoin: round;stroke-miterlimit: 10.000000;fill: none;"></path>
  <path d="M173.295334 184.173599C173.295334 183.112686,172.873825 182.095352,172.123703 181.345230C171.373581 180.595108,170.356247 180.173599,169.295334 180.173599C168.234421 180.173599,167.217087 180.595108,166.466965 181.345230C165.716843 182.095352,165.295334 183.112686,165.295334 184.173599C165.295334 185.234512,165.716843 186.251846,166.466965 187.001968C167.217087 187.752090,168.234421 188.173599,169.295334 188.173599C170.356247 188.173599,171.373581 187.752090,172.123703 187.001968C172.873825 186.251846,173.295334 185.234512,173.295334 184.173599Z" style="fill: rgb(89.999390%,0.000000%,0.000000%);stroke: none;"></path>
  <path d="M93.017303 333.284851C93.017303 332.223938,92.595795 331.206604,91.845673 330.456482C91.095551 329.706360,90.078217 329.284851,89.017303 329.284851C87.956390 329.284851,86.939056 329.706360,86.188934 330.456482C85.438812 331.206604,85.017303 332.223938,85.017303 333.284851C85.017303 334.345764,85.438812 335.363098,86.188934 336.113220C86.939056 336.863342,87.956390 337.284851,89.017303 337.284851C90.078217 337.284851,91.095551 336.863342,91.845673 336.113220C92.595795 335.363098,93.017303 334.345764,93.017303 333.284851Z" style="stroke:rgb(39.999390%,39.999390%,39.999390%); stroke-width: 0.500000;stroke-linecap: round;stroke-linejoin: round;stroke-miterlimit: 10.000000;fill: none;"></path>
  <path d="M93.017303 333.284851C93.017303 332.223938,92.595795 331.206604,91.845673 330.456482C91.095551 329.706360,90.078217 329.284851,89.017303 329.284851C87.956390 329.284851,86.939056 329.706360,86.188934 330.456482C85.438812 331.206604,85.017303 332.223938,85.017303 333.284851C85.017303 334.345764,85.438812 335.363098,86.188934 336.113220C86.939056 336.863342,87.956390 337.284851,89.017303 337.284851C90.078217 337.284851,91.095551 336.863342,91.845673 336.113220C92.595795 335.363098,93.017303 334.345764,93.017303 333.284851Z" style="fill: rgb(0.000000%,50.000000%,0.000000%);stroke: none;"></path>
  <path d="M349.661392 171.716660L449.714813 35.088287" style="stroke:rgb(60.000610%,60.000610%,60.000610%); stroke-width: 1.800003;stroke-linecap: round;stroke-dasharray: 3.000000 3.000000 ;stroke-linejoin: round;stroke-miterlimit: 10.000000;fill: none;"></path>
  <path d="M552.821915 169.424240L449.714813 35.088287" style="stroke:rgb(60.000610%,60.000610%,60.000610%); stroke-width: 1.800003;stroke-linecap: round;stroke-dasharray: 3.000000 3.000000 ;stroke-linejoin: round;stroke-miterlimit: 10.000000;fill: none;"></path>
  <path d="M353.661392 171.716660C353.661392 170.655746,353.239883 169.638412,352.489761 168.888290C351.739639 168.138168,350.722305 167.716660,349.661392 167.716660C348.600479 167.716660,347.583145 168.138168,346.833023 168.888290C346.082901 169.638412,345.661392 170.655746,345.661392 171.716660C345.661392 172.777573,346.082901 173.794907,346.833023 174.545029C347.583145 175.295151,348.600479 175.716660,349.661392 175.716660C350.722305 175.716660,351.739639 175.295151,352.489761 174.545029C353.239883 173.794907,353.661392 172.777573,353.661392 171.716660Z" style="stroke:rgb(39.999390%,39.999390%,39.999390%); stroke-width: 0.500000;stroke-linecap: round;stroke-linejoin: round;stroke-miterlimit: 10.000000;fill: none;"></path>
  <path d="M353.661392 171.716660C353.661392 170.655746,353.239883 169.638412,352.489761 168.888290C351.739639 168.138168,350.722305 167.716660,349.661392 167.716660C348.600479 167.716660,347.583145 168.138168,346.833023 168.888290C346.082901 169.638412,345.661392 170.655746,345.661392 171.716660C345.661392 172.777573,346.082901 173.794907,346.833023 174.545029C347.583145 175.295151,348.600479 175.716660,349.661392 175.716660C350.722305 175.716660,351.739639 175.295151,352.489761 174.545029C353.239883 173.794907,353.661392 172.777573,353.661392 171.716660Z" style="fill: rgb(89.999390%,0.000000%,0.000000%);stroke: none;"></path>
  <path d="M556.821915 169.424240C556.821915 168.363327,556.400406 167.345993,555.650284 166.595871C554.900162 165.845749,553.882828 165.424240,552.821915 165.424240C551.761002 165.424240,550.743668 165.845749,549.993546 166.595871C549.243423 167.345993,548.821915 168.363327,548.821915 169.424240C548.821915 170.485153,549.243423 171.502487,549.993546 172.252609C550.743668 173.002731,551.761002 173.424240,552.821915 173.424240C553.882828 173.424240,554.900162 173.002731,555.650284 172.252609C556.400406 171.502487,556.821915 170.485153,556.821915 169.424240Z" style="stroke:rgb(39.999390%,39.999390%,39.999390%); stroke-width: 0.500000;stroke-linecap: round;stroke-linejoin: round;stroke-miterlimit: 10.000000;fill: none;"></path>
  <path d="M556.821915 169.424240C556.821915 168.363327,556.400406 167.345993,555.650284 166.595871C554.900162 165.845749,553.882828 165.424240,552.821915 165.424240C551.761002 165.424240,550.743668 165.845749,549.993546 166.595871C549.243423 167.345993,548.821915 168.363327,548.821915 169.424240C548.821915 170.485153,549.243423 171.502487,549.993546 172.252609C550.743668 173.002731,551.761002 173.424240,552.821915 173.424240C553.882828 173.424240,554.900162 173.002731,555.650284 172.252609C556.400406 171.502487,556.821915 170.485153,556.821915 169.424240Z" style="fill: rgb(89.999390%,0.000000%,0.000000%);stroke: none;"></path>
  <path d="M453.714813 35.088287C453.714813 34.027374,453.293304 33.010040,452.543182 32.259918C451.793060 31.509796,450.775726 31.088287,449.714813 31.088287C448.653900 31.088287,447.636566 31.509796,446.886444 32.259918C446.136322 33.010040,445.714813 34.027374,445.714813 35.088287C445.714813 36.149200,446.136322 37.166534,446.886444 37.916656C447.636566 38.666779,448.653900 39.088287,449.714813 39.088287C450.775726 39.088287,451.793060 38.666779,452.543182 37.916656C453.293304 37.166534,453.714813 36.149200,453.714813 35.088287Z" style="stroke:rgb(39.999390%,39.999390%,39.999390%); stroke-width: 0.500000;stroke-linecap: round;stroke-linejoin: round;stroke-miterlimit: 10.000000;fill: none;"></path>
  <path d="M453.714813 35.088287C453.714813 34.027374,453.293304 33.010040,452.543182 32.259918C451.793060 31.509796,450.775726 31.088287,449.714813 31.088287C448.653900 31.088287,447.636566 31.509796,446.886444 32.259918C446.136322 33.010040,445.714813 34.027374,445.714813 35.088287C445.714813 36.149200,446.136322 37.166534,446.886444 37.916656C447.636566 38.666779,448.653900 39.088287,449.714813 39.088287C450.775726 39.088287,451.793060 38.666779,452.543182 37.916656C453.293304 37.166534,453.714813 36.149200,453.714813 35.088287Z" style="fill: rgb(0.000000%,50.000000%,0.000000%);stroke: none;"></path>
  <path d="M349.661392 171.716660L452.768494 306.061249" style="stroke:rgb(60.000610%,60.000610%,60.000610%); stroke-width: 1.800003;stroke-linecap: round;stroke-dasharray: 3.000000 3.000000 ;stroke-linejoin: round;stroke-miterlimit: 10.000000;fill: none;"></path>
  <path d="M552.821915 169.424240L452.768494 306.061249" style="stroke:rgb(60.000610%,60.000610%,60.000610%); stroke-width: 1.800003;stroke-linecap: round;stroke-dasharray: 3.000000 3.000000 ;stroke-linejoin: round;stroke-miterlimit: 10.000000;fill: none;"></path>
  <path d="M353.661392 171.716660C353.661392 170.655746,353.239883 169.638412,352.489761 168.888290C351.739639 168.138168,350.722305 167.716660,349.661392 167.716660C348.600479 167.716660,347.583145 168.138168,346.833023 168.888290C346.082901 169.638412,345.661392 170.655746,345.661392 171.716660C345.661392 172.777573,346.082901 173.794907,346.833023 174.545029C347.583145 175.295151,348.600479 175.716660,349.661392 175.716660C350.722305 175.716660,351.739639 175.295151,352.489761 174.545029C353.239883 173.794907,353.661392 172.777573,353.661392 171.716660Z" style="stroke:rgb(39.999390%,39.999390%,39.999390%); stroke-width: 0.500000;stroke-linecap: round;stroke-linejoin: round;stroke-miterlimit: 10.000000;fill: none;"></path>
  <path d="M353.661392 171.716660C353.661392 170.655746,353.239883 169.638412,352.489761 168.888290C351.739639 168.138168,350.722305 167.716660,349.661392 167.716660C348.600479 167.716660,347.583145 168.138168,346.833023 168.888290C346.082901 169.638412,345.661392 170.655746,345.661392 171.716660C345.661392 172.777573,346.082901 173.794907,346.833023 174.545029C347.583145 175.295151,348.600479 175.716660,349.661392 175.716660C350.722305 175.716660,351.739639 175.295151,352.489761 174.545029C353.239883 173.794907,353.661392 172.777573,353.661392 171.716660Z" style="fill: rgb(89.999390%,0.000000%,0.000000%);stroke: none;"></path>
  <path d="M556.821915 169.424240C556.821915 168.363327,556.400406 167.345993,555.650284 166.595871C554.900162 165.845749,553.882828 165.424240,552.821915 165.424240C551.761002 165.424240,550.743668 165.845749,549.993546 166.595871C549.243423 167.345993,548.821915 168.363327,548.821915 169.424240C548.821915 170.485153,549.243423 171.502487,549.993546 172.252609C550.743668 173.002731,551.761002 173.424240,552.821915 173.424240C553.882828 173.424240,554.900162 173.002731,555.650284 172.252609C556.400406 171.502487,556.821915 170.485153,556.821915 169.424240Z" style="stroke:rgb(39.999390%,39.999390%,39.999390%); stroke-width: 0.500000;stroke-linecap: round;stroke-linejoin: round;stroke-miterlimit: 10.000000;fill: none;"></path>
  <path d="M556.821915 169.424240C556.821915 168.363327,556.400406 167.345993,555.650284 166.595871C554.900162 165.845749,553.882828 165.424240,552.821915 165.424240C551.761002 165.424240,550.743668 165.845749,549.993546 166.595871C549.243423 167.345993,548.821915 168.363327,548.821915 169.424240C548.821915 170.485153,549.243423 171.502487,549.993546 172.252609C550.743668 173.002731,551.761002 173.424240,552.821915 173.424240C553.882828 173.424240,554.900162 173.002731,555.650284 172.252609C556.400406 171.502487,556.821915 170.485153,556.821915 169.424240Z" style="fill: rgb(89.999390%,0.000000%,0.000000%);stroke: none;"></path>
  <path d="M456.768494 306.061249C456.768494 305.000336,456.346985 303.983002,455.596863 303.232880C454.846741 302.482758,453.829407 302.061249,452.768494 302.061249C451.707581 302.061249,450.690247 302.482758,449.940125 303.232880C449.190002 303.983002,448.768494 305.000336,448.768494 306.061249C448.768494 307.122162,449.190002 308.139496,449.940125 308.889618C450.690247 309.639740,451.707581 310.061249,452.768494 310.061249C453.829407 310.061249,454.846741 309.639740,455.596863 308.889618C456.346985 308.139496,456.768494 307.122162,456.768494 306.061249Z" style="stroke:rgb(39.999390%,39.999390%,39.999390%); stroke-width: 0.500000;stroke-linecap: round;stroke-linejoin: round;stroke-miterlimit: 10.000000;fill: none;"></path>
  <path d="M456.768494 306.061249C456.768494 305.000336,456.346985 303.983002,455.596863 303.232880C454.846741 302.482758,453.829407 302.061249,452.768494 302.061249C451.707581 302.061249,450.690247 302.482758,449.940125 303.232880C449.190002 303.983002,448.768494 305.000336,448.768494 306.061249C448.768494 307.122162,449.190002 308.139496,449.940125 308.889618C450.690247 309.639740,451.707581 310.061249,452.768494 310.061249C453.829407 310.061249,454.846741 309.639740,455.596863 308.889618C456.346985 308.139496,456.768494 307.122162,456.768494 306.061249Z" style="fill: rgb(9.800720%,9.800720%,44.000244%);stroke: none;"></path>
  <path d="M349.661392 171.716660L249.607971 35.079636" style="stroke:rgb(60.000610%,60.000610%,60.000610%); stroke-width: 1.800003;stroke-linecap: round;stroke-dasharray: 3.000000 3.000000 ;stroke-linejoin: round;stroke-miterlimit: 10.000000;fill: none;"></path>
  <path d="M169.295334 184.173599L249.607971 35.079636" style="stroke:rgb(60.000610%,60.000610%,60.000610%); stroke-width: 1.800003;stroke-linecap: round;stroke-dasharray: 3.000000 3.000000 ;stroke-linejoin: round;stroke-miterlimit: 10.000000;fill: none;"></path>
  <path d="M353.661392 171.716660C353.661392 170.655746,353.239883 169.638412,352.489761 168.888290C351.739639 168.138168,350.722305 167.716660,349.661392 167.716660C348.600479 167.716660,347.583145 168.138168,346.833023 168.888290C346.082901 169.638412,345.661392 170.655746,345.661392 171.716660C345.661392 172.777573,346.082901 173.794907,346.833023 174.545029C347.583145 175.295151,348.600479 175.716660,349.661392 175.716660C350.722305 175.716660,351.739639 175.295151,352.489761 174.545029C353.239883 173.794907,353.661392 172.777573,353.661392 171.716660Z" style="stroke:rgb(39.999390%,39.999390%,39.999390%); stroke-width: 0.500000;stroke-linecap: round;stroke-linejoin: round;stroke-miterlimit: 10.000000;fill: none;"></path>
  <path d="M353.661392 171.716660C353.661392 170.655746,353.239883 169.638412,352.489761 168.888290C351.739639 168.138168,350.722305 167.716660,349.661392 167.716660C348.600479 167.716660,347.583145 168.138168,346.833023 168.888290C346.082901 169.638412,345.661392 170.655746,345.661392 171.716660C345.661392 172.777573,346.082901 173.794907,346.833023 174.545029C347.583145 175.295151,348.600479 175.716660,349.661392 175.716660C350.722305 175.716660,351.739639 175.295151,352.489761 174.545029C353.239883 173.794907,353.661392 172.777573,353.661392 171.716660Z" style="fill: rgb(89.999390%,0.000000%,0.000000%);stroke: none;"></path>
  <path d="M173.295334 184.173599C173.295334 183.112686,172.873825 182.095352,172.123703 181.345230C171.373581 180.595108,170.356247 180.173599,169.295334 180.173599C168.234421 180.173599,167.217087 180.595108,166.466965 181.345230C165.716843 182.095352,165.295334 183.112686,165.295334 184.173599C165.295334 185.234512,165.716843 186.251846,166.466965 187.001968C167.217087 187.752090,168.234421 188.173599,169.295334 188.173599C170.356247 188.173599,171.373581 187.752090,172.123703 187.001968C172.873825 186.251846,173.295334 185.234512,173.295334 184.173599Z" style="stroke:rgb(39.999390%,39.999390%,39.999390%); stroke-width: 0.500000;stroke-linecap: round;stroke-linejoin: round;stroke-miterlimit: 10.000000;fill: none;"></path>
  <path d="M173.295334 184.173599C173.295334 183.112686,172.873825 182.095352,172.123703 181.345230C171.373581 180.595108,170.356247 180.173599,169.295334 180.173599C168.234421 180.173599,167.217087 180.595108,166.466965 181.345230C165.716843 182.095352,165.295334 183.112686,165.295334 184.173599C165.295334 185.234512,165.716843 186.251846,166.466965 187.001968C167.217087 187.752090,168.234421 188.173599,169.295334 188.173599C170.356247 188.173599,171.373581 187.752090,172.123703 187.001968C172.873825 186.251846,173.295334 185.234512,173.295334 184.173599Z" style="fill: rgb(89.999390%,0.000000%,0.000000%);stroke: none;"></path>
  <path d="M253.607971 35.079636C253.607971 34.018723,253.186462 33.001389,252.436340 32.251266C251.686218 31.501144,250.668884 31.079636,249.607971 31.079636C248.547058 31.079636,247.529724 31.501144,246.779602 32.251266C246.029480 33.001389,245.607971 34.018723,245.607971 35.079636C245.607971 36.140549,246.029480 37.157883,246.779602 37.908005C247.529724 38.658127,248.547058 39.079636,249.607971 39.079636C250.668884 39.079636,251.686218 38.658127,252.436340 37.908005C253.186462 37.157883,253.607971 36.140549,253.607971 35.079636Z" style="stroke:rgb(39.999390%,39.999390%,39.999390%); stroke-width: 0.500000;stroke-linecap: round;stroke-linejoin: round;stroke-miterlimit: 10.000000;fill: none;"></path>
  <path d="M253.607971 35.079636C253.607971 34.018723,253.186462 33.001389,252.436340 32.251266C251.686218 31.501144,250.668884 31.079636,249.607971 31.079636C248.547058 31.079636,247.529724 31.501144,246.779602 32.251266C246.029480 33.001389,245.607971 34.018723,245.607971 35.079636C245.607971 36.140549,246.029480 37.157883,246.779602 37.908005C247.529724 38.658127,248.547058 39.079636,249.607971 39.079636C250.668884 39.079636,251.686218 38.658127,252.436340 37.908005C253.186462 37.157883,253.607971 36.140549,253.607971 35.079636Z" style="fill: rgb(0.000000%,50.000000%,0.000000%);stroke: none;"></path>
  <path d="M552.821915 169.424240L655.929016 35.070984" style="stroke:rgb(60.000610%,60.000610%,60.000610%); stroke-width: 1.800003;stroke-linecap: round;stroke-dasharray: 3.000000 3.000000 ;stroke-linejoin: round;stroke-miterlimit: 10.000000;fill: none;"></path>
  <path d="M556.821915 169.424240C556.821915 168.363327,556.400406 167.345993,555.650284 166.595871C554.900162 165.845749,553.882828 165.424240,552.821915 165.424240C551.761002 165.424240,550.743668 165.845749,549.993546 166.595871C549.243423 167.345993,548.821915 168.363327,548.821915 169.424240C548.821915 170.485153,549.243423 171.502487,549.993546 172.252609C550.743668 173.002731,551.761002 173.424240,552.821915 173.424240C553.882828 173.424240,554.900162 173.002731,555.650284 172.252609C556.400406 171.502487,556.821915 170.485153,556.821915 169.424240Z" style="stroke:rgb(39.999390%,39.999390%,39.999390%); stroke-width: 0.500000;stroke-linecap: round;stroke-linejoin: round;stroke-miterlimit: 10.000000;fill: none;"></path>
  <path d="M556.821915 169.424240C556.821915 168.363327,556.400406 167.345993,555.650284 166.595871C554.900162 165.845749,553.882828 165.424240,552.821915 165.424240C551.761002 165.424240,550.743668 165.845749,549.993546 166.595871C549.243423 167.345993,548.821915 168.363327,548.821915 169.424240C548.821915 170.485153,549.243423 171.502487,549.993546 172.252609C550.743668 173.002731,551.761002 173.424240,552.821915 173.424240C553.882828 173.424240,554.900162 173.002731,555.650284 172.252609C556.400406 171.502487,556.821915 170.485153,556.821915 169.424240Z" style="fill: rgb(89.999390%,0.000000%,0.000000%);stroke: none;"></path>
  <path d="M659.929016 35.070984C659.929016 34.010071,659.507507 32.992737,658.757385 32.242615C658.007263 31.492493,656.989929 31.070984,655.929016 31.070984C654.868103 31.070984,653.850769 31.492493,653.100647 32.242615C652.350525 32.992737,651.929016 34.010071,651.929016 35.070984C651.929016 36.131897,652.350525 37.149231,653.100647 37.899353C653.850769 38.649475,654.868103 39.070984,655.929016 39.070984C656.989929 39.070984,658.007263 38.649475,658.757385 37.899353C659.507507 37.149231,659.929016 36.131897,659.929016 35.070984Z" style="stroke:rgb(39.999390%,39.999390%,39.999390%); stroke-width: 0.500000;stroke-linecap: round;stroke-linejoin: round;stroke-miterlimit: 10.000000;fill: none;"></path>
  <path d="M659.929016 35.070984C659.929016 34.010071,659.507507 32.992737,658.757385 32.242615C658.007263 31.492493,656.989929 31.070984,655.929016 31.070984C654.868103 31.070984,653.850769 31.492493,653.100647 32.242615C652.350525 32.992737,651.929016 34.010071,651.929016 35.070984C651.929016 36.131897,652.350525 37.149231,653.100647 37.899353C653.850769 38.649475,654.868103 39.070984,655.929016 39.070984C656.989929 39.070984,658.007263 38.649475,658.757385 37.899353C659.507507 37.149231,659.929016 36.131897,659.929016 35.070984Z" style="fill: rgb(100.000000%,100.000000%,0.000000%);stroke: none;"></path>
  <path d="M169.295334 184.173599L89.000000 35.070984" style="stroke:rgb(60.000610%,60.000610%,60.000610%); stroke-width: 1.800003;stroke-linecap: round;stroke-dasharray: 3.000000 3.000000 ;stroke-linejoin: round;stroke-miterlimit: 10.000000;fill: none;"></path>
  <path d="M173.295334 184.173599C173.295334 183.112686,172.873825 182.095352,172.123703 181.345230C171.373581 180.595108,170.356247 180.173599,169.295334 180.173599C168.234421 180.173599,167.217087 180.595108,166.466965 181.345230C165.716843 182.095352,165.295334 183.112686,165.295334 184.173599C165.295334 185.234512,165.716843 186.251846,166.466965 187.001968C167.217087 187.752090,168.234421 188.173599,169.295334 188.173599C170.356247 188.173599,171.373581 187.752090,172.123703 187.001968C172.873825 186.251846,173.295334 185.234512,173.295334 184.173599Z" style="stroke:rgb(39.999390%,39.999390%,39.999390%); stroke-width: 0.500000;stroke-linecap: round;stroke-linejoin: round;stroke-miterlimit: 10.000000;fill: none;"></path>
  <path d="M173.295334 184.173599C173.295334 183.112686,172.873825 182.095352,172.123703 181.345230C171.373581 180.595108,170.356247 180.173599,169.295334 180.173599C168.234421 180.173599,167.217087 180.595108,166.466965 181.345230C165.716843 182.095352,165.295334 183.112686,165.295334 184.173599C165.295334 185.234512,165.716843 186.251846,166.466965 187.001968C167.217087 187.752090,168.234421 188.173599,169.295334 188.173599C170.356247 188.173599,171.373581 187.752090,172.123703 187.001968C172.873825 186.251846,173.295334 185.234512,173.295334 184.173599Z" style="fill: rgb(89.999390%,0.000000%,0.000000%);stroke: none;"></path>
  <path d="M93.000000 35.070984C93.000000 34.010071,92.578491 32.992737,91.828369 32.242615C91.078247 31.492493,90.060913 31.070984,89.000000 31.070984C87.939087 31.070984,86.921753 31.492493,86.171631 32.242615C85.421509 32.992737,85.000000 34.010071,85.000000 35.070984C85.000000 36.131897,85.421509 37.149231,86.171631 37.899353C86.921753 38.649475,87.939087 39.070984,89.000000 39.070984C90.060913 39.070984,91.078247 38.649475,91.828369 37.899353C92.578491 37.149231,93.000000 36.131897,93.000000 35.070984Z" style="stroke:rgb(39.999390%,39.999390%,39.999390%); stroke-width: 0.500000;stroke-linecap: round;stroke-linejoin: round;stroke-miterlimit: 10.000000;fill: none;"></path>
  <path d="M93.000000 35.070984C93.000000 34.010071,92.578491 32.992737,91.828369 32.242615C91.078247 31.492493,90.060913 31.070984,89.000000 31.070984C87.939087 31.070984,86.921753 31.492493,86.171631 32.242615C85.421509 32.992737,85.000000 34.010071,85.000000 35.070984C85.000000 36.131897,85.421509 37.149231,86.171631 37.899353C86.921753 38.649475,87.939087 39.070984,89.000000 39.070984C90.060913 39.070984,91.078247 38.649475,91.828369 37.899353C92.578491 37.149231,93.000000 36.131897,93.000000 35.070984Z" style="fill: rgb(100.000000%,100.000000%,0.000000%);stroke: none;"></path>
</svg>
