<?xml version="1.0"?>
<!-- Created by MetaPost 2.00 on 2022.03.31:1000 -->
<svg version="1.1" xmlns="http://www.w3.org/2000/svg" xmlns:xlink="http://www.w3.org/1999/xlink" width="802.707672" height="802.707672" viewBox="0 0 802.707672 802.707672">
<!-- Original BoundingBox: -117.889328 -117.889328 684.818344 684.818344 -->
  <path d="M117.000000 684.000000L683.929016 684.000000L683.929016 117.070984L117.000000 117.070984L117.000000 684.000000Z" style="fill: rgb(100.000000%,100.000000%,100.000000%);stroke: none;"></path>
  <path d="M117.000000 684.000000L683.929016 684.000000" style="stroke:rgb(0.000000%,0.000000%,0.000000%); stroke-width: 1.000000;stroke-linecap: round;stroke-linejoin: round;stroke-miterlimit: 10.000000;fill: none;"></path>
  <path d="M683.929016 684.000000L683.929016 117.070984" style="stroke:rgb(0.000000%,0.000000%,0.000000%); stroke-width: 1.000000;stroke-linecap: round;stroke-linejoin: round;stroke-miterlimit: 10.000000;fill: none;"></path>
  <path d="M683.929016 117.070984L117.000000 117.070984" style="stroke:rgb(0.000000%,0.000000%,0.000000%); stroke-width: 1.000000;stroke-linecap: round;stroke-linejoin: round;stroke-miterlimit: 10.000000;fill: none;"></path>
  <path d="M117.000000 117.070984L117.000000 684.000000" style="stroke:rgb(0.000000%,0.000000%,0.000000%); stroke-width: 1.000000;stroke-linecap: round;stroke-linejoin: round;stroke-miterlimit: 10.000000;fill: none;"></path>
  <path d="M801.318344 400.535492C801.318344 294.217728,759.077484 192.267166,683.905167 117.094833C608.732834 41.922516,506.782272 -0.318344,400.464508 -0.318344C294.146744 -0.318344,192.196182 41.922516,117.023849 117.094833C41.851532 192.267166,-0.389328 294.217728,-0.389328 400.535492C-0.389328 506.853256,41.851532 608.803818,117.023849 683.976151C192.196182 759.148468,294.146744 801.389328,400.464508 801.389328C506.782272 801.389328,608.732834 759.148468,683.905167 683.976151C759.077484 608.803818,801.318344 506.853256,801.318344 400.535492Z" style="stroke:rgb(25.500488%,41.000366%,88.400269%); stroke-width: 1.000000;stroke-linecap: round;stroke-linejoin: round;stroke-miterlimit: 10.000000;fill: none;"></path>
  <path d="M400.464508 400.535492L117.000000 684.000000" style="stroke:rgb(60.000610%,60.000610%,60.000610%); stroke-width: 1.800003;stroke-linecap: round;stroke-dasharray: 3.000000 3.000000 ;stroke-linejoin: round;stroke-miterlimit: 10.000000;fill: none;"></path>
  <path d="M404.464508 400.535492C404.464508 399.474579,404.042999 398.457245,403.292877 397.707123C402.542755 396.957001,401.525421 396.535492,400.464508 396.535492C399.403595 396.535492,398.386261 396.957001,397.636139 397.707123C396.886017 398.457245,396.464508 399.474579,396.464508 400.535492C396.464508 401.596405,396.886017 402.613739,397.636139 403.363861C398.386261 404.113983,399.403595 404.535492,400.464508 404.535492C401.525421 404.535492,402.542755 404.113983,403.292877 403.363861C404.042999 402.613739,404.464508 401.596405,404.464508 400.535492Z" style="stroke:rgb(39.999390%,39.999390%,39.999390%); stroke-width: 0.500000;stroke-linecap: round;stroke-linejoin: round;stroke-miterlimit: 10.000000;fill: none;"></path>
  <path d="M404.464508 400.535492C404.464508 399.474579,404.042999 398.457245,403.292877 397.707123C402.542755 396.957001,401.525421 396.535492,400.464508 396.535492C399.403595 396.535492,398.386261 396.957001,397.636139 397.707123C396.886017 398.457245,396.464508 399.474579,396.464508 400.535492C396.464508 401.596405,396.886017 402.613739,397.636139 403.363861C398.386261 404.113983,399.403595 404.535492,400.464508 404.535492C401.525421 404.535492,402.542755 404.113983,403.292877 403.363861C404.042999 402.613739,404.464508 401.596405,404.464508 400.535492Z" style="fill: rgb(89.999390%,0.000000%,0.000000%);stroke: none;"></path>
  <path d="M121.000000 684.000000C121.000000 682.939087,120.578491 681.921753,119.828369 681.171631C119.078247 680.421509,118.060913 680.000000,117.000000 680.000000C115.939087 680.000000,114.921753 680.421509,114.171631 681.171631C113.421509 681.921753,113.000000 682.939087,113.000000 684.000000C113.000000 685.060913,113.421509 686.078247,114.171631 686.828369C114.921753 687.578491,115.939087 688.000000,117.000000 688.000000C118.060913 688.000000,119.078247 687.578491,119.828369 686.828369C120.578491 686.078247,121.000000 685.060913,121.000000 684.000000Z" style="stroke:rgb(39.999390%,39.999390%,39.999390%); stroke-width: 0.500000;stroke-linecap: round;stroke-linejoin: round;stroke-miterlimit: 10.000000;fill: none;"></path>
  <path d="M121.000000 684.000000C121.000000 682.939087,120.578491 681.921753,119.828369 681.171631C119.078247 680.421509,118.060913 680.000000,117.000000 680.000000C115.939087 680.000000,114.921753 680.421509,114.171631 681.171631C113.421509 681.921753,113.000000 682.939087,113.000000 684.000000C113.000000 685.060913,113.421509 686.078247,114.171631 686.828369C114.921753 687.578491,115.939087 688.000000,117.000000 688.000000C118.060913 688.000000,119.078247 687.578491,119.828369 686.828369C120.578491 686.078247,121.000000 685.060913,121.000000 684.000000Z" style="fill: rgb(100.000000%,100.000000%,0.000000%);stroke: none;"></path>
  <path d="M400.464508 400.535492L683.929016 684.000000" style="stroke:rgb(60.000610%,60.000610%,60.000610%); stroke-width: 1.800003;stroke-linecap: round;stroke-dasharray: 3.000000 3.000000 ;stroke-linejoin: round;stroke-miterlimit: 10.000000;fill: none;"></path>
  <path d="M404.464508 400.535492C404.464508 399.474579,404.042999 398.457245,403.292877 397.707123C402.542755 396.957001,401.525421 396.535492,400.464508 396.535492C399.403595 396.535492,398.386261 396.957001,397.636139 397.707123C396.886017 398.457245,396.464508 399.474579,396.464508 400.535492C396.464508 401.596405,396.886017 402.613739,397.636139 403.363861C398.386261 404.113983,399.403595 404.535492,400.464508 404.535492C401.525421 404.535492,402.542755 404.113983,403.292877 403.363861C404.042999 402.613739,404.464508 401.596405,404.464508 400.535492Z" style="stroke:rgb(39.999390%,39.999390%,39.999390%); stroke-width: 0.500000;stroke-linecap: round;stroke-linejoin: round;stroke-miterlimit: 10.000000;fill: none;"></path>
  <path d="M404.464508 400.535492C404.464508 399.474579,404.042999 398.457245,403.292877 397.707123C402.542755 396.957001,401.525421 396.535492,400.464508 396.535492C399.403595 396.535492,398.386261 396.957001,397.636139 397.707123C396.886017 398.457245,396.464508 399.474579,396.464508 400.535492C396.464508 401.596405,396.886017 402.613739,397.636139 403.363861C398.386261 404.113983,399.403595 404.535492,400.464508 404.535492C401.525421 404.535492,402.542755 404.113983,403.292877 403.363861C404.042999 402.613739,404.464508 401.596405,404.464508 400.535492Z" style="fill: rgb(89.999390%,0.000000%,0.000000%);stroke: none;"></path>
  <path d="M687.929016 684.000000C687.929016 682.939087,687.507507 681.921753,686.757385 681.171631C686.007263 680.421509,684.989929 680.000000,683.929016 680.000000C682.868103 680.000000,681.850769 680.421509,681.100647 681.171631C680.350525 681.921753,679.929016 682.939087,679.929016 684.000000C679.929016 685.060913,680.350525 686.078247,681.100647 686.828369C681.850769 687.578491,682.868103 688.000000,683.929016 688.000000C684.989929 688.000000,686.007263 687.578491,686.757385 686.828369C687.507507 686.078247,687.929016 685.060913,687.929016 684.000000Z" style="stroke:rgb(39.999390%,39.999390%,39.999390%); stroke-width: 0.500000;stroke-linecap: round;stroke-linejoin: round;stroke-miterlimit: 10.000000;fill: none;"></path>
  <path d="M687.929016 684.000000C687.929016 682.939087,687.507507 681.921753,686.757385 681.171631C686.007263 680.421509,684.989929 680.000000,683.929016 680.000000C682.868103 680.000000,681.850769 680.421509,681.100647 681.171631C680.350525 681.921753,679.929016 682.939087,679.929016 684.000000C679.929016 685.060913,680.350525 686.078247,681.100647 686.828369C681.850769 687.578491,682.868103 688.000000,683.929016 688.000000C684.989929 688.000000,686.007263 687.578491,686.757385 686.828369C687.507507 686.078247,687.929016 685.060913,687.929016 684.000000Z" style="fill: rgb(100.000000%,100.000000%,0.000000%);stroke: none;"></path>
  <path d="M400.464508 400.535492L683.929016 117.070984" style="stroke:rgb(60.000610%,60.000610%,60.000610%); stroke-width: 1.800003;stroke-linecap: round;stroke-dasharray: 3.000000 3.000000 ;stroke-linejoin: round;stroke-miterlimit: 10.000000;fill: none;"></path>
  <path d="M404.464508 400.535492C404.464508 399.474579,404.042999 398.457245,403.292877 397.707123C402.542755 396.957001,401.525421 396.535492,400.464508 396.535492C399.403595 396.535492,398.386261 396.957001,397.636139 397.707123C396.886017 398.457245,396.464508 399.474579,396.464508 400.535492C396.464508 401.596405,396.886017 402.613739,397.636139 403.363861C398.386261 404.113983,399.403595 404.535492,400.464508 404.535492C401.525421 404.535492,402.542755 404.113983,403.292877 403.363861C404.042999 402.613739,404.464508 401.596405,404.464508 400.535492Z" style="stroke:rgb(39.999390%,39.999390%,39.999390%); stroke-width: 0.500000;stroke-linecap: round;stroke-linejoin: round;stroke-miterlimit: 10.000000;fill: none;"></path>
  <path d="M404.464508 400.535492C404.464508 399.474579,404.042999 398.457245,403.292877 397.707123C402.542755 396.957001,401.525421 396.535492,400.464508 396.535492C399.403595 396.535492,398.386261 396.957001,397.636139 397.707123C396.886017 398.457245,396.464508 399.474579,396.464508 400.535492C396.464508 401.596405,396.886017 402.613739,397.636139 403.363861C398.386261 404.113983,399.403595 404.535492,400.464508 404.535492C401.525421 404.535492,402.542755 404.113983,403.292877 403.363861C404.042999 402.613739,404.464508 401.596405,404.464508 400.535492Z" style="fill: rgb(89.999390%,0.000000%,0.000000%);stroke: none;"></path>
  <path d="M687.929016 117.070984C687.929016 116.010071,687.507507 114.992737,686.757385 114.242615C686.007263 113.492493,684.989929 113.070984,683.929016 113.070984C682.868103 113.070984,681.850769 113.492493,681.100647 114.242615C680.350525 114.992737,679.929016 116.010071,679.929016 117.070984C679.929016 118.131897,680.350525 119.149231,681.100647 119.899353C681.850769 120.649475,682.868103 121.070984,683.929016 121.070984C684.989929 121.070984,686.007263 120.649475,686.757385 119.899353C687.507507 119.149231,687.929016 118.131897,687.929016 117.070984Z" style="stroke:rgb(39.999390%,39.999390%,39.999390%); stroke-width: 0.500000;stroke-linecap: round;stroke-linejoin: round;stroke-miterlimit: 10.000000;fill: none;"></path>
  <path d="M687.929016 117.070984C687.929016 116.010071,687.507507 114.992737,686.757385 114.242615C686.007263 113.492493,684.989929 113.070984,683.929016 113.070984C682.868103 113.070984,681.850769 113.492493,681.100647 114.242615C680.350525 114.992737,679.929016 116.010071,679.929016 117.070984C679.929016 118.131897,680.350525 119.149231,681.100647 119.899353C681.850769 120.649475,682.868103 121.070984,683.929016 121.070984C684.989929 121.070984,686.007263 120.649475,686.757385 119.899353C687.507507 119.149231,687.929016 118.131897,687.929016 117.070984Z" style="fill: rgb(100.000000%,100.000000%,0.000000%);stroke: none;"></path>
  <path d="M400.464508 400.535492L117.000000 117.070984" style="stroke:rgb(60.000610%,60.000610%,60.000610%); stroke-width: 1.800003;stroke-linecap: round;stroke-dasharray: 3.000000 3.000000 ;stroke-linejoin: round;stroke-miterlimit: 10.000000;fill: none;"></path>
  <path d="M404.464508 400.535492C404.464508 399.474579,404.042999 398.457245,403.292877 397.707123C402.542755 396.957001,401.525421 396.535492,400.464508 396.535492C399.403595 396.535492,398.386261 396.957001,397.636139 397.707123C396.886017 398.457245,396.464508 399.474579,396.464508 400.535492C396.464508 401.596405,396.886017 402.613739,397.636139 403.363861C398.386261 404.113983,399.403595 404.535492,400.464508 404.535492C401.525421 404.535492,402.542755 404.113983,403.292877 403.363861C404.042999 402.613739,404.464508 401.596405,404.464508 400.535492Z" style="stroke:rgb(39.999390%,39.999390%,39.999390%); stroke-width: 0.500000;stroke-linecap: round;stroke-linejoin: round;stroke-miterlimit: 10.000000;fill: none;"></path>
  <path d="M404.464508 400.535492C404.464508 399.474579,404.042999 398.457245,403.292877 397.707123C402.542755 396.957001,401.525421 396.535492,400.464508 396.535492C399.403595 396.535492,398.386261 396.957001,397.636139 397.707123C396.886017 398.457245,396.464508 399.474579,396.464508 400.535492C396.464508 401.596405,396.886017 402.613739,397.636139 403.363861C398.386261 404.113983,399.403595 404.535492,400.464508 404.535492C401.525421 404.535492,402.542755 404.113983,403.292877 403.363861C404.042999 402.613739,404.464508 401.596405,404.464508 400.535492Z" style="fill: rgb(89.999390%,0.000000%,0.000000%);stroke: none;"></path>
  <path d="M121.000000 117.070984C121.000000 116.010071,120.578491 114.992737,119.828369 114.242615C119.078247 113.492493,118.060913 113.070984,117.000000 113.070984C115.939087 113.070984,114.921753 113.492493,114.171631 114.242615C113.421509 114.992737,113.000000 116.010071,113.000000 117.070984C113.000000 118.131897,113.421509 119.149231,114.171631 119.899353C114.921753 120.649475,115.939087 121.070984,117.000000 121.070984C118.060913 121.070984,119.078247 120.649475,119.828369 119.899353C120.578491 119.149231,121.000000 118.131897,121.000000 117.070984Z" style="stroke:rgb(39.999390%,39.999390%,39.999390%); stroke-width: 0.500000;stroke-linecap: round;stroke-linejoin: round;stroke-miterlimit: 10.000000;fill: none;"></path>
  <path d="M121.000000 117.070984C121.000000 116.010071,120.578491 114.992737,119.828369 114.242615C119.078247 113.492493,118.060913 113.070984,117.000000 113.070984C115.939087 113.070984,114.921753 113.492493,114.171631 114.242615C113.421509 114.992737,113.000000 116.010071,113.000000 117.070984C113.000000 118.131897,113.421509 119.149231,114.171631 119.899353C114.921753 120.649475,115.939087 121.070984,117.000000 121.070984C118.060913 121.070984,119.078247 120.649475,119.828369 119.899353C120.578491 119.149231,121.000000 118.131897,121.000000 117.070984Z" style="fill: rgb(100.000000%,100.000000%,0.000000%);stroke: none;"></path>
</svg>
