<?xml version="1.0"?>
<!-- Created by MetaPost 2.00 on 2022.03.31:1000 -->
<svg version="1.1" xmlns="http://www.w3.org/2000/svg" xmlns:xlink="http://www.w3.org/1999/xlink" width="686.529419" height="659.643219" viewBox="0 0 686.529419 659.643219">
<!-- Original BoundingBox: -59.800201 -46.357101 626.729218 613.286118 -->
  <path d="M59.000000 613.000000L625.929016 613.000000L625.929016 46.070984L59.000000 46.070984L59.000000 613.000000Z" style="fill: rgb(100.000000%,100.000000%,100.000000%);stroke: none;"></path>
  <path d="M59.000000 613.000000L625.929016 613.000000" style="stroke:rgb(0.000000%,0.000000%,0.000000%); stroke-width: 1.000000;stroke-linecap: round;stroke-linejoin: round;stroke-miterlimit: 10.000000;fill: none;"></path>
  <path d="M625.929016 613.000000L625.929016 46.070984" style="stroke:rgb(0.000000%,0.000000%,0.000000%); stroke-width: 1.000000;stroke-linecap: round;stroke-linejoin: round;stroke-miterlimit: 10.000000;fill: none;"></path>
  <path d="M625.929016 46.070984L59.000000 46.070984" style="stroke:rgb(0.000000%,0.000000%,0.000000%); stroke-width: 1.000000;stroke-linecap: round;stroke-linejoin: round;stroke-miterlimit: 10.000000;fill: none;"></path>
  <path d="M59.000000 46.070984L59.000000 613.000000" style="stroke:rgb(0.000000%,0.000000%,0.000000%); stroke-width: 1.000000;stroke-linecap: round;stroke-linejoin: round;stroke-miterlimit: 10.000000;fill: none;"></path>
  <path d="M294.825378 494.745605C294.825378 455.607788,279.275620 418.077621,251.603104 390.405090C223.930573 362.732574,186.400406 347.182816,147.262589 347.182816C108.124771 347.182816,70.594604 362.732574,42.922073 390.405090C15.249557 418.077621,-0.300201 455.607788,-0.300201 494.745605C-0.300201 533.883423,15.249557 571.413589,42.922073 599.086121C70.594604 626.758636,108.124771 642.308395,147.262589 642.308395C186.400406 642.308395,223.930573 626.758636,251.603104 599.086121C279.275620 571.413589,294.825378 533.883423,294.825378 494.745605Z" style="stroke:rgb(25.500488%,41.000366%,88.400269%); stroke-width: 1.000000;stroke-linecap: round;stroke-linejoin: round;stroke-miterlimit: 10.000000;fill: none;"></path>
  <path d="M490.027298 511.294312C490.027298 472.156494,474.477539 434.626328,446.805023 406.953796C419.132492 379.281281,381.602325 363.731522,342.464508 363.731522C303.326691 363.731522,265.796524 379.281281,238.123993 406.953796C210.451477 434.626328,194.901718 472.156494,194.901718 511.294312C194.901718 550.432129,210.451477 587.962296,238.123993 615.634827C265.796524 643.307343,303.326691 658.857101,342.464508 658.857101C381.602325 658.857101,419.132492 643.307343,446.805023 615.634827C474.477539 587.962296,490.027298 550.432129,490.027298 511.294312Z" style="stroke:rgb(25.500488%,41.000366%,88.400269%); stroke-width: 1.000000;stroke-linecap: round;stroke-linejoin: round;stroke-miterlimit: 10.000000;fill: none;"></path>
  <path d="M685.229218 494.745605C685.229218 455.607788,669.679459 418.077621,642.006943 390.405090C614.334412 362.732574,576.804245 347.182816,537.666428 347.182816C498.528610 347.182816,460.998444 362.732574,433.325912 390.405090C405.653397 418.077621,390.103638 455.607788,390.103638 494.745605C390.103638 533.883423,405.653397 571.413589,433.325912 599.086121C460.998444 626.758636,498.528610 642.308395,537.666428 642.308395C576.804245 642.308395,614.334412 626.758636,642.006943 599.086121C669.679459 571.413589,685.229218 533.883423,685.229218 494.745605Z" style="stroke:rgb(25.500488%,41.000366%,88.400269%); stroke-width: 1.000000;stroke-linecap: round;stroke-linejoin: round;stroke-miterlimit: 10.000000;fill: none;"></path>
  <path d="M346.469757 329.535492C346.469757 290.397675,330.919998 252.867508,303.247482 225.194977C275.574951 197.522461,238.044785 181.972702,198.906967 181.972702C159.769150 181.972702,122.238983 197.522461,94.566452 225.194977C66.893936 252.867508,51.344177 290.397675,51.344177 329.535492C51.344177 368.673309,66.893936 406.203476,94.566452 433.876007C122.238983 461.548523,159.769150 477.098282,198.906967 477.098282C238.044785 477.098282,275.574951 461.548523,303.247482 433.876007C330.919998 406.203476,346.469757 368.673309,346.469757 329.535492Z" style="stroke:rgb(25.500488%,41.000366%,88.400269%); stroke-width: 1.000000;stroke-linecap: round;stroke-linejoin: round;stroke-miterlimit: 10.000000;fill: none;"></path>
  <path d="M633.584839 329.535492C633.584839 290.397675,618.035080 252.867508,590.362564 225.194977C562.690033 197.522461,525.159866 181.972702,486.022049 181.972702C446.884232 181.972702,409.354065 197.522461,381.681534 225.194977C354.009018 252.867508,338.459259 290.397675,338.459259 329.535492C338.459259 368.673309,354.009018 406.203476,381.681534 433.876007C409.354065 461.548523,446.884232 477.098282,486.022049 477.098282C525.159866 477.098282,562.690033 461.548523,590.362564 433.876007C618.035080 406.203476,633.584839 368.673309,633.584839 329.535492Z" style="stroke:rgb(25.500488%,41.000366%,88.400269%); stroke-width: 1.000000;stroke-linecap: round;stroke-linejoin: round;stroke-miterlimit: 10.000000;fill: none;"></path>
  <path d="M294.825378 164.325378C294.825378 125.187561,279.275620 87.657394,251.603104 59.984863C223.930573 32.312347,186.400406 16.762589,147.262589 16.762589C108.124771 16.762589,70.594604 32.312347,42.922073 59.984863C15.249557 87.657394,-0.300201 125.187561,-0.300201 164.325378C-0.300201 203.463196,15.249557 240.993362,42.922073 268.665894C70.594604 296.338409,108.124771 311.888168,147.262589 311.888168C186.400406 311.888168,223.930573 296.338409,251.603104 268.665894C279.275620 240.993362,294.825378 203.463196,294.825378 164.325378Z" style="stroke:rgb(25.500488%,41.000366%,88.400269%); stroke-width: 1.000000;stroke-linecap: round;stroke-linejoin: round;stroke-miterlimit: 10.000000;fill: none;"></path>
  <path d="M490.027298 147.776672C490.027298 108.638855,474.477539 71.108688,446.805023 43.436157C419.132492 15.763641,381.602325 0.213882,342.464508 0.213882C303.326691 0.213882,265.796524 15.763641,238.123993 43.436157C210.451477 71.108688,194.901718 108.638855,194.901718 147.776672C194.901718 186.914490,210.451477 224.444656,238.123993 252.117188C265.796524 279.789703,303.326691 295.339462,342.464508 295.339462C381.602325 295.339462,419.132492 279.789703,446.805023 252.117188C474.477539 224.444656,490.027298 186.914490,490.027298 147.776672Z" style="stroke:rgb(25.500488%,41.000366%,88.400269%); stroke-width: 1.000000;stroke-linecap: round;stroke-linejoin: round;stroke-miterlimit: 10.000000;fill: none;"></path>
  <path d="M685.229218 164.325378C685.229218 125.187561,669.679459 87.657394,642.006943 59.984863C614.334412 32.312347,576.804245 16.762589,537.666428 16.762589C498.528610 16.762589,460.998444 32.312347,433.325912 59.984863C405.653397 87.657394,390.103638 125.187561,390.103638 164.325378C390.103638 203.463196,405.653397 240.993362,433.325912 268.665894C460.998444 296.338409,498.528610 311.888168,537.666428 311.888168C576.804245 311.888168,614.334412 296.338409,642.006943 268.665894C669.679459 240.993362,685.229218 203.463196,685.229218 164.325378Z" style="stroke:rgb(25.500488%,41.000366%,88.400269%); stroke-width: 1.000000;stroke-linecap: round;stroke-linejoin: round;stroke-miterlimit: 10.000000;fill: none;"></path>
  <path d="M147.262589 494.745605L59.000000 613.000000" style="stroke:rgb(60.000610%,60.000610%,60.000610%); stroke-width: 1.800003;stroke-linecap: round;stroke-dasharray: 3.000000 3.000000 ;stroke-linejoin: round;stroke-miterlimit: 10.000000;fill: none;"></path>
  <path d="M151.262589 494.745605C151.262589 493.684692,150.841080 492.667358,150.090958 491.917236C149.340836 491.167114,148.323502 490.745605,147.262589 490.745605C146.201675 490.745605,145.184341 491.167114,144.434219 491.917236C143.684097 492.667358,143.262589 493.684692,143.262589 494.745605C143.262589 495.806519,143.684097 496.823853,144.434219 497.573975C145.184341 498.324097,146.201675 498.745605,147.262589 498.745605C148.323502 498.745605,149.340836 498.324097,150.090958 497.573975C150.841080 496.823853,151.262589 495.806519,151.262589 494.745605Z" style="stroke:rgb(39.999390%,39.999390%,39.999390%); stroke-width: 0.500000;stroke-linecap: round;stroke-linejoin: round;stroke-miterlimit: 10.000000;fill: none;"></path>
  <path d="M151.262589 494.745605C151.262589 493.684692,150.841080 492.667358,150.090958 491.917236C149.340836 491.167114,148.323502 490.745605,147.262589 490.745605C146.201675 490.745605,145.184341 491.167114,144.434219 491.917236C143.684097 492.667358,143.262589 493.684692,143.262589 494.745605C143.262589 495.806519,143.684097 496.823853,144.434219 497.573975C145.184341 498.324097,146.201675 498.745605,147.262589 498.745605C148.323502 498.745605,149.340836 498.324097,150.090958 497.573975C150.841080 496.823853,151.262589 495.806519,151.262589 494.745605Z" style="fill: rgb(89.999390%,0.000000%,0.000000%);stroke: none;"></path>
  <path d="M63.000000 613.000000C63.000000 611.939087,62.578491 610.921753,61.828369 610.171631C61.078247 609.421509,60.060913 609.000000,59.000000 609.000000C57.939087 609.000000,56.921753 609.421509,56.171631 610.171631C55.421509 610.921753,55.000000 611.939087,55.000000 613.000000C55.000000 614.060913,55.421509 615.078247,56.171631 615.828369C56.921753 616.578491,57.939087 617.000000,59.000000 617.000000C60.060913 617.000000,61.078247 616.578491,61.828369 615.828369C62.578491 615.078247,63.000000 614.060913,63.000000 613.000000Z" style="stroke:rgb(39.999390%,39.999390%,39.999390%); stroke-width: 0.500000;stroke-linecap: round;stroke-linejoin: round;stroke-miterlimit: 10.000000;fill: none;"></path>
  <path d="M63.000000 613.000000C63.000000 611.939087,62.578491 610.921753,61.828369 610.171631C61.078247 609.421509,60.060913 609.000000,59.000000 609.000000C57.939087 609.000000,56.921753 609.421509,56.171631 610.171631C55.421509 610.921753,55.000000 611.939087,55.000000 613.000000C55.000000 614.060913,55.421509 615.078247,56.171631 615.828369C56.921753 616.578491,57.939087 617.000000,59.000000 617.000000C60.060913 617.000000,61.078247 616.578491,61.828369 615.828369C62.578491 615.078247,63.000000 614.060913,63.000000 613.000000Z" style="fill: rgb(100.000000%,100.000000%,0.000000%);stroke: none;"></path>
  <path d="M147.262589 494.745605L235.533813 612.991348" style="stroke:rgb(60.000610%,60.000610%,60.000610%); stroke-width: 1.800003;stroke-linecap: round;stroke-dasharray: 3.000000 3.000000 ;stroke-linejoin: round;stroke-miterlimit: 10.000000;fill: none;"></path>
  <path d="M342.464508 511.294312L235.533813 612.991348" style="stroke:rgb(60.000610%,60.000610%,60.000610%); stroke-width: 1.800003;stroke-linecap: round;stroke-dasharray: 3.000000 3.000000 ;stroke-linejoin: round;stroke-miterlimit: 10.000000;fill: none;"></path>
  <path d="M151.262589 494.745605C151.262589 493.684692,150.841080 492.667358,150.090958 491.917236C149.340836 491.167114,148.323502 490.745605,147.262589 490.745605C146.201675 490.745605,145.184341 491.167114,144.434219 491.917236C143.684097 492.667358,143.262589 493.684692,143.262589 494.745605C143.262589 495.806519,143.684097 496.823853,144.434219 497.573975C145.184341 498.324097,146.201675 498.745605,147.262589 498.745605C148.323502 498.745605,149.340836 498.324097,150.090958 497.573975C150.841080 496.823853,151.262589 495.806519,151.262589 494.745605Z" style="stroke:rgb(39.999390%,39.999390%,39.999390%); stroke-width: 0.500000;stroke-linecap: round;stroke-linejoin: round;stroke-miterlimit: 10.000000;fill: none;"></path>
  <path d="M151.262589 494.745605C151.262589 493.684692,150.841080 492.667358,150.090958 491.917236C149.340836 491.167114,148.323502 490.745605,147.262589 490.745605C146.201675 490.745605,145.184341 491.167114,144.434219 491.917236C143.684097 492.667358,143.262589 493.684692,143.262589 494.745605C143.262589 495.806519,143.684097 496.823853,144.434219 497.573975C145.184341 498.324097,146.201675 498.745605,147.262589 498.745605C148.323502 498.745605,149.340836 498.324097,150.090958 497.573975C150.841080 496.823853,151.262589 495.806519,151.262589 494.745605Z" style="fill: rgb(89.999390%,0.000000%,0.000000%);stroke: none;"></path>
  <path d="M346.464508 511.294312C346.464508 510.233398,346.042999 509.216064,345.292877 508.465942C344.542755 507.715820,343.525421 507.294312,342.464508 507.294312C341.403595 507.294312,340.386261 507.715820,339.636139 508.465942C338.886017 509.216064,338.464508 510.233398,338.464508 511.294312C338.464508 512.355225,338.886017 513.372559,339.636139 514.122681C340.386261 514.872803,341.403595 515.294312,342.464508 515.294312C343.525421 515.294312,344.542755 514.872803,345.292877 514.122681C346.042999 513.372559,346.464508 512.355225,346.464508 511.294312Z" style="stroke:rgb(39.999390%,39.999390%,39.999390%); stroke-width: 0.500000;stroke-linecap: round;stroke-linejoin: round;stroke-miterlimit: 10.000000;fill: none;"></path>
  <path d="M346.464508 511.294312C346.464508 510.233398,346.042999 509.216064,345.292877 508.465942C344.542755 507.715820,343.525421 507.294312,342.464508 507.294312C341.403595 507.294312,340.386261 507.715820,339.636139 508.465942C338.886017 509.216064,338.464508 510.233398,338.464508 511.294312C338.464508 512.355225,338.886017 513.372559,339.636139 514.122681C340.386261 514.872803,341.403595 515.294312,342.464508 515.294312C343.525421 515.294312,344.542755 514.872803,345.292877 514.122681C346.042999 513.372559,346.464508 512.355225,346.464508 511.294312Z" style="fill: rgb(89.999390%,0.000000%,0.000000%);stroke: none;"></path>
  <path d="M239.533813 612.991348C239.533813 611.930435,239.112305 610.913101,238.362183 610.162979C237.612061 609.412857,236.594727 608.991348,235.533813 608.991348C234.472900 608.991348,233.455566 609.412857,232.705444 610.162979C231.955322 610.913101,231.533813 611.930435,231.533813 612.991348C231.533813 614.052261,231.955322 615.069595,232.705444 615.819717C233.455566 616.569839,234.472900 616.991348,235.533813 616.991348C236.594727 616.991348,237.612061 616.569839,238.362183 615.819717C239.112305 615.069595,239.533813 614.052261,239.533813 612.991348Z" style="stroke:rgb(39.999390%,39.999390%,39.999390%); stroke-width: 0.500000;stroke-linecap: round;stroke-linejoin: round;stroke-miterlimit: 10.000000;fill: none;"></path>
  <path d="M239.533813 612.991348C239.533813 611.930435,239.112305 610.913101,238.362183 610.162979C237.612061 609.412857,236.594727 608.991348,235.533813 608.991348C234.472900 608.991348,233.455566 609.412857,232.705444 610.162979C231.955322 610.913101,231.533813 611.930435,231.533813 612.991348C231.533813 614.052261,231.955322 615.069595,232.705444 615.819717C233.455566 616.569839,234.472900 616.991348,235.533813 616.991348C236.594727 616.991348,237.612061 616.569839,238.362183 615.819717C239.112305 615.069595,239.533813 614.052261,239.533813 612.991348Z" style="fill: rgb(0.000000%,50.000000%,0.000000%);stroke: none;"></path>
  <path d="M147.262589 494.745605L59.008652 376.473923" style="stroke:rgb(60.000610%,60.000610%,60.000610%); stroke-width: 1.800003;stroke-linecap: round;stroke-dasharray: 3.000000 3.000000 ;stroke-linejoin: round;stroke-miterlimit: 10.000000;fill: none;"></path>
  <path d="M198.906967 329.535492L59.008652 376.473923" style="stroke:rgb(60.000610%,60.000610%,60.000610%); stroke-width: 1.800003;stroke-linecap: round;stroke-dasharray: 3.000000 3.000000 ;stroke-linejoin: round;stroke-miterlimit: 10.000000;fill: none;"></path>
  <path d="M151.262589 494.745605C151.262589 493.684692,150.841080 492.667358,150.090958 491.917236C149.340836 491.167114,148.323502 490.745605,147.262589 490.745605C146.201675 490.745605,145.184341 491.167114,144.434219 491.917236C143.684097 492.667358,143.262589 493.684692,143.262589 494.745605C143.262589 495.806519,143.684097 496.823853,144.434219 497.573975C145.184341 498.324097,146.201675 498.745605,147.262589 498.745605C148.323502 498.745605,149.340836 498.324097,150.090958 497.573975C150.841080 496.823853,151.262589 495.806519,151.262589 494.745605Z" style="stroke:rgb(39.999390%,39.999390%,39.999390%); stroke-width: 0.500000;stroke-linecap: round;stroke-linejoin: round;stroke-miterlimit: 10.000000;fill: none;"></path>
  <path d="M151.262589 494.745605C151.262589 493.684692,150.841080 492.667358,150.090958 491.917236C149.340836 491.167114,148.323502 490.745605,147.262589 490.745605C146.201675 490.745605,145.184341 491.167114,144.434219 491.917236C143.684097 492.667358,143.262589 493.684692,143.262589 494.745605C143.262589 495.806519,143.684097 496.823853,144.434219 497.573975C145.184341 498.324097,146.201675 498.745605,147.262589 498.745605C148.323502 498.745605,149.340836 498.324097,150.090958 497.573975C150.841080 496.823853,151.262589 495.806519,151.262589 494.745605Z" style="fill: rgb(89.999390%,0.000000%,0.000000%);stroke: none;"></path>
  <path d="M202.906967 329.535492C202.906967 328.474579,202.485458 327.457245,201.735336 326.707123C200.985214 325.957001,199.967880 325.535492,198.906967 325.535492C197.846054 325.535492,196.828720 325.957001,196.078598 326.707123C195.328476 327.457245,194.906967 328.474579,194.906967 329.535492C194.906967 330.596405,195.328476 331.613739,196.078598 332.363861C196.828720 333.113983,197.846054 333.535492,198.906967 333.535492C199.967880 333.535492,200.985214 333.113983,201.735336 332.363861C202.485458 331.613739,202.906967 330.596405,202.906967 329.535492Z" style="stroke:rgb(39.999390%,39.999390%,39.999390%); stroke-width: 0.500000;stroke-linecap: round;stroke-linejoin: round;stroke-miterlimit: 10.000000;fill: none;"></path>
  <path d="M202.906967 329.535492C202.906967 328.474579,202.485458 327.457245,201.735336 326.707123C200.985214 325.957001,199.967880 325.535492,198.906967 325.535492C197.846054 325.535492,196.828720 325.957001,196.078598 326.707123C195.328476 327.457245,194.906967 328.474579,194.906967 329.535492C194.906967 330.596405,195.328476 331.613739,196.078598 332.363861C196.828720 333.113983,197.846054 333.535492,198.906967 333.535492C199.967880 333.535492,200.985214 333.113983,201.735336 332.363861C202.485458 331.613739,202.906967 330.596405,202.906967 329.535492Z" style="fill: rgb(89.999390%,0.000000%,0.000000%);stroke: none;"></path>
  <path d="M63.008652 376.473923C63.008652 375.413010,62.587143 374.395676,61.837021 373.645554C61.086899 372.895432,60.069565 372.473923,59.008652 372.473923C57.947739 372.473923,56.930405 372.895432,56.180283 373.645554C55.430161 374.395676,55.008652 375.413010,55.008652 376.473923C55.008652 377.534836,55.430161 378.552170,56.180283 379.302292C56.930405 380.052414,57.947739 380.473923,59.008652 380.473923C60.069565 380.473923,61.086899 380.052414,61.837021 379.302292C62.587143 378.552170,63.008652 377.534836,63.008652 376.473923Z" style="stroke:rgb(39.999390%,39.999390%,39.999390%); stroke-width: 0.500000;stroke-linecap: round;stroke-linejoin: round;stroke-miterlimit: 10.000000;fill: none;"></path>
  <path d="M63.008652 376.473923C63.008652 375.413010,62.587143 374.395676,61.837021 373.645554C61.086899 372.895432,60.069565 372.473923,59.008652 372.473923C57.947739 372.473923,56.930405 372.895432,56.180283 373.645554C55.430161 374.395676,55.008652 375.413010,55.008652 376.473923C55.008652 377.534836,55.430161 378.552170,56.180283 379.302292C56.930405 380.052414,57.947739 380.473923,59.008652 380.473923C60.069565 380.473923,61.086899 380.052414,61.837021 379.302292C62.587143 378.552170,63.008652 377.534836,63.008652 376.473923Z" style="fill: rgb(0.000000%,50.000000%,0.000000%);stroke: none;"></path>
  <path d="M342.464508 511.294312L449.395203 612.991348" style="stroke:rgb(60.000610%,60.000610%,60.000610%); stroke-width: 1.800003;stroke-linecap: round;stroke-dasharray: 3.000000 3.000000 ;stroke-linejoin: round;stroke-miterlimit: 10.000000;fill: none;"></path>
  <path d="M537.666428 494.745605L449.395203 612.991348" style="stroke:rgb(60.000610%,60.000610%,60.000610%); stroke-width: 1.800003;stroke-linecap: round;stroke-dasharray: 3.000000 3.000000 ;stroke-linejoin: round;stroke-miterlimit: 10.000000;fill: none;"></path>
  <path d="M346.464508 511.294312C346.464508 510.233398,346.042999 509.216064,345.292877 508.465942C344.542755 507.715820,343.525421 507.294312,342.464508 507.294312C341.403595 507.294312,340.386261 507.715820,339.636139 508.465942C338.886017 509.216064,338.464508 510.233398,338.464508 511.294312C338.464508 512.355225,338.886017 513.372559,339.636139 514.122681C340.386261 514.872803,341.403595 515.294312,342.464508 515.294312C343.525421 515.294312,344.542755 514.872803,345.292877 514.122681C346.042999 513.372559,346.464508 512.355225,346.464508 511.294312Z" style="stroke:rgb(39.999390%,39.999390%,39.999390%); stroke-width: 0.500000;stroke-linecap: round;stroke-linejoin: round;stroke-miterlimit: 10.000000;fill: none;"></path>
  <path d="M346.464508 511.294312C346.464508 510.233398,346.042999 509.216064,345.292877 508.465942C344.542755 507.715820,343.525421 507.294312,342.464508 507.294312C341.403595 507.294312,340.386261 507.715820,339.636139 508.465942C338.886017 509.216064,338.464508 510.233398,338.464508 511.294312C338.464508 512.355225,338.886017 513.372559,339.636139 514.122681C340.386261 514.872803,341.403595 515.294312,342.464508 515.294312C343.525421 515.294312,344.542755 514.872803,345.292877 514.122681C346.042999 513.372559,346.464508 512.355225,346.464508 511.294312Z" style="fill: rgb(89.999390%,0.000000%,0.000000%);stroke: none;"></path>
  <path d="M541.666428 494.745605C541.666428 493.684692,541.244919 492.667358,540.494797 491.917236C539.744675 491.167114,538.727341 490.745605,537.666428 490.745605C536.605515 490.745605,535.588181 491.167114,534.838058 491.917236C534.087936 492.667358,533.666428 493.684692,533.666428 494.745605C533.666428 495.806519,534.087936 496.823853,534.838058 497.573975C535.588181 498.324097,536.605515 498.745605,537.666428 498.745605C538.727341 498.745605,539.744675 498.324097,540.494797 497.573975C541.244919 496.823853,541.666428 495.806519,541.666428 494.745605Z" style="stroke:rgb(39.999390%,39.999390%,39.999390%); stroke-width: 0.500000;stroke-linecap: round;stroke-linejoin: round;stroke-miterlimit: 10.000000;fill: none;"></path>
  <path d="M541.666428 494.745605C541.666428 493.684692,541.244919 492.667358,540.494797 491.917236C539.744675 491.167114,538.727341 490.745605,537.666428 490.745605C536.605515 490.745605,535.588181 491.167114,534.838058 491.917236C534.087936 492.667358,533.666428 493.684692,533.666428 494.745605C533.666428 495.806519,534.087936 496.823853,534.838058 497.573975C535.588181 498.324097,536.605515 498.745605,537.666428 498.745605C538.727341 498.745605,539.744675 498.324097,540.494797 497.573975C541.244919 496.823853,541.666428 495.806519,541.666428 494.745605Z" style="fill: rgb(89.999390%,0.000000%,0.000000%);stroke: none;"></path>
  <path d="M453.395203 612.991348C453.395203 611.930435,452.973694 610.913101,452.223572 610.162979C451.473450 609.412857,450.456116 608.991348,449.395203 608.991348C448.334290 608.991348,447.316956 609.412857,446.566833 610.162979C445.816711 610.913101,445.395203 611.930435,445.395203 612.991348C445.395203 614.052261,445.816711 615.069595,446.566833 615.819717C447.316956 616.569839,448.334290 616.991348,449.395203 616.991348C450.456116 616.991348,451.473450 616.569839,452.223572 615.819717C452.973694 615.069595,453.395203 614.052261,453.395203 612.991348Z" style="stroke:rgb(39.999390%,39.999390%,39.999390%); stroke-width: 0.500000;stroke-linecap: round;stroke-linejoin: round;stroke-miterlimit: 10.000000;fill: none;"></path>
  <path d="M453.395203 612.991348C453.395203 611.930435,452.973694 610.913101,452.223572 610.162979C451.473450 609.412857,450.456116 608.991348,449.395203 608.991348C448.334290 608.991348,447.316956 609.412857,446.566833 610.162979C445.816711 610.913101,445.395203 611.930435,445.395203 612.991348C445.395203 614.052261,445.816711 615.069595,446.566833 615.819717C447.316956 616.569839,448.334290 616.991348,449.395203 616.991348C450.456116 616.991348,451.473450 616.569839,452.223572 615.819717C452.973694 615.069595,453.395203 614.052261,453.395203 612.991348Z" style="fill: rgb(0.000000%,50.000000%,0.000000%);stroke: none;"></path>
  <path d="M342.464508 511.294312L342.455856 363.731506" style="stroke:rgb(60.000610%,60.000610%,60.000610%); stroke-width: 1.800003;stroke-linecap: round;stroke-dasharray: 3.000000 3.000000 ;stroke-linejoin: round;stroke-miterlimit: 10.000000;fill: none;"></path>
  <path d="M198.906967 329.535492L342.455856 363.731506" style="stroke:rgb(60.000610%,60.000610%,60.000610%); stroke-width: 1.800003;stroke-linecap: round;stroke-dasharray: 3.000000 3.000000 ;stroke-linejoin: round;stroke-miterlimit: 10.000000;fill: none;"></path>
  <path d="M346.464508 511.294312C346.464508 510.233398,346.042999 509.216064,345.292877 508.465942C344.542755 507.715820,343.525421 507.294312,342.464508 507.294312C341.403595 507.294312,340.386261 507.715820,339.636139 508.465942C338.886017 509.216064,338.464508 510.233398,338.464508 511.294312C338.464508 512.355225,338.886017 513.372559,339.636139 514.122681C340.386261 514.872803,341.403595 515.294312,342.464508 515.294312C343.525421 515.294312,344.542755 514.872803,345.292877 514.122681C346.042999 513.372559,346.464508 512.355225,346.464508 511.294312Z" style="stroke:rgb(39.999390%,39.999390%,39.999390%); stroke-width: 0.500000;stroke-linecap: round;stroke-linejoin: round;stroke-miterlimit: 10.000000;fill: none;"></path>
  <path d="M346.464508 511.294312C346.464508 510.233398,346.042999 509.216064,345.292877 508.465942C344.542755 507.715820,343.525421 507.294312,342.464508 507.294312C341.403595 507.294312,340.386261 507.715820,339.636139 508.465942C338.886017 509.216064,338.464508 510.233398,338.464508 511.294312C338.464508 512.355225,338.886017 513.372559,339.636139 514.122681C340.386261 514.872803,341.403595 515.294312,342.464508 515.294312C343.525421 515.294312,344.542755 514.872803,345.292877 514.122681C346.042999 513.372559,346.464508 512.355225,346.464508 511.294312Z" style="fill: rgb(89.999390%,0.000000%,0.000000%);stroke: none;"></path>
  <path d="M202.906967 329.535492C202.906967 328.474579,202.485458 327.457245,201.735336 326.707123C200.985214 325.957001,199.967880 325.535492,198.906967 325.535492C197.846054 325.535492,196.828720 325.957001,196.078598 326.707123C195.328476 327.457245,194.906967 328.474579,194.906967 329.535492C194.906967 330.596405,195.328476 331.613739,196.078598 332.363861C196.828720 333.113983,197.846054 333.535492,198.906967 333.535492C199.967880 333.535492,200.985214 333.113983,201.735336 332.363861C202.485458 331.613739,202.906967 330.596405,202.906967 329.535492Z" style="stroke:rgb(39.999390%,39.999390%,39.999390%); stroke-width: 0.500000;stroke-linecap: round;stroke-linejoin: round;stroke-miterlimit: 10.000000;fill: none;"></path>
  <path d="M202.906967 329.535492C202.906967 328.474579,202.485458 327.457245,201.735336 326.707123C200.985214 325.957001,199.967880 325.535492,198.906967 325.535492C197.846054 325.535492,196.828720 325.957001,196.078598 326.707123C195.328476 327.457245,194.906967 328.474579,194.906967 329.535492C194.906967 330.596405,195.328476 331.613739,196.078598 332.363861C196.828720 333.113983,197.846054 333.535492,198.906967 333.535492C199.967880 333.535492,200.985214 333.113983,201.735336 332.363861C202.485458 331.613739,202.906967 330.596405,202.906967 329.535492Z" style="fill: rgb(89.999390%,0.000000%,0.000000%);stroke: none;"></path>
  <path d="M346.455856 363.731506C346.455856 362.670593,346.034348 361.653259,345.284225 360.903137C344.534103 360.153015,343.516769 359.731506,342.455856 359.731506C341.394943 359.731506,340.377609 360.153015,339.627487 360.903137C338.877365 361.653259,338.455856 362.670593,338.455856 363.731506C338.455856 364.792419,338.877365 365.809753,339.627487 366.559875C340.377609 367.309998,341.394943 367.731506,342.455856 367.731506C343.516769 367.731506,344.534103 367.309998,345.284225 366.559875C346.034348 365.809753,346.455856 364.792419,346.455856 363.731506Z" style="stroke:rgb(39.999390%,39.999390%,39.999390%); stroke-width: 0.500000;stroke-linecap: round;stroke-linejoin: round;stroke-miterlimit: 10.000000;fill: none;"></path>
  <path d="M346.455856 363.731506C346.455856 362.670593,346.034348 361.653259,345.284225 360.903137C344.534103 360.153015,343.516769 359.731506,342.455856 359.731506C341.394943 359.731506,340.377609 360.153015,339.627487 360.903137C338.877365 361.653259,338.455856 362.670593,338.455856 363.731506C338.455856 364.792419,338.877365 365.809753,339.627487 366.559875C340.377609 367.309998,341.394943 367.731506,342.455856 367.731506C343.516769 367.731506,344.534103 367.309998,345.284225 366.559875C346.034348 365.809753,346.455856 364.792419,346.455856 363.731506Z" style="fill: rgb(9.800720%,9.800720%,44.000244%);stroke: none;"></path>
  <path d="M342.464508 511.294312L342.473160 363.731506" style="stroke:rgb(60.000610%,60.000610%,60.000610%); stroke-width: 1.800003;stroke-linecap: round;stroke-dasharray: 3.000000 3.000000 ;stroke-linejoin: round;stroke-miterlimit: 10.000000;fill: none;"></path>
  <path d="M486.022049 329.535492L342.473160 363.731506" style="stroke:rgb(60.000610%,60.000610%,60.000610%); stroke-width: 1.800003;stroke-linecap: round;stroke-dasharray: 3.000000 3.000000 ;stroke-linejoin: round;stroke-miterlimit: 10.000000;fill: none;"></path>
  <path d="M346.464508 511.294312C346.464508 510.233398,346.042999 509.216064,345.292877 508.465942C344.542755 507.715820,343.525421 507.294312,342.464508 507.294312C341.403595 507.294312,340.386261 507.715820,339.636139 508.465942C338.886017 509.216064,338.464508 510.233398,338.464508 511.294312C338.464508 512.355225,338.886017 513.372559,339.636139 514.122681C340.386261 514.872803,341.403595 515.294312,342.464508 515.294312C343.525421 515.294312,344.542755 514.872803,345.292877 514.122681C346.042999 513.372559,346.464508 512.355225,346.464508 511.294312Z" style="stroke:rgb(39.999390%,39.999390%,39.999390%); stroke-width: 0.500000;stroke-linecap: round;stroke-linejoin: round;stroke-miterlimit: 10.000000;fill: none;"></path>
  <path d="M346.464508 511.294312C346.464508 510.233398,346.042999 509.216064,345.292877 508.465942C344.542755 507.715820,343.525421 507.294312,342.464508 507.294312C341.403595 507.294312,340.386261 507.715820,339.636139 508.465942C338.886017 509.216064,338.464508 510.233398,338.464508 511.294312C338.464508 512.355225,338.886017 513.372559,339.636139 514.122681C340.386261 514.872803,341.403595 515.294312,342.464508 515.294312C343.525421 515.294312,344.542755 514.872803,345.292877 514.122681C346.042999 513.372559,346.464508 512.355225,346.464508 511.294312Z" style="fill: rgb(89.999390%,0.000000%,0.000000%);stroke: none;"></path>
  <path d="M490.022049 329.535492C490.022049 328.474579,489.600540 327.457245,488.850418 326.707123C488.100296 325.957001,487.082962 325.535492,486.022049 325.535492C484.961136 325.535492,483.943802 325.957001,483.193680 326.707123C482.443558 327.457245,482.022049 328.474579,482.022049 329.535492C482.022049 330.596405,482.443558 331.613739,483.193680 332.363861C483.943802 333.113983,484.961136 333.535492,486.022049 333.535492C487.082962 333.535492,488.100296 333.113983,488.850418 332.363861C489.600540 331.613739,490.022049 330.596405,490.022049 329.535492Z" style="stroke:rgb(39.999390%,39.999390%,39.999390%); stroke-width: 0.500000;stroke-linecap: round;stroke-linejoin: round;stroke-miterlimit: 10.000000;fill: none;"></path>
  <path d="M490.022049 329.535492C490.022049 328.474579,489.600540 327.457245,488.850418 326.707123C488.100296 325.957001,487.082962 325.535492,486.022049 325.535492C484.961136 325.535492,483.943802 325.957001,483.193680 326.707123C482.443558 327.457245,482.022049 328.474579,482.022049 329.535492C482.022049 330.596405,482.443558 331.613739,483.193680 332.363861C483.943802 333.113983,484.961136 333.535492,486.022049 333.535492C487.082962 333.535492,488.100296 333.113983,488.850418 332.363861C489.600540 331.613739,490.022049 330.596405,490.022049 329.535492Z" style="fill: rgb(89.999390%,0.000000%,0.000000%);stroke: none;"></path>
  <path d="M346.473160 363.731506C346.473160 362.670593,346.051651 361.653259,345.301529 360.903137C344.551407 360.153015,343.534073 359.731506,342.473160 359.731506C341.412247 359.731506,340.394913 360.153015,339.644791 360.903137C338.894669 361.653259,338.473160 362.670593,338.473160 363.731506C338.473160 364.792419,338.894669 365.809753,339.644791 366.559875C340.394913 367.309998,341.412247 367.731506,342.473160 367.731506C343.534073 367.731506,344.551407 367.309998,345.301529 366.559875C346.051651 365.809753,346.473160 364.792419,346.473160 363.731506Z" style="stroke:rgb(39.999390%,39.999390%,39.999390%); stroke-width: 0.500000;stroke-linecap: round;stroke-linejoin: round;stroke-miterlimit: 10.000000;fill: none;"></path>
  <path d="M346.473160 363.731506C346.473160 362.670593,346.051651 361.653259,345.301529 360.903137C344.551407 360.153015,343.534073 359.731506,342.473160 359.731506C341.412247 359.731506,340.394913 360.153015,339.644791 360.903137C338.894669 361.653259,338.473160 362.670593,338.473160 363.731506C338.473160 364.792419,338.894669 365.809753,339.644791 366.559875C340.394913 367.309998,341.412247 367.731506,342.473160 367.731506C343.534073 367.731506,344.551407 367.309998,345.301529 366.559875C346.051651 365.809753,346.473160 364.792419,346.473160 363.731506Z" style="fill: rgb(9.800720%,9.800720%,44.000244%);stroke: none;"></path>
  <path d="M537.666428 494.745605L625.929016 613.000000" style="stroke:rgb(60.000610%,60.000610%,60.000610%); stroke-width: 1.800003;stroke-linecap: round;stroke-dasharray: 3.000000 3.000000 ;stroke-linejoin: round;stroke-miterlimit: 10.000000;fill: none;"></path>
  <path d="M541.666428 494.745605C541.666428 493.684692,541.244919 492.667358,540.494797 491.917236C539.744675 491.167114,538.727341 490.745605,537.666428 490.745605C536.605515 490.745605,535.588181 491.167114,534.838058 491.917236C534.087936 492.667358,533.666428 493.684692,533.666428 494.745605C533.666428 495.806519,534.087936 496.823853,534.838058 497.573975C535.588181 498.324097,536.605515 498.745605,537.666428 498.745605C538.727341 498.745605,539.744675 498.324097,540.494797 497.573975C541.244919 496.823853,541.666428 495.806519,541.666428 494.745605Z" style="stroke:rgb(39.999390%,39.999390%,39.999390%); stroke-width: 0.500000;stroke-linecap: round;stroke-linejoin: round;stroke-miterlimit: 10.000000;fill: none;"></path>
  <path d="M541.666428 494.745605C541.666428 493.684692,541.244919 492.667358,540.494797 491.917236C539.744675 491.167114,538.727341 490.745605,537.666428 490.745605C536.605515 490.745605,535.588181 491.167114,534.838058 491.917236C534.087936 492.667358,533.666428 493.684692,533.666428 494.745605C533.666428 495.806519,534.087936 496.823853,534.838058 497.573975C535.588181 498.324097,536.605515 498.745605,537.666428 498.745605C538.727341 498.745605,539.744675 498.324097,540.494797 497.573975C541.244919 496.823853,541.666428 495.806519,541.666428 494.745605Z" style="fill: rgb(89.999390%,0.000000%,0.000000%);stroke: none;"></path>
  <path d="M629.929016 613.000000C629.929016 611.939087,629.507507 610.921753,628.757385 610.171631C628.007263 609.421509,626.989929 609.000000,625.929016 609.000000C624.868103 609.000000,623.850769 609.421509,623.100647 610.171631C622.350525 610.921753,621.929016 611.939087,621.929016 613.000000C621.929016 614.060913,622.350525 615.078247,623.100647 615.828369C623.850769 616.578491,624.868103 617.000000,625.929016 617.000000C626.989929 617.000000,628.007263 616.578491,628.757385 615.828369C629.507507 615.078247,629.929016 614.060913,629.929016 613.000000Z" style="stroke:rgb(39.999390%,39.999390%,39.999390%); stroke-width: 0.500000;stroke-linecap: round;stroke-linejoin: round;stroke-miterlimit: 10.000000;fill: none;"></path>
  <path d="M629.929016 613.000000C629.929016 611.939087,629.507507 610.921753,628.757385 610.171631C628.007263 609.421509,626.989929 609.000000,625.929016 609.000000C624.868103 609.000000,623.850769 609.421509,623.100647 610.171631C622.350525 610.921753,621.929016 611.939087,621.929016 613.000000C621.929016 614.060913,622.350525 615.078247,623.100647 615.828369C623.850769 616.578491,624.868103 617.000000,625.929016 617.000000C626.989929 617.000000,628.007263 616.578491,628.757385 615.828369C629.507507 615.078247,629.929016 614.060913,629.929016 613.000000Z" style="fill: rgb(100.000000%,100.000000%,0.000000%);stroke: none;"></path>
  <path d="M537.666428 494.745605L625.920364 376.473923" style="stroke:rgb(60.000610%,60.000610%,60.000610%); stroke-width: 1.800003;stroke-linecap: round;stroke-dasharray: 3.000000 3.000000 ;stroke-linejoin: round;stroke-miterlimit: 10.000000;fill: none;"></path>
  <path d="M486.022049 329.535492L625.920364 376.473923" style="stroke:rgb(60.000610%,60.000610%,60.000610%); stroke-width: 1.800003;stroke-linecap: round;stroke-dasharray: 3.000000 3.000000 ;stroke-linejoin: round;stroke-miterlimit: 10.000000;fill: none;"></path>
  <path d="M541.666428 494.745605C541.666428 493.684692,541.244919 492.667358,540.494797 491.917236C539.744675 491.167114,538.727341 490.745605,537.666428 490.745605C536.605515 490.745605,535.588181 491.167114,534.838058 491.917236C534.087936 492.667358,533.666428 493.684692,533.666428 494.745605C533.666428 495.806519,534.087936 496.823853,534.838058 497.573975C535.588181 498.324097,536.605515 498.745605,537.666428 498.745605C538.727341 498.745605,539.744675 498.324097,540.494797 497.573975C541.244919 496.823853,541.666428 495.806519,541.666428 494.745605Z" style="stroke:rgb(39.999390%,39.999390%,39.999390%); stroke-width: 0.500000;stroke-linecap: round;stroke-linejoin: round;stroke-miterlimit: 10.000000;fill: none;"></path>
  <path d="M541.666428 494.745605C541.666428 493.684692,541.244919 492.667358,540.494797 491.917236C539.744675 491.167114,538.727341 490.745605,537.666428 490.745605C536.605515 490.745605,535.588181 491.167114,534.838058 491.917236C534.087936 492.667358,533.666428 493.684692,533.666428 494.745605C533.666428 495.806519,534.087936 496.823853,534.838058 497.573975C535.588181 498.324097,536.605515 498.745605,537.666428 498.745605C538.727341 498.745605,539.744675 498.324097,540.494797 497.573975C541.244919 496.823853,541.666428 495.806519,541.666428 494.745605Z" style="fill: rgb(89.999390%,0.000000%,0.000000%);stroke: none;"></path>
  <path d="M490.022049 329.535492C490.022049 328.474579,489.600540 327.457245,488.850418 326.707123C488.100296 325.957001,487.082962 325.535492,486.022049 325.535492C484.961136 325.535492,483.943802 325.957001,483.193680 326.707123C482.443558 327.457245,482.022049 328.474579,482.022049 329.535492C482.022049 330.596405,482.443558 331.613739,483.193680 332.363861C483.943802 333.113983,484.961136 333.535492,486.022049 333.535492C487.082962 333.535492,488.100296 333.113983,488.850418 332.363861C489.600540 331.613739,490.022049 330.596405,490.022049 329.535492Z" style="stroke:rgb(39.999390%,39.999390%,39.999390%); stroke-width: 0.500000;stroke-linecap: round;stroke-linejoin: round;stroke-miterlimit: 10.000000;fill: none;"></path>
  <path d="M490.022049 329.535492C490.022049 328.474579,489.600540 327.457245,488.850418 326.707123C488.100296 325.957001,487.082962 325.535492,486.022049 325.535492C484.961136 325.535492,483.943802 325.957001,483.193680 326.707123C482.443558 327.457245,482.022049 328.474579,482.022049 329.535492C482.022049 330.596405,482.443558 331.613739,483.193680 332.363861C483.943802 333.113983,484.961136 333.535492,486.022049 333.535492C487.082962 333.535492,488.100296 333.113983,488.850418 332.363861C489.600540 331.613739,490.022049 330.596405,490.022049 329.535492Z" style="fill: rgb(89.999390%,0.000000%,0.000000%);stroke: none;"></path>
  <path d="M629.920364 376.473923C629.920364 375.413010,629.498856 374.395676,628.748734 373.645554C627.998611 372.895432,626.981277 372.473923,625.920364 372.473923C624.859451 372.473923,623.842117 372.895432,623.091995 373.645554C622.341873 374.395676,621.920364 375.413010,621.920364 376.473923C621.920364 377.534836,622.341873 378.552170,623.091995 379.302292C623.842117 380.052414,624.859451 380.473923,625.920364 380.473923C626.981277 380.473923,627.998611 380.052414,628.748734 379.302292C629.498856 378.552170,629.920364 377.534836,629.920364 376.473923Z" style="stroke:rgb(39.999390%,39.999390%,39.999390%); stroke-width: 0.500000;stroke-linecap: round;stroke-linejoin: round;stroke-miterlimit: 10.000000;fill: none;"></path>
  <path d="M629.920364 376.473923C629.920364 375.413010,629.498856 374.395676,628.748734 373.645554C627.998611 372.895432,626.981277 372.473923,625.920364 372.473923C624.859451 372.473923,623.842117 372.895432,623.091995 373.645554C622.341873 374.395676,621.920364 375.413010,621.920364 376.473923C621.920364 377.534836,622.341873 378.552170,623.091995 379.302292C623.842117 380.052414,624.859451 380.473923,625.920364 380.473923C626.981277 380.473923,627.998611 380.052414,628.748734 379.302292C629.498856 378.552170,629.920364 377.534836,629.920364 376.473923Z" style="fill: rgb(0.000000%,50.000000%,0.000000%);stroke: none;"></path>
  <path d="M198.906967 329.535492L342.464508 295.374069" style="stroke:rgb(60.000610%,60.000610%,60.000610%); stroke-width: 1.800003;stroke-linecap: round;stroke-dasharray: 3.000000 3.000000 ;stroke-linejoin: round;stroke-miterlimit: 10.000000;fill: none;"></path>
  <path d="M486.022049 329.535492L342.464508 295.374069" style="stroke:rgb(60.000610%,60.000610%,60.000610%); stroke-width: 1.800003;stroke-linecap: round;stroke-dasharray: 3.000000 3.000000 ;stroke-linejoin: round;stroke-miterlimit: 10.000000;fill: none;"></path>
  <path d="M202.906967 329.535492C202.906967 328.474579,202.485458 327.457245,201.735336 326.707123C200.985214 325.957001,199.967880 325.535492,198.906967 325.535492C197.846054 325.535492,196.828720 325.957001,196.078598 326.707123C195.328476 327.457245,194.906967 328.474579,194.906967 329.535492C194.906967 330.596405,195.328476 331.613739,196.078598 332.363861C196.828720 333.113983,197.846054 333.535492,198.906967 333.535492C199.967880 333.535492,200.985214 333.113983,201.735336 332.363861C202.485458 331.613739,202.906967 330.596405,202.906967 329.535492Z" style="stroke:rgb(39.999390%,39.999390%,39.999390%); stroke-width: 0.500000;stroke-linecap: round;stroke-linejoin: round;stroke-miterlimit: 10.000000;fill: none;"></path>
  <path d="M202.906967 329.535492C202.906967 328.474579,202.485458 327.457245,201.735336 326.707123C200.985214 325.957001,199.967880 325.535492,198.906967 325.535492C197.846054 325.535492,196.828720 325.957001,196.078598 326.707123C195.328476 327.457245,194.906967 328.474579,194.906967 329.535492C194.906967 330.596405,195.328476 331.613739,196.078598 332.363861C196.828720 333.113983,197.846054 333.535492,198.906967 333.535492C199.967880 333.535492,200.985214 333.113983,201.735336 332.363861C202.485458 331.613739,202.906967 330.596405,202.906967 329.535492Z" style="fill: rgb(89.999390%,0.000000%,0.000000%);stroke: none;"></path>
  <path d="M490.022049 329.535492C490.022049 328.474579,489.600540 327.457245,488.850418 326.707123C488.100296 325.957001,487.082962 325.535492,486.022049 325.535492C484.961136 325.535492,483.943802 325.957001,483.193680 326.707123C482.443558 327.457245,482.022049 328.474579,482.022049 329.535492C482.022049 330.596405,482.443558 331.613739,483.193680 332.363861C483.943802 333.113983,484.961136 333.535492,486.022049 333.535492C487.082962 333.535492,488.100296 333.113983,488.850418 332.363861C489.600540 331.613739,490.022049 330.596405,490.022049 329.535492Z" style="stroke:rgb(39.999390%,39.999390%,39.999390%); stroke-width: 0.500000;stroke-linecap: round;stroke-linejoin: round;stroke-miterlimit: 10.000000;fill: none;"></path>
  <path d="M490.022049 329.535492C490.022049 328.474579,489.600540 327.457245,488.850418 326.707123C488.100296 325.957001,487.082962 325.535492,486.022049 325.535492C484.961136 325.535492,483.943802 325.957001,483.193680 326.707123C482.443558 327.457245,482.022049 328.474579,482.022049 329.535492C482.022049 330.596405,482.443558 331.613739,483.193680 332.363861C483.943802 333.113983,484.961136 333.535492,486.022049 333.535492C487.082962 333.535492,488.100296 333.113983,488.850418 332.363861C489.600540 331.613739,490.022049 330.596405,490.022049 329.535492Z" style="fill: rgb(89.999390%,0.000000%,0.000000%);stroke: none;"></path>
  <path d="M346.464508 295.374069C346.464508 294.313156,346.042999 293.295822,345.292877 292.545700C344.542755 291.795578,343.525421 291.374069,342.464508 291.374069C341.403595 291.374069,340.386261 291.795578,339.636139 292.545700C338.886017 293.295822,338.464508 294.313156,338.464508 295.374069C338.464508 296.434982,338.886017 297.452316,339.636139 298.202438C340.386261 298.952560,341.403595 299.374069,342.464508 299.374069C343.525421 299.374069,344.542755 298.952560,345.292877 298.202438C346.042999 297.452316,346.464508 296.434982,346.464508 295.374069Z" style="stroke:rgb(39.999390%,39.999390%,39.999390%); stroke-width: 0.500000;stroke-linecap: round;stroke-linejoin: round;stroke-miterlimit: 10.000000;fill: none;"></path>
  <path d="M346.464508 295.374069C346.464508 294.313156,346.042999 293.295822,345.292877 292.545700C344.542755 291.795578,343.525421 291.374069,342.464508 291.374069C341.403595 291.374069,340.386261 291.795578,339.636139 292.545700C338.886017 293.295822,338.464508 294.313156,338.464508 295.374069C338.464508 296.434982,338.886017 297.452316,339.636139 298.202438C340.386261 298.952560,341.403595 299.374069,342.464508 299.374069C343.525421 299.374069,344.542755 298.952560,345.292877 298.202438C346.042999 297.452316,346.464508 296.434982,346.464508 295.374069Z" style="fill: rgb(9.800720%,9.800720%,44.000244%);stroke: none;"></path>
  <path d="M198.906967 329.535492L342.464508 363.696915" style="stroke:rgb(60.000610%,60.000610%,60.000610%); stroke-width: 1.800003;stroke-linecap: round;stroke-dasharray: 3.000000 3.000000 ;stroke-linejoin: round;stroke-miterlimit: 10.000000;fill: none;"></path>
  <path d="M486.022049 329.535492L342.464508 363.696915" style="stroke:rgb(60.000610%,60.000610%,60.000610%); stroke-width: 1.800003;stroke-linecap: round;stroke-dasharray: 3.000000 3.000000 ;stroke-linejoin: round;stroke-miterlimit: 10.000000;fill: none;"></path>
  <path d="M202.906967 329.535492C202.906967 328.474579,202.485458 327.457245,201.735336 326.707123C200.985214 325.957001,199.967880 325.535492,198.906967 325.535492C197.846054 325.535492,196.828720 325.957001,196.078598 326.707123C195.328476 327.457245,194.906967 328.474579,194.906967 329.535492C194.906967 330.596405,195.328476 331.613739,196.078598 332.363861C196.828720 333.113983,197.846054 333.535492,198.906967 333.535492C199.967880 333.535492,200.985214 333.113983,201.735336 332.363861C202.485458 331.613739,202.906967 330.596405,202.906967 329.535492Z" style="stroke:rgb(39.999390%,39.999390%,39.999390%); stroke-width: 0.500000;stroke-linecap: round;stroke-linejoin: round;stroke-miterlimit: 10.000000;fill: none;"></path>
  <path d="M202.906967 329.535492C202.906967 328.474579,202.485458 327.457245,201.735336 326.707123C200.985214 325.957001,199.967880 325.535492,198.906967 325.535492C197.846054 325.535492,196.828720 325.957001,196.078598 326.707123C195.328476 327.457245,194.906967 328.474579,194.906967 329.535492C194.906967 330.596405,195.328476 331.613739,196.078598 332.363861C196.828720 333.113983,197.846054 333.535492,198.906967 333.535492C199.967880 333.535492,200.985214 333.113983,201.735336 332.363861C202.485458 331.613739,202.906967 330.596405,202.906967 329.535492Z" style="fill: rgb(89.999390%,0.000000%,0.000000%);stroke: none;"></path>
  <path d="M490.022049 329.535492C490.022049 328.474579,489.600540 327.457245,488.850418 326.707123C488.100296 325.957001,487.082962 325.535492,486.022049 325.535492C484.961136 325.535492,483.943802 325.957001,483.193680 326.707123C482.443558 327.457245,482.022049 328.474579,482.022049 329.535492C482.022049 330.596405,482.443558 331.613739,483.193680 332.363861C483.943802 333.113983,484.961136 333.535492,486.022049 333.535492C487.082962 333.535492,488.100296 333.113983,488.850418 332.363861C489.600540 331.613739,490.022049 330.596405,490.022049 329.535492Z" style="stroke:rgb(39.999390%,39.999390%,39.999390%); stroke-width: 0.500000;stroke-linecap: round;stroke-linejoin: round;stroke-miterlimit: 10.000000;fill: none;"></path>
  <path d="M490.022049 329.535492C490.022049 328.474579,489.600540 327.457245,488.850418 326.707123C488.100296 325.957001,487.082962 325.535492,486.022049 325.535492C484.961136 325.535492,483.943802 325.957001,483.193680 326.707123C482.443558 327.457245,482.022049 328.474579,482.022049 329.535492C482.022049 330.596405,482.443558 331.613739,483.193680 332.363861C483.943802 333.113983,484.961136 333.535492,486.022049 333.535492C487.082962 333.535492,488.100296 333.113983,488.850418 332.363861C489.600540 331.613739,490.022049 330.596405,490.022049 329.535492Z" style="fill: rgb(89.999390%,0.000000%,0.000000%);stroke: none;"></path>
  <path d="M346.464508 363.696915C346.464508 362.636002,346.042999 361.618668,345.292877 360.868546C344.542755 360.118423,343.525421 359.696915,342.464508 359.696915C341.403595 359.696915,340.386261 360.118423,339.636139 360.868546C338.886017 361.618668,338.464508 362.636002,338.464508 363.696915C338.464508 364.757828,338.886017 365.775162,339.636139 366.525284C340.386261 367.275406,341.403595 367.696915,342.464508 367.696915C343.525421 367.696915,344.542755 367.275406,345.292877 366.525284C346.042999 365.775162,346.464508 364.757828,346.464508 363.696915Z" style="stroke:rgb(39.999390%,39.999390%,39.999390%); stroke-width: 0.500000;stroke-linecap: round;stroke-linejoin: round;stroke-miterlimit: 10.000000;fill: none;"></path>
  <path d="M346.464508 363.696915C346.464508 362.636002,346.042999 361.618668,345.292877 360.868546C344.542755 360.118423,343.525421 359.696915,342.464508 359.696915C341.403595 359.696915,340.386261 360.118423,339.636139 360.868546C338.886017 361.618668,338.464508 362.636002,338.464508 363.696915C338.464508 364.757828,338.886017 365.775162,339.636139 366.525284C340.386261 367.275406,341.403595 367.696915,342.464508 367.696915C343.525421 367.696915,344.542755 367.275406,345.292877 366.525284C346.042999 365.775162,346.464508 364.757828,346.464508 363.696915Z" style="fill: rgb(9.800720%,9.800720%,44.000244%);stroke: none;"></path>
  <path d="M198.906967 329.535492L59.008652 282.597061" style="stroke:rgb(60.000610%,60.000610%,60.000610%); stroke-width: 1.800003;stroke-linecap: round;stroke-dasharray: 3.000000 3.000000 ;stroke-linejoin: round;stroke-miterlimit: 10.000000;fill: none;"></path>
  <path d="M147.262589 164.325378L59.008652 282.597061" style="stroke:rgb(60.000610%,60.000610%,60.000610%); stroke-width: 1.800003;stroke-linecap: round;stroke-dasharray: 3.000000 3.000000 ;stroke-linejoin: round;stroke-miterlimit: 10.000000;fill: none;"></path>
  <path d="M202.906967 329.535492C202.906967 328.474579,202.485458 327.457245,201.735336 326.707123C200.985214 325.957001,199.967880 325.535492,198.906967 325.535492C197.846054 325.535492,196.828720 325.957001,196.078598 326.707123C195.328476 327.457245,194.906967 328.474579,194.906967 329.535492C194.906967 330.596405,195.328476 331.613739,196.078598 332.363861C196.828720 333.113983,197.846054 333.535492,198.906967 333.535492C199.967880 333.535492,200.985214 333.113983,201.735336 332.363861C202.485458 331.613739,202.906967 330.596405,202.906967 329.535492Z" style="stroke:rgb(39.999390%,39.999390%,39.999390%); stroke-width: 0.500000;stroke-linecap: round;stroke-linejoin: round;stroke-miterlimit: 10.000000;fill: none;"></path>
  <path d="M202.906967 329.535492C202.906967 328.474579,202.485458 327.457245,201.735336 326.707123C200.985214 325.957001,199.967880 325.535492,198.906967 325.535492C197.846054 325.535492,196.828720 325.957001,196.078598 326.707123C195.328476 327.457245,194.906967 328.474579,194.906967 329.535492C194.906967 330.596405,195.328476 331.613739,196.078598 332.363861C196.828720 333.113983,197.846054 333.535492,198.906967 333.535492C199.967880 333.535492,200.985214 333.113983,201.735336 332.363861C202.485458 331.613739,202.906967 330.596405,202.906967 329.535492Z" style="fill: rgb(89.999390%,0.000000%,0.000000%);stroke: none;"></path>
  <path d="M151.262589 164.325378C151.262589 163.264465,150.841080 162.247131,150.090958 161.497009C149.340836 160.746887,148.323502 160.325378,147.262589 160.325378C146.201675 160.325378,145.184341 160.746887,144.434219 161.497009C143.684097 162.247131,143.262589 163.264465,143.262589 164.325378C143.262589 165.386292,143.684097 166.403625,144.434219 167.153748C145.184341 167.903870,146.201675 168.325378,147.262589 168.325378C148.323502 168.325378,149.340836 167.903870,150.090958 167.153748C150.841080 166.403625,151.262589 165.386292,151.262589 164.325378Z" style="stroke:rgb(39.999390%,39.999390%,39.999390%); stroke-width: 0.500000;stroke-linecap: round;stroke-linejoin: round;stroke-miterlimit: 10.000000;fill: none;"></path>
  <path d="M151.262589 164.325378C151.262589 163.264465,150.841080 162.247131,150.090958 161.497009C149.340836 160.746887,148.323502 160.325378,147.262589 160.325378C146.201675 160.325378,145.184341 160.746887,144.434219 161.497009C143.684097 162.247131,143.262589 163.264465,143.262589 164.325378C143.262589 165.386292,143.684097 166.403625,144.434219 167.153748C145.184341 167.903870,146.201675 168.325378,147.262589 168.325378C148.323502 168.325378,149.340836 167.903870,150.090958 167.153748C150.841080 166.403625,151.262589 165.386292,151.262589 164.325378Z" style="fill: rgb(89.999390%,0.000000%,0.000000%);stroke: none;"></path>
  <path d="M63.008652 282.597061C63.008652 281.536148,62.587143 280.518814,61.837021 279.768692C61.086899 279.018570,60.069565 278.597061,59.008652 278.597061C57.947739 278.597061,56.930405 279.018570,56.180283 279.768692C55.430161 280.518814,55.008652 281.536148,55.008652 282.597061C55.008652 283.657974,55.430161 284.675308,56.180283 285.425430C56.930405 286.175552,57.947739 286.597061,59.008652 286.597061C60.069565 286.597061,61.086899 286.175552,61.837021 285.425430C62.587143 284.675308,63.008652 283.657974,63.008652 282.597061Z" style="stroke:rgb(39.999390%,39.999390%,39.999390%); stroke-width: 0.500000;stroke-linecap: round;stroke-linejoin: round;stroke-miterlimit: 10.000000;fill: none;"></path>
  <path d="M63.008652 282.597061C63.008652 281.536148,62.587143 280.518814,61.837021 279.768692C61.086899 279.018570,60.069565 278.597061,59.008652 278.597061C57.947739 278.597061,56.930405 279.018570,56.180283 279.768692C55.430161 280.518814,55.008652 281.536148,55.008652 282.597061C55.008652 283.657974,55.430161 284.675308,56.180283 285.425430C56.930405 286.175552,57.947739 286.597061,59.008652 286.597061C60.069565 286.597061,61.086899 286.175552,61.837021 285.425430C62.587143 284.675308,63.008652 283.657974,63.008652 282.597061Z" style="fill: rgb(0.000000%,50.000000%,0.000000%);stroke: none;"></path>
  <path d="M198.906967 329.535492L342.455856 295.339478" style="stroke:rgb(60.000610%,60.000610%,60.000610%); stroke-width: 1.800003;stroke-linecap: round;stroke-dasharray: 3.000000 3.000000 ;stroke-linejoin: round;stroke-miterlimit: 10.000000;fill: none;"></path>
  <path d="M342.464508 147.776672L342.455856 295.339478" style="stroke:rgb(60.000610%,60.000610%,60.000610%); stroke-width: 1.800003;stroke-linecap: round;stroke-dasharray: 3.000000 3.000000 ;stroke-linejoin: round;stroke-miterlimit: 10.000000;fill: none;"></path>
  <path d="M202.906967 329.535492C202.906967 328.474579,202.485458 327.457245,201.735336 326.707123C200.985214 325.957001,199.967880 325.535492,198.906967 325.535492C197.846054 325.535492,196.828720 325.957001,196.078598 326.707123C195.328476 327.457245,194.906967 328.474579,194.906967 329.535492C194.906967 330.596405,195.328476 331.613739,196.078598 332.363861C196.828720 333.113983,197.846054 333.535492,198.906967 333.535492C199.967880 333.535492,200.985214 333.113983,201.735336 332.363861C202.485458 331.613739,202.906967 330.596405,202.906967 329.535492Z" style="stroke:rgb(39.999390%,39.999390%,39.999390%); stroke-width: 0.500000;stroke-linecap: round;stroke-linejoin: round;stroke-miterlimit: 10.000000;fill: none;"></path>
  <path d="M202.906967 329.535492C202.906967 328.474579,202.485458 327.457245,201.735336 326.707123C200.985214 325.957001,199.967880 325.535492,198.906967 325.535492C197.846054 325.535492,196.828720 325.957001,196.078598 326.707123C195.328476 327.457245,194.906967 328.474579,194.906967 329.535492C194.906967 330.596405,195.328476 331.613739,196.078598 332.363861C196.828720 333.113983,197.846054 333.535492,198.906967 333.535492C199.967880 333.535492,200.985214 333.113983,201.735336 332.363861C202.485458 331.613739,202.906967 330.596405,202.906967 329.535492Z" style="fill: rgb(89.999390%,0.000000%,0.000000%);stroke: none;"></path>
  <path d="M346.464508 147.776672C346.464508 146.715759,346.042999 145.698425,345.292877 144.948303C344.542755 144.198181,343.525421 143.776672,342.464508 143.776672C341.403595 143.776672,340.386261 144.198181,339.636139 144.948303C338.886017 145.698425,338.464508 146.715759,338.464508 147.776672C338.464508 148.837585,338.886017 149.854919,339.636139 150.605042C340.386261 151.355164,341.403595 151.776672,342.464508 151.776672C343.525421 151.776672,344.542755 151.355164,345.292877 150.605042C346.042999 149.854919,346.464508 148.837585,346.464508 147.776672Z" style="stroke:rgb(39.999390%,39.999390%,39.999390%); stroke-width: 0.500000;stroke-linecap: round;stroke-linejoin: round;stroke-miterlimit: 10.000000;fill: none;"></path>
  <path d="M346.464508 147.776672C346.464508 146.715759,346.042999 145.698425,345.292877 144.948303C344.542755 144.198181,343.525421 143.776672,342.464508 143.776672C341.403595 143.776672,340.386261 144.198181,339.636139 144.948303C338.886017 145.698425,338.464508 146.715759,338.464508 147.776672C338.464508 148.837585,338.886017 149.854919,339.636139 150.605042C340.386261 151.355164,341.403595 151.776672,342.464508 151.776672C343.525421 151.776672,344.542755 151.355164,345.292877 150.605042C346.042999 149.854919,346.464508 148.837585,346.464508 147.776672Z" style="fill: rgb(89.999390%,0.000000%,0.000000%);stroke: none;"></path>
  <path d="M346.455856 295.339478C346.455856 294.278564,346.034348 293.261230,345.284225 292.511108C344.534103 291.760986,343.516769 291.339478,342.455856 291.339478C341.394943 291.339478,340.377609 291.760986,339.627487 292.511108C338.877365 293.261230,338.455856 294.278564,338.455856 295.339478C338.455856 296.400391,338.877365 297.417725,339.627487 298.167847C340.377609 298.917969,341.394943 299.339478,342.455856 299.339478C343.516769 299.339478,344.534103 298.917969,345.284225 298.167847C346.034348 297.417725,346.455856 296.400391,346.455856 295.339478Z" style="stroke:rgb(39.999390%,39.999390%,39.999390%); stroke-width: 0.500000;stroke-linecap: round;stroke-linejoin: round;stroke-miterlimit: 10.000000;fill: none;"></path>
  <path d="M346.455856 295.339478C346.455856 294.278564,346.034348 293.261230,345.284225 292.511108C344.534103 291.760986,343.516769 291.339478,342.455856 291.339478C341.394943 291.339478,340.377609 291.760986,339.627487 292.511108C338.877365 293.261230,338.455856 294.278564,338.455856 295.339478C338.455856 296.400391,338.877365 297.417725,339.627487 298.167847C340.377609 298.917969,341.394943 299.339478,342.455856 299.339478C343.516769 299.339478,344.534103 298.917969,345.284225 298.167847C346.034348 297.417725,346.455856 296.400391,346.455856 295.339478Z" style="fill: rgb(9.800720%,9.800720%,44.000244%);stroke: none;"></path>
  <path d="M486.022049 329.535492L342.473160 295.339478" style="stroke:rgb(60.000610%,60.000610%,60.000610%); stroke-width: 1.800003;stroke-linecap: round;stroke-dasharray: 3.000000 3.000000 ;stroke-linejoin: round;stroke-miterlimit: 10.000000;fill: none;"></path>
  <path d="M342.464508 147.776672L342.473160 295.339478" style="stroke:rgb(60.000610%,60.000610%,60.000610%); stroke-width: 1.800003;stroke-linecap: round;stroke-dasharray: 3.000000 3.000000 ;stroke-linejoin: round;stroke-miterlimit: 10.000000;fill: none;"></path>
  <path d="M490.022049 329.535492C490.022049 328.474579,489.600540 327.457245,488.850418 326.707123C488.100296 325.957001,487.082962 325.535492,486.022049 325.535492C484.961136 325.535492,483.943802 325.957001,483.193680 326.707123C482.443558 327.457245,482.022049 328.474579,482.022049 329.535492C482.022049 330.596405,482.443558 331.613739,483.193680 332.363861C483.943802 333.113983,484.961136 333.535492,486.022049 333.535492C487.082962 333.535492,488.100296 333.113983,488.850418 332.363861C489.600540 331.613739,490.022049 330.596405,490.022049 329.535492Z" style="stroke:rgb(39.999390%,39.999390%,39.999390%); stroke-width: 0.500000;stroke-linecap: round;stroke-linejoin: round;stroke-miterlimit: 10.000000;fill: none;"></path>
  <path d="M490.022049 329.535492C490.022049 328.474579,489.600540 327.457245,488.850418 326.707123C488.100296 325.957001,487.082962 325.535492,486.022049 325.535492C484.961136 325.535492,483.943802 325.957001,483.193680 326.707123C482.443558 327.457245,482.022049 328.474579,482.022049 329.535492C482.022049 330.596405,482.443558 331.613739,483.193680 332.363861C483.943802 333.113983,484.961136 333.535492,486.022049 333.535492C487.082962 333.535492,488.100296 333.113983,488.850418 332.363861C489.600540 331.613739,490.022049 330.596405,490.022049 329.535492Z" style="fill: rgb(89.999390%,0.000000%,0.000000%);stroke: none;"></path>
  <path d="M346.464508 147.776672C346.464508 146.715759,346.042999 145.698425,345.292877 144.948303C344.542755 144.198181,343.525421 143.776672,342.464508 143.776672C341.403595 143.776672,340.386261 144.198181,339.636139 144.948303C338.886017 145.698425,338.464508 146.715759,338.464508 147.776672C338.464508 148.837585,338.886017 149.854919,339.636139 150.605042C340.386261 151.355164,341.403595 151.776672,342.464508 151.776672C343.525421 151.776672,344.542755 151.355164,345.292877 150.605042C346.042999 149.854919,346.464508 148.837585,346.464508 147.776672Z" style="stroke:rgb(39.999390%,39.999390%,39.999390%); stroke-width: 0.500000;stroke-linecap: round;stroke-linejoin: round;stroke-miterlimit: 10.000000;fill: none;"></path>
  <path d="M346.464508 147.776672C346.464508 146.715759,346.042999 145.698425,345.292877 144.948303C344.542755 144.198181,343.525421 143.776672,342.464508 143.776672C341.403595 143.776672,340.386261 144.198181,339.636139 144.948303C338.886017 145.698425,338.464508 146.715759,338.464508 147.776672C338.464508 148.837585,338.886017 149.854919,339.636139 150.605042C340.386261 151.355164,341.403595 151.776672,342.464508 151.776672C343.525421 151.776672,344.542755 151.355164,345.292877 150.605042C346.042999 149.854919,346.464508 148.837585,346.464508 147.776672Z" style="fill: rgb(89.999390%,0.000000%,0.000000%);stroke: none;"></path>
  <path d="M346.473160 295.339478C346.473160 294.278564,346.051651 293.261230,345.301529 292.511108C344.551407 291.760986,343.534073 291.339478,342.473160 291.339478C341.412247 291.339478,340.394913 291.760986,339.644791 292.511108C338.894669 293.261230,338.473160 294.278564,338.473160 295.339478C338.473160 296.400391,338.894669 297.417725,339.644791 298.167847C340.394913 298.917969,341.412247 299.339478,342.473160 299.339478C343.534073 299.339478,344.551407 298.917969,345.301529 298.167847C346.051651 297.417725,346.473160 296.400391,346.473160 295.339478Z" style="stroke:rgb(39.999390%,39.999390%,39.999390%); stroke-width: 0.500000;stroke-linecap: round;stroke-linejoin: round;stroke-miterlimit: 10.000000;fill: none;"></path>
  <path d="M346.473160 295.339478C346.473160 294.278564,346.051651 293.261230,345.301529 292.511108C344.551407 291.760986,343.534073 291.339478,342.473160 291.339478C341.412247 291.339478,340.394913 291.760986,339.644791 292.511108C338.894669 293.261230,338.473160 294.278564,338.473160 295.339478C338.473160 296.400391,338.894669 297.417725,339.644791 298.167847C340.394913 298.917969,341.412247 299.339478,342.473160 299.339478C343.534073 299.339478,344.551407 298.917969,345.301529 298.167847C346.051651 297.417725,346.473160 296.400391,346.473160 295.339478Z" style="fill: rgb(9.800720%,9.800720%,44.000244%);stroke: none;"></path>
  <path d="M486.022049 329.535492L625.920364 282.597061" style="stroke:rgb(60.000610%,60.000610%,60.000610%); stroke-width: 1.800003;stroke-linecap: round;stroke-dasharray: 3.000000 3.000000 ;stroke-linejoin: round;stroke-miterlimit: 10.000000;fill: none;"></path>
  <path d="M537.666428 164.325378L625.920364 282.597061" style="stroke:rgb(60.000610%,60.000610%,60.000610%); stroke-width: 1.800003;stroke-linecap: round;stroke-dasharray: 3.000000 3.000000 ;stroke-linejoin: round;stroke-miterlimit: 10.000000;fill: none;"></path>
  <path d="M490.022049 329.535492C490.022049 328.474579,489.600540 327.457245,488.850418 326.707123C488.100296 325.957001,487.082962 325.535492,486.022049 325.535492C484.961136 325.535492,483.943802 325.957001,483.193680 326.707123C482.443558 327.457245,482.022049 328.474579,482.022049 329.535492C482.022049 330.596405,482.443558 331.613739,483.193680 332.363861C483.943802 333.113983,484.961136 333.535492,486.022049 333.535492C487.082962 333.535492,488.100296 333.113983,488.850418 332.363861C489.600540 331.613739,490.022049 330.596405,490.022049 329.535492Z" style="stroke:rgb(39.999390%,39.999390%,39.999390%); stroke-width: 0.500000;stroke-linecap: round;stroke-linejoin: round;stroke-miterlimit: 10.000000;fill: none;"></path>
  <path d="M490.022049 329.535492C490.022049 328.474579,489.600540 327.457245,488.850418 326.707123C488.100296 325.957001,487.082962 325.535492,486.022049 325.535492C484.961136 325.535492,483.943802 325.957001,483.193680 326.707123C482.443558 327.457245,482.022049 328.474579,482.022049 329.535492C482.022049 330.596405,482.443558 331.613739,483.193680 332.363861C483.943802 333.113983,484.961136 333.535492,486.022049 333.535492C487.082962 333.535492,488.100296 333.113983,488.850418 332.363861C489.600540 331.613739,490.022049 330.596405,490.022049 329.535492Z" style="fill: rgb(89.999390%,0.000000%,0.000000%);stroke: none;"></path>
  <path d="M541.666428 164.325378C541.666428 163.264465,541.244919 162.247131,540.494797 161.497009C539.744675 160.746887,538.727341 160.325378,537.666428 160.325378C536.605515 160.325378,535.588181 160.746887,534.838058 161.497009C534.087936 162.247131,533.666428 163.264465,533.666428 164.325378C533.666428 165.386292,534.087936 166.403625,534.838058 167.153748C535.588181 167.903870,536.605515 168.325378,537.666428 168.325378C538.727341 168.325378,539.744675 167.903870,540.494797 167.153748C541.244919 166.403625,541.666428 165.386292,541.666428 164.325378Z" style="stroke:rgb(39.999390%,39.999390%,39.999390%); stroke-width: 0.500000;stroke-linecap: round;stroke-linejoin: round;stroke-miterlimit: 10.000000;fill: none;"></path>
  <path d="M541.666428 164.325378C541.666428 163.264465,541.244919 162.247131,540.494797 161.497009C539.744675 160.746887,538.727341 160.325378,537.666428 160.325378C536.605515 160.325378,535.588181 160.746887,534.838058 161.497009C534.087936 162.247131,533.666428 163.264465,533.666428 164.325378C533.666428 165.386292,534.087936 166.403625,534.838058 167.153748C535.588181 167.903870,536.605515 168.325378,537.666428 168.325378C538.727341 168.325378,539.744675 167.903870,540.494797 167.153748C541.244919 166.403625,541.666428 165.386292,541.666428 164.325378Z" style="fill: rgb(89.999390%,0.000000%,0.000000%);stroke: none;"></path>
  <path d="M629.920364 282.597061C629.920364 281.536148,629.498856 280.518814,628.748734 279.768692C627.998611 279.018570,626.981277 278.597061,625.920364 278.597061C624.859451 278.597061,623.842117 279.018570,623.091995 279.768692C622.341873 280.518814,621.920364 281.536148,621.920364 282.597061C621.920364 283.657974,622.341873 284.675308,623.091995 285.425430C623.842117 286.175552,624.859451 286.597061,625.920364 286.597061C626.981277 286.597061,627.998611 286.175552,628.748734 285.425430C629.498856 284.675308,629.920364 283.657974,629.920364 282.597061Z" style="stroke:rgb(39.999390%,39.999390%,39.999390%); stroke-width: 0.500000;stroke-linecap: round;stroke-linejoin: round;stroke-miterlimit: 10.000000;fill: none;"></path>
  <path d="M629.920364 282.597061C629.920364 281.536148,629.498856 280.518814,628.748734 279.768692C627.998611 279.018570,626.981277 278.597061,625.920364 278.597061C624.859451 278.597061,623.842117 279.018570,623.091995 279.768692C622.341873 280.518814,621.920364 281.536148,621.920364 282.597061C621.920364 283.657974,622.341873 284.675308,623.091995 285.425430C623.842117 286.175552,624.859451 286.597061,625.920364 286.597061C626.981277 286.597061,627.998611 286.175552,628.748734 285.425430C629.498856 284.675308,629.920364 283.657974,629.920364 282.597061Z" style="fill: rgb(0.000000%,50.000000%,0.000000%);stroke: none;"></path>
  <path d="M147.262589 164.325378L59.000000 46.070984" style="stroke:rgb(60.000610%,60.000610%,60.000610%); stroke-width: 1.800003;stroke-linecap: round;stroke-dasharray: 3.000000 3.000000 ;stroke-linejoin: round;stroke-miterlimit: 10.000000;fill: none;"></path>
  <path d="M151.262589 164.325378C151.262589 163.264465,150.841080 162.247131,150.090958 161.497009C149.340836 160.746887,148.323502 160.325378,147.262589 160.325378C146.201675 160.325378,145.184341 160.746887,144.434219 161.497009C143.684097 162.247131,143.262589 163.264465,143.262589 164.325378C143.262589 165.386292,143.684097 166.403625,144.434219 167.153748C145.184341 167.903870,146.201675 168.325378,147.262589 168.325378C148.323502 168.325378,149.340836 167.903870,150.090958 167.153748C150.841080 166.403625,151.262589 165.386292,151.262589 164.325378Z" style="stroke:rgb(39.999390%,39.999390%,39.999390%); stroke-width: 0.500000;stroke-linecap: round;stroke-linejoin: round;stroke-miterlimit: 10.000000;fill: none;"></path>
  <path d="M151.262589 164.325378C151.262589 163.264465,150.841080 162.247131,150.090958 161.497009C149.340836 160.746887,148.323502 160.325378,147.262589 160.325378C146.201675 160.325378,145.184341 160.746887,144.434219 161.497009C143.684097 162.247131,143.262589 163.264465,143.262589 164.325378C143.262589 165.386292,143.684097 166.403625,144.434219 167.153748C145.184341 167.903870,146.201675 168.325378,147.262589 168.325378C148.323502 168.325378,149.340836 167.903870,150.090958 167.153748C150.841080 166.403625,151.262589 165.386292,151.262589 164.325378Z" style="fill: rgb(89.999390%,0.000000%,0.000000%);stroke: none;"></path>
  <path d="M63.000000 46.070984C63.000000 45.010071,62.578491 43.992737,61.828369 43.242615C61.078247 42.492493,60.060913 42.070984,59.000000 42.070984C57.939087 42.070984,56.921753 42.492493,56.171631 43.242615C55.421509 43.992737,55.000000 45.010071,55.000000 46.070984C55.000000 47.131897,55.421509 48.149231,56.171631 48.899353C56.921753 49.649475,57.939087 50.070984,59.000000 50.070984C60.060913 50.070984,61.078247 49.649475,61.828369 48.899353C62.578491 48.149231,63.000000 47.131897,63.000000 46.070984Z" style="stroke:rgb(39.999390%,39.999390%,39.999390%); stroke-width: 0.500000;stroke-linecap: round;stroke-linejoin: round;stroke-miterlimit: 10.000000;fill: none;"></path>
  <path d="M63.000000 46.070984C63.000000 45.010071,62.578491 43.992737,61.828369 43.242615C61.078247 42.492493,60.060913 42.070984,59.000000 42.070984C57.939087 42.070984,56.921753 42.492493,56.171631 43.242615C55.421509 43.992737,55.000000 45.010071,55.000000 46.070984C55.000000 47.131897,55.421509 48.149231,56.171631 48.899353C56.921753 49.649475,57.939087 50.070984,59.000000 50.070984C60.060913 50.070984,61.078247 49.649475,61.828369 48.899353C62.578491 48.149231,63.000000 47.131897,63.000000 46.070984Z" style="fill: rgb(100.000000%,100.000000%,0.000000%);stroke: none;"></path>
  <path d="M147.262589 164.325378L235.533813 46.079636" style="stroke:rgb(60.000610%,60.000610%,60.000610%); stroke-width: 1.800003;stroke-linecap: round;stroke-dasharray: 3.000000 3.000000 ;stroke-linejoin: round;stroke-miterlimit: 10.000000;fill: none;"></path>
  <path d="M342.464508 147.776672L235.533813 46.079636" style="stroke:rgb(60.000610%,60.000610%,60.000610%); stroke-width: 1.800003;stroke-linecap: round;stroke-dasharray: 3.000000 3.000000 ;stroke-linejoin: round;stroke-miterlimit: 10.000000;fill: none;"></path>
  <path d="M151.262589 164.325378C151.262589 163.264465,150.841080 162.247131,150.090958 161.497009C149.340836 160.746887,148.323502 160.325378,147.262589 160.325378C146.201675 160.325378,145.184341 160.746887,144.434219 161.497009C143.684097 162.247131,143.262589 163.264465,143.262589 164.325378C143.262589 165.386292,143.684097 166.403625,144.434219 167.153748C145.184341 167.903870,146.201675 168.325378,147.262589 168.325378C148.323502 168.325378,149.340836 167.903870,150.090958 167.153748C150.841080 166.403625,151.262589 165.386292,151.262589 164.325378Z" style="stroke:rgb(39.999390%,39.999390%,39.999390%); stroke-width: 0.500000;stroke-linecap: round;stroke-linejoin: round;stroke-miterlimit: 10.000000;fill: none;"></path>
  <path d="M151.262589 164.325378C151.262589 163.264465,150.841080 162.247131,150.090958 161.497009C149.340836 160.746887,148.323502 160.325378,147.262589 160.325378C146.201675 160.325378,145.184341 160.746887,144.434219 161.497009C143.684097 162.247131,143.262589 163.264465,143.262589 164.325378C143.262589 165.386292,143.684097 166.403625,144.434219 167.153748C145.184341 167.903870,146.201675 168.325378,147.262589 168.325378C148.323502 168.325378,149.340836 167.903870,150.090958 167.153748C150.841080 166.403625,151.262589 165.386292,151.262589 164.325378Z" style="fill: rgb(89.999390%,0.000000%,0.000000%);stroke: none;"></path>
  <path d="M346.464508 147.776672C346.464508 146.715759,346.042999 145.698425,345.292877 144.948303C344.542755 144.198181,343.525421 143.776672,342.464508 143.776672C341.403595 143.776672,340.386261 144.198181,339.636139 144.948303C338.886017 145.698425,338.464508 146.715759,338.464508 147.776672C338.464508 148.837585,338.886017 149.854919,339.636139 150.605042C340.386261 151.355164,341.403595 151.776672,342.464508 151.776672C343.525421 151.776672,344.542755 151.355164,345.292877 150.605042C346.042999 149.854919,346.464508 148.837585,346.464508 147.776672Z" style="stroke:rgb(39.999390%,39.999390%,39.999390%); stroke-width: 0.500000;stroke-linecap: round;stroke-linejoin: round;stroke-miterlimit: 10.000000;fill: none;"></path>
  <path d="M346.464508 147.776672C346.464508 146.715759,346.042999 145.698425,345.292877 144.948303C344.542755 144.198181,343.525421 143.776672,342.464508 143.776672C341.403595 143.776672,340.386261 144.198181,339.636139 144.948303C338.886017 145.698425,338.464508 146.715759,338.464508 147.776672C338.464508 148.837585,338.886017 149.854919,339.636139 150.605042C340.386261 151.355164,341.403595 151.776672,342.464508 151.776672C343.525421 151.776672,344.542755 151.355164,345.292877 150.605042C346.042999 149.854919,346.464508 148.837585,346.464508 147.776672Z" style="fill: rgb(89.999390%,0.000000%,0.000000%);stroke: none;"></path>
  <path d="M239.533813 46.079636C239.533813 45.018723,239.112305 44.001389,238.362183 43.251266C237.612061 42.501144,236.594727 42.079636,235.533813 42.079636C234.472900 42.079636,233.455566 42.501144,232.705444 43.251266C231.955322 44.001389,231.533813 45.018723,231.533813 46.079636C231.533813 47.140549,231.955322 48.157883,232.705444 48.908005C233.455566 49.658127,234.472900 50.079636,235.533813 50.079636C236.594727 50.079636,237.612061 49.658127,238.362183 48.908005C239.112305 48.157883,239.533813 47.140549,239.533813 46.079636Z" style="stroke:rgb(39.999390%,39.999390%,39.999390%); stroke-width: 0.500000;stroke-linecap: round;stroke-linejoin: round;stroke-miterlimit: 10.000000;fill: none;"></path>
  <path d="M239.533813 46.079636C239.533813 45.018723,239.112305 44.001389,238.362183 43.251266C237.612061 42.501144,236.594727 42.079636,235.533813 42.079636C234.472900 42.079636,233.455566 42.501144,232.705444 43.251266C231.955322 44.001389,231.533813 45.018723,231.533813 46.079636C231.533813 47.140549,231.955322 48.157883,232.705444 48.908005C233.455566 49.658127,234.472900 50.079636,235.533813 50.079636C236.594727 50.079636,237.612061 49.658127,238.362183 48.908005C239.112305 48.157883,239.533813 47.140549,239.533813 46.079636Z" style="fill: rgb(0.000000%,50.000000%,0.000000%);stroke: none;"></path>
  <path d="M342.464508 147.776672L449.395203 46.079636" style="stroke:rgb(60.000610%,60.000610%,60.000610%); stroke-width: 1.800003;stroke-linecap: round;stroke-dasharray: 3.000000 3.000000 ;stroke-linejoin: round;stroke-miterlimit: 10.000000;fill: none;"></path>
  <path d="M537.666428 164.325378L449.395203 46.079636" style="stroke:rgb(60.000610%,60.000610%,60.000610%); stroke-width: 1.800003;stroke-linecap: round;stroke-dasharray: 3.000000 3.000000 ;stroke-linejoin: round;stroke-miterlimit: 10.000000;fill: none;"></path>
  <path d="M346.464508 147.776672C346.464508 146.715759,346.042999 145.698425,345.292877 144.948303C344.542755 144.198181,343.525421 143.776672,342.464508 143.776672C341.403595 143.776672,340.386261 144.198181,339.636139 144.948303C338.886017 145.698425,338.464508 146.715759,338.464508 147.776672C338.464508 148.837585,338.886017 149.854919,339.636139 150.605042C340.386261 151.355164,341.403595 151.776672,342.464508 151.776672C343.525421 151.776672,344.542755 151.355164,345.292877 150.605042C346.042999 149.854919,346.464508 148.837585,346.464508 147.776672Z" style="stroke:rgb(39.999390%,39.999390%,39.999390%); stroke-width: 0.500000;stroke-linecap: round;stroke-linejoin: round;stroke-miterlimit: 10.000000;fill: none;"></path>
  <path d="M346.464508 147.776672C346.464508 146.715759,346.042999 145.698425,345.292877 144.948303C344.542755 144.198181,343.525421 143.776672,342.464508 143.776672C341.403595 143.776672,340.386261 144.198181,339.636139 144.948303C338.886017 145.698425,338.464508 146.715759,338.464508 147.776672C338.464508 148.837585,338.886017 149.854919,339.636139 150.605042C340.386261 151.355164,341.403595 151.776672,342.464508 151.776672C343.525421 151.776672,344.542755 151.355164,345.292877 150.605042C346.042999 149.854919,346.464508 148.837585,346.464508 147.776672Z" style="fill: rgb(89.999390%,0.000000%,0.000000%);stroke: none;"></path>
  <path d="M541.666428 164.325378C541.666428 163.264465,541.244919 162.247131,540.494797 161.497009C539.744675 160.746887,538.727341 160.325378,537.666428 160.325378C536.605515 160.325378,535.588181 160.746887,534.838058 161.497009C534.087936 162.247131,533.666428 163.264465,533.666428 164.325378C533.666428 165.386292,534.087936 166.403625,534.838058 167.153748C535.588181 167.903870,536.605515 168.325378,537.666428 168.325378C538.727341 168.325378,539.744675 167.903870,540.494797 167.153748C541.244919 166.403625,541.666428 165.386292,541.666428 164.325378Z" style="stroke:rgb(39.999390%,39.999390%,39.999390%); stroke-width: 0.500000;stroke-linecap: round;stroke-linejoin: round;stroke-miterlimit: 10.000000;fill: none;"></path>
  <path d="M541.666428 164.325378C541.666428 163.264465,541.244919 162.247131,540.494797 161.497009C539.744675 160.746887,538.727341 160.325378,537.666428 160.325378C536.605515 160.325378,535.588181 160.746887,534.838058 161.497009C534.087936 162.247131,533.666428 163.264465,533.666428 164.325378C533.666428 165.386292,534.087936 166.403625,534.838058 167.153748C535.588181 167.903870,536.605515 168.325378,537.666428 168.325378C538.727341 168.325378,539.744675 167.903870,540.494797 167.153748C541.244919 166.403625,541.666428 165.386292,541.666428 164.325378Z" style="fill: rgb(89.999390%,0.000000%,0.000000%);stroke: none;"></path>
  <path d="M453.395203 46.079636C453.395203 45.018723,452.973694 44.001389,452.223572 43.251266C451.473450 42.501144,450.456116 42.079636,449.395203 42.079636C448.334290 42.079636,447.316956 42.501144,446.566833 43.251266C445.816711 44.001389,445.395203 45.018723,445.395203 46.079636C445.395203 47.140549,445.816711 48.157883,446.566833 48.908005C447.316956 49.658127,448.334290 50.079636,449.395203 50.079636C450.456116 50.079636,451.473450 49.658127,452.223572 48.908005C452.973694 48.157883,453.395203 47.140549,453.395203 46.079636Z" style="stroke:rgb(39.999390%,39.999390%,39.999390%); stroke-width: 0.500000;stroke-linecap: round;stroke-linejoin: round;stroke-miterlimit: 10.000000;fill: none;"></path>
  <path d="M453.395203 46.079636C453.395203 45.018723,452.973694 44.001389,452.223572 43.251266C451.473450 42.501144,450.456116 42.079636,449.395203 42.079636C448.334290 42.079636,447.316956 42.501144,446.566833 43.251266C445.816711 44.001389,445.395203 45.018723,445.395203 46.079636C445.395203 47.140549,445.816711 48.157883,446.566833 48.908005C447.316956 49.658127,448.334290 50.079636,449.395203 50.079636C450.456116 50.079636,451.473450 49.658127,452.223572 48.908005C452.973694 48.157883,453.395203 47.140549,453.395203 46.079636Z" style="fill: rgb(0.000000%,50.000000%,0.000000%);stroke: none;"></path>
  <path d="M537.666428 164.325378L625.929016 46.070984" style="stroke:rgb(60.000610%,60.000610%,60.000610%); stroke-width: 1.800003;stroke-linecap: round;stroke-dasharray: 3.000000 3.000000 ;stroke-linejoin: round;stroke-miterlimit: 10.000000;fill: none;"></path>
  <path d="M541.666428 164.325378C541.666428 163.264465,541.244919 162.247131,540.494797 161.497009C539.744675 160.746887,538.727341 160.325378,537.666428 160.325378C536.605515 160.325378,535.588181 160.746887,534.838058 161.497009C534.087936 162.247131,533.666428 163.264465,533.666428 164.325378C533.666428 165.386292,534.087936 166.403625,534.838058 167.153748C535.588181 167.903870,536.605515 168.325378,537.666428 168.325378C538.727341 168.325378,539.744675 167.903870,540.494797 167.153748C541.244919 166.403625,541.666428 165.386292,541.666428 164.325378Z" style="stroke:rgb(39.999390%,39.999390%,39.999390%); stroke-width: 0.500000;stroke-linecap: round;stroke-linejoin: round;stroke-miterlimit: 10.000000;fill: none;"></path>
  <path d="M541.666428 164.325378C541.666428 163.264465,541.244919 162.247131,540.494797 161.497009C539.744675 160.746887,538.727341 160.325378,537.666428 160.325378C536.605515 160.325378,535.588181 160.746887,534.838058 161.497009C534.087936 162.247131,533.666428 163.264465,533.666428 164.325378C533.666428 165.386292,534.087936 166.403625,534.838058 167.153748C535.588181 167.903870,536.605515 168.325378,537.666428 168.325378C538.727341 168.325378,539.744675 167.903870,540.494797 167.153748C541.244919 166.403625,541.666428 165.386292,541.666428 164.325378Z" style="fill: rgb(89.999390%,0.000000%,0.000000%);stroke: none;"></path>
  <path d="M629.929016 46.070984C629.929016 45.010071,629.507507 43.992737,628.757385 43.242615C628.007263 42.492493,626.989929 42.070984,625.929016 42.070984C624.868103 42.070984,623.850769 42.492493,623.100647 43.242615C622.350525 43.992737,621.929016 45.010071,621.929016 46.070984C621.929016 47.131897,622.350525 48.149231,623.100647 48.899353C623.850769 49.649475,624.868103 50.070984,625.929016 50.070984C626.989929 50.070984,628.007263 49.649475,628.757385 48.899353C629.507507 48.149231,629.929016 47.131897,629.929016 46.070984Z" style="stroke:rgb(39.999390%,39.999390%,39.999390%); stroke-width: 0.500000;stroke-linecap: round;stroke-linejoin: round;stroke-miterlimit: 10.000000;fill: none;"></path>
  <path d="M629.929016 46.070984C629.929016 45.010071,629.507507 43.992737,628.757385 43.242615C628.007263 42.492493,626.989929 42.070984,625.929016 42.070984C624.868103 42.070984,623.850769 42.492493,623.100647 43.242615C622.350525 43.992737,621.929016 45.010071,621.929016 46.070984C621.929016 47.131897,622.350525 48.149231,623.100647 48.899353C623.850769 49.649475,624.868103 50.070984,625.929016 50.070984C626.989929 50.070984,628.007263 49.649475,628.757385 48.899353C629.507507 48.149231,629.929016 47.131897,629.929016 46.070984Z" style="fill: rgb(100.000000%,100.000000%,0.000000%);stroke: none;"></path>
</svg>
