<?xml version="1.0"?>
<!-- Created by MetaPost 2.00 on 2022.03.31:1000 -->
<svg version="1.1" xmlns="http://www.w3.org/2000/svg" xmlns:xlink="http://www.w3.org/1999/xlink" width="674.444489" height="769.627594" viewBox="0 0 674.444489 769.627594">
<!-- Original BoundingBox: -40.881241 -101.349289 633.563248 668.278305 -->
  <path d="M40.000000 668.000000L606.929016 668.000000L606.929016 101.070984L40.000000 101.070984L40.000000 668.000000Z" style="fill: rgb(100.000000%,100.000000%,100.000000%);stroke: none;"></path>
  <path d="M40.000000 668.000000L606.929016 668.000000" style="stroke:rgb(0.000000%,0.000000%,0.000000%); stroke-width: 1.000000;stroke-linecap: round;stroke-linejoin: round;stroke-miterlimit: 10.000000;fill: none;"></path>
  <path d="M606.929016 668.000000L606.929016 101.070984" style="stroke:rgb(0.000000%,0.000000%,0.000000%); stroke-width: 1.000000;stroke-linecap: round;stroke-linejoin: round;stroke-miterlimit: 10.000000;fill: none;"></path>
  <path d="M606.929016 101.070984L40.000000 101.070984" style="stroke:rgb(0.000000%,0.000000%,0.000000%); stroke-width: 1.000000;stroke-linecap: round;stroke-linejoin: round;stroke-miterlimit: 10.000000;fill: none;"></path>
  <path d="M40.000000 101.070984L40.000000 668.000000" style="stroke:rgb(0.000000%,0.000000%,0.000000%); stroke-width: 1.000000;stroke-linecap: round;stroke-linejoin: round;stroke-miterlimit: 10.000000;fill: none;"></path>
  <path d="M673.063248 526.267746C673.063248 477.227310,653.579102 430.201294,618.904907 395.527084C584.230698 360.852890,537.204681 341.368744,488.164246 341.368744C439.123810 341.368744,392.097794 360.852890,357.423584 395.527084C322.749390 430.201294,303.265244 477.227310,303.265244 526.267746C303.265244 575.308182,322.749390 622.334198,357.423584 657.008408C392.097794 691.682602,439.123810 711.166748,488.164246 711.166748C537.204681 711.166748,584.230698 691.682602,618.904907 657.008408C653.579102 622.334198,673.063248 575.308182,673.063248 526.267746Z" style="stroke:rgb(25.500488%,41.000366%,88.400269%); stroke-width: 1.000000;stroke-linecap: round;stroke-linejoin: round;stroke-miterlimit: 10.000000;fill: none;"></path>
  <path d="M389.590088 583.950287C389.590088 534.909851,370.105942 487.883835,335.431747 453.209625C300.757538 418.535431,253.731522 399.051285,204.691086 399.051285C155.650650 399.051285,108.624634 418.535431,73.950424 453.209625C39.276230 487.883835,19.792084 534.909851,19.792084 583.950287C19.792084 632.990723,39.276230 680.016739,73.950424 714.690948C108.624634 749.365143,155.650650 768.849289,204.691086 768.849289C253.731522 768.849289,300.757538 749.365143,335.431747 714.690948C370.105942 680.016739,389.590088 632.990723,389.590088 583.950287Z" style="stroke:rgb(25.500488%,41.000366%,88.400269%); stroke-width: 1.000000;stroke-linecap: round;stroke-linejoin: round;stroke-miterlimit: 10.000000;fill: none;"></path>
  <path d="M673.063248 242.803238C673.063248 193.762802,653.579102 146.736786,618.904907 112.062576C584.230698 77.388382,537.204681 57.904236,488.164246 57.904236C439.123810 57.904236,392.097794 77.388382,357.423584 112.062576C322.749390 146.736786,303.265244 193.762802,303.265244 242.803238C303.265244 291.843674,322.749390 338.869690,357.423584 373.543900C392.097794 408.218094,439.123810 427.702240,488.164246 427.702240C537.204681 427.702240,584.230698 408.218094,618.904907 373.543900C653.579102 338.869690,673.063248 291.843674,673.063248 242.803238Z" style="stroke:rgb(25.500488%,41.000366%,88.400269%); stroke-width: 1.000000;stroke-linecap: round;stroke-linejoin: round;stroke-miterlimit: 10.000000;fill: none;"></path>
  <path d="M369.416763 384.535492C369.416763 335.495056,349.932617 288.469040,315.258423 253.794830C280.584213 219.120636,233.558197 199.636490,184.517761 199.636490C135.477325 199.636490,88.451309 219.120636,53.777100 253.794830C19.102905 288.469040,-0.381241 335.495056,-0.381241 384.535492C-0.381241 433.575928,19.102905 480.601944,53.777100 515.276154C88.451309 549.950348,135.477325 569.434494,184.517761 569.434494C233.558197 569.434494,280.584213 549.950348,315.258423 515.276154C349.932617 480.601944,369.416763 433.575928,369.416763 384.535492Z" style="stroke:rgb(25.500488%,41.000366%,88.400269%); stroke-width: 1.000000;stroke-linecap: round;stroke-linejoin: round;stroke-miterlimit: 10.000000;fill: none;"></path>
  <path d="M389.590088 185.120697C389.590088 136.080261,370.105942 89.054245,335.431747 54.380035C300.757538 19.705841,253.731522 0.221695,204.691086 0.221695C155.650650 0.221695,108.624634 19.705841,73.950424 54.380035C39.276230 89.054245,19.792084 136.080261,19.792084 185.120697C19.792084 234.161133,39.276230 281.187149,73.950424 315.861359C108.624634 350.535553,155.650650 370.019699,204.691086 370.019699C253.731522 370.019699,300.757538 350.535553,335.431747 315.861359C370.105942 281.187149,389.590088 234.161133,389.590088 185.120697Z" style="stroke:rgb(25.500488%,41.000366%,88.400269%); stroke-width: 1.000000;stroke-linecap: round;stroke-linejoin: round;stroke-miterlimit: 10.000000;fill: none;"></path>
  <path d="M488.164246 526.267746L606.929016 668.000000" style="stroke:rgb(60.000610%,60.000610%,60.000610%); stroke-width: 1.800003;stroke-linecap: round;stroke-dasharray: 3.000000 3.000000 ;stroke-linejoin: round;stroke-miterlimit: 10.000000;fill: none;"></path>
  <path d="M492.164246 526.267746C492.164246 525.206833,491.742737 524.189499,490.992615 523.439377C490.242493 522.689255,489.225159 522.267746,488.164246 522.267746C487.103333 522.267746,486.085999 522.689255,485.335876 523.439377C484.585754 524.189499,484.164246 525.206833,484.164246 526.267746C484.164246 527.328659,484.585754 528.345993,485.335876 529.096115C486.085999 529.846237,487.103333 530.267746,488.164246 530.267746C489.225159 530.267746,490.242493 529.846237,490.992615 529.096115C491.742737 528.345993,492.164246 527.328659,492.164246 526.267746Z" style="stroke:rgb(39.999390%,39.999390%,39.999390%); stroke-width: 0.500000;stroke-linecap: round;stroke-linejoin: round;stroke-miterlimit: 10.000000;fill: none;"></path>
  <path d="M492.164246 526.267746C492.164246 525.206833,491.742737 524.189499,490.992615 523.439377C490.242493 522.689255,489.225159 522.267746,488.164246 522.267746C487.103333 522.267746,486.085999 522.689255,485.335876 523.439377C484.585754 524.189499,484.164246 525.206833,484.164246 526.267746C484.164246 527.328659,484.585754 528.345993,485.335876 529.096115C486.085999 529.846237,487.103333 530.267746,488.164246 530.267746C489.225159 530.267746,490.242493 529.846237,490.992615 529.096115C491.742737 528.345993,492.164246 527.328659,492.164246 526.267746Z" style="fill: rgb(89.999390%,0.000000%,0.000000%);stroke: none;"></path>
  <path d="M610.929016 668.000000C610.929016 666.939087,610.507507 665.921753,609.757385 665.171631C609.007263 664.421509,607.989929 664.000000,606.929016 664.000000C605.868103 664.000000,604.850769 664.421509,604.100647 665.171631C603.350525 665.921753,602.929016 666.939087,602.929016 668.000000C602.929016 669.060913,603.350525 670.078247,604.100647 670.828369C604.850769 671.578491,605.868103 672.000000,606.929016 672.000000C607.989929 672.000000,609.007263 671.578491,609.757385 670.828369C610.507507 670.078247,610.929016 669.060913,610.929016 668.000000Z" style="stroke:rgb(39.999390%,39.999390%,39.999390%); stroke-width: 0.500000;stroke-linecap: round;stroke-linejoin: round;stroke-miterlimit: 10.000000;fill: none;"></path>
  <path d="M610.929016 668.000000C610.929016 666.939087,610.507507 665.921753,609.757385 665.171631C609.007263 664.421509,607.989929 664.000000,606.929016 664.000000C605.868103 664.000000,604.850769 664.421509,604.100647 665.171631C603.350525 665.921753,602.929016 666.939087,602.929016 668.000000C602.929016 669.060913,603.350525 670.078247,604.100647 670.828369C604.850769 671.578491,605.868103 672.000000,606.929016 672.000000C607.989929 672.000000,609.007263 671.578491,609.757385 670.828369C610.507507 670.078247,610.929016 669.060913,610.929016 668.000000Z" style="fill: rgb(100.000000%,100.000000%,0.000000%);stroke: none;"></path>
  <path d="M488.164246 526.267746L369.399460 667.982697" style="stroke:rgb(60.000610%,60.000610%,60.000610%); stroke-width: 1.800003;stroke-linecap: round;stroke-dasharray: 3.000000 3.000000 ;stroke-linejoin: round;stroke-miterlimit: 10.000000;fill: none;"></path>
  <path d="M204.691086 583.950287L369.399460 667.982697" style="stroke:rgb(60.000610%,60.000610%,60.000610%); stroke-width: 1.800003;stroke-linecap: round;stroke-dasharray: 3.000000 3.000000 ;stroke-linejoin: round;stroke-miterlimit: 10.000000;fill: none;"></path>
  <path d="M492.164246 526.267746C492.164246 525.206833,491.742737 524.189499,490.992615 523.439377C490.242493 522.689255,489.225159 522.267746,488.164246 522.267746C487.103333 522.267746,486.085999 522.689255,485.335876 523.439377C484.585754 524.189499,484.164246 525.206833,484.164246 526.267746C484.164246 527.328659,484.585754 528.345993,485.335876 529.096115C486.085999 529.846237,487.103333 530.267746,488.164246 530.267746C489.225159 530.267746,490.242493 529.846237,490.992615 529.096115C491.742737 528.345993,492.164246 527.328659,492.164246 526.267746Z" style="stroke:rgb(39.999390%,39.999390%,39.999390%); stroke-width: 0.500000;stroke-linecap: round;stroke-linejoin: round;stroke-miterlimit: 10.000000;fill: none;"></path>
  <path d="M492.164246 526.267746C492.164246 525.206833,491.742737 524.189499,490.992615 523.439377C490.242493 522.689255,489.225159 522.267746,488.164246 522.267746C487.103333 522.267746,486.085999 522.689255,485.335876 523.439377C484.585754 524.189499,484.164246 525.206833,484.164246 526.267746C484.164246 527.328659,484.585754 528.345993,485.335876 529.096115C486.085999 529.846237,487.103333 530.267746,488.164246 530.267746C489.225159 530.267746,490.242493 529.846237,490.992615 529.096115C491.742737 528.345993,492.164246 527.328659,492.164246 526.267746Z" style="fill: rgb(89.999390%,0.000000%,0.000000%);stroke: none;"></path>
  <path d="M208.691086 583.950287C208.691086 582.889374,208.269577 581.872040,207.519455 581.121918C206.769333 580.371796,205.751999 579.950287,204.691086 579.950287C203.630173 579.950287,202.612839 580.371796,201.862717 581.121918C201.112595 581.872040,200.691086 582.889374,200.691086 583.950287C200.691086 585.011200,201.112595 586.028534,201.862717 586.778656C202.612839 587.528778,203.630173 587.950287,204.691086 587.950287C205.751999 587.950287,206.769333 587.528778,207.519455 586.778656C208.269577 586.028534,208.691086 585.011200,208.691086 583.950287Z" style="stroke:rgb(39.999390%,39.999390%,39.999390%); stroke-width: 0.500000;stroke-linecap: round;stroke-linejoin: round;stroke-miterlimit: 10.000000;fill: none;"></path>
  <path d="M208.691086 583.950287C208.691086 582.889374,208.269577 581.872040,207.519455 581.121918C206.769333 580.371796,205.751999 579.950287,204.691086 579.950287C203.630173 579.950287,202.612839 580.371796,201.862717 581.121918C201.112595 581.872040,200.691086 582.889374,200.691086 583.950287C200.691086 585.011200,201.112595 586.028534,201.862717 586.778656C202.612839 587.528778,203.630173 587.950287,204.691086 587.950287C205.751999 587.950287,206.769333 587.528778,207.519455 586.778656C208.269577 586.028534,208.691086 585.011200,208.691086 583.950287Z" style="fill: rgb(89.999390%,0.000000%,0.000000%);stroke: none;"></path>
  <path d="M373.399460 667.982697C373.399460 666.921783,372.977951 665.904449,372.227829 665.154327C371.477707 664.404205,370.460373 663.982697,369.399460 663.982697C368.338547 663.982697,367.321213 664.404205,366.571091 665.154327C365.820969 665.904449,365.399460 666.921783,365.399460 667.982697C365.399460 669.043610,365.820969 670.060944,366.571091 670.811066C367.321213 671.561188,368.338547 671.982697,369.399460 671.982697C370.460373 671.982697,371.477707 671.561188,372.227829 670.811066C372.977951 670.060944,373.399460 669.043610,373.399460 667.982697Z" style="stroke:rgb(39.999390%,39.999390%,39.999390%); stroke-width: 0.500000;stroke-linecap: round;stroke-linejoin: round;stroke-miterlimit: 10.000000;fill: none;"></path>
  <path d="M373.399460 667.982697C373.399460 666.921783,372.977951 665.904449,372.227829 665.154327C371.477707 664.404205,370.460373 663.982697,369.399460 663.982697C368.338547 663.982697,367.321213 664.404205,366.571091 665.154327C365.820969 665.904449,365.399460 666.921783,365.399460 667.982697C365.399460 669.043610,365.820969 670.060944,366.571091 670.811066C367.321213 671.561188,368.338547 671.982697,369.399460 671.982697C370.460373 671.982697,371.477707 671.561188,372.227829 670.811066C372.977951 670.060944,373.399460 669.043610,373.399460 667.982697Z" style="fill: rgb(0.000000%,50.000000%,0.000000%);stroke: none;"></path>
  <path d="M488.164246 526.267746L369.434067 384.535492" style="stroke:rgb(60.000610%,60.000610%,60.000610%); stroke-width: 1.800003;stroke-linecap: round;stroke-dasharray: 3.000000 3.000000 ;stroke-linejoin: round;stroke-miterlimit: 10.000000;fill: none;"></path>
  <path d="M488.164246 242.803238L369.434067 384.535492" style="stroke:rgb(60.000610%,60.000610%,60.000610%); stroke-width: 1.800003;stroke-linecap: round;stroke-dasharray: 3.000000 3.000000 ;stroke-linejoin: round;stroke-miterlimit: 10.000000;fill: none;"></path>
  <path d="M492.164246 526.267746C492.164246 525.206833,491.742737 524.189499,490.992615 523.439377C490.242493 522.689255,489.225159 522.267746,488.164246 522.267746C487.103333 522.267746,486.085999 522.689255,485.335876 523.439377C484.585754 524.189499,484.164246 525.206833,484.164246 526.267746C484.164246 527.328659,484.585754 528.345993,485.335876 529.096115C486.085999 529.846237,487.103333 530.267746,488.164246 530.267746C489.225159 530.267746,490.242493 529.846237,490.992615 529.096115C491.742737 528.345993,492.164246 527.328659,492.164246 526.267746Z" style="stroke:rgb(39.999390%,39.999390%,39.999390%); stroke-width: 0.500000;stroke-linecap: round;stroke-linejoin: round;stroke-miterlimit: 10.000000;fill: none;"></path>
  <path d="M492.164246 526.267746C492.164246 525.206833,491.742737 524.189499,490.992615 523.439377C490.242493 522.689255,489.225159 522.267746,488.164246 522.267746C487.103333 522.267746,486.085999 522.689255,485.335876 523.439377C484.585754 524.189499,484.164246 525.206833,484.164246 526.267746C484.164246 527.328659,484.585754 528.345993,485.335876 529.096115C486.085999 529.846237,487.103333 530.267746,488.164246 530.267746C489.225159 530.267746,490.242493 529.846237,490.992615 529.096115C491.742737 528.345993,492.164246 527.328659,492.164246 526.267746Z" style="fill: rgb(89.999390%,0.000000%,0.000000%);stroke: none;"></path>
  <path d="M492.164246 242.803238C492.164246 241.742325,491.742737 240.724991,490.992615 239.974869C490.242493 239.224747,489.225159 238.803238,488.164246 238.803238C487.103333 238.803238,486.085999 239.224747,485.335876 239.974869C484.585754 240.724991,484.164246 241.742325,484.164246 242.803238C484.164246 243.864151,484.585754 244.881485,485.335876 245.631607C486.085999 246.381729,487.103333 246.803238,488.164246 246.803238C489.225159 246.803238,490.242493 246.381729,490.992615 245.631607C491.742737 244.881485,492.164246 243.864151,492.164246 242.803238Z" style="stroke:rgb(39.999390%,39.999390%,39.999390%); stroke-width: 0.500000;stroke-linecap: round;stroke-linejoin: round;stroke-miterlimit: 10.000000;fill: none;"></path>
  <path d="M492.164246 242.803238C492.164246 241.742325,491.742737 240.724991,490.992615 239.974869C490.242493 239.224747,489.225159 238.803238,488.164246 238.803238C487.103333 238.803238,486.085999 239.224747,485.335876 239.974869C484.585754 240.724991,484.164246 241.742325,484.164246 242.803238C484.164246 243.864151,484.585754 244.881485,485.335876 245.631607C486.085999 246.381729,487.103333 246.803238,488.164246 246.803238C489.225159 246.803238,490.242493 246.381729,490.992615 245.631607C491.742737 244.881485,492.164246 243.864151,492.164246 242.803238Z" style="fill: rgb(89.999390%,0.000000%,0.000000%);stroke: none;"></path>
  <path d="M373.434067 384.535492C373.434067 383.474579,373.012558 382.457245,372.262436 381.707123C371.512314 380.957001,370.494980 380.535492,369.434067 380.535492C368.373154 380.535492,367.355820 380.957001,366.605698 381.707123C365.855576 382.457245,365.434067 383.474579,365.434067 384.535492C365.434067 385.596405,365.855576 386.613739,366.605698 387.363861C367.355820 388.113983,368.373154 388.535492,369.434067 388.535492C370.494980 388.535492,371.512314 388.113983,372.262436 387.363861C373.012558 386.613739,373.434067 385.596405,373.434067 384.535492Z" style="stroke:rgb(39.999390%,39.999390%,39.999390%); stroke-width: 0.500000;stroke-linecap: round;stroke-linejoin: round;stroke-miterlimit: 10.000000;fill: none;"></path>
  <path d="M373.434067 384.535492C373.434067 383.474579,373.012558 382.457245,372.262436 381.707123C371.512314 380.957001,370.494980 380.535492,369.434067 380.535492C368.373154 380.535492,367.355820 380.957001,366.605698 381.707123C365.855576 382.457245,365.434067 383.474579,365.434067 384.535492C365.434067 385.596405,365.855576 386.613739,366.605698 387.363861C367.355820 388.113983,368.373154 388.535492,369.434067 388.535492C370.494980 388.535492,371.512314 388.113983,372.262436 387.363861C373.012558 386.613739,373.434067 385.596405,373.434067 384.535492Z" style="fill: rgb(9.800720%,9.800720%,44.000244%);stroke: none;"></path>
  <path d="M488.164246 526.267746L606.903061 384.535492" style="stroke:rgb(60.000610%,60.000610%,60.000610%); stroke-width: 1.800003;stroke-linecap: round;stroke-dasharray: 3.000000 3.000000 ;stroke-linejoin: round;stroke-miterlimit: 10.000000;fill: none;"></path>
  <path d="M488.164246 242.803238L606.903061 384.535492" style="stroke:rgb(60.000610%,60.000610%,60.000610%); stroke-width: 1.800003;stroke-linecap: round;stroke-dasharray: 3.000000 3.000000 ;stroke-linejoin: round;stroke-miterlimit: 10.000000;fill: none;"></path>
  <path d="M492.164246 526.267746C492.164246 525.206833,491.742737 524.189499,490.992615 523.439377C490.242493 522.689255,489.225159 522.267746,488.164246 522.267746C487.103333 522.267746,486.085999 522.689255,485.335876 523.439377C484.585754 524.189499,484.164246 525.206833,484.164246 526.267746C484.164246 527.328659,484.585754 528.345993,485.335876 529.096115C486.085999 529.846237,487.103333 530.267746,488.164246 530.267746C489.225159 530.267746,490.242493 529.846237,490.992615 529.096115C491.742737 528.345993,492.164246 527.328659,492.164246 526.267746Z" style="stroke:rgb(39.999390%,39.999390%,39.999390%); stroke-width: 0.500000;stroke-linecap: round;stroke-linejoin: round;stroke-miterlimit: 10.000000;fill: none;"></path>
  <path d="M492.164246 526.267746C492.164246 525.206833,491.742737 524.189499,490.992615 523.439377C490.242493 522.689255,489.225159 522.267746,488.164246 522.267746C487.103333 522.267746,486.085999 522.689255,485.335876 523.439377C484.585754 524.189499,484.164246 525.206833,484.164246 526.267746C484.164246 527.328659,484.585754 528.345993,485.335876 529.096115C486.085999 529.846237,487.103333 530.267746,488.164246 530.267746C489.225159 530.267746,490.242493 529.846237,490.992615 529.096115C491.742737 528.345993,492.164246 527.328659,492.164246 526.267746Z" style="fill: rgb(89.999390%,0.000000%,0.000000%);stroke: none;"></path>
  <path d="M492.164246 242.803238C492.164246 241.742325,491.742737 240.724991,490.992615 239.974869C490.242493 239.224747,489.225159 238.803238,488.164246 238.803238C487.103333 238.803238,486.085999 239.224747,485.335876 239.974869C484.585754 240.724991,484.164246 241.742325,484.164246 242.803238C484.164246 243.864151,484.585754 244.881485,485.335876 245.631607C486.085999 246.381729,487.103333 246.803238,488.164246 246.803238C489.225159 246.803238,490.242493 246.381729,490.992615 245.631607C491.742737 244.881485,492.164246 243.864151,492.164246 242.803238Z" style="stroke:rgb(39.999390%,39.999390%,39.999390%); stroke-width: 0.500000;stroke-linecap: round;stroke-linejoin: round;stroke-miterlimit: 10.000000;fill: none;"></path>
  <path d="M492.164246 242.803238C492.164246 241.742325,491.742737 240.724991,490.992615 239.974869C490.242493 239.224747,489.225159 238.803238,488.164246 238.803238C487.103333 238.803238,486.085999 239.224747,485.335876 239.974869C484.585754 240.724991,484.164246 241.742325,484.164246 242.803238C484.164246 243.864151,484.585754 244.881485,485.335876 245.631607C486.085999 246.381729,487.103333 246.803238,488.164246 246.803238C489.225159 246.803238,490.242493 246.381729,490.992615 245.631607C491.742737 244.881485,492.164246 243.864151,492.164246 242.803238Z" style="fill: rgb(89.999390%,0.000000%,0.000000%);stroke: none;"></path>
  <path d="M610.903061 384.535492C610.903061 383.474579,610.481552 382.457245,609.731430 381.707123C608.981308 380.957001,607.963974 380.535492,606.903061 380.535492C605.842148 380.535492,604.824814 380.957001,604.074692 381.707123C603.324570 382.457245,602.903061 383.474579,602.903061 384.535492C602.903061 385.596405,603.324570 386.613739,604.074692 387.363861C604.824814 388.113983,605.842148 388.535492,606.903061 388.535492C607.963974 388.535492,608.981308 388.113983,609.731430 387.363861C610.481552 386.613739,610.903061 385.596405,610.903061 384.535492Z" style="stroke:rgb(39.999390%,39.999390%,39.999390%); stroke-width: 0.500000;stroke-linecap: round;stroke-linejoin: round;stroke-miterlimit: 10.000000;fill: none;"></path>
  <path d="M610.903061 384.535492C610.903061 383.474579,610.481552 382.457245,609.731430 381.707123C608.981308 380.957001,607.963974 380.535492,606.903061 380.535492C605.842148 380.535492,604.824814 380.957001,604.074692 381.707123C603.324570 382.457245,602.903061 383.474579,602.903061 384.535492C602.903061 385.596405,603.324570 386.613739,604.074692 387.363861C604.824814 388.113983,605.842148 388.535492,606.903061 388.535492C607.963974 388.535492,608.981308 388.113983,609.731430 387.363861C610.481552 386.613739,610.903061 385.596405,610.903061 384.535492Z" style="fill: rgb(0.000000%,50.000000%,0.000000%);stroke: none;"></path>
  <path d="M488.164246 526.267746L369.416763 384.552795" style="stroke:rgb(60.000610%,60.000610%,60.000610%); stroke-width: 1.800003;stroke-linecap: round;stroke-dasharray: 3.000000 3.000000 ;stroke-linejoin: round;stroke-miterlimit: 10.000000;fill: none;"></path>
  <path d="M184.517761 384.535492L369.416763 384.552795" style="stroke:rgb(60.000610%,60.000610%,60.000610%); stroke-width: 1.800003;stroke-linecap: round;stroke-dasharray: 3.000000 3.000000 ;stroke-linejoin: round;stroke-miterlimit: 10.000000;fill: none;"></path>
  <path d="M492.164246 526.267746C492.164246 525.206833,491.742737 524.189499,490.992615 523.439377C490.242493 522.689255,489.225159 522.267746,488.164246 522.267746C487.103333 522.267746,486.085999 522.689255,485.335876 523.439377C484.585754 524.189499,484.164246 525.206833,484.164246 526.267746C484.164246 527.328659,484.585754 528.345993,485.335876 529.096115C486.085999 529.846237,487.103333 530.267746,488.164246 530.267746C489.225159 530.267746,490.242493 529.846237,490.992615 529.096115C491.742737 528.345993,492.164246 527.328659,492.164246 526.267746Z" style="stroke:rgb(39.999390%,39.999390%,39.999390%); stroke-width: 0.500000;stroke-linecap: round;stroke-linejoin: round;stroke-miterlimit: 10.000000;fill: none;"></path>
  <path d="M492.164246 526.267746C492.164246 525.206833,491.742737 524.189499,490.992615 523.439377C490.242493 522.689255,489.225159 522.267746,488.164246 522.267746C487.103333 522.267746,486.085999 522.689255,485.335876 523.439377C484.585754 524.189499,484.164246 525.206833,484.164246 526.267746C484.164246 527.328659,484.585754 528.345993,485.335876 529.096115C486.085999 529.846237,487.103333 530.267746,488.164246 530.267746C489.225159 530.267746,490.242493 529.846237,490.992615 529.096115C491.742737 528.345993,492.164246 527.328659,492.164246 526.267746Z" style="fill: rgb(89.999390%,0.000000%,0.000000%);stroke: none;"></path>
  <path d="M188.517761 384.535492C188.517761 383.474579,188.096252 382.457245,187.346130 381.707123C186.596008 380.957001,185.578674 380.535492,184.517761 380.535492C183.456848 380.535492,182.439514 380.957001,181.689392 381.707123C180.939270 382.457245,180.517761 383.474579,180.517761 384.535492C180.517761 385.596405,180.939270 386.613739,181.689392 387.363861C182.439514 388.113983,183.456848 388.535492,184.517761 388.535492C185.578674 388.535492,186.596008 388.113983,187.346130 387.363861C188.096252 386.613739,188.517761 385.596405,188.517761 384.535492Z" style="stroke:rgb(39.999390%,39.999390%,39.999390%); stroke-width: 0.500000;stroke-linecap: round;stroke-linejoin: round;stroke-miterlimit: 10.000000;fill: none;"></path>
  <path d="M188.517761 384.535492C188.517761 383.474579,188.096252 382.457245,187.346130 381.707123C186.596008 380.957001,185.578674 380.535492,184.517761 380.535492C183.456848 380.535492,182.439514 380.957001,181.689392 381.707123C180.939270 382.457245,180.517761 383.474579,180.517761 384.535492C180.517761 385.596405,180.939270 386.613739,181.689392 387.363861C182.439514 388.113983,183.456848 388.535492,184.517761 388.535492C185.578674 388.535492,186.596008 388.113983,187.346130 387.363861C188.096252 386.613739,188.517761 385.596405,188.517761 384.535492Z" style="fill: rgb(89.999390%,0.000000%,0.000000%);stroke: none;"></path>
  <path d="M373.416763 384.552795C373.416763 383.491882,372.995255 382.474548,372.245132 381.724426C371.495010 380.974304,370.477676 380.552795,369.416763 380.552795C368.355850 380.552795,367.338516 380.974304,366.588394 381.724426C365.838272 382.474548,365.416763 383.491882,365.416763 384.552795C365.416763 385.613708,365.838272 386.631042,366.588394 387.381165C367.338516 388.131287,368.355850 388.552795,369.416763 388.552795C370.477676 388.552795,371.495010 388.131287,372.245132 387.381165C372.995255 386.631042,373.416763 385.613708,373.416763 384.552795Z" style="stroke:rgb(39.999390%,39.999390%,39.999390%); stroke-width: 0.500000;stroke-linecap: round;stroke-linejoin: round;stroke-miterlimit: 10.000000;fill: none;"></path>
  <path d="M373.416763 384.552795C373.416763 383.491882,372.995255 382.474548,372.245132 381.724426C371.495010 380.974304,370.477676 380.552795,369.416763 380.552795C368.355850 380.552795,367.338516 380.974304,366.588394 381.724426C365.838272 382.474548,365.416763 383.491882,365.416763 384.552795C365.416763 385.613708,365.838272 386.631042,366.588394 387.381165C367.338516 388.131287,368.355850 388.552795,369.416763 388.552795C370.477676 388.552795,371.495010 388.131287,372.245132 387.381165C372.995255 386.631042,373.416763 385.613708,373.416763 384.552795Z" style="fill: rgb(9.800720%,9.800720%,44.000244%);stroke: none;"></path>
  <path d="M204.691086 583.950287L40.000000 668.000000" style="stroke:rgb(60.000610%,60.000610%,60.000610%); stroke-width: 1.800003;stroke-linecap: round;stroke-dasharray: 3.000000 3.000000 ;stroke-linejoin: round;stroke-miterlimit: 10.000000;fill: none;"></path>
  <path d="M208.691086 583.950287C208.691086 582.889374,208.269577 581.872040,207.519455 581.121918C206.769333 580.371796,205.751999 579.950287,204.691086 579.950287C203.630173 579.950287,202.612839 580.371796,201.862717 581.121918C201.112595 581.872040,200.691086 582.889374,200.691086 583.950287C200.691086 585.011200,201.112595 586.028534,201.862717 586.778656C202.612839 587.528778,203.630173 587.950287,204.691086 587.950287C205.751999 587.950287,206.769333 587.528778,207.519455 586.778656C208.269577 586.028534,208.691086 585.011200,208.691086 583.950287Z" style="stroke:rgb(39.999390%,39.999390%,39.999390%); stroke-width: 0.500000;stroke-linecap: round;stroke-linejoin: round;stroke-miterlimit: 10.000000;fill: none;"></path>
  <path d="M208.691086 583.950287C208.691086 582.889374,208.269577 581.872040,207.519455 581.121918C206.769333 580.371796,205.751999 579.950287,204.691086 579.950287C203.630173 579.950287,202.612839 580.371796,201.862717 581.121918C201.112595 581.872040,200.691086 582.889374,200.691086 583.950287C200.691086 585.011200,201.112595 586.028534,201.862717 586.778656C202.612839 587.528778,203.630173 587.950287,204.691086 587.950287C205.751999 587.950287,206.769333 587.528778,207.519455 586.778656C208.269577 586.028534,208.691086 585.011200,208.691086 583.950287Z" style="fill: rgb(89.999390%,0.000000%,0.000000%);stroke: none;"></path>
  <path d="M44.000000 668.000000C44.000000 666.939087,43.578491 665.921753,42.828369 665.171631C42.078247 664.421509,41.060913 664.000000,40.000000 664.000000C38.939087 664.000000,37.921753 664.421509,37.171631 665.171631C36.421509 665.921753,36.000000 666.939087,36.000000 668.000000C36.000000 669.060913,36.421509 670.078247,37.171631 670.828369C37.921753 671.578491,38.939087 672.000000,40.000000 672.000000C41.060913 672.000000,42.078247 671.578491,42.828369 670.828369C43.578491 670.078247,44.000000 669.060913,44.000000 668.000000Z" style="stroke:rgb(39.999390%,39.999390%,39.999390%); stroke-width: 0.500000;stroke-linecap: round;stroke-linejoin: round;stroke-miterlimit: 10.000000;fill: none;"></path>
  <path d="M44.000000 668.000000C44.000000 666.939087,43.578491 665.921753,42.828369 665.171631C42.078247 664.421509,41.060913 664.000000,40.000000 664.000000C38.939087 664.000000,37.921753 664.421509,37.171631 665.171631C36.421509 665.921753,36.000000 666.939087,36.000000 668.000000C36.000000 669.060913,36.421509 670.078247,37.171631 670.828369C37.921753 671.578491,38.939087 672.000000,40.000000 672.000000C41.060913 672.000000,42.078247 671.578491,42.828369 670.828369C43.578491 670.078247,44.000000 669.060913,44.000000 668.000000Z" style="fill: rgb(100.000000%,100.000000%,0.000000%);stroke: none;"></path>
  <path d="M204.691086 583.950287L40.008652 499.883270" style="stroke:rgb(60.000610%,60.000610%,60.000610%); stroke-width: 1.800003;stroke-linecap: round;stroke-dasharray: 3.000000 3.000000 ;stroke-linejoin: round;stroke-miterlimit: 10.000000;fill: none;"></path>
  <path d="M184.517761 384.535492L40.008652 499.883270" style="stroke:rgb(60.000610%,60.000610%,60.000610%); stroke-width: 1.800003;stroke-linecap: round;stroke-dasharray: 3.000000 3.000000 ;stroke-linejoin: round;stroke-miterlimit: 10.000000;fill: none;"></path>
  <path d="M208.691086 583.950287C208.691086 582.889374,208.269577 581.872040,207.519455 581.121918C206.769333 580.371796,205.751999 579.950287,204.691086 579.950287C203.630173 579.950287,202.612839 580.371796,201.862717 581.121918C201.112595 581.872040,200.691086 582.889374,200.691086 583.950287C200.691086 585.011200,201.112595 586.028534,201.862717 586.778656C202.612839 587.528778,203.630173 587.950287,204.691086 587.950287C205.751999 587.950287,206.769333 587.528778,207.519455 586.778656C208.269577 586.028534,208.691086 585.011200,208.691086 583.950287Z" style="stroke:rgb(39.999390%,39.999390%,39.999390%); stroke-width: 0.500000;stroke-linecap: round;stroke-linejoin: round;stroke-miterlimit: 10.000000;fill: none;"></path>
  <path d="M208.691086 583.950287C208.691086 582.889374,208.269577 581.872040,207.519455 581.121918C206.769333 580.371796,205.751999 579.950287,204.691086 579.950287C203.630173 579.950287,202.612839 580.371796,201.862717 581.121918C201.112595 581.872040,200.691086 582.889374,200.691086 583.950287C200.691086 585.011200,201.112595 586.028534,201.862717 586.778656C202.612839 587.528778,203.630173 587.950287,204.691086 587.950287C205.751999 587.950287,206.769333 587.528778,207.519455 586.778656C208.269577 586.028534,208.691086 585.011200,208.691086 583.950287Z" style="fill: rgb(89.999390%,0.000000%,0.000000%);stroke: none;"></path>
  <path d="M188.517761 384.535492C188.517761 383.474579,188.096252 382.457245,187.346130 381.707123C186.596008 380.957001,185.578674 380.535492,184.517761 380.535492C183.456848 380.535492,182.439514 380.957001,181.689392 381.707123C180.939270 382.457245,180.517761 383.474579,180.517761 384.535492C180.517761 385.596405,180.939270 386.613739,181.689392 387.363861C182.439514 388.113983,183.456848 388.535492,184.517761 388.535492C185.578674 388.535492,186.596008 388.113983,187.346130 387.363861C188.096252 386.613739,188.517761 385.596405,188.517761 384.535492Z" style="stroke:rgb(39.999390%,39.999390%,39.999390%); stroke-width: 0.500000;stroke-linecap: round;stroke-linejoin: round;stroke-miterlimit: 10.000000;fill: none;"></path>
  <path d="M188.517761 384.535492C188.517761 383.474579,188.096252 382.457245,187.346130 381.707123C186.596008 380.957001,185.578674 380.535492,184.517761 380.535492C183.456848 380.535492,182.439514 380.957001,181.689392 381.707123C180.939270 382.457245,180.517761 383.474579,180.517761 384.535492C180.517761 385.596405,180.939270 386.613739,181.689392 387.363861C182.439514 388.113983,183.456848 388.535492,184.517761 388.535492C185.578674 388.535492,186.596008 388.113983,187.346130 387.363861C188.096252 386.613739,188.517761 385.596405,188.517761 384.535492Z" style="fill: rgb(89.999390%,0.000000%,0.000000%);stroke: none;"></path>
  <path d="M44.008652 499.883270C44.008652 498.822357,43.587143 497.805023,42.837021 497.054901C42.086899 496.304779,41.069565 495.883270,40.008652 495.883270C38.947739 495.883270,37.930405 496.304779,37.180283 497.054901C36.430161 497.805023,36.008652 498.822357,36.008652 499.883270C36.008652 500.944183,36.430161 501.961517,37.180283 502.711639C37.930405 503.461761,38.947739 503.883270,40.008652 503.883270C41.069565 503.883270,42.086899 503.461761,42.837021 502.711639C43.587143 501.961517,44.008652 500.944183,44.008652 499.883270Z" style="stroke:rgb(39.999390%,39.999390%,39.999390%); stroke-width: 0.500000;stroke-linecap: round;stroke-linejoin: round;stroke-miterlimit: 10.000000;fill: none;"></path>
  <path d="M44.008652 499.883270C44.008652 498.822357,43.587143 497.805023,42.837021 497.054901C42.086899 496.304779,41.069565 495.883270,40.008652 495.883270C38.947739 495.883270,37.930405 496.304779,37.180283 497.054901C36.430161 497.805023,36.008652 498.822357,36.008652 499.883270C36.008652 500.944183,36.430161 501.961517,37.180283 502.711639C37.930405 503.461761,38.947739 503.883270,40.008652 503.883270C41.069565 503.883270,42.086899 503.461761,42.837021 502.711639C43.587143 501.961517,44.008652 500.944183,44.008652 499.883270Z" style="fill: rgb(0.000000%,50.000000%,0.000000%);stroke: none;"></path>
  <path d="M488.164246 242.803238L606.929016 101.070984" style="stroke:rgb(60.000610%,60.000610%,60.000610%); stroke-width: 1.800003;stroke-linecap: round;stroke-dasharray: 3.000000 3.000000 ;stroke-linejoin: round;stroke-miterlimit: 10.000000;fill: none;"></path>
  <path d="M492.164246 242.803238C492.164246 241.742325,491.742737 240.724991,490.992615 239.974869C490.242493 239.224747,489.225159 238.803238,488.164246 238.803238C487.103333 238.803238,486.085999 239.224747,485.335876 239.974869C484.585754 240.724991,484.164246 241.742325,484.164246 242.803238C484.164246 243.864151,484.585754 244.881485,485.335876 245.631607C486.085999 246.381729,487.103333 246.803238,488.164246 246.803238C489.225159 246.803238,490.242493 246.381729,490.992615 245.631607C491.742737 244.881485,492.164246 243.864151,492.164246 242.803238Z" style="stroke:rgb(39.999390%,39.999390%,39.999390%); stroke-width: 0.500000;stroke-linecap: round;stroke-linejoin: round;stroke-miterlimit: 10.000000;fill: none;"></path>
  <path d="M492.164246 242.803238C492.164246 241.742325,491.742737 240.724991,490.992615 239.974869C490.242493 239.224747,489.225159 238.803238,488.164246 238.803238C487.103333 238.803238,486.085999 239.224747,485.335876 239.974869C484.585754 240.724991,484.164246 241.742325,484.164246 242.803238C484.164246 243.864151,484.585754 244.881485,485.335876 245.631607C486.085999 246.381729,487.103333 246.803238,488.164246 246.803238C489.225159 246.803238,490.242493 246.381729,490.992615 245.631607C491.742737 244.881485,492.164246 243.864151,492.164246 242.803238Z" style="fill: rgb(89.999390%,0.000000%,0.000000%);stroke: none;"></path>
  <path d="M610.929016 101.070984C610.929016 100.010071,610.507507 98.992737,609.757385 98.242615C609.007263 97.492493,607.989929 97.070984,606.929016 97.070984C605.868103 97.070984,604.850769 97.492493,604.100647 98.242615C603.350525 98.992737,602.929016 100.010071,602.929016 101.070984C602.929016 102.131897,603.350525 103.149231,604.100647 103.899353C604.850769 104.649475,605.868103 105.070984,606.929016 105.070984C607.989929 105.070984,609.007263 104.649475,609.757385 103.899353C610.507507 103.149231,610.929016 102.131897,610.929016 101.070984Z" style="stroke:rgb(39.999390%,39.999390%,39.999390%); stroke-width: 0.500000;stroke-linecap: round;stroke-linejoin: round;stroke-miterlimit: 10.000000;fill: none;"></path>
  <path d="M610.929016 101.070984C610.929016 100.010071,610.507507 98.992737,609.757385 98.242615C609.007263 97.492493,607.989929 97.070984,606.929016 97.070984C605.868103 97.070984,604.850769 97.492493,604.100647 98.242615C603.350525 98.992737,602.929016 100.010071,602.929016 101.070984C602.929016 102.131897,603.350525 103.149231,604.100647 103.899353C604.850769 104.649475,605.868103 105.070984,606.929016 105.070984C607.989929 105.070984,609.007263 104.649475,609.757385 103.899353C610.507507 103.149231,610.929016 102.131897,610.929016 101.070984Z" style="fill: rgb(100.000000%,100.000000%,0.000000%);stroke: none;"></path>
  <path d="M488.164246 242.803238L369.416763 384.518188" style="stroke:rgb(60.000610%,60.000610%,60.000610%); stroke-width: 1.800003;stroke-linecap: round;stroke-dasharray: 3.000000 3.000000 ;stroke-linejoin: round;stroke-miterlimit: 10.000000;fill: none;"></path>
  <path d="M184.517761 384.535492L369.416763 384.518188" style="stroke:rgb(60.000610%,60.000610%,60.000610%); stroke-width: 1.800003;stroke-linecap: round;stroke-dasharray: 3.000000 3.000000 ;stroke-linejoin: round;stroke-miterlimit: 10.000000;fill: none;"></path>
  <path d="M492.164246 242.803238C492.164246 241.742325,491.742737 240.724991,490.992615 239.974869C490.242493 239.224747,489.225159 238.803238,488.164246 238.803238C487.103333 238.803238,486.085999 239.224747,485.335876 239.974869C484.585754 240.724991,484.164246 241.742325,484.164246 242.803238C484.164246 243.864151,484.585754 244.881485,485.335876 245.631607C486.085999 246.381729,487.103333 246.803238,488.164246 246.803238C489.225159 246.803238,490.242493 246.381729,490.992615 245.631607C491.742737 244.881485,492.164246 243.864151,492.164246 242.803238Z" style="stroke:rgb(39.999390%,39.999390%,39.999390%); stroke-width: 0.500000;stroke-linecap: round;stroke-linejoin: round;stroke-miterlimit: 10.000000;fill: none;"></path>
  <path d="M492.164246 242.803238C492.164246 241.742325,491.742737 240.724991,490.992615 239.974869C490.242493 239.224747,489.225159 238.803238,488.164246 238.803238C487.103333 238.803238,486.085999 239.224747,485.335876 239.974869C484.585754 240.724991,484.164246 241.742325,484.164246 242.803238C484.164246 243.864151,484.585754 244.881485,485.335876 245.631607C486.085999 246.381729,487.103333 246.803238,488.164246 246.803238C489.225159 246.803238,490.242493 246.381729,490.992615 245.631607C491.742737 244.881485,492.164246 243.864151,492.164246 242.803238Z" style="fill: rgb(89.999390%,0.000000%,0.000000%);stroke: none;"></path>
  <path d="M188.517761 384.535492C188.517761 383.474579,188.096252 382.457245,187.346130 381.707123C186.596008 380.957001,185.578674 380.535492,184.517761 380.535492C183.456848 380.535492,182.439514 380.957001,181.689392 381.707123C180.939270 382.457245,180.517761 383.474579,180.517761 384.535492C180.517761 385.596405,180.939270 386.613739,181.689392 387.363861C182.439514 388.113983,183.456848 388.535492,184.517761 388.535492C185.578674 388.535492,186.596008 388.113983,187.346130 387.363861C188.096252 386.613739,188.517761 385.596405,188.517761 384.535492Z" style="stroke:rgb(39.999390%,39.999390%,39.999390%); stroke-width: 0.500000;stroke-linecap: round;stroke-linejoin: round;stroke-miterlimit: 10.000000;fill: none;"></path>
  <path d="M188.517761 384.535492C188.517761 383.474579,188.096252 382.457245,187.346130 381.707123C186.596008 380.957001,185.578674 380.535492,184.517761 380.535492C183.456848 380.535492,182.439514 380.957001,181.689392 381.707123C180.939270 382.457245,180.517761 383.474579,180.517761 384.535492C180.517761 385.596405,180.939270 386.613739,181.689392 387.363861C182.439514 388.113983,183.456848 388.535492,184.517761 388.535492C185.578674 388.535492,186.596008 388.113983,187.346130 387.363861C188.096252 386.613739,188.517761 385.596405,188.517761 384.535492Z" style="fill: rgb(89.999390%,0.000000%,0.000000%);stroke: none;"></path>
  <path d="M373.416763 384.518188C373.416763 383.457275,372.995255 382.439941,372.245132 381.689819C371.495010 380.939697,370.477676 380.518188,369.416763 380.518188C368.355850 380.518188,367.338516 380.939697,366.588394 381.689819C365.838272 382.439941,365.416763 383.457275,365.416763 384.518188C365.416763 385.579102,365.838272 386.596436,366.588394 387.346558C367.338516 388.096680,368.355850 388.518188,369.416763 388.518188C370.477676 388.518188,371.495010 388.096680,372.245132 387.346558C372.995255 386.596436,373.416763 385.579102,373.416763 384.518188Z" style="stroke:rgb(39.999390%,39.999390%,39.999390%); stroke-width: 0.500000;stroke-linecap: round;stroke-linejoin: round;stroke-miterlimit: 10.000000;fill: none;"></path>
  <path d="M373.416763 384.518188C373.416763 383.457275,372.995255 382.439941,372.245132 381.689819C371.495010 380.939697,370.477676 380.518188,369.416763 380.518188C368.355850 380.518188,367.338516 380.939697,366.588394 381.689819C365.838272 382.439941,365.416763 383.457275,365.416763 384.518188C365.416763 385.579102,365.838272 386.596436,366.588394 387.346558C367.338516 388.096680,368.355850 388.518188,369.416763 388.518188C370.477676 388.518188,371.495010 388.096680,372.245132 387.346558C372.995255 386.596436,373.416763 385.579102,373.416763 384.518188Z" style="fill: rgb(9.800720%,9.800720%,44.000244%);stroke: none;"></path>
  <path d="M488.164246 242.803238L369.399460 101.088287" style="stroke:rgb(60.000610%,60.000610%,60.000610%); stroke-width: 1.800003;stroke-linecap: round;stroke-dasharray: 3.000000 3.000000 ;stroke-linejoin: round;stroke-miterlimit: 10.000000;fill: none;"></path>
  <path d="M204.691086 185.120697L369.399460 101.088287" style="stroke:rgb(60.000610%,60.000610%,60.000610%); stroke-width: 1.800003;stroke-linecap: round;stroke-dasharray: 3.000000 3.000000 ;stroke-linejoin: round;stroke-miterlimit: 10.000000;fill: none;"></path>
  <path d="M492.164246 242.803238C492.164246 241.742325,491.742737 240.724991,490.992615 239.974869C490.242493 239.224747,489.225159 238.803238,488.164246 238.803238C487.103333 238.803238,486.085999 239.224747,485.335876 239.974869C484.585754 240.724991,484.164246 241.742325,484.164246 242.803238C484.164246 243.864151,484.585754 244.881485,485.335876 245.631607C486.085999 246.381729,487.103333 246.803238,488.164246 246.803238C489.225159 246.803238,490.242493 246.381729,490.992615 245.631607C491.742737 244.881485,492.164246 243.864151,492.164246 242.803238Z" style="stroke:rgb(39.999390%,39.999390%,39.999390%); stroke-width: 0.500000;stroke-linecap: round;stroke-linejoin: round;stroke-miterlimit: 10.000000;fill: none;"></path>
  <path d="M492.164246 242.803238C492.164246 241.742325,491.742737 240.724991,490.992615 239.974869C490.242493 239.224747,489.225159 238.803238,488.164246 238.803238C487.103333 238.803238,486.085999 239.224747,485.335876 239.974869C484.585754 240.724991,484.164246 241.742325,484.164246 242.803238C484.164246 243.864151,484.585754 244.881485,485.335876 245.631607C486.085999 246.381729,487.103333 246.803238,488.164246 246.803238C489.225159 246.803238,490.242493 246.381729,490.992615 245.631607C491.742737 244.881485,492.164246 243.864151,492.164246 242.803238Z" style="fill: rgb(89.999390%,0.000000%,0.000000%);stroke: none;"></path>
  <path d="M208.691086 185.120697C208.691086 184.059784,208.269577 183.042450,207.519455 182.292328C206.769333 181.542206,205.751999 181.120697,204.691086 181.120697C203.630173 181.120697,202.612839 181.542206,201.862717 182.292328C201.112595 183.042450,200.691086 184.059784,200.691086 185.120697C200.691086 186.181610,201.112595 187.198944,201.862717 187.949066C202.612839 188.699188,203.630173 189.120697,204.691086 189.120697C205.751999 189.120697,206.769333 188.699188,207.519455 187.949066C208.269577 187.198944,208.691086 186.181610,208.691086 185.120697Z" style="stroke:rgb(39.999390%,39.999390%,39.999390%); stroke-width: 0.500000;stroke-linecap: round;stroke-linejoin: round;stroke-miterlimit: 10.000000;fill: none;"></path>
  <path d="M208.691086 185.120697C208.691086 184.059784,208.269577 183.042450,207.519455 182.292328C206.769333 181.542206,205.751999 181.120697,204.691086 181.120697C203.630173 181.120697,202.612839 181.542206,201.862717 182.292328C201.112595 183.042450,200.691086 184.059784,200.691086 185.120697C200.691086 186.181610,201.112595 187.198944,201.862717 187.949066C202.612839 188.699188,203.630173 189.120697,204.691086 189.120697C205.751999 189.120697,206.769333 188.699188,207.519455 187.949066C208.269577 187.198944,208.691086 186.181610,208.691086 185.120697Z" style="fill: rgb(89.999390%,0.000000%,0.000000%);stroke: none;"></path>
  <path d="M373.399460 101.088287C373.399460 100.027374,372.977951 99.010040,372.227829 98.259918C371.477707 97.509796,370.460373 97.088287,369.399460 97.088287C368.338547 97.088287,367.321213 97.509796,366.571091 98.259918C365.820969 99.010040,365.399460 100.027374,365.399460 101.088287C365.399460 102.149200,365.820969 103.166534,366.571091 103.916656C367.321213 104.666779,368.338547 105.088287,369.399460 105.088287C370.460373 105.088287,371.477707 104.666779,372.227829 103.916656C372.977951 103.166534,373.399460 102.149200,373.399460 101.088287Z" style="stroke:rgb(39.999390%,39.999390%,39.999390%); stroke-width: 0.500000;stroke-linecap: round;stroke-linejoin: round;stroke-miterlimit: 10.000000;fill: none;"></path>
  <path d="M373.399460 101.088287C373.399460 100.027374,372.977951 99.010040,372.227829 98.259918C371.477707 97.509796,370.460373 97.088287,369.399460 97.088287C368.338547 97.088287,367.321213 97.509796,366.571091 98.259918C365.820969 99.010040,365.399460 100.027374,365.399460 101.088287C365.399460 102.149200,365.820969 103.166534,366.571091 103.916656C367.321213 104.666779,368.338547 105.088287,369.399460 105.088287C370.460373 105.088287,371.477707 104.666779,372.227829 103.916656C372.977951 103.166534,373.399460 102.149200,373.399460 101.088287Z" style="fill: rgb(0.000000%,50.000000%,0.000000%);stroke: none;"></path>
  <path d="M184.517761 384.535492L40.008652 269.187714" style="stroke:rgb(60.000610%,60.000610%,60.000610%); stroke-width: 1.800003;stroke-linecap: round;stroke-dasharray: 3.000000 3.000000 ;stroke-linejoin: round;stroke-miterlimit: 10.000000;fill: none;"></path>
  <path d="M204.691086 185.120697L40.008652 269.187714" style="stroke:rgb(60.000610%,60.000610%,60.000610%); stroke-width: 1.800003;stroke-linecap: round;stroke-dasharray: 3.000000 3.000000 ;stroke-linejoin: round;stroke-miterlimit: 10.000000;fill: none;"></path>
  <path d="M188.517761 384.535492C188.517761 383.474579,188.096252 382.457245,187.346130 381.707123C186.596008 380.957001,185.578674 380.535492,184.517761 380.535492C183.456848 380.535492,182.439514 380.957001,181.689392 381.707123C180.939270 382.457245,180.517761 383.474579,180.517761 384.535492C180.517761 385.596405,180.939270 386.613739,181.689392 387.363861C182.439514 388.113983,183.456848 388.535492,184.517761 388.535492C185.578674 388.535492,186.596008 388.113983,187.346130 387.363861C188.096252 386.613739,188.517761 385.596405,188.517761 384.535492Z" style="stroke:rgb(39.999390%,39.999390%,39.999390%); stroke-width: 0.500000;stroke-linecap: round;stroke-linejoin: round;stroke-miterlimit: 10.000000;fill: none;"></path>
  <path d="M188.517761 384.535492C188.517761 383.474579,188.096252 382.457245,187.346130 381.707123C186.596008 380.957001,185.578674 380.535492,184.517761 380.535492C183.456848 380.535492,182.439514 380.957001,181.689392 381.707123C180.939270 382.457245,180.517761 383.474579,180.517761 384.535492C180.517761 385.596405,180.939270 386.613739,181.689392 387.363861C182.439514 388.113983,183.456848 388.535492,184.517761 388.535492C185.578674 388.535492,186.596008 388.113983,187.346130 387.363861C188.096252 386.613739,188.517761 385.596405,188.517761 384.535492Z" style="fill: rgb(89.999390%,0.000000%,0.000000%);stroke: none;"></path>
  <path d="M208.691086 185.120697C208.691086 184.059784,208.269577 183.042450,207.519455 182.292328C206.769333 181.542206,205.751999 181.120697,204.691086 181.120697C203.630173 181.120697,202.612839 181.542206,201.862717 182.292328C201.112595 183.042450,200.691086 184.059784,200.691086 185.120697C200.691086 186.181610,201.112595 187.198944,201.862717 187.949066C202.612839 188.699188,203.630173 189.120697,204.691086 189.120697C205.751999 189.120697,206.769333 188.699188,207.519455 187.949066C208.269577 187.198944,208.691086 186.181610,208.691086 185.120697Z" style="stroke:rgb(39.999390%,39.999390%,39.999390%); stroke-width: 0.500000;stroke-linecap: round;stroke-linejoin: round;stroke-miterlimit: 10.000000;fill: none;"></path>
  <path d="M208.691086 185.120697C208.691086 184.059784,208.269577 183.042450,207.519455 182.292328C206.769333 181.542206,205.751999 181.120697,204.691086 181.120697C203.630173 181.120697,202.612839 181.542206,201.862717 182.292328C201.112595 183.042450,200.691086 184.059784,200.691086 185.120697C200.691086 186.181610,201.112595 187.198944,201.862717 187.949066C202.612839 188.699188,203.630173 189.120697,204.691086 189.120697C205.751999 189.120697,206.769333 188.699188,207.519455 187.949066C208.269577 187.198944,208.691086 186.181610,208.691086 185.120697Z" style="fill: rgb(89.999390%,0.000000%,0.000000%);stroke: none;"></path>
  <path d="M44.008652 269.187714C44.008652 268.126801,43.587143 267.109467,42.837021 266.359344C42.086899 265.609222,41.069565 265.187714,40.008652 265.187714C38.947739 265.187714,37.930405 265.609222,37.180283 266.359344C36.430161 267.109467,36.008652 268.126801,36.008652 269.187714C36.008652 270.248627,36.430161 271.265961,37.180283 272.016083C37.930405 272.766205,38.947739 273.187714,40.008652 273.187714C41.069565 273.187714,42.086899 272.766205,42.837021 272.016083C43.587143 271.265961,44.008652 270.248627,44.008652 269.187714Z" style="stroke:rgb(39.999390%,39.999390%,39.999390%); stroke-width: 0.500000;stroke-linecap: round;stroke-linejoin: round;stroke-miterlimit: 10.000000;fill: none;"></path>
  <path d="M44.008652 269.187714C44.008652 268.126801,43.587143 267.109467,42.837021 266.359344C42.086899 265.609222,41.069565 265.187714,40.008652 265.187714C38.947739 265.187714,37.930405 265.609222,37.180283 266.359344C36.430161 267.109467,36.008652 268.126801,36.008652 269.187714C36.008652 270.248627,36.430161 271.265961,37.180283 272.016083C37.930405 272.766205,38.947739 273.187714,40.008652 273.187714C41.069565 273.187714,42.086899 272.766205,42.837021 272.016083C43.587143 271.265961,44.008652 270.248627,44.008652 269.187714Z" style="fill: rgb(0.000000%,50.000000%,0.000000%);stroke: none;"></path>
  <path d="M204.691086 185.120697L40.000000 101.070984" style="stroke:rgb(60.000610%,60.000610%,60.000610%); stroke-width: 1.800003;stroke-linecap: round;stroke-dasharray: 3.000000 3.000000 ;stroke-linejoin: round;stroke-miterlimit: 10.000000;fill: none;"></path>
  <path d="M208.691086 185.120697C208.691086 184.059784,208.269577 183.042450,207.519455 182.292328C206.769333 181.542206,205.751999 181.120697,204.691086 181.120697C203.630173 181.120697,202.612839 181.542206,201.862717 182.292328C201.112595 183.042450,200.691086 184.059784,200.691086 185.120697C200.691086 186.181610,201.112595 187.198944,201.862717 187.949066C202.612839 188.699188,203.630173 189.120697,204.691086 189.120697C205.751999 189.120697,206.769333 188.699188,207.519455 187.949066C208.269577 187.198944,208.691086 186.181610,208.691086 185.120697Z" style="stroke:rgb(39.999390%,39.999390%,39.999390%); stroke-width: 0.500000;stroke-linecap: round;stroke-linejoin: round;stroke-miterlimit: 10.000000;fill: none;"></path>
  <path d="M208.691086 185.120697C208.691086 184.059784,208.269577 183.042450,207.519455 182.292328C206.769333 181.542206,205.751999 181.120697,204.691086 181.120697C203.630173 181.120697,202.612839 181.542206,201.862717 182.292328C201.112595 183.042450,200.691086 184.059784,200.691086 185.120697C200.691086 186.181610,201.112595 187.198944,201.862717 187.949066C202.612839 188.699188,203.630173 189.120697,204.691086 189.120697C205.751999 189.120697,206.769333 188.699188,207.519455 187.949066C208.269577 187.198944,208.691086 186.181610,208.691086 185.120697Z" style="fill: rgb(89.999390%,0.000000%,0.000000%);stroke: none;"></path>
  <path d="M44.000000 101.070984C44.000000 100.010071,43.578491 98.992737,42.828369 98.242615C42.078247 97.492493,41.060913 97.070984,40.000000 97.070984C38.939087 97.070984,37.921753 97.492493,37.171631 98.242615C36.421509 98.992737,36.000000 100.010071,36.000000 101.070984C36.000000 102.131897,36.421509 103.149231,37.171631 103.899353C37.921753 104.649475,38.939087 105.070984,40.000000 105.070984C41.060913 105.070984,42.078247 104.649475,42.828369 103.899353C43.578491 103.149231,44.000000 102.131897,44.000000 101.070984Z" style="stroke:rgb(39.999390%,39.999390%,39.999390%); stroke-width: 0.500000;stroke-linecap: round;stroke-linejoin: round;stroke-miterlimit: 10.000000;fill: none;"></path>
  <path d="M44.000000 101.070984C44.000000 100.010071,43.578491 98.992737,42.828369 98.242615C42.078247 97.492493,41.060913 97.070984,40.000000 97.070984C38.939087 97.070984,37.921753 97.492493,37.171631 98.242615C36.421509 98.992737,36.000000 100.010071,36.000000 101.070984C36.000000 102.131897,36.421509 103.149231,37.171631 103.899353C37.921753 104.649475,38.939087 105.070984,40.000000 105.070984C41.060913 105.070984,42.078247 104.649475,42.828369 103.899353C43.578491 103.149231,44.000000 102.131897,44.000000 101.070984Z" style="fill: rgb(100.000000%,100.000000%,0.000000%);stroke: none;"></path>
</svg>
