<?xml version="1.0"?>
<!-- Created by MetaPost 2.00 on 2022.03.31:1000 -->
<svg version="1.1" xmlns="http://www.w3.org/2000/svg" xmlns:xlink="http://www.w3.org/1999/xlink" width="719.730652" height="571.653061" viewBox="0 0 719.730652 571.653061">
<!-- Original BoundingBox: -76.400818 -76.426758 643.329834 495.226303 -->
  <path d="M76.000000 495.000000L642.929016 495.000000L359.464508 4.023697L76.000000 495.000000Z" style="fill: rgb(100.000000%,100.000000%,100.000000%);stroke: none;"></path>
  <path d="M76.000000 495.000000L642.929016 495.000000" style="stroke:rgb(0.000000%,0.000000%,0.000000%); stroke-width: 1.000000;stroke-linecap: round;stroke-linejoin: round;stroke-miterlimit: 10.000000;fill: none;"></path>
  <path d="M642.929016 495.000000L359.464508 4.023697" style="stroke:rgb(0.000000%,0.000000%,0.000000%); stroke-width: 1.000000;stroke-linecap: round;stroke-linejoin: round;stroke-miterlimit: 10.000000;fill: none;"></path>
  <path d="M359.464508 4.023697L76.000000 495.000000" style="stroke:rgb(0.000000%,0.000000%,0.000000%); stroke-width: 1.000000;stroke-linecap: round;stroke-linejoin: round;stroke-miterlimit: 10.000000;fill: none;"></path>
  <path d="M718.829834 363.458206C718.829834 323.173187,702.824295 284.542938,674.340637 256.059280C645.856979 227.575623,607.226730 211.570084,566.941711 211.570084C526.656693 211.570084,488.026443 227.575623,459.542786 256.059280C431.059128 284.542938,415.053589 323.173187,415.053589 363.458206C415.053589 403.743225,431.059128 442.373474,459.542786 470.857132C488.026443 499.340790,526.656693 515.346329,566.941711 515.346329C607.226730 515.346329,645.856979 499.340790,674.340637 470.857132C702.824295 442.373474,718.829834 403.743225,718.829834 363.458206Z" style="stroke:rgb(25.500488%,41.000366%,88.400269%); stroke-width: 1.000000;stroke-linecap: round;stroke-linejoin: round;stroke-miterlimit: 10.000000;fill: none;"></path>
  <path d="M511.352631 155.955063C511.352631 115.670044,495.347092 77.039795,466.863434 48.556137C438.379776 20.072479,399.749527 4.066940,359.464508 4.066940C319.179489 4.066940,280.549240 20.072479,252.065582 48.556137C223.581924 77.039795,207.576385 115.670044,207.576385 155.955063C207.576385 196.240082,223.581924 234.870331,252.065582 263.353989C280.549240 291.837646,319.179489 307.843185,359.464508 307.843185C399.749527 307.843185,438.379776 291.837646,466.863434 263.353989C495.347092 234.870331,511.352631 196.240082,511.352631 155.955063Z" style="stroke:rgb(25.500488%,41.000366%,88.400269%); stroke-width: 1.000000;stroke-linecap: round;stroke-linejoin: round;stroke-miterlimit: 10.000000;fill: none;"></path>
  <path d="M511.352631 419.038635C511.352631 378.753616,495.347092 340.123367,466.863434 311.639709C438.379776 283.156052,399.749527 267.150513,359.464508 267.150513C319.179489 267.150513,280.549240 283.156052,252.065582 311.639709C223.581924 340.123367,207.576385 378.753616,207.576385 419.038635C207.576385 459.323654,223.581924 497.953903,252.065582 526.437561C280.549240 554.921219,319.179489 570.926758,359.464508 570.926758C399.749527 570.926758,438.379776 554.921219,466.863434 526.437561C495.347092 497.953903,511.352631 459.323654,511.352631 419.038635Z" style="stroke:rgb(25.500488%,41.000366%,88.400269%); stroke-width: 1.000000;stroke-linecap: round;stroke-linejoin: round;stroke-miterlimit: 10.000000;fill: none;"></path>
  <path d="M303.875427 363.458206C303.875427 323.173187,287.869888 284.542938,259.386230 256.059280C230.902573 227.575623,192.272324 211.570084,151.987305 211.570084C111.702286 211.570084,73.072037 227.575623,44.588379 256.059280C16.104721 284.542938,0.099182 323.173187,0.099182 363.458206C0.099182 403.743225,16.104721 442.373474,44.588379 470.857132C73.072037 499.340790,111.702286 515.346329,151.987305 515.346329C192.272324 515.346329,230.902573 499.340790,259.386230 470.857132C287.869888 442.373474,303.875427 403.743225,303.875427 363.458206Z" style="stroke:rgb(25.500488%,41.000366%,88.400269%); stroke-width: 1.000000;stroke-linecap: round;stroke-linejoin: round;stroke-miterlimit: 10.000000;fill: none;"></path>
  <path d="M566.941711 363.458206L642.929016 495.000000" style="stroke:rgb(60.000610%,60.000610%,60.000610%); stroke-width: 1.800003;stroke-linecap: round;stroke-dasharray: 3.000000 3.000000 ;stroke-linejoin: round;stroke-miterlimit: 10.000000;fill: none;"></path>
  <path d="M570.941711 363.458206C570.941711 362.397293,570.520203 361.379959,569.770081 360.629837C569.019958 359.879715,568.002625 359.458206,566.941711 359.458206C565.880798 359.458206,564.863464 359.879715,564.113342 360.629837C563.363220 361.379959,562.941711 362.397293,562.941711 363.458206C562.941711 364.519119,563.363220 365.536453,564.113342 366.286575C564.863464 367.036697,565.880798 367.458206,566.941711 367.458206C568.002625 367.458206,569.019958 367.036697,569.770081 366.286575C570.520203 365.536453,570.941711 364.519119,570.941711 363.458206Z" style="stroke:rgb(39.999390%,39.999390%,39.999390%); stroke-width: 0.500000;stroke-linecap: round;stroke-linejoin: round;stroke-miterlimit: 10.000000;fill: none;"></path>
  <path d="M570.941711 363.458206C570.941711 362.397293,570.520203 361.379959,569.770081 360.629837C569.019958 359.879715,568.002625 359.458206,566.941711 359.458206C565.880798 359.458206,564.863464 359.879715,564.113342 360.629837C563.363220 361.379959,562.941711 362.397293,562.941711 363.458206C562.941711 364.519119,563.363220 365.536453,564.113342 366.286575C564.863464 367.036697,565.880798 367.458206,566.941711 367.458206C568.002625 367.458206,569.019958 367.036697,569.770081 366.286575C570.520203 365.536453,570.941711 364.519119,570.941711 363.458206Z" style="fill: rgb(89.999390%,0.000000%,0.000000%);stroke: none;"></path>
  <path d="M646.929016 495.000000C646.929016 493.939087,646.507507 492.921753,645.757385 492.171631C645.007263 491.421509,643.989929 491.000000,642.929016 491.000000C641.868103 491.000000,640.850769 491.421509,640.100647 492.171631C639.350525 492.921753,638.929016 493.939087,638.929016 495.000000C638.929016 496.060913,639.350525 497.078247,640.100647 497.828369C640.850769 498.578491,641.868103 499.000000,642.929016 499.000000C643.989929 499.000000,645.007263 498.578491,645.757385 497.828369C646.507507 497.078247,646.929016 496.060913,646.929016 495.000000Z" style="stroke:rgb(39.999390%,39.999390%,39.999390%); stroke-width: 0.500000;stroke-linecap: round;stroke-linejoin: round;stroke-miterlimit: 10.000000;fill: none;"></path>
  <path d="M646.929016 495.000000C646.929016 493.939087,646.507507 492.921753,645.757385 492.171631C645.007263 491.421509,643.989929 491.000000,642.929016 491.000000C641.868103 491.000000,640.850769 491.421509,640.100647 492.171631C639.350525 492.921753,638.929016 493.939087,638.929016 495.000000C638.929016 496.060913,639.350525 497.078247,640.100647 497.828369C640.850769 498.578491,641.868103 499.000000,642.929016 499.000000C643.989929 499.000000,645.007263 498.578491,645.757385 497.828369C646.507507 497.078247,646.929016 496.060913,646.929016 495.000000Z" style="fill: rgb(100.000000%,100.000000%,0.000000%);stroke: none;"></path>
  <path d="M566.941711 363.458206L435.408569 287.496857" style="stroke:rgb(60.000610%,60.000610%,60.000610%); stroke-width: 1.800003;stroke-linecap: round;stroke-dasharray: 3.000000 3.000000 ;stroke-linejoin: round;stroke-miterlimit: 10.000000;fill: none;"></path>
  <path d="M359.464508 155.955063L435.408569 287.496857" style="stroke:rgb(60.000610%,60.000610%,60.000610%); stroke-width: 1.800003;stroke-linecap: round;stroke-dasharray: 3.000000 3.000000 ;stroke-linejoin: round;stroke-miterlimit: 10.000000;fill: none;"></path>
  <path d="M570.941711 363.458206C570.941711 362.397293,570.520203 361.379959,569.770081 360.629837C569.019958 359.879715,568.002625 359.458206,566.941711 359.458206C565.880798 359.458206,564.863464 359.879715,564.113342 360.629837C563.363220 361.379959,562.941711 362.397293,562.941711 363.458206C562.941711 364.519119,563.363220 365.536453,564.113342 366.286575C564.863464 367.036697,565.880798 367.458206,566.941711 367.458206C568.002625 367.458206,569.019958 367.036697,569.770081 366.286575C570.520203 365.536453,570.941711 364.519119,570.941711 363.458206Z" style="stroke:rgb(39.999390%,39.999390%,39.999390%); stroke-width: 0.500000;stroke-linecap: round;stroke-linejoin: round;stroke-miterlimit: 10.000000;fill: none;"></path>
  <path d="M570.941711 363.458206C570.941711 362.397293,570.520203 361.379959,569.770081 360.629837C569.019958 359.879715,568.002625 359.458206,566.941711 359.458206C565.880798 359.458206,564.863464 359.879715,564.113342 360.629837C563.363220 361.379959,562.941711 362.397293,562.941711 363.458206C562.941711 364.519119,563.363220 365.536453,564.113342 366.286575C564.863464 367.036697,565.880798 367.458206,566.941711 367.458206C568.002625 367.458206,569.019958 367.036697,569.770081 366.286575C570.520203 365.536453,570.941711 364.519119,570.941711 363.458206Z" style="fill: rgb(89.999390%,0.000000%,0.000000%);stroke: none;"></path>
  <path d="M363.464508 155.955063C363.464508 154.894150,363.042999 153.876816,362.292877 153.126694C361.542755 152.376572,360.525421 151.955063,359.464508 151.955063C358.403595 151.955063,357.386261 152.376572,356.636139 153.126694C355.886017 153.876816,355.464508 154.894150,355.464508 155.955063C355.464508 157.015976,355.886017 158.033310,356.636139 158.783432C357.386261 159.533554,358.403595 159.955063,359.464508 159.955063C360.525421 159.955063,361.542755 159.533554,362.292877 158.783432C363.042999 158.033310,363.464508 157.015976,363.464508 155.955063Z" style="stroke:rgb(39.999390%,39.999390%,39.999390%); stroke-width: 0.500000;stroke-linecap: round;stroke-linejoin: round;stroke-miterlimit: 10.000000;fill: none;"></path>
  <path d="M363.464508 155.955063C363.464508 154.894150,363.042999 153.876816,362.292877 153.126694C361.542755 152.376572,360.525421 151.955063,359.464508 151.955063C358.403595 151.955063,357.386261 152.376572,356.636139 153.126694C355.886017 153.876816,355.464508 154.894150,355.464508 155.955063C355.464508 157.015976,355.886017 158.033310,356.636139 158.783432C357.386261 159.533554,358.403595 159.955063,359.464508 159.955063C360.525421 159.955063,361.542755 159.533554,362.292877 158.783432C363.042999 158.033310,363.464508 157.015976,363.464508 155.955063Z" style="fill: rgb(89.999390%,0.000000%,0.000000%);stroke: none;"></path>
  <path d="M439.408569 287.496857C439.408569 286.435944,438.987061 285.418610,438.236938 284.668488C437.486816 283.918365,436.469482 283.496857,435.408569 283.496857C434.347656 283.496857,433.330322 283.918365,432.580200 284.668488C431.830078 285.418610,431.408569 286.435944,431.408569 287.496857C431.408569 288.557770,431.830078 289.575104,432.580200 290.325226C433.330322 291.075348,434.347656 291.496857,435.408569 291.496857C436.469482 291.496857,437.486816 291.075348,438.236938 290.325226C438.987061 289.575104,439.408569 288.557770,439.408569 287.496857Z" style="stroke:rgb(39.999390%,39.999390%,39.999390%); stroke-width: 0.500000;stroke-linecap: round;stroke-linejoin: round;stroke-miterlimit: 10.000000;fill: none;"></path>
  <path d="M439.408569 287.496857C439.408569 286.435944,438.987061 285.418610,438.236938 284.668488C437.486816 283.918365,436.469482 283.496857,435.408569 283.496857C434.347656 283.496857,433.330322 283.918365,432.580200 284.668488C431.830078 285.418610,431.408569 286.435944,431.408569 287.496857C431.408569 288.557770,431.830078 289.575104,432.580200 290.325226C433.330322 291.075348,434.347656 291.496857,435.408569 291.496857C436.469482 291.496857,437.486816 291.075348,438.236938 290.325226C438.987061 289.575104,439.408569 288.557770,439.408569 287.496857Z" style="fill: rgb(9.800720%,9.800720%,44.000244%);stroke: none;"></path>
  <path d="M566.941711 363.458206L490.997650 231.916428" style="stroke:rgb(60.000610%,60.000610%,60.000610%); stroke-width: 1.800003;stroke-linecap: round;stroke-dasharray: 3.000000 3.000000 ;stroke-linejoin: round;stroke-miterlimit: 10.000000;fill: none;"></path>
  <path d="M359.464508 155.955063L490.997650 231.916428" style="stroke:rgb(60.000610%,60.000610%,60.000610%); stroke-width: 1.800003;stroke-linecap: round;stroke-dasharray: 3.000000 3.000000 ;stroke-linejoin: round;stroke-miterlimit: 10.000000;fill: none;"></path>
  <path d="M570.941711 363.458206C570.941711 362.397293,570.520203 361.379959,569.770081 360.629837C569.019958 359.879715,568.002625 359.458206,566.941711 359.458206C565.880798 359.458206,564.863464 359.879715,564.113342 360.629837C563.363220 361.379959,562.941711 362.397293,562.941711 363.458206C562.941711 364.519119,563.363220 365.536453,564.113342 366.286575C564.863464 367.036697,565.880798 367.458206,566.941711 367.458206C568.002625 367.458206,569.019958 367.036697,569.770081 366.286575C570.520203 365.536453,570.941711 364.519119,570.941711 363.458206Z" style="stroke:rgb(39.999390%,39.999390%,39.999390%); stroke-width: 0.500000;stroke-linecap: round;stroke-linejoin: round;stroke-miterlimit: 10.000000;fill: none;"></path>
  <path d="M570.941711 363.458206C570.941711 362.397293,570.520203 361.379959,569.770081 360.629837C569.019958 359.879715,568.002625 359.458206,566.941711 359.458206C565.880798 359.458206,564.863464 359.879715,564.113342 360.629837C563.363220 361.379959,562.941711 362.397293,562.941711 363.458206C562.941711 364.519119,563.363220 365.536453,564.113342 366.286575C564.863464 367.036697,565.880798 367.458206,566.941711 367.458206C568.002625 367.458206,569.019958 367.036697,569.770081 366.286575C570.520203 365.536453,570.941711 364.519119,570.941711 363.458206Z" style="fill: rgb(89.999390%,0.000000%,0.000000%);stroke: none;"></path>
  <path d="M363.464508 155.955063C363.464508 154.894150,363.042999 153.876816,362.292877 153.126694C361.542755 152.376572,360.525421 151.955063,359.464508 151.955063C358.403595 151.955063,357.386261 152.376572,356.636139 153.126694C355.886017 153.876816,355.464508 154.894150,355.464508 155.955063C355.464508 157.015976,355.886017 158.033310,356.636139 158.783432C357.386261 159.533554,358.403595 159.955063,359.464508 159.955063C360.525421 159.955063,361.542755 159.533554,362.292877 158.783432C363.042999 158.033310,363.464508 157.015976,363.464508 155.955063Z" style="stroke:rgb(39.999390%,39.999390%,39.999390%); stroke-width: 0.500000;stroke-linecap: round;stroke-linejoin: round;stroke-miterlimit: 10.000000;fill: none;"></path>
  <path d="M363.464508 155.955063C363.464508 154.894150,363.042999 153.876816,362.292877 153.126694C361.542755 152.376572,360.525421 151.955063,359.464508 151.955063C358.403595 151.955063,357.386261 152.376572,356.636139 153.126694C355.886017 153.876816,355.464508 154.894150,355.464508 155.955063C355.464508 157.015976,355.886017 158.033310,356.636139 158.783432C357.386261 159.533554,358.403595 159.955063,359.464508 159.955063C360.525421 159.955063,361.542755 159.533554,362.292877 158.783432C363.042999 158.033310,363.464508 157.015976,363.464508 155.955063Z" style="fill: rgb(89.999390%,0.000000%,0.000000%);stroke: none;"></path>
  <path d="M494.997650 231.916428C494.997650 230.855515,494.576141 229.838181,493.826019 229.088058C493.075897 228.337936,492.058563 227.916428,490.997650 227.916428C489.936737 227.916428,488.919403 228.337936,488.169281 229.088058C487.419159 229.838181,486.997650 230.855515,486.997650 231.916428C486.997650 232.977341,487.419159 233.994675,488.169281 234.744797C488.919403 235.494919,489.936737 235.916428,490.997650 235.916428C492.058563 235.916428,493.075897 235.494919,493.826019 234.744797C494.576141 233.994675,494.997650 232.977341,494.997650 231.916428Z" style="stroke:rgb(39.999390%,39.999390%,39.999390%); stroke-width: 0.500000;stroke-linecap: round;stroke-linejoin: round;stroke-miterlimit: 10.000000;fill: none;"></path>
  <path d="M494.997650 231.916428C494.997650 230.855515,494.576141 229.838181,493.826019 229.088058C493.075897 228.337936,492.058563 227.916428,490.997650 227.916428C489.936737 227.916428,488.919403 228.337936,488.169281 229.088058C487.419159 229.838181,486.997650 230.855515,486.997650 231.916428C486.997650 232.977341,487.419159 233.994675,488.169281 234.744797C488.919403 235.494919,489.936737 235.916428,490.997650 235.916428C492.058563 235.916428,493.075897 235.494919,493.826019 234.744797C494.576141 233.994675,494.997650 232.977341,494.997650 231.916428Z" style="fill: rgb(0.000000%,50.000000%,0.000000%);stroke: none;"></path>
  <path d="M566.941711 363.458206L490.997650 495.000000" style="stroke:rgb(60.000610%,60.000610%,60.000610%); stroke-width: 1.800003;stroke-linecap: round;stroke-dasharray: 3.000000 3.000000 ;stroke-linejoin: round;stroke-miterlimit: 10.000000;fill: none;"></path>
  <path d="M359.464508 419.038635L490.997650 495.000000" style="stroke:rgb(60.000610%,60.000610%,60.000610%); stroke-width: 1.800003;stroke-linecap: round;stroke-dasharray: 3.000000 3.000000 ;stroke-linejoin: round;stroke-miterlimit: 10.000000;fill: none;"></path>
  <path d="M570.941711 363.458206C570.941711 362.397293,570.520203 361.379959,569.770081 360.629837C569.019958 359.879715,568.002625 359.458206,566.941711 359.458206C565.880798 359.458206,564.863464 359.879715,564.113342 360.629837C563.363220 361.379959,562.941711 362.397293,562.941711 363.458206C562.941711 364.519119,563.363220 365.536453,564.113342 366.286575C564.863464 367.036697,565.880798 367.458206,566.941711 367.458206C568.002625 367.458206,569.019958 367.036697,569.770081 366.286575C570.520203 365.536453,570.941711 364.519119,570.941711 363.458206Z" style="stroke:rgb(39.999390%,39.999390%,39.999390%); stroke-width: 0.500000;stroke-linecap: round;stroke-linejoin: round;stroke-miterlimit: 10.000000;fill: none;"></path>
  <path d="M570.941711 363.458206C570.941711 362.397293,570.520203 361.379959,569.770081 360.629837C569.019958 359.879715,568.002625 359.458206,566.941711 359.458206C565.880798 359.458206,564.863464 359.879715,564.113342 360.629837C563.363220 361.379959,562.941711 362.397293,562.941711 363.458206C562.941711 364.519119,563.363220 365.536453,564.113342 366.286575C564.863464 367.036697,565.880798 367.458206,566.941711 367.458206C568.002625 367.458206,569.019958 367.036697,569.770081 366.286575C570.520203 365.536453,570.941711 364.519119,570.941711 363.458206Z" style="fill: rgb(89.999390%,0.000000%,0.000000%);stroke: none;"></path>
  <path d="M363.464508 419.038635C363.464508 417.977722,363.042999 416.960388,362.292877 416.210266C361.542755 415.460144,360.525421 415.038635,359.464508 415.038635C358.403595 415.038635,357.386261 415.460144,356.636139 416.210266C355.886017 416.960388,355.464508 417.977722,355.464508 419.038635C355.464508 420.099548,355.886017 421.116882,356.636139 421.867004C357.386261 422.617126,358.403595 423.038635,359.464508 423.038635C360.525421 423.038635,361.542755 422.617126,362.292877 421.867004C363.042999 421.116882,363.464508 420.099548,363.464508 419.038635Z" style="stroke:rgb(39.999390%,39.999390%,39.999390%); stroke-width: 0.500000;stroke-linecap: round;stroke-linejoin: round;stroke-miterlimit: 10.000000;fill: none;"></path>
  <path d="M363.464508 419.038635C363.464508 417.977722,363.042999 416.960388,362.292877 416.210266C361.542755 415.460144,360.525421 415.038635,359.464508 415.038635C358.403595 415.038635,357.386261 415.460144,356.636139 416.210266C355.886017 416.960388,355.464508 417.977722,355.464508 419.038635C355.464508 420.099548,355.886017 421.116882,356.636139 421.867004C357.386261 422.617126,358.403595 423.038635,359.464508 423.038635C360.525421 423.038635,361.542755 422.617126,362.292877 421.867004C363.042999 421.116882,363.464508 420.099548,363.464508 419.038635Z" style="fill: rgb(89.999390%,0.000000%,0.000000%);stroke: none;"></path>
  <path d="M494.997650 495.000000C494.997650 493.939087,494.576141 492.921753,493.826019 492.171631C493.075897 491.421509,492.058563 491.000000,490.997650 491.000000C489.936737 491.000000,488.919403 491.421509,488.169281 492.171631C487.419159 492.921753,486.997650 493.939087,486.997650 495.000000C486.997650 496.060913,487.419159 497.078247,488.169281 497.828369C488.919403 498.578491,489.936737 499.000000,490.997650 499.000000C492.058563 499.000000,493.075897 498.578491,493.826019 497.828369C494.576141 497.078247,494.997650 496.060913,494.997650 495.000000Z" style="stroke:rgb(39.999390%,39.999390%,39.999390%); stroke-width: 0.500000;stroke-linecap: round;stroke-linejoin: round;stroke-miterlimit: 10.000000;fill: none;"></path>
  <path d="M494.997650 495.000000C494.997650 493.939087,494.576141 492.921753,493.826019 492.171631C493.075897 491.421509,492.058563 491.000000,490.997650 491.000000C489.936737 491.000000,488.919403 491.421509,488.169281 492.171631C487.419159 492.921753,486.997650 493.939087,486.997650 495.000000C486.997650 496.060913,487.419159 497.078247,488.169281 497.828369C488.919403 498.578491,489.936737 499.000000,490.997650 499.000000C492.058563 499.000000,493.075897 498.578491,493.826019 497.828369C494.576141 497.078247,494.997650 496.060913,494.997650 495.000000Z" style="fill: rgb(0.000000%,50.000000%,0.000000%);stroke: none;"></path>
  <path d="M566.941711 363.458206L435.408569 287.496857" style="stroke:rgb(60.000610%,60.000610%,60.000610%); stroke-width: 1.800003;stroke-linecap: round;stroke-dasharray: 3.000000 3.000000 ;stroke-linejoin: round;stroke-miterlimit: 10.000000;fill: none;"></path>
  <path d="M359.464508 419.038635L435.408569 287.496857" style="stroke:rgb(60.000610%,60.000610%,60.000610%); stroke-width: 1.800003;stroke-linecap: round;stroke-dasharray: 3.000000 3.000000 ;stroke-linejoin: round;stroke-miterlimit: 10.000000;fill: none;"></path>
  <path d="M570.941711 363.458206C570.941711 362.397293,570.520203 361.379959,569.770081 360.629837C569.019958 359.879715,568.002625 359.458206,566.941711 359.458206C565.880798 359.458206,564.863464 359.879715,564.113342 360.629837C563.363220 361.379959,562.941711 362.397293,562.941711 363.458206C562.941711 364.519119,563.363220 365.536453,564.113342 366.286575C564.863464 367.036697,565.880798 367.458206,566.941711 367.458206C568.002625 367.458206,569.019958 367.036697,569.770081 366.286575C570.520203 365.536453,570.941711 364.519119,570.941711 363.458206Z" style="stroke:rgb(39.999390%,39.999390%,39.999390%); stroke-width: 0.500000;stroke-linecap: round;stroke-linejoin: round;stroke-miterlimit: 10.000000;fill: none;"></path>
  <path d="M570.941711 363.458206C570.941711 362.397293,570.520203 361.379959,569.770081 360.629837C569.019958 359.879715,568.002625 359.458206,566.941711 359.458206C565.880798 359.458206,564.863464 359.879715,564.113342 360.629837C563.363220 361.379959,562.941711 362.397293,562.941711 363.458206C562.941711 364.519119,563.363220 365.536453,564.113342 366.286575C564.863464 367.036697,565.880798 367.458206,566.941711 367.458206C568.002625 367.458206,569.019958 367.036697,569.770081 366.286575C570.520203 365.536453,570.941711 364.519119,570.941711 363.458206Z" style="fill: rgb(89.999390%,0.000000%,0.000000%);stroke: none;"></path>
  <path d="M363.464508 419.038635C363.464508 417.977722,363.042999 416.960388,362.292877 416.210266C361.542755 415.460144,360.525421 415.038635,359.464508 415.038635C358.403595 415.038635,357.386261 415.460144,356.636139 416.210266C355.886017 416.960388,355.464508 417.977722,355.464508 419.038635C355.464508 420.099548,355.886017 421.116882,356.636139 421.867004C357.386261 422.617126,358.403595 423.038635,359.464508 423.038635C360.525421 423.038635,361.542755 422.617126,362.292877 421.867004C363.042999 421.116882,363.464508 420.099548,363.464508 419.038635Z" style="stroke:rgb(39.999390%,39.999390%,39.999390%); stroke-width: 0.500000;stroke-linecap: round;stroke-linejoin: round;stroke-miterlimit: 10.000000;fill: none;"></path>
  <path d="M363.464508 419.038635C363.464508 417.977722,363.042999 416.960388,362.292877 416.210266C361.542755 415.460144,360.525421 415.038635,359.464508 415.038635C358.403595 415.038635,357.386261 415.460144,356.636139 416.210266C355.886017 416.960388,355.464508 417.977722,355.464508 419.038635C355.464508 420.099548,355.886017 421.116882,356.636139 421.867004C357.386261 422.617126,358.403595 423.038635,359.464508 423.038635C360.525421 423.038635,361.542755 422.617126,362.292877 421.867004C363.042999 421.116882,363.464508 420.099548,363.464508 419.038635Z" style="fill: rgb(89.999390%,0.000000%,0.000000%);stroke: none;"></path>
  <path d="M439.408569 287.496857C439.408569 286.435944,438.987061 285.418610,438.236938 284.668488C437.486816 283.918365,436.469482 283.496857,435.408569 283.496857C434.347656 283.496857,433.330322 283.918365,432.580200 284.668488C431.830078 285.418610,431.408569 286.435944,431.408569 287.496857C431.408569 288.557770,431.830078 289.575104,432.580200 290.325226C433.330322 291.075348,434.347656 291.496857,435.408569 291.496857C436.469482 291.496857,437.486816 291.075348,438.236938 290.325226C438.987061 289.575104,439.408569 288.557770,439.408569 287.496857Z" style="stroke:rgb(39.999390%,39.999390%,39.999390%); stroke-width: 0.500000;stroke-linecap: round;stroke-linejoin: round;stroke-miterlimit: 10.000000;fill: none;"></path>
  <path d="M439.408569 287.496857C439.408569 286.435944,438.987061 285.418610,438.236938 284.668488C437.486816 283.918365,436.469482 283.496857,435.408569 283.496857C434.347656 283.496857,433.330322 283.918365,432.580200 284.668488C431.830078 285.418610,431.408569 286.435944,431.408569 287.496857C431.408569 288.557770,431.830078 289.575104,432.580200 290.325226C433.330322 291.075348,434.347656 291.496857,435.408569 291.496857C436.469482 291.496857,437.486816 291.075348,438.236938 290.325226C438.987061 289.575104,439.408569 288.557770,439.408569 287.496857Z" style="fill: rgb(9.800720%,9.800720%,44.000244%);stroke: none;"></path>
  <path d="M359.464508 155.955063L359.464508 4.023697" style="stroke:rgb(60.000610%,60.000610%,60.000610%); stroke-width: 1.800003;stroke-linecap: round;stroke-dasharray: 3.000000 3.000000 ;stroke-linejoin: round;stroke-miterlimit: 10.000000;fill: none;"></path>
  <path d="M363.464508 155.955063C363.464508 154.894150,363.042999 153.876816,362.292877 153.126694C361.542755 152.376572,360.525421 151.955063,359.464508 151.955063C358.403595 151.955063,357.386261 152.376572,356.636139 153.126694C355.886017 153.876816,355.464508 154.894150,355.464508 155.955063C355.464508 157.015976,355.886017 158.033310,356.636139 158.783432C357.386261 159.533554,358.403595 159.955063,359.464508 159.955063C360.525421 159.955063,361.542755 159.533554,362.292877 158.783432C363.042999 158.033310,363.464508 157.015976,363.464508 155.955063Z" style="stroke:rgb(39.999390%,39.999390%,39.999390%); stroke-width: 0.500000;stroke-linecap: round;stroke-linejoin: round;stroke-miterlimit: 10.000000;fill: none;"></path>
  <path d="M363.464508 155.955063C363.464508 154.894150,363.042999 153.876816,362.292877 153.126694C361.542755 152.376572,360.525421 151.955063,359.464508 151.955063C358.403595 151.955063,357.386261 152.376572,356.636139 153.126694C355.886017 153.876816,355.464508 154.894150,355.464508 155.955063C355.464508 157.015976,355.886017 158.033310,356.636139 158.783432C357.386261 159.533554,358.403595 159.955063,359.464508 159.955063C360.525421 159.955063,361.542755 159.533554,362.292877 158.783432C363.042999 158.033310,363.464508 157.015976,363.464508 155.955063Z" style="fill: rgb(89.999390%,0.000000%,0.000000%);stroke: none;"></path>
  <path d="M363.464508 4.023697C363.464508 2.962784,363.042999 1.945450,362.292877 1.195328C361.542755 0.445206,360.525421 0.023697,359.464508 0.023697C358.403595 0.023697,357.386261 0.445206,356.636139 1.195328C355.886017 1.945450,355.464508 2.962784,355.464508 4.023697C355.464508 5.084610,355.886017 6.101944,356.636139 6.852066C357.386261 7.602188,358.403595 8.023697,359.464508 8.023697C360.525421 8.023697,361.542755 7.602188,362.292877 6.852066C363.042999 6.101944,363.464508 5.084610,363.464508 4.023697Z" style="stroke:rgb(39.999390%,39.999390%,39.999390%); stroke-width: 0.500000;stroke-linecap: round;stroke-linejoin: round;stroke-miterlimit: 10.000000;fill: none;"></path>
  <path d="M363.464508 4.023697C363.464508 2.962784,363.042999 1.945450,362.292877 1.195328C361.542755 0.445206,360.525421 0.023697,359.464508 0.023697C358.403595 0.023697,357.386261 0.445206,356.636139 1.195328C355.886017 1.945450,355.464508 2.962784,355.464508 4.023697C355.464508 5.084610,355.886017 6.101944,356.636139 6.852066C357.386261 7.602188,358.403595 8.023697,359.464508 8.023697C360.525421 8.023697,361.542755 7.602188,362.292877 6.852066C363.042999 6.101944,363.464508 5.084610,363.464508 4.023697Z" style="fill: rgb(100.000000%,100.000000%,0.000000%);stroke: none;"></path>
  <path d="M359.464508 155.955063L435.408569 287.496857" style="stroke:rgb(60.000610%,60.000610%,60.000610%); stroke-width: 1.800003;stroke-linecap: round;stroke-dasharray: 3.000000 3.000000 ;stroke-linejoin: round;stroke-miterlimit: 10.000000;fill: none;"></path>
  <path d="M359.464508 419.038635L435.408569 287.496857" style="stroke:rgb(60.000610%,60.000610%,60.000610%); stroke-width: 1.800003;stroke-linecap: round;stroke-dasharray: 3.000000 3.000000 ;stroke-linejoin: round;stroke-miterlimit: 10.000000;fill: none;"></path>
  <path d="M363.464508 155.955063C363.464508 154.894150,363.042999 153.876816,362.292877 153.126694C361.542755 152.376572,360.525421 151.955063,359.464508 151.955063C358.403595 151.955063,357.386261 152.376572,356.636139 153.126694C355.886017 153.876816,355.464508 154.894150,355.464508 155.955063C355.464508 157.015976,355.886017 158.033310,356.636139 158.783432C357.386261 159.533554,358.403595 159.955063,359.464508 159.955063C360.525421 159.955063,361.542755 159.533554,362.292877 158.783432C363.042999 158.033310,363.464508 157.015976,363.464508 155.955063Z" style="stroke:rgb(39.999390%,39.999390%,39.999390%); stroke-width: 0.500000;stroke-linecap: round;stroke-linejoin: round;stroke-miterlimit: 10.000000;fill: none;"></path>
  <path d="M363.464508 155.955063C363.464508 154.894150,363.042999 153.876816,362.292877 153.126694C361.542755 152.376572,360.525421 151.955063,359.464508 151.955063C358.403595 151.955063,357.386261 152.376572,356.636139 153.126694C355.886017 153.876816,355.464508 154.894150,355.464508 155.955063C355.464508 157.015976,355.886017 158.033310,356.636139 158.783432C357.386261 159.533554,358.403595 159.955063,359.464508 159.955063C360.525421 159.955063,361.542755 159.533554,362.292877 158.783432C363.042999 158.033310,363.464508 157.015976,363.464508 155.955063Z" style="fill: rgb(89.999390%,0.000000%,0.000000%);stroke: none;"></path>
  <path d="M363.464508 419.038635C363.464508 417.977722,363.042999 416.960388,362.292877 416.210266C361.542755 415.460144,360.525421 415.038635,359.464508 415.038635C358.403595 415.038635,357.386261 415.460144,356.636139 416.210266C355.886017 416.960388,355.464508 417.977722,355.464508 419.038635C355.464508 420.099548,355.886017 421.116882,356.636139 421.867004C357.386261 422.617126,358.403595 423.038635,359.464508 423.038635C360.525421 423.038635,361.542755 422.617126,362.292877 421.867004C363.042999 421.116882,363.464508 420.099548,363.464508 419.038635Z" style="stroke:rgb(39.999390%,39.999390%,39.999390%); stroke-width: 0.500000;stroke-linecap: round;stroke-linejoin: round;stroke-miterlimit: 10.000000;fill: none;"></path>
  <path d="M363.464508 419.038635C363.464508 417.977722,363.042999 416.960388,362.292877 416.210266C361.542755 415.460144,360.525421 415.038635,359.464508 415.038635C358.403595 415.038635,357.386261 415.460144,356.636139 416.210266C355.886017 416.960388,355.464508 417.977722,355.464508 419.038635C355.464508 420.099548,355.886017 421.116882,356.636139 421.867004C357.386261 422.617126,358.403595 423.038635,359.464508 423.038635C360.525421 423.038635,361.542755 422.617126,362.292877 421.867004C363.042999 421.116882,363.464508 420.099548,363.464508 419.038635Z" style="fill: rgb(89.999390%,0.000000%,0.000000%);stroke: none;"></path>
  <path d="M439.408569 287.496857C439.408569 286.435944,438.987061 285.418610,438.236938 284.668488C437.486816 283.918365,436.469482 283.496857,435.408569 283.496857C434.347656 283.496857,433.330322 283.918365,432.580200 284.668488C431.830078 285.418610,431.408569 286.435944,431.408569 287.496857C431.408569 288.557770,431.830078 289.575104,432.580200 290.325226C433.330322 291.075348,434.347656 291.496857,435.408569 291.496857C436.469482 291.496857,437.486816 291.075348,438.236938 290.325226C438.987061 289.575104,439.408569 288.557770,439.408569 287.496857Z" style="stroke:rgb(39.999390%,39.999390%,39.999390%); stroke-width: 0.500000;stroke-linecap: round;stroke-linejoin: round;stroke-miterlimit: 10.000000;fill: none;"></path>
  <path d="M439.408569 287.496857C439.408569 286.435944,438.987061 285.418610,438.236938 284.668488C437.486816 283.918365,436.469482 283.496857,435.408569 283.496857C434.347656 283.496857,433.330322 283.918365,432.580200 284.668488C431.830078 285.418610,431.408569 286.435944,431.408569 287.496857C431.408569 288.557770,431.830078 289.575104,432.580200 290.325226C433.330322 291.075348,434.347656 291.496857,435.408569 291.496857C436.469482 291.496857,437.486816 291.075348,438.236938 290.325226C438.987061 289.575104,439.408569 288.557770,439.408569 287.496857Z" style="fill: rgb(9.800720%,9.800720%,44.000244%);stroke: none;"></path>
  <path d="M359.464508 155.955063L283.520447 287.496857" style="stroke:rgb(60.000610%,60.000610%,60.000610%); stroke-width: 1.800003;stroke-linecap: round;stroke-dasharray: 3.000000 3.000000 ;stroke-linejoin: round;stroke-miterlimit: 10.000000;fill: none;"></path>
  <path d="M359.464508 419.038635L283.520447 287.496857" style="stroke:rgb(60.000610%,60.000610%,60.000610%); stroke-width: 1.800003;stroke-linecap: round;stroke-dasharray: 3.000000 3.000000 ;stroke-linejoin: round;stroke-miterlimit: 10.000000;fill: none;"></path>
  <path d="M363.464508 155.955063C363.464508 154.894150,363.042999 153.876816,362.292877 153.126694C361.542755 152.376572,360.525421 151.955063,359.464508 151.955063C358.403595 151.955063,357.386261 152.376572,356.636139 153.126694C355.886017 153.876816,355.464508 154.894150,355.464508 155.955063C355.464508 157.015976,355.886017 158.033310,356.636139 158.783432C357.386261 159.533554,358.403595 159.955063,359.464508 159.955063C360.525421 159.955063,361.542755 159.533554,362.292877 158.783432C363.042999 158.033310,363.464508 157.015976,363.464508 155.955063Z" style="stroke:rgb(39.999390%,39.999390%,39.999390%); stroke-width: 0.500000;stroke-linecap: round;stroke-linejoin: round;stroke-miterlimit: 10.000000;fill: none;"></path>
  <path d="M363.464508 155.955063C363.464508 154.894150,363.042999 153.876816,362.292877 153.126694C361.542755 152.376572,360.525421 151.955063,359.464508 151.955063C358.403595 151.955063,357.386261 152.376572,356.636139 153.126694C355.886017 153.876816,355.464508 154.894150,355.464508 155.955063C355.464508 157.015976,355.886017 158.033310,356.636139 158.783432C357.386261 159.533554,358.403595 159.955063,359.464508 159.955063C360.525421 159.955063,361.542755 159.533554,362.292877 158.783432C363.042999 158.033310,363.464508 157.015976,363.464508 155.955063Z" style="fill: rgb(89.999390%,0.000000%,0.000000%);stroke: none;"></path>
  <path d="M363.464508 419.038635C363.464508 417.977722,363.042999 416.960388,362.292877 416.210266C361.542755 415.460144,360.525421 415.038635,359.464508 415.038635C358.403595 415.038635,357.386261 415.460144,356.636139 416.210266C355.886017 416.960388,355.464508 417.977722,355.464508 419.038635C355.464508 420.099548,355.886017 421.116882,356.636139 421.867004C357.386261 422.617126,358.403595 423.038635,359.464508 423.038635C360.525421 423.038635,361.542755 422.617126,362.292877 421.867004C363.042999 421.116882,363.464508 420.099548,363.464508 419.038635Z" style="stroke:rgb(39.999390%,39.999390%,39.999390%); stroke-width: 0.500000;stroke-linecap: round;stroke-linejoin: round;stroke-miterlimit: 10.000000;fill: none;"></path>
  <path d="M363.464508 419.038635C363.464508 417.977722,363.042999 416.960388,362.292877 416.210266C361.542755 415.460144,360.525421 415.038635,359.464508 415.038635C358.403595 415.038635,357.386261 415.460144,356.636139 416.210266C355.886017 416.960388,355.464508 417.977722,355.464508 419.038635C355.464508 420.099548,355.886017 421.116882,356.636139 421.867004C357.386261 422.617126,358.403595 423.038635,359.464508 423.038635C360.525421 423.038635,361.542755 422.617126,362.292877 421.867004C363.042999 421.116882,363.464508 420.099548,363.464508 419.038635Z" style="fill: rgb(89.999390%,0.000000%,0.000000%);stroke: none;"></path>
  <path d="M287.520447 287.496857C287.520447 286.435944,287.098938 285.418610,286.348816 284.668488C285.598694 283.918365,284.581360 283.496857,283.520447 283.496857C282.459534 283.496857,281.442200 283.918365,280.692078 284.668488C279.941956 285.418610,279.520447 286.435944,279.520447 287.496857C279.520447 288.557770,279.941956 289.575104,280.692078 290.325226C281.442200 291.075348,282.459534 291.496857,283.520447 291.496857C284.581360 291.496857,285.598694 291.075348,286.348816 290.325226C287.098938 289.575104,287.520447 288.557770,287.520447 287.496857Z" style="stroke:rgb(39.999390%,39.999390%,39.999390%); stroke-width: 0.500000;stroke-linecap: round;stroke-linejoin: round;stroke-miterlimit: 10.000000;fill: none;"></path>
  <path d="M287.520447 287.496857C287.520447 286.435944,287.098938 285.418610,286.348816 284.668488C285.598694 283.918365,284.581360 283.496857,283.520447 283.496857C282.459534 283.496857,281.442200 283.918365,280.692078 284.668488C279.941956 285.418610,279.520447 286.435944,279.520447 287.496857C279.520447 288.557770,279.941956 289.575104,280.692078 290.325226C281.442200 291.075348,282.459534 291.496857,283.520447 291.496857C284.581360 291.496857,285.598694 291.075348,286.348816 290.325226C287.098938 289.575104,287.520447 288.557770,287.520447 287.496857Z" style="fill: rgb(9.800720%,9.800720%,44.000244%);stroke: none;"></path>
  <path d="M359.464508 155.955063L283.520447 287.496857" style="stroke:rgb(60.000610%,60.000610%,60.000610%); stroke-width: 1.800003;stroke-linecap: round;stroke-dasharray: 3.000000 3.000000 ;stroke-linejoin: round;stroke-miterlimit: 10.000000;fill: none;"></path>
  <path d="M151.987305 363.458206L283.520447 287.496857" style="stroke:rgb(60.000610%,60.000610%,60.000610%); stroke-width: 1.800003;stroke-linecap: round;stroke-dasharray: 3.000000 3.000000 ;stroke-linejoin: round;stroke-miterlimit: 10.000000;fill: none;"></path>
  <path d="M363.464508 155.955063C363.464508 154.894150,363.042999 153.876816,362.292877 153.126694C361.542755 152.376572,360.525421 151.955063,359.464508 151.955063C358.403595 151.955063,357.386261 152.376572,356.636139 153.126694C355.886017 153.876816,355.464508 154.894150,355.464508 155.955063C355.464508 157.015976,355.886017 158.033310,356.636139 158.783432C357.386261 159.533554,358.403595 159.955063,359.464508 159.955063C360.525421 159.955063,361.542755 159.533554,362.292877 158.783432C363.042999 158.033310,363.464508 157.015976,363.464508 155.955063Z" style="stroke:rgb(39.999390%,39.999390%,39.999390%); stroke-width: 0.500000;stroke-linecap: round;stroke-linejoin: round;stroke-miterlimit: 10.000000;fill: none;"></path>
  <path d="M363.464508 155.955063C363.464508 154.894150,363.042999 153.876816,362.292877 153.126694C361.542755 152.376572,360.525421 151.955063,359.464508 151.955063C358.403595 151.955063,357.386261 152.376572,356.636139 153.126694C355.886017 153.876816,355.464508 154.894150,355.464508 155.955063C355.464508 157.015976,355.886017 158.033310,356.636139 158.783432C357.386261 159.533554,358.403595 159.955063,359.464508 159.955063C360.525421 159.955063,361.542755 159.533554,362.292877 158.783432C363.042999 158.033310,363.464508 157.015976,363.464508 155.955063Z" style="fill: rgb(89.999390%,0.000000%,0.000000%);stroke: none;"></path>
  <path d="M155.987305 363.458206C155.987305 362.397293,155.565796 361.379959,154.815674 360.629837C154.065552 359.879715,153.048218 359.458206,151.987305 359.458206C150.926392 359.458206,149.909058 359.879715,149.158936 360.629837C148.408813 361.379959,147.987305 362.397293,147.987305 363.458206C147.987305 364.519119,148.408813 365.536453,149.158936 366.286575C149.909058 367.036697,150.926392 367.458206,151.987305 367.458206C153.048218 367.458206,154.065552 367.036697,154.815674 366.286575C155.565796 365.536453,155.987305 364.519119,155.987305 363.458206Z" style="stroke:rgb(39.999390%,39.999390%,39.999390%); stroke-width: 0.500000;stroke-linecap: round;stroke-linejoin: round;stroke-miterlimit: 10.000000;fill: none;"></path>
  <path d="M155.987305 363.458206C155.987305 362.397293,155.565796 361.379959,154.815674 360.629837C154.065552 359.879715,153.048218 359.458206,151.987305 359.458206C150.926392 359.458206,149.909058 359.879715,149.158936 360.629837C148.408813 361.379959,147.987305 362.397293,147.987305 363.458206C147.987305 364.519119,148.408813 365.536453,149.158936 366.286575C149.909058 367.036697,150.926392 367.458206,151.987305 367.458206C153.048218 367.458206,154.065552 367.036697,154.815674 366.286575C155.565796 365.536453,155.987305 364.519119,155.987305 363.458206Z" style="fill: rgb(89.999390%,0.000000%,0.000000%);stroke: none;"></path>
  <path d="M287.520447 287.496857C287.520447 286.435944,287.098938 285.418610,286.348816 284.668488C285.598694 283.918365,284.581360 283.496857,283.520447 283.496857C282.459534 283.496857,281.442200 283.918365,280.692078 284.668488C279.941956 285.418610,279.520447 286.435944,279.520447 287.496857C279.520447 288.557770,279.941956 289.575104,280.692078 290.325226C281.442200 291.075348,282.459534 291.496857,283.520447 291.496857C284.581360 291.496857,285.598694 291.075348,286.348816 290.325226C287.098938 289.575104,287.520447 288.557770,287.520447 287.496857Z" style="stroke:rgb(39.999390%,39.999390%,39.999390%); stroke-width: 0.500000;stroke-linecap: round;stroke-linejoin: round;stroke-miterlimit: 10.000000;fill: none;"></path>
  <path d="M287.520447 287.496857C287.520447 286.435944,287.098938 285.418610,286.348816 284.668488C285.598694 283.918365,284.581360 283.496857,283.520447 283.496857C282.459534 283.496857,281.442200 283.918365,280.692078 284.668488C279.941956 285.418610,279.520447 286.435944,279.520447 287.496857C279.520447 288.557770,279.941956 289.575104,280.692078 290.325226C281.442200 291.075348,282.459534 291.496857,283.520447 291.496857C284.581360 291.496857,285.598694 291.075348,286.348816 290.325226C287.098938 289.575104,287.520447 288.557770,287.520447 287.496857Z" style="fill: rgb(9.800720%,9.800720%,44.000244%);stroke: none;"></path>
  <path d="M359.464508 155.955063L227.931366 231.916428" style="stroke:rgb(60.000610%,60.000610%,60.000610%); stroke-width: 1.800003;stroke-linecap: round;stroke-dasharray: 3.000000 3.000000 ;stroke-linejoin: round;stroke-miterlimit: 10.000000;fill: none;"></path>
  <path d="M151.987305 363.458206L227.931366 231.916428" style="stroke:rgb(60.000610%,60.000610%,60.000610%); stroke-width: 1.800003;stroke-linecap: round;stroke-dasharray: 3.000000 3.000000 ;stroke-linejoin: round;stroke-miterlimit: 10.000000;fill: none;"></path>
  <path d="M363.464508 155.955063C363.464508 154.894150,363.042999 153.876816,362.292877 153.126694C361.542755 152.376572,360.525421 151.955063,359.464508 151.955063C358.403595 151.955063,357.386261 152.376572,356.636139 153.126694C355.886017 153.876816,355.464508 154.894150,355.464508 155.955063C355.464508 157.015976,355.886017 158.033310,356.636139 158.783432C357.386261 159.533554,358.403595 159.955063,359.464508 159.955063C360.525421 159.955063,361.542755 159.533554,362.292877 158.783432C363.042999 158.033310,363.464508 157.015976,363.464508 155.955063Z" style="stroke:rgb(39.999390%,39.999390%,39.999390%); stroke-width: 0.500000;stroke-linecap: round;stroke-linejoin: round;stroke-miterlimit: 10.000000;fill: none;"></path>
  <path d="M363.464508 155.955063C363.464508 154.894150,363.042999 153.876816,362.292877 153.126694C361.542755 152.376572,360.525421 151.955063,359.464508 151.955063C358.403595 151.955063,357.386261 152.376572,356.636139 153.126694C355.886017 153.876816,355.464508 154.894150,355.464508 155.955063C355.464508 157.015976,355.886017 158.033310,356.636139 158.783432C357.386261 159.533554,358.403595 159.955063,359.464508 159.955063C360.525421 159.955063,361.542755 159.533554,362.292877 158.783432C363.042999 158.033310,363.464508 157.015976,363.464508 155.955063Z" style="fill: rgb(89.999390%,0.000000%,0.000000%);stroke: none;"></path>
  <path d="M155.987305 363.458206C155.987305 362.397293,155.565796 361.379959,154.815674 360.629837C154.065552 359.879715,153.048218 359.458206,151.987305 359.458206C150.926392 359.458206,149.909058 359.879715,149.158936 360.629837C148.408813 361.379959,147.987305 362.397293,147.987305 363.458206C147.987305 364.519119,148.408813 365.536453,149.158936 366.286575C149.909058 367.036697,150.926392 367.458206,151.987305 367.458206C153.048218 367.458206,154.065552 367.036697,154.815674 366.286575C155.565796 365.536453,155.987305 364.519119,155.987305 363.458206Z" style="stroke:rgb(39.999390%,39.999390%,39.999390%); stroke-width: 0.500000;stroke-linecap: round;stroke-linejoin: round;stroke-miterlimit: 10.000000;fill: none;"></path>
  <path d="M155.987305 363.458206C155.987305 362.397293,155.565796 361.379959,154.815674 360.629837C154.065552 359.879715,153.048218 359.458206,151.987305 359.458206C150.926392 359.458206,149.909058 359.879715,149.158936 360.629837C148.408813 361.379959,147.987305 362.397293,147.987305 363.458206C147.987305 364.519119,148.408813 365.536453,149.158936 366.286575C149.909058 367.036697,150.926392 367.458206,151.987305 367.458206C153.048218 367.458206,154.065552 367.036697,154.815674 366.286575C155.565796 365.536453,155.987305 364.519119,155.987305 363.458206Z" style="fill: rgb(89.999390%,0.000000%,0.000000%);stroke: none;"></path>
  <path d="M231.931366 231.916428C231.931366 230.855515,231.509857 229.838181,230.759735 229.088058C230.009613 228.337936,228.992279 227.916428,227.931366 227.916428C226.870453 227.916428,225.853119 228.337936,225.102997 229.088058C224.352875 229.838181,223.931366 230.855515,223.931366 231.916428C223.931366 232.977341,224.352875 233.994675,225.102997 234.744797C225.853119 235.494919,226.870453 235.916428,227.931366 235.916428C228.992279 235.916428,230.009613 235.494919,230.759735 234.744797C231.509857 233.994675,231.931366 232.977341,231.931366 231.916428Z" style="stroke:rgb(39.999390%,39.999390%,39.999390%); stroke-width: 0.500000;stroke-linecap: round;stroke-linejoin: round;stroke-miterlimit: 10.000000;fill: none;"></path>
  <path d="M231.931366 231.916428C231.931366 230.855515,231.509857 229.838181,230.759735 229.088058C230.009613 228.337936,228.992279 227.916428,227.931366 227.916428C226.870453 227.916428,225.853119 228.337936,225.102997 229.088058C224.352875 229.838181,223.931366 230.855515,223.931366 231.916428C223.931366 232.977341,224.352875 233.994675,225.102997 234.744797C225.853119 235.494919,226.870453 235.916428,227.931366 235.916428C228.992279 235.916428,230.009613 235.494919,230.759735 234.744797C231.509857 233.994675,231.931366 232.977341,231.931366 231.916428Z" style="fill: rgb(0.000000%,50.000000%,0.000000%);stroke: none;"></path>
  <path d="M359.464508 419.038635L227.931366 495.000000" style="stroke:rgb(60.000610%,60.000610%,60.000610%); stroke-width: 1.800003;stroke-linecap: round;stroke-dasharray: 3.000000 3.000000 ;stroke-linejoin: round;stroke-miterlimit: 10.000000;fill: none;"></path>
  <path d="M151.987305 363.458206L227.931366 495.000000" style="stroke:rgb(60.000610%,60.000610%,60.000610%); stroke-width: 1.800003;stroke-linecap: round;stroke-dasharray: 3.000000 3.000000 ;stroke-linejoin: round;stroke-miterlimit: 10.000000;fill: none;"></path>
  <path d="M363.464508 419.038635C363.464508 417.977722,363.042999 416.960388,362.292877 416.210266C361.542755 415.460144,360.525421 415.038635,359.464508 415.038635C358.403595 415.038635,357.386261 415.460144,356.636139 416.210266C355.886017 416.960388,355.464508 417.977722,355.464508 419.038635C355.464508 420.099548,355.886017 421.116882,356.636139 421.867004C357.386261 422.617126,358.403595 423.038635,359.464508 423.038635C360.525421 423.038635,361.542755 422.617126,362.292877 421.867004C363.042999 421.116882,363.464508 420.099548,363.464508 419.038635Z" style="stroke:rgb(39.999390%,39.999390%,39.999390%); stroke-width: 0.500000;stroke-linecap: round;stroke-linejoin: round;stroke-miterlimit: 10.000000;fill: none;"></path>
  <path d="M363.464508 419.038635C363.464508 417.977722,363.042999 416.960388,362.292877 416.210266C361.542755 415.460144,360.525421 415.038635,359.464508 415.038635C358.403595 415.038635,357.386261 415.460144,356.636139 416.210266C355.886017 416.960388,355.464508 417.977722,355.464508 419.038635C355.464508 420.099548,355.886017 421.116882,356.636139 421.867004C357.386261 422.617126,358.403595 423.038635,359.464508 423.038635C360.525421 423.038635,361.542755 422.617126,362.292877 421.867004C363.042999 421.116882,363.464508 420.099548,363.464508 419.038635Z" style="fill: rgb(89.999390%,0.000000%,0.000000%);stroke: none;"></path>
  <path d="M155.987305 363.458206C155.987305 362.397293,155.565796 361.379959,154.815674 360.629837C154.065552 359.879715,153.048218 359.458206,151.987305 359.458206C150.926392 359.458206,149.909058 359.879715,149.158936 360.629837C148.408813 361.379959,147.987305 362.397293,147.987305 363.458206C147.987305 364.519119,148.408813 365.536453,149.158936 366.286575C149.909058 367.036697,150.926392 367.458206,151.987305 367.458206C153.048218 367.458206,154.065552 367.036697,154.815674 366.286575C155.565796 365.536453,155.987305 364.519119,155.987305 363.458206Z" style="stroke:rgb(39.999390%,39.999390%,39.999390%); stroke-width: 0.500000;stroke-linecap: round;stroke-linejoin: round;stroke-miterlimit: 10.000000;fill: none;"></path>
  <path d="M155.987305 363.458206C155.987305 362.397293,155.565796 361.379959,154.815674 360.629837C154.065552 359.879715,153.048218 359.458206,151.987305 359.458206C150.926392 359.458206,149.909058 359.879715,149.158936 360.629837C148.408813 361.379959,147.987305 362.397293,147.987305 363.458206C147.987305 364.519119,148.408813 365.536453,149.158936 366.286575C149.909058 367.036697,150.926392 367.458206,151.987305 367.458206C153.048218 367.458206,154.065552 367.036697,154.815674 366.286575C155.565796 365.536453,155.987305 364.519119,155.987305 363.458206Z" style="fill: rgb(89.999390%,0.000000%,0.000000%);stroke: none;"></path>
  <path d="M231.931366 495.000000C231.931366 493.939087,231.509857 492.921753,230.759735 492.171631C230.009613 491.421509,228.992279 491.000000,227.931366 491.000000C226.870453 491.000000,225.853119 491.421509,225.102997 492.171631C224.352875 492.921753,223.931366 493.939087,223.931366 495.000000C223.931366 496.060913,224.352875 497.078247,225.102997 497.828369C225.853119 498.578491,226.870453 499.000000,227.931366 499.000000C228.992279 499.000000,230.009613 498.578491,230.759735 497.828369C231.509857 497.078247,231.931366 496.060913,231.931366 495.000000Z" style="stroke:rgb(39.999390%,39.999390%,39.999390%); stroke-width: 0.500000;stroke-linecap: round;stroke-linejoin: round;stroke-miterlimit: 10.000000;fill: none;"></path>
  <path d="M231.931366 495.000000C231.931366 493.939087,231.509857 492.921753,230.759735 492.171631C230.009613 491.421509,228.992279 491.000000,227.931366 491.000000C226.870453 491.000000,225.853119 491.421509,225.102997 492.171631C224.352875 492.921753,223.931366 493.939087,223.931366 495.000000C223.931366 496.060913,224.352875 497.078247,225.102997 497.828369C225.853119 498.578491,226.870453 499.000000,227.931366 499.000000C228.992279 499.000000,230.009613 498.578491,230.759735 497.828369C231.509857 497.078247,231.931366 496.060913,231.931366 495.000000Z" style="fill: rgb(0.000000%,50.000000%,0.000000%);stroke: none;"></path>
  <path d="M359.464508 419.038635L283.520447 287.496857" style="stroke:rgb(60.000610%,60.000610%,60.000610%); stroke-width: 1.800003;stroke-linecap: round;stroke-dasharray: 3.000000 3.000000 ;stroke-linejoin: round;stroke-miterlimit: 10.000000;fill: none;"></path>
  <path d="M151.987305 363.458206L283.520447 287.496857" style="stroke:rgb(60.000610%,60.000610%,60.000610%); stroke-width: 1.800003;stroke-linecap: round;stroke-dasharray: 3.000000 3.000000 ;stroke-linejoin: round;stroke-miterlimit: 10.000000;fill: none;"></path>
  <path d="M363.464508 419.038635C363.464508 417.977722,363.042999 416.960388,362.292877 416.210266C361.542755 415.460144,360.525421 415.038635,359.464508 415.038635C358.403595 415.038635,357.386261 415.460144,356.636139 416.210266C355.886017 416.960388,355.464508 417.977722,355.464508 419.038635C355.464508 420.099548,355.886017 421.116882,356.636139 421.867004C357.386261 422.617126,358.403595 423.038635,359.464508 423.038635C360.525421 423.038635,361.542755 422.617126,362.292877 421.867004C363.042999 421.116882,363.464508 420.099548,363.464508 419.038635Z" style="stroke:rgb(39.999390%,39.999390%,39.999390%); stroke-width: 0.500000;stroke-linecap: round;stroke-linejoin: round;stroke-miterlimit: 10.000000;fill: none;"></path>
  <path d="M363.464508 419.038635C363.464508 417.977722,363.042999 416.960388,362.292877 416.210266C361.542755 415.460144,360.525421 415.038635,359.464508 415.038635C358.403595 415.038635,357.386261 415.460144,356.636139 416.210266C355.886017 416.960388,355.464508 417.977722,355.464508 419.038635C355.464508 420.099548,355.886017 421.116882,356.636139 421.867004C357.386261 422.617126,358.403595 423.038635,359.464508 423.038635C360.525421 423.038635,361.542755 422.617126,362.292877 421.867004C363.042999 421.116882,363.464508 420.099548,363.464508 419.038635Z" style="fill: rgb(89.999390%,0.000000%,0.000000%);stroke: none;"></path>
  <path d="M155.987305 363.458206C155.987305 362.397293,155.565796 361.379959,154.815674 360.629837C154.065552 359.879715,153.048218 359.458206,151.987305 359.458206C150.926392 359.458206,149.909058 359.879715,149.158936 360.629837C148.408813 361.379959,147.987305 362.397293,147.987305 363.458206C147.987305 364.519119,148.408813 365.536453,149.158936 366.286575C149.909058 367.036697,150.926392 367.458206,151.987305 367.458206C153.048218 367.458206,154.065552 367.036697,154.815674 366.286575C155.565796 365.536453,155.987305 364.519119,155.987305 363.458206Z" style="stroke:rgb(39.999390%,39.999390%,39.999390%); stroke-width: 0.500000;stroke-linecap: round;stroke-linejoin: round;stroke-miterlimit: 10.000000;fill: none;"></path>
  <path d="M155.987305 363.458206C155.987305 362.397293,155.565796 361.379959,154.815674 360.629837C154.065552 359.879715,153.048218 359.458206,151.987305 359.458206C150.926392 359.458206,149.909058 359.879715,149.158936 360.629837C148.408813 361.379959,147.987305 362.397293,147.987305 363.458206C147.987305 364.519119,148.408813 365.536453,149.158936 366.286575C149.909058 367.036697,150.926392 367.458206,151.987305 367.458206C153.048218 367.458206,154.065552 367.036697,154.815674 366.286575C155.565796 365.536453,155.987305 364.519119,155.987305 363.458206Z" style="fill: rgb(89.999390%,0.000000%,0.000000%);stroke: none;"></path>
  <path d="M287.520447 287.496857C287.520447 286.435944,287.098938 285.418610,286.348816 284.668488C285.598694 283.918365,284.581360 283.496857,283.520447 283.496857C282.459534 283.496857,281.442200 283.918365,280.692078 284.668488C279.941956 285.418610,279.520447 286.435944,279.520447 287.496857C279.520447 288.557770,279.941956 289.575104,280.692078 290.325226C281.442200 291.075348,282.459534 291.496857,283.520447 291.496857C284.581360 291.496857,285.598694 291.075348,286.348816 290.325226C287.098938 289.575104,287.520447 288.557770,287.520447 287.496857Z" style="stroke:rgb(39.999390%,39.999390%,39.999390%); stroke-width: 0.500000;stroke-linecap: round;stroke-linejoin: round;stroke-miterlimit: 10.000000;fill: none;"></path>
  <path d="M287.520447 287.496857C287.520447 286.435944,287.098938 285.418610,286.348816 284.668488C285.598694 283.918365,284.581360 283.496857,283.520447 283.496857C282.459534 283.496857,281.442200 283.918365,280.692078 284.668488C279.941956 285.418610,279.520447 286.435944,279.520447 287.496857C279.520447 288.557770,279.941956 289.575104,280.692078 290.325226C281.442200 291.075348,282.459534 291.496857,283.520447 291.496857C284.581360 291.496857,285.598694 291.075348,286.348816 290.325226C287.098938 289.575104,287.520447 288.557770,287.520447 287.496857Z" style="fill: rgb(9.800720%,9.800720%,44.000244%);stroke: none;"></path>
  <path d="M151.987305 363.458206L76.000000 495.000000" style="stroke:rgb(60.000610%,60.000610%,60.000610%); stroke-width: 1.800003;stroke-linecap: round;stroke-dasharray: 3.000000 3.000000 ;stroke-linejoin: round;stroke-miterlimit: 10.000000;fill: none;"></path>
  <path d="M155.987305 363.458206C155.987305 362.397293,155.565796 361.379959,154.815674 360.629837C154.065552 359.879715,153.048218 359.458206,151.987305 359.458206C150.926392 359.458206,149.909058 359.879715,149.158936 360.629837C148.408813 361.379959,147.987305 362.397293,147.987305 363.458206C147.987305 364.519119,148.408813 365.536453,149.158936 366.286575C149.909058 367.036697,150.926392 367.458206,151.987305 367.458206C153.048218 367.458206,154.065552 367.036697,154.815674 366.286575C155.565796 365.536453,155.987305 364.519119,155.987305 363.458206Z" style="stroke:rgb(39.999390%,39.999390%,39.999390%); stroke-width: 0.500000;stroke-linecap: round;stroke-linejoin: round;stroke-miterlimit: 10.000000;fill: none;"></path>
  <path d="M155.987305 363.458206C155.987305 362.397293,155.565796 361.379959,154.815674 360.629837C154.065552 359.879715,153.048218 359.458206,151.987305 359.458206C150.926392 359.458206,149.909058 359.879715,149.158936 360.629837C148.408813 361.379959,147.987305 362.397293,147.987305 363.458206C147.987305 364.519119,148.408813 365.536453,149.158936 366.286575C149.909058 367.036697,150.926392 367.458206,151.987305 367.458206C153.048218 367.458206,154.065552 367.036697,154.815674 366.286575C155.565796 365.536453,155.987305 364.519119,155.987305 363.458206Z" style="fill: rgb(89.999390%,0.000000%,0.000000%);stroke: none;"></path>
  <path d="M80.000000 495.000000C80.000000 493.939087,79.578491 492.921753,78.828369 492.171631C78.078247 491.421509,77.060913 491.000000,76.000000 491.000000C74.939087 491.000000,73.921753 491.421509,73.171631 492.171631C72.421509 492.921753,72.000000 493.939087,72.000000 495.000000C72.000000 496.060913,72.421509 497.078247,73.171631 497.828369C73.921753 498.578491,74.939087 499.000000,76.000000 499.000000C77.060913 499.000000,78.078247 498.578491,78.828369 497.828369C79.578491 497.078247,80.000000 496.060913,80.000000 495.000000Z" style="stroke:rgb(39.999390%,39.999390%,39.999390%); stroke-width: 0.500000;stroke-linecap: round;stroke-linejoin: round;stroke-miterlimit: 10.000000;fill: none;"></path>
  <path d="M80.000000 495.000000C80.000000 493.939087,79.578491 492.921753,78.828369 492.171631C78.078247 491.421509,77.060913 491.000000,76.000000 491.000000C74.939087 491.000000,73.921753 491.421509,73.171631 492.171631C72.421509 492.921753,72.000000 493.939087,72.000000 495.000000C72.000000 496.060913,72.421509 497.078247,73.171631 497.828369C73.921753 498.578491,74.939087 499.000000,76.000000 499.000000C77.060913 499.000000,78.078247 498.578491,78.828369 497.828369C79.578491 497.078247,80.000000 496.060913,80.000000 495.000000Z" style="fill: rgb(100.000000%,100.000000%,0.000000%);stroke: none;"></path>
</svg>
