<?xml version="1.0"?>
<!-- Created by MetaPost 2.00 on 2022.03.31:1000 -->
<svg version="1.1" xmlns="http://www.w3.org/2000/svg" xmlns:xlink="http://www.w3.org/1999/xlink" width="855.805359" height="855.788055" viewBox="0 0 855.805359 855.788055">
<!-- Original BoundingBox: -144.438171 -250.720062 711.367188 605.067993 -->
  <path d="M144.000000 605.000000L710.929016 605.000000L710.929016 38.070984L144.000000 38.070984L144.000000 605.000000Z" style="fill: rgb(100.000000%,100.000000%,100.000000%);stroke: none;"></path>
  <path d="M144.000000 605.000000L710.929016 605.000000" style="stroke:rgb(0.000000%,0.000000%,0.000000%); stroke-width: 1.000000;stroke-linecap: round;stroke-linejoin: round;stroke-miterlimit: 10.000000;fill: none;"></path>
  <path d="M710.929016 605.000000L710.929016 38.070984" style="stroke:rgb(0.000000%,0.000000%,0.000000%); stroke-width: 1.000000;stroke-linecap: round;stroke-linejoin: round;stroke-miterlimit: 10.000000;fill: none;"></path>
  <path d="M710.929016 38.070984L144.000000 38.070984" style="stroke:rgb(0.000000%,0.000000%,0.000000%); stroke-width: 1.000000;stroke-linecap: round;stroke-linejoin: round;stroke-miterlimit: 10.000000;fill: none;"></path>
  <path d="M144.000000 38.070984L144.000000 605.000000" style="stroke:rgb(0.000000%,0.000000%,0.000000%); stroke-width: 1.000000;stroke-linecap: round;stroke-linejoin: round;stroke-miterlimit: 10.000000;fill: none;"></path>
  <path d="M854.867188 286.093781C854.867188 210.328201,824.764954 137.674850,771.194656 84.104538C717.624344 30.534241,644.970993 0.432007,569.205414 0.432007C493.439835 0.432007,420.786484 30.534241,367.216171 84.104538C313.645874 137.674850,283.543640 210.328201,283.543640 286.093781C283.543640 361.859360,313.645874 434.512711,367.216171 488.083023C420.786484 541.653320,493.439835 571.755554,569.205414 571.755554C644.970993 571.755554,717.624344 541.653320,771.194656 488.083023C824.764954 434.512711,854.867188 361.859360,854.867188 286.093781Z" style="stroke:rgb(25.500488%,41.000366%,88.400269%); stroke-width: 1.000000;stroke-linecap: round;stroke-linejoin: round;stroke-miterlimit: 10.000000;fill: none;"></path>
  <path d="M713.126282 569.558289C713.126282 493.792709,683.024048 421.139359,629.453751 367.569046C575.883438 313.998749,503.230087 283.896515,427.464508 283.896515C351.698929 283.896515,279.045578 313.998749,225.475266 367.569046C171.904968 421.139359,141.802734 493.792709,141.802734 569.558289C141.802734 645.323868,171.904968 717.977219,225.475266 771.547531C279.045578 825.117828,351.698929 855.220062,427.464508 855.220062C503.230087 855.220062,575.883438 825.117828,629.453751 771.547531C683.024048 717.977219,713.126282 645.323868,713.126282 569.558289Z" style="stroke:rgb(25.500488%,41.000366%,88.400269%); stroke-width: 1.000000;stroke-linecap: round;stroke-linejoin: round;stroke-miterlimit: 10.000000;fill: none;"></path>
  <path d="M571.385376 286.093781C571.385376 210.328201,541.283142 137.674850,487.712845 84.104538C434.142532 30.534241,361.489182 0.432007,285.723602 0.432007C209.958023 0.432007,137.304672 30.534241,83.734360 84.104538C30.164062 137.674850,0.061829 210.328201,0.061829 286.093781C0.061829 361.859360,30.164062 434.512711,83.734360 488.083023C137.304672 541.653320,209.958023 571.755554,285.723602 571.755554C361.489182 571.755554,434.142532 541.653320,487.712845 488.083023C541.283142 434.512711,571.385376 361.859360,571.385376 286.093781Z" style="stroke:rgb(25.500488%,41.000366%,88.400269%); stroke-width: 1.000000;stroke-linecap: round;stroke-linejoin: round;stroke-miterlimit: 10.000000;fill: none;"></path>
  <path d="M569.205414 286.093781L710.929016 38.070984" style="stroke:rgb(60.000610%,60.000610%,60.000610%); stroke-width: 1.800003;stroke-linecap: round;stroke-dasharray: 3.000000 3.000000 ;stroke-linejoin: round;stroke-miterlimit: 10.000000;fill: none;"></path>
  <path d="M573.205414 286.093781C573.205414 285.032867,572.783905 284.015533,572.033783 283.265411C571.283661 282.515289,570.266327 282.093781,569.205414 282.093781C568.144501 282.093781,567.127167 282.515289,566.377045 283.265411C565.626923 284.015533,565.205414 285.032867,565.205414 286.093781C565.205414 287.154694,565.626923 288.172028,566.377045 288.922150C567.127167 289.672272,568.144501 290.093781,569.205414 290.093781C570.266327 290.093781,571.283661 289.672272,572.033783 288.922150C572.783905 288.172028,573.205414 287.154694,573.205414 286.093781Z" style="stroke:rgb(39.999390%,39.999390%,39.999390%); stroke-width: 0.500000;stroke-linecap: round;stroke-linejoin: round;stroke-miterlimit: 10.000000;fill: none;"></path>
  <path d="M573.205414 286.093781C573.205414 285.032867,572.783905 284.015533,572.033783 283.265411C571.283661 282.515289,570.266327 282.093781,569.205414 282.093781C568.144501 282.093781,567.127167 282.515289,566.377045 283.265411C565.626923 284.015533,565.205414 285.032867,565.205414 286.093781C565.205414 287.154694,565.626923 288.172028,566.377045 288.922150C567.127167 289.672272,568.144501 290.093781,569.205414 290.093781C570.266327 290.093781,571.283661 289.672272,572.033783 288.922150C572.783905 288.172028,573.205414 287.154694,573.205414 286.093781Z" style="fill: rgb(89.999390%,0.000000%,0.000000%);stroke: none;"></path>
  <path d="M714.929016 38.070984C714.929016 37.010071,714.507507 35.992737,713.757385 35.242615C713.007263 34.492493,711.989929 34.070984,710.929016 34.070984C709.868103 34.070984,708.850769 34.492493,708.100647 35.242615C707.350525 35.992737,706.929016 37.010071,706.929016 38.070984C706.929016 39.131897,707.350525 40.149231,708.100647 40.899353C708.850769 41.649475,709.868103 42.070984,710.929016 42.070984C711.989929 42.070984,713.007263 41.649475,713.757385 40.899353C714.507507 40.149231,714.929016 39.131897,714.929016 38.070984Z" style="stroke:rgb(39.999390%,39.999390%,39.999390%); stroke-width: 0.500000;stroke-linecap: round;stroke-linejoin: round;stroke-miterlimit: 10.000000;fill: none;"></path>
  <path d="M714.929016 38.070984C714.929016 37.010071,714.507507 35.992737,713.757385 35.242615C713.007263 34.492493,711.989929 34.070984,710.929016 34.070984C709.868103 34.070984,708.850769 34.492493,708.100647 35.242615C707.350525 35.992737,706.929016 37.010071,706.929016 38.070984C706.929016 39.131897,707.350525 40.149231,708.100647 40.899353C708.850769 41.649475,709.868103 42.070984,710.929016 42.070984C711.989929 42.070984,713.007263 41.649475,713.757385 40.899353C714.507507 40.149231,714.929016 39.131897,714.929016 38.070984Z" style="fill: rgb(100.000000%,100.000000%,0.000000%);stroke: none;"></path>
  <path d="M569.205414 286.093781L710.920364 534.125229" style="stroke:rgb(60.000610%,60.000610%,60.000610%); stroke-width: 1.800003;stroke-linecap: round;stroke-dasharray: 3.000000 3.000000 ;stroke-linejoin: round;stroke-miterlimit: 10.000000;fill: none;"></path>
  <path d="M427.464508 569.558289L710.920364 534.125229" style="stroke:rgb(60.000610%,60.000610%,60.000610%); stroke-width: 1.800003;stroke-linecap: round;stroke-dasharray: 3.000000 3.000000 ;stroke-linejoin: round;stroke-miterlimit: 10.000000;fill: none;"></path>
  <path d="M573.205414 286.093781C573.205414 285.032867,572.783905 284.015533,572.033783 283.265411C571.283661 282.515289,570.266327 282.093781,569.205414 282.093781C568.144501 282.093781,567.127167 282.515289,566.377045 283.265411C565.626923 284.015533,565.205414 285.032867,565.205414 286.093781C565.205414 287.154694,565.626923 288.172028,566.377045 288.922150C567.127167 289.672272,568.144501 290.093781,569.205414 290.093781C570.266327 290.093781,571.283661 289.672272,572.033783 288.922150C572.783905 288.172028,573.205414 287.154694,573.205414 286.093781Z" style="stroke:rgb(39.999390%,39.999390%,39.999390%); stroke-width: 0.500000;stroke-linecap: round;stroke-linejoin: round;stroke-miterlimit: 10.000000;fill: none;"></path>
  <path d="M573.205414 286.093781C573.205414 285.032867,572.783905 284.015533,572.033783 283.265411C571.283661 282.515289,570.266327 282.093781,569.205414 282.093781C568.144501 282.093781,567.127167 282.515289,566.377045 283.265411C565.626923 284.015533,565.205414 285.032867,565.205414 286.093781C565.205414 287.154694,565.626923 288.172028,566.377045 288.922150C567.127167 289.672272,568.144501 290.093781,569.205414 290.093781C570.266327 290.093781,571.283661 289.672272,572.033783 288.922150C572.783905 288.172028,573.205414 287.154694,573.205414 286.093781Z" style="fill: rgb(89.999390%,0.000000%,0.000000%);stroke: none;"></path>
  <path d="M431.464508 569.558289C431.464508 568.497375,431.042999 567.480042,430.292877 566.729919C429.542755 565.979797,428.525421 565.558289,427.464508 565.558289C426.403595 565.558289,425.386261 565.979797,424.636139 566.729919C423.886017 567.480042,423.464508 568.497375,423.464508 569.558289C423.464508 570.619202,423.886017 571.636536,424.636139 572.386658C425.386261 573.136780,426.403595 573.558289,427.464508 573.558289C428.525421 573.558289,429.542755 573.136780,430.292877 572.386658C431.042999 571.636536,431.464508 570.619202,431.464508 569.558289Z" style="stroke:rgb(39.999390%,39.999390%,39.999390%); stroke-width: 0.500000;stroke-linecap: round;stroke-linejoin: round;stroke-miterlimit: 10.000000;fill: none;"></path>
  <path d="M431.464508 569.558289C431.464508 568.497375,431.042999 567.480042,430.292877 566.729919C429.542755 565.979797,428.525421 565.558289,427.464508 565.558289C426.403595 565.558289,425.386261 565.979797,424.636139 566.729919C423.886017 567.480042,423.464508 568.497375,423.464508 569.558289C423.464508 570.619202,423.886017 571.636536,424.636139 572.386658C425.386261 573.136780,426.403595 573.558289,427.464508 573.558289C428.525421 573.558289,429.542755 573.136780,430.292877 572.386658C431.042999 571.636536,431.464508 570.619202,431.464508 569.558289Z" style="fill: rgb(89.999390%,0.000000%,0.000000%);stroke: none;"></path>
  <path d="M714.920364 534.125229C714.920364 533.064316,714.498856 532.046982,713.748734 531.296860C712.998611 530.546738,711.981277 530.125229,710.920364 530.125229C709.859451 530.125229,708.842117 530.546738,708.091995 531.296860C707.341873 532.046982,706.920364 533.064316,706.920364 534.125229C706.920364 535.186142,707.341873 536.203476,708.091995 536.953598C708.842117 537.703720,709.859451 538.125229,710.920364 538.125229C711.981277 538.125229,712.998611 537.703720,713.748734 536.953598C714.498856 536.203476,714.920364 535.186142,714.920364 534.125229Z" style="stroke:rgb(39.999390%,39.999390%,39.999390%); stroke-width: 0.500000;stroke-linecap: round;stroke-linejoin: round;stroke-miterlimit: 10.000000;fill: none;"></path>
  <path d="M714.920364 534.125229C714.920364 533.064316,714.498856 532.046982,713.748734 531.296860C712.998611 530.546738,711.981277 530.125229,710.920364 530.125229C709.859451 530.125229,708.842117 530.546738,708.091995 531.296860C707.341873 532.046982,706.920364 533.064316,706.920364 534.125229C706.920364 535.186142,707.341873 536.203476,708.091995 536.953598C708.842117 537.703720,709.859451 538.125229,710.920364 538.125229C711.981277 538.125229,712.998611 537.703720,713.748734 536.953598C714.498856 536.203476,714.920364 535.186142,714.920364 534.125229Z" style="fill: rgb(0.000000%,50.000000%,0.000000%);stroke: none;"></path>
  <path d="M569.205414 286.093781L427.464508 38.079636" style="stroke:rgb(60.000610%,60.000610%,60.000610%); stroke-width: 1.800003;stroke-linecap: round;stroke-dasharray: 3.000000 3.000000 ;stroke-linejoin: round;stroke-miterlimit: 10.000000;fill: none;"></path>
  <path d="M285.723602 286.093781L427.464508 38.079636" style="stroke:rgb(60.000610%,60.000610%,60.000610%); stroke-width: 1.800003;stroke-linecap: round;stroke-dasharray: 3.000000 3.000000 ;stroke-linejoin: round;stroke-miterlimit: 10.000000;fill: none;"></path>
  <path d="M573.205414 286.093781C573.205414 285.032867,572.783905 284.015533,572.033783 283.265411C571.283661 282.515289,570.266327 282.093781,569.205414 282.093781C568.144501 282.093781,567.127167 282.515289,566.377045 283.265411C565.626923 284.015533,565.205414 285.032867,565.205414 286.093781C565.205414 287.154694,565.626923 288.172028,566.377045 288.922150C567.127167 289.672272,568.144501 290.093781,569.205414 290.093781C570.266327 290.093781,571.283661 289.672272,572.033783 288.922150C572.783905 288.172028,573.205414 287.154694,573.205414 286.093781Z" style="stroke:rgb(39.999390%,39.999390%,39.999390%); stroke-width: 0.500000;stroke-linecap: round;stroke-linejoin: round;stroke-miterlimit: 10.000000;fill: none;"></path>
  <path d="M573.205414 286.093781C573.205414 285.032867,572.783905 284.015533,572.033783 283.265411C571.283661 282.515289,570.266327 282.093781,569.205414 282.093781C568.144501 282.093781,567.127167 282.515289,566.377045 283.265411C565.626923 284.015533,565.205414 285.032867,565.205414 286.093781C565.205414 287.154694,565.626923 288.172028,566.377045 288.922150C567.127167 289.672272,568.144501 290.093781,569.205414 290.093781C570.266327 290.093781,571.283661 289.672272,572.033783 288.922150C572.783905 288.172028,573.205414 287.154694,573.205414 286.093781Z" style="fill: rgb(89.999390%,0.000000%,0.000000%);stroke: none;"></path>
  <path d="M289.723602 286.093781C289.723602 285.032867,289.302094 284.015533,288.551971 283.265411C287.801849 282.515289,286.784515 282.093781,285.723602 282.093781C284.662689 282.093781,283.645355 282.515289,282.895233 283.265411C282.145111 284.015533,281.723602 285.032867,281.723602 286.093781C281.723602 287.154694,282.145111 288.172028,282.895233 288.922150C283.645355 289.672272,284.662689 290.093781,285.723602 290.093781C286.784515 290.093781,287.801849 289.672272,288.551971 288.922150C289.302094 288.172028,289.723602 287.154694,289.723602 286.093781Z" style="stroke:rgb(39.999390%,39.999390%,39.999390%); stroke-width: 0.500000;stroke-linecap: round;stroke-linejoin: round;stroke-miterlimit: 10.000000;fill: none;"></path>
  <path d="M289.723602 286.093781C289.723602 285.032867,289.302094 284.015533,288.551971 283.265411C287.801849 282.515289,286.784515 282.093781,285.723602 282.093781C284.662689 282.093781,283.645355 282.515289,282.895233 283.265411C282.145111 284.015533,281.723602 285.032867,281.723602 286.093781C281.723602 287.154694,282.145111 288.172028,282.895233 288.922150C283.645355 289.672272,284.662689 290.093781,285.723602 290.093781C286.784515 290.093781,287.801849 289.672272,288.551971 288.922150C289.302094 288.172028,289.723602 287.154694,289.723602 286.093781Z" style="fill: rgb(89.999390%,0.000000%,0.000000%);stroke: none;"></path>
  <path d="M431.464508 38.079636C431.464508 37.018723,431.042999 36.001389,430.292877 35.251266C429.542755 34.501144,428.525421 34.079636,427.464508 34.079636C426.403595 34.079636,425.386261 34.501144,424.636139 35.251266C423.886017 36.001389,423.464508 37.018723,423.464508 38.079636C423.464508 39.140549,423.886017 40.157883,424.636139 40.908005C425.386261 41.658127,426.403595 42.079636,427.464508 42.079636C428.525421 42.079636,429.542755 41.658127,430.292877 40.908005C431.042999 40.157883,431.464508 39.140549,431.464508 38.079636Z" style="stroke:rgb(39.999390%,39.999390%,39.999390%); stroke-width: 0.500000;stroke-linecap: round;stroke-linejoin: round;stroke-miterlimit: 10.000000;fill: none;"></path>
  <path d="M431.464508 38.079636C431.464508 37.018723,431.042999 36.001389,430.292877 35.251266C429.542755 34.501144,428.525421 34.079636,427.464508 34.079636C426.403595 34.079636,425.386261 34.501144,424.636139 35.251266C423.886017 36.001389,423.464508 37.018723,423.464508 38.079636C423.464508 39.140549,423.886017 40.157883,424.636139 40.908005C425.386261 41.658127,426.403595 42.079636,427.464508 42.079636C428.525421 42.079636,429.542755 41.658127,430.292877 40.908005C431.042999 40.157883,431.464508 39.140549,431.464508 38.079636Z" style="fill: rgb(0.000000%,50.000000%,0.000000%);stroke: none;"></path>
  <path d="M427.464508 569.558289L144.000000 605.000000" style="stroke:rgb(60.000610%,60.000610%,60.000610%); stroke-width: 1.800003;stroke-linecap: round;stroke-dasharray: 3.000000 3.000000 ;stroke-linejoin: round;stroke-miterlimit: 10.000000;fill: none;"></path>
  <path d="M431.464508 569.558289C431.464508 568.497375,431.042999 567.480042,430.292877 566.729919C429.542755 565.979797,428.525421 565.558289,427.464508 565.558289C426.403595 565.558289,425.386261 565.979797,424.636139 566.729919C423.886017 567.480042,423.464508 568.497375,423.464508 569.558289C423.464508 570.619202,423.886017 571.636536,424.636139 572.386658C425.386261 573.136780,426.403595 573.558289,427.464508 573.558289C428.525421 573.558289,429.542755 573.136780,430.292877 572.386658C431.042999 571.636536,431.464508 570.619202,431.464508 569.558289Z" style="stroke:rgb(39.999390%,39.999390%,39.999390%); stroke-width: 0.500000;stroke-linecap: round;stroke-linejoin: round;stroke-miterlimit: 10.000000;fill: none;"></path>
  <path d="M431.464508 569.558289C431.464508 568.497375,431.042999 567.480042,430.292877 566.729919C429.542755 565.979797,428.525421 565.558289,427.464508 565.558289C426.403595 565.558289,425.386261 565.979797,424.636139 566.729919C423.886017 567.480042,423.464508 568.497375,423.464508 569.558289C423.464508 570.619202,423.886017 571.636536,424.636139 572.386658C425.386261 573.136780,426.403595 573.558289,427.464508 573.558289C428.525421 573.558289,429.542755 573.136780,430.292877 572.386658C431.042999 571.636536,431.464508 570.619202,431.464508 569.558289Z" style="fill: rgb(89.999390%,0.000000%,0.000000%);stroke: none;"></path>
  <path d="M148.000000 605.000000C148.000000 603.939087,147.578491 602.921753,146.828369 602.171631C146.078247 601.421509,145.060913 601.000000,144.000000 601.000000C142.939087 601.000000,141.921753 601.421509,141.171631 602.171631C140.421509 602.921753,140.000000 603.939087,140.000000 605.000000C140.000000 606.060913,140.421509 607.078247,141.171631 607.828369C141.921753 608.578491,142.939087 609.000000,144.000000 609.000000C145.060913 609.000000,146.078247 608.578491,146.828369 607.828369C147.578491 607.078247,148.000000 606.060913,148.000000 605.000000Z" style="stroke:rgb(39.999390%,39.999390%,39.999390%); stroke-width: 0.500000;stroke-linecap: round;stroke-linejoin: round;stroke-miterlimit: 10.000000;fill: none;"></path>
  <path d="M148.000000 605.000000C148.000000 603.939087,147.578491 602.921753,146.828369 602.171631C146.078247 601.421509,145.060913 601.000000,144.000000 601.000000C142.939087 601.000000,141.921753 601.421509,141.171631 602.171631C140.421509 602.921753,140.000000 603.939087,140.000000 605.000000C140.000000 606.060913,140.421509 607.078247,141.171631 607.828369C141.921753 608.578491,142.939087 609.000000,144.000000 609.000000C145.060913 609.000000,146.078247 608.578491,146.828369 607.828369C147.578491 607.078247,148.000000 606.060913,148.000000 605.000000Z" style="fill: rgb(100.000000%,100.000000%,0.000000%);stroke: none;"></path>
  <path d="M427.464508 569.558289L710.929016 605.000000" style="stroke:rgb(60.000610%,60.000610%,60.000610%); stroke-width: 1.800003;stroke-linecap: round;stroke-dasharray: 3.000000 3.000000 ;stroke-linejoin: round;stroke-miterlimit: 10.000000;fill: none;"></path>
  <path d="M431.464508 569.558289C431.464508 568.497375,431.042999 567.480042,430.292877 566.729919C429.542755 565.979797,428.525421 565.558289,427.464508 565.558289C426.403595 565.558289,425.386261 565.979797,424.636139 566.729919C423.886017 567.480042,423.464508 568.497375,423.464508 569.558289C423.464508 570.619202,423.886017 571.636536,424.636139 572.386658C425.386261 573.136780,426.403595 573.558289,427.464508 573.558289C428.525421 573.558289,429.542755 573.136780,430.292877 572.386658C431.042999 571.636536,431.464508 570.619202,431.464508 569.558289Z" style="stroke:rgb(39.999390%,39.999390%,39.999390%); stroke-width: 0.500000;stroke-linecap: round;stroke-linejoin: round;stroke-miterlimit: 10.000000;fill: none;"></path>
  <path d="M431.464508 569.558289C431.464508 568.497375,431.042999 567.480042,430.292877 566.729919C429.542755 565.979797,428.525421 565.558289,427.464508 565.558289C426.403595 565.558289,425.386261 565.979797,424.636139 566.729919C423.886017 567.480042,423.464508 568.497375,423.464508 569.558289C423.464508 570.619202,423.886017 571.636536,424.636139 572.386658C425.386261 573.136780,426.403595 573.558289,427.464508 573.558289C428.525421 573.558289,429.542755 573.136780,430.292877 572.386658C431.042999 571.636536,431.464508 570.619202,431.464508 569.558289Z" style="fill: rgb(89.999390%,0.000000%,0.000000%);stroke: none;"></path>
  <path d="M714.929016 605.000000C714.929016 603.939087,714.507507 602.921753,713.757385 602.171631C713.007263 601.421509,711.989929 601.000000,710.929016 601.000000C709.868103 601.000000,708.850769 601.421509,708.100647 602.171631C707.350525 602.921753,706.929016 603.939087,706.929016 605.000000C706.929016 606.060913,707.350525 607.078247,708.100647 607.828369C708.850769 608.578491,709.868103 609.000000,710.929016 609.000000C711.989929 609.000000,713.007263 608.578491,713.757385 607.828369C714.507507 607.078247,714.929016 606.060913,714.929016 605.000000Z" style="stroke:rgb(39.999390%,39.999390%,39.999390%); stroke-width: 0.500000;stroke-linecap: round;stroke-linejoin: round;stroke-miterlimit: 10.000000;fill: none;"></path>
  <path d="M714.929016 605.000000C714.929016 603.939087,714.507507 602.921753,713.757385 602.171631C713.007263 601.421509,711.989929 601.000000,710.929016 601.000000C709.868103 601.000000,708.850769 601.421509,708.100647 602.171631C707.350525 602.921753,706.929016 603.939087,706.929016 605.000000C706.929016 606.060913,707.350525 607.078247,708.100647 607.828369C708.850769 608.578491,709.868103 609.000000,710.929016 609.000000C711.989929 609.000000,713.007263 608.578491,713.757385 607.828369C714.507507 607.078247,714.929016 606.060913,714.929016 605.000000Z" style="fill: rgb(100.000000%,100.000000%,0.000000%);stroke: none;"></path>
  <path d="M427.464508 569.558289L144.008652 534.125229" style="stroke:rgb(60.000610%,60.000610%,60.000610%); stroke-width: 1.800003;stroke-linecap: round;stroke-dasharray: 3.000000 3.000000 ;stroke-linejoin: round;stroke-miterlimit: 10.000000;fill: none;"></path>
  <path d="M285.723602 286.093781L144.008652 534.125229" style="stroke:rgb(60.000610%,60.000610%,60.000610%); stroke-width: 1.800003;stroke-linecap: round;stroke-dasharray: 3.000000 3.000000 ;stroke-linejoin: round;stroke-miterlimit: 10.000000;fill: none;"></path>
  <path d="M431.464508 569.558289C431.464508 568.497375,431.042999 567.480042,430.292877 566.729919C429.542755 565.979797,428.525421 565.558289,427.464508 565.558289C426.403595 565.558289,425.386261 565.979797,424.636139 566.729919C423.886017 567.480042,423.464508 568.497375,423.464508 569.558289C423.464508 570.619202,423.886017 571.636536,424.636139 572.386658C425.386261 573.136780,426.403595 573.558289,427.464508 573.558289C428.525421 573.558289,429.542755 573.136780,430.292877 572.386658C431.042999 571.636536,431.464508 570.619202,431.464508 569.558289Z" style="stroke:rgb(39.999390%,39.999390%,39.999390%); stroke-width: 0.500000;stroke-linecap: round;stroke-linejoin: round;stroke-miterlimit: 10.000000;fill: none;"></path>
  <path d="M431.464508 569.558289C431.464508 568.497375,431.042999 567.480042,430.292877 566.729919C429.542755 565.979797,428.525421 565.558289,427.464508 565.558289C426.403595 565.558289,425.386261 565.979797,424.636139 566.729919C423.886017 567.480042,423.464508 568.497375,423.464508 569.558289C423.464508 570.619202,423.886017 571.636536,424.636139 572.386658C425.386261 573.136780,426.403595 573.558289,427.464508 573.558289C428.525421 573.558289,429.542755 573.136780,430.292877 572.386658C431.042999 571.636536,431.464508 570.619202,431.464508 569.558289Z" style="fill: rgb(89.999390%,0.000000%,0.000000%);stroke: none;"></path>
  <path d="M289.723602 286.093781C289.723602 285.032867,289.302094 284.015533,288.551971 283.265411C287.801849 282.515289,286.784515 282.093781,285.723602 282.093781C284.662689 282.093781,283.645355 282.515289,282.895233 283.265411C282.145111 284.015533,281.723602 285.032867,281.723602 286.093781C281.723602 287.154694,282.145111 288.172028,282.895233 288.922150C283.645355 289.672272,284.662689 290.093781,285.723602 290.093781C286.784515 290.093781,287.801849 289.672272,288.551971 288.922150C289.302094 288.172028,289.723602 287.154694,289.723602 286.093781Z" style="stroke:rgb(39.999390%,39.999390%,39.999390%); stroke-width: 0.500000;stroke-linecap: round;stroke-linejoin: round;stroke-miterlimit: 10.000000;fill: none;"></path>
  <path d="M289.723602 286.093781C289.723602 285.032867,289.302094 284.015533,288.551971 283.265411C287.801849 282.515289,286.784515 282.093781,285.723602 282.093781C284.662689 282.093781,283.645355 282.515289,282.895233 283.265411C282.145111 284.015533,281.723602 285.032867,281.723602 286.093781C281.723602 287.154694,282.145111 288.172028,282.895233 288.922150C283.645355 289.672272,284.662689 290.093781,285.723602 290.093781C286.784515 290.093781,287.801849 289.672272,288.551971 288.922150C289.302094 288.172028,289.723602 287.154694,289.723602 286.093781Z" style="fill: rgb(89.999390%,0.000000%,0.000000%);stroke: none;"></path>
  <path d="M148.008652 534.125229C148.008652 533.064316,147.587143 532.046982,146.837021 531.296860C146.086899 530.546738,145.069565 530.125229,144.008652 530.125229C142.947739 530.125229,141.930405 530.546738,141.180283 531.296860C140.430161 532.046982,140.008652 533.064316,140.008652 534.125229C140.008652 535.186142,140.430161 536.203476,141.180283 536.953598C141.930405 537.703720,142.947739 538.125229,144.008652 538.125229C145.069565 538.125229,146.086899 537.703720,146.837021 536.953598C147.587143 536.203476,148.008652 535.186142,148.008652 534.125229Z" style="stroke:rgb(39.999390%,39.999390%,39.999390%); stroke-width: 0.500000;stroke-linecap: round;stroke-linejoin: round;stroke-miterlimit: 10.000000;fill: none;"></path>
  <path d="M148.008652 534.125229C148.008652 533.064316,147.587143 532.046982,146.837021 531.296860C146.086899 530.546738,145.069565 530.125229,144.008652 530.125229C142.947739 530.125229,141.930405 530.546738,141.180283 531.296860C140.430161 532.046982,140.008652 533.064316,140.008652 534.125229C140.008652 535.186142,140.430161 536.203476,141.180283 536.953598C141.930405 537.703720,142.947739 538.125229,144.008652 538.125229C145.069565 538.125229,146.086899 537.703720,146.837021 536.953598C147.587143 536.203476,148.008652 535.186142,148.008652 534.125229Z" style="fill: rgb(0.000000%,50.000000%,0.000000%);stroke: none;"></path>
  <path d="M285.723602 286.093781L144.000000 38.070984" style="stroke:rgb(60.000610%,60.000610%,60.000610%); stroke-width: 1.800003;stroke-linecap: round;stroke-dasharray: 3.000000 3.000000 ;stroke-linejoin: round;stroke-miterlimit: 10.000000;fill: none;"></path>
  <path d="M289.723602 286.093781C289.723602 285.032867,289.302094 284.015533,288.551971 283.265411C287.801849 282.515289,286.784515 282.093781,285.723602 282.093781C284.662689 282.093781,283.645355 282.515289,282.895233 283.265411C282.145111 284.015533,281.723602 285.032867,281.723602 286.093781C281.723602 287.154694,282.145111 288.172028,282.895233 288.922150C283.645355 289.672272,284.662689 290.093781,285.723602 290.093781C286.784515 290.093781,287.801849 289.672272,288.551971 288.922150C289.302094 288.172028,289.723602 287.154694,289.723602 286.093781Z" style="stroke:rgb(39.999390%,39.999390%,39.999390%); stroke-width: 0.500000;stroke-linecap: round;stroke-linejoin: round;stroke-miterlimit: 10.000000;fill: none;"></path>
  <path d="M289.723602 286.093781C289.723602 285.032867,289.302094 284.015533,288.551971 283.265411C287.801849 282.515289,286.784515 282.093781,285.723602 282.093781C284.662689 282.093781,283.645355 282.515289,282.895233 283.265411C282.145111 284.015533,281.723602 285.032867,281.723602 286.093781C281.723602 287.154694,282.145111 288.172028,282.895233 288.922150C283.645355 289.672272,284.662689 290.093781,285.723602 290.093781C286.784515 290.093781,287.801849 289.672272,288.551971 288.922150C289.302094 288.172028,289.723602 287.154694,289.723602 286.093781Z" style="fill: rgb(89.999390%,0.000000%,0.000000%);stroke: none;"></path>
  <path d="M148.000000 38.070984C148.000000 37.010071,147.578491 35.992737,146.828369 35.242615C146.078247 34.492493,145.060913 34.070984,144.000000 34.070984C142.939087 34.070984,141.921753 34.492493,141.171631 35.242615C140.421509 35.992737,140.000000 37.010071,140.000000 38.070984C140.000000 39.131897,140.421509 40.149231,141.171631 40.899353C141.921753 41.649475,142.939087 42.070984,144.000000 42.070984C145.060913 42.070984,146.078247 41.649475,146.828369 40.899353C147.578491 40.149231,148.000000 39.131897,148.000000 38.070984Z" style="stroke:rgb(39.999390%,39.999390%,39.999390%); stroke-width: 0.500000;stroke-linecap: round;stroke-linejoin: round;stroke-miterlimit: 10.000000;fill: none;"></path>
  <path d="M148.000000 38.070984C148.000000 37.010071,147.578491 35.992737,146.828369 35.242615C146.078247 34.492493,145.060913 34.070984,144.000000 34.070984C142.939087 34.070984,141.921753 34.492493,141.171631 35.242615C140.421509 35.992737,140.000000 37.010071,140.000000 38.070984C140.000000 39.131897,140.421509 40.149231,141.171631 40.899353C141.921753 41.649475,142.939087 42.070984,144.000000 42.070984C145.060913 42.070984,146.078247 41.649475,146.828369 40.899353C147.578491 40.149231,148.000000 39.131897,148.000000 38.070984Z" style="fill: rgb(100.000000%,100.000000%,0.000000%);stroke: none;"></path>
</svg>
