<?xml version="1.0"?>
<!-- Created by MetaPost 2.00 on 2022.03.31:1000 -->
<svg version="1.1" xmlns="http://www.w3.org/2000/svg" xmlns:xlink="http://www.w3.org/1999/xlink" width="713.324753" height="813.296051" viewBox="0 0 713.324753 813.296051">
<!-- Original BoundingBox: -142.145737 -283.886642 571.179016 529.409409 -->
  <path d="M142.000000 529.000000L708.929016 529.000000L425.464508 38.023697L142.000000 529.000000Z" style="fill: rgb(100.000000%,100.000000%,100.000000%);stroke: none;"></path>
  <path d="M142.000000 529.000000L708.929016 529.000000" style="stroke:rgb(0.000000%,0.000000%,0.000000%); stroke-width: 1.000000;stroke-linecap: round;stroke-linejoin: round;stroke-miterlimit: 10.000000;fill: none;"></path>
  <path d="M708.929016 529.000000L425.464508 38.023697" style="stroke:rgb(0.000000%,0.000000%,0.000000%); stroke-width: 1.000000;stroke-linecap: round;stroke-linejoin: round;stroke-miterlimit: 10.000000;fill: none;"></path>
  <path d="M425.464508 38.023697L142.000000 529.000000" style="stroke:rgb(0.000000%,0.000000%,0.000000%); stroke-width: 1.000000;stroke-linecap: round;stroke-linejoin: round;stroke-miterlimit: 10.000000;fill: none;"></path>
  <path d="M708.903061 528.965393C708.903061 453.794067,679.036926 381.710541,625.886795 328.560410C572.736664 275.410278,500.653137 245.544144,425.481812 245.544144C350.310486 245.544144,278.226959 275.410278,225.076828 328.560410C171.926697 381.710541,142.060562 453.794067,142.060562 528.965393C142.060562 604.136719,171.926697 676.220245,225.076828 729.370377C278.226959 782.520508,350.310486 812.386642,425.481812 812.386642C500.653137 812.386642,572.736664 782.520508,625.886795 729.370377C679.036926 676.220245,708.903061 604.136719,708.903061 528.965393Z" style="stroke:rgb(25.500488%,41.000366%,88.400269%); stroke-width: 1.000000;stroke-linecap: round;stroke-linejoin: round;stroke-miterlimit: 10.000000;fill: none;"></path>
  <path d="M567.196762 283.511841C567.196762 208.340515,537.330627 136.256989,484.180496 83.106857C431.030365 29.956726,358.946838 0.090591,283.775513 0.090591C208.604187 0.090591,136.520660 29.956726,83.370529 83.106857C30.220398 136.256989,0.354263 208.340515,0.354263 283.511841C0.354263 358.683167,30.220398 430.766693,83.370529 483.916824C136.520660 537.066956,208.604187 566.933090,283.775513 566.933090C358.946838 566.933090,431.030365 537.066956,484.180496 483.916824C537.330627 430.766693,567.196762 358.683167,567.196762 283.511841Z" style="stroke:rgb(25.500488%,41.000366%,88.400269%); stroke-width: 1.000000;stroke-linecap: round;stroke-linejoin: round;stroke-miterlimit: 10.000000;fill: none;"></path>
  <path d="M425.481812 528.965393L708.929016 529.000000" style="stroke:rgb(60.000610%,60.000610%,60.000610%); stroke-width: 1.800003;stroke-linecap: round;stroke-dasharray: 3.000000 3.000000 ;stroke-linejoin: round;stroke-miterlimit: 10.000000;fill: none;"></path>
  <path d="M429.481812 528.965393C429.481812 527.904480,429.060303 526.887146,428.310181 526.137024C427.560059 525.386902,426.542725 524.965393,425.481812 524.965393C424.420898 524.965393,423.403564 525.386902,422.653442 526.137024C421.903320 526.887146,421.481812 527.904480,421.481812 528.965393C421.481812 530.026306,421.903320 531.043640,422.653442 531.793762C423.403564 532.543884,424.420898 532.965393,425.481812 532.965393C426.542725 532.965393,427.560059 532.543884,428.310181 531.793762C429.060303 531.043640,429.481812 530.026306,429.481812 528.965393Z" style="stroke:rgb(39.999390%,39.999390%,39.999390%); stroke-width: 0.500000;stroke-linecap: round;stroke-linejoin: round;stroke-miterlimit: 10.000000;fill: none;"></path>
  <path d="M429.481812 528.965393C429.481812 527.904480,429.060303 526.887146,428.310181 526.137024C427.560059 525.386902,426.542725 524.965393,425.481812 524.965393C424.420898 524.965393,423.403564 525.386902,422.653442 526.137024C421.903320 526.887146,421.481812 527.904480,421.481812 528.965393C421.481812 530.026306,421.903320 531.043640,422.653442 531.793762C423.403564 532.543884,424.420898 532.965393,425.481812 532.965393C426.542725 532.965393,427.560059 532.543884,428.310181 531.793762C429.060303 531.043640,429.481812 530.026306,429.481812 528.965393Z" style="fill: rgb(89.999390%,0.000000%,0.000000%);stroke: none;"></path>
  <path d="M712.929016 529.000000C712.929016 527.939087,712.507507 526.921753,711.757385 526.171631C711.007263 525.421509,709.989929 525.000000,708.929016 525.000000C707.868103 525.000000,706.850769 525.421509,706.100647 526.171631C705.350525 526.921753,704.929016 527.939087,704.929016 529.000000C704.929016 530.060913,705.350525 531.078247,706.100647 531.828369C706.850769 532.578491,707.868103 533.000000,708.929016 533.000000C709.989929 533.000000,711.007263 532.578491,711.757385 531.828369C712.507507 531.078247,712.929016 530.060913,712.929016 529.000000Z" style="stroke:rgb(39.999390%,39.999390%,39.999390%); stroke-width: 0.500000;stroke-linecap: round;stroke-linejoin: round;stroke-miterlimit: 10.000000;fill: none;"></path>
  <path d="M712.929016 529.000000C712.929016 527.939087,712.507507 526.921753,711.757385 526.171631C711.007263 525.421509,709.989929 525.000000,708.929016 525.000000C707.868103 525.000000,706.850769 525.421509,706.100647 526.171631C705.350525 526.921753,704.929016 527.939087,704.929016 529.000000C704.929016 530.060913,705.350525 531.078247,706.100647 531.828369C706.850769 532.578491,707.868103 533.000000,708.929016 533.000000C709.989929 533.000000,711.007263 532.578491,711.757385 531.828369C712.507507 531.078247,712.929016 530.060913,712.929016 529.000000Z" style="fill: rgb(100.000000%,100.000000%,0.000000%);stroke: none;"></path>
  <path d="M425.481812 528.965393L142.060562 528.965393" style="stroke:rgb(60.000610%,60.000610%,60.000610%); stroke-width: 1.800003;stroke-linecap: round;stroke-dasharray: 3.000000 3.000000 ;stroke-linejoin: round;stroke-miterlimit: 10.000000;fill: none;"></path>
  <path d="M283.775513 283.511841L142.060562 528.965393" style="stroke:rgb(60.000610%,60.000610%,60.000610%); stroke-width: 1.800003;stroke-linecap: round;stroke-dasharray: 3.000000 3.000000 ;stroke-linejoin: round;stroke-miterlimit: 10.000000;fill: none;"></path>
  <path d="M429.481812 528.965393C429.481812 527.904480,429.060303 526.887146,428.310181 526.137024C427.560059 525.386902,426.542725 524.965393,425.481812 524.965393C424.420898 524.965393,423.403564 525.386902,422.653442 526.137024C421.903320 526.887146,421.481812 527.904480,421.481812 528.965393C421.481812 530.026306,421.903320 531.043640,422.653442 531.793762C423.403564 532.543884,424.420898 532.965393,425.481812 532.965393C426.542725 532.965393,427.560059 532.543884,428.310181 531.793762C429.060303 531.043640,429.481812 530.026306,429.481812 528.965393Z" style="stroke:rgb(39.999390%,39.999390%,39.999390%); stroke-width: 0.500000;stroke-linecap: round;stroke-linejoin: round;stroke-miterlimit: 10.000000;fill: none;"></path>
  <path d="M429.481812 528.965393C429.481812 527.904480,429.060303 526.887146,428.310181 526.137024C427.560059 525.386902,426.542725 524.965393,425.481812 524.965393C424.420898 524.965393,423.403564 525.386902,422.653442 526.137024C421.903320 526.887146,421.481812 527.904480,421.481812 528.965393C421.481812 530.026306,421.903320 531.043640,422.653442 531.793762C423.403564 532.543884,424.420898 532.965393,425.481812 532.965393C426.542725 532.965393,427.560059 532.543884,428.310181 531.793762C429.060303 531.043640,429.481812 530.026306,429.481812 528.965393Z" style="fill: rgb(89.999390%,0.000000%,0.000000%);stroke: none;"></path>
  <path d="M287.775513 283.511841C287.775513 282.450928,287.354004 281.433594,286.603882 280.683472C285.853760 279.933350,284.836426 279.511841,283.775513 279.511841C282.714600 279.511841,281.697266 279.933350,280.947144 280.683472C280.197021 281.433594,279.775513 282.450928,279.775513 283.511841C279.775513 284.572754,280.197021 285.590088,280.947144 286.340210C281.697266 287.090332,282.714600 287.511841,283.775513 287.511841C284.836426 287.511841,285.853760 287.090332,286.603882 286.340210C287.354004 285.590088,287.775513 284.572754,287.775513 283.511841Z" style="stroke:rgb(39.999390%,39.999390%,39.999390%); stroke-width: 0.500000;stroke-linecap: round;stroke-linejoin: round;stroke-miterlimit: 10.000000;fill: none;"></path>
  <path d="M287.775513 283.511841C287.775513 282.450928,287.354004 281.433594,286.603882 280.683472C285.853760 279.933350,284.836426 279.511841,283.775513 279.511841C282.714600 279.511841,281.697266 279.933350,280.947144 280.683472C280.197021 281.433594,279.775513 282.450928,279.775513 283.511841C279.775513 284.572754,280.197021 285.590088,280.947144 286.340210C281.697266 287.090332,282.714600 287.511841,283.775513 287.511841C284.836426 287.511841,285.853760 287.090332,286.603882 286.340210C287.354004 285.590088,287.775513 284.572754,287.775513 283.511841Z" style="fill: rgb(89.999390%,0.000000%,0.000000%);stroke: none;"></path>
  <path d="M146.060562 528.965393C146.060562 527.904480,145.639053 526.887146,144.888931 526.137024C144.138809 525.386902,143.121475 524.965393,142.060562 524.965393C140.999649 524.965393,139.982315 525.386902,139.232193 526.137024C138.482071 526.887146,138.060562 527.904480,138.060562 528.965393C138.060562 530.026306,138.482071 531.043640,139.232193 531.793762C139.982315 532.543884,140.999649 532.965393,142.060562 532.965393C143.121475 532.965393,144.138809 532.543884,144.888931 531.793762C145.639053 531.043640,146.060562 530.026306,146.060562 528.965393Z" style="stroke:rgb(39.999390%,39.999390%,39.999390%); stroke-width: 0.500000;stroke-linecap: round;stroke-linejoin: round;stroke-miterlimit: 10.000000;fill: none;"></path>
  <path d="M146.060562 528.965393C146.060562 527.904480,145.639053 526.887146,144.888931 526.137024C144.138809 525.386902,143.121475 524.965393,142.060562 524.965393C140.999649 524.965393,139.982315 525.386902,139.232193 526.137024C138.482071 526.887146,138.060562 527.904480,138.060562 528.965393C138.060562 530.026306,138.482071 531.043640,139.232193 531.793762C139.982315 532.543884,140.999649 532.965393,142.060562 532.965393C143.121475 532.965393,144.138809 532.543884,144.888931 531.793762C145.639053 531.043640,146.060562 530.026306,146.060562 528.965393Z" style="fill: rgb(0.000000%,50.000000%,0.000000%);stroke: none;"></path>
  <path d="M425.481812 528.965393L567.196762 283.511841" style="stroke:rgb(60.000610%,60.000610%,60.000610%); stroke-width: 1.800003;stroke-linecap: round;stroke-dasharray: 3.000000 3.000000 ;stroke-linejoin: round;stroke-miterlimit: 10.000000;fill: none;"></path>
  <path d="M283.775513 283.511841L567.196762 283.511841" style="stroke:rgb(60.000610%,60.000610%,60.000610%); stroke-width: 1.800003;stroke-linecap: round;stroke-dasharray: 3.000000 3.000000 ;stroke-linejoin: round;stroke-miterlimit: 10.000000;fill: none;"></path>
  <path d="M429.481812 528.965393C429.481812 527.904480,429.060303 526.887146,428.310181 526.137024C427.560059 525.386902,426.542725 524.965393,425.481812 524.965393C424.420898 524.965393,423.403564 525.386902,422.653442 526.137024C421.903320 526.887146,421.481812 527.904480,421.481812 528.965393C421.481812 530.026306,421.903320 531.043640,422.653442 531.793762C423.403564 532.543884,424.420898 532.965393,425.481812 532.965393C426.542725 532.965393,427.560059 532.543884,428.310181 531.793762C429.060303 531.043640,429.481812 530.026306,429.481812 528.965393Z" style="stroke:rgb(39.999390%,39.999390%,39.999390%); stroke-width: 0.500000;stroke-linecap: round;stroke-linejoin: round;stroke-miterlimit: 10.000000;fill: none;"></path>
  <path d="M429.481812 528.965393C429.481812 527.904480,429.060303 526.887146,428.310181 526.137024C427.560059 525.386902,426.542725 524.965393,425.481812 524.965393C424.420898 524.965393,423.403564 525.386902,422.653442 526.137024C421.903320 526.887146,421.481812 527.904480,421.481812 528.965393C421.481812 530.026306,421.903320 531.043640,422.653442 531.793762C423.403564 532.543884,424.420898 532.965393,425.481812 532.965393C426.542725 532.965393,427.560059 532.543884,428.310181 531.793762C429.060303 531.043640,429.481812 530.026306,429.481812 528.965393Z" style="fill: rgb(89.999390%,0.000000%,0.000000%);stroke: none;"></path>
  <path d="M287.775513 283.511841C287.775513 282.450928,287.354004 281.433594,286.603882 280.683472C285.853760 279.933350,284.836426 279.511841,283.775513 279.511841C282.714600 279.511841,281.697266 279.933350,280.947144 280.683472C280.197021 281.433594,279.775513 282.450928,279.775513 283.511841C279.775513 284.572754,280.197021 285.590088,280.947144 286.340210C281.697266 287.090332,282.714600 287.511841,283.775513 287.511841C284.836426 287.511841,285.853760 287.090332,286.603882 286.340210C287.354004 285.590088,287.775513 284.572754,287.775513 283.511841Z" style="stroke:rgb(39.999390%,39.999390%,39.999390%); stroke-width: 0.500000;stroke-linecap: round;stroke-linejoin: round;stroke-miterlimit: 10.000000;fill: none;"></path>
  <path d="M287.775513 283.511841C287.775513 282.450928,287.354004 281.433594,286.603882 280.683472C285.853760 279.933350,284.836426 279.511841,283.775513 279.511841C282.714600 279.511841,281.697266 279.933350,280.947144 280.683472C280.197021 281.433594,279.775513 282.450928,279.775513 283.511841C279.775513 284.572754,280.197021 285.590088,280.947144 286.340210C281.697266 287.090332,282.714600 287.511841,283.775513 287.511841C284.836426 287.511841,285.853760 287.090332,286.603882 286.340210C287.354004 285.590088,287.775513 284.572754,287.775513 283.511841Z" style="fill: rgb(89.999390%,0.000000%,0.000000%);stroke: none;"></path>
  <path d="M571.196762 283.511841C571.196762 282.450928,570.775253 281.433594,570.025131 280.683472C569.275009 279.933350,568.257675 279.511841,567.196762 279.511841C566.135849 279.511841,565.118515 279.933350,564.368393 280.683472C563.618271 281.433594,563.196762 282.450928,563.196762 283.511841C563.196762 284.572754,563.618271 285.590088,564.368393 286.340210C565.118515 287.090332,566.135849 287.511841,567.196762 287.511841C568.257675 287.511841,569.275009 287.090332,570.025131 286.340210C570.775253 285.590088,571.196762 284.572754,571.196762 283.511841Z" style="stroke:rgb(39.999390%,39.999390%,39.999390%); stroke-width: 0.500000;stroke-linecap: round;stroke-linejoin: round;stroke-miterlimit: 10.000000;fill: none;"></path>
  <path d="M571.196762 283.511841C571.196762 282.450928,570.775253 281.433594,570.025131 280.683472C569.275009 279.933350,568.257675 279.511841,567.196762 279.511841C566.135849 279.511841,565.118515 279.933350,564.368393 280.683472C563.618271 281.433594,563.196762 282.450928,563.196762 283.511841C563.196762 284.572754,563.618271 285.590088,564.368393 286.340210C565.118515 287.090332,566.135849 287.511841,567.196762 287.511841C568.257675 287.511841,569.275009 287.090332,570.025131 286.340210C570.775253 285.590088,571.196762 284.572754,571.196762 283.511841Z" style="fill: rgb(0.000000%,50.000000%,0.000000%);stroke: none;"></path>
  <path d="M283.775513 283.511841L425.464508 38.023697" style="stroke:rgb(60.000610%,60.000610%,60.000610%); stroke-width: 1.800003;stroke-linecap: round;stroke-dasharray: 3.000000 3.000000 ;stroke-linejoin: round;stroke-miterlimit: 10.000000;fill: none;"></path>
  <path d="M287.775513 283.511841C287.775513 282.450928,287.354004 281.433594,286.603882 280.683472C285.853760 279.933350,284.836426 279.511841,283.775513 279.511841C282.714600 279.511841,281.697266 279.933350,280.947144 280.683472C280.197021 281.433594,279.775513 282.450928,279.775513 283.511841C279.775513 284.572754,280.197021 285.590088,280.947144 286.340210C281.697266 287.090332,282.714600 287.511841,283.775513 287.511841C284.836426 287.511841,285.853760 287.090332,286.603882 286.340210C287.354004 285.590088,287.775513 284.572754,287.775513 283.511841Z" style="stroke:rgb(39.999390%,39.999390%,39.999390%); stroke-width: 0.500000;stroke-linecap: round;stroke-linejoin: round;stroke-miterlimit: 10.000000;fill: none;"></path>
  <path d="M287.775513 283.511841C287.775513 282.450928,287.354004 281.433594,286.603882 280.683472C285.853760 279.933350,284.836426 279.511841,283.775513 279.511841C282.714600 279.511841,281.697266 279.933350,280.947144 280.683472C280.197021 281.433594,279.775513 282.450928,279.775513 283.511841C279.775513 284.572754,280.197021 285.590088,280.947144 286.340210C281.697266 287.090332,282.714600 287.511841,283.775513 287.511841C284.836426 287.511841,285.853760 287.090332,286.603882 286.340210C287.354004 285.590088,287.775513 284.572754,287.775513 283.511841Z" style="fill: rgb(89.999390%,0.000000%,0.000000%);stroke: none;"></path>
  <path d="M429.464508 38.023697C429.464508 36.962784,429.042999 35.945450,428.292877 35.195328C427.542755 34.445206,426.525421 34.023697,425.464508 34.023697C424.403595 34.023697,423.386261 34.445206,422.636139 35.195328C421.886017 35.945450,421.464508 36.962784,421.464508 38.023697C421.464508 39.084610,421.886017 40.101944,422.636139 40.852066C423.386261 41.602188,424.403595 42.023697,425.464508 42.023697C426.525421 42.023697,427.542755 41.602188,428.292877 40.852066C429.042999 40.101944,429.464508 39.084610,429.464508 38.023697Z" style="stroke:rgb(39.999390%,39.999390%,39.999390%); stroke-width: 0.500000;stroke-linecap: round;stroke-linejoin: round;stroke-miterlimit: 10.000000;fill: none;"></path>
  <path d="M429.464508 38.023697C429.464508 36.962784,429.042999 35.945450,428.292877 35.195328C427.542755 34.445206,426.525421 34.023697,425.464508 34.023697C424.403595 34.023697,423.386261 34.445206,422.636139 35.195328C421.886017 35.945450,421.464508 36.962784,421.464508 38.023697C421.464508 39.084610,421.886017 40.101944,422.636139 40.852066C423.386261 41.602188,424.403595 42.023697,425.464508 42.023697C426.525421 42.023697,427.542755 41.602188,428.292877 40.852066C429.042999 40.101944,429.464508 39.084610,429.464508 38.023697Z" style="fill: rgb(100.000000%,100.000000%,0.000000%);stroke: none;"></path>
</svg>
